<?xml version="1.0" encoding="UTF-8" standalone="no"?>
<svg
   xmlns:dc="http://purl.org/dc/elements/1.1/"
   xmlns:cc="http://web.resource.org/cc/"
   xmlns:rdf="http://www.w3.org/1999/02/22-rdf-syntax-ns#"
   xmlns:svg="http://www.w3.org/2000/svg"
   xmlns="http://www.w3.org/2000/svg"
   xmlns:sodipodi="http://sodipodi.sourceforge.net/DTD/sodipodi-0.dtd"
   xmlns:inkscape="http://www.inkscape.org/namespaces/inkscape"
   viewBox="0 0 2752.766 1537.631"
   version="1.0"
   height="476.7276"
   width="939.74725"
   id="svg1926"
   sodipodi:version="0.32"
   inkscape:version="0.45.1"
   sodipodi:docname="BlankMap-World6.svg"
   sodipodi:docbase="/home/bennett/Desktop"
   inkscape:output_extension="org.inkscape.output.svg.inkscape">
  <sodipodi:namedview
     inkscape:window-height="590"
     inkscape:window-width="822"
     inkscape:pageshadow="2"
     inkscape:pageopacity="0.0"
     guidetolerance="10.0"
     gridtolerance="10.0"
     objecttolerance="10.0"
     borderopacity="1.0"
     bordercolor="#666666"
     pagecolor="#ffffff"
     id="base"
     inkscape:zoom="0.77893284"
     inkscape:cx="469.87363"
     inkscape:cy="238.3638"
     inkscape:window-x="178"
     inkscape:window-y="46"
     inkscape:current-layer="svg1926" />
  <metadata
     id="metadata24111">
    <rdf:RDF>
      <cc:Work
         rdf:about="">
        <dc:format>image/svg+xml</dc:format>
        <dc:type
           rdf:resource="http://purl.org/dc/dcmitype/StillImage" />
        <cc:license
           rdf:resource="http://web.resource.org/cc/PublicDomain" />
        <dc:title>Blank World Map</dc:title>
      </cc:Work>
      <cc:License
         rdf:about="http://web.resource.org/cc/PublicDomain">
        <cc:permits
           rdf:resource="http://web.resource.org/cc/Reproduction" />
        <cc:permits
           rdf:resource="http://web.resource.org/cc/Distribution" />
        <cc:permits
           rdf:resource="http://web.resource.org/cc/DerivativeWorks" />
      </cc:License>
    </rdf:RDF>
  </metadata>
  <defs
     id="defs1930" />
  <style
     type="text/css"
     id="style_css_sheet">
/*
 * Below are Cascading Style Sheet (CSS) definitions in use in this file,
 * which allow easily changing how countries are displayed.
 *
 */

/*
 * Circles around small countries
 *
 * Change opacity to 1 to display all circles.
 *
 */
.circle
{
   opacity:0;
   fill:#b9b9b9;
   fill-opacity:1;
   stroke:black;
   stroke-width:0.99986893;
   stroke-miterlimit:3.97446823;
   stroke-dasharray:none;
   stroke-opacity:1;
}

/*
 * Land
 */
.land
{
   fill: #b9b9b9;
   fill-opacity: 1;
   stroke: #ffffff;
   stroke-opacity: 1;
   stroke-width: 0.99986997;
   stroke-miterlimit: 3.97446823;
   stroke-dasharray: none;
}

/*
 * Additional style rules
 *
 * The following are examples of colouring countries.  You can substitute these with your own styles to colour the countries on the map.
 *
 * Color a few countries:
 *
 * .gb, .au, .nc
 * {
 *    fill:       #ff0000;
 * }
 *
 * Color a few small country circles (and the countries):
 *
 * .ms, .ky
 * {
 *    opacity:    1;
 *    fill:       #ff0000;
 * }
 *
 */

/*
 * Antarctica
 */

.aq
{
   fill:#e6e6e6;
}

/*
 * Sea
 */

.ocean
{
   opacity: 1;
   color: #000000;
   fill:white;
   fill-opacity:1;
   fill-rule:nonzero;
   stroke:#000000;
   stroke-width:0.5;
   stroke-linecap:butt;
   stroke-linejoin:miter;
   marker:none;
   marker-start:none;
   marker-mid:none;
   marker-end:none;
   stroke-miterlimit:1;
   stroke-dasharray:none;
   stroke-dashoffset:0;
   stroke-opacity:1;
   visibility:visible;
   display:inline;
   overflow:visible;
}

.lake
{
   fill:#ffffff;
   fill-opacity:1;
   stroke:#ffffff;
   stroke-opacity:1;
   stroke-width:0.99986997;
   stroke-miterlimit:3.97446823;
   stroke-dasharray:none;
}
</style>
  
  
  
  
  
  
  
  
  
  
  
  
  
  
  
  
  
  
  
  
  
  
  
  
  
  
  
  
  
  
  
  <path
     class="land af"
     d="M 1732.8128,464.8295 C 1732.6738,463.9015 1733.4427,463.1925 1734.2842,462.7276 C 1735.6126,462.0036 1735.0637,461.5095 1734.5821,460.6526 C 1736.6553,460.4346 1737.0474,457.9846 1737.4575,456.5596 C 1737.6667,455.8286 1736.9558,454.9826 1737.5415,454.2745 C 1738.0528,453.6565 1738.2458,452.7025 1738.5035,452.0075 C 1739.0698,450.4826 1740.8846,452.5306 1741.5402,452.8795 C 1742.5246,453.4035 1743.4811,452.7285 1744.5189,453.0115 C 1745.6519,453.3216 1746.3427,454.4006 1746.5083,455.4685 C 1747.5701,453.9495 1749.4125,454.7865 1750.7879,453.7885 C 1751.5244,453.2545 1752.2758,452.9826 1752.8139,452.2276 C 1753.3140,451.5256 1752.6136,451.2276 1753.7233,450.7156 C 1753.2553,450.3605 1752.8964,449.8635 1752.7884,449.2765 C 1756.0113,449.6766 1759.9662,447.5675 1762.8810,445.8605 C 1765.7491,444.1836 1763.7267,438.8875 1767.1267,437.6905 C 1768.3626,437.2556 1770.2111,437.8786 1771.2746,437.3236 C 1772.4036,436.7346 1771.6389,435.0086 1773.1194,434.7926 C 1774.2413,434.6295 1775.1999,435.6716 1775.9664,436.1205 C 1777.1160,436.7935 1778.3514,436.4266 1779.8071,436.2545 C 1781.4939,436.0546 1782.9716,436.0156 1783.8889,437.1886 C 1784.8100,438.3705 1786.5296,437.1116 1787.8937,437.4846 C 1788.4407,437.6336 1789.1967,438.9506 1789.6077,439.3886 C 1790.5099,440.3476 1790.9200,439.1775 1792.0364,439.4126 C 1792.1447,438.1726 1794.3996,438.1146 1795.2273,437.4355 C 1796.0780,436.7396 1795.7697,437.5706 1796.4836,437.3236 C 1796.8330,437.2025 1796.9746,436.5215 1797.3927,436.5845 C 1798.5100,436.7516 1798.3941,438.7896 1799.9067,438.4816 C 1801.7221,438.1125 1800.3450,436.0806 1801.2879,435.1345 C 1803.2871,433.1345 1805.9073,435.5165 1807.0905,434.5616 C 1808.5402,433.3915 1806.8951,432.9615 1806.9095,432.1395 C 1806.9280,431.1825 1808.6703,430.0555 1809.2899,429.1015 C 1811.0014,426.4735 1814.7490,426.2475 1815.6599,428.8406 C 1815.8718,429.4456 1814.8271,431.3786 1815.4844,431.5946 C 1816.1572,431.8166 1817.4420,430.9106 1817.6404,431.8875 C 1817.8468,432.9146 1816.9914,435.1166 1816.7514,436.2366 C 1816.4819,437.4975 1816.3627,438.7896 1816.5477,439.9676 C 1817.1676,443.6155 1819.9581,441.6085 1822.6170,439.8806 C 1823.7127,439.1696 1825.3313,439.9645 1826.1170,438.8716 C 1827.1721,437.4056 1828.3798,436.5025 1830.1700,435.7615 C 1831.4958,435.2126 1835.9608,435.3256 1833.4944,437.3236 C 1834.6930,437.8476 1837.2793,436.4235 1838.6368,435.8906 C 1839.7487,435.4545 1842.6137,436.5926 1843.0391,437.3956 C 1842.0327,437.7756 1841.6896,436.9135 1840.6708,437.3236 C 1839.4634,437.8096 1839.2765,438.8546 1840.3060,439.1966 C 1839.2566,439.5045 1838.2955,440.1275 1837.2701,440.5265 C 1835.8528,441.0786 1835.1499,440.3666 1833.9083,440.2656 C 1831.4791,440.0675 1828.4757,440.5045 1825.9203,440.8986 C 1824.7121,441.0845 1823.4881,441.3915 1822.3339,441.9966 C 1821.2763,442.5605 1820.2471,443.9715 1819.1506,444.3046 C 1817.8338,444.7056 1818.1719,443.9515 1817.0776,445.0645 C 1816.4679,445.6855 1815.1907,446.4615 1814.8122,447.1506 C 1814.3866,447.9246 1815.4570,448.6895 1815.8889,449.0546 C 1816.5278,449.5956 1816.5953,451.0756 1817.0968,451.4026 C 1817.6668,451.7726 1817.7537,452.4635 1817.6517,453.1665 C 1817.6167,453.4085 1817.6821,455.3435 1817.8737,455.1495 C 1817.2887,455.7436 1817.1336,456.9925 1816.3171,457.2665 C 1815.4316,457.5645 1814.6049,458.6295 1814.0367,459.3356 C 1813.7210,459.6836 1813.5950,460.0496 1813.6593,460.4346 C 1813.4313,460.4456 1812.7089,460.4846 1812.7930,460.9085 C 1812.9107,461.5066 1813.6153,461.8766 1813.9690,462.3216 C 1815.2691,463.8755 1812.3064,465.3376 1811.0767,465.5836 C 1809.8790,465.8236 1808.7159,465.7915 1807.6023,465.5716 C 1807.0488,465.4626 1805.3573,464.6076 1804.7166,465.1295 C 1803.3235,466.2625 1806.5086,468.1295 1806.8760,468.9185 C 1807.1612,469.5285 1808.0009,470.7935 1807.5113,471.4816 C 1807.0303,472.1585 1805.0604,473.4436 1804.2724,473.1135 C 1802.2986,472.2865 1801.7779,474.1816 1801.6166,475.4346 C 1801.4899,476.4226 1801.3249,477.3666 1800.4669,478.1465 C 1799.5364,478.9925 1800.1474,480.1125 1800.2286,481.0315 C 1800.3795,482.7516 1799.7238,484.9006 1797.7158,485.8166 C 1796.5252,486.3605 1796.3256,485.7996 1795.9317,484.9746 C 1795.6068,484.2966 1794.1868,483.7625 1793.9239,484.9155 C 1791.0405,483.7145 1790.0641,486.8086 1787.0875,486.8596 C 1787.1737,487.7516 1788.2255,487.7885 1788.7074,488.3716 C 1787.4595,488.9556 1786.0886,489.5036 1784.7711,489.4586 C 1783.8246,489.4275 1783.2415,488.6015 1782.5319,488.5845 C 1781.3145,488.5566 1780.0943,490.7416 1779.2640,491.4246 C 1778.1945,492.3046 1777.8472,492.1116 1777.4954,493.6606 C 1777.1699,495.0926 1777.5785,496.2106 1777.4691,497.5976 C 1777.2453,498.1436 1777.0324,498.6925 1776.8307,499.2436 C 1776.8116,499.7686 1777.2024,499.8895 1777.3248,500.3175 C 1777.7688,501.8616 1771.5868,502.8825 1770.7697,503.0625 C 1769.3942,503.3655 1768.1374,503.6825 1766.7621,503.6275 C 1765.3806,503.5725 1763.7460,503.2876 1762.3491,503.9515 C 1760.9867,504.5996 1760.4017,505.1325 1759.0086,504.7416 C 1757.7093,504.3775 1756.4675,504.2135 1755.0345,504.3986 C 1751.8543,504.8125 1748.8734,505.5455 1745.9055,504.6676 C 1742.4199,503.6356 1739.2472,501.9946 1735.6407,501.1886 C 1737.5045,499.4346 1738.9601,497.3646 1740.6251,495.4545 C 1742.0591,493.8125 1743.5172,492.0136 1743.1277,489.9386 C 1742.4130,486.1436 1735.8315,489.1406 1735.5101,484.9885 C 1735.3093,482.3566 1735.5585,480.0706 1734.6881,477.5906 C 1733.9356,475.4525 1732.8086,473.3816 1734.7091,471.1655 C 1736.2437,469.3786 1735.9247,469.5786 1734.0512,469.0736 C 1732.3401,468.6125 1733.0076,466.1406 1732.8128,464.8295"
     id="af" />
  
  
  
  
  
  
  
  
  
  
  
  
  
  
  
  
  
  
  
  
  
  
  
  
  
  
  
  
  
  
  
  
  
  
  
  
  
  
  
  
  
  
  
  
  
  
  
  
  
  
  
  
  
  
  
  
  
  
  
  
  
  
  
  
  
  
  
  
  
  
  
  
  
  
  
  
  
  
  
  
  
  
  
  
  
  
  
  
  
  
  
  
  
  
  
  
  
  
  
  
  
  
  
  
  
  
  
  
  
  
  
  
  
  
  
  
  
  
  
  
  
  
  
  
  
  
  
  
  
  
  
  
  
  
  
  
  
  
  
  
  
  
  
  
  
  
  
  
  
  
  
  
  
  
  
  
  
  
  
  
  
  
  
  
  
  
  
  
  
  
  
  
  
  
  
  
  
  
  
  
  
  
  
  
  
  
  
  
  
  
  
  
  
  
  
  
  
  
  
  
</svg>
