<?xml version="1.0" encoding="UTF-8" standalone="no"?>
<svg
   xmlns:dc="http://purl.org/dc/elements/1.1/"
   xmlns:cc="http://web.resource.org/cc/"
   xmlns:rdf="http://www.w3.org/1999/02/22-rdf-syntax-ns#"
   xmlns:svg="http://www.w3.org/2000/svg"
   xmlns="http://www.w3.org/2000/svg"
   xmlns:sodipodi="http://sodipodi.sourceforge.net/DTD/sodipodi-0.dtd"
   xmlns:inkscape="http://www.inkscape.org/namespaces/inkscape"
   viewBox="0 0 2752.766 1537.631"
   version="1.0"
   height="476.7276"
   width="939.74725"
   id="svg1926"
   sodipodi:version="0.32"
   inkscape:version="0.45.1"
   sodipodi:docname="BlankMap-World6.svg"
   sodipodi:docbase="/home/bennett/Desktop"
   inkscape:output_extension="org.inkscape.output.svg.inkscape">
  <sodipodi:namedview
     inkscape:window-height="590"
     inkscape:window-width="822"
     inkscape:pageshadow="2"
     inkscape:pageopacity="0.0"
     guidetolerance="10.0"
     gridtolerance="10.0"
     objecttolerance="10.0"
     borderopacity="1.0"
     bordercolor="#666666"
     pagecolor="#ffffff"
     id="base"
     inkscape:zoom="0.77893284"
     inkscape:cx="469.87363"
     inkscape:cy="238.3638"
     inkscape:window-x="178"
     inkscape:window-y="46"
     inkscape:current-layer="svg1926" />
  <metadata
     id="metadata24111">
    <rdf:RDF>
      <cc:Work
         rdf:about="">
        <dc:format>image/svg+xml</dc:format>
        <dc:type
           rdf:resource="http://purl.org/dc/dcmitype/StillImage" />
        <cc:license
           rdf:resource="http://web.resource.org/cc/PublicDomain" />
        <dc:title>Blank World Map</dc:title>
      </cc:Work>
      <cc:License
         rdf:about="http://web.resource.org/cc/PublicDomain">
        <cc:permits
           rdf:resource="http://web.resource.org/cc/Reproduction" />
        <cc:permits
           rdf:resource="http://web.resource.org/cc/Distribution" />
        <cc:permits
           rdf:resource="http://web.resource.org/cc/DerivativeWorks" />
      </cc:License>
    </rdf:RDF>
  </metadata>
  <defs
     id="defs1930" />
  <style
     type="text/css"
     id="style_css_sheet">
/*
 * Below are Cascading Style Sheet (CSS) definitions in use in this file,
 * which allow easily changing how countries are displayed.
 *
 */

/*
 * Circles around small countries
 *
 * Change opacity to 1 to display all circles.
 *
 */
.circle
{
   opacity:0;
   fill:#b9b9b9;
   fill-opacity:1;
   stroke:black;
   stroke-width:0.99986893;
   stroke-miterlimit:3.97446823;
   stroke-dasharray:none;
   stroke-opacity:1;
}

/*
 * Land
 */
.land
{
   fill: #b9b9b9;
   fill-opacity: 1;
   stroke: #ffffff;
   stroke-opacity: 1;
   stroke-width: 0.99986997;
   stroke-miterlimit: 3.97446823;
   stroke-dasharray: none;
}

/*
 * Additional style rules
 *
 * The following are examples of colouring countries.  You can substitute these with your own styles to colour the countries on the map.
 *
 * Color a few countries:
 *
 * .gb, .au, .nc
 * {
 *    fill:       #ff0000;
 * }
 *
 * Color a few small country circles (and the countries):
 *
 * .ms, .ky
 * {
 *    opacity:    1;
 *    fill:       #ff0000;
 * }
 *
 */

/*
 * Antarctica
 */

.aq
{
   fill:#e6e6e6;
}

/*
 * Sea
 */

.ocean
{
   opacity: 1;
   color: #000000;
   fill:white;
   fill-opacity:1;
   fill-rule:nonzero;
   stroke:#000000;
   stroke-width:0.5;
   stroke-linecap:butt;
   stroke-linejoin:miter;
   marker:none;
   marker-start:none;
   marker-mid:none;
   marker-end:none;
   stroke-miterlimit:1;
   stroke-dasharray:none;
   stroke-dashoffset:0;
   stroke-opacity:1;
   visibility:visible;
   display:inline;
   overflow:visible;
}

.lake
{
   fill:#ffffff;
   fill-opacity:1;
   stroke:#ffffff;
   stroke-opacity:1;
   stroke-width:0.99986997;
   stroke-miterlimit:3.97446823;
   stroke-dasharray:none;
}
</style>
  
  
  
  
  
  
  
  
  
  
  
  
  
  
  
  
  
  
  
  
  
  
  
  
  
  
  
  
  
  
  
  
  
  
  
  
  
  
  
  
  
  
  
  
  
  
  
  
  <g
     class="land ao"
     id="ao">
    <path
       d="M 1360.3116,908.8485 C 1360.1928,905.3395 1361.1459,901.7985 1360.7354,898.2785 C 1360.6713,897.7345 1360.2645,897.2105 1360.4917,896.6535 C 1360.8163,895.8575 1361.7018,895.3945 1362.0534,894.5665 C 1362.3356,893.9025 1362.3659,893.1855 1362.4580,892.4815 C 1362.5410,891.8475 1363.3834,891.0715 1363.1707,890.5345 C 1362.7159,889.3885 1364.2847,886.3065 1364.5340,885.0195 C 1364.8901,883.1825 1364.4902,881.1875 1365.5243,879.5755 C 1366.2124,878.5015 1365.7694,876.2555 1366.5651,875.5615 C 1367.3826,874.8485 1368.7047,873.3015 1369.2168,872.3405 C 1369.9733,870.9215 1369.4995,868.6755 1371.8130,868.4655 C 1373.4408,868.3185 1373.5796,867.0785 1374.3791,865.6825 C 1376.2753,862.3685 1376.8004,857.2315 1375.9107,853.5605 C 1375.5002,851.8655 1374.8276,850.6585 1373.8652,849.2255 C 1372.8628,847.7335 1372.8279,846.5745 1372.2747,845.0135 C 1372.0229,844.3015 1371.3849,843.7645 1371.2868,843.0035 C 1371.1662,842.0725 1371.3029,841.2105 1370.8862,840.3345 C 1370.2689,839.0345 1369.0476,837.3535 1370.8767,836.4215 C 1370.3886,836.7745 1370.0394,837.3185 1370.0869,837.9415 C 1370.4749,837.2105 1370.9019,836.4625 1371.4979,835.8775 C 1371.9746,835.4095 1372.7466,835.4385 1372.8281,834.6895 C 1373.0393,832.7375 1372.6368,830.9465 1371.6958,829.2405 C 1370.6374,827.3215 1370.0805,825.3105 1369.2592,823.2895 C 1368.8955,822.3935 1368.9215,821.3965 1368.6581,820.4745 C 1368.2665,819.1035 1366.9940,818.1775 1366.2854,816.9835 C 1365.7056,816.0065 1363.6863,812.5995 1365.4417,812.0575 C 1366.2517,811.8075 1367.0881,811.8025 1367.9193,811.6945 C 1369.0749,811.5435 1369.6434,810.5065 1370.9212,810.3835 C 1376.8212,809.8175 1382.7848,810.4895 1388.7167,810.3555 C 1390.9680,810.3045 1393.2740,810.1255 1395.5237,810.2065 C 1397.6372,810.2835 1397.1902,811.7225 1398.1752,813.0765 C 1398.5858,813.6405 1398.2160,815.3475 1398.4078,816.0995 C 1398.7519,817.4535 1399.4221,818.6875 1399.9315,819.9805 C 1400.3272,820.9825 1399.7270,821.8595 1400.5775,822.7575 C 1401.4855,823.7155 1401.7216,824.4125 1402.2689,825.5785 C 1402.6065,826.2955 1404.1795,829.6695 1405.2023,829.3875 C 1405.8164,829.2185 1408.9365,829.4575 1408.9335,829.4505 C 1408.7708,829.0575 1412.2858,828.0425 1412.9276,828.1845 C 1414.7336,828.5835 1416.3900,828.7945 1418.5287,828.7945 C 1418.2597,827.5365 1419.0089,826.3005 1418.5746,825.0545 C 1419.6430,825.2825 1419.7336,824.2645 1419.5931,823.4895 C 1419.3985,822.4165 1420.2228,821.0955 1419.8457,820.1545 C 1421.7010,820.1545 1423.5616,820.1905 1425.4158,820.1745 C 1425.9701,820.1695 1425.6407,819.5255 1426.0916,819.3725 C 1426.7345,819.1535 1427.4807,819.3655 1428.1402,819.3655 C 1427.7424,821.4285 1426.6212,822.6055 1429.2509,822.6055 C 1431.5488,822.6055 1433.8667,822.4845 1436.1620,822.5355 C 1438.0672,822.5775 1437.7350,824.4785 1437.3023,825.7595 C 1437.0605,826.4785 1436.7405,827.2125 1436.6816,827.9785 C 1436.5902,829.1925 1437.6556,830.4185 1437.8833,831.6315 C 1438.3610,834.1795 1437.4348,836.9985 1437.2571,839.5595 C 1437.0712,842.2305 1438.0270,843.2805 1439.5837,845.2805 C 1440.6828,846.6925 1441.2588,850.3475 1440.9459,852.0755 C 1440.8365,852.6845 1440.2618,853.0715 1440.0525,853.6505 C 1439.6635,854.7265 1440.7643,855.7595 1440.4359,856.8755 C 1441.3714,856.8985 1442.1926,855.5715 1442.9513,855.1635 C 1443.6028,854.8135 1445.5854,855.3395 1446.3122,855.5385 C 1447.6005,855.8915 1449.1076,854.4535 1450.4816,854.5065 C 1451.7932,854.5575 1453.2641,855.3665 1453.8013,853.6365 C 1454.2027,854.5905 1454.6197,857.3355 1454.4221,858.3135 C 1454.3156,858.8375 1454.0496,859.3105 1453.8563,859.8035 C 1453.5136,860.6705 1454.1248,861.5495 1453.8199,862.4315 C 1453.2703,864.0395 1454.5021,865.5725 1454.0933,867.1765 C 1453.6805,868.7945 1452.5322,870.1135 1453.9430,871.6365 C 1451.0192,872.5995 1447.0418,871.9175 1443.9993,871.9195 C 1442.4710,871.9195 1440.8887,871.8645 1439.3773,872.1035 C 1437.5853,872.3875 1438.3931,877.3615 1438.4024,878.7615 C 1438.4237,882.2215 1438.6651,885.6875 1438.6266,889.1465 C 1438.5924,892.3655 1438.1532,895.6155 1438.6728,898.8265 C 1439.1996,902.0765 1440.9602,902.9855 1442.9144,905.3275 C 1445.0007,907.8255 1447.1058,910.3325 1449.9059,912.1055 C 1445.4027,912.9725 1440.8686,913.7305 1436.4261,914.8705 C 1434.6552,915.3255 1433.9627,914.8815 1432.2733,914.6955 C 1431.5191,914.6125 1430.8847,914.9685 1430.2024,915.1925 C 1429.0941,915.5565 1428.0232,915.0215 1426.9543,914.7335 C 1423.1526,913.7125 1419.1048,914.1235 1415.2459,913.5305 C 1413.5912,913.2765 1412.7503,911.8555 1411.9293,910.6005 C 1411.1504,909.4095 1408.9576,909.9105 1407.8121,909.9925 C 1398.3988,910.6645 1388.6802,910.0155 1379.2327,910.0155 C 1377.2865,910.0155 1377.0759,909.8965 1375.3906,908.5975 C 1373.6970,907.2915 1372.3920,905.7495 1370.0895,906.6615 C 1368.4164,907.3245 1366.6891,909.3665 1364.7677,908.4905 C 1362.8630,907.6165 1362.1604,908.5645 1360.3116,908.8485"
       id="path3888" />
    <path
       d="M 1362.3827,802.9385 C 1363.6760,801.9255 1365.1294,799.3285 1366.8294,798.9875 C 1367.5858,798.8365 1367.5162,797.6145 1368.3518,797.6185 C 1369.2895,797.6225 1369.8931,799.1115 1370.5164,799.6295 C 1369.0026,800.6665 1367.6365,801.5885 1366.3288,802.8965 C 1365.6889,803.5355 1365.8731,803.5365 1366.1653,804.2735 C 1366.5771,805.3125 1366.3484,806.5405 1366.2545,807.6145 C 1366.1271,809.0725 1363.3854,810.2575 1363.3643,808.3485 C 1363.3532,807.2955 1363.9197,807.0485 1363.5941,805.8845 C 1363.3549,805.0285 1362.0499,803.5885 1363.1033,802.7995 C 1362.8631,802.8445 1362.6229,802.8915 1362.3827,802.9385"
       id="path3890" />
  </g>
  
  
  
  
  
  
  
  
  
  
  
  
  
  
  
  
  
  
  
  
  
  
  
  
  
  
  
  
  
  
  
  
  
  
  
  
  
  
  
  
  
  
  
  
  
  
  
  
  
  
  
  
  
  
  
  
  
  
  
  
  
  
  
  
  
  
  
  
  
  
  
  
  
  
  
  
  
  
  
  
  
  
  
  
  
  
  
  
  
  
  
  
  
  
  
  
  
  
  
  
  
  
  
  
  
  
  
  
  
  
  
  
  
  
  
  
  
  
  
  
  
  
  
  
  
  
  
  
  
  
  
  
  
  
  
  
  
  
  
  
  
  
  
  
  
  
  
  
  
  
  
  
  
  
  
  
  
  
  
  
  
  
  
  
  
  
  
  
  
  
  
  
  
  
  
  
  
  
  
  
  
  
  
</svg>
