<?xml version="1.0" encoding="UTF-8" standalone="no"?>
<svg
   xmlns:dc="http://purl.org/dc/elements/1.1/"
   xmlns:cc="http://web.resource.org/cc/"
   xmlns:rdf="http://www.w3.org/1999/02/22-rdf-syntax-ns#"
   xmlns:svg="http://www.w3.org/2000/svg"
   xmlns="http://www.w3.org/2000/svg"
   xmlns:sodipodi="http://sodipodi.sourceforge.net/DTD/sodipodi-0.dtd"
   xmlns:inkscape="http://www.inkscape.org/namespaces/inkscape"
   viewBox="0 0 2752.766 1537.631"
   version="1.0"
   height="476.7276"
   width="939.74725"
   id="svg1926"
   sodipodi:version="0.32"
   inkscape:version="0.45.1"
   sodipodi:docname="BlankMap-World6.svg"
   sodipodi:docbase="/home/bennett/Desktop"
   inkscape:output_extension="org.inkscape.output.svg.inkscape">
  <sodipodi:namedview
     inkscape:window-height="590"
     inkscape:window-width="822"
     inkscape:pageshadow="2"
     inkscape:pageopacity="0.0"
     guidetolerance="10.0"
     gridtolerance="10.0"
     objecttolerance="10.0"
     borderopacity="1.0"
     bordercolor="#666666"
     pagecolor="#ffffff"
     id="base"
     inkscape:zoom="0.77893284"
     inkscape:cx="469.87363"
     inkscape:cy="238.3638"
     inkscape:window-x="178"
     inkscape:window-y="46"
     inkscape:current-layer="svg1926" />
  <metadata
     id="metadata24111">
    <rdf:RDF>
      <cc:Work
         rdf:about="">
        <dc:format>image/svg+xml</dc:format>
        <dc:type
           rdf:resource="http://purl.org/dc/dcmitype/StillImage" />
        <cc:license
           rdf:resource="http://web.resource.org/cc/PublicDomain" />
        <dc:title>Blank World Map</dc:title>
      </cc:Work>
      <cc:License
         rdf:about="http://web.resource.org/cc/PublicDomain">
        <cc:permits
           rdf:resource="http://web.resource.org/cc/Reproduction" />
        <cc:permits
           rdf:resource="http://web.resource.org/cc/Distribution" />
        <cc:permits
           rdf:resource="http://web.resource.org/cc/DerivativeWorks" />
      </cc:License>
    </rdf:RDF>
  </metadata>
  <defs
     id="defs1930" />
  <style
     type="text/css"
     id="style_css_sheet">
/*
 * Below are Cascading Style Sheet (CSS) definitions in use in this file,
 * which allow easily changing how countries are displayed.
 *
 */

/*
 * Circles around small countries
 *
 * Change opacity to 1 to display all circles.
 *
 */
.circle
{
   opacity:0;
   fill:#b9b9b9;
   fill-opacity:1;
   stroke:black;
   stroke-width:0.99986893;
   stroke-miterlimit:3.97446823;
   stroke-dasharray:none;
   stroke-opacity:1;
}

/*
 * Land
 */
.land
{
   fill: #b9b9b9;
   fill-opacity: 1;
   stroke: #ffffff;
   stroke-opacity: 1;
   stroke-width: 0.99986997;
   stroke-miterlimit: 3.97446823;
   stroke-dasharray: none;
}

/*
 * Additional style rules
 *
 * The following are examples of colouring countries.  You can substitute these with your own styles to colour the countries on the map.
 *
 * Color a few countries:
 *
 * .gb, .au, .nc
 * {
 *    fill:       #ff0000;
 * }
 *
 * Color a few small country circles (and the countries):
 *
 * .ms, .ky
 * {
 *    opacity:    1;
 *    fill:       #ff0000;
 * }
 *
 */

/*
 * Antarctica
 */

.aq
{
   fill:#e6e6e6;
}

/*
 * Sea
 */

.ocean
{
   opacity: 1;
   color: #000000;
   fill:white;
   fill-opacity:1;
   fill-rule:nonzero;
   stroke:#000000;
   stroke-width:0.5;
   stroke-linecap:butt;
   stroke-linejoin:miter;
   marker:none;
   marker-start:none;
   marker-mid:none;
   marker-end:none;
   stroke-miterlimit:1;
   stroke-dasharray:none;
   stroke-dashoffset:0;
   stroke-opacity:1;
   visibility:visible;
   display:inline;
   overflow:visible;
}

.lake
{
   fill:#ffffff;
   fill-opacity:1;
   stroke:#ffffff;
   stroke-opacity:1;
   stroke-width:0.99986997;
   stroke-miterlimit:3.97446823;
   stroke-dasharray:none;
}
</style>
  
  
  
  
  
  
  
  
  
  
  
  
  
  
  
  
  
  
  
  
  
  
  
  
  
  
  
  
  
  
  
  
  
  
  
  
  
  
  
  
  
  
  
  
  
  
  
  
  
  
  
  
  
  
  
  
  
  
  
  
  
  
  
  
  
  
  
  
  
  
  
  
  
  
  
  
  
  
  
  
  
  
  
  
  
  
  
  
  
  
  
  
  
  
  
  
  
  
  
  
  
  
  
  
  
  
  
  
  
  
  
  
  
  
  
  
  
  
  
  
  
  
  
  
  
  
  
  
  
  
  
  
  
  
  
  
  
  
  
  
  
  
  
  
  
  
  
  
  
  
  
  
  
  
  <g
     class="land aq"
     id="aq">
    <path
       d="M 1799.1501,1182.8885 C 1798.7748,1182.6965 1798.4426,1182.4555 1798.1619,1182.1685 C 1797.9317,1182.3845 1797.7409,1182.6245 1797.5924,1182.8885 C 1797.8551,1182.2055 1799.2048,1181.0765 1798.6328,1180.1485 C 1798.2562,1180.5165 1797.7382,1180.6835 1797.0741,1180.6485 C 1797.6018,1180.3935 1797.9024,1179.9065 1797.6961,1179.2895 C 1796.8967,1179.5635 1795.8196,1181.0595 1796.8528,1181.9495 C 1795.7148,1181.8765 1795.5898,1182.9475 1796.6241,1183.6095 C 1795.4625,1183.5345 1796.6208,1185.9055 1796.2036,1186.8855 C 1795.5281,1188.4685 1798.1525,1188.1495 1798.6237,1187.2195 C 1799.1461,1186.1875 1799.8849,1186.7535 1801.2955,1187.1865 C 1802.4484,1187.5395 1803.9375,1187.7165 1802.6803,1186.3385 C 1803.8545,1186.3145 1803.6467,1187.5335 1804.6267,1187.9985 C 1806.1139,1188.7015 1806.0022,1187.3345 1806.9444,1187.2325 C 1808.4256,1187.0715 1806.5380,1185.9555 1806.0909,1186.5245 C 1805.4743,1187.3115 1803.3026,1186.5915 1803.4880,1185.4085 C 1804.3574,1185.9025 1804.9823,1185.8835 1804.3076,1184.9685 C 1805.2831,1185.3005 1806.1572,1184.7465 1807.0802,1185.1955 C 1807.6197,1185.4585 1809.9081,1186.4115 1808.0210,1184.9685 C 1811.0217,1185.7785 1808.5270,1180.5745 1806.9836,1183.2535 C 1806.8061,1183.5835 1805.0311,1183.3845 1804.5933,1183.5855 C 1804.0972,1183.8145 1803.8767,1184.2695 1803.4086,1184.5225 C 1803.0587,1184.7125 1801.0991,1184.7105 1802.8803,1184.2585 C 1802.0812,1184.4395 1800.9493,1184.1785 1800.6108,1183.2485 C 1800.3264,1183.3415 1800.0646,1183.4615 1799.8290,1183.6085 C 1800.3029,1182.8195 1802.9009,1183.4435 1801.6646,1181.8075 C 1801.6478,1182.7805 1800.1856,1182.8635 1799.2390,1182.8875 C 1800.0246,1182.6455 1800.6221,1182.0105 1800.3740,1181.1585 C 1799.4722,1181.3195 1798.8868,1182.0095 1799.1501,1182.8885"
       id="path2160" />
    <path
       d="M 1799.1501,1182.8885 C 1798.8868,1182.0095 1799.4722,1181.3195 1800.3766,1181.1595 C 1800.6299,1182.0305 1800.0060,1182.7025 1799.1501,1182.8885"
       id="path2200" />
    <path
       d="M 1834.3879,1216.4385 C 1833.0662,1215.5715 1831.6244,1215.4705 1830.2850,1215.2895 C 1832.6068,1216.9045 1831.9866,1217.0215 1834.3879,1216.4385"
       id="path2806" />
    <path
       d="M 2543.9202,1403.7085 C 2542.2141,1403.4455 2540.7899,1403.2915 2539.6365,1403.2435 C 2538.6743,1403.3165 2540.1629,1404.0475 2539.2462,1404.1385 C 2542.2705,1404.6555 2545.1008,1404.5255 2543.9202,1403.7085"
       id="path7014" />
    <path
       d="M 2551.4364,1403.1385 C 2546.7428,1402.1785 2547.0764,1403.4995 2545.7282,1403.7085 C 2551.0136,1404.8395 2551.4637,1403.7735 2551.4364,1403.1385"
       id="path7016" />
    <path
       d="M 2545.1341,1401.6185 C 2544.0957,1401.0295 2547.1430,1400.7325 2543.7112,1400.6185 C 2544.4806,1400.5865 2545.1170,1400.5135 2545.6187,1400.3975 C 2545.2820,1400.3805 2543.4047,1400.3865 2542.1881,1400.0315 C 2540.1428,1399.4335 2541.9864,1399.0245 2542.2710,1398.9665 C 2542.7794,1398.8855 2543.2143,1398.7815 2543.5723,1398.6555 C 2543.8911,1398.4965 2541.7526,1397.8845 2542.1781,1397.7155 C 2542.5518,1397.5695 2546.9361,1396.9365 2549.1276,1398.5285 C 2554.6812,1399.1115 2555.0147,1396.9265 2565.2612,1399.3875 C 2564.3738,1400.1235 2561.2687,1400.9085 2556.2067,1400.2855 C 2549.8923,1399.5075 2547.3701,1401.0315 2545.1341,1401.6185"
       id="path7018" />
    <path
       d="M 2456.4511,1341.2185 C 2456.1209,1341.2185 2455.7906,1341.2185 2455.4590,1341.2185 C 2454.8451,1340.5605 2454.8352,1339.9435 2457.1302,1340.7085 C 2457.1049,1340.9625 2456.8771,1341.1325 2456.4511,1341.2185"
       id="path7022" />
    <path
       d="M 2458.9099,1340.9285 C 2459.4293,1340.7815 2460.3351,1340.9015 2461.6268,1341.2885 C 2462.2520,1342.0455 2459.4040,1341.8835 2458.9099,1340.9285"
       id="path7024" />
    <path
       d="M 2567.0416,1372.0985 C 2567.0896,1371.9315 2567.0658,1371.7415 2566.9710,1371.5295 C 2563.3719,1370.9145 2564.4844,1372.5515 2563.2923,1372.8985 C 2568.1397,1374.0335 2566.8589,1372.7425 2567.0416,1372.0985"
       id="path6980" />
    <path
       d="M 2511.8063,1320.5485 C 2511.4916,1320.3085 2511.1797,1320.0695 2510.8620,1319.8285 C 2510.1140,1320.0395 2510.0883,1320.6995 2511.8389,1321.6285 C 2512.7753,1321.6515 2512.4545,1321.1145 2511.8063,1320.5485"
       id="path6982" />
    <path
       d="M 2516.6337,1323.2185 C 2515.4224,1322.9955 2515.2070,1323.2955 2515.8240,1323.8595 C 2516.8160,1323.9795 2517.0093,1323.6865 2516.6337,1323.2185"
       id="path6984" />
    <path
       d="M 2529.9755,1329.4085 C 2529.8937,1329.1905 2529.7339,1328.9505 2529.4959,1328.6875 C 2526.8356,1327.8955 2528.0388,1329.6665 2529.0074,1330.4175 C 2530.0702,1330.4085 2530.4085,1330.0335 2529.9755,1329.4085"
       id="path6986" />
    <path
       d="M 2019.1125,1308.0185 C 2020.6243,1308.3235 2025.4614,1308.5575 2024.1721,1306.9855 C 2023.3141,1305.9175 2020.3047,1304.9225 2018.8775,1304.4095 C 2017.1774,1303.7975 2013.3720,1303.2825 2013.8103,1304.6455 C 2014.2634,1306.0575 2017.8994,1306.5175 2016.8120,1307.5885 C 2017.6216,1307.8095 2018.3865,1307.9525 2019.1125,1308.0185"
       id="path6978" />
    <path
       d="M 2036.5217,1315.6485 C 2036.7219,1314.7855 2041.5373,1312.7335 2043.8912,1314.5135 C 2046.6192,1316.5735 2038.7118,1316.6055 2036.5217,1315.6485"
       id="path7010" />
    <path
       d="M 2056.5733,1313.1385 C 2055.3259,1311.8345 2056.8143,1311.7345 2058.4716,1312.1235 C 2059.2561,1312.3075 2060.1574,1313.9765 2061.1658,1314.4285 C 2059.9134,1315.1545 2058.2678,1313.2795 2056.5733,1313.1385"
       id="path7012" />
    <path
       d="M 2007.9114,1320.4085 C 2009.3544,1320.7425 2010.9997,1320.5695 2010.2328,1319.4685 C 2008.9941,1319.2635 2005.2708,1318.8745 2006.7951,1320.3385 C 2007.1687,1320.3625 2007.5400,1320.3855 2007.9114,1320.4085"
       id="path7000" />
    <path
       d="M 2028.6663,1324.1485 C 2029.9740,1324.2175 2030.3732,1323.5995 2030.4221,1322.9285 C 2029.5557,1323.1655 2029.0829,1323.6505 2028.6663,1324.1485"
       id="path7002" />
    <path
       d="M 2036.0430,1319.8985 C 2036.3995,1319.8385 2036.6675,1319.7185 2036.8491,1319.5395 C 2036.5817,1319.6585 2036.3124,1319.7785 2036.0430,1319.8985"
       id="path7004" />
    <path
       d="M 2038.5146,1319.4685 C 2039.2938,1319.9845 2039.9596,1319.1455 2040.0246,1319.0385 C 2039.1304,1318.8895 2038.6256,1319.0325 2038.5146,1319.4685"
       id="path7006" />
    <path
       d="M 2039.9789,1317.3785 C 2040.7984,1317.4905 2041.3216,1317.3705 2041.5468,1317.0185 C 2040.8909,1317.0335 2040.3702,1317.1545 2039.9789,1317.3785"
       id="path7008" />
    <path
       d="M 1976.4951,1316.1585 C 1974.7616,1316.2295 1977.0502,1317.0975 1977.9421,1317.0975 C 1979.4201,1317.0985 1977.4589,1315.9565 1976.4951,1316.1585"
       id="path6976" />
    <path
       d="M 1388.4635,1348.1285 C 1388.6020,1350.3505 1394.6460,1349.4915 1395.7107,1348.3155 C 1396.3672,1347.5885 1389.5970,1347.2235 1388.4635,1348.1285"
       id="path6972" />
    <path
       d="M 1366.1345,1348.5585 C 1367.2568,1348.4415 1370.8257,1347.8865 1370.9812,1349.2795 C 1369.6022,1349.4855 1366.6268,1350.0395 1366.1345,1348.5585"
       id="path6974" />
    <path
       d="M 1114.4270,1377.0695 C 1115.8996,1377.8295 1112.7853,1378.6555 1113.4340,1379.3845 C 1114.2958,1380.3485 1116.9694,1380.5125 1116.8481,1381.8985 C 1114.5528,1382.6865 1113.8670,1381.5205 1112.7878,1380.8135 C 1111.1902,1379.7615 1108.1107,1380.0345 1105.8786,1379.6595 C 1107.3101,1378.8035 1109.0534,1378.8885 1110.6030,1378.5135 C 1111.9549,1378.1855 1113.0272,1377.1695 1114.4270,1377.0695"
       id="path6954" />
    <path
       d="M 1249.5839,1355.6185 C 1251.3356,1355.4175 1253.3631,1354.5415 1254.7795,1353.7385 C 1253.2365,1353.4685 1245.6406,1351.6395 1244.3571,1352.9565 C 1242.8927,1354.4505 1248.6051,1355.5915 1249.5839,1355.6185"
       id="path6956" />
    <path
       d="M 1256.6106,1349.7795 C 1256.3570,1349.5945 1256.0290,1349.5485 1255.6269,1349.6385 C 1255.9547,1349.6855 1256.2840,1349.7325 1256.6106,1349.7795"
       id="path6958" />
    <path
       d="M 1276.0358,1355.8285 C 1276.0641,1355.6115 1276.0924,1355.3945 1276.1206,1355.1785 C 1275.6881,1355.3305 1275.2907,1355.5245 1274.9314,1355.7585 C 1275.2991,1355.7815 1275.6666,1355.8055 1276.0358,1355.8285"
       id="path6960" />
    <path
       d="M 1288.9341,1352.9485 C 1289.2353,1351.9555 1287.7499,1352.3025 1287.8100,1353.0975 C 1288.1842,1353.0485 1288.5599,1352.9985 1288.9341,1352.9485"
       id="path6962" />
    <path
       d="M 1294.5223,1352.5885 C 1296.6885,1352.3655 1298.4109,1350.9135 1295.1778,1350.8445 C 1292.9145,1350.7955 1291.7107,1352.3185 1294.5223,1352.5885"
       id="path6964" />
    <path
       d="M 1210.0804,1352.9485 C 1210.4366,1352.9985 1210.7943,1353.0485 1211.1509,1353.0975 C 1210.4215,1353.3925 1209.7420,1353.4155 1209.1132,1353.1675 C 1209.4359,1353.0955 1209.7587,1353.0225 1210.0804,1352.9485"
       id="path6966" />
    <path
       d="M 1221.7022,1351.5785 C 1222.4247,1351.3065 1225.1254,1350.6525 1225.3661,1351.4585 C 1225.7536,1352.8945 1222.2025,1352.0715 1221.7022,1351.5785"
       id="path6968" />
    <path
       d="M 1245.6208,1350.6485 C 1247.1505,1350.0665 1251.6618,1350.5535 1249.2581,1351.3295 C 1248.2502,1351.6515 1244.4272,1352.2615 1245.6208,1350.6485"
       id="path6970" />
    <path
       d="M 727.0925,1412.8485 C 732.8929,1412.8485 740.4205,1409.6885 747.8593,1408.0645 C 749.9136,1407.6145 752.9667,1407.2495 755.0247,1406.3215 C 758.0002,1404.9545 752.0987,1405.3135 751.2296,1405.4085 C 744.0731,1406.1865 736.4318,1406.8955 727.9081,1408.6265 C 716.6846,1410.8755 723.0139,1412.9815 727.0925,1412.8485"
       id="path6926" />
    <path
       d="M 799.0880,1415.0085 C 797.5721,1417.0755 784.8790,1416.6165 783.7938,1416.6255 C 779.2248,1416.6635 774.5405,1416.7625 770.5036,1416.4745 C 766.6208,1416.1975 763.8633,1415.1405 758.8810,1415.5185 C 755.9786,1418.3885 767.8861,1418.2065 772.2832,1418.0635 C 774.4487,1417.9925 776.9621,1417.7025 779.1207,1417.6345 C 782.4416,1417.5305 784.2081,1418.2265 786.4641,1418.6675 C 789.0737,1419.1775 791.9390,1419.5585 795.2747,1419.7055 C 799.0856,1419.8745 808.9952,1419.8295 810.8876,1415.8285 C 811.5967,1413.8365 810.2719,1412.5455 805.9855,1412.7865 C 803.9327,1412.9025 797.8806,1413.5305 799.0880,1415.0085"
       id="path6928" />
    <path
       d="M 980.7264,1406.8085 C 981.7065,1406.7695 982.6947,1406.7195 983.6902,1406.6595 C 977.7698,1406.7585 972.6125,1406.0895 966.7957,1406.0895 C 964.2489,1406.0895 961.8724,1405.9215 959.4956,1405.7625 C 956.3306,1405.5505 952.8595,1406.1735 949.3493,1406.3795 C 954.5320,1406.6125 960.2926,1406.2715 965.4092,1406.5745 C 970.2907,1406.8635 975.3380,1407.0455 980.7264,1406.8085"
       id="path6930" />
    <path
       d="M 873.2048,1415.0085 C 876.6179,1414.1715 880.0400,1413.2825 883.4104,1412.4985 C 883.8649,1411.8325 883.2490,1411.5365 883.0604,1411.0825 C 882.7727,1410.3825 884.0016,1409.1205 885.1342,1408.1415 C 887.3290,1406.1035 890.9735,1404.9795 894.4449,1404.2555 C 903.2922,1402.4015 911.0019,1401.8635 917.8165,1402.2835 C 923.6587,1402.6415 930.8711,1402.9625 934.3827,1404.9755 C 935.3970,1405.5515 935.5619,1406.4675 932.6719,1407.0975 C 928.7649,1407.9195 927.0419,1406.3735 922.8833,1407.5975 C 922.2386,1410.9405 937.0595,1406.0595 935.6504,1410.1875 C 933.5064,1410.7675 931.8746,1410.6105 929.9846,1410.8375 C 931.6932,1412.1645 938.9822,1410.7425 939.3149,1412.7335 C 939.8632,1415.6835 933.6714,1415.2335 930.7126,1415.4485 C 931.1760,1416.0035 932.3965,1416.1625 933.4804,1416.3785 C 930.3654,1417.6715 926.7319,1417.7635 924.2654,1417.8805 C 920.0988,1418.0785 915.7298,1418.4555 911.5821,1418.6295 C 900.9797,1419.0745 890.5822,1419.3425 879.8422,1419.8535 C 870.4520,1420.2995 859.1375,1421.1295 852.4903,1419.8055 C 848.3088,1418.9655 856.7121,1416.9125 860.0474,1416.5435 C 863.9271,1416.1105 868.3731,1416.7955 873.2048,1415.0085"
       id="path6952" />
    <path
       d="M 120.8734,1394.0585 C 122.7804,1393.9975 125.0294,1393.8295 125.5811,1394.2085 C 121.5007,1394.9505 120.6261,1394.5305 118.4744,1394.5685 C 119.2729,1394.3995 120.0755,1394.2285 120.8734,1394.0585"
       id="path7026" />
    <path
       d="M 136.8643,1394.8485 C 137.1854,1394.8015 137.5035,1394.7555 137.8246,1394.7085 C 137.0778,1394.2525 135.1704,1393.7045 130.4543,1394.6385 C 131.3122,1395.1315 134.0575,1394.9945 136.8643,1394.8485"
       id="path7028" />
    <path
       d="M 136.0022,1394.2085 C 134.9408,1394.3025 134.9927,1393.7725 133.2517,1393.9885 C 133.8336,1394.1675 134.7979,1394.2295 136.0022,1394.2085"
       id="path7030" />
    <path
       d="M 136.9009,1396.1485 C 137.4447,1395.2165 132.9083,1395.6275 129.8185,1395.8595 C 130.8367,1396.3885 133.8789,1396.2755 136.9009,1396.1485"
       id="path7032" />
    <path
       d="M 143.7880,1394.2085 C 143.8920,1393.5205 141.7453,1393.4265 139.4344,1393.4885 C 139.6035,1394.1125 141.9312,1394.1045 143.7880,1394.2085"
       id="path7034" />
    <path
       d="M 132.5502,1398.3785 C 131.7686,1398.0465 131.1435,1397.4825 127.4312,1398.0985 C 128.7613,1398.3085 130.0165,1398.5485 132.5502,1398.3785"
       id="path7036" />
    <path
       d="M 144.2955,1393.6985 C 144.0475,1393.4695 143.3713,1393.3765 142.2690,1393.4185 C 142.7628,1393.5695 143.4423,1393.6615 144.2955,1393.6985"
       id="path7038" />
    <path
       d="M 140.7465,1398.8885 C 145.1686,1396.8705 139.7200,1395.6065 132.5400,1397.0885 C 133.2744,1398.2195 134.9643,1399.2635 140.7465,1398.8885"
       id="path7040" />
    <path
       d="M 148.7562,1394.3485 C 148.9306,1393.7165 149.3025,1392.9765 145.2785,1393.6995 C 145.3989,1394.2385 147.2671,1394.2305 148.7562,1394.3485"
       id="path7042" />
    <path
       d="M 133.0024,1399.0985 C 133.0385,1398.8075 132.2954,1398.7605 130.7669,1398.9585 C 131.4888,1399.0125 132.2325,1399.0595 133.0024,1399.0985"
       id="path7044" />
    <path
       d="M 141.7268,1396.9385 C 142.2126,1396.5755 141.7966,1396.4785 140.5136,1396.6485 C 140.9230,1396.7445 141.3247,1396.8415 141.7268,1396.9385"
       id="path7048" />
    <path
       d="M 148.1081,1396.0085 C 149.2398,1395.9865 150.8329,1395.8015 152.6688,1395.4985 C 152.0586,1395.1565 150.9800,1394.5765 147.0411,1395.4285 C 147.1817,1395.6845 147.5384,1395.8775 148.1081,1396.0085"
       id="path7050" />
    <path
       d="M 144.8165,1397.8085 C 147.0116,1396.9585 144.3508,1397.2885 143.1427,1397.3785 C 143.3572,1397.6225 143.9164,1397.7655 144.8165,1397.8085"
       id="path7052" />
    <path
       d="M 118.5852,1396.0085 C 118.5065,1395.9115 118.4250,1395.8155 118.3467,1395.7185 C 125.6604,1395.0495 129.1062,1395.6515 130.7872,1396.7985 C 124.1478,1397.3695 122.1969,1396.4075 118.5852,1396.0085"
       id="path7054" />
    <path
       d="M 114.7264,1398.0185 C 119.3833,1396.5965 122.5784,1398.1155 123.2385,1398.3085 C 119.0068,1398.6765 116.5733,1398.4045 114.7264,1398.0185"
       id="path7056" />
    <path
       d="M 150.1654,1391.6185 C 150.2047,1390.7395 150.1979,1389.6355 145.0741,1390.3885 C 146.0149,1390.9945 146.7371,1391.7865 150.1654,1391.6185"
       id="path7058" />
    <path
       d="M 156.6706,1387.0785 C 161.0029,1386.0545 161.1564,1387.1935 161.9858,1387.5085 C 158.6129,1387.9165 157.5565,1387.4885 156.6706,1387.0785"
       id="path7060" />
    <path
       d="M 176.3484,1386.2885 C 177.8677,1386.0675 178.7113,1386.1705 178.8735,1386.4985 C 177.7442,1386.5445 176.9023,1386.4745 176.3484,1386.2885"
       id="path7062" />
    <path
       d="M 313.8887,1373.3985 C 316.1096,1373.2395 317.6146,1373.4395 318.8650,1373.7585 C 316.4857,1373.8085 313.0446,1374.8315 313.8887,1373.3985"
       id="path1948" />
    <path
       d="M 377.8983,1378.0785 C 377.7228,1377.7015 376.2556,1377.9755 374.5888,1378.5785 C 375.5167,1378.5285 376.6206,1378.3615 377.8983,1378.0785"
       id="path6902" />
    <path
       d="M 298.5758,1374.0485 C 297.2016,1373.7035 295.3572,1372.9325 297.0976,1371.5285 C 303.4515,1370.5265 304.8231,1371.4575 308.7060,1371.6935 C 310.0760,1371.7765 311.3154,1371.7565 310.9977,1372.5105 C 310.6780,1373.2755 313.0370,1372.9925 313.5441,1373.4415 C 313.9792,1373.8235 313.7007,1374.4665 315.2778,1374.3735 C 316.3027,1374.1875 317.3376,1373.9945 318.3800,1373.7935 C 319.7433,1373.6945 320.8879,1374.0075 321.3599,1374.3255 C 322.4177,1375.0375 325.6921,1375.8245 324.0391,1377.3585 C 318.9637,1377.3585 312.6388,1377.7125 310.4828,1376.4365 C 309.3073,1375.7315 307.9774,1375.1925 305.8130,1374.8635 C 303.5555,1374.5255 302.4785,1373.5725 298.5758,1374.0485"
       id="path6904" />
    <path
       d="M 328.9736,1374.4085 C 329.3313,1374.1445 329.6854,1373.8825 330.0434,1373.6185 C 340.5764,1372.7175 344.9398,1375.0105 353.9960,1374.8955 C 356.8967,1374.8595 360.2329,1374.6105 362.6738,1374.8235 C 363.9727,1374.9355 365.6970,1375.8405 361.0376,1376.7485 C 357.8127,1377.3755 354.9989,1377.6375 352.4039,1377.8655 C 347.7502,1378.2765 342.4899,1378.7985 338.6141,1378.7985 C 337.0832,1378.7985 333.4292,1379.0235 333.4319,1378.3845 C 333.4359,1377.9395 333.9718,1377.2995 333.8045,1376.8275 C 333.6430,1376.3815 334.3652,1375.4925 333.5556,1375.2835 C 332.1944,1374.9375 330.4180,1374.7405 328.9736,1374.4085"
       id="path6906" />
    <path
       d="M 374.6688,1376.7085 C 377.1694,1376.4915 380.9938,1375.3415 383.0685,1375.3905 C 385.9171,1375.4575 381.8397,1376.3855 381.3123,1377.3595 C 378.5766,1377.6735 373.2307,1378.1925 374.6688,1376.7085"
       id="path6908" />
    <path
       d="M 256.5235,1379.2285 C 258.6128,1378.6555 259.6377,1378.7075 259.9758,1379.0085 C 258.0074,1379.5185 256.9697,1379.4775 256.5235,1379.2285"
       id="path7066" />
    <path
       d="M 261.6723,1379.0085 C 265.1842,1377.4795 272.3686,1378.5275 269.9195,1379.9485 C 267.2769,1380.0715 261.2578,1380.1165 261.6723,1379.0085"
       id="path7068" />
    <path
       d="M 298.8478,1379.2285 C 300.2016,1377.7505 293.9227,1377.7695 290.6507,1378.1485 C 292.0765,1378.9045 292.3016,1380.9975 297.7102,1380.0185 C 298.0906,1379.7545 298.4691,1379.4915 298.8478,1379.2285"
       id="path7070" />
    <path
       d="M 451.9482,1377.5695 C 453.8279,1375.9125 449.6393,1375.8845 447.9671,1375.5885 C 445.1046,1375.0805 443.8802,1373.6945 441.2363,1373.0345 C 438.2959,1372.2965 437.4039,1370.6085 432.5398,1370.8755 C 430.0988,1371.0095 427.1672,1372.7225 427.2759,1373.5745 C 427.4632,1375.6175 432.1364,1376.2165 435.3495,1376.9525 C 436.9043,1377.3075 445.4379,1380.3375 451.9482,1377.5695"
       id="path6832" />
    <path
       d="M 470.8140,1370.7385 C 470.0964,1370.2145 468.8047,1368.6435 465.8681,1369.3685 C 464.6965,1370.9335 467.4138,1371.3695 470.8140,1370.7385"
       id="path6834" />
    <path
       d="M 542.3719,1366.2685 C 544.9385,1365.6385 545.1743,1366.4115 546.2792,1366.6995 C 544.1777,1366.8875 541.8242,1367.2395 540.1199,1367.1385 C 540.8388,1366.7655 541.5885,1366.4755 542.3719,1366.2685"
       id="path2042" />
    <path
       d="M 555.3907,1366.5585 C 556.3700,1366.3485 557.1298,1366.3015 557.6690,1366.4185 C 556.3682,1366.9005 555.0509,1367.2195 555.3907,1366.5585"
       id="path2044" />
    <path
       d="M 487.4669,1363.8195 C 486.9689,1363.7835 486.5333,1363.7145 486.1649,1363.6095 C 491.0968,1361.5715 493.7891,1362.2935 497.1997,1361.8635 C 499.0827,1361.6265 497.0206,1362.9185 500.1945,1362.0685 C 502.3018,1361.5035 504.5010,1361.3175 504.6927,1362.0185 C 501.5020,1361.8985 505.2324,1362.8425 505.2818,1363.1785 C 507.9179,1361.4515 508.0081,1362.8285 508.4718,1363.1995 C 508.8852,1363.5375 509.9900,1362.7485 510.7860,1362.7395 C 512.1923,1362.7225 513.0615,1363.1025 514.3261,1363.1785 C 514.1478,1362.6385 509.9549,1362.6935 512.1919,1361.4095 C 513.8548,1360.4545 514.4968,1360.6605 514.7275,1361.0665 C 515.0957,1361.7085 517.3695,1361.2315 518.4924,1361.5175 C 514.8249,1363.0885 518.2905,1363.9795 520.1409,1363.6085 C 520.3477,1362.8515 519.9916,1362.2835 519.8048,1361.6585 C 522.4392,1361.6025 521.3931,1362.2735 521.9680,1363.0975 C 522.7357,1364.2955 525.0857,1362.9425 525.9710,1361.5175 C 529.2691,1361.0275 533.2062,1361.1215 533.3020,1362.4575 C 532.3300,1362.5765 531.7297,1362.3705 530.6263,1362.5975 C 529.3013,1362.8695 528.2812,1363.6365 526.9323,1363.7475 C 528.2537,1364.8745 535.4502,1362.8025 537.4380,1363.6775 C 534.9813,1364.4165 533.1733,1364.2575 531.4893,1364.3275 C 533.2693,1364.7165 536.1726,1364.4195 538.1584,1364.6865 C 536.5705,1365.2545 535.0980,1365.5515 533.8311,1365.6975 C 535.4929,1366.2605 532.4184,1366.3275 531.6779,1366.3755 C 530.3515,1366.4605 529.1605,1366.4515 527.9878,1366.4335 C 525.9582,1366.4035 524.9616,1365.6365 523.1019,1365.6185 C 522.3192,1365.6105 520.3155,1366.1995 519.3316,1366.2435 C 517.9416,1366.3055 516.7684,1366.2275 515.6804,1366.1045 C 513.5046,1365.8585 511.5726,1365.4645 508.6074,1365.6985 C 509.3347,1365.4595 510.0623,1365.2165 510.7917,1364.9685 C 509.5087,1364.7415 507.5260,1364.9485 505.8203,1364.9845 C 503.5822,1365.0315 502.1594,1364.6125 500.4219,1364.3755 C 496.6722,1363.8615 491.3761,1364.2405 487.4669,1363.8195"
       id="path6910" />
    <path
       d="M 586.4840,1368.7885 C 586.1272,1368.3175 584.5871,1368.2655 583.3627,1368.2935 C 581.6493,1368.3325 581.7470,1369.3755 579.6323,1369.5085 C 579.9024,1370.2075 584.0731,1370.2535 586.4840,1368.7885"
       id="path6912" />
    <path
       d="M 569.4791,1366.7685 C 569.6097,1366.6525 569.7432,1366.5355 569.8753,1366.4185 C 572.1850,1366.1495 575.1834,1365.7115 575.6031,1366.6065 C 575.8483,1367.1235 576.0744,1368.5175 574.1437,1369.5425 C 571.0902,1371.1605 570.2294,1370.4005 571.3197,1369.2145 C 572.5629,1367.8645 570.2285,1367.3715 569.4791,1366.7685"
       id="path6914" />
    <path
       d="M 513.7828,1367.2085 C 513.6311,1365.9555 509.2580,1366.9165 507.2167,1366.6645 C 505.4983,1366.4525 503.3009,1365.6365 499.3739,1367.2785 C 501.6874,1367.9885 507.2531,1369.6395 513.7828,1367.2085"
       id="path7072" />
    <path
       d="M 522.4228,1367.0585 C 521.6904,1366.7455 520.2220,1366.7815 518.2345,1367.4185 C 519.0880,1367.6545 520.5046,1367.6265 522.4228,1367.0585"
       id="path7074" />
    <path
       d="M 553.3332,1368.3595 C 552.8855,1368.0825 551.9838,1368.1525 550.6250,1368.5695 C 551.2776,1368.6905 552.1816,1368.6195 553.3332,1368.3595"
       id="path7076" />
    <path
       d="M 665.5224,1364.9685 C 670.2488,1363.7835 675.2523,1364.3545 676.6743,1365.6185 C 676.1871,1365.4395 675.6615,1365.5545 674.7541,1365.9485 C 673.1505,1366.6455 672.0225,1366.3705 671.1806,1366.2265 C 669.2248,1365.8975 668.3245,1364.7035 665.5224,1364.9685"
       id="path6916" />
    <path
       d="M 671.7444,1371.0185 C 673.4365,1370.6065 676.9163,1370.5245 676.7555,1371.3495 C 676.5271,1372.5505 670.8060,1372.6065 671.7444,1371.0185"
       id="path6920" />
    <path
       d="M 694.1298,1368.0695 C 697.7914,1367.7245 701.2560,1368.1185 702.9631,1369.1425 C 704.1319,1369.8405 702.1688,1370.0615 701.4965,1371.0185 C 700.6775,1372.1885 702.2121,1372.4855 702.9366,1373.0395 C 699.2573,1374.9315 695.0554,1372.7475 693.4283,1372.4045 C 691.9936,1372.1025 688.5099,1371.8805 689.5204,1370.4175 C 689.6511,1370.2295 692.9385,1369.8875 693.9785,1369.2195 C 692.8928,1369.3865 692.3073,1369.2425 692.2222,1368.7895 C 692.8535,1368.5205 693.4879,1368.2805 694.1298,1368.0695"
       id="path6934" />
    <path
       d="M 706.7931,1370.5185 C 708.9524,1369.8565 709.1972,1370.9845 707.0304,1371.8885 C 704.3638,1372.9985 704.4150,1371.5035 706.7931,1370.5185"
       id="path6936" />
    <path
       d="M 691.7687,1348.1285 C 692.5760,1347.8205 693.2112,1347.4345 693.6756,1346.9685 C 693.9222,1347.7175 696.9910,1346.7845 698.2296,1346.7105 C 699.6434,1346.6265 701.0160,1347.7945 701.9778,1348.1285 C 700.7831,1348.2835 700.7893,1348.6435 699.8227,1349.0855 C 698.4653,1349.7055 696.4000,1349.3985 695.5096,1349.3485 C 694.1202,1349.2705 691.1391,1349.3655 691.7687,1348.1285"
       id="path6918" />
    <path
       d="M 705.5755,1352.5885 C 708.5064,1352.7925 709.1742,1354.5185 703.7970,1355.2105 C 698.4328,1355.8995 692.6152,1356.4615 687.8109,1356.5805 C 687.0063,1356.6015 683.8250,1356.1215 686.5899,1355.1925 C 688.5748,1354.5245 690.2930,1354.3665 691.6837,1354.4095 C 693.0674,1354.4515 695.5418,1354.6785 697.1822,1353.3995 C 698.4099,1352.4425 701.4521,1354.7505 702.0616,1352.7385 C 702.8750,1352.9765 703.7822,1353.3385 705.5755,1352.5885"
       id="path6922" />
    <path
       d="M 715.8159,1346.3285 C 714.6086,1346.2345 712.9231,1345.8115 713.9094,1344.6685 C 717.0862,1344.0075 718.3077,1345.1855 719.9206,1345.8185 C 718.2613,1346.4885 716.9538,1346.4285 715.8159,1346.3285"
       id="path6932" />
    <path
       d="M 757.5812,1330.5585 C 758.0730,1330.3655 758.5655,1330.1715 759.0569,1329.9785 C 758.4211,1329.8235 757.6369,1329.9435 756.7022,1330.3385 C 756.9950,1330.4115 757.2869,1330.4855 757.5812,1330.5585"
       id="path6850" />
    <path
       d="M 756.7596,1332.8595 C 757.7605,1331.9765 757.5479,1331.8095 756.1187,1332.3595 C 756.3314,1332.5265 756.5452,1332.6925 756.7596,1332.8595"
       id="path6852" />
    <path
       d="M 801.1865,1294.1985 C 801.8884,1294.0235 802.3375,1293.8605 802.7869,1293.3385 C 802.0877,1293.2645 801.3281,1293.4305 800.5050,1293.8385 C 800.7321,1293.9585 800.9580,1294.0785 801.1865,1294.1985"
       id="path6864" />
    <path
       d="M 819.4069,1290.5985 C 819.8591,1290.4315 820.3093,1290.2655 820.7613,1290.0985 C 820.0968,1289.7105 819.0362,1289.6015 817.8034,1290.0985 C 818.2279,1290.3665 818.7618,1290.5335 819.4069,1290.5985"
       id="path6878" />
    <path
       d="M 832.0691,1302.6185 C 832.8281,1302.5475 833.6043,1302.3305 834.3968,1301.9685 C 833.1351,1301.5825 831.3290,1301.4005 829.4294,1301.9685 C 829.9713,1302.5275 831.3525,1302.2115 832.0691,1302.6185"
       id="path6882" />
    <path
       d="M 744.0189,1331.7795 C 745.6219,1331.6305 747.5125,1331.5485 748.2720,1330.0585 C 748.8974,1330.1875 749.6646,1330.0905 750.5691,1329.7685 C 750.6977,1329.2315 750.3098,1328.8805 749.4809,1328.8985 C 750.3883,1328.2745 752.1210,1327.9495 752.3890,1327.1455 C 752.6550,1326.3495 751.2304,1326.2175 751.2818,1325.4855 C 751.3231,1324.5565 755.7144,1321.8325 750.7799,1323.5085 C 746.8891,1324.8265 746.6175,1326.7105 743.9888,1328.6185 C 743.3407,1329.0885 741.5092,1329.7365 741.5075,1330.2755 C 741.5037,1331.1595 742.8466,1331.5945 744.0189,1331.7795"
       id="path6838" />
    <path
       d="M 754.7708,1325.2985 C 757.3723,1325.0385 755.5834,1323.9075 754.6276,1323.8595 C 754.6665,1324.3415 754.7144,1324.8215 754.7708,1325.2985"
       id="path6840" />
    <path
       d="M 759.9408,1320.9785 C 761.6107,1320.3145 762.2094,1318.8055 760.1556,1319.4685 C 760.0566,1319.9795 759.9853,1320.4835 759.9408,1320.9785"
       id="path6844" />
    <path
       d="M 754.1304,1332.0695 C 754.7955,1332.0975 756.6395,1331.3465 756.9194,1330.7835 C 757.2126,1330.1945 753.2982,1330.6755 752.6436,1330.8485 C 752.2289,1331.6805 752.9559,1332.1295 754.1304,1332.0695"
       id="path6846" />
    <path
       d="M 765.0197,1317.6685 C 766.1363,1317.5105 769.4422,1315.3495 768.7319,1314.9385 C 767.3258,1314.1195 764.3578,1316.8565 765.0197,1317.6685"
       id="path6848" />
    <path
       d="M 783.8416,1309.7485 C 784.6052,1309.1745 784.9931,1309.1825 785.7340,1309.1335 C 787.1291,1309.0405 788.8042,1307.9535 790.2496,1307.5185 C 789.4309,1307.2505 788.1516,1307.6475 787.1702,1307.5885 C 789.0032,1306.8175 788.1071,1305.9725 786.6033,1306.7285 C 786.5599,1306.1455 787.2815,1305.7335 788.1667,1305.6485 C 787.5616,1305.3485 785.4219,1304.7925 784.2057,1305.9365 C 782.9658,1307.1015 781.8851,1306.9975 780.3870,1307.9615 C 778.2536,1309.3305 783.2790,1309.3525 783.8416,1309.7485"
       id="path6854" />
    <path
       d="M 791.2630,1296.3595 C 792.3364,1296.1615 794.1998,1295.6805 794.2636,1294.6995 C 793.0736,1294.7295 791.9933,1295.6005 791.2630,1296.3595"
       id="path6856" />
    <path
       d="M 786.4266,1310.3285 C 787.0886,1309.8725 787.4332,1309.4155 787.4601,1308.9585 C 786.5623,1309.2555 785.6637,1309.5685 784.7670,1309.8975 C 785.1334,1310.2055 785.6866,1310.3505 786.4266,1310.3285"
       id="path6858" />
    <path
       d="M 794.7137,1298.2285 C 795.3687,1298.1645 796.0278,1297.9475 796.6905,1297.5795 C 796.1891,1297.3565 795.5268,1297.3335 794.7011,1297.5095 C 794.7052,1297.7485 794.7100,1297.9885 794.7137,1298.2285"
       id="path6860" />
    <path
       d="M 792.3012,1307.2985 C 793.2701,1306.8825 796.3189,1305.7835 796.3892,1304.9135 C 796.4499,1304.1735 794.8636,1303.4835 793.7411,1303.5675 C 791.9290,1303.7015 793.3339,1304.9035 792.8843,1305.4015 C 792.1743,1306.1905 790.5294,1307.3415 792.3012,1307.2985"
       id="path6862" />
    <path
       d="M 811.7426,1292.5385 C 811.4107,1291.9845 811.1956,1291.7575 810.1117,1291.9235 C 808.0890,1292.2325 807.1782,1291.7155 805.6879,1291.3885 C 805.9632,1292.3155 803.9405,1292.6855 802.9956,1292.8985 C 804.8592,1292.8485 807.4540,1292.2335 808.7657,1292.8785 C 809.9037,1293.4375 810.7821,1294.1745 812.7702,1292.5385 C 812.4272,1292.5385 812.0856,1292.5385 811.7426,1292.5385"
       id="path6866" />
    <path
       d="M 796.8410,1303.9885 C 797.4077,1303.8355 797.8861,1303.5715 798.2776,1303.1985 C 797.3530,1303.0065 796.8731,1303.2705 796.8410,1303.9885"
       id="path6868" />
    <path
       d="M 807.4054,1295.7085 C 807.1665,1295.2175 806.8394,1294.6615 808.2621,1294.9885 C 807.8621,1294.7015 807.2716,1294.6545 806.4888,1294.8475 C 806.3567,1295.3735 806.6477,1295.7365 807.4054,1295.7085"
       id="path6870" />
    <path
       d="M 806.1278,1302.3385 C 806.8829,1301.6195 807.4131,1300.4505 805.9472,1300.6785 C 806.0380,1301.2845 804.6868,1302.4135 806.1278,1302.3385"
       id="path6872" />
    <path
       d="M 814.2029,1292.1785 C 815.5126,1291.0155 813.3284,1291.3975 812.4513,1291.8985 C 813.1127,1291.9075 813.6963,1292.0005 814.2029,1292.1785"
       id="path6874" />
    <path
       d="M 815.7992,1291.4585 C 816.1399,1291.3645 816.4799,1291.2715 816.8185,1291.1785 C 816.4059,1290.6625 815.6247,1290.0975 814.2390,1290.7395 C 814.7617,1290.9765 815.2815,1291.2165 815.7992,1291.4585"
       id="path6876" />
    <path
       d="M 822.6036,1289.8085 C 822.9896,1289.6885 823.3749,1289.5695 823.7607,1289.4495 C 823.6712,1289.2095 823.5818,1288.9695 823.4920,1288.7285 C 824.7026,1288.1435 824.6146,1289.2845 825.4836,1289.1215 C 826.4554,1288.9395 828.4156,1288.0065 829.6825,1287.7195 C 830.0841,1286.2325 820.9091,1287.4725 819.8043,1289.5895 C 820.8100,1289.5625 821.7484,1289.6415 822.6036,1289.8085"
       id="path6880" />
    <path
       d="M 848.1094,1282.2485 C 849.6202,1281.3655 851.0838,1281.4605 852.5966,1280.7385 C 850.6957,1280.7095 848.6393,1280.8985 846.9862,1280.5175 C 846.6018,1281.4055 847.2164,1282.0225 848.1094,1282.2485"
       id="path6884" />
    <path
       d="M 840.3212,1296.9385 C 843.3703,1296.6255 840.8396,1294.3655 838.0870,1296.0695 C 838.7377,1296.4385 839.4888,1296.7315 840.3212,1296.9385"
       id="path6886" />
    <path
       d="M 832.2709,1307.5885 C 832.9517,1307.6685 834.5879,1307.4025 834.9934,1306.6145 C 835.4940,1305.6425 832.5686,1306.6935 831.5898,1306.7985 C 831.2218,1307.3735 831.4584,1307.6715 832.2709,1307.5885"
       id="path6888" />
    <path
       d="M 839.7187,1299.0185 C 841.0712,1298.9355 842.5579,1298.1905 843.9273,1298.0355 C 845.3091,1297.8785 846.4739,1298.3095 847.6870,1298.3975 C 849.9482,1298.5605 850.5121,1297.5045 848.8247,1297.0645 C 847.0698,1296.6095 844.9099,1296.3945 842.6349,1296.6455 C 841.7652,1296.7415 840.7967,1296.9195 839.8632,1297.3245 C 837.5584,1298.3215 838.8742,1298.5135 839.7187,1299.0185"
       id="path6890" />
    <path
       d="M 842.4202,1300.0985 C 843.1730,1299.9205 843.9011,1299.6345 844.6051,1299.2395 C 844.2825,1298.4425 842.3088,1298.2365 841.0070,1299.4595 C 841.4252,1299.7135 841.8947,1299.9275 842.4202,1300.0985"
       id="path6892" />
    <path
       d="M 857.1928,1282.1785 C 857.6922,1281.5915 857.4185,1281.2335 856.6340,1281.3085 C 856.1538,1281.9245 856.4043,1282.2235 857.1928,1282.1785"
       id="path6894" />
    <path
       d="M 69.2442,1397.7385 C 70.2059,1398.0625 70.9314,1399.3645 77.4304,1397.8075 C 77.0225,1397.6035 76.5757,1397.4105 76.0930,1397.2275 C 80.5867,1396.2745 82.9317,1396.6515 84.5200,1396.7325 C 87.9964,1396.9135 90.3447,1397.4485 94.4198,1397.4485 C 97.2344,1397.4485 100.5033,1397.4665 100.4177,1398.3075 C 100.3785,1398.7245 98.4025,1399.2895 99.9000,1399.3675 C 101.5323,1399.4505 103.7913,1399.3695 106.6887,1399.0285 C 106.9502,1398.8055 107.1841,1398.5895 107.3966,1398.3785 C 112.4786,1398.5475 116.6483,1399.1245 119.5519,1399.9565 C 121.6442,1400.5515 122.3059,1402.0545 130.0366,1400.8285 C 129.5464,1400.4525 127.5980,1400.4995 127.6631,1399.9685 C 130.0820,1399.9195 131.3009,1400.2565 134.0205,1400.1095 C 134.3186,1399.8675 134.6080,1399.6275 134.8918,1399.3885 C 137.4245,1399.2025 139.6703,1399.1175 142.5132,1398.8195 C 142.7357,1398.6165 142.9174,1398.4235 143.0613,1398.2395 C 143.5525,1398.4055 144.5499,1398.4055 146.0522,1398.2395 C 146.2813,1398.0105 146.4590,1397.7945 146.5915,1397.5895 C 148.7291,1397.8415 147.6084,1400.1295 154.5140,1398.7395 C 155.4146,1398.1115 151.2633,1398.3005 153.6514,1397.3845 C 156.6936,1396.1905 152.4267,1396.5385 152.4209,1396.0795 C 154.9421,1396.1625 156.4927,1396.5725 159.4498,1396.5095 C 158.7563,1395.7105 155.8030,1395.6065 154.0392,1395.1395 C 155.1532,1395.1265 156.9243,1394.8585 158.5604,1394.6395 C 153.5439,1393.8155 149.9460,1392.5385 141.9398,1392.6985 C 137.4731,1392.7875 125.6358,1394.0055 128.6108,1391.8305 C 131.0233,1391.4245 132.0273,1391.5545 134.3579,1391.1805 C 135.5749,1390.9855 136.6212,1390.3905 137.5615,1390.3905 C 140.9119,1390.3905 143.3026,1390.7955 145.2831,1391.2375 C 148.5275,1391.9585 150.6989,1393.2675 159.2986,1392.1905 C 158.6627,1391.7235 148.4632,1391.5625 152.9631,1389.8205 C 155.3145,1388.9115 165.9024,1388.9435 168.9663,1388.3005 C 168.9928,1388.1065 169.0051,1387.9165 169.0033,1387.7305 C 175.7902,1386.4475 175.3410,1387.9285 181.4298,1386.9405 C 181.4491,1386.7715 181.4709,1386.6015 181.4018,1386.4305 C 187.1393,1385.5785 188.8631,1386.5865 192.8845,1386.5065 C 194.3486,1386.4775 197.0996,1386.6985 199.5297,1386.2205 C 201.6695,1385.7895 203.0449,1385.0235 205.0216,1384.2345 C 208.2860,1382.9315 214.0508,1383.5505 215.3081,1383.5505 C 217.8895,1383.5505 225.1198,1383.5735 225.1958,1381.4605 C 226.6040,1381.3555 230.7535,1381.5805 232.8623,1380.9305 C 236.1710,1379.9095 238.8164,1380.1715 240.7597,1380.0365 C 247.0719,1379.5985 244.8387,1382.6135 251.9734,1381.8885 C 255.1101,1381.5695 257.2876,1381.5715 260.1840,1381.3545 C 263.9650,1381.0705 265.3345,1381.7645 268.7457,1381.6285 C 272.1516,1381.4935 274.2745,1381.9365 277.2121,1382.0145 C 280.5435,1382.1035 285.3615,1381.4625 289.5264,1381.1305 C 305.0252,1379.8945 314.7606,1381.5015 328.4285,1381.1245 C 335.3484,1380.9345 340.4208,1381.6865 348.2210,1381.0145 C 353.4628,1380.5635 357.9966,1381.6515 365.3787,1379.8105 C 365.3488,1379.5615 365.2929,1379.3215 365.2108,1379.0905 C 367.7381,1379.0085 371.4708,1378.1515 371.3084,1379.3115 C 371.1747,1380.3205 374.5933,1380.0765 376.8752,1380.0325 C 379.5588,1379.9805 381.7902,1379.9165 385.3612,1379.2835 C 386.8829,1379.0135 387.1169,1379.4705 387.8297,1379.5975 C 389.1844,1379.8385 392.2419,1379.3855 394.0001,1379.4515 C 393.6358,1378.7925 392.3522,1378.4305 392.7756,1377.5015 C 393.3518,1376.2605 395.6876,1376.0875 397.9411,1375.7065 C 400.5994,1375.2575 399.9206,1376.2655 401.2037,1376.4625 C 402.6828,1376.6895 404.8788,1376.6525 405.0653,1377.4315 C 398.3505,1379.3385 406.7609,1379.1835 406.9395,1379.2315 C 405.7459,1379.9425 404.0169,1380.4685 402.5417,1380.8225 C 403.5153,1381.7915 409.7141,1380.1705 409.2205,1381.7635 C 408.8595,1382.9635 415.5407,1382.2785 419.3255,1381.1815 C 418.4648,1381.0775 415.0771,1379.5365 418.8083,1379.5215 C 417.8447,1379.1765 416.5292,1378.7245 417.4147,1377.7215 C 422.2246,1376.8645 424.0575,1377.8675 426.9476,1378.0635 C 430.5289,1378.3085 427.7473,1380.6675 429.1609,1381.6815 C 427.6859,1381.9565 425.9666,1382.4035 424.2874,1383.0515 C 424.4920,1383.1925 424.6935,1383.3345 424.8861,1383.4815 C 424.1856,1383.7455 423.4885,1384.0075 422.7875,1384.2715 C 423.8112,1384.6565 425.4548,1385.3225 427.5707,1385.1655 C 429.4042,1385.0295 432.2152,1384.1755 433.9760,1384.0805 C 439.8554,1383.7635 443.2917,1384.7735 447.8491,1385.1485 C 451.6921,1385.4625 455.9025,1384.8355 461.3261,1384.0785 C 467.6191,1383.1985 473.0247,1383.4085 478.0638,1383.3155 C 482.2776,1383.2375 488.4262,1383.0265 490.2230,1384.1645 C 491.2190,1384.7905 493.2835,1384.8835 495.3305,1384.9935 C 496.6721,1385.0655 498.0023,1385.1445 499.3731,1385.2015 C 500.3169,1385.2395 501.9479,1384.4735 502.8745,1384.5625 C 503.9876,1384.6675 504.7929,1384.9305 506.1575,1384.9005 C 508.1055,1384.8575 510.0940,1383.7935 509.4758,1383.2135 C 508.1271,1381.9445 501.2896,1383.3665 500.7872,1381.7515 C 501.9671,1381.7735 503.3201,1381.6985 504.8903,1381.4615 C 504.3697,1381.1105 503.0068,1381.1765 502.3500,1380.8915 C 502.9910,1380.7245 503.6338,1380.5545 504.2785,1380.3815 C 503.7704,1379.9265 503.3493,1379.4295 502.1712,1379.2705 C 500.8214,1379.0875 498.1249,1379.8355 496.5286,1379.8115 C 493.9037,1379.7725 493.5408,1378.3705 493.1513,1377.3725 C 492.7171,1376.2395 490.2187,1376.1435 487.7465,1375.9575 C 486.4253,1375.8575 484.8671,1375.8365 484.0390,1375.4925 C 483.1424,1375.1195 484.0120,1374.0725 483.6607,1373.4715 C 489.1918,1373.3395 492.8038,1374.0945 497.3829,1374.5005 C 500.5402,1374.7805 506.1333,1375.1165 511.6379,1373.6905 C 508.0074,1373.6825 506.8372,1372.3345 503.4567,1372.1915 C 499.8698,1372.0415 496.3988,1371.8215 492.5695,1371.8215 C 489.1163,1371.8215 484.7485,1372.3005 482.3627,1371.6715 C 479.9668,1371.0375 479.0676,1369.7275 478.2267,1368.4315 C 480.8520,1367.2205 483.9938,1367.4035 485.1867,1367.5235 C 486.1040,1367.6165 488.5246,1369.3725 485.1232,1369.3725 C 486.9697,1370.0005 490.1877,1369.9665 493.6262,1369.6515 C 497.7054,1369.2795 500.6545,1369.7425 504.0549,1369.7905 C 509.3310,1369.8635 518.1196,1368.3265 521.0896,1369.8025 C 520.5137,1370.0445 519.9363,1370.2845 519.3560,1370.5225 C 522.4562,1370.9305 526.4787,1370.7565 529.3676,1371.3005 C 532.2051,1371.8345 534.9392,1371.4295 539.0593,1370.9965 C 542.3814,1370.6475 545.9077,1370.7245 547.6722,1371.3615 C 548.8387,1371.7835 549.6457,1371.7035 552.0879,1371.1985 C 555.1667,1370.5605 556.6761,1370.8615 558.9995,1370.8005 C 562.9447,1370.6965 566.0286,1370.8775 569.3122,1371.2085 C 570.9375,1371.3715 572.6189,1371.4995 574.3414,1371.6025 C 575.8859,1371.6945 577.2106,1370.9635 579.1266,1370.5925 C 580.3277,1370.3595 586.1301,1371.2805 587.6722,1369.2005 C 588.5827,1367.9775 586.9932,1367.1715 585.8348,1366.7715 C 587.9952,1367.0735 590.8467,1366.9375 592.8038,1367.3655 C 593.5947,1367.5375 596.3460,1368.3245 592.6114,1368.9415 C 592.8739,1369.1025 593.1254,1369.2695 593.3658,1369.4415 C 592.7163,1369.7065 592.0663,1369.9695 591.4132,1370.2315 C 592.4106,1370.8955 594.8203,1370.6865 597.1030,1370.5225 C 600.0957,1370.3075 601.2901,1370.7805 603.0213,1371.3375 C 603.7330,1371.5665 612.2436,1371.6265 612.5529,1369.6505 C 613.5829,1369.8435 613.7321,1370.4705 614.2747,1370.9015 C 614.9641,1371.4475 616.5741,1371.2625 616.1819,1372.2835 C 615.4336,1374.2695 622.6528,1373.9415 625.7825,1373.9625 C 630.5527,1373.9945 633.8954,1374.7195 638.2597,1375.0165 C 639.9999,1375.1355 641.0297,1375.7985 642.8879,1375.7985 C 644.8776,1375.7975 648.9515,1374.7935 651.4635,1374.1915 C 651.0330,1373.4495 648.6741,1373.1995 650.0292,1371.8225 C 651.9157,1371.7045 652.7748,1372.9165 655.5893,1371.8915 C 655.5152,1370.9585 653.4200,1370.9105 653.9853,1369.7315 C 657.5924,1370.2175 661.0726,1370.5255 664.0175,1371.4425 C 664.9879,1371.7435 666.2433,1371.8505 667.2766,1372.1095 C 668.4519,1372.4045 667.4571,1373.5315 668.5920,1373.8465 C 671.0051,1374.5155 676.6133,1372.8515 679.7070,1373.0695 C 680.7447,1373.1425 688.1376,1372.8695 682.0329,1374.7025 C 681.9804,1375.5395 686.6371,1374.9885 688.1648,1374.9755 C 691.0568,1374.9515 695.0986,1373.7225 697.8167,1373.9015 C 698.8796,1373.9705 699.6189,1374.4325 700.9688,1374.2715 C 702.6644,1374.0695 703.5738,1373.8755 704.7326,1374.1365 C 705.4939,1374.3095 706.4572,1373.8755 707.6028,1373.4885 C 709.3088,1372.9115 709.8681,1373.6165 711.3304,1373.0935 C 713.7581,1372.2235 717.3996,1372.3405 719.4002,1372.1595 C 723.1375,1371.8215 726.9669,1371.3185 730.5021,1371.1825 C 733.9482,1371.0505 737.3729,1371.0815 741.2970,1370.4335 C 744.5333,1369.8975 748.6277,1368.6205 751.5286,1368.4825 C 753.5449,1368.3875 756.5487,1366.6775 758.5416,1365.6005 C 759.7727,1364.9345 759.1196,1362.6855 759.2678,1361.9965 C 759.5850,1360.5445 756.4067,1360.3635 755.2676,1359.6495 C 753.8176,1358.7375 756.4435,1356.4325 755.3244,1355.6905 C 752.8313,1354.0285 753.5768,1350.6585 749.7865,1349.5445 C 749.0345,1349.3225 745.6706,1348.5355 747.4134,1347.3395 C 749.8646,1345.6555 745.7813,1344.4665 744.6841,1343.9495 C 746.1020,1343.4815 747.1343,1343.5895 748.2225,1343.5895 C 749.4986,1342.0115 750.7790,1343.2305 751.7786,1343.4855 C 752.9537,1343.7835 755.1963,1343.5985 757.0183,1343.0785 C 764.7857,1340.8525 756.2929,1340.3625 755.0748,1339.8495 C 756.6771,1339.0275 757.4484,1339.5125 758.7326,1339.3395 C 758.8449,1338.4845 758.1270,1337.9575 757.4226,1337.4695 C 759.7573,1336.6895 758.7843,1335.8715 757.3975,1335.8895 C 758.7026,1335.5655 759.5748,1335.9125 760.9715,1335.3795 C 760.6335,1334.2145 756.7219,1334.9335 756.5288,1333.3695 C 756.9003,1333.2965 758.9127,1333.1695 759.2392,1332.8245 C 760.0651,1331.9505 757.1462,1331.9715 760.1651,1331.6385 C 759.3575,1331.6455 759.0889,1331.2145 760.1532,1330.6285 C 760.7460,1330.3015 761.9358,1330.3755 762.5669,1330.1985 C 760.1566,1329.9505 758.0858,1329.5655 755.0275,1330.1535 C 752.6981,1330.5995 754.4135,1328.4945 754.0833,1327.7305 C 753.7217,1326.8865 757.5672,1325.1665 758.5957,1325.4355 C 759.0782,1325.5625 758.5708,1326.1695 759.1970,1326.2385 C 760.2887,1326.3575 761.9888,1325.6285 763.0604,1324.8685 C 762.0557,1324.7155 761.9243,1324.0335 762.2521,1323.2555 C 762.4675,1322.7465 764.1686,1322.7615 764.5577,1322.6815 C 765.4559,1322.4975 767.4357,1320.6905 768.1108,1320.1755 C 769.5261,1319.0975 770.4754,1319.6315 771.4356,1319.7585 C 770.8286,1318.8235 772.9591,1317.8685 774.2971,1318.0295 C 775.4797,1318.1715 775.9006,1319.6125 777.9772,1318.0985 C 777.2892,1317.7025 776.1523,1317.5995 776.0002,1316.8785 C 776.8359,1316.7175 777.5393,1316.7175 778.1110,1316.8785 C 778.2192,1316.6165 778.3376,1316.3535 778.4656,1316.0885 C 779.3362,1315.8395 780.0043,1315.8395 780.4679,1316.0885 C 780.2392,1315.9155 780.0482,1315.7225 779.8944,1315.5085 C 780.8501,1315.0065 781.6952,1314.9475 782.0090,1315.3685 C 783.5568,1314.2815 779.0514,1313.8215 781.0797,1311.9775 C 783.2040,1309.9635 786.8191,1312.3495 788.6801,1311.8375 C 788.9644,1311.2795 788.6880,1310.9775 787.8772,1311.0475 C 788.3423,1310.4725 789.0134,1310.1745 789.7072,1310.2575 C 789.5781,1310.0125 789.4451,1309.7695 789.3081,1309.5285 C 790.9774,1309.4905 791.8812,1310.4685 793.8417,1310.0385 C 792.4136,1309.7785 792.8269,1308.9545 792.9466,1307.9485 C 793.9831,1308.1915 794.1925,1309.3875 795.9214,1308.9115 C 796.6044,1308.7235 796.8483,1307.9975 797.5178,1307.9575 C 798.4039,1307.9045 799.5847,1307.6035 800.5383,1307.3785 C 800.3262,1307.1905 800.1244,1306.9975 799.9325,1306.7985 C 801.4258,1305.8065 801.4421,1306.4965 802.5009,1306.4925 C 804.3136,1306.4845 804.9345,1304.5295 804.4000,1304.0575 C 808.5760,1302.8365 811.9284,1302.3625 815.3368,1302.3955 C 817.5075,1302.4165 816.8028,1300.8675 818.1474,1301.1475 C 819.1858,1301.3635 820.5768,1299.8815 821.5510,1299.5285 C 823.2405,1298.9155 824.4380,1299.3805 826.0153,1299.0415 C 827.6713,1298.6865 828.6299,1297.7115 830.5144,1297.4745 C 831.6811,1297.3285 833.0613,1297.1705 834.0282,1297.3295 C 835.6676,1297.5995 835.5905,1299.3475 836.9338,1299.9585 C 833.2581,1301.6835 834.6481,1299.3425 832.8195,1299.1955 C 831.5034,1299.0905 828.8401,1300.6455 827.1304,1300.8015 C 826.3419,1300.8735 825.5128,1301.2985 824.7970,1301.7515 C 824.2020,1302.1275 822.9833,1302.5855 822.6397,1302.8375 C 820.9337,1304.0855 821.5548,1305.6575 820.2280,1306.3675 C 821.2235,1306.2535 821.6100,1306.7515 821.1483,1307.4475 C 818.9789,1307.4345 817.5336,1305.4205 815.2187,1305.8575 C 815.1309,1306.4065 815.3372,1306.8165 815.8397,1307.0865 C 814.2341,1307.7075 814.3945,1306.6315 813.6146,1306.3685 C 812.8494,1306.1115 810.6107,1307.1865 809.6773,1307.6155 C 806.5205,1309.0635 804.5806,1310.2335 801.2418,1311.2715 C 799.8452,1311.6995 799.6870,1312.3715 798.5404,1312.6745 C 797.4361,1312.9665 797.8191,1312.0535 796.3235,1312.9415 C 794.2854,1314.1505 797.9196,1314.8645 798.7648,1314.9355 C 796.9499,1315.4565 796.9007,1314.9375 795.0441,1316.0725 C 793.5946,1316.9575 792.2524,1317.8705 793.5906,1318.4035 C 794.4555,1318.7475 795.6355,1319.4575 796.6894,1319.6165 C 798.0345,1319.8195 799.9873,1318.7205 801.2213,1319.1065 C 801.1975,1318.8715 801.1918,1318.6305 801.2001,1318.3855 C 802.7568,1317.8135 803.3197,1318.5045 803.8215,1318.9655 C 804.6304,1317.4085 807.9384,1317.9525 806.3776,1319.2185 C 803.2387,1321.7595 802.5102,1320.1405 800.8856,1319.5355 C 800.5090,1320.1565 799.8105,1320.4525 799.0441,1320.4055 C 799.1386,1320.8945 799.1132,1321.4215 798.9685,1321.9855 C 796.9861,1322.1515 797.0334,1320.4325 795.6218,1320.0995 C 794.3025,1319.7865 792.0721,1319.7465 790.1166,1320.4055 C 790.4848,1321.2275 791.9828,1321.4255 793.0722,1321.7645 C 792.5972,1321.9525 792.1226,1322.1465 791.6500,1322.3445 C 791.8834,1322.8035 792.2532,1323.1875 792.7623,1323.4945 C 790.3663,1324.5825 788.8360,1321.9035 787.9922,1321.3445 C 787.1992,1320.8165 786.3165,1320.2495 785.0280,1320.0985 C 782.8332,1319.8405 782.2260,1321.5365 784.3304,1321.2645 C 783.4280,1321.4295 782.5123,1321.6935 781.5820,1322.0545 C 781.8071,1322.2065 782.0417,1322.3535 782.2840,1322.4945 C 780.9199,1322.5215 779.5923,1323.5845 780.1201,1324.2145 C 780.7371,1324.9495 783.2244,1323.9855 783.1743,1325.2245 C 779.6693,1326.3875 777.8471,1324.7455 774.2024,1326.0145 C 774.5748,1326.3075 775.4207,1326.3415 775.6254,1326.7355 C 775.8984,1327.2555 774.5452,1327.7145 775.4417,1328.1055 C 774.0317,1328.4705 771.5159,1329.1465 770.9685,1328.4645 C 768.3901,1330.5795 770.0645,1330.0415 771.4583,1330.9855 C 769.1950,1331.4055 769.2348,1333.1095 770.6147,1333.1445 C 769.6541,1333.5035 768.8905,1333.9845 768.3255,1334.5845 C 771.1734,1334.6575 773.3380,1333.7615 775.4903,1334.2245 C 774.1505,1335.4825 771.0050,1335.4865 769.3748,1336.0255 C 769.9754,1336.7705 771.6456,1336.5135 772.9563,1336.6745 C 772.0761,1337.1295 771.0712,1337.4385 770.2902,1337.3945 C 770.8889,1338.6225 772.8965,1338.9325 775.1527,1338.9265 C 778.0156,1338.9195 780.1341,1339.3385 782.6048,1339.6955 C 781.9615,1339.2585 780.7666,1339.2305 779.9679,1338.9055 C 782.5516,1339.1875 779.0870,1337.9795 778.7008,1337.8255 C 779.8172,1336.8135 781.5193,1336.3325 782.9477,1336.1295 C 785.9508,1335.7035 788.5235,1336.0545 790.8955,1336.3855 C 789.1091,1337.3545 784.3545,1335.2395 782.4414,1337.3075 C 781.2605,1338.5835 786.5083,1338.8285 787.3604,1339.1255 C 786.1598,1339.2745 785.2912,1339.0685 784.4073,1338.9055 C 783.0329,1340.3795 787.9945,1340.9545 784.2019,1342.5055 C 785.0205,1342.6385 786.4084,1341.8105 787.1062,1341.9895 C 788.1460,1342.2575 787.6377,1343.3775 788.5940,1343.6025 C 789.8904,1343.9085 792.5637,1343.4205 793.1810,1344.2355 C 793.6999,1344.9205 792.1862,1346.4185 792.6874,1346.9895 C 793.6513,1348.0885 796.0137,1348.3665 796.9385,1349.4955 C 795.3751,1350.1525 794.2752,1349.9655 793.2762,1349.7755 C 792.1427,1352.3375 797.4530,1351.9995 800.6972,1351.7245 C 799.6555,1352.9125 796.4261,1353.1335 795.2281,1353.2355 C 796.7412,1353.3635 795.8635,1354.7085 797.7170,1354.6745 C 797.8772,1354.4115 798.0390,1354.1485 798.2060,1353.8845 C 801.9839,1353.0945 802.9451,1355.4455 804.6425,1356.2545 C 801.8793,1356.7015 804.0655,1357.2695 804.5104,1357.6245 C 803.6027,1357.7835 802.8529,1357.7835 802.2615,1357.6245 C 802.4941,1357.7815 802.7027,1357.9515 802.8859,1358.1345 C 801.1365,1358.3285 798.9384,1358.9205 797.0844,1359.8555 C 798.2362,1360.4755 800.5922,1359.3225 802.2563,1359.2955 C 803.9723,1359.2675 805.6205,1360.0995 802.4301,1361.0805 C 798.7028,1362.2235 795.3569,1361.8045 792.4537,1361.8045 C 792.8189,1362.1245 793.4302,1362.2685 794.2877,1362.2355 C 791.1455,1362.6545 794.7160,1362.9365 795.3939,1362.8855 C 797.2894,1362.7445 799.0027,1362.4915 800.2518,1362.9535 C 801.4741,1363.4115 801.3092,1362.8605 802.8919,1362.6645 C 804.3744,1362.4795 806.6260,1363.3385 804.0247,1363.3845 C 804.5108,1363.6535 805.0805,1363.8695 805.7330,1364.0345 C 802.3574,1364.4255 806.8094,1364.7705 803.2144,1365.3925 C 801.9466,1365.6115 801.0466,1365.3575 800.2129,1365.1835 C 800.6936,1365.8375 801.0417,1367.6755 803.5154,1366.9545 C 807.8778,1365.6805 806.5752,1367.7535 807.2655,1368.7335 C 807.5410,1369.1215 808.9795,1369.4295 810.0351,1369.1745 C 810.9056,1368.9635 812.2288,1367.9375 812.8719,1368.2385 C 813.8604,1368.7035 812.3003,1370.2015 812.9731,1370.7325 C 810.4694,1371.6955 809.4216,1371.0705 808.5545,1370.4425 C 808.0733,1370.9215 807.5901,1371.4025 807.1088,1371.8815 C 806.3951,1371.8085 806.4975,1371.4515 806.1509,1371.1935 C 805.7543,1370.8965 804.5134,1371.6415 803.8866,1371.5005 C 801.7663,1371.0235 800.8454,1370.1505 797.8444,1370.2225 C 798.4212,1370.7995 799.3404,1371.6735 800.8542,1371.6625 C 799.9806,1371.8105 799.2257,1371.8345 798.5906,1371.7325 C 799.3098,1372.7265 801.1083,1372.6385 803.0456,1372.8125 C 803.4593,1372.8495 806.3929,1372.8765 806.0052,1373.3555 C 805.3596,1374.1525 806.3709,1374.1505 807.4381,1374.1815 C 806.0779,1374.5435 805.2381,1375.1585 805.5425,1375.6925 C 802.2962,1376.7135 801.7422,1374.9915 798.7746,1375.6225 C 799.5381,1375.9095 803.6424,1376.4415 803.5723,1376.9765 C 803.5092,1377.4675 799.3528,1378.1605 798.8627,1378.2115 C 800.1902,1378.9675 796.5348,1380.1075 797.0710,1380.7655 C 797.6297,1381.4465 797.8098,1382.2835 795.0453,1382.7665 C 792.7754,1383.1625 792.3914,1382.6965 792.0179,1381.8815 C 791.5270,1380.8005 788.7455,1380.9415 787.3159,1380.3715 C 787.0740,1381.1975 788.0230,1381.5185 788.8045,1381.8915 C 786.7202,1382.8125 783.5330,1382.9505 781.9516,1382.9615 C 783.2033,1383.7995 787.5249,1382.5035 788.1092,1383.7615 C 784.4631,1384.9465 782.5080,1383.7015 778.7786,1384.9115 C 779.0162,1385.2495 787.8145,1385.2745 787.1782,1385.6235 C 784.9115,1386.8315 780.7877,1387.2765 778.7420,1387.5195 C 775.0663,1387.9555 771.3192,1388.5525 767.4895,1389.1265 C 764.1148,1389.6325 761.1800,1389.8075 757.9620,1390.1725 C 754.4707,1390.5685 749.7276,1391.3215 746.7750,1391.3215 C 744.4107,1391.3215 741.5861,1391.3535 738.5393,1391.8965 C 736.1933,1392.3135 735.9602,1393.8305 732.7818,1394.2845 C 728.0928,1394.9535 725.1866,1394.0075 721.4730,1393.9735 C 714.2789,1393.9095 707.7141,1393.4565 700.5000,1393.4125 C 695.1990,1393.3815 689.2308,1393.4695 687.7535,1391.4825 C 687.0288,1390.4825 686.3988,1389.8245 683.3820,1389.9065 C 680.3505,1389.9885 679.3216,1388.8065 675.9632,1389.1605 C 677.8937,1389.6755 673.0957,1390.2015 671.3932,1390.7065 C 669.6176,1391.2315 670.9660,1392.4935 671.4004,1392.6505 C 675.3578,1394.0805 679.3554,1395.5695 683.8021,1396.8055 C 686.1104,1397.4565 687.9104,1398.3395 690.2042,1399.0055 C 692.5437,1399.6835 696.5865,1399.3385 700.2575,1399.2635 C 704.2672,1399.1805 708.0909,1399.3675 711.1033,1399.8655 C 715.6721,1400.6145 707.0078,1402.7205 702.9278,1403.2035 C 696.3927,1403.9745 692.7951,1402.8535 688.1732,1402.4805 C 681.4601,1401.9375 673.8510,1401.8885 666.8445,1401.5215 C 663.5658,1401.3485 660.1220,1401.2585 657.3551,1400.8205 C 654.5567,1400.3775 652.1131,1399.7385 647.9382,1400.0305 C 647.3566,1401.4905 651.3928,1401.3495 653.5018,1401.6905 C 650.5836,1402.2205 649.3829,1401.6435 647.2472,1401.6905 C 652.7246,1402.9685 659.9945,1403.4225 667.5599,1403.6525 C 671.3804,1403.7675 680.3182,1403.5905 677.6763,1406.4405 C 667.4869,1408.9155 658.3567,1407.8695 652.7754,1407.4785 C 643.9087,1406.8595 639.5650,1403.8215 628.5109,1404.3505 C 627.2480,1405.7885 630.6003,1406.2055 632.0643,1406.6555 C 634.5120,1407.4275 635.5833,1408.6765 638.3236,1409.3095 C 641.4873,1410.0375 646.8385,1409.6075 649.1088,1410.7455 C 650.2649,1411.3195 652.1440,1412.9905 655.4888,1412.5605 C 655.9182,1411.6535 655.0415,1411.1545 654.5867,1410.5395 C 658.0903,1409.7485 660.0341,1410.2035 661.8987,1410.3475 C 664.3631,1410.5365 667.2616,1410.5475 670.1012,1410.5495 C 676.4617,1410.5545 683.5587,1410.2165 687.4027,1411.4695 C 690.9442,1412.6115 684.7362,1414.8705 678.9916,1415.1615 C 671.2192,1415.5555 666.9592,1414.1395 659.5229,1414.3595 C 665.2740,1417.5065 684.3344,1414.6175 692.3839,1416.8795 C 694.0753,1417.3785 695.1076,1418.1365 696.9130,1418.5985 C 698.9375,1419.1145 702.2264,1419.1275 704.8991,1419.3635 C 711.2190,1419.9175 717.2385,1420.6275 724.2259,1420.8865 C 737.5614,1421.3795 750.2069,1422.3105 761.9077,1423.6995 C 773.5986,1425.0725 787.0161,1425.5745 798.9150,1426.8885 C 804.4659,1427.4985 810.6493,1427.8115 816.1329,1428.4685 C 817.4838,1428.6295 822.5901,1428.6145 820.0564,1430.0505 C 817.2291,1431.6515 821.9947,1431.3915 823.9667,1431.3285 C 829.9778,1431.1385 837.8814,1429.3355 844.8316,1428.2745 C 853.8631,1426.8875 861.8148,1426.7575 869.4659,1426.4155 C 885.3160,1425.7015 900.9899,1424.9285 915.4324,1425.2155 C 921.8557,1425.3425 928.4049,1425.3765 934.8199,1425.5155 C 937.3637,1425.5715 940.0547,1425.6435 943.1527,1425.1805 C 946.5487,1424.6735 949.4155,1422.9845 952.7782,1422.7415 C 968.2149,1421.6195 982.9982,1421.1985 998.3049,1420.0175 C 1006.3563,1419.3935 1013.7432,1419.2785 1021.5381,1418.9075 C 1024.7235,1418.7555 1027.9632,1418.3195 1031.0132,1418.3195 C 1032.8321,1418.3195 1035.1455,1417.5095 1037.0986,1417.4865 C 1041.0633,1417.4395 1044.8070,1417.6345 1048.9356,1417.4035 C 1049.7896,1417.3555 1057.1256,1416.6375 1055.9008,1415.3665 C 1054.7442,1414.1515 1050.3781,1414.0525 1047.8940,1413.8035 C 1045.0826,1413.5235 1042.0442,1413.4235 1039.3371,1413.0595 C 1042.3167,1411.9125 1047.7926,1411.3735 1050.7515,1410.8855 C 1054.5667,1410.2535 1058.3916,1409.6165 1062.0402,1409.3195 C 1061.3521,1408.1515 1056.4060,1408.9115 1054.2134,1409.1325 C 1049.9034,1409.5685 1045.7800,1409.7045 1041.5736,1409.9535 C 1030.8016,1410.5925 1018.3777,1412.6175 1009.8637,1410.8225 C 1006.2810,1410.0605 1002.5113,1409.7755 998.4423,1409.4375 C 996.3555,1409.2645 991.0965,1408.5695 994.0162,1406.3755 C 995.9888,1404.7845 1000.1521,1403.7325 1002.7908,1403.0705 C 1005.5259,1402.3825 1008.3351,1401.2705 1011.0293,1400.7045 C 1012.9109,1400.3085 1016.3860,1399.2515 1017.9814,1399.3085 C 1017.3309,1399.2875 1016.6814,1399.2635 1016.0344,1399.2385 C 1017.8973,1399.1055 1020.0016,1398.4485 1021.7904,1398.4485 C 1023.7346,1398.4485 1025.6544,1398.6925 1027.9179,1398.1905 C 1030.1991,1397.6835 1031.9345,1396.8825 1034.2020,1396.7055 C 1036.3812,1396.5335 1038.2931,1396.2525 1040.5810,1395.7565 C 1050.0619,1393.6895 1058.6903,1392.8475 1067.6487,1392.2485 C 1065.0524,1391.5555 1068.5436,1391.6805 1069.1650,1391.7775 C 1070.3575,1391.9645 1071.6091,1391.8585 1073.0694,1391.5555 C 1076.7013,1390.8005 1080.0647,1390.3985 1083.4948,1390.2195 C 1086.3339,1390.0735 1089.2233,1389.8355 1091.9953,1389.8085 C 1094.8151,1389.7815 1097.6792,1390.0925 1100.7734,1389.4435 C 1103.3753,1388.8965 1105.8456,1389.1375 1108.0831,1389.3085 C 1110.8710,1389.5205 1113.1584,1389.1155 1116.2180,1388.4715 C 1122.5312,1387.1385 1128.0763,1388.9685 1134.5098,1387.9975 C 1133.2286,1386.7395 1128.8805,1386.8145 1133.8698,1384.9745 C 1135.0597,1384.5325 1136.2834,1384.1085 1137.3941,1383.5525 C 1139.3962,1382.5475 1139.2681,1381.4215 1141.9189,1380.8925 C 1143.6863,1380.5395 1145.4072,1380.4155 1147.1611,1380.1305 C 1149.1684,1379.8045 1150.5342,1378.7595 1152.5564,1378.4075 C 1156.7774,1377.6745 1161.0999,1376.5945 1165.2847,1376.0475 C 1163.7628,1375.5155 1161.2824,1376.0985 1160.0588,1375.2655 C 1159.0282,1374.5735 1156.7606,1375.5065 1155.4515,1375.8835 C 1150.9318,1377.1795 1145.1774,1377.1115 1141.4056,1376.1975 C 1143.4602,1375.6125 1145.5396,1375.1205 1147.5984,1374.6875 C 1146.1963,1374.1205 1143.6625,1374.7845 1141.9583,1375.1175 C 1141.9828,1373.8835 1144.7882,1373.8505 1145.7347,1372.8785 C 1147.0953,1371.4755 1149.2006,1371.3505 1151.2564,1371.0845 C 1156.3699,1370.4235 1160.2549,1371.5255 1165.4354,1369.4975 C 1163.4284,1369.2495 1161.3415,1368.9045 1159.7857,1368.1275 C 1161.6628,1367.4825 1163.7013,1367.9175 1165.4788,1367.9175 C 1167.3529,1367.9175 1169.1519,1367.6715 1171.0620,1367.3245 C 1173.5232,1366.8775 1183.7250,1365.2295 1183.6755,1362.7625 C 1183.6200,1360.8505 1179.8458,1360.5265 1177.9665,1359.8375 C 1173.9380,1358.3545 1179.4560,1357.2095 1181.9307,1357.2565 C 1180.8033,1359.2915 1183.3214,1360.2865 1185.9255,1359.9225 C 1187.4152,1359.7135 1188.5772,1358.6175 1189.7100,1357.9455 C 1190.9702,1357.1955 1192.5612,1356.8325 1193.6905,1355.9565 C 1192.6603,1355.7455 1191.4783,1355.7185 1190.6513,1355.2465 C 1192.9712,1354.8125 1195.2474,1354.5575 1197.5001,1354.6665 C 1197.1931,1354.9025 1196.8919,1355.1425 1196.5977,1355.3865 C 1198.3073,1356.0955 1200.6736,1355.9555 1202.1010,1356.9895 C 1203.0817,1357.6965 1203.1944,1358.7755 1203.7377,1359.6745 C 1205.1216,1361.9405 1210.8393,1360.5385 1213.9616,1360.2875 C 1214.2773,1359.1545 1210.5952,1358.8925 1212.2427,1357.9545 C 1214.8176,1356.4815 1216.6111,1355.3705 1219.6217,1354.4495 C 1221.5106,1353.8705 1223.4753,1353.1825 1225.4576,1353.0385 C 1226.4599,1352.9655 1227.4659,1353.0775 1228.1134,1353.5725 C 1229.5024,1354.6345 1228.1865,1354.8435 1226.6030,1355.3285 C 1224.7049,1355.9095 1221.9048,1357.1455 1224.6745,1358.1755 C 1227.0775,1359.0665 1231.6054,1357.5775 1234.3218,1357.3675 C 1240.3365,1356.9015 1246.5273,1358.4725 1252.5757,1356.5375 C 1251.7391,1358.8705 1255.9372,1358.2805 1257.5526,1358.4215 C 1259.2456,1358.5695 1260.0747,1357.6245 1261.5970,1357.3415 C 1263.1747,1357.0475 1265.1992,1358.1245 1263.4612,1359.2075 C 1266.3712,1360.3615 1268.8471,1359.4075 1271.6575,1358.1975 C 1274.7457,1356.8615 1276.9655,1356.3935 1280.4007,1355.8725 C 1288.5626,1354.6275 1296.4462,1353.5955 1304.6368,1352.9005 C 1308.3810,1352.5825 1312.1147,1352.4675 1315.8500,1352.5395 C 1319.1873,1352.6025 1321.9017,1352.4555 1324.5328,1350.8675 C 1326.2780,1349.8075 1328.6120,1348.4205 1330.8214,1349.6805 C 1333.1957,1351.0295 1335.8598,1352.9515 1338.2642,1350.0575 C 1337.1619,1349.7025 1336.0114,1349.3885 1335.0644,1348.8365 C 1338.7263,1347.7505 1342.2132,1349.8525 1345.6448,1350.4165 C 1349.2848,1351.0175 1351.6387,1352.7485 1355.3870,1353.0465 C 1359.3021,1353.3565 1362.7574,1353.7515 1365.6992,1351.5985 C 1368.6339,1349.4345 1372.5312,1350.3645 1376.3705,1349.6725 C 1380.4118,1348.9445 1384.1347,1350.3775 1388.2680,1350.3285 C 1392.5011,1350.2785 1396.4478,1349.3945 1400.5752,1348.9895 C 1404.9821,1348.5545 1408.3409,1347.9215 1412.8938,1348.5995 C 1417.5414,1349.2905 1422.3147,1349.8325 1427.0025,1350.4305 C 1431.6554,1351.0225 1436.2740,1350.7325 1440.9446,1351.4485 C 1445.7730,1352.1865 1449.7222,1351.9305 1454.3913,1351.4825 C 1463.6132,1350.5965 1472.8714,1349.9395 1482.0825,1349.1885 C 1486.3518,1348.8395 1490.1676,1347.7045 1494.3623,1347.2505 C 1498.3924,1346.8135 1502.5864,1347.0055 1506.6238,1346.6815 C 1510.5903,1346.3625 1514.5624,1344.8505 1518.2451,1343.9925 C 1521.2444,1343.2925 1522.6681,1340.8745 1525.7408,1340.5565 C 1523.5407,1338.2645 1527.8911,1337.4105 1529.9684,1337.1295 C 1531.4187,1336.9345 1533.2394,1336.8395 1534.7797,1337.4815 C 1536.3801,1338.1455 1536.0560,1339.2815 1537.2713,1339.9955 C 1539.2287,1341.1415 1542.6507,1342.2225 1544.9721,1342.4385 C 1546.1653,1342.5495 1548.7564,1342.5065 1549.1889,1343.7615 C 1549.4526,1344.5285 1546.5933,1343.7105 1546.1268,1343.6465 C 1547.6018,1345.3445 1550.4247,1346.1425 1552.3534,1345.1675 C 1554.7723,1343.9385 1556.5588,1342.7365 1559.9996,1342.6365 C 1560.9380,1345.2025 1556.9809,1344.4545 1555.1362,1345.3765 C 1556.9841,1346.0535 1561.9479,1345.5015 1562.0355,1347.7565 C 1562.8227,1346.6425 1563.3313,1344.8275 1565.3236,1344.5175 C 1566.2303,1345.4695 1564.6979,1346.1865 1565.0027,1347.0855 C 1565.6394,1348.8865 1568.1458,1346.8145 1568.5640,1346.5295 C 1569.6750,1345.7745 1577.3801,1345.3105 1573.4751,1342.5665 C 1574.4662,1342.4585 1574.4112,1341.6545 1574.5207,1341.0745 C 1574.6989,1340.1215 1575.6694,1339.7355 1576.9605,1339.5725 C 1580.6135,1339.1115 1583.3409,1337.5515 1586.9678,1337.0965 C 1590.0969,1336.7035 1592.9897,1336.4905 1595.4403,1335.2735 C 1598.2793,1333.8675 1601.0535,1334.1215 1604.5349,1333.7145 C 1607.7822,1333.3355 1610.1487,1333.1715 1612.7654,1332.0265 C 1613.9386,1331.5095 1615.5380,1331.1745 1617.1258,1331.2665 C 1618.9118,1331.3685 1619.2400,1331.9735 1620.6038,1331.2295 C 1621.5508,1330.7115 1623.2952,1331.2115 1624.1245,1330.7285 C 1624.7832,1330.3445 1623.6065,1329.3175 1623.8484,1328.7805 C 1624.6168,1327.0685 1631.0005,1328.3225 1633.0146,1329.1765 C 1632.0947,1329.4455 1631.1205,1329.6545 1630.2387,1329.9665 C 1631.0935,1330.2985 1631.5801,1330.8095 1632.3602,1331.1925 C 1633.7268,1331.8615 1635.6587,1331.2235 1636.6974,1330.9945 C 1639.6909,1330.3315 1642.9587,1329.9795 1645.7052,1329.0375 C 1644.8075,1328.6435 1642.5448,1329.2095 1642.0780,1328.5775 C 1641.4530,1327.7335 1640.4615,1327.9485 1639.4009,1327.5175 C 1639.5894,1326.1855 1642.3396,1325.9135 1643.8244,1325.5805 C 1644.5578,1325.4165 1645.2793,1325.2355 1646.0352,1325.1025 C 1647.2753,1324.8855 1647.1119,1326.1465 1646.1027,1326.2265 C 1648.2695,1327.4725 1649.8908,1325.4205 1651.8873,1326.7175 C 1653.9176,1328.0325 1657.4671,1327.5095 1659.0895,1327.0855 C 1657.9834,1326.9995 1656.8675,1326.5585 1655.7564,1326.3655 C 1656.5875,1325.2475 1652.3934,1324.0115 1654.4247,1322.5225 C 1656.4062,1321.0615 1659.8574,1321.3725 1662.2201,1320.2965 C 1667.6583,1317.8325 1675.5983,1317.1315 1683.0272,1317.4575 C 1686.3563,1317.6035 1690.1706,1317.3575 1693.6961,1318.3045 C 1696.4387,1319.0395 1698.9771,1321.3065 1701.6526,1321.4425 C 1702.5941,1321.4905 1709.6575,1322.4155 1707.8892,1323.3475 C 1706.9103,1323.8635 1703.2788,1323.9495 1703.8868,1325.2855 C 1705.3612,1325.2425 1706.9602,1326.1375 1708.4611,1326.2255 C 1709.0950,1326.1465 1709.7319,1326.0735 1710.3723,1326.0045 C 1711.3435,1326.0725 1712.3449,1326.5525 1713.3151,1326.6195 C 1713.7964,1326.5125 1714.3306,1326.4905 1714.9169,1326.5565 C 1715.6969,1326.9785 1716.5123,1327.2745 1717.3613,1327.4445 C 1718.9130,1327.6465 1720.0121,1326.7505 1721.6024,1328.0945 C 1721.2507,1328.1655 1720.8993,1328.2395 1720.5510,1328.3145 C 1721.6107,1329.2915 1722.5144,1329.0825 1723.4751,1328.8605 C 1724.4746,1328.6295 1725.6706,1329.0005 1726.8035,1328.9885 C 1729.9046,1328.9565 1732.9204,1328.9245 1736.2918,1329.4845 C 1739.1610,1329.9605 1741.5893,1329.7375 1744.4053,1330.0805 C 1746.1954,1330.2995 1748.1296,1330.8765 1749.8243,1330.8345 C 1751.8566,1330.7845 1753.3238,1330.0175 1755.3441,1329.9075 C 1758.9546,1329.7125 1763.2975,1330.6725 1767.1478,1330.8455 C 1771.3142,1331.0335 1775.6931,1331.6505 1779.8426,1331.8075 C 1784.2426,1331.9755 1788.5756,1332.1375 1793.0721,1332.4625 C 1794.8612,1332.5925 1796.5609,1332.6335 1797.9773,1332.2705 C 1799.3865,1331.9075 1800.6690,1331.3295 1802.6684,1331.6955 C 1803.1502,1332.7215 1802.2775,1333.3525 1802.6900,1334.3605 C 1803.1342,1335.3375 1805.5397,1336.0945 1805.9117,1337.0255 C 1806.3713,1338.1775 1804.3499,1337.7975 1803.2595,1337.8955 C 1802.5079,1337.8915 1802.5000,1338.1775 1803.2356,1338.7545 C 1802.5706,1339.2385 1801.6925,1339.4045 1800.6920,1339.6145 C 1801.5418,1339.9235 1802.3371,1340.0655 1803.0772,1340.0445 C 1803.1405,1341.1115 1801.2446,1341.1095 1800.1231,1341.4145 C 1801.1877,1341.9415 1802.5973,1342.0085 1803.3271,1342.8695 C 1803.9903,1343.6515 1802.6756,1343.5565 1801.9333,1343.4695 C 1799.5246,1343.1845 1796.4622,1343.0325 1796.1292,1344.5845 C 1797.3992,1344.9495 1798.5534,1344.9395 1799.8273,1345.3055 C 1799.5526,1345.6475 1798.9315,1345.7985 1798.6122,1346.1185 C 1798.2133,1346.5165 1799.3172,1346.9745 1798.6854,1347.4155 C 1798.0654,1347.8455 1796.2587,1348.8835 1794.5951,1347.8995 C 1792.7036,1346.7385 1790.8116,1347.1015 1789.9701,1347.7985 C 1789.4872,1348.2115 1789.1587,1348.7005 1788.6324,1349.0845 C 1787.7138,1349.7515 1788.1556,1350.4045 1787.6504,1351.2035 C 1789.7396,1352.0335 1790.4847,1351.4185 1791.8881,1351.2035 C 1792.6018,1352.0825 1792.3600,1352.8335 1791.6017,1353.2245 C 1794.3443,1354.0985 1797.8509,1352.7115 1795.1268,1350.7035 C 1795.7359,1350.6815 1798.8305,1350.0945 1799.3612,1351.0975 C 1800.1106,1352.5185 1798.8289,1354.0815 1797.8468,1354.8595 C 1796.4644,1355.9495 1794.1398,1356.0745 1792.2480,1356.7765 C 1790.3366,1357.4825 1789.4402,1358.8465 1787.0985,1359.2745 C 1787.5630,1359.3805 1788.0309,1359.5005 1788.5001,1359.6335 C 1788.9669,1361.3925 1785.7848,1361.5435 1785.2704,1362.8015 C 1784.8611,1363.7895 1793.4398,1365.0995 1794.3089,1365.1685 C 1798.1058,1365.4695 1800.3629,1364.7075 1802.7846,1363.7545 C 1804.9883,1362.8845 1808.1000,1362.8495 1810.5005,1362.1535 C 1812.4545,1361.5855 1814.0636,1360.2975 1815.4273,1359.3165 C 1816.2911,1358.6925 1815.1003,1358.5695 1815.0349,1357.9465 C 1814.9949,1357.5495 1815.6913,1356.9505 1815.8048,1356.5655 C 1816.2100,1355.1935 1818.4170,1354.5215 1819.4348,1353.4255 C 1820.0425,1352.7695 1821.3584,1352.9625 1822.7236,1352.9785 C 1824.4640,1352.9985 1824.0355,1352.2865 1824.8788,1351.7835 C 1825.2398,1351.5675 1827.8252,1351.4015 1826.7389,1350.5595 C 1826.1832,1350.1295 1825.1007,1349.6045 1825.5631,1349.2335 C 1826.6890,1348.3255 1828.7572,1348.0385 1830.5266,1347.5895 C 1832.8479,1347.0035 1835.5344,1346.1405 1838.5622,1346.3285 C 1839.2881,1346.3825 1839.9894,1346.3995 1840.6643,1346.3825 C 1840.8614,1346.1655 1841.0562,1345.9495 1841.2535,1345.7335 C 1842.1145,1345.6985 1842.8060,1346.6125 1843.4925,1346.0985 C 1843.9925,1345.7235 1843.9595,1345.0715 1844.6811,1344.8205 C 1845.6801,1344.4715 1847.7493,1345.1665 1849.0144,1345.0315 C 1850.4772,1344.8745 1851.1786,1344.2865 1852.2927,1343.8785 C 1853.0395,1343.6055 1854.3682,1343.8355 1855.2481,1343.6705 C 1856.3742,1343.4605 1856.9222,1342.7745 1858.0465,1342.5315 C 1859.2698,1342.2675 1860.8768,1342.4445 1862.1531,1342.2335 C 1863.3173,1342.0415 1864.7767,1341.8025 1865.4297,1341.2285 C 1866.1849,1340.5595 1865.9888,1339.4565 1867.4373,1339.1835 C 1863.3888,1338.8415 1868.1718,1336.8265 1868.7478,1336.6755 C 1871.7976,1335.8785 1873.3918,1334.2855 1876.9333,1333.8405 C 1881.0320,1333.3225 1885.0538,1332.7485 1889.3050,1332.3965 C 1891.2132,1332.2375 1891.4078,1331.5405 1892.6822,1331.0075 C 1893.7166,1330.5745 1895.7426,1331.0035 1897.2017,1331.0425 C 1895.8278,1330.3955 1894.3819,1330.0335 1893.1196,1329.9625 C 1894.4214,1328.9795 1895.9415,1327.7935 1898.2856,1327.5875 C 1899.7044,1327.4625 1899.9536,1328.0885 1901.3234,1328.7285 C 1902.7942,1329.4155 1903.6332,1328.0225 1904.3640,1327.7925 C 1907.4929,1326.8135 1912.2675,1327.1555 1916.2969,1327.0825 C 1918.2956,1327.0465 1920.5931,1327.3965 1922.7029,1327.5055 C 1925.2970,1327.6395 1926.9518,1327.0135 1929.0866,1326.7015 C 1931.7242,1326.3175 1934.6882,1326.2555 1937.2834,1325.8355 C 1938.4351,1325.6475 1939.5886,1325.4305 1940.4756,1325.0345 C 1941.2656,1324.6805 1941.1734,1323.8895 1942.1631,1323.6715 C 1944.7622,1323.0985 1942.3880,1319.1455 1945.0861,1318.9505 C 1946.1389,1318.8745 1947.3028,1320.5395 1947.8465,1321.0665 C 1949.6679,1322.7715 1948.4800,1322.4935 1948.5088,1323.7725 C 1951.2710,1324.6435 1953.7630,1324.2675 1955.6227,1323.9765 C 1958.7204,1323.4925 1962.0531,1323.2145 1965.2982,1322.8695 C 1967.7634,1322.6075 1970.7573,1322.2725 1974.0023,1322.9235 C 1977.7204,1323.6675 1980.6316,1323.0195 1983.8279,1323.0675 C 1986.0562,1323.0995 1989.6972,1323.9245 1991.2386,1323.3605 C 1993.4287,1322.5535 1995.5204,1322.6265 1999.2039,1323.2565 C 2002.3179,1323.7875 2004.2410,1323.2745 2006.8652,1323.2745 C 2008.3715,1323.2745 2009.7821,1323.1955 2010.9371,1322.8915 C 2012.0984,1322.5845 2014.1377,1323.2485 2015.4167,1323.0545 C 2015.4507,1323.3165 2015.4886,1323.5785 2015.5356,1323.8445 C 2017.1900,1324.0705 2017.5840,1323.0735 2018.6615,1322.8335 C 2020.0882,1322.5175 2022.4103,1322.1645 2024.7521,1322.7885 C 2026.5350,1323.2625 2027.4141,1324.9725 2029.1215,1325.0385 C 2030.8157,1325.1045 2030.9934,1323.7175 2032.0189,1323.2925 C 2033.2352,1322.7865 2034.8242,1322.5415 2036.1825,1322.1375 C 2037.8643,1321.6365 2038.5970,1320.6145 2039.9790,1319.8975 C 2041.1507,1319.2885 2042.6637,1318.8415 2044.7364,1318.9725 C 2047.2694,1319.1305 2048.7071,1318.1095 2051.1714,1318.1125 C 2053.2450,1318.1155 2054.6320,1317.6295 2057.0152,1317.9455 C 2059.8597,1318.3225 2061.9680,1318.2625 2064.6098,1318.4525 C 2066.4198,1318.5825 2069.2167,1319.6045 2070.7762,1319.6045 C 2072.8072,1319.6045 2075.5308,1320.1095 2077.8153,1320.4185 C 2080.2402,1320.7475 2083.0208,1321.3495 2085.3470,1321.5275 C 2087.4643,1321.6895 2090.7675,1322.0795 2092.5254,1321.9385 C 2093.7180,1321.8435 2094.5718,1321.0755 2096.7754,1322.3455 C 2098.3519,1323.2535 2099.1001,1324.0635 2100.4702,1323.7025 C 2100.4988,1323.9365 2100.5448,1324.1765 2100.6094,1324.4225 C 2103.2403,1325.3845 2104.8898,1324.2985 2106.1378,1323.9725 C 2107.7169,1323.5585 2110.1544,1323.9935 2111.7809,1323.6125 C 2113.4180,1323.2265 2115.5417,1322.7105 2116.2467,1321.7765 C 2117.1489,1320.5985 2116.2493,1319.3075 2118.6528,1318.7555 C 2121.0408,1318.2045 2123.5852,1317.7685 2126.5461,1317.6725 C 2129.7125,1317.5695 2131.9208,1316.9015 2134.6897,1316.4985 C 2137.5013,1316.0905 2139.5839,1318.0565 2143.1074,1319.3005 C 2145.7612,1320.2365 2144.1450,1321.6135 2147.1801,1322.1205 C 2151.8057,1322.8925 2152.7178,1320.5725 2157.5036,1321.4375 C 2158.5793,1321.6305 2160.6800,1322.1185 2161.8410,1322.7425 C 2163.0883,1323.4125 2163.3515,1324.1675 2164.7893,1324.8105 C 2167.6865,1326.1055 2173.1797,1326.1695 2174.7449,1325.8485 C 2177.1985,1325.3445 2180.1429,1325.4965 2183.0527,1325.3185 C 2186.3226,1325.1185 2189.3010,1324.7595 2192.8141,1324.7415 C 2198.8265,1324.7105 2201.0684,1321.0235 2210.0695,1323.4135 C 2209.9712,1323.6335 2209.8675,1323.8505 2209.7544,1324.0635 C 2213.2796,1324.9565 2214.7422,1323.3755 2216.5549,1322.9835 C 2218.2907,1322.6085 2221.4864,1321.3405 2223.6372,1324.2035 C 2228.4983,1324.3745 2227.7091,1321.8125 2231.3906,1321.3865 C 2232.7430,1321.2285 2233.7611,1320.2915 2236.0074,1320.8645 C 2236.7144,1321.0395 2240.3342,1322.3905 2240.3276,1321.9575 C 2240.3401,1322.8135 2240.2734,1323.6485 2240.2493,1324.4945 C 2242.4224,1325.3165 2242.8283,1324.9555 2244.2948,1325.2845 C 2244.8772,1325.5545 2245.4612,1325.8205 2246.0495,1326.0845 C 2247.0326,1326.2585 2247.9157,1326.3445 2248.6972,1326.3415 C 2252.2091,1326.4135 2255.2572,1327.0925 2257.5809,1326.3105 C 2259.4944,1325.6645 2258.8042,1323.6785 2260.2481,1322.7675 C 2262.1253,1321.5775 2263.9581,1320.4395 2267.4037,1320.1055 C 2269.7270,1319.8805 2273.1284,1320.4795 2275.6278,1320.3485 C 2279.1706,1320.1625 2282.7161,1319.9645 2286.1418,1319.6975 C 2288.7350,1319.4945 2290.7692,1318.4495 2295.0276,1319.8645 C 2299.1637,1321.2175 2296.9215,1317.3175 2296.6858,1316.4355 C 2296.2047,1316.3105 2295.7263,1316.1905 2295.2505,1316.0755 C 2295.1866,1314.8025 2294.3045,1312.3015 2295.7140,1311.6805 C 2296.3756,1311.3915 2296.0296,1310.2275 2297.6297,1310.5115 C 2299.3689,1310.8205 2300.7581,1311.7805 2301.6664,1311.2445 C 2302.5831,1311.9395 2302.6334,1312.4285 2302.7779,1312.9375 C 2302.9503,1313.5485 2304.1428,1314.2875 2304.1383,1314.8075 C 2304.1221,1316.4355 2302.3170,1317.6625 2301.0113,1318.7345 C 2303.2891,1319.7055 2303.5164,1318.8375 2305.0345,1319.0245 C 2306.0142,1319.1445 2307.5598,1320.0055 2308.8011,1320.2375 C 2310.2995,1320.5165 2312.1393,1321.0625 2313.5393,1321.2165 C 2315.0534,1321.3825 2315.8283,1320.8965 2317.2196,1320.9395 C 2320.6055,1321.0435 2324.8833,1322.1285 2328.5091,1322.5025 C 2332.0988,1322.8715 2334.4953,1322.5615 2338.4789,1323.1895 C 2340.5804,1323.5205 2342.6643,1323.8295 2344.5838,1324.0055 C 2345.7975,1324.1175 2347.0253,1323.8685 2348.6262,1324.3275 C 2352.3051,1325.3805 2352.5368,1323.4435 2355.9850,1324.6035 C 2359.5915,1325.8155 2360.4632,1326.3905 2362.5999,1325.8595 C 2363.6109,1325.6065 2364.1613,1325.0715 2365.4494,1324.9755 C 2366.5865,1324.8925 2369.9341,1325.7515 2369.3627,1326.5835 C 2371.5133,1326.7995 2371.7194,1325.8215 2374.0342,1326.1535 C 2375.1611,1326.8825 2374.7902,1327.1775 2375.4761,1327.8035 C 2377.9083,1327.4955 2378.5633,1326.2405 2381.3895,1326.1535 C 2381.5241,1326.3905 2381.6698,1326.6305 2381.8241,1326.8735 C 2382.5521,1326.9005 2383.3385,1326.9715 2384.1815,1327.0835 C 2386.0656,1329.0325 2381.7829,1329.2675 2380.9637,1330.1845 C 2385.0215,1331.7525 2385.5047,1329.9695 2389.3112,1331.1655 C 2395.2497,1333.0235 2393.6505,1333.3655 2392.7153,1334.2835 C 2395.9353,1334.7645 2399.5462,1330.6665 2404.5186,1332.9235 C 2407.6316,1334.3345 2401.6739,1333.3975 2403.9301,1334.7535 C 2408.5333,1337.3165 2412.6946,1335.8555 2414.0006,1335.5835 C 2415.4223,1337.4625 2423.8870,1336.4595 2424.0641,1336.5755 C 2427.0127,1338.4975 2422.7792,1338.6585 2424.7263,1340.3335 C 2427.4067,1341.1505 2429.7508,1339.7795 2431.3583,1339.7675 C 2432.9245,1339.7555 2433.4144,1339.0995 2435.3629,1339.3235 C 2436.9059,1339.5015 2438.6037,1339.7435 2440.2007,1339.9555 C 2441.5572,1340.1355 2443.5638,1340.9085 2443.0015,1340.1335 C 2442.6915,1339.7095 2445.2350,1340.2825 2445.6891,1340.1025 C 2446.3879,1339.8235 2446.0214,1339.1485 2445.6562,1338.4885 C 2445.4104,1338.0485 2446.3717,1338.1015 2446.2989,1337.9675 C 2445.9085,1337.2465 2442.3653,1335.8825 2445.0869,1336.0875 C 2446.4995,1336.1935 2448.4902,1336.8795 2450.3229,1337.3745 C 2452.7981,1338.0415 2452.9146,1338.9715 2451.2532,1338.5445 C 2451.2289,1338.5385 2449.4917,1339.6515 2449.4878,1339.9045 C 2451.7862,1340.0875 2453.6569,1341.9735 2455.7546,1341.6365 C 2457.3155,1341.3845 2460.5342,1342.7595 2461.8088,1342.4355 C 2462.3995,1342.2865 2462.5875,1341.7865 2464.2968,1342.3125 C 2465.7737,1342.7675 2466.5864,1342.1475 2467.3775,1342.1135 C 2470.1025,1341.9935 2470.0765,1341.2345 2471.1461,1340.4045 C 2472.6187,1341.0705 2473.3525,1342.1935 2475.0577,1342.7615 C 2476.3737,1343.1995 2479.2293,1342.6895 2481.4735,1343.2535 C 2483.2443,1343.6985 2483.3487,1343.9505 2484.8055,1344.6265 C 2486.8604,1345.5795 2487.6624,1345.1685 2488.9285,1345.3735 C 2490.0318,1345.5525 2491.1886,1345.7555 2492.5940,1346.2435 C 2494.6947,1346.9725 2493.4170,1347.2905 2496.2884,1347.8935 C 2496.2119,1348.0955 2495.9496,1348.2155 2495.4828,1348.2525 C 2497.2691,1348.7085 2499.2886,1349.6315 2500.8734,1349.8565 C 2502.5286,1350.0905 2503.1981,1349.7425 2504.1681,1349.6345 C 2505.7597,1349.4585 2505.8692,1350.2375 2506.8464,1350.3435 C 2508.3982,1350.5135 2508.2477,1349.8585 2508.6933,1349.5535 C 2508.5017,1350.0085 2508.0945,1350.4065 2508.7221,1351.1325 C 2509.3587,1350.5455 2510.3746,1350.1365 2512.2028,1350.0565 C 2513.5267,1349.9975 2514.4026,1350.8765 2515.8204,1351.5635 C 2521.5317,1354.3305 2522.0007,1351.7365 2523.7932,1351.6575 C 2525.4307,1351.5845 2527.1712,1351.7105 2529.4815,1351.9935 C 2530.9747,1352.1765 2532.3744,1351.5145 2534.7091,1352.2785 C 2539.9886,1354.0035 2542.0150,1352.3555 2544.7517,1352.5035 C 2545.7626,1353.4325 2543.1669,1352.7695 2542.5983,1353.0835 C 2546.0478,1354.0715 2547.2587,1353.4055 2548.8689,1353.3445 C 2551.0568,1353.2595 2554.6192,1354.7255 2552.3485,1354.8835 C 2554.0073,1355.4805 2555.5660,1356.2105 2557.0497,1356.4345 C 2558.6201,1356.6715 2564.0508,1357.5775 2562.8996,1358.0435 C 2564.2075,1358.2115 2565.9670,1358.1615 2568.0095,1358.8775 C 2569.2039,1359.2965 2570.9903,1360.0105 2571.2746,1359.6985 C 2571.8779,1359.0365 2570.9681,1358.0355 2570.8929,1357.1835 C 2577.0197,1359.7655 2575.9380,1361.7145 2573.8427,1362.0095 C 2572.2884,1362.2275 2569.7489,1362.1805 2569.3249,1362.8365 C 2568.8919,1363.4995 2570.1066,1364.8715 2567.7025,1364.8135 C 2569.9578,1365.1575 2569.7943,1364.4535 2570.9275,1364.3135 C 2571.7549,1366.0545 2568.9008,1366.5555 2568.0050,1367.7245 C 2567.5874,1368.2645 2567.2493,1368.8365 2566.4890,1369.2575 C 2565.5646,1369.7645 2563.0816,1369.6245 2562.4008,1370.2185 C 2561.4958,1371.0045 2561.0523,1371.8035 2560.9412,1372.7685 C 2561.0963,1373.4465 2557.6710,1371.9555 2557.1547,1372.4855 C 2556.8294,1373.0725 2556.8504,1373.7255 2553.5335,1373.2435 C 2553.3851,1373.0345 2553.2041,1372.8175 2553.0013,1372.5945 C 2549.1262,1371.3885 2549.0398,1372.3995 2548.4206,1372.7635 C 2547.5055,1373.3515 2543.8213,1372.9595 2543.9280,1373.9025 C 2544.0099,1374.6895 2540.8453,1374.4555 2539.0348,1374.5865 C 2537.1962,1374.7195 2535.5567,1375.1585 2534.6318,1375.6145 C 2536.0395,1375.8815 2537.2984,1376.0745 2538.4134,1376.1945 C 2541.3575,1377.7715 2533.9887,1376.7035 2532.0598,1376.6705 C 2529.2875,1376.6235 2529.5186,1377.6675 2531.9381,1379.1605 C 2535.8061,1381.5565 2528.6471,1379.6995 2527.9949,1380.7555 C 2527.6581,1381.2915 2527.7307,1381.2785 2525.0077,1380.7015 C 2522.7388,1380.2205 2522.7497,1380.8715 2522.0180,1381.0145 C 2521.4897,1381.1635 2521.1004,1381.3605 2520.8517,1381.6045 C 2520.5881,1381.7745 2522.7981,1382.4455 2522.7206,1382.6745 C 2522.5322,1383.2485 2520.5179,1383.2345 2518.7348,1383.2275 C 2515.3877,1383.2125 2511.3777,1383.1195 2512.0652,1384.4755 C 2512.5757,1384.7325 2513.1284,1384.9965 2513.7194,1385.2655 C 2514.3471,1385.7815 2512.3457,1385.1825 2514.1900,1386.0595 C 2515.9080,1386.8785 2516.4159,1387.1485 2515.9996,1387.4935 C 2515.4240,1387.9625 2516.1171,1388.8035 2515.6627,1389.3095 C 2515.0241,1390.0215 2512.5099,1390.1185 2511.3506,1390.6645 C 2512.7496,1390.9685 2513.8069,1391.1115 2514.5271,1391.0955 C 2515.6429,1392.3405 2516.1375,1393.7085 2512.9058,1393.6155 C 2513.7631,1393.7745 2514.6402,1393.9445 2515.5355,1394.1255 C 2515.9642,1395.2405 2513.7193,1395.6965 2510.7405,1395.7755 C 2513.5276,1396.2155 2514.9314,1396.1345 2516.9612,1396.2855 C 2519.3975,1397.2205 2521.6032,1398.3445 2522.4004,1398.9835 C 2523.0131,1399.4775 2521.6626,1400.4295 2520.5418,1400.4555 C 2523.7480,1400.8585 2524.5158,1400.3775 2526.1569,1400.2455 C 2531.6467,1402.2965 2526.5875,1403.0865 2525.0020,1403.3355 C 2527.9690,1403.5875 2528.5600,1403.0265 2529.9242,1402.7555 C 2530.4878,1403.1905 2530.5830,1403.5035 2530.2100,1403.6955 C 2534.3989,1404.3965 2533.7209,1403.0625 2534.6479,1402.6855 C 2535.8643,1403.3735 2533.4785,1403.3315 2534.8731,1403.9755 C 2536.0286,1404.5095 2537.5739,1404.8935 2536.0914,1404.8455 C 2541.0049,1405.8115 2542.8695,1405.5655 2544.8900,1405.5655 C 2545.5870,1405.5655 2547.1578,1405.8365 2547.9942,1406.2645 C 2549.1274,1406.8465 2547.2712,1406.7365 2546.3485,1406.7945 C 2548.4832,1406.4755 2541.4192,1405.7845 2540.5415,1405.7665 C 2537.9449,1405.7135 2536.5328,1406.0135 2534.3643,1406.0855 C 2528.2504,1406.2895 2522.4660,1406.4925 2518.4763,1407.3145 C 2516.9182,1407.6315 2516.0601,1408.1385 2514.4810,1408.4395 C 2512.9561,1408.7295 2507.4456,1407.6835 2506.9584,1408.3035 C 2505.8716,1409.6345 2495.7098,1408.5245 2493.7482,1409.6745 C 2498.5649,1410.1405 2496.1957,1410.9075 2496.0002,1411.0445 C 2498.5663,1410.9025 2498.3223,1411.9815 2498.0962,1412.1365 C 2497.4850,1412.5545 2496.0441,1412.7495 2494.7388,1412.9755 C 2491.6135,1413.5115 2488.9284,1414.1905 2486.0607,1414.7855 C 2491.8689,1415.3765 2491.2172,1414.0385 2496.5447,1414.4955 C 2498.2526,1415.8225 2494.1876,1415.7485 2491.2542,1415.8615 C 2487.2599,1416.0165 2482.5910,1416.0555 2479.6410,1416.5115 C 2479.3757,1416.5515 2478.0133,1416.7975 2480.7403,1417.3245 C 2484.8390,1418.1165 2485.8442,1417.7655 2486.9715,1417.5885 C 2489.8717,1417.1265 2495.6189,1417.4785 2498.7563,1417.0845 C 2504.9571,1419.2335 2493.0361,1417.8755 2491.5015,1418.1645 C 2498.3885,1419.5875 2496.0187,1417.8865 2500.9291,1418.6045 C 2501.6460,1419.7615 2495.5420,1419.0875 2493.1284,1419.3945 C 2496.0119,1419.9275 2497.9324,1420.0885 2499.1655,1420.0435 C 2497.5940,1420.3195 2498.1759,1421.1375 2497.6843,1421.6935 C 2502.4472,1422.0425 2504.9641,1421.7065 2508.7760,1421.7635 C 2510.6435,1422.9235 2506.0311,1422.5375 2504.2067,1422.7395 C 2501.4671,1423.0405 2498.4312,1423.2225 2495.3270,1423.4235 C 2499.1079,1424.1325 2500.0002,1423.9285 2500.9743,1423.7905 C 2502.4894,1423.5735 2506.2991,1424.0545 2509.1507,1424.2135 C 2509.4781,1424.4315 2509.7993,1424.6485 2510.1110,1424.8635 C 2511.4798,1424.9665 2512.7417,1425.0395 2513.9052,1425.0835 C 2512.5838,1425.6765 2517.8063,1425.4565 2521.9529,1426.8045 C 2523.8228,1427.4135 2520.1902,1427.2945 2519.4029,1427.3145 C 2526.1264,1428.3205 2527.7659,1427.7865 2532.4446,1428.1735 C 2533.3471,1428.6025 2533.3962,1428.8425 2532.5949,1428.8945 C 2535.7521,1429.2515 2537.9130,1429.3115 2540.1659,1429.4045 C 2537.7216,1429.5475 2542.5974,1430.1005 2543.5482,1430.1365 C 2545.3731,1430.2045 2545.5489,1429.8375 2547.6265,1429.9745 C 2547.9316,1430.4895 2544.8306,1430.1625 2544.0127,1430.4045 C 2548.9975,1430.7135 2544.3667,1430.9495 2543.7476,1430.9845 C 2549.3095,1431.4065 2550.3130,1430.5785 2556.6105,1431.2045 C 2560.1630,1432.4265 2557.0348,1432.4355 2555.1414,1432.4675 C 2552.0991,1432.5185 2549.4790,1432.6665 2549.0384,1433.2845 C 2555.8771,1433.8305 2555.6734,1432.7845 2560.1186,1432.7845 C 2565.1580,1432.7845 2573.8690,1433.6445 2578.9241,1433.6445 C 2577.2520,1434.0555 2583.7207,1433.8645 2584.6905,1433.8645 C 2586.4530,1434.6385 2583.0597,1434.3695 2583.0990,1434.8045 C 2586.3154,1435.0345 2585.0178,1434.5195 2589.9911,1435.1595 C 2597.4404,1436.1165 2597.8911,1435.2505 2600.9633,1435.1805 C 2604.6416,1435.0995 2611.9598,1435.9145 2616.2507,1435.9735 C 2620.5175,1436.0325 2626.3684,1436.4525 2630.4097,1436.4525 C 2629.0379,1436.9845 2635.2026,1436.8825 2635.7587,1436.8505 C 2637.4944,1436.7555 2638.8628,1436.5785 2641.7952,1436.7425 C 2641.8807,1436.9945 2641.3085,1437.1135 2640.0956,1437.1025 C 2649.8649,1438.0825 2652.6726,1437.4705 2661.2481,1438.1665 C 2670.5292,1438.9175 2672.7445,1438.1115 2678.5611,1438.1115 C 2691.5979,1438.1115 2708.3986,1438.9015 2721.4719,1438.9015 C 2721.7542,1444.8265 2722.5172,1450.3225 2721.1162,1454.9285 C 2721.1456,1455.8655 2725.2517,1457.3305 2718.3661,1457.3305 C 2709.4405,1457.3305 2700.5149,1457.3305 2691.5874,1457.3305 C 2674.2260,1457.3305 2656.8646,1457.3305 2639.5032,1457.3305 C 2569.9995,1457.3305 2500.4957,1457.3305 2430.9939,1457.3305 C 2291.6279,1457.3305 2152.2638,1457.3305 2012.9016,1457.3305 C 1873.8003,1457.3305 1734.6990,1457.3305 1595.5976,1457.3305 C 1456.0177,1457.3305 1316.4212,1457.3305 1176.7740,1457.3305 C 1037.5193,1457.3305 898.2646,1457.3305 759.0099,1457.3305 C 619.6069,1457.3305 480.2057,1457.3305 340.8027,1457.3305 C 271.4589,1457.3305 202.1132,1457.3305 132.7693,1457.3305 C 97.9491,1457.3305 63.1269,1457.3305 28.3048,1457.3305 C 11.0496,1457.3305 -6.2056,1457.3305 -23.4608,1457.3305 C -30.7441,1457.3305 -28.0327,1455.9525 -27.8141,1454.9345 C -27.5665,1453.6915 -27.8234,1452.4105 -28.0499,1451.0815 C -28.8197,1447.3935 -26.7645,1443.3305 -26.8230,1438.9715 C -23.2168,1438.9155 -20.1361,1438.9715 -17.8048,1439.1785 C -15.7894,1439.3595 -16.8546,1440.3825 -11.4241,1439.8355 C -5.7985,1439.2685 -5.8635,1439.8285 -4.9402,1440.2335 C -4.0470,1440.6225 -0.8663,1440.5615 1.9444,1440.5565 C 16.3130,1440.5355 26.0327,1441.5085 38.3326,1441.9435 C 51.0939,1442.3925 64.2905,1442.8785 81.1261,1442.4295 C 89.5645,1442.2035 98.3473,1441.8835 105.0133,1442.0675 C 112.3408,1442.2685 118.3883,1442.7765 128.0650,1442.4305 C 126.4474,1441.9555 136.7198,1440.9745 138.1882,1440.8845 C 141.6113,1440.6755 143.8661,1440.7575 145.9810,1440.8625 C 151.1615,1441.1175 157.4925,1441.0995 163.5112,1441.1585 C 178.2742,1441.3035 188.9945,1442.6065 208.4864,1441.5605 C 208.5131,1441.2555 208.8421,1440.8845 212.0103,1440.7005 C 209.1329,1439.3385 196.2714,1440.0025 188.0491,1439.9195 C 178.4651,1439.8235 168.2937,1439.8765 160.2267,1439.4215 C 152.0971,1438.9625 141.9613,1438.9775 132.6546,1438.8015 C 122.7430,1438.6135 115.5583,1437.8625 108.5890,1437.0365 C 105.3820,1436.6535 102.2520,1436.2525 100.8891,1435.4865 C 100.4575,1435.2405 102.6385,1434.4995 102.9091,1434.0805 C 103.2267,1433.5935 102.3345,1433.3725 102.3929,1432.9435 C 102.4587,1432.4635 99.2441,1432.4045 102.7969,1431.2365 C 107.5418,1429.6805 111.4452,1429.4535 109.5311,1428.8925 C 106.8241,1428.0935 101.2583,1427.9635 97.8305,1427.3435 C 95.3397,1426.8905 91.0965,1426.8575 89.8784,1426.1135 C 89.8010,1426.0635 85.7783,1424.8655 91.3914,1424.4305 C 97.0510,1421.9605 62.4752,1424.1935 72.9748,1421.3295 C 91.4520,1419.2265 95.2716,1421.1435 105.1794,1421.3165 C 110.3394,1421.4075 113.4843,1421.9805 117.6245,1422.3355 C 122.4545,1422.7475 130.7436,1422.2455 135.4264,1422.6995 C 138.5937,1420.0205 161.3247,1418.8195 158.8695,1417.0315 C 155.3101,1414.9015 146.5748,1413.9565 138.0502,1413.2125 C 126.6208,1412.2085 116.7846,1410.7635 104.7547,1409.9775 C 98.8528,1409.5895 91.8169,1409.5355 87.7448,1408.6635 C 86.1833,1408.3255 85.0193,1407.8735 82.9967,1407.6585 C 81.3111,1407.4795 77.8571,1407.5745 79.8848,1406.4305 C 84.8134,1405.9655 88.4696,1405.9365 93.3313,1405.4905 C 99.4798,1403.2945 92.7972,1403.1785 90.2581,1403.1735 C 88.0961,1403.1685 84.4154,1403.6875 82.3609,1403.6545 C 80.9534,1403.6335 79.9435,1403.4885 78.0517,1403.6205 C 76.3156,1403.7405 73.6279,1404.3225 72.1662,1404.3415 C 69.1813,1404.3795 68.2293,1403.6475 66.1519,1403.4015 C 63.9318,1403.1375 61.6917,1402.8505 61.4696,1402.0365 C 61.3863,1401.7105 62.0236,1401.2335 62.3202,1400.8185 C 62.8380,1400.1045 63.8670,1400.1515 64.7039,1399.5915 C 66.6321,1398.3015 64.5227,1397.7785 65.4208,1396.7105 C 67.2567,1396.8915 68.1880,1397.3325 69.2442,1397.7385"
       id="path6898" />
    <path
       d="M 698.6117,1359.4985 C 699.0790,1360.2045 700.8011,1360.0815 702.1676,1360.2185 C 701.6467,1359.7865 701.5939,1359.1535 701.4398,1358.5695 C 705.7064,1357.4185 705.9021,1359.6045 708.4119,1359.8595 C 708.9401,1359.3445 707.5949,1358.2115 708.4353,1357.8325 C 710.8809,1356.7285 713.4584,1358.8825 716.5842,1357.9195 C 716.2281,1356.7985 713.1487,1357.1045 711.5797,1356.6995 C 715.3382,1355.0335 718.6646,1356.1255 720.7837,1356.3585 C 722.2489,1356.5195 723.1502,1356.8215 725.4569,1355.8875 C 728.3593,1354.7095 728.6417,1356.4225 730.1491,1356.5485 C 733.6880,1354.1605 724.4145,1353.2585 722.3082,1353.2355 C 721.7326,1353.2285 715.1168,1352.9485 717.9776,1351.5925 C 719.0904,1351.0305 724.4120,1350.8285 725.0889,1349.8395 C 725.3038,1349.5265 722.3596,1348.3395 722.0962,1347.9785 C 721.6695,1347.3935 723.4671,1346.4425 722.6640,1345.8525 C 721.8675,1345.2655 722.8551,1344.5615 721.4204,1344.2065 C 720.3392,1343.9375 718.3109,1343.2485 719.4015,1342.0075 C 721.3062,1339.8415 730.9933,1339.1325 732.6848,1339.3315 C 734.2956,1339.5205 735.6918,1340.2655 735.6956,1341.3595 C 735.6991,1341.8015 734.7393,1342.5335 735.1020,1342.8695 C 735.5534,1343.2845 737.4442,1342.9835 738.1249,1343.3635 C 740.9994,1344.9585 740.7726,1348.0675 743.9005,1349.5325 C 747.3944,1351.1565 748.9872,1353.2675 749.1802,1356.3455 C 749.2739,1357.6485 749.7719,1358.7265 750.0542,1359.9515 C 750.1571,1360.3955 750.2965,1361.0035 748.9444,1361.5565 C 747.3882,1362.1935 748.6587,1362.0795 748.1103,1362.6675 C 747.2452,1363.5685 747.6738,1363.9945 745.2376,1364.4765 C 743.7811,1364.7635 741.1483,1365.1855 741.5380,1366.1985 C 734.3918,1367.1545 728.7717,1367.1385 722.9452,1366.9415 C 720.6845,1366.8645 709.4223,1367.7125 711.4559,1365.2715 C 712.5700,1363.9395 719.0358,1364.9635 719.9698,1365.0745 C 721.8008,1365.2925 728.2436,1366.2995 731.3216,1363.6785 C 730.0607,1363.5395 728.0157,1364.1835 726.4505,1364.3685 C 723.9323,1364.6665 722.1818,1363.9995 720.2438,1363.8185 C 723.3107,1362.9735 725.3482,1363.3145 728.1889,1362.7385 C 727.9080,1362.2005 724.0112,1361.9485 722.7937,1361.9485 C 720.3645,1361.9485 720.4461,1360.4915 718.7956,1360.0215 C 717.5829,1359.6755 714.4947,1361.5035 712.7574,1361.8495 C 710.1537,1362.3675 707.7923,1361.5775 706.4694,1361.0875 C 706.5026,1361.8045 707.4226,1362.1085 708.0894,1362.5275 C 703.4857,1364.7765 703.5771,1362.8175 700.9341,1362.8175 C 699.3792,1362.8175 697.8919,1362.7515 696.6228,1362.5335 C 695.9698,1362.4205 692.0445,1361.2745 695.1949,1361.0875 C 694.9137,1360.7725 694.4544,1360.5555 693.8183,1360.4375 C 695.7178,1359.4675 697.5090,1359.2265 698.6117,1359.4985"
       id="path6924" />
    <path
       d="M 815.5709,1311.9085 C 815.7388,1312.1015 815.9060,1312.2955 816.0742,1312.4885 C 814.7068,1312.9795 814.0319,1312.4615 813.4107,1312.1285 C 814.3321,1311.7085 815.0525,1311.6355 815.5709,1311.9085"
       id="path6938" />
    <path
       d="M 823.8620,1304.2795 C 823.9057,1303.6725 824.5631,1303.2605 825.4263,1303.2685 C 825.2063,1302.5395 827.5083,1301.5335 828.1915,1301.8525 C 829.1621,1302.3055 828.0742,1303.7665 829.4270,1303.9895 C 829.6424,1303.4065 830.3906,1302.9645 831.2221,1302.7685 C 830.5114,1304.1335 833.6958,1303.7505 834.2366,1304.4985 C 832.5310,1305.0975 833.2933,1305.9055 832.0595,1306.1865 C 830.5770,1306.5245 829.0064,1306.6765 827.7616,1306.5725 C 825.0140,1306.3405 827.2914,1303.7785 823.8620,1304.2795"
       id="path6940" />
    <path
       d="M 805.2505,1338.9785 C 804.9830,1338.9085 804.7155,1338.8385 804.4425,1338.7685 C 805.1442,1338.4545 805.7442,1338.3585 806.2458,1338.4785 C 805.9189,1338.6455 805.5927,1338.8115 805.2505,1338.9785"
       id="path6942" />
    <path
       d="M 800.6326,1348.1285 C 800.9566,1347.9115 801.2792,1347.6945 801.6022,1347.4785 C 802.0401,1347.5565 802.1196,1347.7735 801.8428,1348.1285 C 801.4408,1348.1285 801.0374,1348.1285 800.6326,1348.1285"
       id="path6944" />
    <path
       d="M 805.9307,1351.5085 C 806.6246,1351.6175 807.1494,1351.8345 807.5065,1352.1585 C 805.5182,1353.3015 803.9058,1352.8955 803.3332,1352.2985 C 804.1802,1351.7895 805.1797,1351.4385 805.9307,1351.5085"
       id="path6946" />
    <path
       d="M 806.0991,1354.3885 C 807.3857,1354.3445 808.2890,1354.8435 807.9467,1355.6885 C 806.7573,1355.6415 804.4203,1355.6815 805.5067,1354.4595 C 805.7050,1354.4355 805.9018,1354.4115 806.0991,1354.3885"
       id="path6948" />
    <path
       d="M 796.3069,1346.1095 C 798.2490,1344.2355 798.1623,1344.2555 797.4158,1343.1075 C 796.9620,1342.4015 796.1490,1341.3385 794.1647,1341.7895 C 793.2438,1342.8525 794.3660,1343.2955 794.9686,1343.7865 C 795.6882,1344.3705 794.8237,1345.9835 796.3069,1346.1095"
       id="path7078" />
    <path
       d="M 774.4703,1330.9885 C 775.3218,1330.8165 776.1602,1330.6725 776.9850,1330.5575 C 776.2884,1330.4015 775.4510,1330.5445 774.4703,1330.9885"
       id="path7080" />
    <path
       d="M 47.1646,1410.6904 C 52.0132,1409.0334 47.5338,1409.0054 46.2315,1408.7094 C 44.0073,1408.2014 45.1710,1406.8154 43.2580,1406.1554 C 41.1397,1405.4174 42.5916,1403.7294 36.9716,1403.9964 C 34.1507,1404.1304 28.5341,1405.8434 27.4308,1406.6954 C 24.0258,1408.7384 28.0456,1409.3374 30.2571,1410.0734 C 31.3313,1410.4284 35.4166,1413.4584 47.1646,1410.6904"
       id="path5237" />
  </g>
  
  
  
  
  
  
  
  
  
  
  
  
  
  
  
  
  
  
  
  
  
  
  
  
  
  
  
  
  
  
  
  
  
  
  
  
  
  
  
  
  
  
  
  
  
  
  
  
  
  
  
  
  
  
  
  
  
  
  
  
  
  
  
  
  
  
  
  
  
  
  
  
  
  
  
  
  
</svg>
