<?xml version="1.0" encoding="UTF-8" standalone="no"?>
<svg
   xmlns:dc="http://purl.org/dc/elements/1.1/"
   xmlns:cc="http://web.resource.org/cc/"
   xmlns:rdf="http://www.w3.org/1999/02/22-rdf-syntax-ns#"
   xmlns:svg="http://www.w3.org/2000/svg"
   xmlns="http://www.w3.org/2000/svg"
   xmlns:sodipodi="http://sodipodi.sourceforge.net/DTD/sodipodi-0.dtd"
   xmlns:inkscape="http://www.inkscape.org/namespaces/inkscape"
   viewBox="0 0 2752.766 1537.631"
   version="1.0"
   height="476.7276"
   width="939.74725"
   id="svg1926"
   sodipodi:version="0.32"
   inkscape:version="0.45.1"
   sodipodi:docname="BlankMap-World6.svg"
   sodipodi:docbase="/home/bennett/Desktop"
   inkscape:output_extension="org.inkscape.output.svg.inkscape">
  <sodipodi:namedview
     inkscape:window-height="590"
     inkscape:window-width="822"
     inkscape:pageshadow="2"
     inkscape:pageopacity="0.0"
     guidetolerance="10.0"
     gridtolerance="10.0"
     objecttolerance="10.0"
     borderopacity="1.0"
     bordercolor="#666666"
     pagecolor="#ffffff"
     id="base"
     inkscape:zoom="0.77893284"
     inkscape:cx="469.87363"
     inkscape:cy="238.3638"
     inkscape:window-x="178"
     inkscape:window-y="46"
     inkscape:current-layer="svg1926" />
  <metadata
     id="metadata24111">
    <rdf:RDF>
      <cc:Work
         rdf:about="">
        <dc:format>image/svg+xml</dc:format>
        <dc:type
           rdf:resource="http://purl.org/dc/dcmitype/StillImage" />
        <cc:license
           rdf:resource="http://web.resource.org/cc/PublicDomain" />
        <dc:title>Blank World Map</dc:title>
      </cc:Work>
      <cc:License
         rdf:about="http://web.resource.org/cc/PublicDomain">
        <cc:permits
           rdf:resource="http://web.resource.org/cc/Reproduction" />
        <cc:permits
           rdf:resource="http://web.resource.org/cc/Distribution" />
        <cc:permits
           rdf:resource="http://web.resource.org/cc/DerivativeWorks" />
      </cc:License>
    </rdf:RDF>
  </metadata>
  <defs
     id="defs1930" />
  <style
     type="text/css"
     id="style_css_sheet">
/*
 * Below are Cascading Style Sheet (CSS) definitions in use in this file,
 * which allow easily changing how countries are displayed.
 *
 */

/*
 * Circles around small countries
 *
 * Change opacity to 1 to display all circles.
 *
 */
.circle
{
   opacity:0;
   fill:#b9b9b9;
   fill-opacity:1;
   stroke:black;
   stroke-width:0.99986893;
   stroke-miterlimit:3.97446823;
   stroke-dasharray:none;
   stroke-opacity:1;
}

/*
 * Land
 */
.land
{
   fill: #b9b9b9;
   fill-opacity: 1;
   stroke: #ffffff;
   stroke-opacity: 1;
   stroke-width: 0.99986997;
   stroke-miterlimit: 3.97446823;
   stroke-dasharray: none;
}

/*
 * Additional style rules
 *
 * The following are examples of colouring countries.  You can substitute these with your own styles to colour the countries on the map.
 *
 * Color a few countries:
 *
 * .gb, .au, .nc
 * {
 *    fill:       #ff0000;
 * }
 *
 * Color a few small country circles (and the countries):
 *
 * .ms, .ky
 * {
 *    opacity:    1;
 *    fill:       #ff0000;
 * }
 *
 */

/*
 * Antarctica
 */

.aq
{
   fill:#e6e6e6;
}

/*
 * Sea
 */

.ocean
{
   opacity: 1;
   color: #000000;
   fill:white;
   fill-opacity:1;
   fill-rule:nonzero;
   stroke:#000000;
   stroke-width:0.5;
   stroke-linecap:butt;
   stroke-linejoin:miter;
   marker:none;
   marker-start:none;
   marker-mid:none;
   marker-end:none;
   stroke-miterlimit:1;
   stroke-dasharray:none;
   stroke-dashoffset:0;
   stroke-opacity:1;
   visibility:visible;
   display:inline;
   overflow:visible;
}

.lake
{
   fill:#ffffff;
   fill-opacity:1;
   stroke:#ffffff;
   stroke-opacity:1;
   stroke-width:0.99986997;
   stroke-miterlimit:3.97446823;
   stroke-dasharray:none;
}
</style>
  
  
  
  
  
  
  
  
  
  
  
  
  
  
  
  
  
  
  
  
  
  
  
  
  
  
  
  
  
  
  
  
  
  
  
  
  
  
  
  
  
  
  
  
  
  
  
  
  
  
  
  
  
  
  
  
  
  
  
  
  
  
  
  
  
  
  
  
  
  
  
  
  
  
  
  
  
  <g
     class="land ar"
     id="ar">
    <path
       d="M 796.6227,1097.4985 C 796.9075,1096.9935 796.6744,1096.9205 795.9245,1097.2785 C 796.1563,1097.3525 796.3895,1097.4255 796.6227,1097.4985"
       id="path4200" />
    <path
       d="M 797.4814,1099.0085 C 797.8151,1098.1545 796.9978,1097.7365 796.1206,1098.1385 C 796.4956,1098.5125 796.9489,1098.8025 797.4814,1099.0085"
       id="path4202" />
    <path
       d="M 735.3095,1012.7485 C 735.6001,1012.0265 736.4968,1011.8505 736.8058,1011.1795 C 737.2272,1010.2645 736.9691,1008.9105 737.2292,1007.9285 C 737.9686,1005.1355 739.8322,1003.9835 741.4048,1001.6125 C 742.4261,1000.0715 742.7629,998.4885 743.4772,996.8815 C 743.8264,996.0945 744.2147,995.2085 744.8300,994.5265 C 745.4449,993.8445 746.1924,994.3935 746.9869,994.0705 C 750.3621,992.6985 747.5865,990.8865 746.8990,989.3215 C 746.0485,987.5415 748.2642,986.4295 747.8401,984.6985 C 747.5383,983.4665 744.7329,977.1425 747.8584,977.0385 C 747.6465,976.2575 746.2211,974.4225 746.5669,973.6535 C 747.3814,971.8425 748.7519,970.5705 750.6122,969.8085 C 752.2561,969.1355 754.8423,968.5345 755.8029,966.8585 C 756.7671,965.1735 756.9201,962.9125 757.4369,961.1195 C 757.6416,960.4105 758.2841,959.2525 758.0606,958.5435 C 757.9081,958.0585 756.7012,957.3145 756.8849,956.8015 C 757.0905,956.2265 758.4669,954.4055 758.9686,954.2095 C 760.3362,953.6745 759.9654,952.2555 761.2624,951.6575 C 763.4483,950.6485 763.5901,950.4405 764.1254,948.0185 C 765.7472,948.3445 766.3912,949.9985 767.8022,950.6385 C 769.4259,951.3745 771.5497,950.4335 773.3055,950.7015 C 777.4848,951.3375 776.9323,954.5045 778.7542,957.4595 C 779.0543,956.1235 779.1732,954.8565 779.8714,953.5955 C 780.2472,952.9155 781.0156,950.4915 781.7597,950.2145 C 782.3262,950.0035 783.3305,950.1115 783.9843,949.9575 C 785.1878,949.6745 786.5056,949.8985 787.6994,949.8985 C 788.4056,949.8985 790.0096,949.5255 790.1428,950.3075 C 790.3230,951.3635 792.3463,952.6215 793.0486,953.3955 C 793.8592,954.2885 794.4866,954.4105 794.9230,955.5725 C 795.2663,956.4875 795.7462,957.3995 796.2947,958.1965 C 797.5648,960.0395 799.8978,961.3395 801.6772,962.6885 C 802.6977,963.4615 803.1068,964.5585 804.0239,965.3795 C 804.8734,966.1415 806.1794,966.0945 807.2186,966.5155 C 808.6202,967.0835 809.5369,967.4595 811.1680,967.4595 C 812.4052,967.4595 813.1582,968.5535 814.1204,969.0645 C 816.6155,970.3925 818.3961,972.9005 821.2205,973.8185 C 822.0512,974.0895 823.0688,974.1745 823.6886,974.7985 C 824.5903,975.7085 825.0869,975.1765 826.0482,975.7755 C 826.9761,976.3535 828.2837,976.4425 828.9248,977.3595 C 829.3776,978.0075 829.8951,978.5955 830.3412,979.2515 C 831.2226,980.5445 829.1193,981.9095 828.6880,983.4065 C 828.0438,985.6355 825.9220,986.2235 826.0593,988.8455 C 826.0393,991.2455 824.0578,991.9865 823.1315,994.0275 C 822.6703,995.0445 822.3684,994.6825 822.7030,995.8975 C 824.3285,995.3265 825.9525,995.3165 827.4763,995.6125 C 830.1732,996.1355 832.5006,997.7235 835.3993,996.8655 C 836.3082,996.5965 836.4804,997.8705 837.4799,997.2585 C 838.4404,996.6705 839.1013,998.0195 839.7498,998.2775 C 840.4152,997.2975 840.7395,995.9445 842.1462,995.7575 C 843.2233,995.6145 843.5504,996.7755 844.4826,996.6575 C 845.9605,996.4715 846.0399,994.7865 846.5627,993.8545 C 847.1631,992.7845 849.4822,992.8945 849.4780,992.2735 C 849.4765,992.0765 851.2072,990.1435 851.3644,990.1695 C 852.3604,990.3305 852.5571,988.0025 852.7673,987.1825 C 853.1862,985.5465 853.3548,983.7665 853.0951,982.1595 C 852.8299,980.5215 853.8292,981.0805 854.6889,981.6475 C 855.0384,980.3425 856.8011,980.4725 857.7048,980.7955 C 859.2695,981.3555 859.4294,982.9905 859.8103,984.4095 C 860.3485,986.4155 860.4414,987.5465 860.1753,989.6985 C 860.0073,990.8205 860.1189,991.8325 859.7427,992.9655 C 859.5406,993.5355 859.3433,994.1065 859.1501,994.6775 C 858.8057,994.5405 858.4481,994.5765 858.0780,994.7875 C 856.7253,995.4635 855.7681,996.3635 854.3306,996.8935 C 853.6121,997.1595 851.2634,997.9045 851.0288,998.7715 C 850.6703,1000.0905 849.1417,1000.2105 848.1146,1000.7845 C 847.5170,1001.1175 847.2910,1001.8395 846.7483,1002.2795 C 845.9562,1002.9225 845.0087,1003.3985 844.2724,1004.1075 C 844.8584,1004.3105 845.0358,1004.8225 844.6265,1005.4085 C 843.5031,1004.0405 839.7975,1009.4855 838.8337,1010.5465 C 837.1716,1012.3975 836.1722,1016.1695 833.4857,1017.1435 C 832.2763,1017.5815 832.1058,1019.0535 831.4029,1019.9205 C 831.0309,1020.3785 830.5286,1020.6495 829.9615,1020.7395 C 830.1388,1021.5105 829.7539,1022.0355 829.0692,1022.5445 C 827.1218,1023.9905 828.8618,1024.4585 828.7588,1025.9995 C 828.7078,1026.7645 828.0838,1026.6165 827.9416,1027.2195 C 827.7745,1027.9305 828.1301,1028.6045 828.0799,1029.3045 C 828.0303,1030.0075 827.7529,1030.7815 827.3139,1031.4135 C 826.3930,1032.6925 827.9087,1031.8815 827.5260,1033.1145 C 827.0229,1034.6765 826.0190,1034.9695 825.9347,1036.6715 C 825.8627,1038.1305 826.6542,1038.6775 825.8172,1040.1565 C 825.0613,1041.4905 825.6382,1043.1305 826.0835,1044.2435 C 826.8604,1046.1845 824.2751,1045.4755 824.1239,1046.6015 C 823.9270,1048.0735 822.6634,1049.5675 823.0515,1051.0505 C 823.2693,1051.8805 825.4370,1056.3715 822.8099,1056.2395 C 823.7760,1057.1665 823.5948,1058.3655 824.8193,1059.2185 C 826.1518,1060.1465 827.5329,1060.8625 829.0260,1061.5965 C 831.4649,1062.7955 834.8050,1064.8255 832.5009,1068.0245 C 830.8385,1070.3295 832.9049,1074.9745 836.1358,1073.8295 C 837.4095,1073.3765 837.0858,1076.6395 837.1801,1077.2235 C 837.4614,1078.9725 835.7039,1080.9405 834.5361,1082.5095 C 833.4606,1083.9525 831.1246,1086.0015 830.6603,1087.5955 C 830.1679,1089.2855 830.2157,1089.7845 828.2500,1090.8985 C 824.6850,1092.9135 820.9037,1093.9465 817.0726,1094.6255 C 812.4455,1095.4445 807.8366,1096.6355 803.2812,1096.8245 C 801.5227,1096.8975 800.0762,1096.8655 798.4159,1096.7225 C 796.5225,1096.5595 795.5651,1095.4135 793.7724,1095.1895 C 793.8848,1095.6565 794.1079,1096.0565 794.4378,1096.3915 C 794.7908,1096.7985 793.9844,1097.6805 794.0993,1098.1865 C 794.1644,1098.4685 796.9556,1100.8975 794.9604,1100.0895 C 795.7776,1100.7885 796.1172,1101.2825 795.9745,1102.4745 C 795.8715,1103.3345 795.5702,1104.7595 794.3526,1104.0495 C 794.2955,1104.9175 794.2887,1105.8025 793.9741,1106.7005 C 793.7203,1107.4275 792.7132,1108.0585 793.0975,1108.7075 C 793.3781,1109.1815 793.8703,1109.5105 794.2379,1109.9195 C 794.7985,1110.5415 794.0950,1111.5485 795.3097,1111.0295 C 793.4918,1114.5635 789.3679,1115.0995 786.0189,1115.3675 C 781.5755,1115.7225 779.0594,1113.0565 775.0184,1112.4695 C 776.8690,1112.1565 775.2217,1111.5725 774.5755,1111.8385 C 773.7246,1112.1885 773.0013,1113.0575 772.7049,1113.7905 C 771.7895,1115.9065 774.0100,1117.4415 773.6320,1119.5245 C 773.3273,1121.2135 772.5575,1123.3055 774.3389,1124.0235 C 775.2491,1124.3895 778.0599,1124.5945 776.6180,1126.2185 C 777.0196,1126.3175 780.9261,1126.7305 781.0190,1125.7705 C 781.0956,1124.9865 779.2326,1124.9555 778.7194,1124.6385 C 779.9981,1124.8265 781.2057,1123.5585 782.4851,1123.4895 C 783.8036,1123.4185 784.5141,1125.0575 784.3435,1126.0795 C 784.1867,1127.0255 784.9754,1128.4165 783.8799,1129.3895 C 783.1210,1130.0625 781.1862,1130.2725 780.4199,1130.1835 C 779.1436,1130.0365 779.8845,1128.6625 779.4526,1128.0645 C 778.7458,1127.0855 777.4153,1126.6895 775.7821,1127.4955 C 771.4504,1129.6285 776.5762,1131.3655 778.7862,1130.8995 C 778.2321,1131.9045 776.9208,1132.2335 775.8994,1132.5655 C 773.8803,1133.2225 773.6677,1133.9455 772.4250,1135.3645 C 771.1314,1136.8415 770.8197,1137.3435 771.4016,1138.7245 C 771.6039,1139.2035 771.9214,1139.7875 771.7433,1140.4105 C 771.4452,1140.8315 771.2698,1141.2535 771.2159,1141.6775 C 771.5338,1142.0715 771.5924,1142.5575 771.3903,1143.1355 C 771.2302,1143.4065 770.9947,1144.3885 770.5111,1144.4945 C 769.8260,1144.6425 768.8699,1144.8845 768.5029,1145.5905 C 767.8871,1146.7765 769.8193,1146.9625 769.2375,1147.8955 C 768.6015,1148.9145 761.1891,1147.4635 761.8650,1150.0605 C 758.6733,1149.4075 756.2032,1153.1165 754.7467,1155.3705 C 752.3017,1159.1455 754.4406,1160.6435 756.8139,1162.5645 C 757.9828,1163.5085 758.8087,1164.7575 760.2821,1165.4435 C 762.1623,1166.3175 765.3886,1165.1375 767.0517,1166.2565 C 769.3817,1167.8195 767.4862,1173.0505 763.0535,1172.5205 C 763.7724,1172.8255 764.7084,1172.1505 765.5496,1172.0905 C 766.8277,1171.9995 766.9648,1172.7435 767.3630,1173.4605 C 766.6118,1173.5355 766.2078,1173.9035 766.3160,1174.4605 C 765.0773,1174.2195 760.9142,1177.2875 759.7314,1178.0165 C 758.1827,1178.9675 756.8970,1179.8925 755.5304,1181.0585 C 754.6074,1181.8455 753.8508,1182.3115 753.4396,1183.2825 C 753.1120,1184.0555 752.8546,1184.7895 751.8102,1185.3415 C 752.4346,1185.4455 753.1148,1185.1265 753.5204,1184.5415 C 752.5925,1186.6825 753.5069,1190.3975 749.3202,1191.4195 C 746.2334,1192.1705 747.1217,1188.5865 744.9716,1188.2215 C 745.4743,1188.4175 746.5392,1189.4675 745.6739,1190.1615 C 745.0317,1190.6775 743.6560,1190.2325 742.8577,1190.6615 C 745.5294,1189.8535 745.8487,1191.1635 747.6646,1191.5315 C 746.7692,1192.8555 744.3909,1192.7865 743.1124,1194.2555 C 741.3901,1196.2325 742.3714,1197.5125 740.0720,1199.5215 C 742.6571,1197.7095 743.1636,1201.6855 743.2729,1202.7255 C 743.4429,1204.3235 740.0401,1203.3875 738.7559,1204.0615 C 739.8942,1203.7795 741.8510,1204.5875 742.3840,1204.3725 C 744.0989,1203.6785 744.3915,1205.2645 745.0694,1205.9775 C 746.2685,1207.3615 747.8430,1208.3695 747.5682,1210.3915 C 747.5073,1209.6685 746.3481,1209.7025 745.5560,1209.6255 C 744.1356,1209.4895 743.1862,1208.7935 741.9690,1208.4365 C 738.9068,1207.5365 735.2566,1207.1515 731.5151,1207.1515 C 729.8570,1207.1515 728.1978,1207.1515 726.5397,1207.1515 C 725.1445,1207.1515 721.8994,1207.6375 721.1009,1206.9935 C 719.8595,1205.9895 719.4518,1203.7415 717.1565,1203.4815 C 718.4123,1202.5155 718.5093,1200.9455 717.8504,1200.3395 C 716.9803,1199.5375 718.5078,1198.4875 718.3245,1197.5005 C 718.2112,1196.8925 717.7073,1195.3125 716.4516,1195.7255 C 715.4695,1196.0465 714.9935,1195.5925 714.0831,1195.7715 C 713.4085,1195.9035 712.7672,1196.5315 712.1135,1196.7905 C 710.7318,1197.3385 710.4831,1194.8215 710.4483,1194.2265 C 710.3802,1193.0425 708.0559,1192.2315 708.4650,1191.0275 C 708.6822,1190.3905 708.3055,1190.3725 708.2563,1189.8405 C 708.2167,1189.4205 708.7080,1188.8835 708.7527,1188.4325 C 708.8144,1187.7975 708.0693,1187.5655 708.1287,1186.9225 C 708.1967,1186.1975 708.8439,1185.4335 709.0914,1184.6925 C 710.3717,1184.8865 710.8309,1184.1855 711.6457,1183.2535 C 712.1099,1182.7225 711.9649,1182.2885 712.6970,1181.8135 C 713.3465,1181.3925 714.0507,1181.6895 714.7312,1181.2335 C 716.0719,1180.3345 715.8632,1178.8695 715.5809,1178.0745 C 715.2560,1177.1605 717.3642,1177.0905 717.8541,1176.3445 C 718.3967,1175.5165 717.5429,1174.4705 717.0836,1174.0525 C 716.1512,1173.2035 716.2278,1172.6615 716.9707,1171.2175 C 717.4805,1170.2255 719.3842,1166.7075 721.2271,1166.9745 C 721.1896,1166.1845 720.1299,1166.1085 720.5551,1165.2775 C 720.8274,1164.7445 720.4049,1164.3165 720.9243,1163.7595 C 721.2928,1163.3645 721.8636,1163.1665 722.2553,1162.7795 C 723.8629,1161.1885 721.9531,1158.7175 721.0707,1157.9045 C 722.1906,1157.8585 723.7002,1155.9945 722.6346,1155.6895 C 721.8740,1155.4715 721.2884,1153.7055 722.5531,1152.9505 C 723.6279,1152.3075 723.6739,1152.7375 724.6969,1151.6975 C 725.5539,1150.8175 725.7211,1150.7975 725.1659,1150.0365 C 724.6791,1149.3665 724.0899,1148.7475 723.4516,1148.1905 C 722.5489,1147.3995 720.4424,1148.2315 719.7874,1147.1235 C 719.2330,1146.1825 725.2766,1146.5855 726.0453,1145.9555 C 725.6202,1146.3035 726.8505,1144.1225 726.8420,1144.4445 C 726.9092,1142.0715 721.6159,1144.4925 721.5672,1142.1685 C 721.4680,1141.7905 721.3762,1141.4085 721.2941,1141.0225 C 721.3828,1140.4015 722.6818,1139.8485 722.4757,1139.2575 C 722.2142,1138.5045 720.9407,1138.0735 722.1162,1137.2405 C 723.5835,1136.1995 718.8841,1135.3805 721.3480,1133.9005 C 722.6644,1133.1085 721.7144,1132.4685 720.8831,1132.3305 C 719.3004,1132.0675 718.8882,1131.4905 718.9890,1130.0045 C 719.0668,1128.8695 719.5957,1127.5175 719.6157,1126.4435 C 719.6306,1125.6295 718.5830,1124.9365 720.2085,1124.1145 C 721.2152,1123.6055 722.4244,1124.0165 721.9430,1122.7925 C 721.5343,1121.7475 720.2989,1120.2975 721.0645,1118.8755 C 722.3875,1116.4145 720.6014,1114.1305 720.9779,1111.9035 C 721.1083,1111.0005 721.5987,1109.8015 722.3294,1108.9915 C 723.4944,1107.6985 721.6015,1107.3795 721.7637,1106.2845 C 723.4224,1106.8615 723.0960,1104.3745 722.7620,1103.8055 C 722.0891,1102.6595 722.6021,1102.0835 724.1169,1102.0345 C 723.4679,1101.1785 724.8341,1098.6855 724.8140,1097.4975 C 724.7826,1095.6765 726.8768,1095.3235 728.4222,1094.3195 C 730.0925,1093.2265 727.8184,1091.4745 727.8394,1090.1295 C 727.8662,1088.4295 725.6789,1086.3505 726.4869,1084.6725 C 727.0293,1083.5455 726.6670,1080.8105 726.4391,1079.7315 C 726.1969,1078.5735 726.6783,1076.0235 727.9699,1075.0195 C 728.6667,1074.4775 728.9625,1075.0585 729.4823,1074.4015 C 729.8727,1073.9065 730.0409,1073.1885 730.5702,1072.7715 C 730.9871,1072.4415 731.8891,1072.2375 732.0822,1071.7445 C 732.5427,1070.5695 732.4717,1069.3245 732.3114,1068.2635 C 732.1759,1067.3675 731.9410,1066.5095 731.7424,1065.6385 C 731.6941,1065.4235 730.9374,1064.8415 730.9656,1064.7455 C 731.1979,1063.9585 732.1287,1064.3055 732.5040,1063.4135 C 732.8733,1062.5375 732.9575,1061.6535 733.1317,1060.7845 C 733.3014,1059.9375 734.7244,1055.9795 736.0158,1056.2095 C 737.2666,1056.4315 736.3504,1053.3035 736.3158,1053.0525 C 736.1192,1051.8875 737.8504,1047.8725 736.5237,1047.4285 C 735.7707,1047.1765 735.9278,1048.4445 735.1577,1047.1135 C 734.5937,1046.1365 734.9551,1045.6655 735.4229,1044.5795 C 735.7898,1043.7275 735.2245,1043.4165 734.7300,1042.9955 C 734.0905,1042.4505 734.4861,1041.9345 734.4434,1041.1655 C 734.3501,1039.4795 732.8489,1038.4325 732.7982,1036.7335 C 734.2861,1037.4745 733.0075,1035.2725 732.4472,1034.9585 C 731.1089,1034.2085 731.2275,1031.7915 731.4594,1030.3415 C 731.7447,1028.5605 733.0277,1029.2205 733.0109,1027.3245 C 732.9996,1025.9335 734.9906,1023.3945 734.1843,1022.2635 C 736.3909,1023.8895 736.2914,1019.6865 736.1320,1018.7895 C 735.8982,1017.4795 734.2437,1014.0085 735.3095,1012.7485"
       id="path4518" />
    <path
       d="M 746.1314,1212.4785 C 747.0523,1213.7935 748.6675,1214.6945 748.9730,1216.3695 C 748.8971,1214.5215 744.2425,1217.7435 748.7282,1217.7805 C 750.4075,1217.7945 749.9739,1219.3845 750.5687,1220.2015 C 751.3001,1221.2045 753.1036,1221.4535 753.7914,1222.3885 C 755.5934,1224.8625 759.6913,1226.0195 762.7862,1227.5535 C 764.2002,1228.2515 766.3419,1229.1275 768.4021,1229.0775 C 769.4160,1229.0535 770.5070,1228.8815 771.4880,1228.9195 C 772.8701,1228.9725 771.8298,1230.2115 770.8860,1231.1995 C 770.0564,1230.6755 768.1901,1231.5835 767.1026,1231.1515 C 765.9177,1230.6795 762.9750,1232.2495 761.3323,1231.9215 C 759.4900,1231.5525 757.9425,1231.1355 755.8369,1231.0815 C 753.4898,1231.0215 750.3820,1231.1155 748.6173,1230.3345 C 747.4831,1229.8335 745.8631,1231.0685 745.5578,1229.5465 C 745.2807,1228.1485 745.7133,1226.3985 745.7335,1224.8905 C 745.7831,1220.8115 745.6252,1216.7025 746.1314,1212.4785"
       id="path4520" />
    <path
       d="M 775.9323,1231.1285 C 777.8098,1229.9105 780.1789,1230.2485 782.0563,1229.7585 C 780.1549,1229.2965 777.7840,1229.9055 775.4065,1230.5485 C 775.5417,1230.7675 775.7183,1230.9605 775.9323,1231.1285"
       id="path4874" />
  </g>
  
  
  
  
  
  
  
  
  
  
  
  
  
  
  
  
  
  
  
  
  
  
  
  
  
  
  
  
  
  
  
  
  
  
  
  
  
  
  
  
  
  
  
  
  
  
  
  
  
  
  
  
  
  
  
  
  
  
  
  
  
  
  
  
  
  
  
  
  
  
  
  
  
  
  
  
  
  
  
  
  
  
  
  
  
  
  
  
  
  
  
  
  
  
  
  
  
  
  
  
  
  
  
  
  
  
  
  
  
  
  
  
  
  
  
  
  
  
  
  
  
  
  
  
  
  
  
  
  
  
  
  
  
  
  
  
  
  
  
  
  
  
  
  
  
  
  
  
  
  
  
  
  
  
</svg>
