<?xml version="1.0" encoding="UTF-8" standalone="no"?>
<svg
   xmlns:dc="http://purl.org/dc/elements/1.1/"
   xmlns:cc="http://web.resource.org/cc/"
   xmlns:rdf="http://www.w3.org/1999/02/22-rdf-syntax-ns#"
   xmlns:svg="http://www.w3.org/2000/svg"
   xmlns="http://www.w3.org/2000/svg"
   xmlns:sodipodi="http://sodipodi.sourceforge.net/DTD/sodipodi-0.dtd"
   xmlns:inkscape="http://www.inkscape.org/namespaces/inkscape"
   viewBox="0 0 2752.766 1537.631"
   version="1.0"
   height="476.7276"
   width="939.74725"
   id="svg1926"
   sodipodi:version="0.32"
   inkscape:version="0.45.1"
   sodipodi:docname="BlankMap-World6.svg"
   sodipodi:docbase="/home/bennett/Desktop"
   inkscape:output_extension="org.inkscape.output.svg.inkscape">
  <sodipodi:namedview
     inkscape:window-height="590"
     inkscape:window-width="822"
     inkscape:pageshadow="2"
     inkscape:pageopacity="0.0"
     guidetolerance="10.0"
     gridtolerance="10.0"
     objecttolerance="10.0"
     borderopacity="1.0"
     bordercolor="#666666"
     pagecolor="#ffffff"
     id="base"
     inkscape:zoom="0.77893284"
     inkscape:cx="469.87363"
     inkscape:cy="238.3638"
     inkscape:window-x="178"
     inkscape:window-y="46"
     inkscape:current-layer="svg1926" />
  <metadata
     id="metadata24111">
    <rdf:RDF>
      <cc:Work
         rdf:about="">
        <dc:format>image/svg+xml</dc:format>
        <dc:type
           rdf:resource="http://purl.org/dc/dcmitype/StillImage" />
        <cc:license
           rdf:resource="http://web.resource.org/cc/PublicDomain" />
        <dc:title>Blank World Map</dc:title>
      </cc:Work>
      <cc:License
         rdf:about="http://web.resource.org/cc/PublicDomain">
        <cc:permits
           rdf:resource="http://web.resource.org/cc/Reproduction" />
        <cc:permits
           rdf:resource="http://web.resource.org/cc/Distribution" />
        <cc:permits
           rdf:resource="http://web.resource.org/cc/DerivativeWorks" />
      </cc:License>
    </rdf:RDF>
  </metadata>
  <defs
     id="defs1930" />
  <style
     type="text/css"
     id="style_css_sheet">
/*
 * Below are Cascading Style Sheet (CSS) definitions in use in this file,
 * which allow easily changing how countries are displayed.
 *
 */

/*
 * Circles around small countries
 *
 * Change opacity to 1 to display all circles.
 *
 */
.circle
{
   opacity:0;
   fill:#b9b9b9;
   fill-opacity:1;
   stroke:black;
   stroke-width:0.99986893;
   stroke-miterlimit:3.97446823;
   stroke-dasharray:none;
   stroke-opacity:1;
}

/*
 * Land
 */
.land
{
   fill: #b9b9b9;
   fill-opacity: 1;
   stroke: #ffffff;
   stroke-opacity: 1;
   stroke-width: 0.99986997;
   stroke-miterlimit: 3.97446823;
   stroke-dasharray: none;
}

/*
 * Additional style rules
 *
 * The following are examples of colouring countries.  You can substitute these with your own styles to colour the countries on the map.
 *
 * Color a few countries:
 *
 * .gb, .au, .nc
 * {
 *    fill:       #ff0000;
 * }
 *
 * Color a few small country circles (and the countries):
 *
 * .ms, .ky
 * {
 *    opacity:    1;
 *    fill:       #ff0000;
 * }
 *
 */

/*
 * Antarctica
 */

.aq
{
   fill:#e6e6e6;
}

/*
 * Sea
 */

.ocean
{
   opacity: 1;
   color: #000000;
   fill:white;
   fill-opacity:1;
   fill-rule:nonzero;
   stroke:#000000;
   stroke-width:0.5;
   stroke-linecap:butt;
   stroke-linejoin:miter;
   marker:none;
   marker-start:none;
   marker-mid:none;
   marker-end:none;
   stroke-miterlimit:1;
   stroke-dasharray:none;
   stroke-dashoffset:0;
   stroke-opacity:1;
   visibility:visible;
   display:inline;
   overflow:visible;
}

.lake
{
   fill:#ffffff;
   fill-opacity:1;
   stroke:#ffffff;
   stroke-opacity:1;
   stroke-width:0.99986997;
   stroke-miterlimit:3.97446823;
   stroke-dasharray:none;
}
</style>
  
  
  
  
  
  
  
  
  
  
  
  
  
  
  
  
  
  
  
  
  
  
  
  
  
  
  
  
  
  
  
  
  
  
  
  
  
  
  
  
  
  
  
  
  
  
  
  
  
  
  
  
  <g
     class="land au"
     id="au">
    <path
       d="M 2388.7103,919.5785 C 2389.5590,918.9975 2388.5679,918.0735 2388.1871,917.3485 C 2387.4729,917.9855 2388.0593,918.8935 2388.7103,919.5785"
       id="path3366" />
    <path
       d="M 2409.0966,935.4985 C 2409.7341,935.2215 2409.5376,934.4965 2409.0888,933.9775 C 2409.0881,934.4845 2409.0901,934.9905 2409.0966,935.4985"
       id="path3368" />
    <path
       d="M 2283.8659,857.7385 C 2284.2698,856.7805 2284.0430,855.7505 2283.6129,854.7775 C 2282.9139,855.8355 2283.4417,856.6225 2283.8659,857.7385"
       id="path3294" />
    <path
       d="M 2289.8295,860.5385 C 2289.9640,860.3945 2290.1006,860.2515 2290.2351,860.1075 C 2289.7976,859.8165 2289.6631,859.9605 2289.8295,860.5385"
       id="path3298" />
    <path
       d="M 2311.2260,864.1385 C 2311.4684,863.8195 2311.7208,863.5095 2311.9865,863.2085 C 2311.4177,863.2315 2311.1364,863.5685 2311.2260,864.1385"
       id="path3310" />
    <path
       d="M 2311.1404,860.6885 C 2311.9120,860.3795 2312.6423,859.9215 2313.0406,859.1785 C 2312.5453,859.8825 2311.4916,859.8425 2311.1404,860.6885"
       id="path3312" />
    <path
       d="M 2313.6384,858.6685 C 2314.7977,857.9675 2315.6181,856.4725 2315.5733,855.0675 C 2315.4566,856.4775 2314.2558,857.5035 2313.6384,858.6685"
       id="path3318" />
    <path
       d="M 2267.6466,861.9785 C 2268.0276,861.9265 2268.3788,861.8065 2268.7030,861.6185 C 2268.4368,860.8685 2267.4750,860.7725 2267.4063,859.9545 C 2267.2458,859.6245 2267.0490,859.3165 2266.8156,859.0285 C 2266.8284,858.5215 2266.7621,858.0185 2266.6185,857.5185 C 2265.5299,857.9345 2265.4064,858.6575 2265.3932,859.7485 C 2265.3826,860.5585 2264.1606,861.0565 2264.6727,861.9095 C 2265.7207,861.6405 2266.5647,861.5425 2267.6466,861.9785"
       id="path3288" />
    <path
       d="M 2273.4061,858.0985 C 2273.0959,857.1295 2272.0113,857.1125 2271.8773,858.0985 C 2271.0575,857.1195 2270.0460,858.1375 2269.0774,857.8635 C 2268.6695,857.7485 2267.3130,856.2305 2267.0958,857.1295 C 2266.6846,858.8335 2269.2728,863.0265 2271.3534,862.5485 C 2272.5356,862.2765 2274.8408,860.6945 2275.1205,859.4355 C 2275.2418,858.8955 2276.0764,857.2185 2274.6044,856.9385 C 2273.5719,856.7405 2272.6283,856.8205 2273.4061,858.0985"
       id="path3290" />
    <path
       d="M 2402.9986,1110.5985 C 2403.2616,1110.3875 2403.3976,1110.1015 2403.4029,1109.7395 C 2402.7617,1109.7095 2402.6120,1110.0255 2402.9986,1110.5985"
       id="path3334" />
    <path
       d="M 2404.2297,1109.8085 C 2404.6266,1109.7395 2405.3105,1108.6395 2404.1865,1108.3045 C 2403.2225,1108.0175 2401.4182,1108.4025 2402.3507,1109.4495 C 2402.8407,1109.2075 2403.4667,1109.3275 2404.2297,1109.8085"
       id="path3336" />
    <path
       d="M 2320.6627,1071.6485 C 2321.3770,1071.4385 2321.7125,1070.8695 2322.1696,1070.4245 C 2322.9028,1069.7115 2323.6980,1070.1895 2324.8078,1070.1165 C 2325.7100,1070.0565 2325.9752,1069.0195 2324.5183,1068.8435 C 2324.3637,1068.8995 2324.2868,1069.0105 2324.2898,1069.1785 C 2323.9546,1069.5765 2322.6181,1068.8295 2322.0598,1068.8385 C 2323.1967,1067.0625 2315.7143,1068.5025 2315.3877,1068.6015 C 2314.6938,1068.8105 2312.9890,1070.0305 2314.7177,1071.0705 C 2316.9988,1072.4425 2318.3135,1070.0055 2320.6627,1071.6485"
       id="path3286" />
    <path
       d="M 2395.6736,1129.3195 C 2396.3114,1130.1035 2397.5612,1130.9965 2396.7460,1131.4095 C 2398.3541,1131.7095 2396.8762,1130.1895 2397.6721,1129.9125 C 2398.7218,1129.5465 2400.7046,1131.2475 2399.6633,1131.6995 C 2398.8134,1130.0955 2398.2010,1131.4315 2398.8784,1132.2205 C 2399.6793,1133.1505 2400.4285,1132.9955 2400.3798,1132.3395 C 2401.4843,1134.3605 2401.1934,1130.8745 2401.1553,1130.3995 C 2399.6244,1130.2725 2400.1682,1129.6275 2400.2881,1128.9555 C 2400.4351,1128.1285 2400.8272,1127.4325 2401.0658,1126.6265 C 2401.2971,1125.9675 2401.1661,1125.1335 2401.5827,1124.5705 C 2401.9386,1124.0885 2402.7909,1123.5415 2402.4375,1122.7005 C 2403.3004,1123.4515 2403.6012,1124.3135 2403.4272,1124.9295 C 2404.3658,1124.5145 2403.7873,1123.1995 2403.6518,1122.2595 C 2403.4601,1120.9235 2403.7932,1119.7575 2403.8447,1118.5165 C 2403.9132,1116.8495 2405.2113,1113.9975 2402.1863,1112.3445 C 2400.6602,1111.5105 2401.4559,1113.2685 2400.2651,1113.0805 C 2398.6710,1112.8295 2398.4196,1113.4415 2397.5632,1114.0025 C 2397.1661,1114.2635 2390.5620,1113.4055 2393.5172,1115.4995 C 2392.8105,1115.7615 2392.3982,1115.5185 2392.2765,1114.7695 C 2390.1704,1114.6655 2389.2259,1116.2565 2386.4426,1114.8575 C 2385.4568,1114.3615 2381.1024,1112.8575 2381.0121,1112.0405 C 2380.1338,1112.5415 2377.9023,1112.5115 2376.5898,1111.1005 C 2375.6378,1113.1055 2376.2175,1115.1415 2376.8365,1117.7205 C 2377.3266,1119.7665 2381.4457,1122.9105 2380.0428,1124.4205 C 2380.2195,1124.2575 2380.4209,1124.1135 2380.6462,1123.9905 C 2381.2026,1125.0275 2382.6621,1126.2565 2381.8270,1126.9395 C 2381.6299,1126.1765 2380.9375,1125.3975 2380.0229,1124.7805 C 2378.8057,1127.2175 2382.8504,1130.6965 2384.7562,1133.5705 C 2385.2666,1133.1255 2386.5697,1133.8655 2387.2678,1133.6395 C 2388.5114,1134.7145 2387.2654,1134.9885 2386.1030,1134.2195 C 2386.1566,1134.7145 2386.2325,1135.2175 2386.3335,1135.7295 C 2387.3427,1135.5355 2389.9632,1136.2975 2390.2564,1135.4395 C 2392.4574,1138.2665 2393.4063,1135.3345 2393.6915,1134.8705 C 2394.1331,1134.1485 2394.0636,1133.7905 2393.5834,1132.8335 C 2393.2004,1132.0685 2394.6625,1132.7405 2394.9026,1133.4205 C 2396.6118,1133.5925 2396.5797,1130.5595 2395.6736,1129.3195"
       id="path3300" />
    <path
       d="M 2370.1848,1105.4885 C 2370.1710,1105.8405 2370.1798,1106.1995 2370.2130,1106.5685 C 2371.9500,1106.4705 2372.7147,1104.2675 2371.7046,1102.5835 C 2370.8630,1101.1815 2370.4577,1102.6825 2370.3461,1102.8285 C 2369.9027,1103.4115 2369.5068,1104.4745 2370.1848,1105.4885"
       id="path3306" />
    <path
       d="M 2400.8913,1105.4885 C 2401.1073,1105.9335 2401.7459,1107.7475 2402.6728,1107.7735 C 2404.5586,1107.8295 2403.4650,1106.0675 2403.9126,1105.1985 C 2402.7438,1105.0365 2402.0022,1103.8985 2400.9670,1103.3285 C 2400.3852,1103.8095 2400.7777,1104.6965 2400.8913,1105.4885"
       id="path3338" />
    <path
       d="M 2151.1712,1050.7685 C 2153.2136,1050.7555 2154.5767,1048.6315 2154.8384,1047.0185 C 2155.1394,1045.1815 2153.0442,1042.4795 2154.5709,1041.1185 C 2154.2184,1041.4805 2154.1714,1042.0505 2154.5048,1042.6295 C 2154.3171,1042.0435 2154.5726,1041.7665 2155.2295,1041.9095 C 2154.1570,1040.3175 2154.9722,1038.8885 2155.0436,1037.5765 C 2155.1967,1034.7175 2153.8280,1032.3305 2152.2908,1029.4105 C 2150.8664,1026.7025 2148.8517,1023.7225 2148.8932,1020.9715 C 2148.9317,1018.3565 2149.2442,1014.7205 2148.0635,1012.0235 C 2147.5745,1010.9055 2146.6611,1009.9015 2146.3134,1008.7595 C 2145.9516,1007.5695 2145.7034,1006.5225 2144.9248,1005.3925 C 2144.1790,1004.3095 2142.8760,1003.3395 2142.5258,1002.1445 C 2142.1559,1000.7725 2142.5502,999.4695 2142.3099,998.0995 C 2141.8457,995.4495 2140.3662,992.6665 2138.4045,990.4535 C 2137.5782,989.5205 2136.6160,988.5305 2136.1442,987.4185 C 2135.7112,986.3985 2136.5085,985.8985 2136.2205,984.9585 C 2136.6173,985.6835 2136.5372,986.4095 2136.5355,987.1175 C 2136.9851,986.5115 2137.0270,985.6955 2136.8750,984.8885 C 2136.9485,985.8985 2137.7779,986.8245 2137.8060,987.8385 C 2137.7423,985.8755 2138.2829,988.9575 2138.2897,989.3485 C 2138.9671,987.7155 2138.7780,989.3975 2139.0336,990.0685 C 2140.7758,989.0415 2141.4926,988.1265 2139.4496,986.2795 C 2138.0538,985.0165 2136.5714,981.9435 2137.7197,980.6385 C 2138.5174,981.2185 2139.1955,982.1925 2139.5829,983.0275 C 2140.1106,984.1645 2139.2491,984.9365 2139.5693,986.0395 C 2140.5209,986.0925 2140.8142,985.2335 2140.7798,984.4595 C 2141.1868,985.6035 2141.0745,986.8895 2141.9525,987.9425 C 2142.4413,988.5265 2143.2550,987.5715 2143.3213,987.2815 C 2143.7623,985.3695 2144.0914,983.6555 2142.6195,981.7315 C 2141.3683,980.0915 2141.0576,978.1945 2139.6231,976.7015 C 2139.0763,976.1325 2139.2110,975.6585 2139.0793,975.0185 C 2138.7937,973.6255 2137.8195,972.3795 2137.3529,971.0185 C 2136.6222,968.8815 2137.4173,966.4185 2138.2862,964.7195 C 2139.2991,962.7355 2140.0037,961.2785 2140.0231,958.8185 C 2140.0312,957.6855 2139.0361,956.8245 2138.8746,955.7335 C 2138.7044,954.5835 2139.5846,953.6525 2139.9254,952.6765 C 2140.4272,951.2375 2140.7200,948.7865 2142.4013,948.2395 C 2142.7357,949.1205 2142.4461,949.9335 2142.2484,950.7255 C 2141.9696,951.8395 2142.4477,953.0745 2142.3306,954.2185 C 2144.6149,953.4065 2144.4719,952.1805 2145.3467,950.2585 C 2146.2453,948.2765 2148.1046,947.4105 2150.1449,946.7405 C 2153.0260,945.7955 2154.8718,943.7615 2157.0023,941.8335 C 2157.5564,941.3315 2158.1000,940.0245 2158.8810,939.9235 C 2160.6288,939.6985 2161.9180,939.0145 2162.9076,937.6475 C 2162.8883,939.6265 2164.7911,937.8815 2165.6242,937.9905 C 2166.4136,938.0935 2166.8533,938.8785 2167.7290,938.8785 C 2168.8472,938.8785 2169.8468,938.4995 2170.7137,937.9485 C 2172.5918,936.7555 2173.3725,935.4035 2175.9150,935.4085 C 2176.9554,935.4105 2178.0788,935.3895 2178.8142,934.6975 C 2179.6471,933.9135 2179.7750,932.4935 2181.2493,932.4935 C 2183.4912,932.4935 2184.9277,932.8615 2187.0648,932.2815 C 2189.5366,931.6105 2191.7837,931.0125 2193.9400,929.7625 C 2195.6774,928.7555 2202.0149,924.5925 2200.0844,921.4575 C 2200.8954,921.5385 2201.0480,921.1375 2201.1395,920.4795 C 2201.2841,919.4575 2202.1862,919.1065 2202.9495,918.5815 C 2204.0622,917.8155 2206.6292,916.6085 2205.0880,915.0795 C 2203.7753,913.7775 2203.8510,910.1105 2204.3546,908.7655 C 2204.6424,907.9975 2206.1499,905.1155 2207.4601,906.4085 C 2206.5618,905.0685 2207.6102,905.2185 2208.4135,904.7605 C 2209.3990,904.1995 2209.1113,902.1255 2210.4780,901.4375 C 2211.2143,902.2455 2209.5738,904.0935 2211.5420,904.0275 C 2210.4552,905.9285 2214.8551,909.6855 2214.9665,911.7385 C 2215.8530,910.2945 2214.5117,907.9635 2215.2206,906.5485 C 2216.1159,906.9575 2216.5948,907.8465 2217.2805,908.4985 C 2216.9699,907.2325 2216.6312,906.3205 2217.7554,905.5385 C 2216.8253,905.8695 2214.4687,903.9335 2215.1696,903.0175 C 2214.5902,902.9965 2214.2151,902.6595 2214.1522,902.0875 C 2215.3537,902.9205 2214.5010,901.8925 2215.4306,901.7155 C 2216.5477,901.5025 2215.1096,900.2345 2214.8087,899.7775 C 2215.7148,899.1535 2217.6859,899.8965 2216.1836,900.2175 C 2216.7953,900.4255 2217.2438,900.8935 2217.0455,901.5075 C 2217.6893,901.3295 2217.6512,900.3865 2218.3150,900.3225 C 2219.1851,900.2385 2219.3067,900.8325 2219.9277,901.2765 C 2220.7051,901.8315 2220.9623,900.8325 2221.7639,901.2595 C 2222.6630,901.7385 2223.5139,901.1335 2224.4248,901.6475 C 2223.5859,900.7855 2223.0009,901.2355 2222.0531,900.9275 C 2220.7364,900.5005 2221.5157,899.5915 2221.4755,898.6975 C 2221.6777,898.9445 2221.8879,899.1845 2222.1063,899.4185 C 2223.0364,898.7165 2222.3246,897.1635 2223.4804,896.6175 C 2222.8193,896.3845 2222.4353,896.7665 2222.3525,897.3385 C 2221.3064,896.4025 2220.3619,894.4315 2221.7622,893.7295 C 2222.4033,893.4085 2224.4198,892.7655 2223.1329,891.7185 C 2223.9351,891.7565 2224.6097,892.3165 2225.2905,892.7385 C 2225.5245,893.0195 2225.7527,893.3025 2225.9795,893.5895 C 2226.3823,893.6935 2226.7849,893.7905 2227.1883,893.8795 C 2225.9545,893.2185 2226.5914,891.9465 2224.9155,891.9295 C 2225.1349,891.4125 2225.5118,891.0535 2226.0458,890.8495 C 2225.5129,890.9595 2225.0665,891.1995 2224.7064,891.5695 C 2224.4901,890.6025 2226.5700,888.7325 2226.6930,890.3495 C 2226.5091,888.7055 2227.9835,890.7815 2228.9808,890.5695 C 2228.4859,889.8915 2227.5088,889.1775 2227.9752,888.3405 C 2225.7656,888.2245 2228.0337,886.2985 2228.0585,885.5295 C 2229.0049,886.4065 2229.1204,884.8965 2230.0903,885.4605 C 2230.2319,884.6335 2230.0720,883.7725 2230.0868,882.9305 C 2231.1976,883.1535 2230.9787,885.1335 2230.4373,886.0305 C 2231.6197,884.4935 2231.0192,884.3855 2232.4223,886.1805 C 2232.3635,885.4025 2233.2210,885.4265 2233.2774,884.7405 C 2233.3124,884.3195 2233.5083,883.2185 2233.6392,882.8605 C 2233.8508,882.2805 2234.9047,882.3225 2234.2126,881.4605 C 2233.9885,881.2815 2233.7533,881.2355 2233.5063,881.3255 C 2233.2488,881.3405 2232.3574,879.9285 2233.8617,880.9915 C 2233.4487,880.1165 2234.9620,879.4565 2234.1382,880.8505 C 2235.5793,879.3955 2233.9778,882.7595 2235.8251,882.2905 C 2235.3376,881.4105 2236.1118,880.6445 2236.9473,880.6305 C 2236.5378,881.2765 2237.1268,881.8695 2237.5781,882.3595 C 2238.1831,881.5875 2239.5840,881.2775 2239.8823,880.2695 C 2240.1172,879.4755 2238.7894,879.1155 2240.1888,878.5145 C 2240.9817,878.1745 2241.6112,880.2545 2242.9264,880.2905 C 2244.0505,880.3215 2244.2409,880.8815 2245.1093,881.6885 C 2246.2119,882.7145 2246.9047,884.0605 2247.9941,885.0985 C 2248.6461,885.7205 2249.6319,886.4825 2249.7065,887.4255 C 2249.7885,888.4695 2249.3065,889.4125 2249.3000,890.4535 C 2249.2942,891.4255 2249.5231,892.8725 2248.8323,893.5885 C 2249.6780,893.1385 2248.8671,892.0355 2249.4398,891.5675 C 2250.2100,890.9375 2250.7014,892.3145 2250.8955,892.8675 C 2251.1456,891.8645 2249.7357,890.8975 2250.0472,889.9185 C 2250.4300,888.7165 2251.2742,890.0035 2252.1102,889.6285 C 2250.6770,886.1665 2257.7886,887.3885 2257.6031,890.7775 C 2258.7022,890.3345 2258.0046,888.9685 2257.8770,888.0485 C 2259.5255,888.1865 2260.5738,891.3835 2261.8740,891.0685 C 2261.4397,890.3115 2260.3931,888.9095 2261.2307,888.2345 C 2261.8172,887.7615 2262.7728,888.1515 2263.3157,887.5395 C 2262.0730,887.7095 2261.2410,887.3275 2260.6154,886.0995 C 2261.1802,886.0695 2261.6665,885.8785 2262.0727,885.5295 C 2260.9865,885.8725 2258.3666,884.9905 2259.1086,883.4635 C 2259.4102,882.8405 2259.4767,881.9075 2259.9877,881.4205 C 2260.4378,880.9915 2261.5949,881.2865 2261.7788,880.5655 C 2262.0742,879.3945 2262.1109,877.9355 2262.5763,876.8495 C 2263.0067,875.8445 2263.5808,876.9735 2264.2293,876.4015 C 2264.6494,876.0305 2265.6627,874.7055 2266.3631,875.0905 C 2265.6890,874.4675 2264.8131,873.3355 2264.8811,872.4235 C 2264.9946,870.8795 2265.7663,872.1115 2266.3238,871.0035 C 2266.6959,870.2645 2266.4210,869.5215 2267.2458,869.0095 C 2267.8398,868.6415 2268.3870,869.7095 2269.1143,869.5405 C 2268.2867,869.2275 2267.7791,867.0535 2268.6412,866.7405 C 2269.5524,866.4095 2270.4661,868.6155 2271.3543,868.8195 C 2270.3552,868.1385 2269.9104,865.6495 2271.7176,866.4495 C 2271.8568,865.8405 2271.3225,865.1045 2272.0589,864.7955 C 2272.8125,864.4795 2273.2345,865.6335 2273.5826,864.4305 C 2275.1128,867.1975 2282.0514,864.3315 2282.3968,866.0105 C 2282.2498,864.8195 2283.3995,863.9585 2284.5485,864.6505 C 2283.2820,863.4665 2284.3737,861.6785 2283.9487,860.3315 C 2283.3012,858.2745 2281.3355,858.5655 2279.8730,859.2515 C 2279.8349,858.2715 2278.5611,857.8295 2277.9698,857.3795 C 2277.5869,857.0875 2279.0722,856.1275 2279.1531,855.8605 C 2279.9164,856.4165 2280.1394,857.2885 2280.4298,858.1005 C 2280.8263,857.4175 2280.8444,856.5915 2280.3799,855.8605 C 2280.8747,856.6995 2281.4283,856.7635 2281.8340,855.9305 C 2282.1788,857.0145 2283.9574,858.2555 2284.6520,859.2505 C 2285.0576,858.6655 2286.4545,858.6035 2285.9583,857.5905 C 2286.9343,858.2285 2287.5549,861.0085 2288.6448,860.9995 C 2289.6098,860.9905 2290.9168,860.8745 2290.9022,861.9795 C 2291.9884,862.0205 2292.6545,860.6795 2293.7891,861.0495 C 2292.0460,862.4435 2296.2273,862.1335 2295.8614,864.0695 C 2296.4152,862.7675 2296.6964,863.7035 2297.7072,863.8885 C 2298.8559,864.0975 2299.3645,863.2195 2300.3774,863.0595 C 2300.9175,865.3505 2303.0975,865.0285 2304.6634,865.5095 C 2303.2905,863.6975 2308.4154,864.5815 2306.6054,863.0595 C 2307.5126,862.8265 2308.9440,862.5865 2308.8142,861.3395 C 2309.5670,862.2615 2308.3576,862.8815 2307.7907,863.2785 C 2309.1694,863.2785 2308.1589,863.7345 2307.7230,864.3045 C 2307.3061,864.8505 2307.2069,865.4255 2307.7043,866.0885 C 2308.1191,865.3865 2308.6657,864.5795 2309.6214,864.5675 C 2308.7835,865.5825 2309.9074,865.0085 2310.0125,866.1685 C 2310.0449,866.5285 2310.1686,867.0735 2310.6184,867.1935 C 2311.5620,867.4475 2312.3216,866.1665 2312.5561,865.5075 C 2309.9448,865.4655 2313.7877,862.8915 2314.2058,862.4175 C 2313.0304,863.0735 2314.3177,865.3865 2315.4120,865.7275 C 2314.6093,864.5485 2316.0630,864.7455 2316.4906,865.2455 C 2316.8542,865.6685 2316.6555,866.3285 2316.5133,866.7315 C 2316.0136,868.1455 2314.9083,870.1115 2313.4922,870.6975 C 2314.0129,871.1275 2314.4370,871.6305 2314.7676,872.2085 C 2314.4887,872.0235 2314.2017,871.8535 2313.9083,871.6975 C 2313.7891,872.8165 2313.8358,873.8355 2312.7166,874.3675 C 2312.6409,873.8865 2312.6057,873.4065 2312.6090,872.9285 C 2312.1018,873.2595 2311.6695,873.6665 2311.3099,874.1485 C 2311.0065,872.4195 2310.1449,874.0995 2310.2226,874.7285 C 2309.8125,873.1695 2308.4172,875.0445 2309.5064,875.9485 C 2307.2816,875.5375 2309.3464,879.6555 2310.2944,877.6785 C 2309.4926,879.9085 2308.6879,881.9075 2307.4930,883.9215 C 2306.9850,884.7795 2306.4742,885.6735 2305.7945,886.3935 C 2305.0437,887.2205 2304.4941,886.9055 2305.4926,888.3565 C 2306.8491,890.3265 2309.2955,891.0125 2310.9047,892.7145 C 2311.8477,893.7105 2312.5072,894.6325 2313.7255,895.3175 C 2314.5795,895.7975 2315.4354,896.4025 2315.2832,897.4095 C 2316.0597,897.0925 2317.0290,897.7655 2317.4452,896.8295 C 2318.4615,898.0645 2319.9489,898.6675 2321.3197,899.3465 C 2323.0727,900.2165 2324.0196,901.4395 2325.3599,902.8115 C 2327.6764,905.1805 2330.2865,904.3375 2332.9110,905.9915 C 2334.3111,906.8735 2333.6945,908.6785 2334.9843,909.5745 C 2335.6910,910.0655 2336.5105,910.0255 2337.2059,910.6125 C 2337.9351,911.2265 2338.7491,911.6285 2339.5521,912.1245 C 2342.0063,913.6385 2346.4270,912.1835 2347.2570,909.8985 C 2348.4920,906.6205 2350.2598,903.3725 2350.9610,899.8455 C 2351.3645,897.8195 2351.5625,895.7285 2351.9512,893.6985 C 2352.3651,891.5395 2353.0065,889.9025 2352.4140,887.5255 C 2351.9771,885.6665 2351.9505,884.5495 2352.4075,882.8635 C 2352.8696,881.1565 2351.1076,879.6515 2351.7693,877.7805 C 2352.3059,876.2635 2353.6425,875.0525 2352.9453,873.2565 C 2352.1467,871.1965 2353.9029,871.0975 2354.0906,869.4005 C 2354.5827,869.8105 2354.8653,870.3135 2354.9406,870.9115 C 2354.8448,870.3345 2355.1550,869.8975 2355.6479,869.6905 C 2355.3531,869.6535 2353.6162,868.0115 2353.4232,867.6705 C 2353.2066,867.8805 2352.9958,868.0965 2352.7920,868.3195 C 2352.5212,867.5005 2352.9442,866.3935 2353.4200,865.8215 C 2353.5924,865.5745 2353.8366,865.4465 2354.1518,865.4395 C 2353.6457,864.6465 2354.0356,863.8705 2354.4563,863.2795 C 2354.6908,863.8395 2355.1352,864.1245 2355.7059,864.0005 C 2355.2498,860.9755 2356.8836,858.7035 2356.9804,855.7905 C 2357.0110,854.8465 2356.9516,854.2235 2357.9498,853.8065 C 2358.8888,853.4145 2359.1959,851.6995 2360.5120,852.5505 C 2360.1959,853.0245 2359.9298,853.5275 2359.7156,854.0605 C 2359.9551,853.8995 2360.2072,853.7555 2360.4701,853.6305 C 2360.8564,854.5455 2361.8129,854.9825 2361.7365,856.0155 C 2361.7003,856.4385 2361.7827,856.8505 2361.9838,857.2525 C 2362.3614,858.1915 2361.9083,858.1865 2361.9859,859.0245 C 2362.0683,859.9145 2361.9680,860.8305 2362.2038,861.7155 C 2362.5393,862.8635 2364.3166,862.7345 2365.1645,863.1395 C 2363.8560,864.2015 2363.5361,865.3135 2364.8362,866.5665 C 2366.2216,867.8995 2366.1657,869.0205 2366.0024,870.6995 C 2367.5750,870.3855 2367.6573,877.1535 2367.4183,877.9625 C 2367.1273,878.9455 2367.8220,879.6935 2368.2481,880.6075 C 2368.7481,881.6765 2368.3383,882.8165 2368.9635,883.8705 C 2370.0726,885.7375 2372.2895,884.5655 2372.3212,882.9315 C 2374.0310,884.7485 2374.1809,880.5875 2375.3688,884.5085 C 2375.6423,885.4135 2377.6669,886.5015 2378.4380,887.3545 C 2378.5350,887.4625 2380.9072,888.8215 2381.1028,888.8415 C 2380.7725,889.5855 2379.6547,891.0405 2381.2537,891.5705 C 2379.7061,893.9715 2382.6202,896.5935 2382.1721,899.1955 C 2381.8986,900.8055 2381.7214,901.6275 2382.8491,903.1005 C 2383.4194,903.8435 2384.9671,905.2575 2384.5870,906.1905 C 2384.9624,905.8175 2385.4341,905.6015 2386.0042,905.5415 C 2385.9033,907.0615 2385.7706,907.6735 2386.4772,909.2585 C 2387.0133,910.4405 2387.2518,911.6835 2387.3136,912.8855 C 2387.3844,914.2175 2386.8513,915.0795 2386.5595,916.2665 C 2386.2053,917.7025 2387.9210,918.0225 2388.0457,919.1715 C 2388.1434,920.0775 2389.2975,919.3895 2389.1257,920.5425 C 2388.9750,921.5455 2388.0406,922.3425 2388.9084,923.4885 C 2389.4192,924.1615 2390.9402,925.5975 2391.8185,925.5165 C 2392.6349,925.4415 2393.7730,927.4675 2394.3086,925.8505 C 2394.5974,927.7395 2397.7942,928.0415 2397.2148,926.7805 C 2397.9319,927.8445 2398.2260,930.7625 2399.7223,931.1805 C 2399.6340,930.6155 2399.9091,930.2745 2400.4773,930.2415 C 2400.3454,931.7325 2402.0560,931.8435 2403.1937,932.2275 C 2404.1279,932.5425 2403.4730,934.4025 2405.0748,933.8985 C 2405.4247,933.7885 2405.0080,933.1575 2405.3310,933.0155 C 2406.0117,932.7165 2406.1555,933.8635 2406.2937,934.1695 C 2406.5924,934.8265 2407.2821,934.4585 2407.7086,935.0555 C 2408.1932,935.7345 2408.3084,936.5385 2408.7817,937.2215 C 2408.2503,936.4715 2407.2022,936.3405 2406.9962,937.1795 C 2406.7348,938.2435 2408.3996,939.3925 2407.8733,940.3905 C 2411.5684,938.9905 2410.0687,945.9835 2412.7926,945.9305 C 2412.0647,946.9995 2412.4496,948.7245 2412.8408,950.0405 C 2413.1705,951.1455 2414.6535,953.0665 2413.9768,954.0705 C 2415.3070,953.4935 2415.5821,953.9185 2416.4827,955.1505 C 2416.8856,953.8735 2415.8116,952.4535 2416.5835,951.2605 C 2417.9981,952.3135 2418.9124,953.9075 2420.5169,954.7205 C 2420.6460,954.3195 2420.3075,953.5245 2420.5818,953.2105 C 2421.1000,952.6155 2421.6825,953.0725 2421.8890,953.7745 C 2422.4332,955.6425 2422.4682,956.8085 2422.3086,958.5585 C 2422.2309,959.5985 2422.8200,960.6585 2422.7750,961.7355 C 2422.6841,963.8995 2423.8231,962.5145 2424.8731,963.8605 C 2424.5270,963.3395 2424.4670,962.8595 2424.6953,962.4215 C 2426.4741,962.9335 2427.4417,966.7665 2425.0990,964.1505 C 2425.6001,965.2995 2430.0424,969.1105 2429.4759,967.1005 C 2431.5286,968.4215 2431.6641,970.3525 2433.0226,972.0705 C 2433.6635,972.8815 2434.6111,973.0545 2435.3405,973.7305 C 2436.1986,974.5265 2436.0441,975.4915 2436.4474,976.4045 C 2437.3243,978.3915 2439.1420,977.6345 2439.4381,979.5605 C 2439.5508,980.2875 2438.9796,980.7925 2439.0451,981.5085 C 2439.1339,982.4765 2440.2689,983.0375 2440.1494,984.1715 C 2440.3016,983.9145 2440.4762,983.6735 2440.6736,983.4505 C 2442.0678,984.3465 2440.6549,985.5685 2440.5945,986.4005 C 2440.4847,987.8875 2440.5424,989.6925 2440.7477,991.2555 C 2440.9044,992.4415 2441.5432,993.5005 2440.7384,994.2995 C 2439.8663,995.1655 2440.2054,995.9915 2441.3200,997.0655 C 2442.0769,997.7945 2442.5687,999.8215 2442.6407,1000.6905 C 2442.6884,1001.2725 2442.6207,1001.8805 2442.8275,1002.4855 C 2443.0766,1003.1455 2443.7441,1003.5435 2443.8440,1004.2575 C 2444.3212,1007.7095 2443.4668,1009.9145 2442.4678,1012.7625 C 2441.3887,1015.8255 2441.4692,1019.3415 2440.1198,1022.3225 C 2438.9790,1024.8335 2440.2692,1027.8385 2439.4398,1030.3345 C 2439.0355,1031.5465 2438.8516,1032.8995 2438.3590,1034.0605 C 2437.8701,1035.2095 2436.5268,1035.8205 2436.3388,1037.1475 C 2436.2184,1037.9995 2436.7192,1039.5725 2436.3360,1040.2605 C 2436.1068,1040.6705 2435.3627,1040.6365 2435.0349,1040.9635 C 2434.4285,1041.5645 2433.9747,1042.4615 2432.9226,1042.6305 C 2434.9627,1042.8085 2432.1348,1043.5265 2431.6987,1043.6785 C 2430.5447,1044.0785 2429.8775,1045.2475 2429.5000,1046.2635 C 2429.2341,1046.9835 2428.3383,1047.2745 2428.0411,1047.9815 C 2427.6286,1048.9655 2428.3446,1050.0235 2426.4258,1049.8315 C 2426.6052,1050.4775 2426.8852,1050.6945 2427.2639,1050.4805 C 2427.0656,1051.2545 2427.0531,1052.1395 2426.8454,1052.8975 C 2426.6826,1053.5005 2425.9169,1053.2995 2425.8013,1054.0155 C 2425.5648,1055.4845 2423.9713,1055.9595 2423.8899,1057.5265 C 2423.8480,1058.3195 2423.8706,1058.0665 2423.2544,1058.1955 C 2423.2346,1058.2005 2423.4614,1059.5935 2423.3482,1059.8255 C 2423.1524,1060.2275 2421.7916,1062.1025 2423.2841,1062.5705 C 2423.1805,1063.1415 2422.9958,1063.7945 2422.2881,1062.5705 C 2421.9686,1063.0265 2422.6505,1063.9885 2421.8819,1064.1025 C 2420.9291,1064.2445 2420.5461,1064.5255 2420.1955,1065.2795 C 2419.3302,1067.1735 2418.3622,1068.9935 2417.8007,1071.0015 C 2417.3183,1072.7195 2417.4323,1074.7815 2416.9362,1076.5145 C 2416.6523,1077.4995 2416.4671,1080.1725 2415.5448,1080.6515 C 2416.7772,1080.8815 2416.5914,1082.4605 2416.5215,1082.9095 C 2416.4543,1083.3215 2416.3480,1083.7325 2416.1370,1084.0675 C 2415.8097,1084.5885 2414.9366,1084.1385 2414.5017,1084.4215 C 2413.1620,1085.2935 2412.8378,1086.3715 2410.6991,1086.6245 C 2408.4264,1086.8935 2405.8725,1086.6725 2403.5704,1086.8905 C 2398.9111,1087.3285 2396.5259,1090.0935 2394.1626,1092.6155 C 2393.0796,1093.7665 2391.5546,1094.3385 2389.4728,1094.5065 C 2387.4378,1094.6705 2387.7690,1094.2895 2388.5595,1096.2025 C 2388.8079,1095.8265 2389.1892,1095.5635 2389.7037,1095.4125 C 2390.0288,1096.3845 2389.8797,1097.7125 2389.1338,1098.1415 C 2388.6904,1097.5025 2388.3212,1096.4705 2387.5109,1095.9265 C 2386.2527,1095.0805 2386.3720,1096.0155 2385.5164,1096.0615 C 2385.2856,1095.3295 2384.7387,1094.5675 2384.3854,1093.8225 C 2383.5071,1094.0235 2383.1159,1094.5335 2382.1916,1093.3145 C 2381.1908,1091.9945 2382.4152,1091.9635 2382.2160,1090.8825 C 2381.9296,1089.3295 2379.4943,1091.5865 2379.3929,1091.7415 C 2378.5795,1092.9765 2377.6657,1092.4905 2375.9800,1091.0915 C 2377.6821,1092.1705 2378.2456,1090.9535 2378.6712,1090.3015 C 2379.3674,1089.2345 2378.3014,1088.5405 2377.5489,1087.1315 C 2375.6841,1087.4525 2374.6831,1088.7735 2373.5231,1089.7215 C 2374.4550,1089.9585 2375.0351,1089.5685 2376.0640,1090.0815 C 2375.9252,1091.0155 2374.3012,1090.7505 2373.4936,1091.0915 C 2372.3324,1091.5815 2371.1559,1092.3825 2370.4796,1093.2795 C 2369.8000,1094.1785 2368.7902,1094.6405 2367.8034,1095.2855 C 2366.9857,1095.8185 2366.2226,1094.9305 2364.6935,1094.3695 C 2362.0496,1093.3995 2359.5051,1091.3185 2357.2545,1091.6315 C 2356.0000,1091.8055 2354.5421,1090.3635 2353.3006,1090.6125 C 2352.6066,1090.7515 2352.7358,1091.2715 2352.2565,1091.5535 C 2351.9032,1091.7615 2351.0900,1091.4955 2350.6379,1091.5915 C 2351.4023,1089.3645 2344.9164,1088.8025 2343.6117,1087.8325 C 2342.3643,1086.8595 2341.3540,1085.5645 2340.7688,1084.3835 C 2340.3978,1083.6365 2338.9597,1083.1665 2338.5057,1081.8345 C 2337.6999,1079.4805 2339.4777,1078.3835 2338.9680,1076.2615 C 2338.1494,1072.8645 2335.4231,1069.9715 2331.8947,1067.3315 C 2334.4064,1068.5465 2336.4899,1070.7595 2337.6823,1072.8705 C 2337.3197,1071.4435 2336.2255,1070.2265 2334.7798,1069.0615 C 2333.8238,1068.2895 2331.9437,1066.7675 2333.9046,1066.9005 C 2334.1101,1067.4055 2334.3043,1067.9085 2334.4889,1068.4115 C 2335.3460,1068.2535 2334.9546,1067.7585 2334.6858,1067.0655 C 2334.4013,1066.2315 2335.9654,1066.4395 2335.1690,1065.6005 C 2334.2688,1064.6515 2331.4907,1065.7665 2332.7580,1066.9005 C 2332.3254,1066.7925 2329.6385,1066.5185 2332.1299,1067.1805 C 2330.2123,1067.0065 2327.9262,1069.3135 2325.5998,1067.7605 C 2325.8961,1066.7375 2327.0902,1066.1875 2327.9355,1065.5595 C 2328.6953,1064.9955 2328.7832,1063.7825 2328.8776,1062.8385 C 2329.1270,1060.3325 2327.7551,1057.5995 2325.9336,1054.8695 C 2325.4187,1055.2675 2325.6988,1055.9905 2325.3825,1056.4965 C 2325.0308,1057.0605 2324.5593,1057.5465 2324.3342,1058.1945 C 2323.8754,1059.5215 2323.5972,1060.9925 2323.2911,1062.3965 C 2322.9557,1063.9375 2322.6057,1063.6565 2320.8030,1063.4965 C 2319.0936,1063.3455 2318.0499,1064.9415 2316.2104,1064.8805 C 2316.0854,1063.9315 2316.7082,1062.8535 2317.2065,1062.2205 C 2318.0432,1061.1535 2320.3130,1062.5425 2321.0921,1061.4255 C 2322.4487,1059.4775 2320.8238,1056.0185 2321.9291,1053.8545 C 2322.5408,1052.6535 2322.8601,1051.8335 2324.0000,1051.0235 C 2325.3359,1050.0745 2324.1887,1048.9245 2324.0838,1047.4135 C 2324.0233,1046.5625 2324.9515,1046.4225 2325.4229,1045.9515 C 2325.5746,1045.8015 2324.8956,1044.6615 2324.8088,1044.4705 C 2324.5802,1043.9715 2324.4426,1041.6415 2323.4909,1041.2975 C 2323.1008,1041.1565 2323.6359,1043.5135 2323.6113,1043.7445 C 2323.4795,1044.9685 2321.8363,1045.7575 2321.2881,1046.7985 C 2320.7516,1047.8165 2320.3579,1048.9205 2319.7614,1049.9015 C 2319.5033,1050.3255 2319.3588,1051.0135 2318.8035,1051.2015 C 2318.3229,1051.3625 2317.6128,1050.9065 2317.1497,1051.0615 C 2316.2890,1051.3525 2315.7063,1052.5355 2314.7460,1052.9265 C 2313.3496,1053.4965 2312.6342,1054.7325 2311.9485,1055.8975 C 2311.6971,1056.3245 2310.9490,1058.3685 2310.3328,1058.2565 C 2308.5826,1057.9395 2309.2411,1060.1755 2308.6072,1060.8515 C 2309.0495,1060.6425 2309.5037,1060.4495 2309.9717,1060.2715 C 2309.5849,1060.9175 2309.9020,1061.8815 2309.4663,1062.5015 C 2308.3266,1061.0245 2307.3051,1061.9965 2306.1805,1060.8175 C 2305.3833,1059.9825 2304.1283,1058.1395 2303.0565,1058.9005 C 2303.1745,1058.3425 2303.4378,1057.8505 2303.8247,1057.4615 C 2304.0384,1058.4125 2305.6362,1059.2035 2305.2920,1057.9175 C 2304.8951,1056.4405 2304.6718,1054.9645 2304.0355,1053.4625 C 2303.4399,1052.0565 2301.0324,1051.1615 2301.0570,1049.6955 C 2301.0664,1049.1195 2301.2221,1048.5085 2300.6127,1047.8755 C 2300.1289,1047.3745 2299.6755,1047.0845 2299.8734,1046.5215 C 2299.3890,1047.0995 2298.5587,1046.3935 2297.8373,1046.5955 C 2296.8069,1046.8845 2296.9719,1046.1145 2296.5587,1045.6515 C 2296.3476,1045.4135 2295.2417,1044.1605 2295.3284,1043.9555 C 2295.4473,1043.6735 2296.0774,1041.5605 2296.3636,1043.3515 C 2296.8780,1042.8575 2297.1526,1041.7635 2296.2034,1040.9345 C 2295.0947,1039.9655 2294.2838,1040.7945 2293.4861,1040.9715 C 2293.4482,1040.4835 2293.9678,1039.8205 2293.7002,1039.2985 C 2293.3470,1038.6075 2292.4201,1038.2495 2292.0498,1037.5215 C 2291.8636,1037.1575 2289.8207,1038.1855 2289.7295,1038.1755 C 2288.1044,1038.0005 2286.3749,1036.7215 2284.7543,1036.1355 C 2282.9465,1035.4825 2283.4897,1037.0735 2282.2247,1036.8735 C 2279.0074,1036.3625 2276.1664,1032.4095 2272.8587,1032.0765 C 2271.7490,1031.9645 2271.1728,1032.5595 2270.3591,1032.8815 C 2269.3677,1033.2725 2267.8759,1032.7935 2266.6921,1032.7835 C 2263.7142,1032.7585 2260.2806,1032.8945 2257.6197,1033.4985 C 2252.6908,1034.6175 2249.0932,1037.5665 2244.0308,1038.6125 C 2241.5922,1039.1155 2239.1889,1039.0255 2236.4491,1038.7935 C 2233.1098,1038.5105 2231.9011,1039.8025 2229.6673,1041.1305 C 2227.8377,1042.2165 2225.7810,1043.6565 2223.5831,1044.2765 C 2221.2250,1044.9405 2219.5453,1045.0925 2218.7189,1047.3165 C 2218.0882,1049.0165 2217.4364,1050.6365 2216.1554,1051.9215 C 2215.9251,1052.1515 2214.9598,1053.3295 2214.4567,1053.1335 C 2213.0848,1052.5995 2212.8805,1053.6675 2211.7641,1053.8615 C 2211.8126,1052.0875 2206.3514,1052.7515 2205.6462,1053.0605 C 2204.4687,1053.5785 2204.5412,1054.3905 2203.2884,1052.6085 C 2203.2562,1052.5625 2199.3565,1052.3305 2198.8585,1052.2755 C 2196.6811,1052.0365 2194.4240,1052.6105 2192.5117,1052.9805 C 2191.0718,1053.2595 2189.6839,1053.1295 2188.2457,1053.3575 C 2186.4098,1053.6475 2182.3559,1054.5305 2183.8626,1057.1815 C 2183.3334,1056.9635 2182.2491,1057.7525 2181.8606,1058.0335 C 2181.2953,1058.4385 2180.2570,1057.5335 2179.5129,1057.6425 C 2178.7697,1057.7515 2178.4404,1058.4025 2178.0617,1058.8735 C 2177.6525,1059.3835 2177.1679,1059.5525 2176.5056,1059.8235 C 2175.5404,1060.2175 2175.5514,1060.8185 2174.9219,1061.4455 C 2174.0787,1062.2845 2172.5470,1062.6975 2171.0672,1062.6505 C 2173.2239,1063.4205 2169.1100,1063.0745 2168.3572,1063.0055 C 2165.7139,1062.7655 2163.2609,1062.9115 2160.5286,1062.4305 C 2160.5387,1062.1895 2160.5526,1061.9505 2160.5673,1061.7105 C 2158.4709,1062.0625 2156.8114,1060.2795 2155.3887,1058.8675 C 2154.2218,1057.7095 2151.3769,1055.3505 2150.3839,1056.8895 C 2148.5712,1055.5455 2148.0438,1049.2625 2151.1712,1050.7685"
       id="path3348" />
    <path
       d="M 2283.4980,860.9685 C 2283.3802,860.7315 2283.2635,860.4955 2283.1457,860.2585 C 2283.9987,860.3405 2284.0445,860.4285 2283.4980,860.9685"
       id="path3350" />
    <path
       d="M 2357.2016,852.7685 C 2357.8212,852.4235 2357.9562,851.8385 2357.2911,851.3295 C 2356.7295,851.6825 2356.6191,852.2625 2357.2016,852.7685"
       id="path3956" />
    <path
       d="M 2356.9590,847.7285 C 2357.2261,847.5085 2357.3672,847.2185 2357.3812,846.8585 C 2356.5717,846.7755 2356.4307,847.0655 2356.9590,847.7285"
       id="path3958" />
    <path
       d="M 2358.0329,848.3785 C 2358.2115,848.0485 2358.2727,847.6885 2358.2146,847.2985 C 2357.4735,847.4455 2357.4391,847.8565 2358.0329,848.3785"
       id="path3960" />
  </g>
  
  
  
  
  
  
  
  
  
  
  
  
  
  
  
  
  
  
  
  
  
  
  
  
  
  
  
  
  
  
  
  
  
  
  
  
  
  
  
  
  
  
  
  
  
  
  
  
  
  
  
  
  
  
  
  
  
  
  
  
  
  
  
  
  
  
  
  
  
  
  
  
  
  
  
  
  
  
  
  
  
  
  
  
  
  
  
  
  
  
  
  
  
  
  
  
  
  
  
  
  
  
  
  
  
  
  
  
  
  
  
  
  
  
  
  
  
  
  
  
  
  
  
  
  
  
  
  
  
  
  
  
  
  
  
  
  
  
  
  
  
  
  
  
  
  
  
  
  
  
  
  
  
  
  
  
  
  
  
  
  
  
  
  
  
  
  
  
  
  
  
  
  
  
  
  
  
  
  
</svg>
