<?xml version="1.0" encoding="UTF-8" standalone="no"?>
<svg
   xmlns:dc="http://purl.org/dc/elements/1.1/"
   xmlns:cc="http://web.resource.org/cc/"
   xmlns:rdf="http://www.w3.org/1999/02/22-rdf-syntax-ns#"
   xmlns:svg="http://www.w3.org/2000/svg"
   xmlns="http://www.w3.org/2000/svg"
   xmlns:sodipodi="http://sodipodi.sourceforge.net/DTD/sodipodi-0.dtd"
   xmlns:inkscape="http://www.inkscape.org/namespaces/inkscape"
   viewBox="0 0 2752.766 1537.631"
   version="1.0"
   height="476.7276"
   width="939.74725"
   id="svg1926"
   sodipodi:version="0.32"
   inkscape:version="0.45.1"
   sodipodi:docname="BlankMap-World6.svg"
   sodipodi:docbase="/home/bennett/Desktop"
   inkscape:output_extension="org.inkscape.output.svg.inkscape">
  <sodipodi:namedview
     inkscape:window-height="590"
     inkscape:window-width="822"
     inkscape:pageshadow="2"
     inkscape:pageopacity="0.0"
     guidetolerance="10.0"
     gridtolerance="10.0"
     objecttolerance="10.0"
     borderopacity="1.0"
     bordercolor="#666666"
     pagecolor="#ffffff"
     id="base"
     inkscape:zoom="0.77893284"
     inkscape:cx="469.87363"
     inkscape:cy="238.3638"
     inkscape:window-x="178"
     inkscape:window-y="46"
     inkscape:current-layer="svg1926" />
  <metadata
     id="metadata24111">
    <rdf:RDF>
      <cc:Work
         rdf:about="">
        <dc:format>image/svg+xml</dc:format>
        <dc:type
           rdf:resource="http://purl.org/dc/dcmitype/StillImage" />
        <cc:license
           rdf:resource="http://web.resource.org/cc/PublicDomain" />
        <dc:title>Blank World Map</dc:title>
      </cc:Work>
      <cc:License
         rdf:about="http://web.resource.org/cc/PublicDomain">
        <cc:permits
           rdf:resource="http://web.resource.org/cc/Reproduction" />
        <cc:permits
           rdf:resource="http://web.resource.org/cc/Distribution" />
        <cc:permits
           rdf:resource="http://web.resource.org/cc/DerivativeWorks" />
      </cc:License>
    </rdf:RDF>
  </metadata>
  <defs
     id="defs1930" />
  <style
     type="text/css"
     id="style_css_sheet">
/*
 * Below are Cascading Style Sheet (CSS) definitions in use in this file,
 * which allow easily changing how countries are displayed.
 *
 */

/*
 * Circles around small countries
 *
 * Change opacity to 1 to display all circles.
 *
 */
.circle
{
   opacity:0;
   fill:#b9b9b9;
   fill-opacity:1;
   stroke:black;
   stroke-width:0.99986893;
   stroke-miterlimit:3.97446823;
   stroke-dasharray:none;
   stroke-opacity:1;
}

/*
 * Land
 */
.land
{
   fill: #b9b9b9;
   fill-opacity: 1;
   stroke: #ffffff;
   stroke-opacity: 1;
   stroke-width: 0.99986997;
   stroke-miterlimit: 3.97446823;
   stroke-dasharray: none;
}

/*
 * Additional style rules
 *
 * The following are examples of colouring countries.  You can substitute these with your own styles to colour the countries on the map.
 *
 * Color a few countries:
 *
 * .gb, .au, .nc
 * {
 *    fill:       #ff0000;
 * }
 *
 * Color a few small country circles (and the countries):
 *
 * .ms, .ky
 * {
 *    opacity:    1;
 *    fill:       #ff0000;
 * }
 *
 */

/*
 * Antarctica
 */

.aq
{
   fill:#e6e6e6;
}

/*
 * Sea
 */

.ocean
{
   opacity: 1;
   color: #000000;
   fill:white;
   fill-opacity:1;
   fill-rule:nonzero;
   stroke:#000000;
   stroke-width:0.5;
   stroke-linecap:butt;
   stroke-linejoin:miter;
   marker:none;
   marker-start:none;
   marker-mid:none;
   marker-end:none;
   stroke-miterlimit:1;
   stroke-dasharray:none;
   stroke-dashoffset:0;
   stroke-opacity:1;
   visibility:visible;
   display:inline;
   overflow:visible;
}

.lake
{
   fill:#ffffff;
   fill-opacity:1;
   stroke:#ffffff;
   stroke-opacity:1;
   stroke-width:0.99986997;
   stroke-miterlimit:3.97446823;
   stroke-dasharray:none;
}
</style>
  
  
  
  
  
  
  
  
  
  
  
  
  
  
  
  
  
  
  
  
  
  
  
  
  
  
  
  
  
  
  
  
  
  
  
  
  
  
  
  
  
  
  
  
  
  
  
  
  
  
  
  
  
  
  
  
  
  
  
  
  
  
  
  
  
  
  
  
  
  
  
  
  
  
  
  
  
  
  
  
  
  
  
  
  
  
  
  
  
  
  
  
  
  
  
  
  
  
  
  
  
  
  
  
  
  
  
  <g
     class="land az"
     id="az">
    <path
       d="M 1614.4991,402.4775 C 1616.8619,400.7875 1618.4298,401.0645 1620.1769,402.6815 C 1621.3122,403.7095 1622.4199,403.0775 1623.7921,403.4445 C 1624.8681,403.7335 1625.1708,404.4405 1626.5272,403.9195 C 1629.0691,402.9445 1625.1167,401.5215 1624.6778,400.8365 C 1624.4027,400.4055 1623.3935,399.4845 1623.5025,398.9505 C 1623.5029,398.9485 1625.2852,397.5665 1625.3974,397.4885 C 1626.9170,396.4325 1629.0110,398.9705 1629.5470,399.6795 C 1629.9987,400.2775 1630.8706,400.0265 1631.0819,400.6375 C 1631.3778,401.4985 1631.7878,402.4405 1632.7649,402.7505 C 1633.6336,403.0255 1634.6187,403.2815 1635.5900,403.2615 C 1636.4683,403.2435 1636.9534,401.9715 1637.6482,401.4515 C 1638.0048,401.1845 1642.1244,397.9895 1641.8551,397.9065 C 1643.4436,398.4065 1644.3352,400.0475 1644.9992,401.3315 C 1645.9809,403.1715 1646.7984,404.8145 1648.1858,406.4385 C 1648.4340,406.5305 1648.6793,406.6265 1648.9228,406.7265 C 1648.9011,406.9905 1648.8826,407.2545 1648.8642,407.5185 C 1649.4875,408.2875 1650.2157,408.6465 1651.3398,408.7295 C 1653.7929,408.9115 1654.9667,409.5935 1655.5896,411.6945 C 1654.8954,410.5555 1652.4680,410.0665 1651.0490,410.8385 C 1649.0159,411.9455 1648.8180,412.7295 1648.1440,414.5825 C 1647.5397,416.2465 1647.6552,417.3635 1647.7760,418.8885 C 1647.8192,419.4315 1646.8563,419.9965 1646.6870,420.6405 C 1646.4303,421.6165 1646.7676,422.3685 1645.5436,422.1345 C 1647.0550,420.9825 1644.4926,420.3315 1644.5486,421.6475 C 1644.6296,423.4905 1643.7989,425.0875 1644.1870,427.0295 C 1643.6104,427.0445 1642.4978,427.6375 1642.0455,427.3085 C 1641.3934,426.8355 1641.0746,426.0865 1640.4088,425.5935 C 1639.9980,425.2885 1636.7374,423.7945 1637.7980,422.9885 C 1638.1789,422.7005 1639.8036,422.3685 1639.8267,421.8495 C 1639.8916,420.4355 1637.0732,419.9135 1640.1710,418.8935 C 1638.4923,416.6195 1637.6072,415.2995 1634.4452,417.2805 C 1633.0214,418.1735 1630.8551,418.9415 1630.0343,420.4175 C 1629.7959,420.8485 1628.9724,420.8275 1628.5873,420.9865 C 1627.8734,421.2835 1626.7072,422.7025 1626.2382,423.2865 C 1625.8305,422.7095 1625.4101,420.3455 1626.7990,420.1895 C 1626.4958,419.7735 1624.9084,419.0675 1625.3179,418.3665 C 1625.4955,418.0625 1626.3402,417.8605 1625.8982,417.4685 C 1625.5456,417.1555 1624.9271,417.0035 1624.4176,416.9785 C 1622.1441,416.8665 1620.9926,414.3815 1618.9974,413.6385 C 1619.9821,413.2885 1621.2307,413.6455 1621.8210,412.5475 C 1622.4178,411.4395 1621.0533,411.1695 1620.3240,410.8085 C 1619.1300,410.2205 1615.8226,407.6615 1618.9524,406.7985 C 1618.5092,405.0165 1616.2697,405.0005 1614.9707,403.9895 C 1616.9915,404.3865 1614.4892,402.9975 1614.4991,402.4775"
       id="path5796" />
    <path
       d="M 1612.7612,416.1565 C 1614.0519,415.9035 1616.2384,415.3485 1615.8055,417.2365 C 1616.8071,416.7375 1617.2631,417.9275 1618.3355,417.6325 C 1618.8791,417.4835 1620.4186,417.1475 1620.7394,417.6805 C 1621.4011,418.7795 1620.2587,418.9895 1621.7957,419.7535 C 1622.4312,420.0695 1622.9376,422.9045 1623.4745,423.5735 C 1621.0576,422.7435 1618.7846,422.6525 1616.8667,421.0105 C 1615.2686,419.6495 1613.3858,418.2065 1612.7612,416.1565"
       id="path5798" />
  </g>
  
  
  
  
  
  
  
  
  
  
  
  
  
  
  
  
  
  
  
  
  
  
  
  
  
  
  
  
  
  
  
  
  
  
  
  
  
  
  
  
  
  
  
  
  
  
  
  
  
  
  
  
  
  
  
  
  
  
  
  
  
  
  
  
  
  
  
  
  
  
  
  
  
  
  
  
  
  
  
  
  
  
  
  
  
  
  
  
  
  
  
  
  
  
  
  
  
  
  
  
  
  
  
  
  
  
  
  
  
  
  
  
  
  
  
  
  
  
  
  
  
  
  
  
</svg>
