<?xml version="1.0" encoding="UTF-8" standalone="no"?>
<svg
   xmlns:dc="http://purl.org/dc/elements/1.1/"
   xmlns:cc="http://web.resource.org/cc/"
   xmlns:rdf="http://www.w3.org/1999/02/22-rdf-syntax-ns#"
   xmlns:svg="http://www.w3.org/2000/svg"
   xmlns="http://www.w3.org/2000/svg"
   xmlns:sodipodi="http://sodipodi.sourceforge.net/DTD/sodipodi-0.dtd"
   xmlns:inkscape="http://www.inkscape.org/namespaces/inkscape"
   viewBox="0 0 2752.766 1537.631"
   version="1.0"
   height="476.7276"
   width="939.74725"
   id="svg1926"
   sodipodi:version="0.32"
   inkscape:version="0.45.1"
   sodipodi:docname="BlankMap-World6.svg"
   sodipodi:docbase="/home/bennett/Desktop"
   inkscape:output_extension="org.inkscape.output.svg.inkscape">
  <sodipodi:namedview
     inkscape:window-height="590"
     inkscape:window-width="822"
     inkscape:pageshadow="2"
     inkscape:pageopacity="0.0"
     guidetolerance="10.0"
     gridtolerance="10.0"
     objecttolerance="10.0"
     borderopacity="1.0"
     bordercolor="#666666"
     pagecolor="#ffffff"
     id="base"
     inkscape:zoom="0.77893284"
     inkscape:cx="469.87363"
     inkscape:cy="238.3638"
     inkscape:window-x="178"
     inkscape:window-y="46"
     inkscape:current-layer="svg1926" />
  <metadata
     id="metadata24111">
    <rdf:RDF>
      <cc:Work
         rdf:about="">
        <dc:format>image/svg+xml</dc:format>
        <dc:type
           rdf:resource="http://purl.org/dc/dcmitype/StillImage" />
        <cc:license
           rdf:resource="http://web.resource.org/cc/PublicDomain" />
        <dc:title>Blank World Map</dc:title>
      </cc:Work>
      <cc:License
         rdf:about="http://web.resource.org/cc/PublicDomain">
        <cc:permits
           rdf:resource="http://web.resource.org/cc/Reproduction" />
        <cc:permits
           rdf:resource="http://web.resource.org/cc/Distribution" />
        <cc:permits
           rdf:resource="http://web.resource.org/cc/DerivativeWorks" />
      </cc:License>
    </rdf:RDF>
  </metadata>
  <defs
     id="defs1930" />
  <style
     type="text/css"
     id="style_css_sheet">
/*
 * Below are Cascading Style Sheet (CSS) definitions in use in this file,
 * which allow easily changing how countries are displayed.
 *
 */

/*
 * Circles around small countries
 *
 * Change opacity to 1 to display all circles.
 *
 */
.circle
{
   opacity:0;
   fill:#b9b9b9;
   fill-opacity:1;
   stroke:black;
   stroke-width:0.99986893;
   stroke-miterlimit:3.97446823;
   stroke-dasharray:none;
   stroke-opacity:1;
}

/*
 * Land
 */
.land
{
   fill: #b9b9b9;
   fill-opacity: 1;
   stroke: #ffffff;
   stroke-opacity: 1;
   stroke-width: 0.99986997;
   stroke-miterlimit: 3.97446823;
   stroke-dasharray: none;
}

/*
 * Additional style rules
 *
 * The following are examples of colouring countries.  You can substitute these with your own styles to colour the countries on the map.
 *
 * Color a few countries:
 *
 * .gb, .au, .nc
 * {
 *    fill:       #ff0000;
 * }
 *
 * Color a few small country circles (and the countries):
 *
 * .ms, .ky
 * {
 *    opacity:    1;
 *    fill:       #ff0000;
 * }
 *
 */

/*
 * Antarctica
 */

.aq
{
   fill:#e6e6e6;
}

/*
 * Sea
 */

.ocean
{
   opacity: 1;
   color: #000000;
   fill:white;
   fill-opacity:1;
   fill-rule:nonzero;
   stroke:#000000;
   stroke-width:0.5;
   stroke-linecap:butt;
   stroke-linejoin:miter;
   marker:none;
   marker-start:none;
   marker-mid:none;
   marker-end:none;
   stroke-miterlimit:1;
   stroke-dasharray:none;
   stroke-dashoffset:0;
   stroke-opacity:1;
   visibility:visible;
   display:inline;
   overflow:visible;
}

.lake
{
   fill:#ffffff;
   fill-opacity:1;
   stroke:#ffffff;
   stroke-opacity:1;
   stroke-width:0.99986997;
   stroke-miterlimit:3.97446823;
   stroke-dasharray:none;
}
</style>
  
  
  
  
  
  
  
  
  
  
  
  
  
  
  
  
  
  
  
  
  
  
  
  
  
  
  
  
  
  
  
  
  <g
     class="land bd"
     id="bd">
    <path
       d="M 1962.3193,557.4215 C 1962.1033,557.3975 1961.8883,557.3735 1961.6723,557.3495 C 1962.0269,557.6435 1962.4404,557.8355 1962.9159,557.9255 C 1962.7163,557.7575 1962.5178,557.5895 1962.3193,557.4215"
       id="path3240" />
    <path
       d="M 1961.9713,562.1735 C 1961.9382,562.6215 1962.0878,562.9825 1962.4184,563.2535 C 1962.3913,562.6985 1963.4981,562.2425 1963.4983,562.3165 C 1963.5061,561.3475 1962.4957,561.6875 1961.9713,562.1735"
       id="path3242" />
    <path
       d="M 1962.9567,560.8775 C 1963.1348,561.0215 1963.3138,561.1655 1963.4918,561.3095 C 1963.3695,561.1025 1963.1914,560.9585 1962.9567,560.8775"
       id="path3244" />
    <path
       d="M 1962.6673,563.6135 C 1962.8670,564.3725 1963.5224,564.8565 1963.6517,565.6585 C 1963.7116,566.2025 1963.6526,566.7495 1963.4724,567.2995 C 1963.3544,567.7235 1962.3669,569.8985 1963.6361,568.3655 C 1963.3860,568.6415 1963.3308,568.9045 1963.4715,569.1545 C 1964.5675,569.6605 1965.1984,565.9405 1965.1327,565.4845 C 1964.9992,564.5655 1963.5731,563.7465 1963.6652,562.9105 C 1963.7514,562.1265 1962.6030,562.8055 1962.6673,563.6135"
       id="path3246" />
    <path
       d="M 1962.2487,568.7975 C 1962.4040,569.0835 1962.8355,568.3975 1962.4061,569.3015 C 1962.7903,568.9105 1962.9206,568.4785 1962.7958,568.0055 C 1962.6127,568.2695 1962.4317,568.5335 1962.2487,568.7975"
       id="path3248" />
    <path
       d="M 1963.3437,565.6295 C 1963.2607,565.9545 1963.2692,566.2675 1963.3688,566.5655 C 1963.4812,566.2355 1963.4735,565.9235 1963.3437,565.6295"
       id="path3250" />
    <path
       d="M 1966.2646,568.5095 C 1968.1033,567.6445 1967.2196,565.8845 1966.6321,564.7655 C 1966.7848,565.9755 1966.5823,567.2775 1966.2646,568.5095"
       id="path3252" />
    <path
       d="M 1970.0348,566.2055 C 1970.8718,565.4735 1969.8574,564.3925 1969.3891,563.9735 C 1969.0322,564.8525 1969.3945,565.6925 1970.0348,566.2055"
       id="path3254" />
    <path
       d="M 1972.7591,569.9495 C 1972.5090,570.4435 1972.4159,570.9475 1972.4787,571.4615 C 1972.6905,570.9635 1972.7836,570.4595 1972.7591,569.9495"
       id="path3256" />
    <path
       d="M 1972.8240,573.7655 C 1974.1118,573.3195 1973.4125,571.8285 1972.6106,571.5345 C 1972.6761,572.2795 1972.6604,573.0435 1972.8240,573.7655"
       id="path3258" />
    <path
       d="M 1945.4374,530.3495 C 1945.5109,530.0265 1945.6314,529.7145 1945.7967,529.4135 C 1946.5547,530.0025 1947.9144,530.3825 1948.1915,531.3995 C 1948.4401,532.3185 1950.0185,532.2855 1950.7687,532.5815 C 1950.6375,531.9925 1950.3621,531.4885 1949.9435,531.0695 C 1951.2185,530.8475 1951.3141,531.9455 1951.6367,532.7885 C 1952.1188,534.0485 1953.7934,534.3245 1954.8786,534.9575 C 1955.2151,534.3515 1955.4780,533.7705 1955.2099,533.1565 C 1957.5286,532.9685 1957.4147,537.3415 1957.2987,538.6985 C 1957.2215,539.5955 1956.8491,540.3995 1957.8645,540.7535 C 1959.3869,541.2835 1961.2406,541.7245 1962.9332,541.7245 C 1966.5137,541.7245 1970.2065,541.4095 1973.7558,541.7455 C 1975.3975,541.9005 1979.6116,544.6795 1975.6469,544.3165 C 1976.5144,546.5365 1973.4586,548.5465 1972.9694,550.3655 C 1972.3523,549.7535 1971.4679,550.9065 1971.0827,550.1485 C 1971.0466,551.3465 1969.7138,551.1115 1968.9641,551.0125 C 1969.1355,551.9975 1967.6976,553.6515 1967.4691,554.7245 C 1967.1485,556.2315 1968.3722,558.4335 1968.7867,559.7965 C 1968.9931,559.3215 1969.0825,558.8415 1969.0547,558.3565 C 1969.7483,558.6765 1970.4844,562.3985 1972.1415,560.2125 C 1972.7586,559.3975 1971.9490,558.0245 1972.5631,556.9875 C 1973.1680,555.9665 1973.4525,555.7685 1973.2592,554.6125 C 1974.1436,555.4765 1975.4964,553.2985 1975.9384,554.8395 C 1976.4626,556.6645 1976.5651,558.7855 1976.8627,560.6855 C 1977.2464,563.1335 1977.7961,565.4705 1978.0831,567.9555 C 1978.3596,570.3495 1978.1389,572.9945 1978.7910,575.2775 C 1977.8899,575.5335 1977.0512,574.0305 1976.0200,574.1935 C 1974.4724,574.4375 1975.9473,578.8105 1975.8405,579.6695 C 1975.2888,578.5895 1974.2148,577.2725 1974.0068,576.0585 C 1973.7858,574.7735 1973.8401,574.0135 1973.8435,572.7575 C 1973.8455,570.4345 1970.9325,567.9515 1973.0816,565.5575 C 1972.5603,565.9255 1972.1739,566.6365 1972.1066,567.2135 C 1971.7065,565.2345 1969.3408,563.6095 1969.8195,561.3815 C 1969.6250,562.3065 1968.5159,562.6555 1967.8996,563.2705 C 1967.6550,563.4945 1967.5594,563.7525 1967.6124,564.0455 C 1966.9422,564.2555 1966.3968,563.9495 1966.1550,563.3975 C 1966.2809,563.6595 1966.2579,563.9105 1966.0850,564.1505 C 1964.9609,564.7415 1963.8394,560.9965 1963.5845,560.5895 C 1963.3622,560.1155 1963.3247,559.6075 1963.4755,559.0625 C 1963.6247,558.1525 1963.2370,557.9065 1963.0850,557.1315 C 1962.9684,556.5335 1964.0678,556.3005 1963.7325,555.7655 C 1963.5156,556.3215 1964.4337,556.0585 1963.0076,556.1985 C 1963.0777,555.9315 1963.1606,555.6675 1963.2587,555.4055 C 1962.8546,555.6945 1962.4555,555.7425 1962.0613,555.5505 C 1962.3514,555.7775 1963.4243,557.3945 1962.2440,557.2435 C 1961.6537,557.1685 1960.6312,556.7965 1960.2761,556.7025 C 1961.1617,557.2685 1962.5346,557.7305 1962.9729,558.7435 C 1963.2717,559.4325 1962.4683,559.9115 1961.8769,560.1575 C 1962.5158,561.0565 1961.9876,561.8715 1961.2387,562.6785 C 1962.6193,562.7075 1961.9970,564.0295 1961.8166,564.9825 C 1962.0306,564.7315 1962.2576,564.4915 1962.4973,564.2625 C 1963.5103,565.2615 1963.3745,567.8695 1961.4488,568.2225 C 1961.6396,567.7125 1961.6300,567.2335 1961.4180,566.7835 C 1961.4266,567.9715 1960.9521,568.9535 1960.5735,570.0965 C 1960.1265,571.4505 1958.5647,570.8995 1959.3937,569.8075 C 1959.1499,570.0315 1958.8991,570.2465 1958.6431,570.4555 C 1958.4399,569.1755 1959.9851,568.7135 1960.2882,567.5765 C 1959.7870,568.2365 1959.0955,568.7325 1958.4396,569.2305 C 1958.5639,568.7485 1958.7716,568.2925 1959.0636,567.8635 C 1958.6908,568.3235 1958.3124,568.7795 1957.9287,569.2305 C 1957.6528,567.7665 1957.6223,566.5205 1958.4202,565.0545 C 1956.7135,565.6985 1957.9349,567.1675 1957.2210,568.2405 C 1956.7046,569.0165 1957.6759,569.0665 1957.2056,570.0085 C 1956.7843,570.8535 1955.9965,570.3915 1955.7068,569.8785 C 1955.5804,570.3325 1955.4947,570.7885 1955.4515,571.2465 C 1954.2996,571.2595 1955.4240,567.0385 1955.5163,566.3505 C 1955.0036,567.3065 1955.3537,568.2625 1954.9866,569.2305 C 1954.7180,568.4295 1954.4322,567.5955 1954.4353,566.7105 C 1954.2563,568.1455 1955.4286,570.2915 1953.7599,571.7505 C 1953.4242,571.0385 1953.9203,570.1955 1953.4766,569.5185 C 1953.6736,570.2365 1952.9800,571.8005 1952.3654,572.3265 C 1952.6256,570.9535 1951.2748,569.8915 1951.3004,568.3825 C 1951.3290,566.7115 1950.5469,565.4355 1950.4003,563.8315 C 1950.3292,563.0585 1950.2707,562.2825 1950.1245,561.5265 C 1949.9265,560.5055 1950.2850,560.0185 1950.3282,559.0465 C 1950.3522,558.4955 1949.5501,558.5345 1949.1762,558.4425 C 1948.3934,558.2505 1949.0034,557.3345 1949.1343,556.7955 C 1949.4205,555.6185 1947.1639,555.5385 1947.4617,553.9665 C 1947.6145,553.1595 1948.5687,552.8765 1948.7682,552.1365 C 1948.9770,551.3875 1948.8038,550.5325 1948.6084,549.8535 C 1948.2887,548.7435 1945.9954,548.6275 1945.0253,547.9185 C 1944.4549,547.5025 1943.4559,546.8925 1943.5151,546.0465 C 1943.5759,545.1595 1944.4916,544.5275 1944.6634,543.6705 C 1945.6104,545.8095 1946.6749,541.7905 1947.0161,541.7265 C 1947.8711,541.5645 1949.6214,541.4055 1950.3375,541.7985 C 1951.5046,540.3055 1949.4117,540.8435 1949.4530,539.4225 C 1949.4811,538.4475 1948.0341,539.2505 1947.3853,538.7915 C 1946.5015,538.1675 1946.2611,536.9755 1945.1915,536.5395 C 1942.5081,535.4475 1944.4740,532.2195 1946.9348,531.3575 C 1946.8215,530.6665 1946.1128,530.3635 1945.4374,530.3495"
       id="path3340" />
  </g>
  
  
  
  
  
  
  
  
  
  
  
  
  
  
  
  
  
  
  
  
  
  
  
  
  
  
  
  
  
  
  
  
  
  
  
  
  
  
  
  
  
  
  
  
  
  
  
  
  
  
  
  
  
  
  
  
  
  
  
  
  
  
  
  
  
  
  
  
  
  
  
  
  
  
  
  
  
  
  
  
  
  
  
  
  
  
  
  
  
  
  
  
  
  
  
  
  
  
  
  
  
  
  
  
  
  
  
  
  
  
  
  
  
  
  
  
  
  
  
  
  
  
  
  
  
  
  
  
  
  
  
  
  
  
  
  
  
  
  
  
  
  
  
  
  
  
  
  
  
  
  
  
  
  
  
  
  
  
  
  
  
  
  
  
  
  
  
  
  
  
  
  
  
  
  
  
  
  
  
  
  
  
  
  
  
  
  
  
  
  
  
  
  
  
  
  
  
  
  
</svg>
