<?xml version="1.0" encoding="UTF-8" standalone="no"?>
<svg
   xmlns:dc="http://purl.org/dc/elements/1.1/"
   xmlns:cc="http://web.resource.org/cc/"
   xmlns:rdf="http://www.w3.org/1999/02/22-rdf-syntax-ns#"
   xmlns:svg="http://www.w3.org/2000/svg"
   xmlns="http://www.w3.org/2000/svg"
   xmlns:sodipodi="http://sodipodi.sourceforge.net/DTD/sodipodi-0.dtd"
   xmlns:inkscape="http://www.inkscape.org/namespaces/inkscape"
   viewBox="0 0 2752.766 1537.631"
   version="1.0"
   height="476.7276"
   width="939.74725"
   id="svg1926"
   sodipodi:version="0.32"
   inkscape:version="0.45.1"
   sodipodi:docname="BlankMap-World6.svg"
   sodipodi:docbase="/home/bennett/Desktop"
   inkscape:output_extension="org.inkscape.output.svg.inkscape">
  <sodipodi:namedview
     inkscape:window-height="590"
     inkscape:window-width="822"
     inkscape:pageshadow="2"
     inkscape:pageopacity="0.0"
     guidetolerance="10.0"
     gridtolerance="10.0"
     objecttolerance="10.0"
     borderopacity="1.0"
     bordercolor="#666666"
     pagecolor="#ffffff"
     id="base"
     inkscape:zoom="0.77893284"
     inkscape:cx="469.87363"
     inkscape:cy="238.3638"
     inkscape:window-x="178"
     inkscape:window-y="46"
     inkscape:current-layer="svg1926" />
  <metadata
     id="metadata24111">
    <rdf:RDF>
      <cc:Work
         rdf:about="">
        <dc:format>image/svg+xml</dc:format>
        <dc:type
           rdf:resource="http://purl.org/dc/dcmitype/StillImage" />
        <cc:license
           rdf:resource="http://web.resource.org/cc/PublicDomain" />
        <dc:title>Blank World Map</dc:title>
      </cc:Work>
      <cc:License
         rdf:about="http://web.resource.org/cc/PublicDomain">
        <cc:permits
           rdf:resource="http://web.resource.org/cc/Reproduction" />
        <cc:permits
           rdf:resource="http://web.resource.org/cc/Distribution" />
        <cc:permits
           rdf:resource="http://web.resource.org/cc/DerivativeWorks" />
      </cc:License>
    </rdf:RDF>
  </metadata>
  <defs
     id="defs1930" />
  <style
     type="text/css"
     id="style_css_sheet">
/*
 * Below are Cascading Style Sheet (CSS) definitions in use in this file,
 * which allow easily changing how countries are displayed.
 *
 */

/*
 * Circles around small countries
 *
 * Change opacity to 1 to display all circles.
 *
 */
.circle
{
   opacity:0;
   fill:#b9b9b9;
   fill-opacity:1;
   stroke:black;
   stroke-width:0.99986893;
   stroke-miterlimit:3.97446823;
   stroke-dasharray:none;
   stroke-opacity:1;
}

/*
 * Land
 */
.land
{
   fill: #b9b9b9;
   fill-opacity: 1;
   stroke: #ffffff;
   stroke-opacity: 1;
   stroke-width: 0.99986997;
   stroke-miterlimit: 3.97446823;
   stroke-dasharray: none;
}

/*
 * Additional style rules
 *
 * The following are examples of colouring countries.  You can substitute these with your own styles to colour the countries on the map.
 *
 * Color a few countries:
 *
 * .gb, .au, .nc
 * {
 *    fill:       #ff0000;
 * }
 *
 * Color a few small country circles (and the countries):
 *
 * .ms, .ky
 * {
 *    opacity:    1;
 *    fill:       #ff0000;
 * }
 *
 */

/*
 * Antarctica
 */

.aq
{
   fill:#e6e6e6;
}

/*
 * Sea
 */

.ocean
{
   opacity: 1;
   color: #000000;
   fill:white;
   fill-opacity:1;
   fill-rule:nonzero;
   stroke:#000000;
   stroke-width:0.5;
   stroke-linecap:butt;
   stroke-linejoin:miter;
   marker:none;
   marker-start:none;
   marker-mid:none;
   marker-end:none;
   stroke-miterlimit:1;
   stroke-dasharray:none;
   stroke-dashoffset:0;
   stroke-opacity:1;
   visibility:visible;
   display:inline;
   overflow:visible;
}

.lake
{
   fill:#ffffff;
   fill-opacity:1;
   stroke:#ffffff;
   stroke-opacity:1;
   stroke-width:0.99986997;
   stroke-miterlimit:3.97446823;
   stroke-dasharray:none;
}
</style>
  
  
  
  
  
  
  
  
  
  
  
  
  
  
  
  
  
  
  
  
  
  
  
  
  
  
  
  
  
  
  
  
  
  
  
  
  
  
  
  
  
  
  
  
  
  
  
  
  
  
  
  
  
  
  
  
  
  
  
  
  
  
  
  
  
  
  
  
  
  
  
  
  
  
  
  
  
  
  
  
  
  
  
  
  
  
  
  
  
  
  
  
  
  
  
  
  
  
  
  
  
  
  
  
  <path
     class="land bg"
     d="M 1441.5397,381.2375 C 1441.5595,380.0605 1442.7974,378.4506 1443.6708,377.5695 C 1443.9502,377.2876 1446.0833,378.2455 1446.1983,378.5025 C 1446.5091,379.2045 1444.9302,379.9035 1445.3401,380.6186 C 1445.9367,381.6615 1449.7090,380.6665 1450.8434,380.8825 C 1452.6884,381.2346 1454.6472,382.4255 1456.5918,381.8086 C 1458.1585,381.3116 1460.0626,381.6975 1461.6765,381.8145 C 1464.0629,381.9875 1465.2637,382.9606 1467.6118,381.4355 C 1469.4299,380.2556 1470.7069,379.3046 1472.9401,378.9606 C 1474.9806,378.6465 1477.2311,377.6375 1479.1075,378.5625 C 1480.3001,379.1515 1482.0561,379.6266 1483.4807,379.3945 C 1483.9699,379.3155 1485.6102,381.0745 1486.2767,381.3245 C 1487.1767,381.6615 1488.8913,380.9846 1488.9316,382.2006 C 1488.9727,383.5136 1489.0820,384.5226 1487.3339,384.3995 C 1485.5878,384.2765 1484.6719,385.4405 1483.8430,386.7525 C 1483.1302,387.8825 1483.6721,389.1465 1482.8061,390.3845 C 1482.5403,390.7636 1482.2387,391.1255 1481.9563,391.4955 C 1481.5014,392.0946 1480.7242,391.6895 1480.2477,392.4006 C 1482.3608,392.8456 1482.6411,394.2595 1483.9042,395.5706 C 1485.4543,397.1846 1481.7124,397.1665 1480.6271,396.8795 C 1479.4493,396.5686 1479.4146,395.3655 1477.8530,395.7645 C 1476.6949,396.0616 1475.7997,396.7045 1474.5744,396.6886 C 1472.9241,396.6676 1474.1022,397.2326 1473.5410,397.6556 C 1473.0082,398.0575 1471.2894,397.9706 1471.9302,398.9525 C 1467.7596,398.0996 1472.1902,400.9525 1469.4226,402.1726 C 1467.9783,402.8125 1465.8619,402.2416 1464.1926,402.8376 C 1463.0370,403.2505 1462.2541,401.6486 1461.2056,401.5596 C 1459.7194,401.4336 1459.6147,402.1015 1458.5580,400.7966 C 1457.8428,399.9146 1456.9257,400.1696 1455.8013,400.3336 C 1454.2482,400.5616 1453.0572,401.4615 1451.4249,401.5045 C 1449.5158,401.5546 1447.7968,402.0017 1445.9085,401.8507 C 1446.6736,399.8917 1446.1577,398.4565 1445.2269,396.7625 C 1444.9227,396.2086 1444.1478,396.0865 1443.6126,395.7846 C 1442.6801,395.2606 1442.0967,394.4185 1441.3765,393.6956 C 1443.8121,392.1785 1441.1512,391.4495 1442.3181,389.3666 C 1442.7537,388.5906 1443.5305,389.1375 1444.1411,388.7985 C 1444.8893,388.3825 1445.9097,386.9816 1446.2997,386.2806 C 1444.2156,385.6685 1441.9717,383.1585 1441.5397,381.2375"
     id="bg" />
  
  
  
  
  
  
  
  
  
  
  
  
  
  
  
  
  
  
  
  
  
  
  
  
  
  
  
  
  
  
  
  
  
  
  
  
  
  
  
  
  
  
  
  
  
  
  
  
  
  
  
  
  
  
  
  
  
  
  
  
  
  
  
  
  
  
  
  
  
  
  
  
  
  
  
  
  
  
  
  
  
  
  
  
  
  
  
  
  
  
  
  
  
  
  
  
  
  
  
  
  
  
  
  
  
  
  
  
  
  
  
  
  
  
  
  
  
  
  
  
  
  
  
  
  
  
  
</svg>
