<?xml version="1.0" encoding="UTF-8" standalone="no"?>
<svg
   xmlns:dc="http://purl.org/dc/elements/1.1/"
   xmlns:cc="http://web.resource.org/cc/"
   xmlns:rdf="http://www.w3.org/1999/02/22-rdf-syntax-ns#"
   xmlns:svg="http://www.w3.org/2000/svg"
   xmlns="http://www.w3.org/2000/svg"
   xmlns:sodipodi="http://sodipodi.sourceforge.net/DTD/sodipodi-0.dtd"
   xmlns:inkscape="http://www.inkscape.org/namespaces/inkscape"
   viewBox="0 0 2752.766 1537.631"
   version="1.0"
   height="476.7276"
   width="939.74725"
   id="svg1926"
   sodipodi:version="0.32"
   inkscape:version="0.45.1"
   sodipodi:docname="BlankMap-World6.svg"
   sodipodi:docbase="/home/bennett/Desktop"
   inkscape:output_extension="org.inkscape.output.svg.inkscape">
  <sodipodi:namedview
     inkscape:window-height="590"
     inkscape:window-width="822"
     inkscape:pageshadow="2"
     inkscape:pageopacity="0.0"
     guidetolerance="10.0"
     gridtolerance="10.0"
     objecttolerance="10.0"
     borderopacity="1.0"
     bordercolor="#666666"
     pagecolor="#ffffff"
     id="base"
     inkscape:zoom="0.77893284"
     inkscape:cx="469.87363"
     inkscape:cy="238.3638"
     inkscape:window-x="178"
     inkscape:window-y="46"
     inkscape:current-layer="svg1926" />
  <metadata
     id="metadata24111">
    <rdf:RDF>
      <cc:Work
         rdf:about="">
        <dc:format>image/svg+xml</dc:format>
        <dc:type
           rdf:resource="http://purl.org/dc/dcmitype/StillImage" />
        <cc:license
           rdf:resource="http://web.resource.org/cc/PublicDomain" />
        <dc:title>Blank World Map</dc:title>
      </cc:Work>
      <cc:License
         rdf:about="http://web.resource.org/cc/PublicDomain">
        <cc:permits
           rdf:resource="http://web.resource.org/cc/Reproduction" />
        <cc:permits
           rdf:resource="http://web.resource.org/cc/Distribution" />
        <cc:permits
           rdf:resource="http://web.resource.org/cc/DerivativeWorks" />
      </cc:License>
    </rdf:RDF>
  </metadata>
  <defs
     id="defs1930" />
  <style
     type="text/css"
     id="style_css_sheet">
/*
 * Below are Cascading Style Sheet (CSS) definitions in use in this file,
 * which allow easily changing how countries are displayed.
 *
 */

/*
 * Circles around small countries
 *
 * Change opacity to 1 to display all circles.
 *
 */
.circle
{
   opacity:0;
   fill:#b9b9b9;
   fill-opacity:1;
   stroke:black;
   stroke-width:0.99986893;
   stroke-miterlimit:3.97446823;
   stroke-dasharray:none;
   stroke-opacity:1;
}

/*
 * Land
 */
.land
{
   fill: #b9b9b9;
   fill-opacity: 1;
   stroke: #ffffff;
   stroke-opacity: 1;
   stroke-width: 0.99986997;
   stroke-miterlimit: 3.97446823;
   stroke-dasharray: none;
}

/*
 * Additional style rules
 *
 * The following are examples of colouring countries.  You can substitute these with your own styles to colour the countries on the map.
 *
 * Color a few countries:
 *
 * .gb, .au, .nc
 * {
 *    fill:       #ff0000;
 * }
 *
 * Color a few small country circles (and the countries):
 *
 * .ms, .ky
 * {
 *    opacity:    1;
 *    fill:       #ff0000;
 * }
 *
 */

/*
 * Antarctica
 */

.aq
{
   fill:#e6e6e6;
}

/*
 * Sea
 */

.ocean
{
   opacity: 1;
   color: #000000;
   fill:white;
   fill-opacity:1;
   fill-rule:nonzero;
   stroke:#000000;
   stroke-width:0.5;
   stroke-linecap:butt;
   stroke-linejoin:miter;
   marker:none;
   marker-start:none;
   marker-mid:none;
   marker-end:none;
   stroke-miterlimit:1;
   stroke-dasharray:none;
   stroke-dashoffset:0;
   stroke-opacity:1;
   visibility:visible;
   display:inline;
   overflow:visible;
}

.lake
{
   fill:#ffffff;
   fill-opacity:1;
   stroke:#ffffff;
   stroke-opacity:1;
   stroke-width:0.99986997;
   stroke-miterlimit:3.97446823;
   stroke-dasharray:none;
}
</style>
  
  
  
  
  
  
  
  
  
  
  
  <path
     class="land bo"
     d="M 738.6364,854.2785 C 740.5446,854.4026 742.4588,854.5675 744.3607,854.7106 C 745.2327,854.7755 744.7719,854.9206 744.8626,855.4406 C 745.0264,856.3805 746.4646,855.4176 746.8605,855.2526 C 747.3178,855.0616 748.2118,854.8795 748.5307,854.4335 C 749.0207,853.7476 749.2348,852.7776 749.9315,852.2405 C 751.4741,851.0516 752.4842,852.9686 753.4194,851.0516 C 754.2328,849.3826 756.3716,849.3035 757.7591,848.3786 C 759.0511,847.5166 759.7783,845.7355 761.3200,845.2935 C 763.1594,844.7666 765.2254,843.9095 767.1430,844.1766 C 769.2654,844.4725 768.7853,844.6645 770.2556,843.3386 C 773.2373,845.4506 769.6861,849.4736 770.3780,852.1875 C 770.5510,852.8676 771.0874,853.2565 771.2804,853.8575 C 771.4962,854.5305 770.7933,855.2246 770.5902,855.8365 C 769.9854,857.6635 771.7068,858.6476 772.0131,860.0086 C 772.2339,860.9886 772.1497,860.8745 772.9464,861.5936 C 773.4401,862.0395 773.2266,863.1505 773.6924,863.4306 C 774.3192,863.8075 774.8445,863.3446 775.3635,864.0406 C 775.9715,864.8555 776.6099,864.9266 777.3401,865.5186 C 777.4400,865.5996 777.6922,866.5756 777.8527,866.7645 C 778.3294,867.3296 778.9587,867.4306 779.6688,867.5986 C 780.6334,867.8275 781.1456,868.2255 782.1482,867.6935 C 782.9705,867.2576 783.7525,867.4636 784.4350,867.9606 C 784.9894,868.3636 785.4372,868.8905 786.0125,869.2695 C 786.8074,869.7916 787.0453,868.7075 787.6965,868.8995 C 788.9251,869.2616 788.7943,871.5986 790.4091,871.7795 C 791.8201,871.9375 792.7292,873.0556 794.1342,873.1315 C 796.0825,873.2365 796.1651,876.1115 797.7705,876.5285 C 799.0908,876.8715 800.3986,876.6466 801.7370,876.4456 C 803.6379,876.1605 805.4367,877.6436 806.9364,878.5195 C 809.3926,879.9546 807.6644,881.3196 808.4431,883.3966 C 809.3015,885.6856 809.5489,887.7046 809.8810,890.1395 C 809.2508,890.1215 808.6187,890.1445 807.9868,890.2096 C 807.9429,891.9836 810.1571,893.0095 810.3225,894.9166 C 810.4016,896.3415 810.0732,898.0136 810.5682,899.3406 C 811.1964,901.0216 814.3710,900.4496 815.8880,900.5996 C 818.7429,900.8815 821.6942,901.2956 824.6244,900.6486 C 824.5391,901.9176 823.7105,902.6925 823.4987,903.8375 C 823.3242,904.7826 823.5936,905.9786 823.7505,906.8916 C 823.9997,908.3335 825.4831,910.5785 827.0441,910.8705 C 827.8396,911.0195 828.3182,910.4865 828.5846,911.4946 C 828.7868,912.2595 829.0865,912.9636 829.3213,913.7196 C 829.9402,915.7056 830.8880,916.8116 830.2029,918.9656 C 829.8541,920.0485 828.7351,921.9105 828.9981,923.0195 C 829.3682,924.5806 828.0951,925.9095 827.3218,927.4126 C 826.2780,929.4385 826.1370,930.3665 827.6678,931.7565 C 828.8064,932.7895 826.7372,933.4306 825.8007,934.0595 C 826.6095,932.1065 825.4445,930.7626 823.9878,929.7845 C 822.4597,928.7576 820.5160,926.9055 818.6798,926.4896 C 813.5928,925.3375 807.1571,928.0266 802.0088,928.9045 C 799.5503,929.3225 798.2441,929.2805 797.5650,931.8605 C 796.9995,934.0045 794.9711,935.4316 794.3819,937.5116 C 793.8276,939.4696 794.6977,941.3066 794.0568,943.3285 C 793.1471,946.1966 792.5876,949.1405 791.5501,951.9805 C 790.2122,950.8285 790.6045,949.7455 788.5443,949.8225 C 786.9573,949.8815 785.1649,949.7125 783.6208,950.2855 C 781.8145,950.9556 782.0849,949.2396 780.8727,951.5735 C 779.8345,953.5706 779.2270,955.3536 778.7539,957.4615 C 776.8753,954.4156 777.5942,951.4665 773.3742,950.7945 C 771.6558,950.5205 768.9959,951.3375 767.5262,950.5956 C 766.2402,949.9456 765.6461,948.3265 764.1250,948.0216 C 763.6461,950.1896 763.6889,950.8726 761.3649,951.6635 C 760.2009,952.0606 758.7664,954.1816 757.9786,955.1925 C 756.7774,956.7346 756.3278,957.4786 754.2543,957.6906 C 753.5442,957.7626 752.7278,957.7745 752.1148,957.4665 C 751.0133,956.9126 751.9344,955.6486 751.6694,954.7476 C 751.3461,953.6495 751.4844,952.3275 750.9959,951.3025 C 750.5572,950.3815 750.0244,949.7666 749.8478,948.7046 C 749.5389,946.8436 749.3924,944.3715 748.4901,942.7586 C 747.9821,941.8496 747.0650,941.4406 746.5160,940.6126 C 745.9103,939.6996 746.8671,938.7776 746.5112,937.8415 C 746.2084,937.0476 745.1192,936.9936 744.8068,936.1896 C 744.4573,935.2895 745.6143,934.6775 744.5152,933.5525 C 746.8529,932.2595 746.6490,932.4615 745.3630,930.4285 C 745.1763,930.1326 746.1803,928.8646 746.3633,928.6075 C 747.2863,927.3066 746.5242,926.8995 745.5949,926.0815 C 743.7731,924.4765 743.0850,923.0366 742.7248,920.5886 C 742.5626,919.4805 741.1692,916.6476 742.3786,915.6226 C 739.1208,914.9636 740.5690,909.7206 737.9453,909.1436 C 738.1454,908.4775 738.6854,908.1215 739.2446,907.7576 C 740.1017,907.2006 740.4584,906.2906 741.0937,905.5285 C 741.6442,904.8676 742.0574,904.2636 742.7572,903.7545 C 742.8634,903.6775 742.9363,902.4846 743.0111,902.2835 C 743.2479,901.6445 745.2375,899.9245 743.2368,899.8726 C 741.7609,899.8335 741.3847,899.4815 740.8893,898.0385 C 740.5611,897.0835 739.8794,895.5516 740.2032,894.4715 C 740.4835,893.4416 742.0578,892.0026 741.6187,890.9295 C 740.9296,889.2415 739.6718,888.9306 740.8974,886.8386 C 741.6871,885.4886 742.4756,884.4755 743.0377,883.1386 C 743.7047,881.5525 744.0237,881.6165 743.2134,879.9375 C 742.4696,878.3945 743.2035,877.1545 743.1777,875.4995 C 743.1562,874.1656 742.5493,871.4295 743.6529,870.2966 C 744.7485,869.1706 745.7354,868.4045 744.9792,866.9335 C 742.8405,862.7676 740.5524,858.5495 738.6364,854.2785"
     id="bo" />
  
  
  
  
  
  
  
  
  
  
  
  
  
  
  
  
  
  
  
  
  
  
  
  
  
  
  
  
  
  
  
  
  
  
  
  
  
  
  
  
  
  
  
  
  
  
  
  
  
  
  
  
  
  
  
  
  
  
  
  
  
  
  
  
  
  
  
  
  
  
  
  
  
  
  
  
  
  
  
  
  
  
  
  
  
  
  
  
  
  
  
  
  
  
  
  
  
  
  
  
  
  
  
  
  
  
  
  
  
  
  
  
  
  
  
  
  
  
  
  
  
  
  
  
  
  
  
  
  
  
  
  
  
  
  
  
  
  
  
  
  
  
  
  
  
  
  
  
  
  
  
  
  
  
  
  
  
  
  
  
  
  
  
  
  
  
  
  
  
  
  
  
  
  
  
  
  
  
  
  
  
  
  
  
  
  
  
  
  
  
  
  
  
  
  
  
  
  
  
  
  
  
  
  
  
  
  
  
  
  
  
  
  
  
  
  
  
  
  
  
</svg>
