<?xml version="1.0" encoding="UTF-8" standalone="no"?>
<svg
   xmlns:dc="http://purl.org/dc/elements/1.1/"
   xmlns:cc="http://web.resource.org/cc/"
   xmlns:rdf="http://www.w3.org/1999/02/22-rdf-syntax-ns#"
   xmlns:svg="http://www.w3.org/2000/svg"
   xmlns="http://www.w3.org/2000/svg"
   xmlns:sodipodi="http://sodipodi.sourceforge.net/DTD/sodipodi-0.dtd"
   xmlns:inkscape="http://www.inkscape.org/namespaces/inkscape"
   viewBox="0 0 2752.766 1537.631"
   version="1.0"
   height="476.7276"
   width="939.74725"
   id="svg1926"
   sodipodi:version="0.32"
   inkscape:version="0.45.1"
   sodipodi:docname="BlankMap-World6.svg"
   sodipodi:docbase="/home/bennett/Desktop"
   inkscape:output_extension="org.inkscape.output.svg.inkscape">
  <sodipodi:namedview
     inkscape:window-height="590"
     inkscape:window-width="822"
     inkscape:pageshadow="2"
     inkscape:pageopacity="0.0"
     guidetolerance="10.0"
     gridtolerance="10.0"
     objecttolerance="10.0"
     borderopacity="1.0"
     bordercolor="#666666"
     pagecolor="#ffffff"
     id="base"
     inkscape:zoom="0.77893284"
     inkscape:cx="469.87363"
     inkscape:cy="238.3638"
     inkscape:window-x="178"
     inkscape:window-y="46"
     inkscape:current-layer="svg1926" />
  <metadata
     id="metadata24111">
    <rdf:RDF>
      <cc:Work
         rdf:about="">
        <dc:format>image/svg+xml</dc:format>
        <dc:type
           rdf:resource="http://purl.org/dc/dcmitype/StillImage" />
        <cc:license
           rdf:resource="http://web.resource.org/cc/PublicDomain" />
        <dc:title>Blank World Map</dc:title>
      </cc:Work>
      <cc:License
         rdf:about="http://web.resource.org/cc/PublicDomain">
        <cc:permits
           rdf:resource="http://web.resource.org/cc/Reproduction" />
        <cc:permits
           rdf:resource="http://web.resource.org/cc/Distribution" />
        <cc:permits
           rdf:resource="http://web.resource.org/cc/DerivativeWorks" />
      </cc:License>
    </rdf:RDF>
  </metadata>
  <defs
     id="defs1930" />
  <style
     type="text/css"
     id="style_css_sheet">
/*
 * Below are Cascading Style Sheet (CSS) definitions in use in this file,
 * which allow easily changing how countries are displayed.
 *
 */

/*
 * Circles around small countries
 *
 * Change opacity to 1 to display all circles.
 *
 */
.circle
{
   opacity:0;
   fill:#b9b9b9;
   fill-opacity:1;
   stroke:black;
   stroke-width:0.99986893;
   stroke-miterlimit:3.97446823;
   stroke-dasharray:none;
   stroke-opacity:1;
}

/*
 * Land
 */
.land
{
   fill: #b9b9b9;
   fill-opacity: 1;
   stroke: #ffffff;
   stroke-opacity: 1;
   stroke-width: 0.99986997;
   stroke-miterlimit: 3.97446823;
   stroke-dasharray: none;
}

/*
 * Additional style rules
 *
 * The following are examples of colouring countries.  You can substitute these with your own styles to colour the countries on the map.
 *
 * Color a few countries:
 *
 * .gb, .au, .nc
 * {
 *    fill:       #ff0000;
 * }
 *
 * Color a few small country circles (and the countries):
 *
 * .ms, .ky
 * {
 *    opacity:    1;
 *    fill:       #ff0000;
 * }
 *
 */

/*
 * Antarctica
 */

.aq
{
   fill:#e6e6e6;
}

/*
 * Sea
 */

.ocean
{
   opacity: 1;
   color: #000000;
   fill:white;
   fill-opacity:1;
   fill-rule:nonzero;
   stroke:#000000;
   stroke-width:0.5;
   stroke-linecap:butt;
   stroke-linejoin:miter;
   marker:none;
   marker-start:none;
   marker-mid:none;
   marker-end:none;
   stroke-miterlimit:1;
   stroke-dasharray:none;
   stroke-dashoffset:0;
   stroke-opacity:1;
   visibility:visible;
   display:inline;
   overflow:visible;
}

.lake
{
   fill:#ffffff;
   fill-opacity:1;
   stroke:#ffffff;
   stroke-opacity:1;
   stroke-width:0.99986997;
   stroke-miterlimit:3.97446823;
   stroke-dasharray:none;
}
</style>
  
  
  
  
  
  
  
  
  
  
  
  
  
  
  
  
  
  
  
  
  
  
  
  
  
  <g
     class="land br"
     id="br">
    <path
       d="M 972.7323,876.9585 C 973.9603,874.1315 970.8847,876.4335 972.7323,876.9585"
       id="path2886" />
    <path
       d="M 869.8849,772.7785 C 870.6047,772.6355 871.2370,772.2015 871.7531,771.6985 C 870.9589,771.5835 870.0945,771.9405 869.8849,772.7785"
       id="path2814" />
    <path
       d="M 871.6107,773.7785 C 872.1995,773.1255 873.1328,773.2755 873.7648,772.6985 C 873.0950,771.6035 871.1827,772.6285 871.6107,773.7785"
       id="path2816" />
    <path
       d="M 884.4935,741.2375 C 884.6552,740.9975 884.8159,740.7575 884.9776,740.5175 C 884.1710,740.2875 884.0093,740.5285 884.4935,741.2375"
       id="path2846" />
    <path
       d="M 885.1905,743.3245 C 886.2867,742.7775 885.6920,741.8155 885.1405,741.0935 C 884.0673,741.5955 884.6711,742.6455 885.1905,743.3245"
       id="path2848" />
    <path
       d="M 873.8442,772.3385 C 875.8144,771.8555 880.5717,767.1505 879.4289,764.9065 C 878.2621,762.6165 876.0401,765.6995 875.7482,766.9205 C 875.5347,767.8165 875.9253,768.7745 875.0262,769.3675 C 874.0523,770.0085 873.3291,771.0915 873.8442,772.3385"
       id="path2818" />
    <path
       d="M 877.7200,763.7785 C 878.4652,763.2795 880.4830,761.9165 879.5151,760.8185 C 878.4760,761.3635 878.0653,762.7515 877.7200,763.7785"
       id="path2820" />
    <path
       d="M 877.8005,770.1085 C 878.8709,769.7335 879.7134,768.1925 879.0156,767.1595 C 879.0046,768.3195 877.7856,768.9615 877.8005,770.1085"
       id="path2822" />
    <path
       d="M 880.8846,767.0885 C 880.0620,767.3635 879.4562,768.1105 879.3076,768.9585 C 880.3062,768.7165 880.5354,767.6085 881.3256,767.0885 C 881.1786,767.0885 881.0316,767.0885 880.8846,767.0885"
       id="path2824" />
    <path
       d="M 879.7999,764.2785 C 880.1217,763.5705 880.2664,762.7715 881.0969,762.4785 C 879.9761,761.3675 879.5196,763.5005 879.7999,764.2785"
       id="path2826" />
    <path
       d="M 879.6668,767.8785 C 880.3167,767.1525 880.7361,766.2175 881.5201,765.6105 C 881.9586,765.2705 882.2071,764.3545 881.3296,764.6665 C 880.3751,765.0065 879.5833,766.9395 879.6668,767.8785"
       id="path2828" />
    <path
       d="M 880.1610,764.3485 C 880.7407,764.1745 881.2020,763.7045 880.9489,763.0585 C 880.4353,763.2955 880.0850,763.7605 880.1610,764.3485"
       id="path2830" />
    <path
       d="M 881.7463,762.0485 C 882.2753,761.4745 882.9718,761.1005 883.4978,760.5235 C 884.1567,759.7985 883.0392,759.5335 882.5385,759.7625 C 881.5142,760.2285 879.5294,761.6095 881.7463,762.0485"
       id="path2832" />
    <path
       d="M 880.8114,764.5685 C 881.4219,764.2445 882.7182,763.7855 882.2486,762.8395 C 881.3157,762.9085 881.1973,763.9305 880.8114,764.5685"
       id="path2834" />
    <path
       d="M 881.1742,766.8675 C 881.5469,766.6505 881.8093,766.3415 881.9627,765.9375 C 881.3577,765.9355 881.0312,766.2525 881.1742,766.8675"
       id="path2836" />
    <path
       d="M 881.3831,759.5285 C 881.4063,759.6725 881.4296,759.8155 881.4538,759.9595 C 882.0187,759.8885 882.4983,759.6485 882.8927,759.2395 C 882.3550,758.8435 881.7613,759.0265 881.3831,759.5285"
       id="path2838" />
    <path
       d="M 882.4041,772.2685 C 882.9406,773.1305 883.2879,774.1315 883.9913,774.8665 C 884.5208,775.4205 886.7554,775.5855 885.6184,774.9385 C 886.6402,775.0555 887.9353,774.4485 888.8776,774.7245 C 889.5443,774.9195 890.5154,775.4605 890.3188,774.2185 C 890.4632,774.4905 890.6229,774.7545 890.7969,775.0085 C 891.5182,774.5285 892.2631,773.8455 892.2752,772.9185 C 892.6565,774.4135 895.2459,773.3445 896.0652,772.9175 C 897.5600,772.1395 897.5135,770.5675 898.3795,769.2815 C 899.2135,768.0425 899.4755,766.8025 899.7572,765.3565 C 900.0221,763.9995 901.6005,761.6945 899.2282,761.5485 C 897.3729,761.4345 895.0280,760.2775 893.2671,761.0385 C 892.4906,761.3745 893.3512,761.7055 892.1160,761.6515 C 891.0309,761.6045 890.1436,761.4575 889.0861,761.1785 C 887.1542,760.6695 884.6327,759.8075 883.3592,761.9665 C 882.6581,763.1545 882.6012,765.0425 884.2030,765.4995 C 883.6218,765.3745 883.0446,765.2305 882.4723,765.0685 C 882.2354,765.7315 882.7199,766.0345 882.6849,766.6595 C 882.6451,767.3795 882.0660,767.9265 882.4512,768.6955 C 882.8716,769.5355 884.0718,768.4315 884.7081,768.5995 C 883.7268,770.2585 883.9359,769.0685 882.1893,769.3195 C 882.5757,770.2135 882.4456,771.3245 882.4041,772.2685"
       id="path2840" />
    <path
       d="M 883.9732,759.5285 C 884.9354,760.2405 884.9187,759.2085 884.6037,758.5765 C 883.8763,757.1195 883.1068,758.6705 883.9732,759.5285"
       id="path2842" />
    <path
       d="M 884.9099,758.0885 C 885.6332,757.0135 886.1791,755.7485 885.1842,754.6285 C 884.7377,755.5035 883.8864,757.8015 884.9099,758.0885"
       id="path2844" />
    <path
       d="M 887.7134,759.5285 C 888.4137,760.9405 889.7822,758.7035 890.3672,758.1005 C 891.8948,756.5245 889.1620,756.7975 888.3174,757.0615 C 887.4838,757.3215 885.6058,757.4035 885.3215,758.4475 C 885.0819,759.3285 887.2303,759.4675 887.7134,759.5285"
       id="path2850" />
    <path
       d="M 886.3385,756.5785 C 886.7420,756.2525 888.6857,754.7675 887.9496,754.1435 C 886.7739,753.1465 885.4510,755.6715 886.3385,756.5785"
       id="path2852" />
    <path
       d="M 886.4202,757.5785 C 886.8739,757.3865 887.2564,757.0995 887.5688,756.7185 C 886.9616,756.6265 886.5552,757.0205 886.4202,757.5785"
       id="path2854" />
    <path
       d="M 886.4129,753.1175 C 887.1309,753.0955 888.0166,752.8915 887.9211,751.9685 C 887.1577,751.7465 886.1513,752.1655 886.4129,753.1175"
       id="path2856" />
    <path
       d="M 888.1304,751.5285 C 888.5860,751.2595 888.6584,750.9035 888.3487,750.4595 C 887.9141,750.7345 887.8417,751.0905 888.1304,751.5285"
       id="path2858" />
    <path
       d="M 890.0935,759.5285 C 889.0650,761.1095 891.6067,760.8055 892.4093,760.5365 C 893.8256,760.0615 891.3196,758.3085 890.0935,759.5285"
       id="path2860" />
    <path
       d="M 896.2635,775.1485 C 896.5197,774.5235 896.6803,773.8765 896.7357,773.2095 C 895.8382,773.5245 895.3355,774.5255 896.2635,775.1485"
       id="path2862" />
    <path
       d="M 900.1200,769.6085 C 902.0710,771.5165 900.5393,767.2875 900.1200,769.6085"
       id="path2864" />
    <path
       d="M 905.8736,765.4985 C 906.6342,765.8455 905.9015,764.7465 905.8724,764.7085 C 905.8728,764.9715 905.8732,765.2355 905.8736,765.4985"
       id="path2866" />
    <path
       d="M 914.9483,768.3785 C 915.3432,768.2705 915.5358,768.0075 915.5271,767.5885 C 914.7569,767.4225 914.5643,767.6855 914.9483,768.3785"
       id="path2872" />
    <path
       d="M 926.6135,771.6975 C 927.1692,771.4955 927.4765,771.0445 927.1917,770.4685 C 926.9149,771.2865 926.7221,771.4535 926.6124,770.9685 C 926.6128,771.2115 926.6131,771.4545 926.6135,771.6975"
       id="path2874" />
    <path
       d="M 928.3358,773.9985 C 928.6013,773.9015 928.8677,773.8055 929.1332,773.7085 C 928.4478,773.2535 928.1840,773.3505 928.3358,773.9985"
       id="path2876" />
    <path
       d="M 929.6186,786.0985 C 930.1118,785.1535 930.4909,784.2115 930.4839,783.1385 C 929.3280,783.6245 929.6887,785.1475 929.6186,786.0985"
       id="path2878" />
    <path
       d="M 936.4691,779.8985 C 936.6921,779.6585 936.9142,779.4185 937.1372,779.1785 C 936.3717,779.1085 936.1487,779.3475 936.4691,779.8985"
       id="path2882" />
    <path
       d="M 704.7968,824.6885 C 705.5353,823.9675 705.2395,823.4655 706.3013,822.9735 C 707.4952,822.4205 706.2166,821.1685 706.5602,819.9125 C 707.2227,817.4945 709.8326,817.8075 710.8902,816.1515 C 711.6371,814.9825 711.0842,813.8535 710.8506,812.6605 C 710.6373,811.5665 711.2447,810.5805 711.8913,809.7185 C 713.1897,807.9865 711.9790,805.4705 713.2940,803.9485 C 713.9714,803.1635 715.3518,803.1125 716.1427,802.3675 C 716.8442,801.7065 716.9474,800.9735 717.8974,800.6495 C 719.1203,800.2315 719.7973,799.0245 720.9772,798.5485 C 722.0696,798.1085 723.7319,798.1385 724.9058,797.8965 C 726.3007,797.6085 727.4499,797.6745 728.5109,796.5935 C 728.6816,796.4205 730.2117,794.8135 730.5149,795.3545 C 730.7984,795.8605 731.3931,795.7305 731.9869,795.6485 C 732.6673,795.5545 733.3579,796.5875 733.7221,797.1075 C 733.9253,796.8675 734.1274,796.6285 734.3296,796.3875 C 735.3103,798.1065 735.9571,794.6775 736.0698,794.0695 C 736.5859,791.2955 737.0980,788.5195 737.4834,785.7285 C 738.0067,781.9405 738.7832,778.1955 739.4553,774.4275 C 739.7097,772.8365 740.5635,771.3745 740.1820,769.7385 C 739.8156,768.1655 738.8045,767.1805 738.7509,765.4975 C 738.6951,763.7585 737.6511,763.3305 736.3593,762.4835 C 734.7068,761.4005 735.0652,759.7175 735.0615,758.0045 C 735.0593,757.0085 734.7236,755.7565 735.2566,754.8395 C 735.5585,754.3195 737.5043,753.7055 738.0468,753.9075 C 738.9226,754.2315 739.2312,753.1035 740.3805,753.7125 C 741.5590,754.3375 741.9692,753.9835 741.8733,752.6245 C 741.7227,750.4935 738.4565,749.1425 736.6341,750.3815 C 736.8001,748.8985 736.0339,746.4655 736.6502,745.1225 C 737.2554,743.8035 739.6144,744.6225 740.5327,744.6225 C 742.7284,744.6225 744.9124,744.6345 747.1067,744.7245 C 747.4953,744.7405 748.7644,744.8685 748.8639,744.2625 C 748.9158,743.9485 749.0860,742.4015 749.5833,742.4405 C 750.4326,742.5065 750.1250,745.3215 751.6316,744.2895 C 752.6057,743.6225 753.1213,742.4575 753.9420,741.6365 C 755.0731,740.5045 756.3407,742.3895 756.8511,743.3025 C 757.8178,745.0305 757.7221,746.1255 757.5844,747.9905 C 757.5519,748.4295 757.4088,749.4165 758.2040,749.2695 C 759.3163,749.0635 759.4695,749.0365 760.3611,749.9235 C 761.4384,751.0065 762.4452,752.2935 763.8646,752.9485 C 765.7716,753.8275 766.3768,751.9705 767.8253,751.2085 C 770.5526,749.7725 768.9655,753.1985 769.6132,753.9805 C 770.3227,753.7495 771.5871,751.9045 772.0168,751.2845 C 772.7487,750.2305 773.0686,749.6435 774.3431,749.1475 C 775.4037,748.7325 776.1779,748.4825 776.9719,747.6825 C 777.5362,747.1135 778.7222,746.0865 778.7052,747.6475 C 779.5222,746.2255 780.4641,745.7055 780.8367,744.0475 C 781.1310,742.7435 781.6620,742.6615 782.8740,742.3505 C 783.2853,742.2455 785.3995,741.1175 785.6637,740.7555 C 787.1115,738.7685 784.8866,738.2325 783.2590,738.3225 C 782.4607,738.3665 781.7403,738.2575 781.0815,737.7345 C 780.6939,737.4275 781.3155,736.3405 781.2249,735.9215 C 780.7412,733.6855 779.0173,732.2875 779.4340,729.7905 C 779.7356,727.9805 778.3532,727.4045 777.2215,726.3055 C 776.5734,725.6755 774.4926,723.3995 775.4164,722.4465 C 776.0752,722.7315 776.3651,723.7235 777.0719,723.7925 C 778.0388,723.8865 779.9054,723.1655 780.3569,724.5775 C 780.7227,725.7205 781.0641,725.9755 782.1613,725.4205 C 783.2367,724.8755 784.5012,726.6335 785.3810,725.7765 C 786.9104,724.2865 788.1318,729.1545 790.1589,728.6335 C 791.4514,728.3015 790.1683,725.7175 790.6938,724.8585 C 791.0783,724.2315 792.1674,724.5505 792.7352,723.8495 C 793.5619,722.8285 794.4649,724.0865 795.3826,723.9925 C 796.9113,723.8335 799.7867,722.9875 800.2628,721.6085 C 800.2320,721.6955 802.3303,720.4945 802.1429,720.4525 C 803.1333,720.6765 803.7222,720.6405 804.3943,719.7705 C 805.5450,718.2825 808.8782,716.3615 806.1314,714.5265 C 807.2221,714.3615 808.1611,714.6055 809.2589,714.2925 C 810.1499,714.0375 811.1404,714.1045 811.5878,715.0535 C 812.4803,716.9435 810.8718,718.2945 811.0315,720.0055 C 811.1173,720.9145 813.3846,720.9535 813.9959,721.5475 C 814.2517,721.7965 813.7076,722.5205 813.9338,723.0185 C 814.3012,723.8265 814.7296,724.5555 815.1971,725.2895 C 815.7147,726.1025 813.1851,728.1325 813.0223,728.8045 C 812.8594,729.4735 813.1442,730.2655 812.9868,730.9885 C 812.6978,732.3145 811.9426,733.5685 811.8177,734.9275 C 811.6339,736.9435 812.4763,738.2115 813.3746,739.8615 C 813.7906,740.6275 813.3199,743.7005 814.6052,743.6175 C 814.5164,743.8575 814.4256,744.0975 814.3337,744.3375 C 815.7882,744.5315 816.8157,746.2865 817.6402,747.3095 C 818.3127,748.1445 819.5556,747.6645 820.1425,748.5545 C 820.6762,749.3645 820.9358,749.3465 821.6703,748.9345 C 822.1347,748.6735 823.8538,748.2755 823.4625,747.5165 C 822.7376,746.1095 826.2527,746.3955 826.7366,746.2285 C 827.4039,745.9985 827.9098,745.1945 828.5666,744.8615 C 829.4951,744.3905 830.1243,745.1875 830.9139,744.2055 C 831.9588,742.9065 833.1111,741.5745 834.7277,742.7365 C 836.2841,743.8555 837.5526,742.4015 839.1599,742.8335 C 840.2113,743.1165 842.6891,744.4595 843.0358,742.6845 C 843.3551,741.0515 840.6987,740.6805 841.6912,739.2125 C 842.8877,737.4445 843.5167,738.5735 845.2577,738.4895 C 846.3901,738.4345 847.3262,738.2525 848.2492,737.8555 C 850.2083,737.0175 849.7568,737.2595 851.2867,738.5035 C 851.5898,738.7495 851.4772,737.9365 851.8498,738.4925 C 852.3127,739.1835 852.9726,739.4965 853.6357,739.9895 C 854.4934,740.6275 855.3300,740.6345 856.2168,741.1115 C 857.2212,741.6525 856.8069,740.6795 857.5995,740.5195 C 858.3025,740.3775 858.4802,739.6465 859.0460,739.3285 C 859.5299,739.0565 860.1616,739.7075 860.6840,739.7545 C 861.3277,739.8125 863.7273,739.2685 863.2941,740.5915 C 863.9946,740.2575 865.1397,741.0915 865.7118,740.5675 C 866.5199,739.8265 867.5466,739.3135 868.1448,738.3595 C 868.9891,737.0135 869.6727,735.4215 870.0451,733.8695 C 871.0284,729.7685 873.8453,726.8015 876.3716,723.5275 C 876.4759,724.1045 876.7318,724.6095 877.1371,725.0405 C 876.7863,724.1045 875.9728,722.9465 876.7777,722.0165 C 878.9976,723.3705 879.3304,725.5485 879.1449,727.9205 C 879.2533,727.2225 879.3031,726.4615 879.8918,725.9765 C 879.8797,729.1115 880.2791,732.3835 881.4537,735.3325 C 881.9333,736.5385 883.8728,740.1965 882.5402,741.3115 C 883.5809,740.9655 883.7814,742.0975 884.1270,742.7845 C 884.8003,744.1225 886.3078,743.5855 887.4335,744.0475 C 890.0018,745.1025 889.5782,748.1025 887.3959,749.0875 C 887.9653,748.9255 888.6107,749.0275 889.0631,749.4465 C 888.0956,750.4155 886.4149,751.2855 886.0261,752.6945 C 885.8253,753.4195 885.0008,753.7475 884.6117,754.3405 C 884.0222,755.2385 883.7628,756.2375 883.0441,757.0665 C 882.0699,758.1885 880.8172,759.0045 879.7258,759.9985 C 878.3778,761.2275 877.6765,762.8785 876.5428,764.2805 C 875.4919,765.5795 875.1066,766.5815 875.2574,768.2535 C 875.3409,769.1905 873.6132,769.3565 873.5544,770.6435 C 873.4753,772.3785 872.2057,771.4435 871.3176,771.4145 C 870.5046,771.3875 867.9507,772.6405 867.6530,773.4215 C 868.3717,773.2545 872.2535,772.5165 871.1529,774.2915 C 871.9081,773.4825 873.0543,773.5565 873.9434,773.0325 C 874.9814,772.4215 875.7782,771.7575 876.9004,771.2755 C 878.3614,770.6475 880.5184,768.8265 881.3242,767.4505 C 883.2180,768.5485 881.4167,771.3895 882.6512,772.9085 C 883.1472,773.5175 882.6263,775.1485 883.4356,775.3895 C 884.1110,775.5895 885.3012,775.1935 884.8549,776.3815 C 886.4444,776.6945 889.3859,773.7815 889.5857,777.1015 C 889.4711,776.0785 890.4865,775.8885 891.2557,775.7415 C 891.6374,775.7535 891.9141,775.5825 892.0860,775.2275 C 892.4048,774.4365 893.2448,774.7305 893.9049,774.5815 C 892.9792,777.2555 892.1368,779.0025 892.1862,781.7805 C 893.4501,780.2055 892.8233,776.7785 894.8982,775.8125 C 896.2789,775.1705 896.5092,774.9795 897.3522,773.6635 C 898.6830,771.4885 899.0495,773.0985 900.3929,773.9315 C 900.3741,773.4745 900.2564,773.0405 900.0508,772.6315 C 900.8037,772.5795 901.5404,772.4085 902.2802,772.2715 C 901.5196,771.8895 900.6671,772.2055 899.9003,772.3415 C 899.7047,771.2905 900.4486,771.2465 901.0367,770.6825 C 901.9284,769.8265 900.9613,767.9255 902.0597,766.8395 C 903.3537,765.5595 902.9894,766.6385 903.8509,766.3015 C 904.4565,766.0655 905.7231,764.5375 905.8706,766.0815 C 907.0628,764.9165 907.1323,766.5435 908.2407,766.1505 C 907.7631,765.7405 907.6511,765.1235 907.9483,764.5705 C 908.6296,764.7695 910.2553,765.1665 909.9009,766.2205 C 910.1367,766.0925 910.3765,765.9725 910.6203,765.8605 C 910.7178,766.1275 910.8142,766.3945 910.9116,766.6615 C 911.5328,766.1675 911.6308,766.1635 911.6321,767.0115 C 912.2079,766.8215 912.6111,766.3355 912.6402,765.7215 C 912.2796,766.6535 913.5529,766.8275 913.2133,767.7425 C 913.3014,767.1565 913.6778,766.7785 914.2922,767.0125 C 914.2842,767.6315 913.8779,768.0995 913.2841,768.2425 C 914.3112,767.6455 915.2494,769.1065 916.2340,768.1725 C 916.1041,769.5265 917.1029,768.7255 917.3938,768.0225 C 916.9833,769.6625 918.3583,768.9835 918.2569,770.0435 C 918.6427,769.8895 918.9323,769.6265 919.1257,769.2535 C 918.9941,770.1815 920.1506,769.8425 920.3479,770.6925 C 920.5936,770.4585 920.8332,770.2185 921.0668,769.9725 C 921.1147,770.5115 921.3094,770.9915 921.6490,771.4125 C 921.8867,771.2205 922.1234,771.0275 922.3582,770.8325 C 922.4822,771.5525 922.7668,771.8955 923.4387,771.1915 C 922.9143,771.5665 922.7772,772.1635 923.1610,772.7015 C 923.3091,772.1475 923.7355,771.7215 924.3084,771.6215 C 923.4964,772.3535 923.7789,773.9145 924.5067,774.5825 C 924.8474,773.9735 924.4653,772.9475 925.2869,772.6295 C 926.7800,772.0495 926.1126,773.1225 926.8320,773.3525 C 926.7891,772.7515 927.1464,772.2805 927.6900,772.0625 C 927.4407,772.5345 927.3215,773.0385 927.3323,773.5725 C 929.0398,772.5475 927.0568,775.6065 928.8990,774.5035 C 928.6432,774.7325 928.3970,774.9735 928.1607,775.2235 C 928.7386,775.4255 929.2789,775.1395 929.6142,774.6535 C 929.0962,775.7175 930.8412,775.1355 930.0560,776.5625 C 929.3545,777.8375 929.6427,778.8995 927.9834,779.4035 C 928.5850,779.0315 929.0398,779.3635 929.1894,779.9735 C 929.2546,779.0585 930.2975,777.6525 931.1117,778.8395 C 931.9820,780.1105 930.3913,780.5075 929.8700,781.4625 C 929.4251,782.2765 928.6071,784.7865 928.8759,785.6695 C 929.1733,786.6465 927.6015,787.4575 928.2616,788.1845 C 928.3865,786.8115 930.0274,786.3955 930.6364,785.3045 C 931.2411,784.2205 930.9077,782.4045 931.5585,781.5125 C 931.8912,781.0545 933.3670,780.0135 933.8164,780.8035 C 934.5543,782.0995 932.0976,782.7905 931.9045,783.8645 C 932.6264,783.4075 932.8623,783.5775 932.6121,784.3745 C 933.4619,783.9685 934.7238,780.6825 935.1142,782.3545 C 935.2141,781.2005 937.4556,780.5745 938.3079,781.0645 C 938.2722,778.7925 942.9210,781.3085 943.7446,781.7895 C 944.3286,782.1305 947.5591,783.4575 947.5989,784.0845 C 948.3206,783.6215 950.1766,784.7925 949.8594,783.2945 C 950.7979,783.5035 951.4194,784.2085 952.2700,784.5845 C 953.2503,785.0165 954.3146,784.9505 955.1243,785.7445 C 955.1412,784.3595 955.9933,784.5065 957.0709,784.4675 C 959.2312,784.3905 961.1587,783.5255 963.3461,783.9945 C 967.3508,784.8525 970.9961,788.2865 974.0783,790.7465 C 975.1049,791.5655 976.3001,791.7035 977.1439,792.7345 C 977.9518,793.7225 978.5689,794.8265 979.3323,795.8405 C 980.1931,796.9845 981.3685,797.4945 982.1567,798.6185 C 982.9985,799.8185 984.5921,799.9505 985.5204,801.1915 C 986.4527,802.4375 987.8621,801.9335 988.9337,803.0065 C 990.1740,804.2495 992.4109,803.7475 993.9699,803.5535 C 997.5539,803.1085 1000.1665,804.4425 1001.1311,807.9825 C 1001.5051,809.3535 1002.0798,810.7185 1002.0735,812.1705 C 1002.0713,812.6085 1001.6831,813.3415 1002.0184,813.5095 C 1002.4023,813.7005 1002.6067,814.2315 1002.7534,814.5995 C 1003.3707,816.1485 1004.4008,819.5985 1003.5304,821.2325 C 1003.7684,820.8815 1003.9895,820.5225 1004.1947,820.1525 C 1004.0042,821.7905 1005.1578,823.7635 1003.4417,824.9725 C 1003.7070,825.0365 1003.9690,825.1095 1004.2288,825.1925 C 1003.5202,826.5475 1004.5495,828.1795 1003.6935,829.4075 C 1002.8070,830.6795 1003.4030,832.3935 1002.7005,833.7295 C 1001.8831,835.2805 1001.5698,837.0225 1000.8088,838.5975 C 999.9723,840.3305 998.2147,841.4615 997.4956,843.2625 C 997.2489,843.0845 997.0126,842.8945 996.7867,842.6925 C 996.8216,843.4225 996.5697,844.3315 995.9020,843.1225 C 996.0119,843.5825 996.2972,843.8235 996.7577,843.8435 C 995.6508,845.9145 993.9971,848.6165 992.1782,850.1835 C 991.4280,850.8295 990.4431,851.0875 989.6799,851.7295 C 988.8840,852.3985 988.2475,853.2745 987.3155,853.7735 C 987.4957,853.1585 987.1195,852.7255 986.5673,852.5535 C 986.4671,853.2225 987.3018,853.4385 987.1513,854.0635 C 986.9562,854.8685 986.2076,855.9425 985.4516,854.9335 C 985.8250,855.4495 986.7375,855.9475 986.1362,856.7255 C 985.7883,857.1765 984.3537,858.6705 984.9830,857.0135 C 984.4960,857.7305 984.5486,858.6335 983.8728,859.2535 C 984.1678,859.1635 984.4611,859.0665 984.7517,858.9635 C 983.0523,861.2245 979.9826,872.6165 975.8746,871.9235 C 976.7184,870.2015 974.9732,869.8805 974.5144,868.5325 C 974.4429,869.3135 973.4683,871.5085 972.8602,869.8335 C 973.0403,870.5345 974.1191,870.8225 974.0506,871.5775 C 973.9284,872.9045 972.1922,873.8515 972.5971,875.3035 C 971.4711,874.5235 971.6141,876.5115 971.5527,877.3235 C 971.6544,876.9515 971.7918,876.5915 971.9669,876.2445 C 972.3085,877.2545 972.2754,878.1295 972.1879,879.1935 C 971.9161,878.9715 971.6623,878.7315 971.4256,878.4735 C 972.0306,879.0025 972.5122,880.7125 972.2279,881.5035 C 972.4500,880.9995 972.6661,880.4925 972.8763,879.9825 C 972.8306,883.0115 971.7242,885.7565 972.0174,888.8305 C 972.2694,891.4675 973.2961,894.2285 973.2536,896.8575 C 973.1546,901.5255 969.8755,905.8735 970.8467,910.6615 C 971.3906,913.3315 969.6534,913.6595 968.3478,915.6665 C 966.8415,917.9795 966.4140,920.8535 966.5482,923.4485 C 966.6436,925.3005 967.4711,929.0315 965.1654,929.9945 C 962.9904,930.9035 964.3658,934.9495 961.8363,935.2815 C 963.4942,936.8255 960.3302,938.7595 959.2387,939.7095 C 958.3035,940.5235 958.5070,941.1375 958.1110,942.2295 C 957.5260,943.8405 956.6597,945.2925 956.7845,947.0095 C 956.8498,947.9025 957.3976,949.2975 956.6467,950.1125 C 955.4076,951.4575 953.6831,951.4155 952.1949,952.2445 C 951.1852,952.8075 950.1056,953.8565 949.5889,954.8725 C 949.2542,955.5295 949.5303,956.1385 949.6739,956.7655 C 949.8225,957.4085 948.9482,957.7435 949.2235,958.4625 C 948.3072,957.3745 945.3749,957.9195 944.0869,958.1775 C 943.3329,958.3285 942.1086,958.7275 941.4229,958.3225 C 940.4058,957.7215 941.2499,956.7085 941.2669,955.8025 C 938.8739,956.0735 940.7378,957.0395 940.3230,958.2045 C 939.9121,959.3575 935.2109,958.9105 934.0946,959.4725 C 934.8833,958.7185 936.1046,959.0565 937.0337,958.7525 C 936.1354,957.9055 935.0896,957.4445 933.8253,958.1605 C 932.7028,958.7955 932.2671,958.2905 931.1528,958.4125 C 930.3445,958.5005 929.0056,958.5905 928.6454,959.5185 C 928.3090,960.3835 929.6424,960.7645 930.1217,961.1325 C 928.8762,962.0605 927.4100,961.0845 926.5520,962.1815 C 925.8136,963.1255 924.7512,963.2375 923.7901,963.8525 C 922.9408,964.3945 923.8529,965.2295 923.0012,965.7435 C 921.8231,966.4545 920.1154,964.4415 918.4163,965.7435 C 918.2373,965.8805 916.9579,967.8405 916.6108,967.3565 C 916.3079,966.9365 916.6360,966.3195 915.7640,966.4625 C 916.0924,967.7715 914.3403,967.9215 913.3161,968.5485 C 912.0585,969.3185 911.4068,970.4135 910.3769,971.4025 C 909.2540,972.4785 907.6558,972.7785 906.4570,973.7485 C 905.4336,974.5785 904.7733,975.8355 903.6357,976.5325 C 903.8670,976.6805 904.0994,976.8275 904.3331,976.9725 C 903.4212,977.8085 902.4976,978.7825 901.9038,979.8525 C 901.8808,979.3075 902.0746,978.8285 902.4863,978.4135 C 901.6815,978.7355 900.9007,978.5285 900.2147,978.1925 C 900.4028,979.6865 899.4633,980.5505 898.1068,979.3425 C 898.0067,980.2035 900.0134,981.0895 900.8245,981.0025 C 900.2220,981.5025 899.9634,982.1785 899.7566,982.8725 C 899.5922,983.4265 898.4565,983.2505 898.0663,983.5225 C 898.5640,983.5075 899.0559,983.5305 899.5419,983.5925 C 899.2518,984.2735 899.4728,984.9715 899.2025,985.6495 C 898.8844,986.4465 897.9974,986.5835 897.8541,985.6825 C 898.0826,986.2715 897.8721,987.0725 898.5174,987.3525 C 899.3614,987.7185 898.5916,989.5295 898.6867,990.2225 C 898.8387,991.3265 899.9882,992.9435 899.1330,994.3225 C 900.2644,994.0715 899.9504,995.3175 899.0284,995.4725 C 899.8931,996.1985 898.6249,999.2735 899.2057,1000.5455 C 899.7505,1001.7375 897.9588,1004.6995 897.7024,1005.9125 C 897.3555,1005.6355 897.0858,1005.2985 896.8923,1004.9015 C 897.0603,1005.5185 896.9170,1006.2515 897.6807,1006.4925 C 896.6619,1007.6265 895.2250,1008.3035 894.0090,1009.1995 C 892.7131,1010.1545 891.7282,1011.4325 890.8285,1012.7005 C 888.6379,1015.7855 887.6304,1019.0735 886.2018,1022.4135 C 884.8589,1025.5505 882.7918,1028.3985 880.4870,1031.0665 C 878.1882,1033.6355 875.1547,1035.4705 872.5334,1037.8115 C 873.1072,1036.8835 872.8019,1035.7515 872.7755,1034.8515 C 873.8253,1035.1425 874.2441,1035.2345 875.3640,1034.5815 C 876.3593,1034.0015 877.1243,1032.6675 878.0024,1032.2435 C 879.1908,1031.6575 879.4507,1031.1715 879.6345,1029.9665 C 879.7525,1029.1895 880.1092,1027.8275 880.9250,1028.9505 C 880.7319,1027.8075 881.3595,1027.3735 882.1853,1026.5765 C 882.8623,1025.9225 883.0998,1025.1715 883.1021,1024.3425 C 883.1047,1023.7405 882.7508,1021.7265 883.9511,1022.9715 C 884.0340,1022.6585 883.8858,1020.7275 883.3412,1020.8985 C 882.9950,1021.0065 880.9893,1022.3095 880.9172,1022.6915 C 880.5057,1022.1535 880.3222,1021.5125 879.6263,1021.2615 C 878.8052,1020.9655 879.1575,1019.7815 878.4314,1019.3815 C 878.0535,1021.3515 879.0395,1021.2735 879.6332,1022.6915 C 877.8455,1023.0955 878.8006,1025.0055 878.5095,1026.0715 C 878.4717,1025.5455 878.3212,1025.0665 878.0573,1024.6325 C 877.7031,1025.3135 878.2386,1026.1875 877.7931,1026.7575 C 877.5957,1027.0105 877.0484,1026.9635 877.0640,1027.3565 C 877.1319,1028.9955 875.5360,1029.8705 874.2164,1030.5335 C 873.1747,1031.0565 873.3745,1032.2005 872.9190,1033.0615 C 872.5363,1033.7835 870.2590,1035.5485 872.0578,1035.7215 C 870.9615,1036.3005 871.3868,1037.5765 872.4985,1036.8705 C 872.4619,1037.7875 871.5742,1038.6395 871.0238,1039.4125 C 870.1225,1040.6795 869.8500,1042.2075 869.3608,1043.5705 C 868.3966,1046.2555 866.3330,1047.8565 864.4068,1050.0325 C 862.8386,1051.8015 861.2248,1051.4145 861.4134,1049.3745 C 861.4966,1048.4795 861.3574,1047.4565 861.5731,1046.5735 C 861.8473,1045.4555 863.3936,1044.5145 864.0640,1043.5525 C 865.1287,1042.0235 863.2450,1041.4525 862.2837,1040.9845 C 861.1649,1040.4395 860.7528,1039.4805 860.3525,1038.3905 C 859.4789,1036.0035 857.0972,1036.0045 855.4049,1034.4375 C 854.5143,1033.6105 854.2202,1032.2925 852.9893,1031.7605 C 852.4708,1031.6755 851.9574,1031.5785 851.4469,1031.4705 C 850.8908,1031.1955 850.7747,1030.5135 850.2158,1030.2505 C 849.3536,1029.8445 848.8017,1030.3275 848.1248,1029.2555 C 847.4054,1028.1155 846.7699,1026.8905 845.2810,1026.5005 C 845.6720,1027.7395 842.2893,1029.6775 842.5588,1027.2155 C 842.7876,1025.1325 840.4304,1023.7945 839.0829,1022.6845 C 838.0831,1021.8605 836.1503,1019.0285 834.2284,1020.2225 C 833.5878,1020.6205 833.5764,1021.6395 832.6576,1021.5495 C 831.5942,1021.4455 830.7170,1021.6585 830.1096,1020.7395 C 831.8266,1020.1285 832.2661,1017.9725 833.7926,1016.9755 C 835.5149,1015.8505 836.5277,1014.1725 837.3773,1012.5015 C 838.3350,1010.6195 840.2713,1009.2065 841.5436,1007.4785 C 842.1881,1006.6035 843.5808,1004.1485 844.6172,1005.4085 C 845.0265,1004.8225 844.8490,1004.3105 844.2630,1004.1075 C 845.4830,1002.9325 846.9083,1001.7565 848.4296,1001.0065 C 849.9854,1000.2385 850.3156,999.4455 851.4703,998.4275 C 852.6344,997.3995 853.8897,997.1505 855.2082,996.5525 C 856.1711,996.1145 858.1109,994.1665 859.1408,994.6775 C 859.7119,992.9005 859.9010,991.4725 860.1660,989.6985 C 860.4321,987.5465 860.3392,986.4155 859.8011,984.4095 C 859.4201,982.9915 859.2603,981.3555 857.6955,980.7955 C 856.7920,980.4715 855.0281,980.3425 854.6797,981.6475 C 853.8602,981.1075 852.7837,980.5965 853.2835,979.3715 C 853.9781,977.6735 853.9600,976.4587 854.3492,974.7117 C 854.6163,973.5137 854.7637,971.9515 855.4334,970.8555 C 856.1316,969.7115 854.3918,968.6115 855.8162,967.6785 C 854.9756,967.0745 854.3771,965.8755 853.2156,965.7395 C 851.9945,965.5955 851.0148,966.7475 849.8985,967.0985 C 846.8194,968.0675 846.3839,965.1615 845.9863,962.9285 C 845.7468,961.5875 845.1108,960.0570 844.9993,958.6910 C 844.8972,957.4230 845.3989,956.2200 844.4541,955.2820 C 843.5708,954.4050 844.0708,953.1020 842.5284,952.6940 C 841.3244,952.3760 840.3829,952.0824 839.4651,951.1774 C 838.5755,950.3004 837.6790,950.4874 837.8403,951.5612 C 838.3929,955.2321 835.2512,952.6250 834.2906,952.5030 C 832.9083,952.3275 831.3997,952.1545 830.2150,951.4855 C 829.5846,951.1295 826.9511,950.8632 826.8387,950.0322 C 826.7232,949.1832 827.4982,948.8035 827.5397,947.9475 C 827.5782,947.1485 827.1470,946.0185 827.5395,945.2415 C 828.2298,943.8725 827.7868,942.6275 828.2162,941.3065 C 828.5423,940.2925 826.7619,939.8805 827.8656,938.7385 C 827.0216,938.6865 826.9380,937.8465 826.9414,937.1775 C 826.9466,936.1055 826.3968,935.8495 825.8874,935.0305 C 824.7428,933.1905 829.4369,933.1475 827.6846,931.7035 C 825.5665,929.9575 826.4891,928.6085 827.8356,926.1615 C 828.1994,925.5005 829.3953,924.2565 829.1060,923.6255 C 828.6161,922.5565 829.1417,921.6395 829.5461,920.4455 C 829.8724,919.4805 830.7132,918.0315 830.7228,917.0565 C 830.7324,916.0615 829.7456,915.3425 829.4454,914.4665 C 829.0797,913.4025 829.2242,911.1385 827.9476,911.0145 C 826.2351,910.8475 824.3394,909.5915 823.9416,907.8705 C 823.6770,906.7255 823.3431,905.3525 823.4288,904.1415 C 823.5144,902.9315 824.5302,901.9155 824.6156,900.6455 C 822.0974,901.2015 819.5560,900.9385 817.0987,900.6875 C 815.5390,900.5285 811.8544,901.0005 810.8480,899.7505 C 809.9310,898.6095 810.4077,896.3315 810.3088,894.9125 C 810.1175,893.0265 807.9352,891.9195 807.9780,890.2055 C 808.6109,890.1405 809.2419,890.1175 809.8722,890.1355 C 809.5900,888.0605 809.6058,885.8855 808.7861,883.9535 C 808.4702,883.2085 808.0174,882.6775 808.2667,881.8025 C 808.5495,880.8085 808.7476,880.1765 808.0261,879.3615 C 805.6417,876.6695 801.8406,875.9605 798.3153,876.7415 C 797.3306,876.9595 795.7999,874.4075 795.3735,873.7805 C 794.9069,873.0965 794.5170,873.4195 793.8383,873.3655 C 793.2268,873.3165 791.9026,872.4615 791.4998,872.0325 C 791.1421,871.6505 790.4377,872.0005 790.0026,871.6855 C 789.3387,871.2035 789.0270,870.2625 788.5804,869.6025 C 787.9997,868.7455 787.7234,868.9045 786.8232,869.2905 C 785.7637,869.7455 785.4297,868.6295 784.7651,868.1755 C 783.0400,866.9925 782.2854,868.3195 780.4788,867.8905 C 778.4088,867.4005 778.2151,867.2385 777.1862,865.6415 C 776.7013,864.8885 774.9057,863.6365 774.0234,863.5445 C 773.1580,863.4545 773.5143,862.2225 773.0350,861.6475 C 772.6862,861.2305 771.8161,861.3045 771.8711,860.6525 C 771.9897,859.2335 770.7045,858.4035 770.6643,856.7945 C 770.6424,855.9195 771.4281,854.9635 771.3027,854.1825 C 771.1905,853.4805 770.3907,853.3365 770.3314,852.5195 C 770.2844,851.8625 770.3804,851.1765 770.2573,850.5295 C 770.0928,849.6695 771.0898,849.0715 771.2918,848.2945 C 771.6789,846.8075 771.5876,844.2855 770.2457,843.3345 C 769.8972,843.6485 769.5786,844.4535 769.0249,844.4095 C 767.6392,844.2985 766.5688,844.3125 765.1608,844.4725 C 763.6185,844.6475 761.0015,844.6975 760.0010,846.1745 C 758.5003,848.3045 756.5401,848.2995 754.6571,849.7385 C 754.1022,850.1625 753.2419,850.8205 753.0613,851.5295 C 752.7814,852.6305 751.7215,851.7495 751.0818,851.6875 C 750.0680,851.5875 749.5459,852.6805 749.1590,853.4255 C 748.6269,854.4505 747.6750,855.0075 746.6376,855.4575 C 746.3618,855.5775 744.5319,856.1805 744.7179,855.3475 C 744.9546,854.2865 743.7097,854.5055 742.9280,854.4835 C 740.8919,854.4245 737.9080,853.5215 735.9170,854.1115 C 734.8925,854.4155 733.8728,855.5025 732.7646,855.1545 C 732.1040,854.9475 731.2706,853.8585 730.4923,854.4945 C 730.3768,851.8585 730.6851,849.1915 730.5587,846.5605 C 730.4542,845.2895 730.7582,844.8905 731.1830,843.8035 C 731.2196,843.4515 731.1271,843.1365 730.9033,842.8585 C 730.5616,842.1365 731.2485,841.8215 731.4358,841.1745 C 729.5316,841.1975 727.6350,844.2105 726.3109,845.3405 C 724.2870,847.0515 721.0042,846.3545 718.7014,846.0645 C 719.1514,844.8185 718.2476,842.7625 717.3545,841.9675 C 715.7547,840.5445 712.7685,841.6135 710.9909,840.6655 C 713.2347,837.9025 712.5805,837.1215 710.4069,834.7905 C 709.9438,834.2935 709.9093,833.8195 709.7385,833.1855 C 709.5566,832.5115 708.7957,832.3385 708.4062,831.8155 C 707.5089,830.6135 707.7993,829.0995 706.3616,828.1345 C 707.9177,827.2205 705.2459,825.4135 704.7968,824.6885"
       id="path2812" />
    <path
       d="M 898.8608,987.5485 C 899.0644,987.7635 899.2669,987.9795 899.4671,988.1975 C 899.7955,987.4945 900.1533,986.7435 899.5995,986.1075 C 899.1416,986.5025 898.8956,986.9835 898.8608,987.5485"
       id="path2868" />
    <path
       d="M 899.3659,1000.2985 C 900.1856,999.3985 901.0773,997.5975 900.4080,996.6175 C 899.2180,997.2485 899.4083,999.3425 899.3659,1000.2985"
       id="path2870" />
    <path
       d="M 924.6553,966.9585 C 924.8239,966.2915 924.3011,965.8465 924.6788,965.1585 C 923.7588,964.9625 923.3540,965.9075 923.1401,966.5975 C 923.7070,966.5345 924.2117,966.6545 924.6553,966.9585"
       id="path2880" />
    <path
       d="M 931.6564,960.4785 C 932.2692,960.3925 932.8303,960.0265 933.2122,959.5395 C 932.5421,959.0435 931.3878,959.5445 931.6564,960.4785"
       id="path2884" />
    <path
       d="M 973.9315,873.2185 C 974.5101,872.6955 975.9094,871.8265 974.8314,871.0585 C 974.9724,871.9445 973.9291,872.3665 973.9315,873.2185"
       id="path2888" />
  </g>
  
  
  
  
  
  
  
  
  
  
  
  
  
  
  
  
  
  
  
  
  
  
  
  
  
  
  
  
  
  
  
  
  
  
  
  
  
  
  
  
  
  
  
  
  
  
  
  
  
  
  
  
  
  
  
  
  
  
  
  
  
  
  
  
  
  
  
  
  
  
  
  
  
  
  
  
  
  
  
  
  
  
  
  
  
  
  
  
  
  
  
  
  
  
  
  
  
  
  
  
  
  
  
  
  
  
  
  
  
  
  
  
  
  
  
  
  
  
  
  
  
  
  
  
  
  
  
  
  
  
  
  
  
  
  
  
  
  
  
  
  
  
  
  
  
  
  
  
  
  
  
  
  
  
  
  
  
  
  
  
  
  
  
  
  
  
  
  
  
  
  
  
  
  
  
  
  
  
  
  
  
  
  
  
  
  
  
  
  
  
  
  
  
  
  
  
  
  
  
  
  
  
  
  
  
  
</svg>
