<?xml version="1.0" encoding="UTF-8" standalone="no"?>
<svg
   xmlns:dc="http://purl.org/dc/elements/1.1/"
   xmlns:cc="http://web.resource.org/cc/"
   xmlns:rdf="http://www.w3.org/1999/02/22-rdf-syntax-ns#"
   xmlns:svg="http://www.w3.org/2000/svg"
   xmlns="http://www.w3.org/2000/svg"
   xmlns:sodipodi="http://sodipodi.sourceforge.net/DTD/sodipodi-0.dtd"
   xmlns:inkscape="http://www.inkscape.org/namespaces/inkscape"
   viewBox="0 0 2752.766 1537.631"
   version="1.0"
   height="476.7276"
   width="939.74725"
   id="svg1926"
   sodipodi:version="0.32"
   inkscape:version="0.45.1"
   sodipodi:docname="BlankMap-World6.svg"
   sodipodi:docbase="/home/bennett/Desktop"
   inkscape:output_extension="org.inkscape.output.svg.inkscape">
  <sodipodi:namedview
     inkscape:window-height="590"
     inkscape:window-width="822"
     inkscape:pageshadow="2"
     inkscape:pageopacity="0.0"
     guidetolerance="10.0"
     gridtolerance="10.0"
     objecttolerance="10.0"
     borderopacity="1.0"
     bordercolor="#666666"
     pagecolor="#ffffff"
     id="base"
     inkscape:zoom="0.77893284"
     inkscape:cx="469.87363"
     inkscape:cy="238.3638"
     inkscape:window-x="178"
     inkscape:window-y="46"
     inkscape:current-layer="svg1926" />
  <metadata
     id="metadata24111">
    <rdf:RDF>
      <cc:Work
         rdf:about="">
        <dc:format>image/svg+xml</dc:format>
        <dc:type
           rdf:resource="http://purl.org/dc/dcmitype/StillImage" />
        <cc:license
           rdf:resource="http://web.resource.org/cc/PublicDomain" />
        <dc:title>Blank World Map</dc:title>
      </cc:Work>
      <cc:License
         rdf:about="http://web.resource.org/cc/PublicDomain">
        <cc:permits
           rdf:resource="http://web.resource.org/cc/Reproduction" />
        <cc:permits
           rdf:resource="http://web.resource.org/cc/Distribution" />
        <cc:permits
           rdf:resource="http://web.resource.org/cc/DerivativeWorks" />
      </cc:License>
    </rdf:RDF>
  </metadata>
  <defs
     id="defs1930" />
  <style
     type="text/css"
     id="style_css_sheet">
/*
 * Below are Cascading Style Sheet (CSS) definitions in use in this file,
 * which allow easily changing how countries are displayed.
 *
 */

/*
 * Circles around small countries
 *
 * Change opacity to 1 to display all circles.
 *
 */
.circle
{
   opacity:0;
   fill:#b9b9b9;
   fill-opacity:1;
   stroke:black;
   stroke-width:0.99986893;
   stroke-miterlimit:3.97446823;
   stroke-dasharray:none;
   stroke-opacity:1;
}

/*
 * Land
 */
.land
{
   fill: #b9b9b9;
   fill-opacity: 1;
   stroke: #ffffff;
   stroke-opacity: 1;
   stroke-width: 0.99986997;
   stroke-miterlimit: 3.97446823;
   stroke-dasharray: none;
}

/*
 * Additional style rules
 *
 * The following are examples of colouring countries.  You can substitute these with your own styles to colour the countries on the map.
 *
 * Color a few countries:
 *
 * .gb, .au, .nc
 * {
 *    fill:       #ff0000;
 * }
 *
 * Color a few small country circles (and the countries):
 *
 * .ms, .ky
 * {
 *    opacity:    1;
 *    fill:       #ff0000;
 * }
 *
 */

/*
 * Antarctica
 */

.aq
{
   fill:#e6e6e6;
}

/*
 * Sea
 */

.ocean
{
   opacity: 1;
   color: #000000;
   fill:white;
   fill-opacity:1;
   fill-rule:nonzero;
   stroke:#000000;
   stroke-width:0.5;
   stroke-linecap:butt;
   stroke-linejoin:miter;
   marker:none;
   marker-start:none;
   marker-mid:none;
   marker-end:none;
   stroke-miterlimit:1;
   stroke-dasharray:none;
   stroke-dashoffset:0;
   stroke-opacity:1;
   visibility:visible;
   display:inline;
   overflow:visible;
}

.lake
{
   fill:#ffffff;
   fill-opacity:1;
   stroke:#ffffff;
   stroke-opacity:1;
   stroke-width:0.99986997;
   stroke-miterlimit:3.97446823;
   stroke-dasharray:none;
}
</style>
  
  
  
  
  
  
  
  
  
  
  
  
  
  
  
  
  
  
  
  
  
  
  
  
  
  
  
  
  
  
  
  
  
  
  
  
  
  
  
  
  
  
  
  
  
  
  
  
  
  
  
  
  
  
  
  
  
  
  
  
  
  
  
  
  
  
  
  
  
  
  
  
  
  
  
  
  
  
  
  
  
  
  
  
  
  
  
  
  
  
  
  
  
  
  
  
  
  
  
  
  
  
  
  
  
  
  
  
  
  
  
  
  
  
  
  
  
  
  
  
  
  
  
  
  
  
  
  
  
  
  
  
  
  
  
  
  
  
  
  
  
  
  
  
  
  
  
  
  
  
  
  
  
  
  
  
  
  
  
  
  
  
  
  <g
     id="bs">
    <g
       class="land bs"
       id="bs-">
      <path
         d="M 693.0347,557.0615 C 692.7746,556.9655 692.5145,556.8695 692.2545,556.7735 C 692.5328,556.8055 692.7920,556.9025 693.0347,557.0615"
         id="path6100" />
      <g
         id="g20657">
        <path
           d="M 672.6828,541.5095 C 673.7700,542.3225 674.2871,541.4085 674.6072,543.0345 C 674.8410,544.2245 676.2478,545.2555 676.2040,546.4665 C 676.1499,547.9565 673.1918,550.3745 673.1855,547.7735 C 672.3149,548.0465 671.4223,547.4075 670.8776,546.6935 C 671.3312,546.1015 671.9031,546.2215 672.2523,546.9815 C 672.8353,546.1635 671.6725,545.6755 672.2800,544.9105 C 673.0991,543.8775 672.7750,542.8005 672.6828,541.5095"
           id="path6086" />
        <path
           d="M 674.5814,550.6535 C 674.2572,550.1175 674.4771,549.9495 675.2442,550.1495 C 675.0233,550.3175 674.8013,550.4855 674.5814,550.6535"
           id="path6088" />
        <path
           d="M 668.8467,530.3495 C 668.2155,530.1125 667.6399,529.6645 667.2334,529.1255 C 668.6048,530.2925 668.9056,528.9895 669.7076,528.4395 C 670.9033,527.6225 673.3703,528.9995 674.8351,527.9005 C 675.3657,529.2285 669.6944,529.9955 668.8467,530.3495"
           id="path6084" />
        <path
           d="M 676.7597,554.3245 C 676.4781,554.2525 676.1966,554.1805 675.9150,554.1085 C 676.5340,554.0855 677.0147,553.8455 677.3571,553.3885 C 676.2615,554.2305 675.7489,552.8975 675.3542,551.9875 C 675.2190,551.6765 675.0436,551.2075 674.7094,551.0125 C 675.3786,550.4755 675.8244,549.6815 676.6767,549.3565 C 676.7737,550.1855 675.8308,550.6365 676.2630,551.5165 C 676.6749,551.1315 676.9240,550.6525 677.0079,550.0775 C 678.4113,551.2285 678.0571,553.6105 676.7597,554.3245"
           id="path6090" />
        <path
           d="M 678.2931,543.3815 C 678.0846,542.3475 679.2402,542.5535 679.9091,542.8055 C 679.4066,543.0675 678.8679,543.2595 678.2931,543.3815"
           id="path6092" />
        <path
           d="M 680.4268,535.6775 C 680.1355,535.1215 679.5984,534.6785 678.9845,534.5255 C 679.6811,533.8725 680.0768,532.9665 680.2919,532.0165 C 680.4022,531.5185 680.4707,531.0085 680.4970,530.4845 C 680.5682,529.1795 680.2514,529.9575 679.3672,529.1525 C 677.9394,527.8535 676.8413,526.0905 674.6858,526.8935 C 676.6805,525.5905 678.9806,527.9305 680.5232,529.4145 C 681.6609,530.5095 681.7128,531.3225 680.9968,532.3365 C 680.3307,533.2795 680.8774,534.6445 680.4268,535.6775"
           id="path6094" />
        <path
           d="M 685.1506,539.7095 C 684.5466,539.6875 684.0929,539.2715 683.9640,538.7015 C 685.3005,539.5965 687.0336,540.2555 688.0194,541.5815 C 689.1729,543.1355 687.7732,544.4665 688.2346,546.0455 C 687.0124,545.1865 688.4112,543.4765 688.3595,542.5065 C 688.2876,541.1835 686.0043,540.5075 685.1506,539.7095"
           id="path6096" />
        <path
           d="M 689.2896,554.6855 C 690.3245,554.8065 690.7381,555.9005 691.4742,556.4855 C 690.6938,556.0935 689.5622,555.5935 689.2896,554.6855"
           id="path6098" />
        <path
           d="M 693.6020,550.8695 C 693.1279,550.0095 694.4202,550.0805 693.5711,549.2735 C 692.8612,548.5985 692.1359,547.0085 692.0163,546.1175 C 692.5080,546.9755 695.7161,550.5905 693.6020,550.8695"
           id="path6102" />
        <path
           d="M 694.7628,554.7575 C 695.9423,556.1125 695.8307,557.5485 696.5780,558.9445 C 697.0531,559.8445 698.8142,560.2525 697.9908,561.3825 C 697.6440,560.0455 696.1476,559.9745 695.5120,558.8625 C 697.3858,560.1685 694.7096,555.5905 694.7628,554.7575"
           id="path6104" />
        <path
           d="M 698.4947,555.0455 C 698.2382,554.9735 697.9816,554.9015 697.7251,554.8295 C 698.3089,554.1505 698.5645,554.2225 698.4947,555.0455"
           id="path6106" />
        <path
           d="M 702.8400,567.4295 C 703.8624,566.5955 704.5662,565.4495 705.7308,564.7655 C 704.1025,563.9025 705.2231,562.8325 705.7872,563.6085 C 707.0889,565.4035 703.7965,566.7635 702.8400,567.4295"
           id="path6108" />
        <path
           d="M 700.6721,551.2295 C 700.9360,551.1815 701.1999,551.1335 701.4639,551.0855 C 701.4233,551.6695 701.0607,552.1405 700.5438,552.3815 C 700.6598,552.0145 700.7036,551.6305 700.6721,551.2295"
           id="path6110" />
        <path
           d="M 704.0224,563.5415 C 703.2285,563.4255 702.2536,562.8525 702.3407,561.9575 C 703.0025,562.2965 704.0654,562.6515 704.0224,563.5415"
           id="path6112" />
        <path
           d="M 707.2452,578.5895 C 706.4133,577.4565 707.9469,576.4015 708.8265,576.1575 C 709.4323,575.9895 709.6575,576.3935 710.2104,576.5015 C 711.1372,576.6825 711.6741,575.4965 712.2230,575.0615 C 712.1736,575.9865 712.0378,577.1495 711.3791,577.8055 C 710.4595,578.7205 708.4298,578.1065 707.2452,578.5895"
           id="path6122" />
        <path
           d="M 712.0281,574.1255 C 711.7904,573.5215 711.9846,573.1845 712.6606,573.3335 C 712.4738,573.6175 712.2639,573.8815 712.0281,574.1255"
           id="path6124" />
        <path
           d="M 713.9467,566.7815 C 713.2948,565.8765 711.4647,566.5845 711.2750,565.4845 C 711.8054,565.4175 714.3268,565.8045 713.9467,566.7815"
           id="path6126" />
      </g>
    </g>
    <path
       class="circle bs"
       d="M 687.7262,562.2539 C 695.6310,562.2539 693.9080,550.2278 685.9823,550.2278 C 678.0509,550.2278 679.8157,562.2539 687.7262,562.2539"
       id="bs." />
  </g>
  
  
  
  
  
  
  
  
  
  
  
  
  
  
  
  
  
  
  
  
  
  
  
  
  
  
  
  
  
  
  
  
  
  
  
  
  
  
  
  
  
  
  
  
  
  
  
  
  
  
  
  
  
  
  
  
  
  
  
  
  
  
  
  
  
  
  
  
</svg>
