<?xml version="1.0" encoding="UTF-8" standalone="no"?>
<svg
   xmlns:dc="http://purl.org/dc/elements/1.1/"
   xmlns:cc="http://web.resource.org/cc/"
   xmlns:rdf="http://www.w3.org/1999/02/22-rdf-syntax-ns#"
   xmlns:svg="http://www.w3.org/2000/svg"
   xmlns="http://www.w3.org/2000/svg"
   xmlns:sodipodi="http://sodipodi.sourceforge.net/DTD/sodipodi-0.dtd"
   xmlns:inkscape="http://www.inkscape.org/namespaces/inkscape"
   viewBox="0 0 2752.766 1537.631"
   version="1.0"
   height="476.7276"
   width="939.74725"
   id="svg1926"
   sodipodi:version="0.32"
   inkscape:version="0.45.1"
   sodipodi:docname="BlankMap-World6.svg"
   sodipodi:docbase="/home/bennett/Desktop"
   inkscape:output_extension="org.inkscape.output.svg.inkscape">
  <sodipodi:namedview
     inkscape:window-height="590"
     inkscape:window-width="822"
     inkscape:pageshadow="2"
     inkscape:pageopacity="0.0"
     guidetolerance="10.0"
     gridtolerance="10.0"
     objecttolerance="10.0"
     borderopacity="1.0"
     bordercolor="#666666"
     pagecolor="#ffffff"
     id="base"
     inkscape:zoom="0.77893284"
     inkscape:cx="469.87363"
     inkscape:cy="238.3638"
     inkscape:window-x="178"
     inkscape:window-y="46"
     inkscape:current-layer="svg1926" />
  <metadata
     id="metadata24111">
    <rdf:RDF>
      <cc:Work
         rdf:about="">
        <dc:format>image/svg+xml</dc:format>
        <dc:type
           rdf:resource="http://purl.org/dc/dcmitype/StillImage" />
        <cc:license
           rdf:resource="http://web.resource.org/cc/PublicDomain" />
        <dc:title>Blank World Map</dc:title>
      </cc:Work>
      <cc:License
         rdf:about="http://web.resource.org/cc/PublicDomain">
        <cc:permits
           rdf:resource="http://web.resource.org/cc/Reproduction" />
        <cc:permits
           rdf:resource="http://web.resource.org/cc/Distribution" />
        <cc:permits
           rdf:resource="http://web.resource.org/cc/DerivativeWorks" />
      </cc:License>
    </rdf:RDF>
  </metadata>
  <defs
     id="defs1930" />
  <style
     type="text/css"
     id="style_css_sheet">
/*
 * Below are Cascading Style Sheet (CSS) definitions in use in this file,
 * which allow easily changing how countries are displayed.
 *
 */

/*
 * Circles around small countries
 *
 * Change opacity to 1 to display all circles.
 *
 */
.circle
{
   opacity:0;
   fill:#b9b9b9;
   fill-opacity:1;
   stroke:black;
   stroke-width:0.99986893;
   stroke-miterlimit:3.97446823;
   stroke-dasharray:none;
   stroke-opacity:1;
}

/*
 * Land
 */
.land
{
   fill: #b9b9b9;
   fill-opacity: 1;
   stroke: #ffffff;
   stroke-opacity: 1;
   stroke-width: 0.99986997;
   stroke-miterlimit: 3.97446823;
   stroke-dasharray: none;
}

/*
 * Additional style rules
 *
 * The following are examples of colouring countries.  You can substitute these with your own styles to colour the countries on the map.
 *
 * Color a few countries:
 *
 * .gb, .au, .nc
 * {
 *    fill:       #ff0000;
 * }
 *
 * Color a few small country circles (and the countries):
 *
 * .ms, .ky
 * {
 *    opacity:    1;
 *    fill:       #ff0000;
 * }
 *
 */

/*
 * Antarctica
 */

.aq
{
   fill:#e6e6e6;
}

/*
 * Sea
 */

.ocean
{
   opacity: 1;
   color: #000000;
   fill:white;
   fill-opacity:1;
   fill-rule:nonzero;
   stroke:#000000;
   stroke-width:0.5;
   stroke-linecap:butt;
   stroke-linejoin:miter;
   marker:none;
   marker-start:none;
   marker-mid:none;
   marker-end:none;
   stroke-miterlimit:1;
   stroke-dasharray:none;
   stroke-dashoffset:0;
   stroke-opacity:1;
   visibility:visible;
   display:inline;
   overflow:visible;
}

.lake
{
   fill:#ffffff;
   fill-opacity:1;
   stroke:#ffffff;
   stroke-opacity:1;
   stroke-width:0.99986997;
   stroke-miterlimit:3.97446823;
   stroke-dasharray:none;
}
</style>
  
  
  
  
  
  
  <path
     class="land by"
     d="M 1447.5146,309.5976 C 1448.5898,308.5426 1449.4804,307.2335 1451.2158,306.9685 C 1452.9209,306.7086 1453.5298,305.6155 1453.4736,304.2865 C 1453.3395,301.1676 1450.3538,298.9925 1450.0513,295.9176 C 1451.9497,296.3345 1454.4781,296.0356 1456.4820,296.2305 C 1457.0895,296.2896 1458.0485,295.8936 1458.6545,295.7686 C 1459.8753,295.5165 1459.6228,295.0546 1460.5577,294.4425 C 1461.1347,294.0645 1461.7540,294.4266 1462.3478,294.1975 C 1462.8119,294.0195 1463.0773,293.6026 1463.5686,293.4196 C 1464.5093,293.0695 1466.3680,292.9685 1465.6267,294.2615 C 1466.1110,294.3986 1466.9142,294.3535 1467.2874,293.9346 C 1468.0927,293.0346 1466.2082,292.7265 1465.6775,292.5346 C 1467.8610,290.7505 1466.5729,288.8476 1469.4775,287.6386 C 1470.8293,287.0765 1471.1145,285.9296 1472.7947,286.0555 C 1474.6204,286.1925 1473.8249,285.3976 1475.2910,284.8295 C 1473.4173,284.4015 1471.9081,283.7926 1474.1617,281.8716 C 1475.6046,280.6456 1478.0975,280.1945 1479.8189,280.6386 C 1481.8922,281.1735 1482.3011,278.7676 1484.3666,278.1676 C 1485.4625,277.8485 1486.8323,278.8456 1487.4172,278.4946 C 1488.5895,277.7926 1489.5202,278.5106 1489.8649,279.2355 C 1490.0962,279.7156 1494.0319,278.6456 1495.1570,279.6166 C 1495.5575,279.9606 1494.7658,280.6785 1495.2182,281.0965 C 1495.8247,281.6596 1497.4384,281.2645 1498.2186,280.9726 C 1500.9625,279.9456 1502.4960,280.3406 1504.5848,281.7015 C 1505.1512,282.0706 1506.9666,282.3166 1506.8546,283.1135 C 1506.6672,284.4375 1506.5089,284.7226 1507.0894,285.9165 C 1507.4708,286.7036 1506.8837,287.2076 1506.2893,287.8515 C 1505.2640,288.9665 1507.1820,289.3936 1507.7725,290.0596 C 1509.1457,291.6096 1509.3391,293.5516 1511.7916,294.2475 C 1512.5014,294.4495 1513.5768,294.6585 1513.7667,295.3655 C 1514.0262,296.2436 1512.6309,296.9425 1514.0087,297.2876 C 1514.4587,297.2355 1514.9011,297.1395 1515.3385,296.9995 C 1515.9433,296.8976 1516.6295,297.3016 1517.2120,297.3596 C 1519.0348,297.5426 1517.9084,298.0765 1518.6104,298.9715 C 1518.9853,299.4525 1519.9314,299.4916 1520.4310,299.8806 C 1521.7691,300.9216 1519.5322,300.8806 1518.9618,301.1746 C 1517.9402,301.7006 1517.7081,302.5206 1516.2111,302.8206 C 1514.3465,303.1936 1513.7194,301.8286 1512.0992,301.8485 C 1508.6296,301.8926 1510.3652,304.0446 1511.5754,304.9706 C 1512.3416,305.5575 1511.8514,306.6995 1511.9633,307.5106 C 1512.1458,308.8395 1512.7802,309.9635 1513.4457,311.1105 C 1509.5326,311.2156 1505.9130,310.8356 1503.9157,314.7656 C 1503.4456,315.6945 1504.4397,316.5016 1504.6104,317.3585 C 1504.9146,318.9076 1502.7983,317.6515 1502.3985,317.1606 C 1501.2366,315.7296 1499.4351,316.6436 1497.6417,316.2516 C 1496.9103,316.0926 1495.5434,316.6216 1494.9556,317.0865 C 1494.3785,317.5446 1493.8367,315.3865 1493.4359,315.1966 C 1492.4276,314.7156 1490.2709,315.8096 1490.2914,316.8716 C 1489.6837,316.6236 1489.7632,315.7876 1489.1978,315.5765 C 1488.6112,315.3566 1487.7574,315.9726 1487.2708,315.6415 C 1486.5849,315.1766 1485.8282,315.2135 1484.9585,315.2966 C 1483.7812,315.4085 1483.3209,314.7335 1483.0214,315.9346 C 1482.3167,315.7765 1481.8411,315.2726 1481.1219,315.1426 C 1480.2542,314.9855 1479.4630,315.6026 1478.8291,314.8845 C 1477.6029,313.4995 1475.2677,313.6585 1473.2800,313.3055 C 1471.2647,312.9486 1468.9109,312.5756 1466.8115,312.6096 C 1465.4802,312.6316 1464.1502,312.2595 1462.8292,312.3705 C 1461.6690,312.4676 1460.5397,312.8385 1459.3746,312.8385 C 1456.8423,312.8385 1456.6949,313.6796 1454.8544,314.8736 C 1453.8821,315.5056 1453.2498,315.0786 1452.2881,314.9235 C 1451.0411,314.7226 1451.5208,315.3356 1450.8713,315.8275 C 1449.9031,316.5605 1451.2357,312.4176 1451.2607,312.3245 C 1451.7961,310.4056 1448.3264,310.7926 1447.5146,309.5976"
     id="by" />
  
  
  
  
  
  
  
  
  
  
  
  
  
  
  
  
  
  
  
  
  
  
  
  
  
  
  
  
  
  
  
  
  
  
  
  
  
  
  
  
  
  
  
  
  
  
  
  
  
  
  
  
  
  
  
  
  
  
  
  
  
  
  
  
  
  
  
  
  
  
  
  
  
  
  
  
  
  
  
  
  
  
  
  
  
  
  
  
  
  
  
  
  
  
  
  
  
  
  
  
  
  
  
  
  
  
  
  
  
  
  
  
  
  
  
  
  
  
  
  
  
  
  
  
  
  
  
  
  
  
  
  
  
  
  
  
  
  
  
  
  
  
  
  
  
  
  
  
  
  
  
  
  
  
  
  
  
  
  
  
  
  
  
  
  
  
  
  
  
  
  
  
  
  
  
  
  
  
  
  
  
  
  
  
  
  
  
  
  
  
  
  
  
  
  
  
  
  
  
  
  
  
  
  
  
  
  
  
  
  
  
  
  
  
  
  
  
  
  
  
  
  
  
  
  
</svg>
