<?xml version="1.0" encoding="UTF-8" standalone="no"?>
<svg
   xmlns:dc="http://purl.org/dc/elements/1.1/"
   xmlns:cc="http://web.resource.org/cc/"
   xmlns:rdf="http://www.w3.org/1999/02/22-rdf-syntax-ns#"
   xmlns:svg="http://www.w3.org/2000/svg"
   xmlns="http://www.w3.org/2000/svg"
   xmlns:sodipodi="http://sodipodi.sourceforge.net/DTD/sodipodi-0.dtd"
   xmlns:inkscape="http://www.inkscape.org/namespaces/inkscape"
   viewBox="0 0 2752.766 1537.631"
   version="1.0"
   height="476.7276"
   width="939.74725"
   id="svg1926"
   sodipodi:version="0.32"
   inkscape:version="0.45.1"
   sodipodi:docname="BlankMap-World6.svg"
   sodipodi:docbase="/home/bennett/Desktop"
   inkscape:output_extension="org.inkscape.output.svg.inkscape">
  <sodipodi:namedview
     inkscape:window-height="590"
     inkscape:window-width="822"
     inkscape:pageshadow="2"
     inkscape:pageopacity="0.0"
     guidetolerance="10.0"
     gridtolerance="10.0"
     objecttolerance="10.0"
     borderopacity="1.0"
     bordercolor="#666666"
     pagecolor="#ffffff"
     id="base"
     inkscape:zoom="0.77893284"
     inkscape:cx="469.87363"
     inkscape:cy="238.3638"
     inkscape:window-x="178"
     inkscape:window-y="46"
     inkscape:current-layer="svg1926" />
  <metadata
     id="metadata24111">
    <rdf:RDF>
      <cc:Work
         rdf:about="">
        <dc:format>image/svg+xml</dc:format>
        <dc:type
           rdf:resource="http://purl.org/dc/dcmitype/StillImage" />
        <cc:license
           rdf:resource="http://web.resource.org/cc/PublicDomain" />
        <dc:title>Blank World Map</dc:title>
      </cc:Work>
      <cc:License
         rdf:about="http://web.resource.org/cc/PublicDomain">
        <cc:permits
           rdf:resource="http://web.resource.org/cc/Reproduction" />
        <cc:permits
           rdf:resource="http://web.resource.org/cc/Distribution" />
        <cc:permits
           rdf:resource="http://web.resource.org/cc/DerivativeWorks" />
      </cc:License>
    </rdf:RDF>
  </metadata>
  <defs
     id="defs1930" />
  <style
     type="text/css"
     id="style_css_sheet">
/*
 * Below are Cascading Style Sheet (CSS) definitions in use in this file,
 * which allow easily changing how countries are displayed.
 *
 */

/*
 * Circles around small countries
 *
 * Change opacity to 1 to display all circles.
 *
 */
.circle
{
   opacity:0;
   fill:#b9b9b9;
   fill-opacity:1;
   stroke:black;
   stroke-width:0.99986893;
   stroke-miterlimit:3.97446823;
   stroke-dasharray:none;
   stroke-opacity:1;
}

/*
 * Land
 */
.land
{
   fill: #b9b9b9;
   fill-opacity: 1;
   stroke: #ffffff;
   stroke-opacity: 1;
   stroke-width: 0.99986997;
   stroke-miterlimit: 3.97446823;
   stroke-dasharray: none;
}

/*
 * Additional style rules
 *
 * The following are examples of colouring countries.  You can substitute these with your own styles to colour the countries on the map.
 *
 * Color a few countries:
 *
 * .gb, .au, .nc
 * {
 *    fill:       #ff0000;
 * }
 *
 * Color a few small country circles (and the countries):
 *
 * .ms, .ky
 * {
 *    opacity:    1;
 *    fill:       #ff0000;
 * }
 *
 */

/*
 * Antarctica
 */

.aq
{
   fill:#e6e6e6;
}

/*
 * Sea
 */

.ocean
{
   opacity: 1;
   color: #000000;
   fill:white;
   fill-opacity:1;
   fill-rule:nonzero;
   stroke:#000000;
   stroke-width:0.5;
   stroke-linecap:butt;
   stroke-linejoin:miter;
   marker:none;
   marker-start:none;
   marker-mid:none;
   marker-end:none;
   stroke-miterlimit:1;
   stroke-dasharray:none;
   stroke-dashoffset:0;
   stroke-opacity:1;
   visibility:visible;
   display:inline;
   overflow:visible;
}

.lake
{
   fill:#ffffff;
   fill-opacity:1;
   stroke:#ffffff;
   stroke-opacity:1;
   stroke-width:0.99986997;
   stroke-miterlimit:3.97446823;
   stroke-dasharray:none;
}
</style>
  
  
  
  
  
  
  
  
  
  
  
  
  
  
  
  
  
  
  
  
  
  
  
  
  
  
  
  
  <path
     class="land cd"
     d="M 1363.8312,809.4986 C 1364.5177,808.9775 1365.8650,809.2835 1366.1333,808.3515 C 1366.3507,807.5965 1366.6996,804.7655 1366.1682,804.1585 C 1364.7778,802.5706 1369.9357,800.1706 1370.9462,799.2676 C 1371.2212,800.4145 1372.9030,800.5815 1372.9721,801.7885 C 1373.5097,801.2296 1374.2208,800.8986 1374.8185,800.4176 C 1375.6340,799.7616 1375.2906,798.5725 1375.9978,797.8285 C 1377.2017,799.4195 1378.9940,796.3755 1380.4135,797.0846 C 1381.7659,797.7605 1380.5196,798.0616 1380.3133,798.9085 C 1380.0821,799.8596 1380.6879,800.9016 1380.6899,801.8575 C 1381.2879,801.0856 1382.6143,802.0595 1383.4218,801.4986 C 1384.6140,800.6695 1385.3518,799.0946 1386.2578,797.9825 C 1386.7277,797.4066 1388.6416,796.4815 1388.7413,795.9585 C 1389.0067,794.5765 1390.1564,794.2455 1391.2976,793.7586 C 1393.9525,792.6245 1394.4218,787.6205 1394.3572,785.2305 C 1394.3076,783.4116 1394.4732,781.7676 1394.2437,779.9515 C 1394.0241,778.2096 1395.8556,777.4965 1396.9525,776.3845 C 1399.5312,773.7726 1399.0454,771.4535 1402.0738,768.6925 C 1403.3974,767.4858 1404.4584,766.5036 1405.4421,765.1155 C 1406.4217,763.7336 1405.7129,761.7156 1406.1104,760.1305 C 1406.4600,758.7386 1407.5566,757.4625 1407.7872,756.1215 C 1408.0456,754.6176 1407.1389,752.7626 1407.1984,751.1956 C 1407.2657,749.4245 1408.2912,747.8715 1408.5816,746.1455 C 1408.8630,744.4746 1408.3744,742.7075 1408.7548,741.0535 C 1409.4711,737.9396 1411.6544,735.4145 1412.7291,732.4535 C 1413.3539,730.7336 1412.7463,728.8976 1412.7038,727.1436 C 1412.6843,726.3346 1413.0623,725.4865 1412.9357,724.6956 C 1412.8238,723.9905 1412.4053,723.4026 1412.2142,722.7246 C 1411.9113,721.6466 1413.7941,721.6756 1414.2287,720.6925 C 1414.8297,719.3356 1415.4624,718.1436 1416.4972,717.0456 C 1417.4879,715.9936 1418.7252,715.0936 1420.2343,715.1046 C 1421.5120,715.1136 1422.0167,716.2165 1422.8317,716.3976 C 1424.7258,716.8166 1426.4735,718.8636 1427.1746,720.6036 C 1427.7457,722.0245 1429.7939,720.9636 1430.9467,721.3106 C 1431.5716,721.4986 1431.8775,722.3436 1432.5973,722.3095 C 1433.2351,722.2785 1433.3667,722.1645 1434.0239,722.5005 C 1435.0137,723.0065 1435.2141,722.4986 1436.1883,722.4366 C 1436.8391,722.3945 1437.5533,722.7386 1438.1489,722.9585 C 1439.2231,723.3565 1440.6890,724.1315 1441.8649,723.7186 C 1443.9673,722.9805 1443.3463,717.9696 1446.1456,717.8386 C 1447.7370,717.7626 1448.1449,720.9805 1450.2317,719.0155 C 1451.1139,718.1845 1457.1885,717.3826 1456.8380,715.3905 C 1458.0952,715.3365 1458.5027,717.0595 1459.7102,716.9385 C 1461.1603,716.7926 1463.6453,716.5746 1464.2613,715.0305 C 1464.4916,714.4546 1463.9157,713.8795 1464.6811,713.4976 C 1465.6195,713.0316 1466.3843,713.3095 1467.1071,714.0255 C 1468.2647,715.1726 1469.3593,713.8225 1470.6446,714.4335 C 1471.2808,714.7355 1471.8052,715.2156 1472.4281,715.5385 C 1473.1536,715.9145 1473.6763,715.5946 1474.4472,715.7106 C 1476.2771,715.9855 1477.0074,713.9546 1478.9297,715.0485 C 1479.6607,715.4646 1482.1963,717.0696 1482.1869,718.0186 C 1482.1833,718.4836 1482.7795,719.6305 1483.2298,719.8146 C 1485.1227,720.5875 1486.9129,723.3815 1488.9528,721.4736 C 1490.1083,720.3916 1490.9577,720.1756 1492.4762,720.9185 C 1494.0364,721.6835 1495.0596,721.5266 1495.5981,719.5556 C 1496.1505,717.5485 1499.8442,723.1966 1500.0557,723.5556 C 1501.0215,725.1916 1505.2150,725.7275 1504.0258,728.2785 C 1504.9491,728.0625 1506.0643,728.0055 1506.2855,729.1785 C 1506.3992,729.4915 1506.5561,729.7816 1506.7582,730.0456 C 1506.8826,730.6476 1505.9663,731.6756 1505.8674,732.3106 C 1505.7349,733.1626 1506.3065,733.7726 1506.3992,734.5986 C 1506.5284,735.7565 1505.3010,736.6706 1505.3952,737.8386 C 1505.5249,739.4656 1510.2152,739.2515 1509.4720,741.4535 C 1508.5977,744.0815 1505.4741,746.6445 1503.5999,748.5925 C 1502.3600,749.8805 1500.4079,750.9416 1499.5463,752.5915 C 1499.0072,753.6255 1499.8493,754.7976 1499.1952,755.8555 C 1498.4702,757.0295 1497.7497,758.7985 1497.5959,760.1806 C 1497.4580,761.4185 1497.4761,762.6695 1497.3912,763.9116 C 1497.2915,765.3646 1496.6015,766.6336 1496.4537,768.0136 C 1496.3466,769.0226 1497.1019,770.4385 1496.6387,771.3626 C 1496.1125,772.4135 1494.9448,773.0335 1494.1764,773.8845 C 1492.9873,775.2015 1493.4482,776.1215 1493.4065,777.6666 C 1493.3794,778.6845 1492.3336,779.2446 1491.7831,779.9715 C 1490.5682,781.5746 1492.1050,783.2305 1492.9335,784.8216 C 1493.5547,786.0155 1494.0261,786.2835 1493.8592,787.6896 C 1493.7142,788.9176 1493.9004,790.1505 1493.8187,791.3916 C 1493.6459,794.1766 1495.6735,796.3315 1495.2023,799.2876 C 1494.7063,802.3916 1495.2805,804.4575 1496.4592,807.4185 C 1497.1611,809.1785 1496.1971,809.8475 1496.0456,811.4955 C 1495.9185,812.8726 1496.2300,814.6576 1497.0312,815.8106 C 1498.6730,818.1735 1501.4019,819.1025 1502.3272,822.0255 C 1503.2426,824.9206 1504.8247,827.5535 1505.6599,830.4515 C 1500.9525,831.5245 1496.1192,831.9625 1491.3963,832.9725 C 1493.3971,836.1966 1488.3321,837.5366 1487.4414,839.9515 C 1490.1796,840.7895 1489.3283,844.9865 1489.1711,847.0376 C 1489.0558,848.5305 1489.6429,849.9406 1489.5747,851.4185 C 1489.5385,852.1935 1489.1021,852.5696 1488.8001,853.2386 C 1488.3632,854.2065 1488.3340,855.2966 1488.0978,856.3185 C 1487.6317,858.3246 1486.9637,859.6526 1488.2703,861.5925 C 1489.1838,862.9425 1490.7198,864.5506 1491.9190,865.6576 C 1492.4568,866.1545 1495.1269,867.6605 1495.6198,866.7336 C 1496.4117,865.2405 1496.6071,865.3515 1498.2718,864.7215 C 1498.3280,867.6186 1498.2868,870.5266 1498.2643,873.4226 C 1498.2599,873.8696 1498.6335,875.7785 1497.8790,875.8536 C 1496.9957,875.9416 1496.7787,874.9256 1497.3811,874.4406 C 1496.0426,872.8475 1493.1983,877.5915 1491.7608,874.6075 C 1491.2819,873.6136 1491.0582,872.5785 1490.3666,871.6775 C 1489.9734,871.1656 1488.5703,870.5065 1488.4405,869.9016 C 1488.1864,868.7186 1488.0619,867.3465 1486.5609,867.3045 C 1485.3038,867.2695 1484.7441,865.9646 1483.5346,865.8206 C 1482.5238,865.6996 1481.9157,866.2755 1481.1991,865.1745 C 1480.6449,864.3206 1480.7011,863.2565 1479.9012,862.5556 C 1478.7649,861.5556 1477.7892,858.0345 1476.8485,861.1526 C 1475.8881,864.3686 1474.3199,862.6326 1471.7966,862.7215 C 1470.0960,862.7816 1469.5938,862.1996 1468.1502,861.5525 C 1468.0532,861.5095 1466.5401,861.1516 1466.4979,861.1585 C 1464.2123,861.5585 1463.4023,858.2315 1464.1931,856.6526 C 1462.7880,856.7315 1461.3937,857.0706 1460.0698,857.5226 C 1458.4481,858.0756 1458.0304,858.5456 1456.3147,858.1726 C 1457.1169,857.4235 1457.3341,856.1255 1456.4211,855.3296 C 1455.8054,854.7935 1455.0152,855.4105 1455.0746,854.5055 C 1455.1526,853.3425 1453.6949,853.9646 1453.3676,854.3275 C 1452.5807,855.1996 1451.7627,854.8356 1450.7507,854.5765 C 1449.5352,854.2636 1448.8038,854.9736 1447.7168,855.3045 C 1446.6809,855.6196 1445.7994,854.9896 1444.7897,855.2015 C 1444.4716,855.2686 1442.9650,855.1176 1442.9249,855.1386 C 1442.0652,855.6015 1441.6339,856.8995 1440.4439,856.8705 C 1440.7049,855.9815 1440.1629,855.2835 1440.0000,854.4485 C 1439.7751,853.3016 1440.7514,853.1866 1440.9972,852.3045 C 1441.5656,850.2595 1440.5496,846.6196 1439.2878,844.9746 C 1437.7512,842.9675 1437.0900,841.7115 1437.2594,839.1136 C 1437.4341,836.4285 1438.4868,833.6115 1437.7642,830.9396 C 1437.4869,829.9185 1436.7514,829.0326 1436.7576,827.9496 C 1436.7656,826.7255 1437.2968,825.5796 1437.3801,824.3646 C 1437.5180,822.3626 1436.2190,822.4045 1434.5928,822.3895 C 1433.0448,822.3765 1431.5070,822.5266 1429.9636,822.5946 C 1426.8868,822.7286 1427.6276,822.0376 1428.1472,819.3605 C 1427.4366,819.3605 1426.6017,819.0906 1425.9121,819.3605 C 1425.4454,819.5426 1425.9276,819.8356 1425.6666,820.0595 C 1424.8327,820.7766 1420.9743,820.1505 1419.8537,820.1505 C 1420.2339,821.0965 1419.3209,822.2035 1419.4890,823.2146 C 1419.6257,824.0316 1419.8910,825.3285 1418.5826,825.0506 C 1419.0159,826.2966 1418.2677,827.5326 1418.5367,828.7906 C 1418.0060,828.7906 1414.0196,829.2835 1413.9923,828.5815 C 1413.9471,827.4275 1411.6015,828.6885 1411.0380,828.7386 C 1410.5217,828.7845 1409.2496,828.5815 1408.9007,829.1466 C 1408.6581,829.5406 1408.8381,829.6096 1408.2097,829.7305 C 1407.6997,829.8285 1407.8037,828.8626 1407.1309,829.2855 C 1406.6310,829.5986 1405.4618,829.7056 1404.8884,829.5865 C 1403.0606,829.2065 1402.4764,825.1526 1401.5542,823.8185 C 1401.2290,823.3486 1400.7511,823.0116 1400.4170,822.5445 C 1399.7993,821.6806 1400.2574,821.0606 1400.1247,820.1395 C 1399.8893,818.5005 1398.6459,817.2966 1398.4503,815.5485 C 1398.3084,814.2816 1398.1162,813.1165 1397.7416,811.8986 C 1397.2608,810.3325 1396.4594,810.2726 1394.8628,810.2286 C 1390.4697,810.1075 1386.1158,810.4026 1381.7303,810.5416 C 1378.1840,810.6535 1374.0406,810.7446 1370.5612,810.0756 C 1367.7782,809.5395 1365.4776,813.6766 1363.8312,809.4986"
     id="cd" />
  
  
  
  
  
  
  
  
  
  
  
  
  
  
  
  
  
  
  
  
  
  
  
  
  
  
  
  
  
  
  
  
  
  
  
  
  
  
  
  
  
  
  
  
  
  
  
  
  
  
  
  
  
  
  
  
  
  
  
  
  
  
  
  
  
  
  
  
  
  
  
  
  
  
  
  
  
  
  
  
  
  
  
  
  
  
  
  
  
  
  
  
  
  
  
  
  
  
  
  
  
  
  
  
  
  
  
  
  
  
  
  
  
  
  
  
  
  
  
  
  
  
  
  
  
  
  
  
  
  
  
  
  
  
  
  
  
  
  
  
  
  
  
  
  
  
  
  
  
  
  
  
  
  
  
  
  
  
  
  
  
  
  
  
  
  
  
  
  
  
  
  
  
  
  
  
  
  
  
  
  
  
  
  
  
  
  
  
  
  
  
  
  
  
  
  
  
  
  
  
  
  
  
</svg>
