<?xml version="1.0" encoding="UTF-8" standalone="no"?>
<svg
   xmlns:dc="http://purl.org/dc/elements/1.1/"
   xmlns:cc="http://web.resource.org/cc/"
   xmlns:rdf="http://www.w3.org/1999/02/22-rdf-syntax-ns#"
   xmlns:svg="http://www.w3.org/2000/svg"
   xmlns="http://www.w3.org/2000/svg"
   xmlns:sodipodi="http://sodipodi.sourceforge.net/DTD/sodipodi-0.dtd"
   xmlns:inkscape="http://www.inkscape.org/namespaces/inkscape"
   viewBox="0 0 2752.766 1537.631"
   version="1.0"
   height="476.7276"
   width="939.74725"
   id="svg1926"
   sodipodi:version="0.32"
   inkscape:version="0.45.1"
   sodipodi:docname="BlankMap-World6.svg"
   sodipodi:docbase="/home/bennett/Desktop"
   inkscape:output_extension="org.inkscape.output.svg.inkscape">
  <sodipodi:namedview
     inkscape:window-height="590"
     inkscape:window-width="822"
     inkscape:pageshadow="2"
     inkscape:pageopacity="0.0"
     guidetolerance="10.0"
     gridtolerance="10.0"
     objecttolerance="10.0"
     borderopacity="1.0"
     bordercolor="#666666"
     pagecolor="#ffffff"
     id="base"
     inkscape:zoom="0.77893284"
     inkscape:cx="469.87363"
     inkscape:cy="238.3638"
     inkscape:window-x="178"
     inkscape:window-y="46"
     inkscape:current-layer="svg1926" />
  <metadata
     id="metadata24111">
    <rdf:RDF>
      <cc:Work
         rdf:about="">
        <dc:format>image/svg+xml</dc:format>
        <dc:type
           rdf:resource="http://purl.org/dc/dcmitype/StillImage" />
        <cc:license
           rdf:resource="http://web.resource.org/cc/PublicDomain" />
        <dc:title>Blank World Map</dc:title>
      </cc:Work>
      <cc:License
         rdf:about="http://web.resource.org/cc/PublicDomain">
        <cc:permits
           rdf:resource="http://web.resource.org/cc/Reproduction" />
        <cc:permits
           rdf:resource="http://web.resource.org/cc/Distribution" />
        <cc:permits
           rdf:resource="http://web.resource.org/cc/DerivativeWorks" />
      </cc:License>
    </rdf:RDF>
  </metadata>
  <defs
     id="defs1930" />
  <style
     type="text/css"
     id="style_css_sheet">
/*
 * Below are Cascading Style Sheet (CSS) definitions in use in this file,
 * which allow easily changing how countries are displayed.
 *
 */

/*
 * Circles around small countries
 *
 * Change opacity to 1 to display all circles.
 *
 */
.circle
{
   opacity:0;
   fill:#b9b9b9;
   fill-opacity:1;
   stroke:black;
   stroke-width:0.99986893;
   stroke-miterlimit:3.97446823;
   stroke-dasharray:none;
   stroke-opacity:1;
}

/*
 * Land
 */
.land
{
   fill: #b9b9b9;
   fill-opacity: 1;
   stroke: #ffffff;
   stroke-opacity: 1;
   stroke-width: 0.99986997;
   stroke-miterlimit: 3.97446823;
   stroke-dasharray: none;
}

/*
 * Additional style rules
 *
 * The following are examples of colouring countries.  You can substitute these with your own styles to colour the countries on the map.
 *
 * Color a few countries:
 *
 * .gb, .au, .nc
 * {
 *    fill:       #ff0000;
 * }
 *
 * Color a few small country circles (and the countries):
 *
 * .ms, .ky
 * {
 *    opacity:    1;
 *    fill:       #ff0000;
 * }
 *
 */

/*
 * Antarctica
 */

.aq
{
   fill:#e6e6e6;
}

/*
 * Sea
 */

.ocean
{
   opacity: 1;
   color: #000000;
   fill:white;
   fill-opacity:1;
   fill-rule:nonzero;
   stroke:#000000;
   stroke-width:0.5;
   stroke-linecap:butt;
   stroke-linejoin:miter;
   marker:none;
   marker-start:none;
   marker-mid:none;
   marker-end:none;
   stroke-miterlimit:1;
   stroke-dasharray:none;
   stroke-dashoffset:0;
   stroke-opacity:1;
   visibility:visible;
   display:inline;
   overflow:visible;
}

.lake
{
   fill:#ffffff;
   fill-opacity:1;
   stroke:#ffffff;
   stroke-opacity:1;
   stroke-width:0.99986997;
   stroke-miterlimit:3.97446823;
   stroke-dasharray:none;
}
</style>
  
  
  
  
  
  
  
  
  
  
  
  
  
  
  
  
  
  
  
  
  
  
  
  
  
  
  
  
  
  
  
  
  
  
  
  
  
  
  
  
  
  
  
  
  
  
  
  
  
  
  
  
  
  
  
  
  
  
  
  
  
  
  
  
  
  
  
  
  
  
  
  
  
  
  
  
  
  
  
  
  
  
  
  
  
  
  
  
  
  
  
  
  
  
  
  
  
  
  
  
  
  
  
  
  
  
  
  
  
  
  
  
  
  
  
  
  
  
  
  
  
  
  
  
  
  
  
  
  
  
  
  
  
  <path
     class="land cf"
     d="M 1380.6423,707.2536 C 1381.1353,706.4575 1381.8741,705.9285 1382.5841,705.3456 C 1383.6868,704.4416 1383.7948,703.4026 1384.5076,702.2666 C 1385.7198,700.3346 1386.1704,698.0796 1387.5324,696.2405 C 1389.2201,693.9596 1389.8663,695.4556 1392.0305,694.8285 C 1393.1598,694.5015 1394.0482,693.6916 1395.1437,693.3425 C 1396.2251,692.9976 1395.9365,691.8235 1397.0825,691.4145 C 1397.3910,692.6236 1398.3373,693.3135 1399.0176,694.2945 C 1399.4085,693.3125 1401.4911,692.7296 1402.3254,692.0366 C 1404.0567,690.5996 1406.3426,690.4506 1408.4815,690.4456 C 1410.3535,690.4416 1412.0613,690.3745 1413.4345,688.9736 C 1414.1958,688.1975 1416.7296,685.5996 1416.5950,684.4325 C 1416.5124,683.7115 1414.5640,683.7386 1414.9266,682.8826 C 1415.7566,680.9226 1418.7781,681.5485 1420.3835,681.4896 C 1424.0414,681.3546 1427.7804,680.2486 1430.1063,677.3135 C 1431.3208,675.7795 1432.1112,674.1676 1433.7036,672.9955 C 1434.5100,672.4026 1436.4292,670.4786 1436.5515,669.4546 C 1436.7370,667.9435 1436.5207,667.4145 1438.1319,666.7776 C 1439.7796,666.1245 1441.0866,664.5316 1442.9542,664.4846 C 1445.0339,664.4316 1445.4928,665.8855 1446.6490,667.1806 C 1448.1577,668.8715 1449.5281,670.3575 1450.5654,672.4095 C 1451.5203,674.2985 1451.5836,676.0026 1451.3689,678.0725 C 1451.2095,679.6196 1449.5895,680.3626 1449.8810,681.9105 C 1450.1467,681.8156 1450.4105,681.7196 1450.6762,681.6236 C 1450.8839,682.4245 1450.4368,683.1436 1450.1574,683.8546 C 1451.7591,684.1455 1453.6502,683.7325 1455.1293,684.5466 C 1456.7290,685.4266 1454.0877,687.7085 1457.0898,688.2175 C 1458.1008,688.3895 1459.4874,688.2805 1460.3439,688.9285 C 1461.3419,689.6845 1461.7592,690.6455 1462.9201,691.3246 C 1464.5420,692.2745 1462.9696,692.9345 1463.0008,693.8615 C 1463.0340,694.9216 1464.7216,696.2246 1465.5377,696.7085 C 1466.4156,697.2305 1467.3913,697.5595 1468.2884,698.0495 C 1469.6393,698.7895 1469.3702,699.3916 1470.1624,700.4855 C 1470.6684,701.1845 1472.5943,701.5886 1472.0411,702.6745 C 1471.3043,704.1205 1471.6628,704.4746 1472.8230,705.3815 C 1473.7075,706.0725 1472.3716,707.1756 1474.0538,707.5126 C 1475.0959,707.7215 1475.8260,708.3916 1476.7991,708.8926 C 1478.3653,709.6985 1478.6090,710.6055 1478.6777,712.3135 C 1478.7416,713.8855 1480.3887,714.7426 1480.3356,716.1816 C 1479.1811,714.6305 1477.5583,714.0525 1476.2776,715.5095 C 1475.8241,716.0266 1474.8180,715.7906 1474.2368,715.7315 C 1473.9553,715.6366 1473.6817,715.6555 1473.4191,715.7885 C 1472.7622,716.1165 1472.7621,715.3696 1472.2642,715.1745 C 1471.2664,714.7845 1470.2566,714.2636 1469.1597,714.4126 C 1467.5083,714.6376 1467.0788,713.3755 1465.6610,713.2165 C 1464.7935,713.1186 1463.9597,714.0005 1464.1206,714.8575 C 1464.3839,716.2605 1462.8614,716.2046 1461.8785,716.5126 C 1460.8987,716.8185 1459.8274,717.1735 1458.9237,716.5105 C 1458.4390,716.1555 1457.1155,714.7626 1456.8204,715.7175 C 1456.4143,717.0276 1453.8302,717.5326 1452.7281,717.8786 C 1451.5230,718.2555 1449.4990,720.2286 1448.3392,719.5155 C 1446.6632,718.4836 1446.0836,717.1386 1444.8584,719.0625 C 1444.4439,719.7146 1443.7719,720.2136 1443.3835,720.8536 C 1442.8530,721.7275 1443.0995,722.9585 1442.1577,723.5996 C 1440.8445,724.4936 1437.5980,722.3626 1435.9683,722.3755 C 1434.0374,722.3926 1432.7286,722.5205 1430.9531,721.4725 C 1429.8665,720.8315 1428.9923,721.4145 1427.8780,721.2146 C 1426.4815,720.9636 1426.9015,719.5005 1426.1356,718.7336 C 1424.8126,717.4045 1422.7133,715.7156 1420.9071,715.1265 C 1418.8687,714.4615 1416.6755,716.6315 1415.7384,718.2305 C 1415.2068,719.1405 1414.4460,720.0495 1414.0804,721.0366 C 1413.7937,721.8075 1412.6890,721.3605 1412.3973,721.7995 C 1411.9297,722.5026 1412.9911,724.2586 1413.0096,725.0775 C 1413.0430,726.5335 1412.6632,727.9746 1412.8137,729.4316 C 1411.8202,727.7776 1409.2045,729.0725 1407.5041,728.8196 C 1406.7409,728.7065 1405.5205,728.2246 1404.8169,727.8995 C 1403.4606,727.2736 1403.3748,728.2805 1401.9912,728.5535 C 1399.9538,728.9556 1397.2931,728.5245 1396.8388,731.0435 C 1396.5934,732.4035 1396.7310,733.8845 1396.4777,735.2015 C 1396.1395,736.9696 1394.9432,738.6756 1394.3363,740.3755 C 1393.8857,738.3955 1393.5265,736.6315 1393.3879,734.6186 C 1393.2484,732.5975 1391.1121,732.7035 1390.0530,731.5236 C 1389.5329,730.9425 1384.1072,724.5996 1386.5954,724.5366 C 1385.3100,723.6295 1385.5789,721.6355 1384.2614,720.6055 C 1382.5519,719.2705 1382.8052,717.3525 1382.7353,715.3456 C 1382.7093,714.5956 1381.7372,714.0825 1381.7655,713.5796 C 1381.8074,712.8375 1382.2401,712.0796 1382.2932,711.2976 C 1382.3525,710.4435 1382.3548,709.5216 1382.1175,708.6906 C 1381.8911,707.9095 1380.9354,708.2736 1380.6423,707.2536"
     id="cf" />
  
  
  
  
  
  
  
  
  
  
  
  
  
  
  
  
  
  
  
  
  
  
  
  
  
  
  
  
  
  
  
  
  
  
  
  
  
  
  
  
  
  
  
  
  
  
  
  
  
  
  
  
  
  
  
  
  
  
  
  
  
  
  
  
  
  
  
  
  
  
  
  
  
  
  
  
  
  
  
  
  
  
  
  
  
  
  
  
  
  
  
  
  
  
  
  
  
  
</svg>
