<?xml version="1.0" encoding="UTF-8" standalone="no"?>
<svg
   xmlns:dc="http://purl.org/dc/elements/1.1/"
   xmlns:cc="http://web.resource.org/cc/"
   xmlns:rdf="http://www.w3.org/1999/02/22-rdf-syntax-ns#"
   xmlns:svg="http://www.w3.org/2000/svg"
   xmlns="http://www.w3.org/2000/svg"
   xmlns:sodipodi="http://sodipodi.sourceforge.net/DTD/sodipodi-0.dtd"
   xmlns:inkscape="http://www.inkscape.org/namespaces/inkscape"
   viewBox="0 0 2752.766 1537.631"
   version="1.0"
   height="476.7276"
   width="939.74725"
   id="svg1926"
   sodipodi:version="0.32"
   inkscape:version="0.45.1"
   sodipodi:docname="BlankMap-World6.svg"
   sodipodi:docbase="/home/bennett/Desktop"
   inkscape:output_extension="org.inkscape.output.svg.inkscape">
  <sodipodi:namedview
     inkscape:window-height="590"
     inkscape:window-width="822"
     inkscape:pageshadow="2"
     inkscape:pageopacity="0.0"
     guidetolerance="10.0"
     gridtolerance="10.0"
     objecttolerance="10.0"
     borderopacity="1.0"
     bordercolor="#666666"
     pagecolor="#ffffff"
     id="base"
     inkscape:zoom="0.77893284"
     inkscape:cx="469.87363"
     inkscape:cy="238.3638"
     inkscape:window-x="178"
     inkscape:window-y="46"
     inkscape:current-layer="svg1926" />
  <metadata
     id="metadata24111">
    <rdf:RDF>
      <cc:Work
         rdf:about="">
        <dc:format>image/svg+xml</dc:format>
        <dc:type
           rdf:resource="http://purl.org/dc/dcmitype/StillImage" />
        <cc:license
           rdf:resource="http://web.resource.org/cc/PublicDomain" />
        <dc:title>Blank World Map</dc:title>
      </cc:Work>
      <cc:License
         rdf:about="http://web.resource.org/cc/PublicDomain">
        <cc:permits
           rdf:resource="http://web.resource.org/cc/Reproduction" />
        <cc:permits
           rdf:resource="http://web.resource.org/cc/Distribution" />
        <cc:permits
           rdf:resource="http://web.resource.org/cc/DerivativeWorks" />
      </cc:License>
    </rdf:RDF>
  </metadata>
  <defs
     id="defs1930" />
  <style
     type="text/css"
     id="style_css_sheet">
/*
 * Below are Cascading Style Sheet (CSS) definitions in use in this file,
 * which allow easily changing how countries are displayed.
 *
 */

/*
 * Circles around small countries
 *
 * Change opacity to 1 to display all circles.
 *
 */
.circle
{
   opacity:0;
   fill:#b9b9b9;
   fill-opacity:1;
   stroke:black;
   stroke-width:0.99986893;
   stroke-miterlimit:3.97446823;
   stroke-dasharray:none;
   stroke-opacity:1;
}

/*
 * Land
 */
.land
{
   fill: #b9b9b9;
   fill-opacity: 1;
   stroke: #ffffff;
   stroke-opacity: 1;
   stroke-width: 0.99986997;
   stroke-miterlimit: 3.97446823;
   stroke-dasharray: none;
}

/*
 * Additional style rules
 *
 * The following are examples of colouring countries.  You can substitute these with your own styles to colour the countries on the map.
 *
 * Color a few countries:
 *
 * .gb, .au, .nc
 * {
 *    fill:       #ff0000;
 * }
 *
 * Color a few small country circles (and the countries):
 *
 * .ms, .ky
 * {
 *    opacity:    1;
 *    fill:       #ff0000;
 * }
 *
 */

/*
 * Antarctica
 */

.aq
{
   fill:#e6e6e6;
}

/*
 * Sea
 */

.ocean
{
   opacity: 1;
   color: #000000;
   fill:white;
   fill-opacity:1;
   fill-rule:nonzero;
   stroke:#000000;
   stroke-width:0.5;
   stroke-linecap:butt;
   stroke-linejoin:miter;
   marker:none;
   marker-start:none;
   marker-mid:none;
   marker-end:none;
   stroke-miterlimit:1;
   stroke-dasharray:none;
   stroke-dashoffset:0;
   stroke-opacity:1;
   visibility:visible;
   display:inline;
   overflow:visible;
}

.lake
{
   fill:#ffffff;
   fill-opacity:1;
   stroke:#ffffff;
   stroke-opacity:1;
   stroke-width:0.99986997;
   stroke-miterlimit:3.97446823;
   stroke-dasharray:none;
}
</style>
  
  
  
  
  
  
  
  
  
  
  
  
  
  
  <path
     class="land ch"
     d="M 1316.1106,361.1495 C 1316.3525,360.7145 1316.6162,360.2926 1316.9018,359.8806 C 1317.2656,359.2335 1316.7472,358.6945 1316.9995,358.0885 C 1317.3698,357.1956 1318.5467,356.8825 1319.1671,356.1825 C 1320.8299,354.3105 1322.5675,352.6925 1324.4339,350.9266 C 1322.7343,351.1665 1323.8784,348.8845 1325.1523,349.7926 C 1326.8598,351.0106 1327.4809,348.9615 1329.0444,348.7665 C 1328.2404,349.6076 1332.3614,348.9615 1333.1206,348.9966 C 1334.5946,349.0636 1335.9217,349.0885 1336.2332,348.2625 C 1335.1087,348.6336 1334.8305,347.6816 1335.8728,347.4325 C 1336.3453,347.3195 1337.1230,347.2806 1337.1495,347.7536 C 1337.1946,348.5706 1339.4669,348.1716 1339.8302,348.1846 C 1341.1787,348.2316 1342.7123,348.6875 1343.7389,349.4796 C 1345.0875,350.5206 1343.0936,352.2165 1342.8656,353.3745 C 1345.4613,353.0856 1345.6756,354.7486 1347.7925,355.1125 C 1348.7066,355.2695 1349.0711,353.7385 1350.0706,353.9896 C 1351.2390,354.2826 1350.2368,355.4436 1350.1352,355.9765 C 1350.0564,356.3906 1351.0779,357.6846 1350.0356,357.7095 C 1349.2874,357.7276 1348.7052,356.5346 1347.9955,357.0906 C 1347.7396,357.2905 1346.8618,358.4665 1347.4732,358.7165 C 1348.5547,359.1576 1347.9141,359.4925 1347.7449,360.4296 C 1346.6912,360.0535 1346.6470,359.0415 1345.3146,359.2776 C 1344.0142,359.5075 1343.8719,359.7525 1342.8037,358.8456 C 1342.6988,358.7566 1341.5321,357.0036 1341.3825,358.4366 C 1341.2452,359.7505 1341.2747,360.0706 1340.2101,361.0636 C 1338.8568,362.3295 1340.0948,365.2976 1337.9066,362.4635 C 1337.4171,361.8326 1336.8419,361.5236 1336.1688,361.0775 C 1335.1390,360.3976 1335.5362,359.1055 1334.5265,358.4846 C 1333.9573,359.1266 1333.2852,359.7756 1332.3584,359.9975 C 1333.3846,361.0446 1331.1820,362.8865 1329.9303,362.7835 C 1327.5704,362.5895 1325.6436,363.9196 1323.8158,362.2296 C 1323.1709,361.6336 1322.2777,361.0075 1322.4799,360.0695 C 1322.7636,358.7586 1321.6910,358.4085 1320.4309,358.5215 C 1318.3135,358.7106 1318.1791,360.9176 1316.1106,361.1495"
     id="ch" />
  
  
  
  
  
  
  
  
  
  
  
  
  
  
  
  
  
  
  
  
  
  
  
  
  
  
  
  
  
  
  
  
  
  
  
  
  
  
  
  
  
  
  
  
  
  
  
  
  
  
  
  
  
  
  
  
  
  
  
  
  
  
  
  
  
  
  
  
  
  
  
  
  
  
  
  
  
  
  
  
  
  
  
  
  
  
  
  
  
  
  
  
  
  
  
  
  
  
  
  
  
  
  
  
  
  
  
  
  
  
  
  
  
  
  
  
  
  
  
  
  
  
  
  
  
  
  
  
  
  
  
  
  
  
  
  
  
  
  
  
  
  
  
  
  
  
  
  
  
  
  
  
  
  
  
  
  
  
  
  
  
  
  
  
  
  
  
  
  
  
  
  
  
  
  
  
  
  
  
  
  
  
  
  
  
  
  
  
  
  
  
  
  
  
  
  
  
  
  
  
  
  
  
  
  
  
  
  
  
  
  
  
  
  
  
  
  
</svg>
