<?xml version="1.0" encoding="UTF-8" standalone="no"?>
<svg
   xmlns:dc="http://purl.org/dc/elements/1.1/"
   xmlns:cc="http://web.resource.org/cc/"
   xmlns:rdf="http://www.w3.org/1999/02/22-rdf-syntax-ns#"
   xmlns:svg="http://www.w3.org/2000/svg"
   xmlns="http://www.w3.org/2000/svg"
   xmlns:sodipodi="http://sodipodi.sourceforge.net/DTD/sodipodi-0.dtd"
   xmlns:inkscape="http://www.inkscape.org/namespaces/inkscape"
   viewBox="0 0 2752.766 1537.631"
   version="1.0"
   height="476.7276"
   width="939.74725"
   id="svg1926"
   sodipodi:version="0.32"
   inkscape:version="0.45.1"
   sodipodi:docname="BlankMap-World6.svg"
   sodipodi:docbase="/home/bennett/Desktop"
   inkscape:output_extension="org.inkscape.output.svg.inkscape">
  <sodipodi:namedview
     inkscape:window-height="590"
     inkscape:window-width="822"
     inkscape:pageshadow="2"
     inkscape:pageopacity="0.0"
     guidetolerance="10.0"
     gridtolerance="10.0"
     objecttolerance="10.0"
     borderopacity="1.0"
     bordercolor="#666666"
     pagecolor="#ffffff"
     id="base"
     inkscape:zoom="0.77893284"
     inkscape:cx="469.87363"
     inkscape:cy="238.3638"
     inkscape:window-x="178"
     inkscape:window-y="46"
     inkscape:current-layer="svg1926" />
  <metadata
     id="metadata24111">
    <rdf:RDF>
      <cc:Work
         rdf:about="">
        <dc:format>image/svg+xml</dc:format>
        <dc:type
           rdf:resource="http://purl.org/dc/dcmitype/StillImage" />
        <cc:license
           rdf:resource="http://web.resource.org/cc/PublicDomain" />
        <dc:title>Blank World Map</dc:title>
      </cc:Work>
      <cc:License
         rdf:about="http://web.resource.org/cc/PublicDomain">
        <cc:permits
           rdf:resource="http://web.resource.org/cc/Reproduction" />
        <cc:permits
           rdf:resource="http://web.resource.org/cc/Distribution" />
        <cc:permits
           rdf:resource="http://web.resource.org/cc/DerivativeWorks" />
      </cc:License>
    </rdf:RDF>
  </metadata>
  <defs
     id="defs1930" />
  <style
     type="text/css"
     id="style_css_sheet">
/*
 * Below are Cascading Style Sheet (CSS) definitions in use in this file,
 * which allow easily changing how countries are displayed.
 *
 */

/*
 * Circles around small countries
 *
 * Change opacity to 1 to display all circles.
 *
 */
.circle
{
   opacity:0;
   fill:#b9b9b9;
   fill-opacity:1;
   stroke:black;
   stroke-width:0.99986893;
   stroke-miterlimit:3.97446823;
   stroke-dasharray:none;
   stroke-opacity:1;
}

/*
 * Land
 */
.land
{
   fill: #b9b9b9;
   fill-opacity: 1;
   stroke: #ffffff;
   stroke-opacity: 1;
   stroke-width: 0.99986997;
   stroke-miterlimit: 3.97446823;
   stroke-dasharray: none;
}

/*
 * Additional style rules
 *
 * The following are examples of colouring countries.  You can substitute these with your own styles to colour the countries on the map.
 *
 * Color a few countries:
 *
 * .gb, .au, .nc
 * {
 *    fill:       #ff0000;
 * }
 *
 * Color a few small country circles (and the countries):
 *
 * .ms, .ky
 * {
 *    opacity:    1;
 *    fill:       #ff0000;
 * }
 *
 */

/*
 * Antarctica
 */

.aq
{
   fill:#e6e6e6;
}

/*
 * Sea
 */

.ocean
{
   opacity: 1;
   color: #000000;
   fill:white;
   fill-opacity:1;
   fill-rule:nonzero;
   stroke:#000000;
   stroke-width:0.5;
   stroke-linecap:butt;
   stroke-linejoin:miter;
   marker:none;
   marker-start:none;
   marker-mid:none;
   marker-end:none;
   stroke-miterlimit:1;
   stroke-dasharray:none;
   stroke-dashoffset:0;
   stroke-opacity:1;
   visibility:visible;
   display:inline;
   overflow:visible;
}

.lake
{
   fill:#ffffff;
   fill-opacity:1;
   stroke:#ffffff;
   stroke-opacity:1;
   stroke-width:0.99986997;
   stroke-miterlimit:3.97446823;
   stroke-dasharray:none;
}
</style>
  
  
  
  
  
  
  
  
  
  
  
  
  <path
     class="land ci"
     d="M 1204.7154,703.2215 C 1205.1380,702.2966 1206.2513,702.0946 1206.6326,701.1005 C 1206.8838,700.4416 1207.0739,699.3895 1207.1112,698.6866 C 1207.1799,697.4116 1206.6487,695.0946 1205.7127,694.1495 C 1206.2992,693.5255 1207.1208,693.8465 1207.7293,694.2215 C 1207.8523,693.4656 1209.0609,692.6416 1208.5734,691.8095 C 1208.1786,691.1366 1208.8007,689.7035 1209.7163,690.1896 C 1209.0162,689.1676 1207.8051,688.5335 1207.4817,687.2726 C 1206.8724,684.8995 1211.3401,686.7655 1212.0647,687.0936 C 1211.5309,685.5176 1211.7089,683.7595 1209.6512,683.4216 C 1210.0155,682.3696 1210.0097,681.2486 1211.3650,681.0456 C 1210.2239,679.7146 1210.0138,680.0026 1210.3924,678.0216 C 1207.9548,679.5946 1207.8793,674.1526 1208.2754,672.9815 C 1208.6343,671.9176 1209.9973,671.8855 1210.7055,671.1816 C 1211.1115,670.7785 1210.9760,670.0355 1211.4028,669.6695 C 1212.0318,669.1315 1212.7896,669.4796 1213.4949,669.1656 C 1213.3662,670.5696 1216.2419,671.9715 1217.3730,671.4696 C 1216.5831,670.2025 1217.8885,670.1305 1218.8195,670.1455 C 1220.0631,670.1645 1219.5904,668.1126 1219.6152,667.2935 C 1220.1093,667.5646 1220.6328,668.4825 1221.3005,668.3016 C 1221.9411,668.1265 1222.0495,666.9235 1222.7218,666.6455 C 1223.2916,667.6436 1222.2999,671.0186 1223.7555,671.3596 C 1224.5029,671.5345 1227.3378,667.6086 1228.1916,669.4746 C 1228.6563,670.4905 1229.8464,670.0986 1230.6875,670.5575 C 1231.8466,671.1906 1231.8948,672.6866 1232.5799,673.5685 C 1233.8289,675.1745 1235.5597,676.1716 1237.5509,676.5095 C 1237.5445,674.7626 1240.1238,674.3855 1241.3521,673.9176 C 1242.4755,673.4896 1245.4107,674.7745 1246.1211,673.7015 C 1246.4747,674.2436 1247.5368,675.1345 1247.7378,675.6155 C 1248.1521,676.6075 1248.6062,677.5775 1249.5013,678.2365 C 1249.6835,678.0055 1249.8516,677.7655 1250.0062,677.5166 C 1250.3398,678.6925 1249.1412,679.9005 1249.6027,681.0326 C 1250.0764,682.1925 1250.6708,682.8135 1250.8428,684.2025 C 1250.9850,685.3525 1251.7125,687.2935 1251.2954,688.3765 C 1250.8250,689.5956 1249.7580,690.2486 1249.1676,691.3555 C 1248.3814,692.8296 1247.3266,693.6632 1247.0390,695.2702 C 1246.7253,697.0152 1246.1947,698.9216 1245.9000,700.6255 C 1245.6040,702.3285 1246.2099,704.6626 1246.7149,706.2876 C 1247.1293,707.6205 1248.2142,709.4195 1247.8323,710.8525 C 1250.3950,710.1436 1249.1630,714.0326 1249.5865,715.2455 C 1249.0705,715.2365 1248.5660,715.3085 1248.0749,715.4615 C 1248.2218,715.1866 1248.3878,714.9216 1248.5720,714.6695 C 1247.3746,716.4775 1246.3678,714.2025 1246.1109,713.3016 C 1245.4623,714.0216 1245.2218,715.0195 1244.1062,715.1015 C 1243.3842,715.1545 1242.4589,714.8135 1241.9384,714.3095 C 1241.5434,715.0426 1240.6252,714.3486 1240.2739,714.0216 C 1240.9013,713.8836 1241.6037,714.4965 1242.0761,713.8056 C 1241.8675,713.5716 1241.6271,713.3795 1241.3518,713.2296 C 1241.6577,714.6676 1241.0608,713.3285 1240.0613,713.5896 C 1240.2709,714.0166 1237.6889,713.7726 1237.0622,713.8415 C 1236.7418,713.8776 1233.5411,714.4485 1233.8004,714.5875 C 1235.4119,715.4546 1238.5468,712.6816 1239.8446,714.3095 C 1237.8477,714.4185 1235.9380,714.7465 1233.9835,715.0936 C 1233.5431,715.1716 1232.6296,715.3596 1232.3452,714.8406 C 1231.9424,714.1096 1230.0108,714.4425 1229.3214,715.1015 C 1230.4548,714.6476 1231.0846,714.7686 1232.2068,715.1735 C 1229.7521,715.4546 1227.1338,715.3206 1224.8247,716.3185 C 1222.8305,717.1795 1221.0455,718.7985 1218.8124,719.0255 C 1217.6754,719.1416 1215.2538,720.4256 1214.4227,721.2296 C 1212.5548,723.0366 1212.2035,719.6985 1212.4870,718.3235 C 1212.8238,716.6875 1213.3791,714.8815 1213.8241,713.5285 C 1214.4157,711.7346 1213.8880,709.7766 1212.4574,708.5846 C 1211.5888,707.8615 1210.3320,707.5366 1210.4633,706.0216 C 1210.6141,704.2835 1205.3105,705.7956 1206.3732,703.7976 C 1205.7377,703.9425 1205.1604,703.6595 1204.7154,703.2215"
     id="ci" />
  
  
  
  
  
  
  
  
  
  
  
  
  
  
  
  
  
  
  
  
  
  
  
  
  
  
  
  
  
  
  
  
  
  
  
  
  
  
  
  
  
  
  
  
  
  
  
  
  
  
  
  
  
  
  
  
  
  
  
  
  
  
  
  
  
  
  
  
  
  
  
  
  
  
  
  
  
  
  
  
  
  
  
  
  
  
  
  
  
  
  
  
  
  
  
  
  
  
  
  
  
  
  
  
  
  
  
  
  
  
  
  
  
  
  
  
  
  
  
  
  
  
  
  
  
  
  
  
  
  
  
  
  
  
  
  
  
  
  
  
  
  
  
  
  
  
  
  
  
  
  
  
  
  
  
  
  
  
  
  
  
  
  
  
  
  
  
  
  
  
  
  
  
  
  
  
  
  
  
  
  
  
  
  
  
  
  
  
  
  
  
  
  
  
  
  
  
  
  
  
  
  
  
  
  
  
  
  
  
  
  
  
  
  
  
  
  
  
  
</svg>
