<?xml version="1.0" encoding="UTF-8" standalone="no"?>
<svg
   xmlns:dc="http://purl.org/dc/elements/1.1/"
   xmlns:cc="http://web.resource.org/cc/"
   xmlns:rdf="http://www.w3.org/1999/02/22-rdf-syntax-ns#"
   xmlns:svg="http://www.w3.org/2000/svg"
   xmlns="http://www.w3.org/2000/svg"
   xmlns:sodipodi="http://sodipodi.sourceforge.net/DTD/sodipodi-0.dtd"
   xmlns:inkscape="http://www.inkscape.org/namespaces/inkscape"
   viewBox="0 0 2752.766 1537.631"
   version="1.0"
   height="476.7276"
   width="939.74725"
   id="svg1926"
   sodipodi:version="0.32"
   inkscape:version="0.45.1"
   sodipodi:docname="BlankMap-World6.svg"
   sodipodi:docbase="/home/bennett/Desktop"
   inkscape:output_extension="org.inkscape.output.svg.inkscape">
  <sodipodi:namedview
     inkscape:window-height="590"
     inkscape:window-width="822"
     inkscape:pageshadow="2"
     inkscape:pageopacity="0.0"
     guidetolerance="10.0"
     gridtolerance="10.0"
     objecttolerance="10.0"
     borderopacity="1.0"
     bordercolor="#666666"
     pagecolor="#ffffff"
     id="base"
     inkscape:zoom="0.77893284"
     inkscape:cx="469.87363"
     inkscape:cy="238.3638"
     inkscape:window-x="178"
     inkscape:window-y="46"
     inkscape:current-layer="svg1926" />
  <metadata
     id="metadata24111">
    <rdf:RDF>
      <cc:Work
         rdf:about="">
        <dc:format>image/svg+xml</dc:format>
        <dc:type
           rdf:resource="http://purl.org/dc/dcmitype/StillImage" />
        <cc:license
           rdf:resource="http://web.resource.org/cc/PublicDomain" />
        <dc:title>Blank World Map</dc:title>
      </cc:Work>
      <cc:License
         rdf:about="http://web.resource.org/cc/PublicDomain">
        <cc:permits
           rdf:resource="http://web.resource.org/cc/Reproduction" />
        <cc:permits
           rdf:resource="http://web.resource.org/cc/Distribution" />
        <cc:permits
           rdf:resource="http://web.resource.org/cc/DerivativeWorks" />
      </cc:License>
    </rdf:RDF>
  </metadata>
  <defs
     id="defs1930" />
  <style
     type="text/css"
     id="style_css_sheet">
/*
 * Below are Cascading Style Sheet (CSS) definitions in use in this file,
 * which allow easily changing how countries are displayed.
 *
 */

/*
 * Circles around small countries
 *
 * Change opacity to 1 to display all circles.
 *
 */
.circle
{
   opacity:0;
   fill:#b9b9b9;
   fill-opacity:1;
   stroke:black;
   stroke-width:0.99986893;
   stroke-miterlimit:3.97446823;
   stroke-dasharray:none;
   stroke-opacity:1;
}

/*
 * Land
 */
.land
{
   fill: #b9b9b9;
   fill-opacity: 1;
   stroke: #ffffff;
   stroke-opacity: 1;
   stroke-width: 0.99986997;
   stroke-miterlimit: 3.97446823;
   stroke-dasharray: none;
}

/*
 * Additional style rules
 *
 * The following are examples of colouring countries.  You can substitute these with your own styles to colour the countries on the map.
 *
 * Color a few countries:
 *
 * .gb, .au, .nc
 * {
 *    fill:       #ff0000;
 * }
 *
 * Color a few small country circles (and the countries):
 *
 * .ms, .ky
 * {
 *    opacity:    1;
 *    fill:       #ff0000;
 * }
 *
 */

/*
 * Antarctica
 */

.aq
{
   fill:#e6e6e6;
}

/*
 * Sea
 */

.ocean
{
   opacity: 1;
   color: #000000;
   fill:white;
   fill-opacity:1;
   fill-rule:nonzero;
   stroke:#000000;
   stroke-width:0.5;
   stroke-linecap:butt;
   stroke-linejoin:miter;
   marker:none;
   marker-start:none;
   marker-mid:none;
   marker-end:none;
   stroke-miterlimit:1;
   stroke-dasharray:none;
   stroke-dashoffset:0;
   stroke-opacity:1;
   visibility:visible;
   display:inline;
   overflow:visible;
}

.lake
{
   fill:#ffffff;
   fill-opacity:1;
   stroke:#ffffff;
   stroke-opacity:1;
   stroke-width:0.99986997;
   stroke-miterlimit:3.97446823;
   stroke-dasharray:none;
}
</style>
  
  
  
  
  
  
  
  
  
  
  
  
  
  
  
  
  
  
  
  
  
  
  
  
  
  
  
  
  
  
  
  
  
  
  
  
  
  
  
  
  
  
  
  
  
  
  
  
  
  
  
  
  
  
  
  
  
  
  
  
  
  
  
  
  
  
  
  
  
  
  
  
  
  
  
  
  
  
  
  
  
  
  
  
  
  
  
  
  
  
  
  
  
  
  
  
  
  
  
  
  
  
  
  
  
  
  
  
  
  
  
  
  
  
  
  
  
  
  
  
  
  
  
  
  
  
  
  
  
  <g
     class="land cl"
     id="cl">
    <path
       d="M 738.9310,1235.6585 C 738.8811,1235.4105 738.6846,1235.2665 738.3419,1235.2275 C 738.5372,1235.3715 738.7338,1235.5155 738.9310,1235.6585"
       id="path6426" />
    <path
       d="M 753.5687,1239.2585 C 753.7135,1239.0685 753.8582,1238.8785 754.0041,1238.6885 C 753.4443,1238.5575 752.7933,1238.6275 752.0530,1238.8985 C 752.7290,1238.8315 753.2341,1238.9515 753.5687,1239.2585"
       id="path6432" />
    <path
       d="M 756.3984,1239.1885 C 756.8435,1238.6965 756.6135,1238.5995 755.7075,1238.8985 C 755.9381,1238.9945 756.1695,1239.0915 756.3984,1239.1885"
       id="path6440" />
    <path
       d="M 757.5268,1239.3385 C 757.5281,1239.0405 757.4125,1238.8015 757.1832,1238.6185 C 757.2974,1238.8595 757.4117,1239.0985 757.5268,1239.3385"
       id="path6442" />
    <path
       d="M 757.7532,1232.7085 C 757.2938,1231.1995 750.8505,1229.8715 748.0834,1231.8485 C 749.7362,1231.3005 749.1113,1232.7695 749.4987,1233.3075 C 749.8348,1233.7725 753.7608,1233.7485 751.5701,1233.9385 C 752.1385,1234.0015 752.7327,1234.0255 753.3540,1234.0085 C 753.8936,1233.9195 753.5332,1233.5295 753.8566,1233.3685 C 754.8644,1232.8655 754.7458,1234.1945 755.0519,1234.3495 C 755.9086,1234.7855 757.6430,1233.4955 757.7532,1232.7085"
       id="path6428" />
    <path
       d="M 752.7037,1236.9585 C 753.0347,1236.7415 753.3643,1236.5245 753.6944,1236.3085 C 752.9120,1236.0075 752.5811,1236.2245 752.7037,1236.9585"
       id="path6430" />
    <path
       d="M 755.7061,1238.3285 C 755.8229,1237.7835 755.6609,1237.3735 755.2212,1237.0985 C 754.8168,1237.3305 754.4564,1237.5975 754.1419,1237.8985 C 754.6569,1238.0475 755.1788,1238.1915 755.7061,1238.3285"
       id="path6434" />
    <path
       d="M 758.0860,1231.8485 C 757.8034,1232.4755 759.0131,1232.3985 759.4842,1232.4185 C 759.1007,1232.1505 758.6357,1231.9595 758.0860,1231.8485"
       id="path6436" />
    <path
       d="M 759.1860,1233.7885 C 758.7030,1233.8095 758.2263,1233.9795 757.7543,1234.2985 C 758.1444,1234.5575 758.6794,1234.6275 759.3590,1234.5085 C 759.3009,1234.2685 759.2422,1234.0295 759.1860,1233.7885"
       id="path6438" />
    <path
       d="M 761.4283,1234.2185 C 762.4448,1233.6625 762.1753,1233.1865 761.1701,1233.4985 C 761.2142,1233.7585 761.3003,1233.9985 761.4283,1234.2185"
       id="path6444" />
    <path
       d="M 704.4123,1217.5185 C 703.7683,1217.5175 703.5810,1217.3955 703.1069,1218.0985 C 703.5465,1217.9235 703.9810,1217.7305 704.4123,1217.5185"
       id="path6364" />
    <path
       d="M 705.9363,1220.3285 C 706.2908,1220.0885 706.6445,1219.8495 706.9994,1219.6085 C 706.1011,1219.3625 705.7467,1219.6025 705.9363,1220.3285"
       id="path6372" />
    <path
       d="M 709.2064,1218.6685 C 708.7589,1218.6975 708.3015,1218.7475 707.8342,1218.8185 C 707.9011,1219.0605 707.9784,1219.2975 708.0678,1219.5285 C 707.5723,1219.3835 707.0519,1219.2665 706.5055,1219.1775 C 707.1166,1219.4135 709.3640,1220.2055 709.2064,1218.6685"
       id="path6374" />
    <path
       d="M 713.6606,1224.7885 C 714.9005,1224.2545 716.2859,1223.8105 717.4800,1223.6385 C 716.7350,1223.3655 717.4084,1222.0745 718.3413,1222.5585 C 718.9662,1221.0565 716.6794,1221.7975 716.5759,1220.8795 C 716.5006,1220.1995 715.3910,1219.5605 714.7386,1220.8285 C 714.7489,1220.2195 714.1247,1219.1355 713.1329,1220.5385 C 713.0012,1219.9745 712.5816,1218.2085 711.1119,1218.8885 C 711.1162,1219.1335 711.1344,1219.3735 711.1635,1219.6095 C 710.6242,1219.5215 710.0279,1219.5215 709.3769,1219.6095 C 710.2312,1220.1075 710.8327,1220.7485 712.0085,1220.9685 C 710.6514,1221.0405 709.5169,1219.4395 707.7049,1220.8985 C 708.5084,1220.7415 708.7851,1220.9885 708.3606,1221.6195 C 711.1014,1220.7825 709.6900,1222.0025 709.8517,1223.1005 C 709.9359,1223.6685 710.6548,1223.9025 711.5344,1223.2135 C 712.7440,1222.2655 714.0873,1222.2245 714.9747,1222.6285 C 714.5321,1222.8635 714.0926,1223.1045 713.6546,1223.3485 C 713.8342,1223.5465 714.0225,1223.7405 714.2183,1223.9285 C 713.4985,1224.1505 712.7926,1224.3175 712.1002,1224.4285 C 712.7403,1224.4185 713.2608,1224.5385 713.6606,1224.7885"
       id="path6376" />
    <path
       d="M 710.2364,1224.7885 C 710.8567,1223.8825 709.7073,1223.8355 708.7660,1224.2885 C 709.5789,1224.1445 710.0682,1224.3115 710.2364,1224.7885"
       id="path6378" />
    <path
       d="M 717.7518,1224.2885 C 717.5635,1224.3115 717.3733,1224.3355 717.1850,1224.3585 C 717.3366,1224.9095 716.8936,1225.2955 716.0232,1225.3685 C 716.5668,1226.4075 719.2624,1224.7385 717.7518,1224.2885"
       id="path6380" />
    <path
       d="M 716.3722,1227.2385 C 716.9058,1226.7875 717.0279,1226.5505 717.6856,1226.6585 C 717.3445,1226.2555 716.7453,1226.2555 715.8862,1226.6585 C 716.0078,1226.8775 716.1681,1227.0715 716.3722,1227.2385"
       id="path6382" />
    <path
       d="M 719.6797,1222.4885 C 719.3481,1222.5245 719.0036,1222.6175 718.6462,1222.7675 C 718.9901,1222.6755 719.3352,1222.5815 719.6797,1222.4885"
       id="path6384" />
    <path
       d="M 722.5429,1223.2085 C 721.9294,1222.9885 721.0075,1223.6025 721.0672,1222.9035 C 721.1180,1222.2935 718.7722,1223.5445 718.2152,1223.5685 C 717.8757,1224.7625 721.6146,1224.8415 720.0926,1226.3785 C 722.4111,1226.4155 721.0653,1224.9455 720.8704,1224.3585 C 721.0514,1224.8145 721.5464,1224.9335 722.3537,1224.7175 C 722.1922,1224.2805 722.2555,1223.7785 722.5429,1223.2085"
       id="path6386" />
    <path
       d="M 718.8633,1226.1585 C 718.7262,1225.9185 718.5508,1225.7015 718.3387,1225.5085 C 718.5128,1225.7255 718.6883,1225.9425 718.8633,1226.1585"
       id="path6388" />
    <path
       d="M 718.1082,1227.5985 C 717.9387,1227.4625 717.7028,1227.3895 717.4022,1227.3785 C 717.6381,1227.4515 717.8734,1227.5255 718.1082,1227.5985"
       id="path6390" />
    <path
       d="M 718.8194,1227.3085 C 719.6365,1226.5685 719.4566,1226.4025 718.2807,1226.8085 C 718.4600,1226.9755 718.6400,1227.1415 718.8194,1227.3085"
       id="path6392" />
    <path
       d="M 725.5175,1223.7795 C 724.8680,1223.4365 723.6707,1223.3135 722.6187,1223.4995 C 722.7393,1223.6345 722.7775,1227.4525 724.5382,1224.6485 C 723.4379,1226.3425 726.7747,1224.7205 725.3223,1226.3785 C 726.0605,1226.2605 726.8143,1226.0665 727.5824,1225.7985 C 727.4691,1225.2745 726.7337,1223.1575 725.9341,1225.1485 C 725.4245,1224.8975 725.2476,1224.3925 725.5175,1223.7795"
       id="path6394" />
    <path
       d="M 720.0940,1229.8985 C 720.3183,1229.3935 720.5378,1229.1855 719.7753,1229.1785 C 719.8818,1229.4185 719.9879,1229.6575 720.0940,1229.8985"
       id="path6396" />
    <path
       d="M 724.0820,1225.6485 C 723.8724,1226.0915 723.7705,1226.2445 724.2978,1226.3785 C 724.2256,1226.1355 724.1541,1225.8915 724.0820,1225.6485"
       id="path6398" />
    <path
       d="M 731.2326,1225.5785 C 731.4645,1224.6895 730.7097,1224.1725 730.7551,1223.3485 C 731.0085,1223.8125 731.5644,1223.8355 732.4202,1223.4185 C 731.4169,1222.8815 732.5700,1221.2305 731.6328,1220.6885 C 730.2522,1219.8895 729.8039,1222.0555 730.3135,1222.5585 C 729.8135,1222.3805 729.1968,1222.4045 728.4644,1222.6285 C 728.6157,1224.1475 729.3543,1225.1985 731.2326,1225.5785"
       id="path6400" />
    <path
       d="M 727.1780,1231.4885 C 727.3865,1231.2955 727.5957,1231.1015 727.8053,1230.9085 C 726.5317,1231.0365 725.8717,1230.4175 724.4911,1230.6985 C 724.4369,1230.9665 724.4579,1231.2065 724.5517,1231.4185 C 725.7897,1230.5915 726.8222,1230.8695 727.1780,1231.4885"
       id="path6402" />
    <path
       d="M 732.5739,1224.9385 C 733.3718,1224.0555 733.1467,1223.9595 731.8993,1224.6485 C 732.1245,1224.7445 732.3492,1224.8415 732.5739,1224.9385"
       id="path6404" />
    <path
       d="M 731.2359,1233.5695 C 731.9202,1232.9285 732.5082,1232.3685 733.1475,1232.8485 C 733.3334,1231.8215 731.2667,1232.0585 730.3584,1231.9185 C 731.0495,1231.9475 731.8573,1231.6065 732.4512,1231.0585 C 731.7105,1231.0005 730.7447,1231.7025 730.0624,1231.5925 C 729.3052,1231.4705 728.5986,1231.2565 727.6091,1231.4885 C 727.3671,1233.1805 731.3772,1231.7985 731.2359,1233.5695"
       id="path6406" />
    <path
       d="M 733.0656,1225.9385 C 733.8188,1225.0155 732.3610,1225.1985 731.6217,1225.5085 C 732.0980,1225.6565 732.5799,1225.7995 733.0656,1225.9385"
       id="path6408" />
    <path
       d="M 731.7399,1230.5485 C 731.1119,1230.4545 730.4166,1230.5985 729.6525,1230.9785 C 730.2637,1231.1285 730.9580,1230.9865 731.7399,1230.5485"
       id="path6410" />
    <path
       d="M 735.2970,1231.1985 C 734.9172,1231.4385 734.5367,1231.6775 734.1561,1231.9185 C 734.9348,1231.8605 734.9531,1231.6995 735.2970,1231.1985"
       id="path6412" />
    <path
       d="M 734.8606,1233.8595 C 734.8253,1233.5925 734.6418,1233.4255 734.3060,1233.3595 C 734.4905,1233.5265 734.6758,1233.6925 734.8606,1233.8595"
       id="path6414" />
    <path
       d="M 735.9654,1232.2085 C 737.5921,1232.0465 739.2444,1232.2665 741.0651,1231.3385 C 739.9197,1231.0925 737.1994,1230.7005 735.6323,1231.4885 C 735.6928,1231.7545 735.8042,1231.9945 735.9654,1232.2085"
       id="path6418" />
    <path
       d="M 735.2564,1232.9285 C 735.2395,1233.6135 737.3873,1233.8595 738.2243,1233.7185 C 736.5907,1235.0575 740.1090,1235.9345 741.4031,1235.4485 C 741.0342,1235.0725 740.6458,1234.7115 740.2367,1234.3635 C 738.7151,1233.0765 742.2913,1233.7545 740.0862,1233.0685 C 741.3423,1232.7585 742.0293,1233.8965 743.1811,1233.9625 C 744.2832,1234.0255 744.4128,1235.1255 743.6077,1235.6585 C 744.8760,1235.1425 747.2031,1235.7345 748.1376,1235.9515 C 749.2235,1236.2055 748.6675,1237.5045 750.4030,1237.1785 C 749.9960,1236.2395 749.7031,1235.4355 748.5098,1235.0085 C 747.6026,1234.6845 745.7412,1234.8695 745.4761,1234.0085 C 746.0060,1234.6825 747.7318,1234.3955 748.9451,1234.1485 C 747.5277,1232.9055 743.6608,1233.9535 742.8662,1232.2095 C 744.2278,1232.7595 744.9113,1232.5605 746.5732,1232.5835 C 747.8768,1232.6025 747.7829,1231.5145 746.9590,1231.3885 C 745.7480,1231.2025 744.1452,1231.5415 742.6908,1231.8635 C 741.8671,1232.0445 738.2029,1231.5085 738.5808,1233.0005 C 738.7811,1231.7695 736.5434,1232.2235 735.2564,1232.9285"
       id="path6420" />
    <path
       d="M 735.3144,1234.3685 C 734.4317,1234.4715 734.4313,1234.6605 735.3115,1234.9375 C 735.3116,1234.7485 735.3124,1234.5585 735.3144,1234.3685"
       id="path6422" />
    <path
       d="M 737.4746,1235.2285 C 737.5602,1234.7865 737.6599,1234.6185 736.9171,1234.7285 C 737.1026,1234.8955 737.2901,1235.0615 737.4746,1235.2285"
       id="path6424" />
    <path
       d="M 696.8251,1206.2885 C 697.9989,1206.0295 697.7396,1205.0715 697.3109,1204.8485 C 696.8836,1205.3735 696.7331,1205.8545 696.8251,1206.2885"
       id="path6318" />
    <path
       d="M 697.7846,1208.1585 C 698.9061,1207.2215 700.4168,1204.3405 698.4779,1204.5575 C 698.4862,1205.0555 698.5427,1205.5355 698.6151,1205.9975 C 697.2454,1205.7245 697.3041,1207.6725 697.7846,1208.1585"
       id="path6322" />
    <path
       d="M 698.5364,1208.2985 C 699.4419,1207.7485 701.1039,1205.7135 699.4095,1206.0695 C 698.8745,1206.8535 698.9140,1207.5365 698.5364,1208.2985"
       id="path6326" />
    <path
       d="M 699.4053,1209.8195 C 700.9494,1208.8545 698.6138,1209.1135 698.1466,1209.0185 C 698.5893,1209.2675 699.0083,1209.5335 699.4053,1209.8195"
       id="path6328" />
    <path
       d="M 699.6689,1207.7285 C 700.3133,1207.6295 700.9325,1207.3665 701.5280,1206.9385 C 700.9179,1206.7635 700.1716,1207.1105 699.6689,1207.7285"
       id="path6332" />
    <path
       d="M 703.9840,1206.7885 C 704.6437,1205.7955 702.5288,1204.8505 701.5536,1204.9185 C 702.1985,1205.7245 703.0276,1206.2835 703.9840,1206.7885"
       id="path6334" />
    <path
       d="M 705.1253,1205.4985 C 705.3824,1205.3785 705.6382,1205.2585 705.8951,1205.1385 C 705.2053,1204.6945 705.1394,1203.8445 704.4382,1203.4095 C 704.2202,1204.6225 703.9004,1204.9845 705.1253,1205.4985"
       id="path6340" />
    <path
       d="M 704.0167,1210.3885 C 704.5407,1210.3215 705.0442,1210.1045 705.5259,1209.7395 C 704.8365,1209.2585 703.9807,1207.3375 702.0648,1208.4495 C 703.2701,1208.1805 703.6581,1208.8705 704.2445,1209.2395 C 702.5052,1208.7335 703.5915,1210.2015 704.0167,1210.3885"
       id="path6344" />
    <path
       d="M 709.0293,1218.0185 C 709.6696,1218.2005 710.4168,1218.2275 711.2691,1218.0985 C 710.1349,1217.8105 709.7715,1216.8955 708.6710,1216.5785 C 709.9323,1218.7745 706.4212,1214.4225 707.7776,1216.6475 C 706.6928,1215.4775 704.8560,1215.4425 703.0623,1214.9825 C 701.6591,1214.6225 701.2848,1213.1045 699.2122,1213.4885 C 700.8667,1214.3425 701.6387,1215.5365 703.5742,1216.1345 C 704.5498,1216.4385 705.9017,1216.2595 706.8029,1216.6535 C 707.5542,1216.9825 707.5902,1218.3985 709.0293,1218.0185"
       id="path6346" />
    <path
       d="M 704.0112,1208.2985 C 704.0031,1207.9015 704.0471,1207.7795 703.3207,1207.9385 C 703.5504,1208.0585 703.7814,1208.1785 704.0112,1208.2985"
       id="path6348" />
    <path
       d="M 706.8962,1205.6385 C 707.1974,1204.9205 706.2458,1204.7225 705.6580,1204.6285 C 706.0155,1205.0075 706.4276,1205.3445 706.8962,1205.6385"
       id="path6350" />
    <path
       d="M 707.2557,1209.0185 C 707.8588,1207.5925 705.9729,1206.6735 704.5478,1206.5695 C 704.6367,1207.8765 706.5883,1208.0595 707.2557,1209.0185"
       id="path6352" />
    <path
       d="M 706.3641,1206.3595 C 706.1747,1206.0605 706.6438,1205.8045 705.7566,1205.9995 C 705.9597,1206.1185 706.1633,1206.2385 706.3641,1206.3595"
       id="path6354" />
    <path
       d="M 706.2898,1210.3885 C 706.5159,1210.3415 706.7401,1210.2955 706.9661,1210.2485 C 707.0435,1209.2625 706.0091,1208.7065 704.6990,1208.8085 C 705.1933,1209.3605 705.9937,1209.7045 706.2898,1210.3885"
       id="path6356" />
    <path
       d="M 706.7315,1207.2185 C 707.5921,1206.8175 707.5532,1206.5775 706.6128,1206.4985 C 706.6527,1206.7385 706.6926,1206.9785 706.7315,1207.2185"
       id="path6358" />
    <path
       d="M 706.2573,1208.8785 C 706.7327,1208.3595 706.4823,1208.2635 705.5084,1208.5885 C 705.7570,1208.6855 706.0074,1208.7815 706.2573,1208.8785"
       id="path6360" />
    <path
       d="M 705.5737,1213.1985 C 707.1242,1212.6365 708.0128,1210.4875 706.3356,1210.7215 C 705.0284,1210.9045 705.8382,1212.7945 705.5737,1213.1985"
       id="path6362" />
    <path
       d="M 705.8330,1216.3685 C 705.8589,1216.6355 706.0357,1216.8015 706.3621,1216.8685 C 706.1859,1216.7015 706.0103,1216.5355 705.8330,1216.3685"
       id="path6366" />
    <path
       d="M 709.3758,1215.0695 C 709.7745,1214.0835 708.0802,1214.1845 707.0697,1214.5695 C 708.1840,1214.2945 708.9691,1214.5485 709.3758,1215.0695"
       id="path6368" />
    <path
       d="M 711.9710,1207.5785 C 712.7739,1207.3705 713.5032,1206.9025 713.5549,1206.2885 C 712.7847,1206.5195 712.1011,1206.9905 711.9710,1207.5785"
       id="path6370" />
    <path
       d="M 695.7147,1189.7285 C 695.8866,1188.2295 694.4839,1187.4935 692.8384,1187.3485 C 692.6561,1188.1315 692.9298,1189.2015 694.3723,1188.3595 C 693.9273,1189.3815 695.4104,1189.1115 695.7147,1189.7285"
       id="path6272" />
    <path
       d="M 696.6995,1193.0385 C 697.2768,1192.4965 697.9346,1192.0395 698.6723,1191.6685 C 697.4176,1192.2115 696.5972,1192.1525 697.3945,1191.0985 C 696.8615,1191.2815 696.5204,1191.2245 696.3728,1190.9275 C 695.9246,1190.4615 694.7946,1191.0225 694.0732,1190.9485 C 694.4572,1191.3915 696.5216,1191.6455 695.8425,1192.6085 C 694.6209,1192.8235 695.4429,1191.5655 694.2284,1191.7385 C 694.0350,1192.1595 693.7502,1192.7435 693.9767,1193.0595 C 694.3695,1193.6125 696.1772,1192.8695 694.7163,1194.1185 C 695.4386,1193.9925 696.1858,1193.5885 696.6995,1193.0385"
       id="path6286" />
    <path
       d="M 694.7788,1197.1385 C 695.4191,1196.4205 695.0244,1195.8115 694.9262,1195.2685 C 695.4248,1195.5585 696.0645,1195.3495 696.4773,1194.6995 C 695.4531,1194.8905 694.9936,1194.2405 693.8240,1194.8395 C 694.5054,1195.0805 694.3419,1195.5885 693.4294,1196.0595 C 694.4985,1196.0235 693.7094,1197.1405 694.7788,1197.1385"
       id="path6290" />
    <path
       d="M 697.1932,1193.8285 C 697.0684,1193.6345 696.8038,1193.6105 696.3983,1193.7585 C 696.6635,1193.7815 696.9281,1193.8055 697.1932,1193.8285"
       id="path6294" />
    <path
       d="M 697.0274,1197.2885 C 697.4798,1196.6495 697.6512,1195.8805 696.6379,1195.9885 C 696.3988,1196.5605 696.5738,1197.0375 697.0274,1197.2885"
       id="path6300" />
    <path
       d="M 698.9873,1194.6985 C 699.5103,1194.4065 699.9193,1194.0475 700.2161,1193.6185 C 699.4379,1193.6985 698.8685,1194.1135 698.9873,1194.6985"
       id="path6304" />
    <path
       d="M 699.6069,1197.9385 C 699.9356,1197.3755 698.9502,1195.6805 698.0157,1196.2095 C 696.2746,1197.1935 698.8862,1197.9135 699.6069,1197.9385"
       id="path6306" />
    <path
       d="M 699.4591,1199.8085 C 700.3073,1199.1375 701.4971,1198.6545 702.1818,1199.0885 C 701.1976,1198.2725 701.9689,1196.5155 699.7192,1196.7785 C 699.9582,1197.2555 700.1360,1197.7615 700.2526,1198.2985 C 699.4451,1198.1535 698.6549,1197.9805 697.7750,1197.9385 C 697.4106,1198.7675 698.6319,1199.7055 699.7971,1199.0085 C 699.6846,1199.2755 699.5716,1199.5415 699.4591,1199.8085"
       id="path6308" />
    <path
       d="M 695.2663,1204.1285 C 696.6448,1203.8495 696.8170,1202.3475 697.3387,1201.6085 C 696.4898,1202.0255 696.0541,1201.7885 696.1473,1201.1775 C 695.7090,1202.0745 694.8972,1203.4035 695.2663,1204.1285"
       id="path6310" />
    <path
       d="M 703.3132,1197.5695 C 703.7938,1196.7175 702.5985,1196.2625 702.0447,1195.9895 C 703.6087,1195.9895 702.5979,1195.7405 702.2941,1195.2105 C 701.9535,1194.6105 701.4721,1194.2925 700.3166,1194.6995 C 700.8476,1195.0595 700.7416,1195.6785 700.9282,1196.2195 C 701.2413,1197.1225 702.5801,1197.0155 703.3132,1197.5695"
       id="path6314" />
    <path
       d="M 697.6161,1202.8285 C 698.7289,1202.5935 699.6995,1201.7105 699.4956,1202.6185 C 699.6108,1202.3055 699.7754,1201.9915 699.9884,1201.6785 C 700.2162,1201.8385 700.4347,1202.0055 700.6454,1202.1785 C 700.4308,1200.9965 700.0571,1199.6605 697.7568,1201.6095 C 698.3627,1201.8065 698.3857,1202.2875 697.6161,1202.8285"
       id="path6316" />
    <path
       d="M 701.7282,1200.5985 C 702.3202,1199.7845 701.1363,1199.7435 701.1721,1199.0885 C 699.8984,1199.9825 701.1878,1200.3325 701.7282,1200.5985"
       id="path6320" />
    <path
       d="M 702.8536,1200.6685 C 703.0757,1200.6215 703.2972,1200.5755 703.5193,1200.5285 C 703.2088,1199.7885 702.9950,1198.9805 702.3486,1198.4375 C 702.4804,1199.1965 702.6287,1199.9495 702.8536,1200.6685"
       id="path6324" />
    <path
       d="M 704.1034,1202.6185 C 704.4242,1201.9105 704.0028,1201.3665 703.0777,1201.5285 C 703.1964,1202.0255 703.5514,1202.4225 704.1034,1202.6185"
       id="path6330" />
    <path
       d="M 704.5243,1201.9685 C 704.8527,1201.8225 705.1804,1201.6755 705.5087,1201.5295 C 705.5313,1200.8845 705.0085,1200.7145 704.1429,1201.2495 C 704.2222,1201.5145 704.3496,1201.7545 704.5243,1201.9685"
       id="path6338" />
    <path
       d="M 706.6997,1201.9685 C 707.0261,1201.3975 706.8328,1201.0575 706.1871,1201.0295 C 705.8602,1201.6005 706.0535,1201.9405 706.6997,1201.9685"
       id="path6342" />
    <path
       d="M 695.5778,1179.5695 C 697.7489,1178.2215 695.1151,1173.5165 692.6701,1174.4595 C 692.7886,1174.8765 693.7716,1175.3865 693.6007,1175.8745 C 693.3076,1176.7105 694.5571,1176.5685 692.8633,1177.0595 C 693.4841,1177.3345 694.8161,1176.5115 694.7539,1177.2855 C 694.6969,1178.0175 694.9551,1179.2045 695.5778,1179.5695"
       id="path6206" />
    <path
       d="M 695.8634,1172.2985 C 696.3761,1171.8365 696.4669,1171.4535 696.1378,1171.1485 C 695.7823,1171.3545 695.4633,1171.5945 695.1803,1171.8695 C 695.4072,1172.0125 695.6358,1172.1545 695.8634,1172.2985"
       id="path6218" />
    <path
       d="M 692.4963,1179.4985 C 693.5172,1179.7195 694.6198,1178.9525 694.4838,1178.0585 C 694.3195,1176.9545 693.1980,1177.7385 692.0441,1177.9895 C 691.8108,1178.8615 692.7994,1178.9315 693.4959,1179.1385 C 693.1624,1179.2585 692.8288,1179.3785 692.4963,1179.4985"
       id="path6220" />
    <path
       d="M 692.4516,1180.3685 C 693.2617,1180.2075 694.1021,1179.8135 694.8644,1179.3585 C 694.0256,1179.0865 692.8688,1180.0215 692.0857,1179.6475 C 692.1794,1179.9045 692.3015,1180.1445 692.4516,1180.3685"
       id="path6224" />
    <path
       d="M 697.2244,1171.8685 C 697.9324,1171.1495 697.7596,1170.9595 696.7059,1171.2985 C 696.8787,1171.4885 697.0504,1171.6785 697.2244,1171.8685"
       id="path6226" />
    <path
       d="M 698.0252,1174.2485 C 698.7118,1173.4605 698.8189,1172.5785 698.2194,1172.1585 C 697.5986,1172.6375 697.3469,1173.1185 697.4670,1173.5975 C 697.1090,1173.1475 695.7905,1172.9225 695.5242,1174.0285 C 696.7867,1173.2725 697.1863,1174.1125 698.0252,1174.2485"
       id="path6230" />
    <path
       d="M 696.9514,1177.4185 C 700.3975,1175.7445 697.2909,1174.4455 695.4338,1174.6785 C 695.6365,1175.7475 696.1904,1176.6685 696.9514,1177.4185"
       id="path6232" />
    <path
       d="M 695.1185,1182.8195 C 695.6529,1181.6025 693.6575,1180.5085 692.1971,1181.1595 C 691.7434,1182.6395 694.9909,1181.5555 695.1185,1182.8195"
       id="path6234" />
    <path
       d="M 697.6844,1174.7485 C 697.7284,1174.1415 696.9850,1174.0255 696.3064,1174.0985 C 696.8543,1174.2275 697.3130,1174.4445 697.6844,1174.7485"
       id="path6236" />
    <path
       d="M 692.8604,1182.8885 C 693.2538,1182.3965 693.0297,1182.2995 692.1875,1182.5985 C 692.4116,1182.6955 692.6362,1182.7915 692.8604,1182.8885"
       id="path6242" />
    <path
       d="M 693.1364,1184.3985 C 693.3866,1183.4405 695.7743,1182.6905 694.0593,1182.1695 C 693.7122,1183.1285 691.1174,1184.1085 693.1364,1184.3985"
       id="path6254" />
    <path
       d="M 695.4941,1182.0985 C 695.8576,1181.9785 696.2217,1181.8595 696.5851,1181.7395 C 696.5127,1180.9775 695.8179,1180.5355 694.8105,1180.5795 C 695.0699,1181.0685 695.2979,1181.5745 695.4941,1182.0985"
       id="path6258" />
    <path
       d="M 698.9954,1173.9585 C 698.9438,1173.6825 698.8639,1173.4195 698.7596,1173.1685 C 698.8367,1173.4325 698.9166,1173.6955 698.9954,1173.9585"
       id="path6260" />
    <path
       d="M 696.1277,1180.7285 C 696.4117,1180.2295 696.3519,1179.8705 695.9478,1179.6485 C 695.2893,1180.2515 695.4940,1180.6325 696.1277,1180.7285"
       id="path6262" />
    <path
       d="M 699.9774,1179.4985 C 701.6337,1179.2115 699.2619,1175.4735 699.0053,1174.8975 C 698.8412,1175.4025 698.6845,1175.9065 698.5369,1176.4085 C 698.5031,1176.9615 698.9845,1177.2545 698.8597,1177.8475 C 698.9197,1176.5335 696.7741,1177.3125 696.9866,1178.5215 C 697.1478,1179.4305 699.2051,1179.1115 699.9774,1179.4985"
       id="path6264" />
    <path
       d="M 693.3504,1186.6985 C 693.2235,1186.4945 693.0228,1186.3505 692.7479,1186.2675 C 692.9485,1186.4115 693.1492,1186.5555 693.3504,1186.6985"
       id="path6266" />
    <path
       d="M 698.0367,1190.5185 C 698.6507,1190.8125 699.6773,1190.8615 700.5261,1190.5185 C 700.4408,1190.2895 700.3332,1190.0725 700.2010,1189.8695 C 701.2309,1190.7835 701.7957,1188.5475 700.6779,1188.3595 C 702.7316,1188.7365 700.7962,1186.2485 700.1659,1188.2185 C 700.8470,1186.5335 701.9967,1184.0955 701.0681,1182.8605 C 700.7172,1182.3935 701.4476,1181.6575 700.7166,1181.4225 C 700.2164,1181.2615 700.9437,1178.5835 699.9460,1180.5095 C 700.6540,1177.4345 695.1827,1181.8065 698.0327,1180.8695 C 695.9272,1181.2935 697.1590,1182.3245 698.4024,1181.5895 C 697.4563,1182.2635 697.8840,1184.3215 697.6743,1185.0495 C 697.4018,1184.6455 697.0136,1184.3325 696.5108,1184.1105 C 696.6114,1186.1415 694.9434,1183.2325 695.8726,1185.3395 C 695.7419,1184.8665 695.2935,1184.5685 694.5584,1184.6895 C 694.9276,1185.1285 695.2290,1185.6085 695.4624,1186.1295 C 694.8190,1185.6485 694.5916,1184.8725 693.8472,1184.4695 C 693.0039,1185.8185 694.5135,1186.0505 694.7698,1186.9585 C 695.0443,1187.9435 695.5008,1189.4385 696.9956,1189.5095 C 697.5937,1188.5345 696.5609,1188.1665 696.9336,1187.2805 C 697.3083,1186.3725 698.4336,1186.3265 698.9449,1185.4795 C 699.8567,1185.5875 699.6227,1186.5975 698.3281,1186.3395 C 697.9968,1186.9405 698.2520,1187.3495 698.8092,1187.4995 C 698.4315,1187.6365 698.0538,1187.7795 697.6751,1187.9295 C 697.6544,1188.4895 698.4763,1188.5755 698.8510,1188.8645 C 699.6652,1189.4915 697.2628,1190.1855 699.2928,1189.8705 C 698.8788,1190.0995 698.4613,1190.3155 698.0367,1190.5185"
       id="path6268" />
    <path
       d="M 697.0296,1179.9385 C 698.1629,1179.4885 697.9720,1179.1285 696.9933,1179.2185 C 697.0065,1179.4585 697.0179,1179.6975 697.0296,1179.9385"
       id="path6270" />
    <path
       d="M 700.8197,1172.6585 C 701.2107,1172.3045 701.4570,1172.3725 701.4808,1171.8685 C 701.2605,1172.1325 701.0407,1172.3955 700.8197,1172.6585"
       id="path6274" />
    <path
       d="M 697.4007,1184.4685 C 698.4106,1183.2255 696.9085,1181.5205 695.6745,1182.8625 C 695.1812,1183.3985 697.1944,1184.1675 697.4007,1184.4685"
       id="path6276" />
    <path
       d="M 695.9034,1184.3285 C 695.8200,1184.0985 695.5953,1184.0015 695.2286,1184.0385 C 695.4533,1184.1355 695.6769,1184.2325 695.9034,1184.3285"
       id="path6278" />
    <path
       d="M 700.7672,1176.5485 C 702.3892,1175.7845 701.2256,1174.9965 700.3216,1175.0385 C 700.4756,1175.5395 700.6231,1176.0425 700.7672,1176.5485"
       id="path6280" />
    <path
       d="M 702.4137,1173.5295 C 703.5199,1173.2685 704.5525,1173.4695 705.6868,1172.7395 C 704.6409,1172.1155 703.0307,1172.5925 701.6680,1172.4495 C 701.4823,1173.0405 701.7648,1173.4635 702.4137,1173.5295"
       id="path6282" />
    <path
       d="M 702.6703,1177.6285 C 703.2421,1176.9195 702.2219,1176.5585 701.8976,1176.2585 C 700.9189,1177.1965 702.1884,1177.3255 702.6703,1177.6285"
       id="path6284" />
    <path
       d="M 704.2792,1177.8485 C 704.2305,1177.2995 703.7578,1176.9275 702.9651,1177.0585 C 703.3472,1177.3715 703.7845,1177.6355 704.2792,1177.8485"
       id="path6288" />
    <path
       d="M 707.0164,1173.8195 C 707.1624,1173.4125 707.0026,1173.1955 706.5330,1173.1695 C 706.6944,1173.3855 706.8554,1173.6025 707.0164,1173.8195"
       id="path6292" />
    <path
       d="M 701.4848,1187.2795 C 701.8216,1187.1095 702.1577,1186.9385 702.4943,1186.7685 C 702.3348,1186.2895 701.9421,1185.9185 701.3545,1185.7685 C 701.3280,1186.2975 701.3709,1186.8015 701.4848,1187.2795"
       id="path6296" />
    <path
       d="M 707.9976,1174.6095 C 707.8226,1174.4565 707.6113,1174.3365 707.3637,1174.2495 C 707.5755,1174.3685 707.7868,1174.4885 707.9976,1174.6095"
       id="path6298" />
    <path
       d="M 699.0717,1154.2985 C 698.8902,1154.1215 698.6526,1154.0015 698.3577,1153.9385 C 698.5952,1154.0585 698.8329,1154.1785 699.0717,1154.2985"
       id="path6166" />
    <path
       d="M 699.4491,1154.5185 C 699.6958,1154.5655 699.9425,1154.6125 700.1893,1154.6595 C 700.4528,1154.1725 700.6293,1153.6915 700.7155,1153.2195 C 699.9090,1153.4015 699.3353,1153.9065 699.4491,1154.5185"
       id="path6176" />
    <path
       d="M 704.6015,1156.0985 C 705.0369,1155.4615 705.5876,1154.4435 704.4265,1154.5885 C 704.2762,1155.1715 704.3343,1155.6745 704.6015,1156.0985"
       id="path6222" />
    <path
       d="M 705.5410,1156.6785 C 705.9864,1156.2295 706.5120,1155.9155 707.1151,1155.7395 C 706.6978,1154.8505 704.8630,1155.8955 705.5410,1156.6785"
       id="path6240" />
    <path
       d="M 706.6648,1154.8085 C 706.7360,1154.4445 706.6182,1154.1775 706.3132,1154.0085 C 706.4298,1154.2755 706.5481,1154.5415 706.6648,1154.8085"
       id="path6244" />
    <path
       d="M 709.6097,1149.6185 C 709.5643,1149.3245 709.4262,1149.0845 709.1982,1148.8975 C 709.3346,1149.1385 709.4727,1149.3785 709.6097,1149.6185"
       id="path6248" />
    <path
       d="M 701.2796,1166.6185 C 701.7847,1166.4095 702.1192,1166.0965 702.2858,1165.6785 C 701.4055,1165.5895 701.0693,1165.9035 701.2796,1166.6185"
       id="path6250" />
    <path
       d="M 706.5176,1158.5485 C 707.3835,1157.4935 706.7773,1156.5845 705.3272,1157.4685 C 705.8637,1157.7185 706.2601,1158.0785 706.5176,1158.5485"
       id="path6252" />
    <path
       d="M 707.1462,1157.0385 C 707.1503,1156.5815 706.9106,1156.2955 706.4267,1156.1785 C 706.2448,1156.7385 706.4967,1157.0585 707.1462,1157.0385"
       id="path6256" />
    <path
       d="M 702.8066,1140.6185 C 702.4684,1140.4695 702.6441,1140.2225 701.9920,1140.4775 C 702.2627,1140.5255 702.5354,1140.5715 702.8066,1140.6185"
       id="path6144" />
    <path
       d="M 704.9829,1143.4985 C 705.7603,1142.8475 704.8186,1142.7995 704.2514,1143.1385 C 704.4945,1143.2585 704.7387,1143.3785 704.9829,1143.4985"
       id="path6174" />
    <path
       d="M 708.3983,1121.2585 C 707.8553,1120.7135 707.4815,1121.1165 706.8569,1121.6705 C 706.0882,1122.3515 705.1579,1120.8925 704.5342,1120.8985 C 705.3483,1122.1695 703.3659,1123.8765 703.6213,1124.9205 C 704.0471,1126.6585 702.7447,1129.2245 702.9347,1130.9575 C 703.0170,1131.6995 701.9298,1132.1595 701.9335,1132.9755 C 701.9361,1133.7675 702.9397,1133.9985 703.6682,1134.1975 C 704.2994,1134.3695 704.9390,1134.5605 705.6300,1134.6455 C 707.0553,1134.8205 706.6638,1132.8215 706.7489,1132.4185 C 709.1683,1132.1705 707.4814,1130.7215 707.0310,1130.1085 C 707.5273,1130.1845 708.0563,1130.1845 708.6180,1130.1085 C 708.5352,1129.6345 705.3242,1127.0765 707.6930,1127.0875 C 706.3104,1126.1235 708.4318,1125.5625 709.5798,1124.9275 C 708.8863,1123.8945 708.3140,1122.6635 708.3983,1121.2585"
       id="path6130" />
    <path
       d="M 698.6964,1136.7385 C 699.0624,1136.5705 699.4174,1136.3775 699.7628,1136.1585 C 699.3767,1135.8325 698.8456,1135.8325 698.1691,1136.1585 C 698.3449,1136.3525 698.5201,1136.5455 698.6964,1136.7385"
       id="path6132" />
    <path
       d="M 696.4765,1147.6785 C 697.0008,1147.0875 696.7650,1146.7445 695.9932,1146.9585 C 696.1215,1147.2195 696.2825,1147.4595 696.4765,1147.6785"
       id="path6134" />
    <path
       d="M 698.7740,1145.5885 C 698.8885,1145.1515 698.9571,1144.9965 698.4471,1144.8685 C 698.5552,1145.1095 698.6643,1145.3485 698.7740,1145.5885"
       id="path6136" />
    <path
       d="M 707.6343,1128.1685 C 708.0418,1127.5495 707.7881,1127.5255 706.8719,1128.0985 C 707.1262,1128.1215 707.3800,1128.1455 707.6343,1128.1685"
       id="path6138" />
    <path
       d="M 709.0446,1127.4485 C 709.1651,1126.7645 708.5981,1126.3575 707.7585,1126.5785 C 708.3029,1126.7595 708.7323,1127.0495 709.0446,1127.4485"
       id="path6140" />
    <path
       d="M 701.1918,1145.7385 C 701.1705,1145.0145 700.3233,1145.0545 699.5638,1145.5885 C 700.1068,1145.6375 700.6491,1145.6885 701.1918,1145.7385"
       id="path6142" />
    <path
       d="M 701.6874,1144.4385 C 702.2161,1144.0875 702.4997,1143.6815 702.5370,1143.2185 C 701.8610,1143.6895 701.2486,1143.8065 700.7026,1143.5695 C 700.6990,1144.0935 701.0277,1144.4605 701.6874,1144.4385"
       id="path6146" />
    <path
       d="M 703.0006,1140.9085 C 702.7809,1140.8225 702.5246,1140.7995 702.2321,1140.8385 C 702.4879,1140.8625 702.7442,1140.8855 703.0006,1140.9085"
       id="path6148" />
    <path
       d="M 702.4417,1142.3485 C 702.2999,1142.1635 702.0531,1142.1185 701.7033,1142.2085 C 701.9493,1142.2555 702.1968,1142.3015 702.4417,1142.3485"
       id="path6150" />
    <path
       d="M 704.7702,1139.2585 C 704.9228,1138.7135 705.4222,1138.2115 706.1216,1138.1785 C 705.1142,1138.4275 704.3454,1137.9945 703.3098,1138.7485 C 703.8981,1138.7945 704.3853,1138.9645 704.7702,1139.2585"
       id="path6152" />
    <path
       d="M 701.8730,1147.0985 C 702.4057,1146.3215 701.5040,1145.9805 700.8220,1146.0185 C 700.9779,1146.5265 701.3275,1146.8865 701.8730,1147.0985"
       id="path6154" />
    <path
       d="M 712.2221,1121.5385 C 712.4344,1121.1285 712.3360,1120.8655 711.9263,1120.7485 C 712.0242,1121.0125 712.1225,1121.2755 712.2221,1121.5385"
       id="path6156" />
    <path
       d="M 709.3441,1131.1885 C 709.0566,1130.8125 708.5891,1130.6685 707.9407,1130.7585 C 708.4114,1130.8975 708.8798,1131.0395 709.3441,1131.1885"
       id="path6158" />
    <path
       d="M 702.7880,1146.6685 C 703.7851,1146.3525 704.7485,1145.6095 705.7458,1145.5885 C 705.2404,1144.9325 704.0524,1144.6515 702.8943,1144.9355 C 700.9376,1145.4135 701.7664,1146.3965 702.7880,1146.6685"
       id="path6160" />
    <path
       d="M 704.6684,1142.5695 C 704.8620,1142.2405 705.1079,1141.9265 705.4039,1141.6295 C 704.9218,1141.4225 704.3538,1141.3755 703.6994,1141.4895 C 703.8020,1142.0105 704.1251,1142.3695 704.6684,1142.5695"
       id="path6162" />
    <path
       d="M 705.8884,1139.6185 C 705.7802,1139.4005 705.5461,1139.3275 705.1870,1139.3975 C 705.4206,1139.4715 705.6543,1139.5455 705.8884,1139.6185"
       id="path6168" />
    <path
       d="M 704.3723,1144.5085 C 704.5756,1144.2915 704.7773,1144.0755 704.9801,1143.8595 C 704.5037,1143.6955 703.9969,1143.5755 703.4587,1143.4995 C 703.4738,1144.0135 703.8039,1144.4015 704.3723,1144.5085"
       id="path6170" />
    <path
       d="M 705.6992,1141.4885 C 705.7289,1141.0595 705.5377,1140.7695 705.1267,1140.6185 C 704.8408,1141.1925 705.0515,1141.5115 705.6992,1141.4885"
       id="path6172" />
    <path
       d="M 702.0887,1148.2585 C 702.9105,1148.6235 704.3675,1148.0775 705.4054,1147.8195 C 704.7152,1147.0755 703.2168,1147.1285 702.0887,1148.2585"
       id="path6178" />
    <path
       d="M 702.3135,1150.8485 C 702.7617,1150.2245 702.3501,1149.7495 701.8029,1149.6195 C 701.5641,1150.2035 701.7637,1150.6775 702.3135,1150.8485"
       id="path6180" />
    <path
       d="M 705.8387,1142.6385 C 706.2713,1141.8705 705.9993,1141.8245 705.0220,1142.4985 C 705.2937,1142.5455 705.5669,1142.5915 705.8387,1142.6385"
       id="path6182" />
    <path
       d="M 701.8682,1151.6385 C 702.4038,1150.9205 702.1776,1150.8245 701.2005,1151.3485 C 701.4229,1151.4455 701.6446,1151.5415 701.8682,1151.6385"
       id="path6186" />
    <path
       d="M 707.3197,1140.9085 C 708.0197,1140.0965 707.2763,1139.5525 706.5866,1139.4685 C 706.7240,1140.0095 706.9699,1140.4885 707.3197,1140.9085"
       id="path6188" />
    <path
       d="M 705.6873,1143.7185 C 706.3350,1143.2585 706.2508,1143.0195 705.4360,1142.9985 C 705.5186,1143.2385 705.6035,1143.4785 705.6873,1143.7185"
       id="path6190" />
    <path
       d="M 704.4387,1147.0985 C 704.6648,1146.8395 704.7802,1146.5765 704.7851,1146.3085 C 704.4128,1146.4585 704.0602,1146.6525 703.7281,1146.8885 C 703.9649,1146.9585 704.2007,1147.0285 704.4387,1147.0985"
       id="path6192" />
    <path
       d="M 701.2963,1154.8785 C 702.6317,1154.3895 703.9224,1152.3665 702.3657,1152.2885 C 700.6586,1152.2025 701.3651,1154.2975 701.2963,1154.8785"
       id="path6194" />
    <path
       d="M 705.4577,1148.2585 C 704.6361,1148.5775 703.8334,1148.6315 703.0130,1148.8985 C 702.5725,1150.3525 705.7767,1150.2955 706.9759,1150.1285 C 707.2339,1149.1755 706.5685,1148.2445 705.4577,1148.2585"
       id="path6196" />
    <path
       d="M 704.8237,1151.3485 C 705.3584,1151.2985 705.8904,1151.2515 706.4217,1151.2085 C 706.3119,1150.3725 704.6361,1149.9755 703.5527,1150.4185 C 703.8328,1150.8585 704.2573,1151.1675 704.8237,1151.3485"
       id="path6198" />
    <path
       d="M 706.0179,1147.8985 C 706.8550,1147.1085 706.2422,1146.4065 705.2733,1146.6695 C 705.2942,1147.2175 705.5430,1147.6275 706.0179,1147.8985"
       id="path6200" />
    <path
       d="M 706.7258,1146.0985 C 707.1064,1146.0255 707.4882,1145.9525 707.8692,1145.8785 C 707.5875,1143.7765 705.0281,1145.4495 706.7258,1146.0985"
       id="path6202" />
    <path
       d="M 716.0647,1123.9885 C 716.4526,1123.4465 716.2405,1123.3265 715.4281,1123.6285 C 715.6402,1123.7485 715.8524,1123.8685 716.0647,1123.9885"
       id="path6204" />
    <path
       d="M 703.7842,1153.2185 C 704.5442,1152.5215 705.3859,1152.7685 705.8987,1153.0085 C 705.9981,1151.8895 703.6667,1151.8635 703.7842,1153.2185"
       id="path6208" />
    <path
       d="M 707.1061,1146.8885 C 707.2923,1146.8885 707.4773,1146.8885 707.6635,1146.8885 C 707.9350,1146.2715 707.7171,1145.9615 706.9414,1146.1685 C 706.9959,1146.4085 707.0504,1146.6485 707.1061,1146.8885"
       id="path6210" />
    <path
       d="M 705.4791,1151.9985 C 705.8688,1151.3495 705.6096,1151.2755 704.6991,1151.7785 C 704.9583,1151.8525 705.2181,1151.9255 705.4791,1151.9985"
       id="path6212" />
    <path
       d="M 711.0828,1139.9685 C 711.2952,1139.1865 711.5029,1138.5095 710.2908,1139.0385 C 710.1804,1139.5755 710.4777,1139.9465 711.0828,1139.9685"
       id="path6214" />
    <path
       d="M 704.8959,1154.4485 C 706.4256,1153.7765 705.1291,1152.7505 703.9816,1153.2985 C 704.0199,1153.8345 704.3406,1154.2665 704.8959,1154.4485"
       id="path6216" />
    <path
       d="M 713.4136,1146.0185 C 713.3530,1145.7365 713.2552,1145.4735 713.1207,1145.2285 C 714.4346,1144.9405 714.6466,1143.8685 713.5754,1143.7705 C 713.1990,1143.7945 712.8818,1143.7305 712.6245,1143.5775 C 711.9748,1142.8765 711.7173,1143.8965 710.7577,1143.2895 C 710.2416,1143.9025 710.4691,1144.3385 711.0280,1144.5095 C 710.3541,1144.8635 709.6947,1145.0305 709.0513,1145.0095 C 708.9492,1145.7445 709.0923,1146.7385 710.2273,1146.5305 C 708.2879,1146.8245 709.8503,1147.5105 710.4559,1147.5875 C 711.4167,1147.7075 712.6413,1146.6055 713.4136,1146.0185"
       id="path6228" />
    <path
       d="M 707.5060,1154.7385 C 707.7318,1154.3645 708.3519,1151.9895 707.5654,1152.2135 C 705.2397,1152.8745 707.0117,1154.1795 707.5060,1154.7385"
       id="path6238" />
    <path
       d="M 732.1961,918.2885 C 733.9122,917.3905 735.7401,918.1995 736.6403,915.9775 C 737.0546,914.9545 735.8049,913.4525 736.7212,912.5885 C 736.9294,912.4645 737.1421,912.4315 737.3617,912.4885 C 738.0159,912.4805 738.7132,911.4195 739.1149,911.0075 C 738.9780,912.2575 740.2579,912.8115 740.4745,913.9205 C 740.6859,914.9975 741.3160,915.4025 742.3763,915.6165 C 741.2615,916.5605 742.4221,919.2035 742.6472,920.1955 C 743.2326,922.7785 743.5718,924.2945 745.5926,926.0755 C 747.4212,927.6855 746.4629,928.2005 745.3399,930.2345 C 745.1449,930.5885 746.6590,931.6035 746.5692,932.2895 C 746.4552,933.1475 745.1050,933.2195 744.5139,933.5465 C 745.4909,934.5455 744.4665,935.6225 745.0124,936.7165 C 745.2844,937.2605 746.1599,937.1115 746.4382,937.6465 C 746.8179,938.3785 746.2540,938.4455 746.2526,939.1675 C 746.2477,941.3575 749.1623,942.4015 749.0964,944.9275 C 749.0187,947.9865 750.7946,950.5445 751.3165,953.4175 C 751.7183,955.6165 751.3593,958.4175 754.6975,957.4175 C 758.1469,956.3835 758.0940,958.4045 757.4405,961.0655 C 756.9391,963.1085 757.1263,966.3815 755.1431,967.8945 C 753.1395,969.4205 749.9937,969.0305 748.4650,971.2775 C 747.8975,972.1115 746.6776,972.5245 746.4451,973.5645 C 746.2369,974.4975 747.6096,976.1235 747.8574,977.0385 C 745.5104,977.1165 746.6364,980.7345 746.9908,981.7885 C 747.3009,982.7105 747.7032,983.5905 747.9233,984.5505 C 748.2622,986.0275 746.7914,986.3565 746.7072,987.6965 C 746.4818,989.5655 749.2273,991.6375 748.4236,993.2205 C 747.9379,994.1755 746.1384,994.6645 745.4067,994.2695 C 744.5210,993.7915 743.6744,996.6985 743.4555,997.1595 C 742.1175,999.9595 740.7895,1002.0045 738.7028,1004.4435 C 736.9012,1006.5465 737.9333,1008.9545 736.6424,1011.1705 C 736.0097,1012.2745 734.9409,1012.4275 735.0749,1013.8205 C 735.1874,1014.9905 735.8559,1015.9525 735.9698,1017.1145 C 736.0367,1017.7895 735.9039,1018.4995 735.9733,1019.1735 C 736.0364,1019.7865 736.5603,1020.0635 736.6405,1020.6195 C 736.8030,1021.7435 735.0993,1022.9345 734.1812,1022.2585 C 734.8611,1023.2115 733.3653,1025.1175 733.1426,1026.2035 C 732.9878,1026.9585 733.5429,1028.0935 732.6376,1028.7425 C 731.9733,1029.2185 731.5763,1029.1055 731.3121,1030.0915 C 730.8631,1031.7625 731.6686,1033.4635 732.1405,1034.8455 C 732.3710,1035.5175 733.3149,1035.2905 733.6088,1035.9195 C 733.8639,1036.4645 733.4845,1037.0725 732.7953,1036.7285 C 732.8524,1038.6325 734.6955,1039.8335 734.5372,1041.7725 C 734.4738,1042.5495 734.3080,1043.2585 735.0460,1043.6615 C 736.0266,1044.1965 734.7899,1045.3095 734.7886,1046.1595 C 734.7848,1048.4035 737.6299,1046.3895 736.9167,1048.9435 C 736.3520,1050.9665 735.9537,1052.5965 736.5986,1054.3585 C 736.6972,1054.6325 736.8902,1056.5075 735.9271,1056.2265 C 735.0304,1055.9645 735.0062,1056.4095 734.8005,1057.1735 C 734.5683,1058.0315 733.8952,1058.8245 733.4963,1059.6625 C 733.0130,1060.6765 733.0062,1061.6575 732.7397,1062.6665 C 732.4593,1063.7315 731.7214,1063.5155 731.3748,1064.1585 C 730.9272,1064.9865 731.5210,1064.6585 731.6620,1065.2845 C 732.1088,1067.2595 731.9919,1069.3025 732.2907,1071.2675 C 732.3874,1071.8985 731.9329,1072.3395 731.2265,1072.4115 C 730.5710,1072.4775 730.1750,1073.4475 729.8725,1073.8795 C 729.1581,1074.8995 727.1687,1074.5785 727.1884,1076.0045 C 727.2015,1076.8695 726.2588,1077.6495 726.3108,1078.5375 C 726.3597,1079.3845 726.8791,1080.0895 726.6901,1081.0085 C 726.3812,1082.5105 726.4179,1083.9055 726.2851,1085.3405 C 726.1356,1086.9555 727.6123,1087.8565 727.8847,1089.2785 C 728.0638,1090.2145 727.8543,1091.2955 728.3157,1092.1215 C 728.5342,1092.5135 729.3674,1093.3175 728.8629,1093.9455 C 727.7501,1095.3125 724.9988,1095.2165 724.8167,1097.1315 C 724.7040,1098.3245 723.4734,1101.1845 724.1136,1102.0285 C 723.0228,1102.0635 722.2665,1102.1815 722.5359,1103.3125 C 722.6457,1103.7695 723.7780,1106.9805 721.7604,1106.2785 C 721.5969,1107.3835 722.7536,1107.4295 722.7669,1108.2415 C 722.7780,1108.8905 721.8362,1109.5685 721.4881,1110.1685 C 720.3751,1112.0785 721.6970,1113.2605 721.5180,1115.0645 C 721.3648,1116.5495 720.8417,1118.4265 720.9388,1119.7905 C 721.0365,1121.1405 721.8210,1122.1785 722.1541,1123.4195 C 721.2906,1123.9645 719.9705,1123.7125 719.3446,1124.6505 C 718.7946,1125.4735 719.5433,1126.7835 719.2549,1127.7665 C 718.9282,1128.8795 718.5712,1131.1625 719.3630,1131.8295 C 720.0745,1132.4315 722.5693,1132.0135 722.0123,1133.4995 C 721.5286,1134.7875 719.7891,1133.8385 721.2494,1135.4155 C 721.5437,1135.7315 721.9944,1136.1735 722.2164,1136.5635 C 722.7123,1137.4335 721.4495,1137.1425 721.4709,1137.7395 C 721.4931,1138.3095 722.3176,1138.5295 722.4620,1139.0565 C 722.6878,1139.8785 721.1200,1140.4035 721.2578,1141.1355 C 721.4342,1142.0665 721.1732,1142.9795 722.2427,1143.1775 C 723.6857,1143.4445 725.9676,1142.9065 726.6856,1144.0235 C 726.8754,1144.3185 726.1719,1145.8725 725.7649,1146.1175 C 724.2281,1147.0435 722.6092,1146.1045 721.3064,1146.1495 C 718.4708,1146.2475 720.8223,1147.7705 722.0144,1147.8685 C 724.5645,1148.0765 726.5457,1150.5495 723.5650,1152.7895 C 723.1682,1153.0865 722.7417,1152.7295 722.3131,1153.0905 C 721.5633,1153.7215 722.1484,1154.6645 722.0397,1155.2395 C 721.9413,1155.7655 722.8260,1155.7175 722.9789,1156.1045 C 723.2296,1156.7375 721.8897,1157.8655 721.0689,1157.8985 C 721.8737,1158.6405 723.8968,1161.2205 722.2976,1162.6865 C 721.5466,1163.3745 720.4904,1163.5405 720.5920,1164.4955 C 720.6209,1164.7665 720.0551,1165.7025 720.3434,1165.8435 C 720.8383,1166.0845 721.1973,1166.4185 721.2238,1166.9695 C 720.0531,1166.8005 717.6850,1169.7205 717.3286,1170.5445 C 716.9180,1171.4955 716.1425,1172.3935 716.4446,1173.2145 C 716.7056,1173.9255 718.5628,1175.4605 717.7145,1176.5125 C 717.1925,1177.1595 716.0389,1177.0825 715.5296,1177.6825 C 714.6756,1178.6875 716.7688,1179.5475 715.0800,1180.9395 C 714.1979,1181.6655 712.8934,1181.5075 712.1336,1182.3125 C 711.1555,1183.3455 711.0913,1184.9945 709.0884,1184.6895 C 708.7508,1185.7045 708.1822,1186.7495 708.4126,1187.6365 C 708.5930,1188.3705 708.6818,1189.9675 708.3518,1190.8025 C 707.8846,1191.9825 710.1408,1192.7565 710.4150,1193.6895 C 710.6828,1194.5925 710.2684,1196.1685 711.2744,1196.6635 C 711.9659,1197.0045 712.4182,1196.5435 713.2687,1196.1475 C 714.2757,1195.6785 714.8004,1195.9835 715.6349,1195.9905 C 717.4292,1196.0065 717.7347,1195.7265 718.1046,1197.2415 C 718.3630,1198.2965 716.9908,1199.6555 717.8516,1200.2325 C 718.6042,1200.7365 718.2419,1202.6445 717.1564,1203.4795 C 718.8038,1203.6665 720.6379,1205.6225 720.9332,1206.7615 C 721.2526,1208.0735 726.9336,1207.1495 728.5893,1207.1495 C 735.4541,1207.1495 741.2090,1208.3685 746.9739,1209.8205 C 745.2283,1209.8475 744.0437,1209.2145 742.5359,1208.9505 C 739.7890,1208.4695 740.4657,1209.8835 738.8546,1210.9705 C 737.4330,1211.9285 736.3101,1211.0225 734.7608,1211.9475 C 732.8887,1213.0635 730.8752,1212.8485 729.0659,1213.2705 C 729.3766,1214.4275 728.5675,1215.8725 728.0727,1217.2335 C 727.5909,1218.5615 728.1028,1219.3085 728.1410,1220.4425 C 728.2284,1223.4605 724.1813,1222.4385 722.5918,1222.1275 C 720.6797,1221.7525 716.5147,1220.6185 716.9433,1218.6285 C 717.3780,1216.6285 721.2368,1217.7745 718.4755,1219.1015 C 719.5597,1219.1265 719.9264,1217.9945 720.6557,1217.5065 C 721.1797,1217.1555 722.4674,1218.9485 720.6963,1219.9015 C 722.8956,1219.3625 721.0188,1216.9335 724.8393,1216.4085 C 725.4979,1216.3185 726.4984,1214.9225 726.7250,1214.5595 C 727.3653,1213.5345 725.2056,1213.7505 724.8759,1213.2025 C 724.2584,1214.2695 721.8417,1215.2485 720.6315,1215.7925 C 718.5750,1216.7155 718.1548,1215.2855 716.2054,1216.0825 C 717.3677,1215.9105 717.7043,1216.6855 718.1550,1217.1625 C 717.4689,1217.2775 716.9073,1217.2265 716.4672,1217.0125 C 716.3542,1217.5575 715.9487,1218.0645 715.2491,1218.5335 C 716.2486,1218.6525 716.6797,1219.2945 717.0374,1219.9025 C 714.1161,1220.4535 711.2458,1218.0905 710.2728,1216.7325 C 711.2136,1217.2445 713.0254,1217.1905 714.4129,1217.1635 C 714.8034,1216.1965 712.1589,1216.1235 713.2615,1214.2365 C 713.9226,1213.1045 716.5422,1212.6445 715.1957,1214.0625 C 716.9131,1213.6925 717.0591,1213.8115 718.7673,1212.7475 C 720.4956,1211.6705 722.2652,1213.2695 724.2628,1212.4135 C 723.9745,1211.3765 718.2569,1210.6255 716.8270,1212.4135 C 716.1531,1212.1625 715.7499,1211.8575 717.3843,1211.4025 C 716.5741,1211.4255 713.3485,1211.4635 713.2156,1212.7725 C 714.0774,1212.3075 714.6840,1212.2845 715.0338,1212.7035 C 714.4434,1213.2545 713.6387,1213.6775 712.8700,1213.8525 C 712.9118,1214.4795 713.2936,1216.0075 711.4869,1216.1345 C 710.3672,1216.2135 708.7240,1215.0685 711.1410,1214.5725 C 709.9106,1214.8515 709.5741,1214.1025 709.1169,1213.6325 C 709.6593,1213.7095 710.2521,1213.7095 710.8928,1213.6325 C 710.6511,1213.5045 710.4283,1213.3615 710.2265,1213.2025 C 711.7783,1212.5995 711.2278,1211.4195 712.5900,1211.7625 C 711.5951,1211.3755 711.7011,1211.2095 712.9086,1211.2625 C 712.4230,1211.0985 711.8329,1211.0985 711.1369,1211.2625 C 711.5207,1211.6355 711.2933,1212.2345 710.5011,1212.7725 C 710.5366,1212.2645 710.2153,1211.8945 709.5863,1211.8335 C 709.2309,1212.4365 708.4934,1212.9515 707.6983,1213.2035 C 708.5105,1212.5065 708.4248,1212.2425 707.4413,1212.4135 C 710.2171,1211.0735 707.1874,1208.6105 707.6377,1207.3735 C 707.9410,1208.1455 708.8686,1208.9025 710.1508,1208.8525 C 710.7419,1208.8305 714.0595,1207.1235 712.1768,1209.1035 C 713.3528,1208.6515 714.5478,1209.4195 714.0856,1208.0935 C 713.4604,1209.7915 713.6684,1207.5565 714.2005,1206.7235 C 715.1419,1206.7985 715.4565,1207.6655 715.8621,1208.1635 C 716.6172,1209.0875 715.2556,1209.9015 713.8568,1210.8235 C 714.9724,1210.3655 715.6865,1210.6995 716.5283,1210.7535 C 715.6897,1210.2605 717.3047,1209.0815 716.6058,1208.5525 C 716.1786,1208.2305 714.9393,1206.8635 716.9442,1206.6535 C 716.2935,1205.8895 716.4232,1204.6735 715.4849,1204.0225 C 714.4819,1203.3255 712.8161,1203.3015 712.1196,1202.3345 C 711.7901,1202.5475 711.5002,1202.7875 711.2488,1203.0545 C 712.3602,1202.9535 716.9315,1204.1175 716.1601,1205.3545 C 715.4511,1206.3705 711.4332,1204.0005 710.6475,1204.0645 C 710.8579,1204.6955 711.7182,1204.5595 712.1437,1205.0025 C 712.5993,1205.4765 711.6254,1206.3535 712.7502,1206.3655 C 712.0523,1206.7805 711.4642,1207.2605 710.9856,1207.8045 C 710.8334,1206.8105 710.9933,1205.6075 710.2410,1204.8545 C 710.6254,1205.8405 711.1003,1207.1865 710.1845,1208.5245 C 709.5124,1207.5425 708.0582,1207.1455 708.3293,1205.6445 C 708.6833,1206.0165 709.0385,1206.3765 709.4123,1206.7245 C 709.3980,1206.0395 708.2568,1205.5905 709.0135,1204.6345 C 708.4665,1204.6395 707.6328,1205.1025 707.1487,1204.9945 C 706.6641,1204.8875 707.1376,1204.2045 706.5102,1204.0995 C 705.8524,1203.9905 705.7345,1202.4495 705.8970,1201.9035 C 707.2082,1202.2105 707.5347,1203.3155 708.2942,1204.0635 C 707.7239,1202.9475 707.7531,1201.5225 706.9450,1200.5345 C 708.0334,1201.9425 707.5662,1200.1725 706.7921,1200.0235 C 706.5838,1200.2635 706.3732,1200.5035 706.1620,1200.7445 C 705.5438,1200.5925 705.0820,1200.3055 704.7740,1199.8845 C 705.0986,1201.5175 703.7119,1198.8255 703.4496,1198.4905 C 703.1287,1198.0795 704.5686,1197.8735 704.7677,1197.8475 C 705.1699,1197.7945 705.5533,1197.7795 705.9225,1197.7985 C 707.3137,1197.8945 705.2907,1196.3775 706.8858,1197.4335 C 706.4192,1196.8875 707.0657,1195.7535 708.2474,1195.7735 C 707.2570,1195.7995 706.6082,1194.9775 707.7768,1194.1245 C 706.4687,1194.8415 706.5336,1196.3635 705.4834,1197.2245 C 704.2464,1198.2375 703.1242,1194.7815 702.6753,1194.4845 C 703.2089,1194.6685 703.6533,1194.9305 704.0075,1195.2745 C 702.9774,1193.9115 704.3418,1194.9165 705.2389,1194.8445 C 704.5865,1194.0165 702.1596,1194.0865 702.3387,1192.9045 C 701.4612,1194.5725 700.5993,1192.1025 699.4726,1192.0355 C 701.7213,1190.0095 703.8459,1193.1395 705.8376,1192.9045 C 704.3600,1192.5755 701.4046,1191.7155 702.0759,1189.9445 C 703.4729,1189.8815 703.7763,1191.1165 705.4300,1190.6655 C 704.5143,1190.7125 704.6249,1190.1225 705.2858,1189.5155 C 703.5653,1191.2415 700.9504,1188.5925 704.0153,1188.1455 C 703.2993,1188.2885 701.3449,1187.6635 702.9927,1186.9975 C 705.1600,1186.1215 705.6412,1187.7265 706.9151,1188.1455 C 706.1271,1187.5685 705.2437,1186.9395 704.5818,1186.4255 C 704.2372,1186.1565 703.4702,1186.0935 703.8593,1185.4155 C 704.2369,1184.7575 705.1302,1184.6125 705.5210,1184.9045 C 704.8152,1184.5335 704.7007,1181.6445 706.1052,1182.4655 C 705.6680,1182.1145 705.0681,1182.1615 704.3042,1182.6055 C 704.5518,1182.9665 703.1110,1185.8805 702.5541,1186.3455 C 701.8398,1185.2695 700.8233,1183.3435 701.7701,1181.7045 C 701.9912,1181.3225 700.8286,1180.6265 701.7810,1180.1465 C 702.4899,1179.7895 703.7667,1179.7575 704.2759,1179.9445 C 704.0983,1179.7725 700.0808,1179.3805 702.2654,1178.1335 C 703.1771,1177.6125 704.4296,1178.3625 704.9812,1178.5745 C 704.4577,1178.2525 704.4816,1177.6595 705.2689,1177.0635 C 704.6703,1177.1255 701.5550,1176.8865 703.9492,1176.2635 C 701.5110,1177.0725 702.1340,1173.7815 699.8773,1174.3245 C 700.5789,1172.3945 702.6787,1174.6525 702.9833,1175.1145 C 702.8668,1174.6145 702.7094,1174.1345 702.5125,1173.6745 C 704.1518,1173.4685 704.9464,1174.1395 706.1398,1174.5295 C 706.6471,1174.6955 707.3835,1174.5205 707.7474,1174.8595 C 708.2551,1175.3335 709.3337,1175.0795 709.7295,1175.5445 C 710.2458,1175.1055 710.4007,1174.6985 710.1952,1174.3245 C 709.0280,1175.9155 707.4073,1173.7405 707.7401,1172.8845 C 708.4090,1173.6035 709.7341,1173.3875 710.7784,1173.6745 C 710.4131,1173.5265 709.9906,1173.4615 709.5096,1173.4795 C 708.6167,1173.3985 708.6226,1172.5275 708.1469,1172.0945 C 707.7248,1171.7085 707.0582,1171.8915 706.8402,1171.3045 C 706.6679,1170.8385 707.2668,1170.2345 706.9790,1169.7845 C 707.2596,1170.6305 706.4558,1172.6385 704.7951,1172.2475 C 703.3813,1171.9145 699.9428,1172.1855 699.3271,1171.1535 C 700.1181,1170.9945 700.6055,1170.5365 700.4149,1170.0045 C 702.2304,1169.6245 702.0530,1171.3185 703.3482,1171.5845 C 702.1917,1171.3705 703.5419,1170.2305 704.3602,1170.5745 C 704.8382,1169.2595 703.3483,1170.5355 702.6578,1170.1035 C 702.1844,1169.8065 702.2481,1169.0635 701.4404,1169.0635 C 700.6089,1169.0635 703.3644,1165.6895 703.8232,1167.6245 C 703.8588,1167.0375 704.2742,1166.6665 704.9933,1166.6935 C 705.0645,1166.3325 705.0597,1165.9965 704.9786,1165.6835 C 704.4075,1166.6015 703.2863,1166.8855 703.2156,1165.9735 C 703.8221,1165.8125 704.4207,1165.6925 705.0109,1165.6145 C 704.7835,1164.9525 703.7122,1164.8235 703.1785,1164.3985 C 702.0645,1163.5135 701.9218,1163.0635 699.6915,1163.9545 C 700.4312,1163.7665 700.9789,1163.9865 701.1559,1164.4645 C 699.9399,1164.1675 698.6499,1163.9445 697.6941,1163.3455 C 696.0184,1162.2935 697.7807,1161.8285 697.5584,1160.5745 C 696.1148,1161.9575 692.8554,1162.1445 692.1634,1163.3845 C 694.6425,1161.2815 694.5090,1166.5595 692.2686,1164.2405 C 690.8031,1162.7165 694.6632,1158.7415 696.8345,1159.7045 C 696.1004,1159.6015 696.0667,1159.1355 696.8186,1158.5545 C 697.7154,1159.4865 698.0897,1157.2795 698.8309,1158.5545 C 698.0997,1157.8215 699.9818,1156.9175 699.0344,1156.2545 C 698.4612,1159.0095 695.6763,1156.7325 697.9555,1156.8245 C 697.1693,1156.7235 696.2992,1156.5255 696.4826,1155.6745 C 697.3951,1156.0295 698.8662,1155.0635 699.9510,1155.2635 C 700.8874,1155.4365 700.6263,1156.4005 701.6062,1156.4645 C 700.5687,1155.5765 702.3010,1155.2175 703.1634,1155.1225 C 704.1989,1155.0095 703.3807,1156.1125 704.4095,1156.1845 C 703.4947,1156.8875 704.1282,1158.2005 704.4885,1156.6845 C 706.4415,1157.6555 702.1626,1159.0635 701.0562,1158.4845 C 701.7482,1158.9835 704.5487,1159.4115 705.6668,1159.3445 C 705.1723,1159.0965 705.0252,1158.5785 705.3436,1157.9745 C 705.8492,1158.3845 706.5979,1158.5835 706.5540,1159.3595 C 706.5081,1160.1935 705.1811,1160.8855 705.2838,1161.7245 C 706.9739,1161.5365 709.0505,1158.0955 709.2602,1157.0445 C 708.6341,1157.8175 708.0465,1158.6255 707.1623,1159.2735 C 707.9989,1157.7415 707.4407,1153.8885 710.7862,1153.9435 C 710.0499,1153.4765 708.7767,1154.1315 707.9585,1154.8135 C 708.1138,1154.1185 707.9952,1153.2295 708.5596,1152.5035 C 709.2044,1151.6745 710.2492,1151.6625 710.9246,1150.8535 C 711.2303,1151.5065 711.9977,1151.7555 712.6342,1152.1275 C 713.4552,1152.6065 714.2055,1151.5925 713.3122,1151.6615 C 712.5919,1151.7165 712.2961,1151.4275 711.8895,1151.1175 C 711.1158,1150.5435 709.7508,1151.0495 708.9606,1150.5625 C 711.2352,1149.3805 707.5677,1148.1615 711.0084,1147.8285 C 713.4778,1147.5895 715.8100,1144.5965 715.3227,1142.9325 C 713.9590,1144.1615 709.9340,1141.7085 710.5672,1140.5195 C 710.8903,1140.2725 711.1789,1140.2595 711.4314,1140.4825 C 710.5690,1139.0845 713.9309,1138.1795 713.4926,1137.0225 C 712.8497,1137.8935 711.9619,1137.9145 712.3344,1136.9715 C 712.8041,1135.7855 711.7499,1136.2385 711.6457,1135.1325 C 711.5568,1134.1755 712.2780,1133.7925 712.8696,1132.9645 C 713.2107,1132.4845 712.7470,1131.0765 714.1855,1131.4125 C 714.5541,1130.5385 713.9768,1130.4185 713.6960,1129.8385 C 713.4651,1129.3595 713.8906,1128.7235 713.7684,1128.2175 C 713.3178,1126.3365 714.4296,1127.4285 715.8278,1127.1625 C 714.6552,1127.0105 713.9149,1125.7625 714.0264,1124.7125 C 716.0330,1124.1425 716.3193,1125.5095 716.6831,1126.6515 C 717.1442,1125.1485 716.6362,1123.6235 716.3777,1122.3415 C 714.1884,1123.7125 712.7404,1121.7145 715.2084,1120.5315 C 716.7694,1119.7815 718.7012,1119.2365 717.6926,1117.8015 C 716.9862,1121.7475 714.8372,1118.8735 713.0866,1118.4475 C 711.7489,1118.1235 711.8483,1120.2655 710.8215,1120.7555 C 709.2881,1121.4865 705.2677,1120.2595 708.1708,1119.2415 C 703.8847,1119.1575 705.9582,1112.9725 706.4670,1110.2565 C 706.6935,1109.0515 706.8266,1106.3055 707.8580,1105.1095 C 708.8897,1103.9135 709.4030,1104.9665 709.6903,1103.4355 C 709.8905,1102.3705 710.7266,1101.3615 710.8215,1100.2885 C 710.9646,1098.6715 710.7968,1097.7905 710.1661,1096.1235 C 709.5270,1094.4265 708.5397,1092.8605 708.5559,1090.8415 C 708.5671,1089.5955 709.2269,1088.7145 708.5407,1087.6425 C 708.0808,1086.9215 707.6124,1086.2625 707.3813,1085.4095 C 707.1900,1084.6985 707.8919,1084.3115 707.7840,1083.7765 C 707.5905,1082.8155 707.2507,1082.1425 707.7687,1081.0125 C 708.4607,1081.6285 709.9373,1082.0235 710.8186,1080.7365 C 711.9134,1079.1365 710.5434,1077.9145 711.6482,1076.3335 C 711.4982,1076.9015 711.7613,1077.2195 712.3791,1077.1925 C 712.4854,1076.7915 712.5131,1076.4055 712.4632,1076.0355 C 712.4918,1075.3085 713.3930,1074.5065 713.6262,1073.7435 C 714.0842,1072.2265 713.4857,1071.2205 714.9140,1069.7875 C 716.0696,1068.6275 714.8424,1067.9425 715.8685,1066.5625 C 716.6450,1065.5175 718.0503,1063.7435 718.5448,1062.6525 C 719.7463,1059.9995 719.4244,1057.1955 720.3681,1054.5835 C 720.8912,1053.1345 722.6632,1051.8945 722.9451,1050.6055 C 723.1929,1049.4765 722.6115,1048.1545 722.4449,1047.1135 C 722.3043,1046.2325 723.2248,1045.0565 723.7966,1044.2525 C 724.4143,1043.3835 724.1493,1041.9755 724.2707,1041.1225 C 724.3588,1040.5065 724.8951,1039.9905 724.5804,1039.4265 C 724.2505,1038.8345 723.9665,1038.2445 723.9044,1037.5235 C 723.7664,1035.9275 723.9394,1034.4455 723.6714,1032.8515 C 723.0408,1029.9595 722.2796,1026.8175 722.3745,1023.7075 C 722.4227,1022.1285 722.7924,1021.9715 724.1046,1021.1745 C 725.1287,1020.5525 724.5334,1019.1625 725.3062,1018.3585 C 726.0401,1017.5945 725.0564,1013.4015 724.5171,1012.8915 C 723.8396,1012.2485 723.2002,1010.3885 723.9986,1009.3635 C 725.1124,1007.9345 725.5085,1006.6575 726.3585,1005.1235 C 726.8984,1004.1505 726.5442,1002.4485 726.8022,1001.3795 C 727.2223,999.6445 728.8127,998.5935 728.5095,996.8345 C 728.0573,994.1995 730.2380,990.9255 730.8680,988.1305 C 731.2162,985.6905 729.9235,983.6785 730.3553,981.3645 C 730.6042,980.0315 732.0939,979.8015 732.2151,978.5275 C 732.3771,976.8285 731.3408,975.1615 731.1989,973.4815 C 731.0511,971.7245 731.5890,969.9925 731.5643,968.2465 C 731.5528,967.3675 731.2999,966.7725 731.6705,965.8595 C 731.9734,965.1135 732.3937,964.3555 732.3276,963.5645 C 732.2491,962.6295 730.7260,963.1925 730.6199,962.1635 C 730.5076,961.0805 731.0312,959.9025 731.2719,958.8225 C 732.8155,960.3435 733.3586,955.3815 733.4353,954.6525 C 733.8801,950.4305 735.3751,945.5745 734.2775,941.6105 C 733.0904,937.3645 734.8049,932.6975 733.7293,928.3725 C 733.2817,926.5715 732.8155,924.4025 732.7178,922.5185 C 732.6465,921.3345 733.5177,918.9265 732.1961,918.2885"
       id="path6462" />
    <path
       d="M 702.4817,1155.0985 C 702.5294,1154.8315 702.5766,1154.5655 702.6243,1154.2985 C 703.6757,1154.3955 703.6275,1154.6615 702.4817,1155.0985"
       id="path6464" />
    <path
       d="M 713.6667,1208.8785 C 713.8082,1208.6145 713.9485,1208.3525 714.0888,1208.0885 C 714.1455,1208.3315 714.1451,1208.5945 714.0881,1208.8785 C 713.9465,1208.8785 713.8072,1208.8785 713.6667,1208.8785"
       id="path6470" />
    <path
       d="M 731.7767,1217.9485 C 731.5797,1217.2755 731.5295,1215.8365 732.7402,1214.9985 C 732.3838,1215.9655 734.1598,1215.8855 734.6106,1214.8485 C 734.8514,1214.2945 733.2160,1213.7255 732.7790,1213.5585 C 734.2232,1212.7875 734.9192,1213.7255 735.7995,1213.9225 C 737.7200,1214.3515 738.0720,1212.1605 739.2204,1211.3645 C 740.4494,1210.5115 741.2401,1212.4625 741.8882,1212.6255 C 743.0466,1212.9165 744.9006,1211.5825 745.7279,1212.2245 C 746.6410,1212.9315 745.7802,1214.5075 745.9895,1215.5375 C 746.2802,1216.9655 746.1431,1218.5645 745.9987,1220.1465 C 745.6463,1223.8135 746.3443,1227.2085 745.5954,1230.9775 C 745.0138,1230.5575 744.0734,1230.4695 743.4955,1230.0475 C 743.7345,1230.4545 744.1333,1230.7415 744.6925,1230.9075 C 742.7715,1232.0175 740.1966,1231.3275 739.0399,1230.8865 C 738.4487,1230.6595 738.2483,1229.6415 737.3046,1229.8415 C 736.0489,1230.1085 735.7040,1230.3545 735.2362,1229.6165 C 735.2501,1229.9255 735.2611,1230.2355 735.2691,1230.5465 C 734.9783,1229.9955 731.4458,1231.1065 733.3976,1229.5365 C 732.7520,1230.3045 729.5061,1230.7055 728.8966,1230.4065 C 729.6880,1230.0155 730.4871,1229.6555 731.2927,1229.3265 C 730.5571,1228.8085 728.4298,1229.8655 727.3035,1230.0465 C 727.6153,1229.4705 727.6350,1228.9905 727.3601,1228.6075 C 725.8330,1230.4145 725.6280,1228.3005 725.0963,1227.9575 C 725.4318,1229.3115 723.3400,1228.8185 722.5942,1228.7045 C 722.0006,1228.6125 720.8525,1229.2035 720.3763,1229.0375 C 719.8737,1228.8625 720.2708,1227.9035 719.9218,1227.5975 C 721.0008,1227.5345 721.2875,1228.2355 722.1638,1228.3875 C 722.4660,1227.8155 722.2969,1227.4225 721.5044,1227.5285 C 722.3412,1227.3095 722.8696,1227.4295 723.0896,1227.8875 C 722.1202,1226.3335 726.8182,1227.9745 727.7956,1227.3545 C 728.6202,1226.8305 728.6151,1225.9755 729.9087,1226.3255 C 730.7976,1226.5645 728.2269,1228.9705 730.1904,1228.6085 C 729.8319,1228.2815 729.8056,1227.7545 730.3175,1227.1685 C 731.8221,1227.1475 732.3129,1228.7335 734.1595,1228.1785 C 733.1372,1227.5085 731.7801,1227.1575 730.9983,1226.3015 C 730.3175,1225.5555 728.3951,1226.1395 728.2903,1224.9385 C 730.4973,1225.2655 732.8145,1225.8755 734.0571,1227.0985 C 733.5462,1226.6985 733.8460,1225.8215 734.9892,1225.9835 C 736.0101,1226.1285 736.2209,1227.0755 736.7512,1227.5985 C 736.7956,1227.0465 736.6074,1226.6145 736.1890,1226.2985 C 737.5235,1225.9525 737.9388,1227.2255 738.9600,1226.8045 C 740.5857,1226.1345 741.3258,1227.7315 739.7277,1228.7485 C 740.4118,1228.1635 741.2171,1227.8945 741.6281,1228.3185 C 741.1538,1227.4105 742.1069,1227.3655 742.9322,1227.4585 C 741.1716,1225.1875 734.3090,1225.9535 733.8974,1222.7515 C 733.5873,1220.4825 739.8210,1220.9625 740.2800,1218.9055 C 740.8572,1216.3395 732.1072,1220.5635 731.7767,1217.9485"
       id="path6472" />
  </g>
  
  
  
  
  
  
  
  
  
  
  
  
  
  
  
  
  
  
  
  
  
  
  
  
  
  
  
  
  
  
  
  
  
  
  
  
  
  
  
  
  
  
  
  
  
  
  
  
  
  
  
  
  
  
  
  
  
  
  
  
  
  
  
  
  
  
  
  
  
  
  
  
  
  
  
  
  
  
  
  
  
  
  
  
  
  
  
  
  
  
  
  
  
  
  
  
  
  
  
  
  
  
</svg>
