<?xml version="1.0" encoding="UTF-8" standalone="no"?>
<svg
   xmlns:dc="http://purl.org/dc/elements/1.1/"
   xmlns:cc="http://web.resource.org/cc/"
   xmlns:rdf="http://www.w3.org/1999/02/22-rdf-syntax-ns#"
   xmlns:svg="http://www.w3.org/2000/svg"
   xmlns="http://www.w3.org/2000/svg"
   xmlns:sodipodi="http://sodipodi.sourceforge.net/DTD/sodipodi-0.dtd"
   xmlns:inkscape="http://www.inkscape.org/namespaces/inkscape"
   viewBox="0 0 2752.766 1537.631"
   version="1.0"
   height="476.7276"
   width="939.74725"
   id="svg1926"
   sodipodi:version="0.32"
   inkscape:version="0.45.1"
   sodipodi:docname="BlankMap-World6.svg"
   sodipodi:docbase="/home/bennett/Desktop"
   inkscape:output_extension="org.inkscape.output.svg.inkscape">
  <sodipodi:namedview
     inkscape:window-height="590"
     inkscape:window-width="822"
     inkscape:pageshadow="2"
     inkscape:pageopacity="0.0"
     guidetolerance="10.0"
     gridtolerance="10.0"
     objecttolerance="10.0"
     borderopacity="1.0"
     bordercolor="#666666"
     pagecolor="#ffffff"
     id="base"
     inkscape:zoom="0.77893284"
     inkscape:cx="469.87363"
     inkscape:cy="238.3638"
     inkscape:window-x="178"
     inkscape:window-y="46"
     inkscape:current-layer="svg1926" />
  <metadata
     id="metadata24111">
    <rdf:RDF>
      <cc:Work
         rdf:about="">
        <dc:format>image/svg+xml</dc:format>
        <dc:type
           rdf:resource="http://purl.org/dc/dcmitype/StillImage" />
        <cc:license
           rdf:resource="http://web.resource.org/cc/PublicDomain" />
        <dc:title>Blank World Map</dc:title>
      </cc:Work>
      <cc:License
         rdf:about="http://web.resource.org/cc/PublicDomain">
        <cc:permits
           rdf:resource="http://web.resource.org/cc/Reproduction" />
        <cc:permits
           rdf:resource="http://web.resource.org/cc/Distribution" />
        <cc:permits
           rdf:resource="http://web.resource.org/cc/DerivativeWorks" />
      </cc:License>
    </rdf:RDF>
  </metadata>
  <defs
     id="defs1930" />
  <style
     type="text/css"
     id="style_css_sheet">
/*
 * Below are Cascading Style Sheet (CSS) definitions in use in this file,
 * which allow easily changing how countries are displayed.
 *
 */

/*
 * Circles around small countries
 *
 * Change opacity to 1 to display all circles.
 *
 */
.circle
{
   opacity:0;
   fill:#b9b9b9;
   fill-opacity:1;
   stroke:black;
   stroke-width:0.99986893;
   stroke-miterlimit:3.97446823;
   stroke-dasharray:none;
   stroke-opacity:1;
}

/*
 * Land
 */
.land
{
   fill: #b9b9b9;
   fill-opacity: 1;
   stroke: #ffffff;
   stroke-opacity: 1;
   stroke-width: 0.99986997;
   stroke-miterlimit: 3.97446823;
   stroke-dasharray: none;
}

/*
 * Additional style rules
 *
 * The following are examples of colouring countries.  You can substitute these with your own styles to colour the countries on the map.
 *
 * Color a few countries:
 *
 * .gb, .au, .nc
 * {
 *    fill:       #ff0000;
 * }
 *
 * Color a few small country circles (and the countries):
 *
 * .ms, .ky
 * {
 *    opacity:    1;
 *    fill:       #ff0000;
 * }
 *
 */

/*
 * Antarctica
 */

.aq
{
   fill:#e6e6e6;
}

/*
 * Sea
 */

.ocean
{
   opacity: 1;
   color: #000000;
   fill:white;
   fill-opacity:1;
   fill-rule:nonzero;
   stroke:#000000;
   stroke-width:0.5;
   stroke-linecap:butt;
   stroke-linejoin:miter;
   marker:none;
   marker-start:none;
   marker-mid:none;
   marker-end:none;
   stroke-miterlimit:1;
   stroke-dasharray:none;
   stroke-dashoffset:0;
   stroke-opacity:1;
   visibility:visible;
   display:inline;
   overflow:visible;
}

.lake
{
   fill:#ffffff;
   fill-opacity:1;
   stroke:#ffffff;
   stroke-opacity:1;
   stroke-width:0.99986997;
   stroke-miterlimit:3.97446823;
   stroke-dasharray:none;
}
</style>
  
  
  
  
  
  
  
  
  
  
  
  
  
  
  
  <path
     class="land cm"
     d="M 1336.1386,717.9085 C 1337.0827,717.1036 1337.4648,715.8916 1337.7097,714.7206 C 1337.9006,713.8066 1338.8204,711.6146 1338.5726,710.7645 C 1338.1491,709.3146 1338.2052,709.3265 1339.3672,708.2755 C 1340.6515,707.1136 1341.5169,705.5765 1342.7905,704.3955 C 1343.5210,703.7165 1344.5563,703.1115 1344.9361,702.1706 C 1345.2638,701.3596 1346.6220,699.6595 1347.5273,699.4045 C 1348.5229,699.1236 1349.0340,700.3945 1350.2541,700.1286 C 1351.2206,699.9176 1351.2771,698.5775 1351.4979,697.8206 C 1351.6792,698.5906 1353.8017,700.5675 1354.4892,700.8895 C 1355.4673,701.3475 1354.8057,705.0485 1356.8388,703.8845 C 1357.9769,703.2325 1358.9672,701.9306 1358.8390,700.7196 C 1358.7564,699.9356 1360.0315,699.0355 1360.5552,698.6176 C 1361.4262,697.9235 1360.4513,697.2405 1360.8463,696.2716 C 1361.6919,694.2035 1363.1273,692.3085 1363.7980,690.1286 C 1364.0952,689.1635 1363.8055,688.1305 1364.0836,687.2106 C 1364.2992,686.4965 1365.2076,686.3175 1365.3792,685.5886 C 1365.6558,684.4166 1368.2767,684.7766 1368.5281,682.5566 C 1368.6004,681.9166 1369.7168,678.8056 1368.6448,678.5965 C 1369.8788,677.9706 1371.5873,677.1745 1371.7967,675.7716 C 1371.9329,674.8565 1371.8359,674.0765 1371.8376,673.1605 C 1371.8393,672.2065 1372.8437,672.2636 1373.2820,671.6126 C 1374.3440,670.0395 1374.0935,667.7866 1374.9838,666.0616 C 1375.5606,664.9435 1376.0969,662.5635 1377.3870,662.0366 C 1378.7569,661.4765 1381.9817,661.6295 1382.3766,659.3866 C 1382.4901,658.7396 1381.7294,658.2876 1382.0703,657.6155 C 1382.5453,656.6785 1382.2884,655.5946 1382.5553,654.6105 C 1382.8265,653.6105 1380.7366,652.6286 1380.0265,652.6916 C 1378.2841,652.8456 1378.2973,647.8066 1378.0813,646.3415 C 1378.9579,646.3415 1380.3357,646.0036 1380.9975,646.7716 C 1381.9580,647.8866 1381.4900,648.9625 1382.9369,649.7826 C 1384.8064,650.8415 1383.5948,653.5545 1385.0955,654.9166 C 1387.0626,656.7025 1385.3838,662.1065 1385.4414,664.3876 C 1385.5263,667.7125 1387.3558,671.4675 1390.3483,673.1255 C 1388.1938,673.7495 1385.9536,673.1255 1383.7728,673.5216 C 1382.1338,673.8206 1379.8900,672.0965 1378.6662,673.9546 C 1377.2230,676.1445 1377.3182,676.7275 1379.1429,678.8135 C 1380.9702,680.9035 1383.0927,682.7175 1385.1029,684.6255 C 1385.7105,685.2015 1386.5226,685.8306 1386.9138,686.5896 C 1387.6800,688.0775 1387.9205,691.5276 1389.1853,692.5625 C 1390.2888,693.4646 1388.3395,695.3016 1387.7136,696.0015 C 1386.6603,697.1816 1386.0947,699.2876 1385.6263,700.8025 C 1385.4654,701.3235 1384.7566,701.3855 1384.5487,701.8966 C 1384.1652,702.8406 1383.9159,703.8605 1383.4795,704.7835 C 1383.0008,705.7966 1379.8931,706.3265 1381.3072,707.8125 C 1382.2835,708.8375 1382.3933,709.7726 1382.2095,711.5176 C 1382.1263,712.3066 1382.0806,712.9485 1381.6372,713.6255 C 1381.6875,713.5485 1382.4570,714.9546 1382.4708,715.0445 C 1382.6902,716.5166 1382.7470,718.7626 1383.6258,720.0195 C 1384.1909,720.8285 1385.1203,721.1576 1385.4709,722.1366 C 1385.7636,722.9556 1385.8088,723.9836 1386.5894,724.5335 C 1384.1012,724.5965 1389.5270,730.9406 1390.0470,731.5205 C 1390.5661,732.0996 1391.2202,732.6685 1392.0466,732.6685 C 1392.3958,732.6685 1392.8998,733.6716 1393.0714,733.9145 C 1393.4623,734.4675 1393.3119,735.0585 1393.3395,735.6916 C 1393.4090,737.2935 1393.9767,738.8225 1394.3293,740.3726 C 1392.6542,740.3025 1393.9588,744.3665 1393.3250,745.2686 C 1392.2527,744.2156 1391.0675,743.2686 1389.6174,742.8045 C 1388.9883,742.6025 1387.0775,741.9456 1386.4861,742.1146 C 1385.6987,742.3396 1384.4786,742.4095 1384.1122,741.4955 C 1384.1321,741.5445 1382.1393,740.7605 1381.9265,740.6766 C 1381.2488,740.4105 1379.2148,740.9506 1378.3298,740.8986 C 1376.7168,740.8056 1375.0991,741.2085 1373.4913,740.9815 C 1373.2183,740.9435 1372.4004,740.8146 1372.0876,740.6616 C 1371.4829,740.3646 1372.3597,739.7545 1371.2344,739.8665 C 1369.7481,740.0136 1368.4487,740.2545 1366.9348,739.9295 C 1365.1579,739.5485 1363.7025,739.8475 1361.9173,739.7926 C 1360.7531,739.7565 1358.6672,739.0946 1357.5627,739.7035 C 1357.2476,739.8776 1357.3662,740.8066 1357.0271,740.8066 C 1355.9250,740.8066 1354.8240,740.8066 1353.7219,740.8066 C 1352.1857,740.8066 1350.6596,740.8636 1349.1255,740.8976 C 1345.8327,740.9715 1345.1261,739.1626 1345.8194,736.1086 C 1346.2146,734.3686 1346.8150,732.4815 1345.8741,730.7976 C 1345.4306,730.0036 1343.9058,728.6595 1345.5135,728.1336 C 1344.6076,728.6535 1342.8515,727.7976 1343.9045,726.7495 C 1344.4591,726.1975 1345.6935,725.2396 1344.0715,725.1816 C 1344.3868,724.8335 1344.5530,724.4256 1344.5719,723.9575 C 1344.0645,725.1896 1343.5256,724.2096 1342.6995,724.2455 C 1343.0050,724.6535 1343.2203,724.9456 1342.6996,724.6775 C 1342.7318,725.0716 1342.6848,725.4556 1342.5597,725.8296 C 1341.8969,725.8056 1341.5764,725.2935 1341.7684,724.6775 C 1341.1970,725.7186 1339.5595,724.4135 1339.3479,723.6476 C 1339.0140,722.4366 1338.9431,720.3655 1338.0804,719.4216 C 1337.0905,720.6395 1337.2811,719.2056 1336.6381,719.2056 C 1336.7545,719.6795 1336.8278,720.1585 1336.8591,720.6445 C 1334.8132,720.9005 1335.9258,718.9846 1336.1386,717.9085"
     id="cm" />
  
  
  
  
  
  
  
  
  
  
  
  
  
  
  
  
  
  
  
  
  
  
  
  
  
  
  
  
  
  
  
  
  
  
  
  
  
  
  
  
  
  
  
  
  
  
  
  
  
  
  
  
  
  
  
  
  
  
  
  
  
  
  
  
  
  
  
  
  
  
  
  
  
  
  
  
  
  
  
  
  
  
  
  
  
  
  
  
  
  
  
  
  
  
  
  
  
  
  
  
  
  
  
  
  
  
  
  
  
  
  
  
  
  
  
  
  
  
  
  
  
  
  
  
  
  
  
  
  
  
  
  
  
  
  
  
  
  
  
  
  
  
  
  
  
  
  
  
  
  
  
  
  
  
  
  
  
  
  
  
  
  
  
  
  
  
  
  
  
  
  
  
  
  
  
  
  
  
  
  
  
  
  
  
  
  
  
  
  
  
  
  
  
  
  
  
  
  
  
  
  
  
  
  
  
  
  
  
  
  
  
  
  
  
  
  
</svg>
