<?xml version="1.0" encoding="UTF-8" standalone="no"?>
<svg
   xmlns:dc="http://purl.org/dc/elements/1.1/"
   xmlns:cc="http://web.resource.org/cc/"
   xmlns:rdf="http://www.w3.org/1999/02/22-rdf-syntax-ns#"
   xmlns:svg="http://www.w3.org/2000/svg"
   xmlns="http://www.w3.org/2000/svg"
   xmlns:sodipodi="http://sodipodi.sourceforge.net/DTD/sodipodi-0.dtd"
   xmlns:inkscape="http://www.inkscape.org/namespaces/inkscape"
   viewBox="0 0 2752.766 1537.631"
   version="1.0"
   height="476.7276"
   width="939.74725"
   id="svg1926"
   sodipodi:version="0.32"
   inkscape:version="0.45.1"
   sodipodi:docname="BlankMap-World6.svg"
   sodipodi:docbase="/home/bennett/Desktop"
   inkscape:output_extension="org.inkscape.output.svg.inkscape">
  <sodipodi:namedview
     inkscape:window-height="590"
     inkscape:window-width="822"
     inkscape:pageshadow="2"
     inkscape:pageopacity="0.0"
     guidetolerance="10.0"
     gridtolerance="10.0"
     objecttolerance="10.0"
     borderopacity="1.0"
     bordercolor="#666666"
     pagecolor="#ffffff"
     id="base"
     inkscape:zoom="0.77893284"
     inkscape:cx="469.87363"
     inkscape:cy="238.3638"
     inkscape:window-x="178"
     inkscape:window-y="46"
     inkscape:current-layer="svg1926" />
  <metadata
     id="metadata24111">
    <rdf:RDF>
      <cc:Work
         rdf:about="">
        <dc:format>image/svg+xml</dc:format>
        <dc:type
           rdf:resource="http://purl.org/dc/dcmitype/StillImage" />
        <cc:license
           rdf:resource="http://web.resource.org/cc/PublicDomain" />
        <dc:title>Blank World Map</dc:title>
      </cc:Work>
      <cc:License
         rdf:about="http://web.resource.org/cc/PublicDomain">
        <cc:permits
           rdf:resource="http://web.resource.org/cc/Reproduction" />
        <cc:permits
           rdf:resource="http://web.resource.org/cc/Distribution" />
        <cc:permits
           rdf:resource="http://web.resource.org/cc/DerivativeWorks" />
      </cc:License>
    </rdf:RDF>
  </metadata>
  <defs
     id="defs1930" />
  <style
     type="text/css"
     id="style_css_sheet">
/*
 * Below are Cascading Style Sheet (CSS) definitions in use in this file,
 * which allow easily changing how countries are displayed.
 *
 */

/*
 * Circles around small countries
 *
 * Change opacity to 1 to display all circles.
 *
 */
.circle
{
   opacity:0;
   fill:#b9b9b9;
   fill-opacity:1;
   stroke:black;
   stroke-width:0.99986893;
   stroke-miterlimit:3.97446823;
   stroke-dasharray:none;
   stroke-opacity:1;
}

/*
 * Land
 */
.land
{
   fill: #b9b9b9;
   fill-opacity: 1;
   stroke: #ffffff;
   stroke-opacity: 1;
   stroke-width: 0.99986997;
   stroke-miterlimit: 3.97446823;
   stroke-dasharray: none;
}

/*
 * Additional style rules
 *
 * The following are examples of colouring countries.  You can substitute these with your own styles to colour the countries on the map.
 *
 * Color a few countries:
 *
 * .gb, .au, .nc
 * {
 *    fill:       #ff0000;
 * }
 *
 * Color a few small country circles (and the countries):
 *
 * .ms, .ky
 * {
 *    opacity:    1;
 *    fill:       #ff0000;
 * }
 *
 */

/*
 * Antarctica
 */

.aq
{
   fill:#e6e6e6;
}

/*
 * Sea
 */

.ocean
{
   opacity: 1;
   color: #000000;
   fill:white;
   fill-opacity:1;
   fill-rule:nonzero;
   stroke:#000000;
   stroke-width:0.5;
   stroke-linecap:butt;
   stroke-linejoin:miter;
   marker:none;
   marker-start:none;
   marker-mid:none;
   marker-end:none;
   stroke-miterlimit:1;
   stroke-dasharray:none;
   stroke-dashoffset:0;
   stroke-opacity:1;
   visibility:visible;
   display:inline;
   overflow:visible;
}

.lake
{
   fill:#ffffff;
   fill-opacity:1;
   stroke:#ffffff;
   stroke-opacity:1;
   stroke-width:0.99986997;
   stroke-miterlimit:3.97446823;
   stroke-dasharray:none;
}
</style>
  
  
  
  
  
  
  
  
  
  
  
  
  
  
  
  
  
  
  
  
  
  
  
  
  
  
  
  
  
  
  
  
  
  
  
  
  
  
  
  
  
  
  
  
  
  
  <path
     class="land co"
     d="M 667.0997,745.8456 C 666.8332,745.7736 666.5668,745.7015 666.3003,745.6295 C 666.5246,743.9095 668.3534,743.3665 669.7820,744.1896 C 670.4930,742.7215 668.5587,741.3375 669.2579,739.8406 C 670.1533,737.9195 672.3109,738.0176 674.1080,737.7106 C 674.4494,737.6526 674.3022,736.8216 674.7787,737.1025 C 675.1286,737.3085 675.9140,737.4896 675.8993,736.8845 C 675.8701,735.6775 677.4015,734.1766 676.4172,733.3905 C 678.1342,733.3446 678.3798,731.1345 678.8483,729.9625 C 679.2187,729.0366 679.9798,728.3955 680.7780,727.8465 C 679.7361,727.0186 680.9365,726.8936 681.2245,726.0466 C 680.5175,726.0746 679.6323,726.6576 679.3362,725.6146 C 679.8863,725.4706 680.2796,725.0635 680.2361,724.4625 C 679.6842,724.2716 678.6241,725.7296 678.4745,724.6065 C 678.3181,723.4285 678.9834,723.1946 679.8917,722.7336 C 678.4432,722.7476 679.0426,720.8216 679.2152,720.0295 C 679.5524,718.4746 679.1442,716.3905 678.9426,714.8066 C 678.7895,713.6075 678.2194,712.4636 678.0974,711.2686 C 678.0311,710.6146 680.1189,710.3575 679.7137,708.8306 C 679.4717,707.9166 677.2960,705.8175 678.6779,705.2885 C 679.9204,704.8135 678.7546,702.1505 678.1863,701.5426 C 677.0270,700.3156 676.8054,698.4805 675.5666,697.4466 C 674.7514,696.7666 675.4932,695.9095 675.9192,695.2876 C 676.4336,694.5385 675.8591,693.5616 676.4871,692.9256 C 676.8693,693.3525 677.1566,693.8325 677.3491,694.3655 C 678.8393,693.2906 680.9328,691.1906 680.1230,689.1046 C 679.2927,686.9675 677.9088,686.5145 679.1261,684.5005 C 679.9167,685.4615 680.7888,686.7736 681.4818,687.8415 C 682.1964,688.9435 683.8403,689.2795 682.4460,690.6205 C 684.5062,692.8586 683.2478,686.4406 682.9389,685.7536 C 682.4954,684.7636 686.9693,682.4815 687.5175,681.6816 C 688.2068,680.6745 688.6550,678.9846 689.8604,678.4535 C 690.5434,678.1535 692.2019,678.3246 692.5434,677.5456 C 693.0080,676.4385 691.8948,676.0385 692.0646,675.3565 C 692.3656,674.1436 692.4057,672.6196 693.0318,671.5416 C 691.9586,671.4335 692.2176,671.0825 692.9093,670.7146 C 693.5415,670.3786 693.2106,669.4746 693.1453,668.9105 C 692.9922,667.5865 695.2034,667.2156 695.1647,666.7526 C 695.1069,666.0595 697.6157,663.3815 698.2539,663.3986 C 699.5180,663.4306 700.6753,664.5435 701.9337,664.5575 C 700.8600,664.4176 701.1055,665.5625 700.1343,665.5656 C 701.0974,668.2866 702.4133,664.6656 702.7026,663.6845 C 703.4235,661.2355 704.5267,661.4116 707.1569,661.8415 C 710.7453,662.4285 711.6862,660.1405 714.3444,658.4775 C 715.8066,657.5625 720.1881,656.4736 718.5973,653.8306 C 719.1704,653.6566 720.7889,653.1305 719.9432,654.3346 C 721.0176,654.1695 720.2463,653.0965 721.3957,652.5585 C 722.7802,651.9116 724.0425,651.9105 725.3508,652.9285 C 729.8108,656.4016 720.9172,657.8085 719.7054,659.5186 C 719.0581,660.4316 718.8924,661.7645 718.1030,662.5575 C 717.5547,663.1086 716.5825,663.0026 716.1025,663.5996 C 715.1985,664.7236 714.2944,666.4396 713.7641,667.7876 C 712.9730,669.7966 713.1002,671.8586 712.7315,673.9755 C 712.3681,676.0545 711.0310,678.5535 709.7162,680.1835 C 710.8691,680.2165 711.7387,679.7695 712.5563,679.0316 C 712.7617,679.5195 712.8564,680.0245 712.8403,680.5445 C 715.0039,679.9815 714.4414,683.8486 715.6136,685.2545 C 717.2868,687.2626 717.7744,688.4425 716.9562,690.9095 C 716.5456,692.1495 715.9157,694.8025 717.6253,695.4316 C 719.5650,696.1445 718.6541,698.4105 720.6375,698.8726 C 721.4398,699.0595 722.1777,698.5556 722.9501,698.4725 C 724.2104,698.3365 725.4014,699.1835 726.6676,699.0675 C 727.7951,698.9646 728.7088,698.1626 729.8648,698.1845 C 730.8923,698.2046 731.6990,699.1935 732.6794,699.4216 C 733.3994,699.5886 734.0384,698.9915 734.7135,699.5606 C 735.6018,700.3085 736.2398,701.6766 736.8991,702.6036 C 737.5099,703.4636 738.0729,704.3365 738.6265,705.2305 C 739.3421,706.3845 739.6142,706.0616 740.6522,706.3586 C 742.1631,706.7916 743.5064,705.6075 745.4826,706.3895 C 746.0868,706.6286 747.3836,705.9746 748.0286,705.9606 C 749.4418,705.9285 750.6477,706.0406 751.8667,705.2895 C 753.2473,704.4396 755.6166,706.1115 754.9214,707.5865 C 754.5237,708.4295 753.5152,709.0765 753.3580,710.0195 C 753.1641,711.1806 753.6505,711.7895 752.5671,712.5406 C 751.1243,713.5416 751.8237,717.5656 751.7256,719.1975 C 751.6084,721.1366 752.4721,723.1985 752.8957,725.2455 C 753.2145,726.7876 756.2323,728.8246 755.7979,730.3976 C 755.2628,732.3325 751.6343,733.0875 751.7813,735.4076 C 753.0757,734.4145 756.4124,738.0485 756.8623,739.1516 C 756.7788,739.4506 756.7104,739.7526 756.6551,740.0585 C 756.8423,740.6196 757.3924,741.1745 757.4106,741.7755 C 757.4483,743.0245 758.2123,744.3446 758.5568,745.5815 C 758.8288,746.5606 759.9383,749.0276 758.6895,749.1795 C 757.5025,749.3235 757.7430,748.0476 757.8185,747.2926 C 757.9348,746.1146 756.4077,740.6086 754.6996,741.2255 C 753.7807,741.5575 751.1891,746.3555 750.3577,743.5476 C 750.0473,742.5026 748.6889,742.0266 748.8810,743.5435 C 749.0975,745.2486 746.9127,744.6245 745.7524,744.6245 C 744.0138,744.6245 742.2743,744.6245 740.5357,744.6245 C 739.3854,744.6245 738.1230,743.9475 737.0063,744.4466 C 735.3379,745.1906 736.7956,748.9846 736.6371,750.3845 C 738.0042,749.4596 741.2172,750.2616 741.8365,751.7726 C 742.0657,752.3315 742.1987,754.2136 741.1325,754.1165 C 740.4733,754.0566 740.0724,753.1806 739.3626,753.3075 C 737.7961,753.5875 735.0568,754.0186 734.9458,755.8475 C 734.8106,758.0756 734.6214,761.1935 736.5486,762.6505 C 737.5212,763.3855 738.6557,764.0205 738.6087,765.4105 C 738.5635,766.7446 739.2436,767.2555 739.7671,768.3815 C 740.9556,770.9366 739.3981,774.4316 738.9407,777.0445 C 737.8401,783.3356 737.7284,790.1785 735.5584,796.2515 C 735.1336,795.0946 734.2544,794.0445 733.4605,793.1276 C 732.5563,792.0835 731.3951,793.1255 730.3270,792.5055 C 729.3364,791.9306 732.1054,787.9585 732.4801,787.3586 C 733.2111,786.1906 735.5746,783.8246 734.5686,782.7035 C 734.1333,782.2196 733.3533,780.9195 732.6195,781.2006 C 731.3751,781.6766 730.3994,779.8116 729.5790,779.3075 C 728.1993,778.4585 727.9968,779.1635 726.6449,779.8146 C 725.3651,780.4316 724.1119,779.3636 723.1548,778.7236 C 722.0339,777.9736 719.9327,780.4105 718.5905,780.9256 C 717.7792,781.2376 716.2150,780.7545 715.1905,780.8866 C 713.7768,781.0706 713.1165,780.7835 712.0431,779.9245 C 711.2057,779.2536 712.1052,777.6115 711.8344,776.5915 C 711.4650,775.1996 709.2296,775.9546 709.0367,774.5575 C 708.8982,773.5625 708.6845,772.3565 708.2824,771.4285 C 707.8602,770.4535 706.3796,770.6576 705.7767,769.7985 C 705.1235,768.8676 704.6346,768.8895 703.7629,768.5965 C 702.6540,768.2246 702.2841,766.5145 702.1978,765.5145 C 702.0345,763.6086 698.2548,760.7716 696.4785,760.2515 C 696.1363,760.1505 695.7769,759.5406 695.4750,760.0226 C 695.1481,760.5435 695.1567,760.7645 694.4569,760.4466 C 693.4147,759.9725 691.8124,759.4116 690.9337,758.7255 C 690.2514,758.1925 686.8006,754.0685 686.4332,756.9035 C 686.2426,758.3765 680.9693,756.6416 679.8157,756.4356 C 677.9448,756.1015 679.3171,754.5195 677.9377,753.9306 C 676.7273,753.4135 677.2599,752.3836 675.7028,752.3646 C 674.4786,752.3505 672.2695,750.7075 671.3627,749.9596 C 669.8153,748.7035 668.3247,747.4466 667.0997,745.8456"
     id="co" />
  
  
  
  
  
  
  
  
  
  
  
  
  
  
  
  
  
  
  
  
  
  
  
  
  
  
  
  
  
  
  
  
  
  
  
  
  
  
  
  
  
  
  
  
  
  
  
  
  
  
  
  
  
  
  
  
  
  
  
  
  
  
  
  
  
  
  
  
  
  
  
  
  
  
  
  
  
  
  
  
  
  
  
  
  
  
  
  
  
  
  
  
  
  
  
  
  
  
  
  
  
  
  
  
  
  
  
  
  
  
  
  
  
  
  
  
  
  
  
  
  
  
  
  
  
  
  
  
  
  
  
  
  
  
  
  
  
  
  
  
  
  
  
  
  
  
  
  
  
  
  
  
  
  
  
  
  
  
  
  
  
  
  
  
  
  
  
  
  
  
  
  
  
  
  
  
  
  
  
  
  
  
  
  
  
</svg>
