<?xml version="1.0" encoding="UTF-8" standalone="no"?>
<svg
   xmlns:dc="http://purl.org/dc/elements/1.1/"
   xmlns:cc="http://web.resource.org/cc/"
   xmlns:rdf="http://www.w3.org/1999/02/22-rdf-syntax-ns#"
   xmlns:svg="http://www.w3.org/2000/svg"
   xmlns="http://www.w3.org/2000/svg"
   xmlns:sodipodi="http://sodipodi.sourceforge.net/DTD/sodipodi-0.dtd"
   xmlns:inkscape="http://www.inkscape.org/namespaces/inkscape"
   viewBox="0 0 2752.766 1537.631"
   version="1.0"
   height="476.7276"
   width="939.74725"
   id="svg1926"
   sodipodi:version="0.32"
   inkscape:version="0.45.1"
   sodipodi:docname="BlankMap-World6.svg"
   sodipodi:docbase="/home/bennett/Desktop"
   inkscape:output_extension="org.inkscape.output.svg.inkscape">
  <sodipodi:namedview
     inkscape:window-height="590"
     inkscape:window-width="822"
     inkscape:pageshadow="2"
     inkscape:pageopacity="0.0"
     guidetolerance="10.0"
     gridtolerance="10.0"
     objecttolerance="10.0"
     borderopacity="1.0"
     bordercolor="#666666"
     pagecolor="#ffffff"
     id="base"
     inkscape:zoom="0.77893284"
     inkscape:cx="469.87363"
     inkscape:cy="238.3638"
     inkscape:window-x="178"
     inkscape:window-y="46"
     inkscape:current-layer="svg1926" />
  <metadata
     id="metadata24111">
    <rdf:RDF>
      <cc:Work
         rdf:about="">
        <dc:format>image/svg+xml</dc:format>
        <dc:type
           rdf:resource="http://purl.org/dc/dcmitype/StillImage" />
        <cc:license
           rdf:resource="http://web.resource.org/cc/PublicDomain" />
        <dc:title>Blank World Map</dc:title>
      </cc:Work>
      <cc:License
         rdf:about="http://web.resource.org/cc/PublicDomain">
        <cc:permits
           rdf:resource="http://web.resource.org/cc/Reproduction" />
        <cc:permits
           rdf:resource="http://web.resource.org/cc/Distribution" />
        <cc:permits
           rdf:resource="http://web.resource.org/cc/DerivativeWorks" />
      </cc:License>
    </rdf:RDF>
  </metadata>
  <defs
     id="defs1930" />
  <style
     type="text/css"
     id="style_css_sheet">
/*
 * Below are Cascading Style Sheet (CSS) definitions in use in this file,
 * which allow easily changing how countries are displayed.
 *
 */

/*
 * Circles around small countries
 *
 * Change opacity to 1 to display all circles.
 *
 */
.circle
{
   opacity:0;
   fill:#b9b9b9;
   fill-opacity:1;
   stroke:black;
   stroke-width:0.99986893;
   stroke-miterlimit:3.97446823;
   stroke-dasharray:none;
   stroke-opacity:1;
}

/*
 * Land
 */
.land
{
   fill: #b9b9b9;
   fill-opacity: 1;
   stroke: #ffffff;
   stroke-opacity: 1;
   stroke-width: 0.99986997;
   stroke-miterlimit: 3.97446823;
   stroke-dasharray: none;
}

/*
 * Additional style rules
 *
 * The following are examples of colouring countries.  You can substitute these with your own styles to colour the countries on the map.
 *
 * Color a few countries:
 *
 * .gb, .au, .nc
 * {
 *    fill:       #ff0000;
 * }
 *
 * Color a few small country circles (and the countries):
 *
 * .ms, .ky
 * {
 *    opacity:    1;
 *    fill:       #ff0000;
 * }
 *
 */

/*
 * Antarctica
 */

.aq
{
   fill:#e6e6e6;
}

/*
 * Sea
 */

.ocean
{
   opacity: 1;
   color: #000000;
   fill:white;
   fill-opacity:1;
   fill-rule:nonzero;
   stroke:#000000;
   stroke-width:0.5;
   stroke-linecap:butt;
   stroke-linejoin:miter;
   marker:none;
   marker-start:none;
   marker-mid:none;
   marker-end:none;
   stroke-miterlimit:1;
   stroke-dasharray:none;
   stroke-dashoffset:0;
   stroke-opacity:1;
   visibility:visible;
   display:inline;
   overflow:visible;
}

.lake
{
   fill:#ffffff;
   fill-opacity:1;
   stroke:#ffffff;
   stroke-opacity:1;
   stroke-width:0.99986997;
   stroke-miterlimit:3.97446823;
   stroke-dasharray:none;
}
</style>
  
  
  
  
  
  
  
  
  
  
  
  
  
  
  
  
  
  
  
  
  
  
  
  
  
  
  
  
  
  
  
  
  
  
  
  
  
  
  
  
  
  
  
  
  
  
  
  
  
  
  
  
  
  
  
  
  
  
  
  
  
  
  
  
  
  
  
  
  
  
  
  
  
  
  
  
  
  
  
  <path
     class="land cr"
     d="M 614.1580,669.8855 C 614.5546,669.5385 615.5616,667.9256 615.5909,667.3895 C 615.6384,666.5226 613.5854,665.4646 614.2848,665.0295 C 615.1165,664.5136 615.2745,663.7726 615.7794,662.7826 C 615.9783,662.3916 618.9956,663.7866 619.4311,663.9915 C 621.5496,664.9905 621.3322,664.4035 623.1658,663.8926 C 623.9738,663.6676 624.8700,665.2895 625.5203,664.4135 C 626.2106,665.2125 626.6650,666.0946 627.7359,666.3895 C 629.0419,666.7486 631.0270,666.8166 631.0111,665.0616 C 631.6939,666.0606 630.9699,666.4456 631.6259,667.3175 C 632.1744,668.0485 632.5472,668.9045 632.9427,669.7125 C 633.7781,671.4195 634.5098,672.0166 635.7546,673.1505 C 636.8817,674.1766 637.5676,675.8206 638.9478,676.4986 C 639.7065,676.8705 639.6699,677.6626 638.7437,677.3926 C 638.0371,677.1866 637.8857,676.2605 637.0816,676.8715 C 637.5294,677.5445 636.4126,679.1215 636.4758,680.2305 C 636.5542,681.6046 638.9933,681.7616 637.6825,682.8765 C 636.2159,684.1236 638.2197,685.4876 637.0627,686.5195 C 635.6514,687.7776 637.0725,688.5506 636.8446,690.1205 C 636.8934,689.3275 636.5168,688.7156 635.9748,688.1466 C 635.6377,687.9256 635.3280,687.6716 635.0457,687.3836 C 635.1201,687.0846 635.1833,686.7826 635.2333,686.4775 C 634.8997,685.5236 633.6967,683.4195 632.4308,684.2156 C 632.7387,685.3755 634.2645,685.8045 633.8790,687.1676 C 632.7866,686.8325 631.0839,686.4556 630.7542,685.1245 C 630.5391,684.2586 631.6709,683.5915 631.7057,682.7035 C 631.7915,680.5105 629.3473,679.6766 627.8722,678.5746 C 626.9731,677.9035 626.7154,677.4295 625.5146,677.3986 C 624.3320,677.3686 623.5849,676.7945 623.5213,675.5666 C 623.3710,672.6535 619.8861,672.6605 618.5664,670.6075 C 618.8424,671.1645 618.9462,671.7605 619.2054,672.3206 C 619.6156,673.2075 620.4031,673.0986 621.0695,673.6305 C 621.9972,674.3715 621.1167,675.8776 620.3452,676.1896 C 619.4103,676.5675 618.3957,674.5295 617.3232,674.2966 C 615.5181,673.9005 613.9661,671.7075 614.1580,669.8855"
     id="cr" />
  
  
  
  
  
  
  
  
  
  
  
  
  
  
  
  
  
  
  
  
  
  
  
  
  
  
  
  
  
  
  
  
  
  
  
  
  
  
  
  
  
  
  
  
  
  
  
  
  
  
  
  
  
  
  
  
  
  
  
  
  
  
  
  
  
  
  
  
  
  
  
  
  
  
  
  
  
  
  
  
  
  
  
  
  
  
  
  
  
  
  
  
  
  
  
  
  
  
  
  
  
  
  
  
  
  
  
  
  
  
  
  
  
  
  
  
  
  
  
  
  
  
  
  
  
  
  
  
  
  
  
  
  
  
  
  
  
  
  
  
  
  
  
  
  
  
  
  
  
  
  
  
</svg>
