<?xml version="1.0" encoding="UTF-8" standalone="no"?>
<svg
   xmlns:dc="http://purl.org/dc/elements/1.1/"
   xmlns:cc="http://web.resource.org/cc/"
   xmlns:rdf="http://www.w3.org/1999/02/22-rdf-syntax-ns#"
   xmlns:svg="http://www.w3.org/2000/svg"
   xmlns="http://www.w3.org/2000/svg"
   xmlns:sodipodi="http://sodipodi.sourceforge.net/DTD/sodipodi-0.dtd"
   xmlns:inkscape="http://www.inkscape.org/namespaces/inkscape"
   viewBox="0 0 2752.766 1537.631"
   version="1.0"
   height="476.7276"
   width="939.74725"
   id="svg1926"
   sodipodi:version="0.32"
   inkscape:version="0.45.1"
   sodipodi:docname="BlankMap-World6.svg"
   sodipodi:docbase="/home/bennett/Desktop"
   inkscape:output_extension="org.inkscape.output.svg.inkscape">
  <sodipodi:namedview
     inkscape:window-height="590"
     inkscape:window-width="822"
     inkscape:pageshadow="2"
     inkscape:pageopacity="0.0"
     guidetolerance="10.0"
     gridtolerance="10.0"
     objecttolerance="10.0"
     borderopacity="1.0"
     bordercolor="#666666"
     pagecolor="#ffffff"
     id="base"
     inkscape:zoom="0.77893284"
     inkscape:cx="469.87363"
     inkscape:cy="238.3638"
     inkscape:window-x="178"
     inkscape:window-y="46"
     inkscape:current-layer="svg1926" />
  <metadata
     id="metadata24111">
    <rdf:RDF>
      <cc:Work
         rdf:about="">
        <dc:format>image/svg+xml</dc:format>
        <dc:type
           rdf:resource="http://purl.org/dc/dcmitype/StillImage" />
        <cc:license
           rdf:resource="http://web.resource.org/cc/PublicDomain" />
        <dc:title>Blank World Map</dc:title>
      </cc:Work>
      <cc:License
         rdf:about="http://web.resource.org/cc/PublicDomain">
        <cc:permits
           rdf:resource="http://web.resource.org/cc/Reproduction" />
        <cc:permits
           rdf:resource="http://web.resource.org/cc/Distribution" />
        <cc:permits
           rdf:resource="http://web.resource.org/cc/DerivativeWorks" />
      </cc:License>
    </rdf:RDF>
  </metadata>
  <defs
     id="defs1930" />
  <style
     type="text/css"
     id="style_css_sheet">
/*
 * Below are Cascading Style Sheet (CSS) definitions in use in this file,
 * which allow easily changing how countries are displayed.
 *
 */

/*
 * Circles around small countries
 *
 * Change opacity to 1 to display all circles.
 *
 */
.circle
{
   opacity:0;
   fill:#b9b9b9;
   fill-opacity:1;
   stroke:black;
   stroke-width:0.99986893;
   stroke-miterlimit:3.97446823;
   stroke-dasharray:none;
   stroke-opacity:1;
}

/*
 * Land
 */
.land
{
   fill: #b9b9b9;
   fill-opacity: 1;
   stroke: #ffffff;
   stroke-opacity: 1;
   stroke-width: 0.99986997;
   stroke-miterlimit: 3.97446823;
   stroke-dasharray: none;
}

/*
 * Additional style rules
 *
 * The following are examples of colouring countries.  You can substitute these with your own styles to colour the countries on the map.
 *
 * Color a few countries:
 *
 * .gb, .au, .nc
 * {
 *    fill:       #ff0000;
 * }
 *
 * Color a few small country circles (and the countries):
 *
 * .ms, .ky
 * {
 *    opacity:    1;
 *    fill:       #ff0000;
 * }
 *
 */

/*
 * Antarctica
 */

.aq
{
   fill:#e6e6e6;
}

/*
 * Sea
 */

.ocean
{
   opacity: 1;
   color: #000000;
   fill:white;
   fill-opacity:1;
   fill-rule:nonzero;
   stroke:#000000;
   stroke-width:0.5;
   stroke-linecap:butt;
   stroke-linejoin:miter;
   marker:none;
   marker-start:none;
   marker-mid:none;
   marker-end:none;
   stroke-miterlimit:1;
   stroke-dasharray:none;
   stroke-dashoffset:0;
   stroke-opacity:1;
   visibility:visible;
   display:inline;
   overflow:visible;
}

.lake
{
   fill:#ffffff;
   fill-opacity:1;
   stroke:#ffffff;
   stroke-opacity:1;
   stroke-width:0.99986997;
   stroke-miterlimit:3.97446823;
   stroke-dasharray:none;
}
</style>
  
  
  
  
  
  
  
  
  
  
  
  
  
  
  
  
  
  
  
  
  
  
  
  
  
  
  
  
  
  
  
  
  
  
  
  
  
  
  
  
  
  
  
  
  
  
  
  
  
  <g
     class="land de"
     id="de">
    <path
       d="M 1335.9045,289.8695 C 1336.0933,289.1065 1335.8057,289.0585 1335.0422,289.7245 C 1335.3297,289.7735 1335.6159,289.8215 1335.9045,289.8695"
       id="path3832" />
    <path
       d="M 1355.3257,292.0295 C 1355.8412,292.0785 1356.3583,292.0785 1356.8747,292.0295 C 1356.5284,291.2695 1355.6126,291.0025 1354.7358,291.3085 C 1354.9318,291.5495 1355.1288,291.7895 1355.3257,292.0295"
       id="path3834" />
    <path
       d="M 1334.6030,287.2610 C 1333.8013,287.5380 1333.7307,288.4963 1333.9024,289.0753 C 1333.8972,288.6833 1334.3233,288.3428 1334.8557,288.1682 C 1334.4691,288.0620 1334.2687,287.7491 1334.6030,287.2610 z M 1335.6994,288.0674 C 1335.4412,288.0659 1335.2131,288.1026 1334.9764,288.1682 C 1335.4284,288.2600 1336.0652,288.2002 1336.4246,288.1682 C 1336.1877,288.0850 1335.9575,288.0688 1335.6994,288.0674 z M 1338.8375,288.0674 C 1338.0843,288.0026 1337.3040,288.1050 1336.5453,288.1682 C 1337.0455,288.3802 1337.6024,289.6802 1337.8907,290.0832 C 1338.1461,290.4382 1339.3235,291.1291 1338.9871,291.5951 C 1338.4342,292.3621 1336.8616,291.9375 1336.2354,292.9055 C 1337.0797,293.2035 1337.9084,293.0725 1338.7576,292.9055 C 1336.8587,293.6415 1338.9183,294.1461 1339.2549,295.0221 C 1338.4496,294.9881 1338.1548,295.4142 1338.7832,295.9293 C 1339.4682,296.4903 1340.4605,296.3170 1341.3013,296.5340 C 1342.1941,296.7650 1342.6498,297.3651 1343.2216,297.9451 C 1343.9068,298.6401 1344.8201,298.7234 1345.6135,299.2554 C 1343.5574,299.0664 1343.0058,297.6214 1341.4228,296.8364 C 1340.3831,296.3224 1339.1848,296.9294 1338.0731,296.8364 C 1336.7783,296.7284 1335.5179,296.3753 1335.3336,297.8443 C 1335.2600,298.4303 1335.8367,298.8920 1335.8302,299.4570 C 1335.6469,299.8780 1335.5783,300.3243 1335.4877,300.7673 C 1335.3963,300.0393 1335.5981,299.3421 1334.6306,298.9531 C 1333.4944,298.4971 1333.1002,299.3998 1333.8100,300.0618 C 1333.1896,300.1948 1332.6544,300.0844 1332.1361,299.7594 C 1334.9197,298.1594 1327.3105,297.9079 1326.4942,298.0459 C 1325.5564,298.2039 1324.0008,299.4732 1324.0394,300.3642 C 1324.0721,301.1032 1326.2598,301.0403 1326.7997,301.2713 C 1325.4657,300.7233 1325.0935,305.0308 1324.3990,305.9078 C 1323.5777,306.9468 1322.6368,306.0289 1321.8124,306.8149 C 1320.6532,307.9199 1323.1661,308.2114 1323.8645,308.5284 C 1326.0541,309.5234 1321.5630,310.9564 1322.1723,311.9554 C 1323.0342,313.3714 1318.1118,313.0858 1317.3618,312.7618 C 1317.8838,313.9147 1316.7921,312.8355 1315.8486,313.3665 C 1316.2798,313.6895 1315.8434,313.7391 1315.8698,314.0721 C 1316.9516,314.3881 1318.5162,316.2276 1317.9575,317.1966 C 1317.4570,318.0646 1315.2444,319.8482 1316.5259,320.8252 C 1317.2670,321.3912 1315.6002,322.0701 1316.6924,322.8411 C 1317.3817,323.3291 1318.7770,323.3380 1317.8956,324.3530 C 1319.0359,324.1860 1318.9811,325.3597 1319.3311,325.9657 C 1316.4274,326.4217 1317.1459,329.1712 1319.3080,330.0982 C 1321.0418,330.8432 1319.1023,331.2549 1319.1241,332.2149 C 1319.1494,333.3268 1320.5405,333.6811 1321.1428,334.5331 C 1322.2793,336.1461 1322.5793,334.9805 1323.8181,335.3394 C 1324.5708,335.5565 1323.8202,336.2830 1324.8710,336.0450 C 1325.2698,335.9820 1325.6205,335.9832 1326.0244,335.9442 C 1327.4876,335.5002 1327.7923,336.1770 1329.1519,336.5490 C 1330.3775,336.8840 1332.0467,337.1703 1333.3172,337.3553 C 1332.2951,338.1503 1331.2903,338.9181 1330.4660,339.8752 C 1329.5228,340.9711 1329.6416,342.3905 1329.0229,343.6045 C 1328.6100,344.4165 1327.6819,349.5090 1329.0971,348.7450 C 1328.2907,349.5840 1332.3456,349.0123 1333.1025,349.0473 C 1334.5764,349.1153 1335.8715,349.0670 1336.1818,348.2410 C 1334.4185,348.8220 1334.9906,346.7232 1337.0920,347.6362 C 1338.5724,348.2813 1340.6242,347.8742 1342.1314,348.6442 C 1343.0553,349.1162 1349.4704,349.6262 1348.1894,351.5672 C 1349.9595,351.5212 1350.0835,350.1015 1350.4772,348.9466 C 1351.2294,349.5415 1352.9575,349.5295 1353.9032,349.4505 C 1353.0811,349.8085 1355.1957,350.3487 1355.6113,350.3577 C 1356.5864,350.3777 1357.2097,349.6323 1358.1294,349.5513 C 1359.9114,349.3933 1361.6528,348.1770 1363.6223,348.7450 C 1363.6028,348.4760 1363.5974,348.1976 1363.5175,347.9386 C 1364.4342,348.0386 1365.3218,348.4426 1366.2553,348.4426 C 1366.7098,348.3066 1367.1609,348.2202 1367.6318,348.1402 C 1368.1404,348.1912 1368.3391,349.0647 1368.7564,349.3497 C 1370.0141,350.2107 1370.0089,349.7740 1370.3661,348.7450 C 1370.7225,347.7190 1369.2668,348.1141 1369.3616,347.2331 C 1369.4784,346.1581 1369.5213,346.2040 1368.5925,345.3180 C 1367.8918,344.6500 1368.3830,344.1311 1369.1922,343.8061 C 1370.1176,343.4351 1373.1101,342.9872 1373.1350,341.7902 C 1373.1788,339.6832 1374.7880,341.5167 1375.6909,340.5807 C 1377.3353,338.8807 1374.5652,337.6969 1373.3488,337.0529 C 1371.9262,336.2999 1370.7232,335.2571 1369.2404,334.5331 C 1367.3755,333.6221 1367.0309,331.5500 1365.2498,330.7030 C 1366.6798,329.7250 1366.0325,328.9209 1364.7053,328.2839 C 1363.6774,327.7904 1363.4596,326.8984 1362.9929,326.1673 C 1363.7489,326.0719 1364.3298,326.3321 1364.6050,327.2760 C 1364.9393,324.6210 1368.8654,325.6545 1370.4759,324.5546 C 1373.0528,322.7986 1377.3225,321.8292 1380.3781,320.8252 C 1380.1131,320.6032 1379.8564,320.4305 1379.5770,320.2204 C 1380.7705,319.9844 1381.3990,319.5904 1381.9016,320.7244 C 1382.4971,322.0714 1383.9117,321.1528 1383.9099,320.1197 C 1383.9076,318.9267 1385.1290,318.1451 1384.9515,316.9951 C 1384.8252,316.1791 1383.1801,316.3347 1383.1159,315.6848 C 1383.0276,314.8017 1383.2208,314.4987 1382.4713,313.7697 C 1381.9678,313.2817 1382.8563,312.6450 1382.9935,312.1570 C 1383.5600,310.1400 1381.4377,309.8240 1382.0581,308.2260 C 1382.8239,306.2591 1378.8575,306.2933 1378.7294,304.6983 C 1378.6496,303.7023 1379.9559,303.7708 1380.3237,302.9848 C 1380.7222,302.1348 1380.7696,301.2302 1380.5218,300.3642 C 1380.2040,299.2552 1379.8433,298.0807 1378.4545,297.6427 C 1377.5994,297.3737 1376.2004,297.1766 1376.1029,296.2316 C 1376.0529,295.7396 1375.8340,294.2158 1374.9626,294.2158 C 1374.4313,294.2158 1373.3555,294.2247 1373.6305,294.7197 C 1372.6821,294.2487 1370.6560,292.1681 1369.7415,292.0991 C 1367.8205,291.9541 1366.4977,292.0856 1365.0351,293.3086 C 1364.8273,291.9536 1367.5320,291.8573 1368.5430,291.9983 C 1366.5849,291.3823 1366.2907,291.8577 1364.8047,292.8047 C 1364.1050,293.2527 1362.5773,293.7517 1362.9725,294.7197 C 1363.1917,293.0857 1359.3152,294.5411 1358.4182,295.0221 C 1360.1752,294.3071 1358.2237,295.5066 1357.9270,296.2316 C 1357.2216,295.6696 1353.0668,294.8886 1353.9810,296.2316 C 1353.8145,295.7146 1353.3913,295.4355 1352.7898,295.3245 C 1353.9547,294.3235 1355.0059,293.6599 1355.3302,292.1999 C 1353.7475,292.4629 1352.8082,292.9935 1351.2468,292.4015 C 1350.2738,292.0325 1348.7247,291.5329 1348.2453,292.7039 C 1348.1196,292.1839 1348.0906,292.1539 1348.4868,291.6959 C 1347.6860,291.3969 1346.7489,291.4259 1345.9627,291.6959 C 1346.5615,291.4599 1347.9263,289.9515 1346.4426,289.9824 C 1348.8282,289.0754 1340.8079,288.5231 1341.1344,288.6721 C 1340.4087,288.3411 1339.6301,288.1355 1338.8375,288.0674 z "
       id="path3884" />
    <path
       d="M 1370.6668,292.6775 C 1371.9587,292.5415 1371.3754,291.5135 1370.9724,290.9495 C 1371.8820,290.8815 1372.7311,291.1565 1373.5349,291.4535 C 1373.1803,290.5665 1370.9589,290.8255 1372.7194,289.8695 C 1372.6107,291.3295 1374.4936,290.0495 1374.7549,290.9125 C 1374.8820,291.3355 1373.9879,291.8755 1374.5933,292.2015 C 1375.0377,292.4415 1375.4023,292.4735 1375.3723,293.0365 C 1374.5272,292.9155 1373.7989,292.4875 1373.0592,293.0115 C 1372.4113,293.4705 1371.0179,293.3395 1370.6668,292.6775"
       id="path3892" />
    <path
       d="M 1375.9176,295.0535 C 1375.9364,294.7095 1375.8885,294.3735 1375.7701,294.0455 C 1376.5607,294.9205 1378.2729,294.9065 1378.9820,295.8665 C 1379.6749,296.8035 1376.6641,296.8085 1376.1262,296.5655 C 1377.3457,296.3815 1376.2355,295.3385 1377.6208,295.2695 C 1377.0281,295.3135 1376.4604,295.2415 1375.9176,295.0535"
       id="path3894" />
  </g>
  
  
  
  
  
  
  
  
  
  
  
  
  
  
  
  
  
  
  
  
  
  
  
  
  
  
  
  
  
  
  
  
  
  
  
  
  
  
  
  
  
  
  
  
  
  
  
  
  
  
  
  
  
  
  
  
  
  
  
  
  
  
  
  
  
  
  
  
  
  
  
  
  
  
  
  
  
  
  
  
  
  
  
  
  
  
  
  
  
  
  
  
  
  
  
  
  
  
  
  
  
  
  
  
  
  
  
  
  
  
  
  
  
  
  
  
  
  
  
  
  
  
  
  
  
  
  
  
  
  
  
  
  
  
  
  
  
  
  
  
  
  
  
  
  
  
  
  
  
  
  
  
  
  
  
  
  
  
  
  
  
  
  
  
  
  
  
  
  
  
  
  
  
  
  
  
  
  
  
  
  
  
</svg>
