<?xml version="1.0" encoding="UTF-8" standalone="no"?>
<svg
   xmlns:dc="http://purl.org/dc/elements/1.1/"
   xmlns:cc="http://web.resource.org/cc/"
   xmlns:rdf="http://www.w3.org/1999/02/22-rdf-syntax-ns#"
   xmlns:svg="http://www.w3.org/2000/svg"
   xmlns="http://www.w3.org/2000/svg"
   xmlns:sodipodi="http://sodipodi.sourceforge.net/DTD/sodipodi-0.dtd"
   xmlns:inkscape="http://www.inkscape.org/namespaces/inkscape"
   viewBox="0 0 2752.766 1537.631"
   version="1.0"
   height="476.7276"
   width="939.74725"
   id="svg1926"
   sodipodi:version="0.32"
   inkscape:version="0.45.1"
   sodipodi:docname="BlankMap-World6.svg"
   sodipodi:docbase="/home/bennett/Desktop"
   inkscape:output_extension="org.inkscape.output.svg.inkscape">
  <sodipodi:namedview
     inkscape:window-height="590"
     inkscape:window-width="822"
     inkscape:pageshadow="2"
     inkscape:pageopacity="0.0"
     guidetolerance="10.0"
     gridtolerance="10.0"
     objecttolerance="10.0"
     borderopacity="1.0"
     bordercolor="#666666"
     pagecolor="#ffffff"
     id="base"
     inkscape:zoom="0.77893284"
     inkscape:cx="469.87363"
     inkscape:cy="238.3638"
     inkscape:window-x="178"
     inkscape:window-y="46"
     inkscape:current-layer="svg1926" />
  <metadata
     id="metadata24111">
    <rdf:RDF>
      <cc:Work
         rdf:about="">
        <dc:format>image/svg+xml</dc:format>
        <dc:type
           rdf:resource="http://purl.org/dc/dcmitype/StillImage" />
        <cc:license
           rdf:resource="http://web.resource.org/cc/PublicDomain" />
        <dc:title>Blank World Map</dc:title>
      </cc:Work>
      <cc:License
         rdf:about="http://web.resource.org/cc/PublicDomain">
        <cc:permits
           rdf:resource="http://web.resource.org/cc/Reproduction" />
        <cc:permits
           rdf:resource="http://web.resource.org/cc/Distribution" />
        <cc:permits
           rdf:resource="http://web.resource.org/cc/DerivativeWorks" />
      </cc:License>
    </rdf:RDF>
  </metadata>
  <defs
     id="defs1930" />
  <style
     type="text/css"
     id="style_css_sheet">
/*
 * Below are Cascading Style Sheet (CSS) definitions in use in this file,
 * which allow easily changing how countries are displayed.
 *
 */

/*
 * Circles around small countries
 *
 * Change opacity to 1 to display all circles.
 *
 */
.circle
{
   opacity:0;
   fill:#b9b9b9;
   fill-opacity:1;
   stroke:black;
   stroke-width:0.99986893;
   stroke-miterlimit:3.97446823;
   stroke-dasharray:none;
   stroke-opacity:1;
}

/*
 * Land
 */
.land
{
   fill: #b9b9b9;
   fill-opacity: 1;
   stroke: #ffffff;
   stroke-opacity: 1;
   stroke-width: 0.99986997;
   stroke-miterlimit: 3.97446823;
   stroke-dasharray: none;
}

/*
 * Additional style rules
 *
 * The following are examples of colouring countries.  You can substitute these with your own styles to colour the countries on the map.
 *
 * Color a few countries:
 *
 * .gb, .au, .nc
 * {
 *    fill:       #ff0000;
 * }
 *
 * Color a few small country circles (and the countries):
 *
 * .ms, .ky
 * {
 *    opacity:    1;
 *    fill:       #ff0000;
 * }
 *
 */

/*
 * Antarctica
 */

.aq
{
   fill:#e6e6e6;
}

/*
 * Sea
 */

.ocean
{
   opacity: 1;
   color: #000000;
   fill:white;
   fill-opacity:1;
   fill-rule:nonzero;
   stroke:#000000;
   stroke-width:0.5;
   stroke-linecap:butt;
   stroke-linejoin:miter;
   marker:none;
   marker-start:none;
   marker-mid:none;
   marker-end:none;
   stroke-miterlimit:1;
   stroke-dasharray:none;
   stroke-dashoffset:0;
   stroke-opacity:1;
   visibility:visible;
   display:inline;
   overflow:visible;
}

.lake
{
   fill:#ffffff;
   fill-opacity:1;
   stroke:#ffffff;
   stroke-opacity:1;
   stroke-width:0.99986997;
   stroke-miterlimit:3.97446823;
   stroke-dasharray:none;
}
</style>
  
  
  
  
  
  
  
  
  
  
  
  
  
  
  
  
  
  
  
  
  
  
  
  
  
  
  
  
  
  
  
  
  
  
  
  
  
  
  
  
  
  
  
  
  
  
  
  
  
  
  
  
  
  
  
  
  
  
  <g
     class="land dk"
     id="dk">
    <path
       d="M 1344.5868,286.9175 C 1345.1868,287.2455 1345.7621,289.0115 1346.9248,288.3565 C 1348.1338,287.6775 1345.4444,286.5055 1344.5868,286.9175"
       id="path4494" />
    <path
       d="M 1332.6657,274.3895 C 1332.7800,274.1495 1332.8931,273.9105 1333.0075,273.6695 C 1333.5207,274.1315 1335.0482,274.8785 1335.8238,274.4615 C 1336.1726,275.6725 1337.1419,275.2325 1337.3770,274.3575 C 1337.9474,272.2485 1341.5661,273.1975 1339.6558,273.9585 C 1340.4447,274.0225 1341.6511,273.8365 1341.5923,274.8215 C 1341.8666,273.9155 1341.8765,273.5005 1340.7104,273.5975 C 1340.6520,272.8595 1340.4024,271.7615 1341.1966,271.2035 C 1341.7153,270.9275 1342.2875,270.8175 1342.9118,270.8725 C 1343.9015,270.9205 1344.4575,270.5745 1345.3230,270.5745 C 1346.3763,270.5745 1347.0371,270.6135 1348.0243,270.9355 C 1349.2263,271.3295 1348.8573,272.5605 1349.4612,273.3085 C 1348.2384,273.2145 1347.0786,273.5225 1345.9609,273.8845 C 1347.0920,273.9025 1347.8810,273.1905 1349.0449,273.6005 C 1349.7344,273.8435 1348.3613,274.9165 1348.3159,275.3245 C 1348.6189,273.9705 1352.9983,274.6825 1353.8510,275.2475 C 1354.5749,275.7275 1353.1101,277.5885 1352.3721,277.5865 C 1351.6171,277.5845 1351.3052,277.5255 1351.0068,278.2775 C 1350.1103,278.1075 1349.9317,277.5975 1350.5762,277.0525 C 1348.9113,276.5955 1348.9804,277.7605 1348.9035,278.7345 C 1348.7798,280.3085 1347.3323,280.0025 1345.9685,280.2935 C 1346.4766,280.3335 1347.4768,280.7995 1346.8933,281.3485 C 1346.1561,282.0425 1344.6244,281.4525 1343.7039,281.5895 C 1344.3445,281.7795 1344.9836,281.9715 1345.6213,282.1655 C 1344.1159,283.4515 1343.4345,282.7095 1344.4656,284.6345 C 1345.0880,285.8005 1342.5567,285.7675 1342.6075,286.9175 C 1343.7975,286.8065 1345.2398,287.4015 1344.9369,288.5745 C 1344.0690,288.5295 1344.1542,287.7885 1343.3321,288.3245 C 1342.4501,288.8995 1341.4873,288.7375 1340.5271,288.4875 C 1339.2089,288.1435 1335.9415,288.3755 1336.6447,286.4855 C 1335.9503,286.7045 1335.4141,286.3815 1335.1737,285.8385 C 1339.2158,285.8415 1334.2575,283.0495 1334.0012,282.5255 C 1333.8375,284.1025 1332.8161,282.5965 1332.7094,281.8935 C 1332.5732,281.0085 1332.7876,280.0905 1332.5680,279.2145 C 1332.6793,279.8755 1334.1455,281.0695 1334.5831,279.9345 C 1334.7912,279.3965 1332.2530,277.1035 1332.6494,278.9985 C 1331.8959,277.8105 1332.2218,275.6135 1332.6657,274.3895"
       id="path4548" />
    <path
       d="M 1336.5924,273.6695 C 1337.8224,273.4355 1338.6228,272.3825 1338.3204,271.3655 C 1337.8577,271.6375 1337.3506,271.8355 1336.8004,271.9575 C 1336.2504,272.0935 1336.3883,272.8965 1335.7095,273.0935 C 1335.9771,273.3135 1336.2722,273.5055 1336.5924,273.6695"
       id="path4492" />
    <path
       d="M 1344.6732,283.1015 C 1344.7039,284.3135 1346.6263,285.0775 1346.9244,286.2695 C 1346.9242,285.2205 1347.7544,285.7435 1347.9733,286.3715 C 1348.1538,286.8925 1350.7579,286.9575 1351.1931,286.8925 C 1353.4487,286.5565 1353.7970,283.8885 1351.4194,283.4615 C 1351.7135,283.3235 1352.0028,283.1805 1352.2875,283.0295 C 1352.0882,282.7265 1351.8344,282.4635 1351.5213,282.2365 C 1351.5865,282.9575 1350.9775,283.6405 1350.0365,283.5335 C 1351.7490,281.9545 1345.3772,283.0675 1344.6732,283.1015"
       id="path4496" />
    <path
       d="M 1350.0218,288.7175 C 1350.1379,287.9465 1348.9046,287.6875 1348.3017,287.4215 C 1348.8240,287.9005 1349.3974,288.3325 1350.0218,288.7175"
       id="path4498" />
    <path
       d="M 1350.7208,287.2785 C 1351.0642,287.3495 1351.4063,287.4225 1351.7496,287.4935 C 1351.7968,286.6565 1351.2602,286.8875 1350.7208,287.2785"
       id="path4500" />
    <path
       d="M 1351.9672,280.0055 C 1351.4559,279.9345 1351.1069,279.6945 1350.9203,279.2855 C 1351.4216,279.7865 1351.3917,280.2655 1350.8301,280.7245 C 1351.5240,280.8675 1351.9341,280.5905 1351.9672,280.0055"
       id="path4502" />
    <path
       d="M 1352.3466,287.7815 C 1351.6847,288.2835 1351.6741,288.9995 1352.4331,289.4365 C 1352.8279,288.5475 1354.0997,287.5085 1353.5643,286.4845 C 1353.3175,287.0225 1352.9123,287.4545 1352.3466,287.7815"
       id="path4504" />
    <path
       d="M 1354.3941,269.2055 C 1354.8835,269.0915 1355.1789,268.8275 1355.2803,268.4135 C 1354.5924,268.3955 1354.0043,268.5875 1353.5164,268.9885 C 1353.8090,269.0615 1354.1016,269.1335 1354.3941,269.2055"
       id="path4506" />
    <path
       d="M 1355.2240,284.3975 C 1356.0206,284.6325 1356.1136,285.3325 1356.7230,285.5925 C 1357.2771,285.8295 1358.2401,285.6305 1358.8368,285.5905 C 1360.5443,285.4745 1360.9027,287.0615 1359.4351,286.6305 C 1359.8105,286.6935 1361.0342,287.0025 1361.0831,287.4185 C 1360.8656,287.6365 1360.5717,287.6855 1360.2011,287.5655 C 1360.1654,288.1545 1361.2491,290.2515 1361.6129,290.7335 C 1361.8613,290.1885 1363.0706,289.1265 1363.0648,288.6215 C 1363.0573,287.9985 1361.7557,287.8295 1361.4983,287.2785 C 1362.1534,287.5015 1362.8119,287.5015 1363.4742,287.2785 C 1362.4768,286.0855 1363.6514,285.6325 1364.8831,285.2595 C 1366.3792,284.8075 1364.7451,284.1615 1364.2137,283.7145 C 1363.0473,282.7325 1365.3313,282.2775 1365.9925,281.9015 C 1367.5163,281.0365 1365.4583,279.6775 1366.8461,278.8545 C 1365.2038,277.4855 1363.2981,278.5615 1361.5376,279.1425 C 1362.8165,279.5695 1363.5000,281.8755 1361.5792,281.9515 C 1362.0871,281.3565 1362.5814,280.6685 1362.1287,279.9345 C 1361.7672,280.1335 1360.7727,282.0065 1360.2886,281.7475 C 1359.4943,281.3245 1359.7513,279.8465 1360.2131,279.7905 C 1359.5122,279.3115 1358.2730,279.4225 1357.4402,279.5025 C 1357.8891,279.4145 1358.1789,279.5185 1358.3094,279.8125 C 1357.9195,281.0995 1355.0030,281.3525 1353.8658,281.3025 C 1354.4174,281.8235 1357.6698,284.2695 1355.2240,284.3975"
       id="path4508" />
    <path
       d="M 1354.4083,288.9335 C 1355.5558,289.6135 1359.6862,291.0795 1360.8534,289.8785 C 1362.1694,288.5265 1359.5917,288.4755 1358.7677,288.5685 C 1357.1609,288.7525 1356.3997,287.0005 1354.7626,287.9975 C 1354.9568,288.2395 1355.1545,288.4785 1355.3546,288.7175 C 1355.0395,288.7895 1354.7233,288.8615 1354.4083,288.9335"
       id="path4510" />
    <path
       d="M 1363.5688,287.3495 C 1363.4764,287.6375 1363.3829,287.9255 1363.2906,288.2135 C 1363.6379,288.1225 1366.4425,287.6445 1366.1665,287.2055 C 1365.8704,286.7345 1364.0411,287.3185 1363.5688,287.3495"
       id="path4512" />
    <path
       d="M 1366.1618,282.1655 C 1366.5534,282.9785 1366.8744,282.9295 1367.1280,282.0205 C 1366.8067,282.0695 1366.4843,282.1175 1366.1618,282.1655"
       id="path4514" />
    <path
       d="M 1385.0927,285.6935 C 1383.9660,284.9295 1381.9500,285.7925 1383.3303,286.6765 C 1385.5316,288.0925 1387.0295,285.8735 1385.0927,285.6935"
       id="path4516" />
    <path
       d="M 1334.7574,273.6695 C 1332.9663,272.7545 1334.4659,271.1435 1335.6298,270.4425 C 1337.2671,269.4585 1339.9888,269.9605 1341.9006,269.8045 C 1343.6009,269.6655 1344.4789,268.1875 1345.4535,267.2375 C 1346.5418,266.1795 1349.7598,265.4765 1351.4220,265.0305 C 1349.4274,266.4715 1351.7691,267.4455 1350.7275,269.0935 C 1349.5795,270.9155 1348.3594,270.9955 1346.1104,270.4305 C 1345.0271,270.1595 1344.0655,270.3525 1342.9837,270.5865 C 1341.7831,270.8455 1340.7970,270.4415 1339.6498,270.6285 C 1338.6273,270.7945 1337.2014,271.0465 1336.4985,271.7345 C 1336.0469,272.1775 1335.6517,273.5585 1334.7556,273.5265 C 1335.5067,273.4225 1335.9373,273.7645 1335.8230,274.3905 C 1335.4440,274.1735 1335.0888,273.9335 1334.7574,273.6695"
       id="path4550" />
  </g>
  
  
  
  
  
  
  
  
  
  
  
  
  
  
  
  
  
  
  
  
  
  
  
  
  
  
  
  
  
  
  
  
  
  
  
  
  
  
  
  
  
  
  
  
  
  
  
  
  
  
  
  
  
  
  
  
  
  
  
  
  
  
  
  
  
  
  
  
  
  
  
  
  
  
  
  
  
  
  
  
  
  
  
  
  
  
  
  
  
  
  
  
  
  
  
  
  
  
  
  
  
  
  
  
  
  
  
  
  
  
  
  
  
  
  
  
  
  
  
  
  
  
  
  
  
  
  
  
  
  
  
  
  
  
  
  
  
  
  
  
  
  
  
  
  
  
  
  
  
  
  
  
  
  
  
  
  
  
  
  
  
  
  
  
  
  
  
  
  
  
  
  
  
</svg>
