<?xml version="1.0" encoding="UTF-8" standalone="no"?>
<svg
   xmlns:dc="http://purl.org/dc/elements/1.1/"
   xmlns:cc="http://web.resource.org/cc/"
   xmlns:rdf="http://www.w3.org/1999/02/22-rdf-syntax-ns#"
   xmlns:svg="http://www.w3.org/2000/svg"
   xmlns="http://www.w3.org/2000/svg"
   xmlns:sodipodi="http://sodipodi.sourceforge.net/DTD/sodipodi-0.dtd"
   xmlns:inkscape="http://www.inkscape.org/namespaces/inkscape"
   viewBox="0 0 2752.766 1537.631"
   version="1.0"
   height="476.7276"
   width="939.74725"
   id="svg1926"
   sodipodi:version="0.32"
   inkscape:version="0.45.1"
   sodipodi:docname="BlankMap-World6.svg"
   sodipodi:docbase="/home/bennett/Desktop"
   inkscape:output_extension="org.inkscape.output.svg.inkscape">
  <sodipodi:namedview
     inkscape:window-height="590"
     inkscape:window-width="822"
     inkscape:pageshadow="2"
     inkscape:pageopacity="0.0"
     guidetolerance="10.0"
     gridtolerance="10.0"
     objecttolerance="10.0"
     borderopacity="1.0"
     bordercolor="#666666"
     pagecolor="#ffffff"
     id="base"
     inkscape:zoom="0.77893284"
     inkscape:cx="469.87363"
     inkscape:cy="238.3638"
     inkscape:window-x="178"
     inkscape:window-y="46"
     inkscape:current-layer="svg1926" />
  <metadata
     id="metadata24111">
    <rdf:RDF>
      <cc:Work
         rdf:about="">
        <dc:format>image/svg+xml</dc:format>
        <dc:type
           rdf:resource="http://purl.org/dc/dcmitype/StillImage" />
        <cc:license
           rdf:resource="http://web.resource.org/cc/PublicDomain" />
        <dc:title>Blank World Map</dc:title>
      </cc:Work>
      <cc:License
         rdf:about="http://web.resource.org/cc/PublicDomain">
        <cc:permits
           rdf:resource="http://web.resource.org/cc/Reproduction" />
        <cc:permits
           rdf:resource="http://web.resource.org/cc/Distribution" />
        <cc:permits
           rdf:resource="http://web.resource.org/cc/DerivativeWorks" />
      </cc:License>
    </rdf:RDF>
  </metadata>
  <defs
     id="defs1930" />
  <style
     type="text/css"
     id="style_css_sheet">
/*
 * Below are Cascading Style Sheet (CSS) definitions in use in this file,
 * which allow easily changing how countries are displayed.
 *
 */

/*
 * Circles around small countries
 *
 * Change opacity to 1 to display all circles.
 *
 */
.circle
{
   opacity:0;
   fill:#b9b9b9;
   fill-opacity:1;
   stroke:black;
   stroke-width:0.99986893;
   stroke-miterlimit:3.97446823;
   stroke-dasharray:none;
   stroke-opacity:1;
}

/*
 * Land
 */
.land
{
   fill: #b9b9b9;
   fill-opacity: 1;
   stroke: #ffffff;
   stroke-opacity: 1;
   stroke-width: 0.99986997;
   stroke-miterlimit: 3.97446823;
   stroke-dasharray: none;
}

/*
 * Additional style rules
 *
 * The following are examples of colouring countries.  You can substitute these with your own styles to colour the countries on the map.
 *
 * Color a few countries:
 *
 * .gb, .au, .nc
 * {
 *    fill:       #ff0000;
 * }
 *
 * Color a few small country circles (and the countries):
 *
 * .ms, .ky
 * {
 *    opacity:    1;
 *    fill:       #ff0000;
 * }
 *
 */

/*
 * Antarctica
 */

.aq
{
   fill:#e6e6e6;
}

/*
 * Sea
 */

.ocean
{
   opacity: 1;
   color: #000000;
   fill:white;
   fill-opacity:1;
   fill-rule:nonzero;
   stroke:#000000;
   stroke-width:0.5;
   stroke-linecap:butt;
   stroke-linejoin:miter;
   marker:none;
   marker-start:none;
   marker-mid:none;
   marker-end:none;
   stroke-miterlimit:1;
   stroke-dasharray:none;
   stroke-dashoffset:0;
   stroke-opacity:1;
   visibility:visible;
   display:inline;
   overflow:visible;
}

.lake
{
   fill:#ffffff;
   fill-opacity:1;
   stroke:#ffffff;
   stroke-opacity:1;
   stroke-width:0.99986997;
   stroke-miterlimit:3.97446823;
   stroke-dasharray:none;
}
</style>
  
  
  
  
  
  
  
  
  
  
  
  
  
  
  
  
  
  
  
  
  
  
  
  
  
  
  
  
  
  
  
  
  
  <g
     class="land do"
     id="do">
    <path
       d="M 721.7352,603.5015 C 721.9778,602.8395 722.1770,601.5725 721.6593,600.8795 C 721.2125,600.2825 720.4852,599.0705 719.9403,598.6055 C 720.9304,598.6575 723.0007,597.1015 721.7539,596.0245 C 720.5512,594.9855 723.6365,594.3625 722.1710,592.9605 C 721.6917,592.5025 722.1074,591.4575 722.1801,590.9885 C 722.3193,590.0965 721.3741,589.1535 721.7048,588.3105 C 722.4723,586.3565 724.7449,588.2205 725.9130,587.7375 C 726.8752,587.3405 727.8621,587.1145 728.9410,587.6455 C 730.0143,588.1735 731.0338,588.2495 732.0539,588.7215 C 732.9916,589.1545 733.5133,589.5835 734.5524,589.6065 C 735.6099,589.6305 735.7438,589.4295 736.0106,590.6035 C 736.4893,592.7065 737.4586,592.9595 739.3328,592.4695 C 740.0098,592.2925 740.8941,592.0465 741.5839,592.5585 C 741.4061,593.5195 740.5393,593.5255 739.6769,593.3865 C 738.8239,593.2495 737.0526,593.8365 738.7012,594.2805 C 739.3934,594.4675 742.2196,595.4865 742.7897,595.2115 C 744.4389,594.4145 745.7734,596.5965 746.9834,597.5745 C 749.3808,599.5135 746.0788,600.4565 745.7603,601.2485 C 745.2141,602.6085 744.7675,601.2845 744.0765,600.6765 C 743.4161,600.0955 742.8042,600.4725 742.0587,600.3235 C 741.5274,600.1495 740.9889,600.0335 740.4453,599.9745 C 739.8135,599.9745 739.2926,600.5175 738.6336,600.1415 C 735.8348,598.5445 735.5237,601.5305 733.5820,601.8875 C 733.1146,601.9735 731.5764,602.2825 731.1141,601.9475 C 730.4708,601.4815 730.9870,600.4475 730.0734,600.0475 C 729.8061,600.8625 728.8385,600.7675 728.3591,601.3725 C 727.9579,601.8795 727.1727,601.0795 727.0267,601.7495 C 726.5487,603.9535 725.7760,605.4265 724.4601,607.2475 C 724.0853,606.5775 723.1949,606.2655 722.9417,605.5185 C 722.6937,604.7895 722.5209,603.9335 721.7352,603.5015"
       id="path3372" />
    <path
       d="M 746.1473,602.9255 C 745.6148,602.8635 745.1071,602.6965 744.6236,602.4215 C 745.0997,602.3045 745.9083,602.2835 746.1473,602.9255"
       id="path3374" />
  </g>
  
  
  
  
  
  
  
  
  
  
  
  
  
  
  
  
  
  
  
  
  
  
  
  
  
  
  
  
  
  
  
  
  
  
  
  
  
  
  
  
  
  
  
  
  
  
  
  
  
  
  
  
  
  
  
  
  
  
  
  
  
  
  
  
  
  
  
  
  
  
  
  
  
  
  
  
  
  
  
  
  
  
  
  
  
  
  
  
  
  
  
  
  
  
  
  
  
  
  
  
  
  
  
  
  
  
  
  
  
  
  
  
  
  
  
  
  
  
  
  
  
  
  
  
  
  
  
  
  
  
  
  
  
  
  
  
  
  
  
  
  
  
  
  
  
  
  
  
  
  
  
  
  
  
  
  
  
  
  
  
  
  
  
  
  
  
  
  
  
  
  
  
  
  
  
  
  
  
  
  
  
  
  
  
  
  
  
  
  
  
  
  
  
  
  
  
  
  
</svg>
