<?xml version="1.0" encoding="UTF-8" standalone="no"?>
<svg
   xmlns:dc="http://purl.org/dc/elements/1.1/"
   xmlns:cc="http://web.resource.org/cc/"
   xmlns:rdf="http://www.w3.org/1999/02/22-rdf-syntax-ns#"
   xmlns:svg="http://www.w3.org/2000/svg"
   xmlns="http://www.w3.org/2000/svg"
   xmlns:sodipodi="http://sodipodi.sourceforge.net/DTD/sodipodi-0.dtd"
   xmlns:inkscape="http://www.inkscape.org/namespaces/inkscape"
   viewBox="0 0 2752.766 1537.631"
   version="1.0"
   height="476.7276"
   width="939.74725"
   id="svg1926"
   sodipodi:version="0.32"
   inkscape:version="0.45.1"
   sodipodi:docname="BlankMap-World6.svg"
   sodipodi:docbase="/home/bennett/Desktop"
   inkscape:output_extension="org.inkscape.output.svg.inkscape">
  <sodipodi:namedview
     inkscape:window-height="590"
     inkscape:window-width="822"
     inkscape:pageshadow="2"
     inkscape:pageopacity="0.0"
     guidetolerance="10.0"
     gridtolerance="10.0"
     objecttolerance="10.0"
     borderopacity="1.0"
     bordercolor="#666666"
     pagecolor="#ffffff"
     id="base"
     inkscape:zoom="0.77893284"
     inkscape:cx="469.87363"
     inkscape:cy="238.3638"
     inkscape:window-x="178"
     inkscape:window-y="46"
     inkscape:current-layer="svg1926" />
  <metadata
     id="metadata24111">
    <rdf:RDF>
      <cc:Work
         rdf:about="">
        <dc:format>image/svg+xml</dc:format>
        <dc:type
           rdf:resource="http://purl.org/dc/dcmitype/StillImage" />
        <cc:license
           rdf:resource="http://web.resource.org/cc/PublicDomain" />
        <dc:title>Blank World Map</dc:title>
      </cc:Work>
      <cc:License
         rdf:about="http://web.resource.org/cc/PublicDomain">
        <cc:permits
           rdf:resource="http://web.resource.org/cc/Reproduction" />
        <cc:permits
           rdf:resource="http://web.resource.org/cc/Distribution" />
        <cc:permits
           rdf:resource="http://web.resource.org/cc/DerivativeWorks" />
      </cc:License>
    </rdf:RDF>
  </metadata>
  <defs
     id="defs1930" />
  <style
     type="text/css"
     id="style_css_sheet">
/*
 * Below are Cascading Style Sheet (CSS) definitions in use in this file,
 * which allow easily changing how countries are displayed.
 *
 */

/*
 * Circles around small countries
 *
 * Change opacity to 1 to display all circles.
 *
 */
.circle
{
   opacity:0;
   fill:#b9b9b9;
   fill-opacity:1;
   stroke:black;
   stroke-width:0.99986893;
   stroke-miterlimit:3.97446823;
   stroke-dasharray:none;
   stroke-opacity:1;
}

/*
 * Land
 */
.land
{
   fill: #b9b9b9;
   fill-opacity: 1;
   stroke: #ffffff;
   stroke-opacity: 1;
   stroke-width: 0.99986997;
   stroke-miterlimit: 3.97446823;
   stroke-dasharray: none;
}

/*
 * Additional style rules
 *
 * The following are examples of colouring countries.  You can substitute these with your own styles to colour the countries on the map.
 *
 * Color a few countries:
 *
 * .gb, .au, .nc
 * {
 *    fill:       #ff0000;
 * }
 *
 * Color a few small country circles (and the countries):
 *
 * .ms, .ky
 * {
 *    opacity:    1;
 *    fill:       #ff0000;
 * }
 *
 */

/*
 * Antarctica
 */

.aq
{
   fill:#e6e6e6;
}

/*
 * Sea
 */

.ocean
{
   opacity: 1;
   color: #000000;
   fill:white;
   fill-opacity:1;
   fill-rule:nonzero;
   stroke:#000000;
   stroke-width:0.5;
   stroke-linecap:butt;
   stroke-linejoin:miter;
   marker:none;
   marker-start:none;
   marker-mid:none;
   marker-end:none;
   stroke-miterlimit:1;
   stroke-dasharray:none;
   stroke-dashoffset:0;
   stroke-opacity:1;
   visibility:visible;
   display:inline;
   overflow:visible;
}

.lake
{
   fill:#ffffff;
   fill-opacity:1;
   stroke:#ffffff;
   stroke-opacity:1;
   stroke-width:0.99986997;
   stroke-miterlimit:3.97446823;
   stroke-dasharray:none;
}
</style>
  
  
  
  
  
  
  
  
  
  
  
  
  
  <path
     class="land dz"
     d="M 1204.1659,523.4375 C 1204.3837,519.8845 1204.3488,516.1395 1204.1789,512.5656 C 1204.0575,510.0326 1208.1601,508.6775 1209.7695,507.2076 C 1210.5678,506.4785 1211.6060,505.1345 1212.8889,505.2575 C 1214.1132,505.3745 1215.0018,503.7785 1215.9036,503.2455 C 1217.9367,502.0435 1219.6678,505.2795 1220.9742,502.2405 C 1221.3803,501.2996 1222.8184,501.6936 1223.6690,501.5856 C 1225.2003,501.3895 1226.7329,500.9336 1228.1655,500.4176 C 1231.0448,499.3816 1231.2559,496.5636 1233.7004,495.3016 C 1234.7089,494.7806 1235.8458,494.5315 1236.9164,494.1476 C 1238.2346,493.6735 1239.0601,492.2396 1240.4287,491.9746 C 1240.9299,491.8775 1243.9113,491.8576 1242.7437,490.4875 C 1241.9858,489.6026 1240.5537,489.0885 1241.9708,487.7996 C 1239.8344,487.2455 1241.6457,485.1316 1243.2020,485.2556 C 1245.2606,485.4196 1247.1230,484.7215 1247.7728,482.8886 C 1249.0214,479.3775 1258.6582,482.4875 1261.3456,481.8236 C 1258.8069,480.9185 1263.5408,478.8725 1261.7742,477.6105 C 1260.9528,477.0245 1260.0388,476.5066 1259.3610,475.7566 C 1258.5752,474.8895 1258.9212,473.6465 1258.1409,472.5845 C 1257.3245,471.4746 1258.0600,470.6886 1258.2401,469.5836 C 1258.4056,468.5476 1257.2197,468.4076 1257.2942,467.4026 C 1257.3644,466.4635 1257.7126,465.5236 1257.6849,464.5885 C 1257.6487,463.3336 1256.3065,462.1345 1257.5814,461.1606 C 1256.1889,460.6325 1256.9845,459.9755 1256.7443,459.0086 C 1256.4241,457.7206 1254.1034,457.3025 1253.5249,455.9776 C 1256.0675,455.9715 1256.7880,455.3265 1258.9052,454.2865 C 1259.8277,453.8336 1260.4207,453.8326 1260.9507,452.8986 C 1261.4197,452.0716 1261.7710,451.3775 1262.6873,450.9076 C 1263.2045,450.6415 1264.1967,449.8696 1264.7711,450.2835 C 1265.5160,450.8206 1266.3932,449.8875 1266.8585,449.4735 C 1268.0680,448.4006 1269.8861,451.1015 1271.0731,448.6336 C 1272.6673,445.3265 1278.5371,443.8956 1281.9939,443.5215 C 1284.4553,443.2556 1286.9321,442.6196 1289.4264,442.7765 C 1291.2867,442.8936 1292.5067,440.6775 1294.1417,441.5306 C 1294.8526,441.9015 1294.6880,441.6936 1294.9447,441.2806 C 1295.0013,441.1905 1297.7889,441.2285 1298.2002,441.0745 C 1300.5883,440.1816 1303.0284,440.5186 1305.5601,440.4525 C 1307.6697,440.3976 1308.1791,440.8066 1309.8062,441.9395 C 1311.8824,443.3865 1312.5578,441.2466 1314.3339,441.0426 C 1314.9050,440.9776 1318.4537,440.8336 1318.2452,439.8505 C 1317.8690,438.0806 1320.4717,439.1705 1321.0921,439.5566 C 1322.3871,440.3616 1324.3247,440.7686 1325.6311,439.7846 C 1326.3490,439.2436 1325.8697,438.5396 1327.2508,438.8605 C 1328.2314,439.0885 1329.0049,439.7606 1330.0681,439.7076 C 1329.1792,441.0985 1331.4084,440.6116 1332.1131,440.4395 C 1333.5197,440.0965 1335.0441,440.4176 1336.3940,439.9946 C 1336.5050,441.7885 1334.0796,442.6676 1333.0284,443.8105 C 1335.9141,444.3926 1333.1757,448.1875 1333.7678,449.9266 C 1334.7940,452.9475 1334.3880,455.2305 1333.7306,458.2106 C 1333.1913,460.6626 1330.3158,462.5725 1328.4010,464.1816 C 1327.2858,465.1196 1327.8551,467.5695 1328.5201,468.6085 C 1329.5935,470.2896 1329.1256,472.1216 1331.3108,472.9076 C 1334.2921,473.9796 1333.4401,477.5586 1335.8419,479.2625 C 1336.9546,480.0535 1338.2652,480.6255 1339.2070,481.6186 C 1340.4785,482.9615 1340.6702,485.1626 1340.9691,486.8666 C 1341.5847,490.3865 1343.3359,494.2976 1343.3404,497.8465 C 1343.3416,498.8046 1341.2417,498.5655 1342.5985,500.2976 C 1343.9100,501.9765 1344.8747,503.8496 1345.4284,505.8886 C 1346.3829,509.4085 1344.2126,513.3095 1345.8489,516.6005 C 1346.7227,518.3596 1346.2756,519.3565 1345.5766,521.0495 C 1344.7886,522.9606 1345.4433,525.0656 1345.8729,526.9725 C 1346.5200,529.8555 1345.3945,530.0925 1343.2826,531.6405 C 1340.8786,533.4066 1344.8814,536.5815 1345.9246,538.1395 C 1347.8732,541.0516 1346.7022,544.5086 1349.2893,547.2275 C 1350.2816,548.2716 1351.4245,547.0195 1352.4843,547.0975 C 1353.8253,547.1966 1355.2786,548.1816 1356.5364,548.6265 C 1359.4058,549.6426 1360.3632,551.9905 1361.4134,554.6486 C 1361.9117,555.9076 1362.4174,556.0595 1361.0172,556.8335 C 1359.1690,557.8565 1357.4053,559.0305 1355.6242,560.1566 C 1348.0113,564.9775 1340.5920,570.0245 1333.2597,575.2015 C 1330.0640,577.4615 1326.8785,579.7505 1324.0425,582.4356 C 1322.5450,583.8546 1321.0708,585.2976 1319.5761,586.7186 C 1318.1237,588.1005 1316.5975,590.2626 1314.8248,591.2286 C 1313.4795,591.9606 1311.4950,592.0285 1310.0098,592.3315 C 1307.9917,592.7426 1305.9685,593.1326 1303.9531,593.5535 C 1302.9420,593.7645 1294.0976,596.7636 1294.4457,593.6745 C 1294.5683,592.5856 1295.3553,592.1635 1295.2338,590.9575 C 1295.1872,590.4946 1295.5002,588.3175 1295.0069,588.0765 C 1293.5052,587.3425 1291.8253,586.5606 1290.1727,586.2495 C 1289.3580,586.0956 1287.5327,583.8235 1287.0381,584.2156 C 1284.4857,586.2405 1283.7181,582.1545 1282.4289,581.2586 C 1281.6209,580.6975 1280.3560,580.5865 1279.6554,580.0696 C 1278.8671,579.4886 1279.9055,577.7906 1279.4254,577.0105 C 1278.8218,576.0295 1277.3986,575.4306 1276.4299,574.8736 C 1274.7700,573.9195 1273.2110,572.7866 1271.6847,571.6395 C 1267.8892,568.7906 1264.1534,565.8565 1260.3661,562.9855 C 1245.7035,551.9095 1230.9829,540.8745 1215.4419,530.6695 C 1211.7046,528.2296 1207.9445,525.8246 1204.1659,523.4375"
     id="dz" />
  
  
  
  
  
  
  
  
  
  
  
  
  
  
  
  
  
  
  
  
  
  
  
  
  
  
  
  
  
  
  
  
  
  
  
  
  
  
  
  
  
  
  
  
  
  
  
  
  
  
  
  
  
  
  
  
  
  
  
  
  
  
  
  
  
  
  
  
  
  
  
  
  
  
  
  
  
  
  
  
  
  
  
  
  
  
  
  
  
  
  
  
  
  
  
  
  
  
  
  
  
  
  
  
  
  
  
  
  
  
  
  
  
  
  
  
  
  
  
  
  
  
  
  
  
  
  
  
  
  
  
  
  
  
  
  
  
  
  
  
  
  
  
  
  
  
  
  
  
  
  
  
  
  
  
  
  
  
  
  
  
  
  
  
  
  
  
  
  
  
  
  
  
  
  
  
  
  
  
  
  
  
  
  
  
  
  
  
  
  
  
  
  
  
  
  
  
  
  
  
  
  
  
  
  
  
  
  
  
  
  
  
  
  
  
  
  
  
</svg>
