<?xml version="1.0" encoding="UTF-8" standalone="no"?>
<svg
   xmlns:dc="http://purl.org/dc/elements/1.1/"
   xmlns:cc="http://web.resource.org/cc/"
   xmlns:rdf="http://www.w3.org/1999/02/22-rdf-syntax-ns#"
   xmlns:svg="http://www.w3.org/2000/svg"
   xmlns="http://www.w3.org/2000/svg"
   xmlns:sodipodi="http://sodipodi.sourceforge.net/DTD/sodipodi-0.dtd"
   xmlns:inkscape="http://www.inkscape.org/namespaces/inkscape"
   viewBox="0 0 2752.766 1537.631"
   version="1.0"
   height="476.7276"
   width="939.74725"
   id="svg1926"
   sodipodi:version="0.32"
   inkscape:version="0.45.1"
   sodipodi:docname="BlankMap-World6.svg"
   sodipodi:docbase="/home/bennett/Desktop"
   inkscape:output_extension="org.inkscape.output.svg.inkscape">
  <sodipodi:namedview
     inkscape:window-height="590"
     inkscape:window-width="822"
     inkscape:pageshadow="2"
     inkscape:pageopacity="0.0"
     guidetolerance="10.0"
     gridtolerance="10.0"
     objecttolerance="10.0"
     borderopacity="1.0"
     bordercolor="#666666"
     pagecolor="#ffffff"
     id="base"
     inkscape:zoom="0.77893284"
     inkscape:cx="469.87363"
     inkscape:cy="238.3638"
     inkscape:window-x="178"
     inkscape:window-y="46"
     inkscape:current-layer="svg1926" />
  <metadata
     id="metadata24111">
    <rdf:RDF>
      <cc:Work
         rdf:about="">
        <dc:format>image/svg+xml</dc:format>
        <dc:type
           rdf:resource="http://purl.org/dc/dcmitype/StillImage" />
        <cc:license
           rdf:resource="http://web.resource.org/cc/PublicDomain" />
        <dc:title>Blank World Map</dc:title>
      </cc:Work>
      <cc:License
         rdf:about="http://web.resource.org/cc/PublicDomain">
        <cc:permits
           rdf:resource="http://web.resource.org/cc/Reproduction" />
        <cc:permits
           rdf:resource="http://web.resource.org/cc/Distribution" />
        <cc:permits
           rdf:resource="http://web.resource.org/cc/DerivativeWorks" />
      </cc:License>
    </rdf:RDF>
  </metadata>
  <defs
     id="defs1930" />
  <style
     type="text/css"
     id="style_css_sheet">
/*
 * Below are Cascading Style Sheet (CSS) definitions in use in this file,
 * which allow easily changing how countries are displayed.
 *
 */

/*
 * Circles around small countries
 *
 * Change opacity to 1 to display all circles.
 *
 */
.circle
{
   opacity:0;
   fill:#b9b9b9;
   fill-opacity:1;
   stroke:black;
   stroke-width:0.99986893;
   stroke-miterlimit:3.97446823;
   stroke-dasharray:none;
   stroke-opacity:1;
}

/*
 * Land
 */
.land
{
   fill: #b9b9b9;
   fill-opacity: 1;
   stroke: #ffffff;
   stroke-opacity: 1;
   stroke-width: 0.99986997;
   stroke-miterlimit: 3.97446823;
   stroke-dasharray: none;
}

/*
 * Additional style rules
 *
 * The following are examples of colouring countries.  You can substitute these with your own styles to colour the countries on the map.
 *
 * Color a few countries:
 *
 * .gb, .au, .nc
 * {
 *    fill:       #ff0000;
 * }
 *
 * Color a few small country circles (and the countries):
 *
 * .ms, .ky
 * {
 *    opacity:    1;
 *    fill:       #ff0000;
 * }
 *
 */

/*
 * Antarctica
 */

.aq
{
   fill:#e6e6e6;
}

/*
 * Sea
 */

.ocean
{
   opacity: 1;
   color: #000000;
   fill:white;
   fill-opacity:1;
   fill-rule:nonzero;
   stroke:#000000;
   stroke-width:0.5;
   stroke-linecap:butt;
   stroke-linejoin:miter;
   marker:none;
   marker-start:none;
   marker-mid:none;
   marker-end:none;
   stroke-miterlimit:1;
   stroke-dasharray:none;
   stroke-dashoffset:0;
   stroke-opacity:1;
   visibility:visible;
   display:inline;
   overflow:visible;
}

.lake
{
   fill:#ffffff;
   fill-opacity:1;
   stroke:#ffffff;
   stroke-opacity:1;
   stroke-width:0.99986997;
   stroke-miterlimit:3.97446823;
   stroke-dasharray:none;
}
</style>
  
  
  
  
  
  
  
  
  
  
  
  
  
  
  
  
  
  
  
  
  
  
  
  
  
  
  
  
  
  
  
  
  
  
  
  
  
  
  
  
  
  
  
  
  
  
  
  
  
  
  
  
  
  
  
  
  
  
  
  
  
  
  
  
  
  
  
  
  
  
  
  
  
  
  
  
  
  
  
  
  
  
  
  
  
  
  
  
  
  
  
  
  
  
  
  
  
  
  
  
  
  
  
  
  
  
  
  
  
  
  
  
  
  
  
  
  
  
  
  
  
  
  
  
  
  
  
  
  
  
  
  
  
  
  
  
  
  
  
  
  
  
  
  <g
     class="land ec"
     id="ec">
    <path
       d="M 571.1285,763.8485 C 572.0130,763.6635 572.2219,762.1675 571.2563,761.9365 C 569.5370,761.5235 570.1711,763.3595 571.1285,763.8485"
       id="path6588" />
    <path
       d="M 570.3246,759.5285 C 571.5793,759.7685 571.6054,760.5235 571.9582,761.5495 C 572.3998,762.8355 573.5762,763.6915 574.0118,764.9985 C 572.6228,765.3955 569.9499,767.2835 572.3650,768.3785 C 573.6696,768.9695 576.4008,767.9105 576.6256,766.3915 C 576.7808,765.3395 575.2036,765.2845 575.3332,764.4155 C 575.5375,763.0655 574.4272,762.6035 573.7995,761.6235 C 572.6807,759.8765 572.7728,758.1065 570.3246,759.5285"
       id="path6590" />
    <path
       d="M 577.9660,762.8385 C 578.8093,761.8385 577.5001,761.0385 576.5920,761.0385 C 574.5129,761.0385 577.8818,762.7815 577.9660,762.8385"
       id="path6592" />
    <path
       d="M 578.8869,757.2985 C 579.4251,756.5955 579.2804,756.3565 578.4529,756.5785 C 578.5976,756.8185 578.7413,757.0585 578.8869,757.2985"
       id="path6594" />
    <path
       d="M 580.0635,766.2985 C 581.5524,765.8925 581.5184,763.6695 579.7690,763.9185 C 577.9926,764.1715 578.4194,766.2715 580.0635,766.2985"
       id="path6596" />
    <path
       d="M 579.2850,771.2585 C 579.5054,771.0415 579.6967,770.8015 579.8590,770.5385 C 578.9989,769.7705 578.4231,770.9395 579.2850,771.2585"
       id="path6598" />
    <path
       d="M 586.1879,767.8785 C 587.0077,767.8065 588.4989,766.3785 587.8375,765.4985 C 587.0799,765.6475 585.4465,766.9895 586.1879,767.8785"
       id="path6600" />
    <path
       d="M 660.0663,782.4185 C 660.3587,781.9315 660.3547,781.4515 660.0542,780.9785 C 659.8607,781.4685 659.8647,781.9485 660.0663,782.4185"
       id="path4798" />
    <path
       d="M 658.9055,782.6385 C 658.1044,782.7255 657.2373,783.3145 656.9094,784.0715 C 656.7919,784.3445 656.9598,786.2155 657.5587,785.7495 C 657.7646,785.5895 658.1929,784.6055 658.2002,784.3605 C 658.2136,783.9435 659.3844,783.5345 659.6790,783.0675 C 659.4208,782.9255 659.1636,782.7815 658.9055,782.6385"
       id="path6602" />
    <path
       d="M 651.7298,778.5285 C 653.2503,779.0255 653.3773,776.7215 653.3294,775.7925 C 653.2918,775.0455 652.9934,774.4855 652.7696,773.7915 C 652.3479,772.6175 653.6598,771.7405 653.1890,770.6075 C 652.6749,769.3655 651.2898,767.7075 653.5783,767.4835 C 654.5331,767.3905 654.9032,767.0065 655.0869,766.0785 C 655.3249,764.8715 655.9676,765.1485 656.9563,764.9985 C 655.2838,764.8365 655.1085,762.6655 656.1191,761.6515 C 657.6564,760.1095 658.6898,759.0235 658.8131,756.7235 C 658.8485,756.0675 657.8632,753.0875 658.4813,752.7165 C 659.1724,752.3025 661.8627,750.2805 661.8945,752.2585 C 661.4626,751.0705 662.9354,750.5305 663.7897,750.2385 C 664.6881,749.9305 666.5907,748.7275 666.7851,749.8775 C 667.1378,748.9415 667.4840,747.9455 668.0776,747.1415 C 670.1679,748.9955 673.2877,752.4035 676.2829,752.3835 C 677.2149,752.3775 677.2566,753.5115 678.1504,753.7935 C 679.3473,754.1715 678.3019,756.5605 680.3810,756.5355 C 681.9410,756.5175 683.1659,757.2745 684.8040,757.2985 C 685.3451,757.3065 686.5308,757.9975 686.7626,757.0415 C 686.8359,756.7385 686.2811,756.4395 686.6877,756.2395 C 688.1970,755.4975 689.3371,756.7915 690.2076,757.8425 C 691.5535,759.4665 693.3697,759.5105 695.0363,760.6075 C 694.1667,760.8175 693.3074,760.6745 692.4440,760.5275 C 692.3414,761.1265 694.2276,762.9285 694.5878,763.4105 C 695.6671,764.8525 694.8915,766.3075 695.6294,768.0175 C 695.0636,768.1005 694.5832,767.9345 694.1893,767.5175 C 693.1495,773.2535 689.6108,778.2865 684.6313,781.6485 C 682.2432,783.2605 679.2280,783.7165 676.6206,784.8445 C 675.3014,785.4155 674.5284,786.2605 673.6520,787.3575 C 673.3239,787.6715 673.0365,788.0185 672.7897,788.3995 C 672.5959,789.0035 672.9494,789.3405 672.4387,789.9085 C 672.0435,787.5815 670.8450,792.1105 670.7054,792.3405 C 669.8605,793.7295 669.0087,795.6965 669.0292,797.3185 C 669.0533,799.2635 667.6341,799.1905 667.0863,800.7155 C 666.5250,802.2765 666.6182,802.5645 665.1313,802.5245 C 663.3332,802.4755 662.9711,800.4855 662.4587,799.1745 C 661.7980,797.4825 660.9300,798.7985 659.8418,798.1885 C 659.0804,797.7625 658.2882,796.1565 657.2607,797.1415 C 655.8656,798.4805 654.4760,798.1115 655.9582,796.2485 C 654.9359,796.1025 654.7725,794.7935 655.5513,794.1765 C 656.0153,793.8095 656.8145,794.0415 657.3277,793.6465 C 658.1428,793.0195 657.1585,789.1465 656.2719,788.7585 C 657.4223,788.1745 658.3341,788.4865 659.0765,787.1965 C 659.7195,786.0805 659.8971,784.7975 660.3111,783.6025 C 660.8216,782.1315 660.8535,782.0635 660.4261,780.6975 C 660.0175,779.3885 659.9067,778.1095 660.8703,776.9475 C 659.2204,777.7285 660.1760,779.5215 659.8805,780.8505 C 659.3966,783.0255 657.9777,781.0875 659.5500,780.9775 C 658.7678,780.9265 658.7273,780.2685 659.0276,779.6875 C 658.4824,780.2155 656.5724,782.4185 656.9352,783.2175 C 655.7816,782.4035 654.9682,781.1155 653.7263,780.4325 C 652.8581,779.9545 651.8601,779.6835 651.7298,778.5285"
       id="path6790" />
  </g>
  
  
  
  
  
  
  
  
  
  
  
  
  
  
  
  
  
  
  
  
  
  
  
  
  
  
  
  
  
  
  
  
  
  
  
  
  
  
  
  
  
  
  
  
  
  
  
  
  
  
  
  
  
  
  
  
  
  
  
  
  
  
  
  
  
  
  
  
  
  
  
  
  
  
  
  
  
  
  
  
  
  
  
  
  
  
  
  
</svg>
