<?xml version="1.0" encoding="UTF-8" standalone="no"?>
<svg
   xmlns:dc="http://purl.org/dc/elements/1.1/"
   xmlns:cc="http://web.resource.org/cc/"
   xmlns:rdf="http://www.w3.org/1999/02/22-rdf-syntax-ns#"
   xmlns:svg="http://www.w3.org/2000/svg"
   xmlns="http://www.w3.org/2000/svg"
   xmlns:sodipodi="http://sodipodi.sourceforge.net/DTD/sodipodi-0.dtd"
   xmlns:inkscape="http://www.inkscape.org/namespaces/inkscape"
   viewBox="0 0 2752.766 1537.631"
   version="1.0"
   height="476.7276"
   width="939.74725"
   id="svg1926"
   sodipodi:version="0.32"
   inkscape:version="0.45.1"
   sodipodi:docname="BlankMap-World6.svg"
   sodipodi:docbase="/home/bennett/Desktop"
   inkscape:output_extension="org.inkscape.output.svg.inkscape">
  <sodipodi:namedview
     inkscape:window-height="590"
     inkscape:window-width="822"
     inkscape:pageshadow="2"
     inkscape:pageopacity="0.0"
     guidetolerance="10.0"
     gridtolerance="10.0"
     objecttolerance="10.0"
     borderopacity="1.0"
     bordercolor="#666666"
     pagecolor="#ffffff"
     id="base"
     inkscape:zoom="0.77893284"
     inkscape:cx="469.87363"
     inkscape:cy="238.3638"
     inkscape:window-x="178"
     inkscape:window-y="46"
     inkscape:current-layer="svg1926" />
  <metadata
     id="metadata24111">
    <rdf:RDF>
      <cc:Work
         rdf:about="">
        <dc:format>image/svg+xml</dc:format>
        <dc:type
           rdf:resource="http://purl.org/dc/dcmitype/StillImage" />
        <cc:license
           rdf:resource="http://web.resource.org/cc/PublicDomain" />
        <dc:title>Blank World Map</dc:title>
      </cc:Work>
      <cc:License
         rdf:about="http://web.resource.org/cc/PublicDomain">
        <cc:permits
           rdf:resource="http://web.resource.org/cc/Reproduction" />
        <cc:permits
           rdf:resource="http://web.resource.org/cc/Distribution" />
        <cc:permits
           rdf:resource="http://web.resource.org/cc/DerivativeWorks" />
      </cc:License>
    </rdf:RDF>
  </metadata>
  <defs
     id="defs1930" />
  <style
     type="text/css"
     id="style_css_sheet">
/*
 * Below are Cascading Style Sheet (CSS) definitions in use in this file,
 * which allow easily changing how countries are displayed.
 *
 */

/*
 * Circles around small countries
 *
 * Change opacity to 1 to display all circles.
 *
 */
.circle
{
   opacity:0;
   fill:#b9b9b9;
   fill-opacity:1;
   stroke:black;
   stroke-width:0.99986893;
   stroke-miterlimit:3.97446823;
   stroke-dasharray:none;
   stroke-opacity:1;
}

/*
 * Land
 */
.land
{
   fill: #b9b9b9;
   fill-opacity: 1;
   stroke: #ffffff;
   stroke-opacity: 1;
   stroke-width: 0.99986997;
   stroke-miterlimit: 3.97446823;
   stroke-dasharray: none;
}

/*
 * Additional style rules
 *
 * The following are examples of colouring countries.  You can substitute these with your own styles to colour the countries on the map.
 *
 * Color a few countries:
 *
 * .gb, .au, .nc
 * {
 *    fill:       #ff0000;
 * }
 *
 * Color a few small country circles (and the countries):
 *
 * .ms, .ky
 * {
 *    opacity:    1;
 *    fill:       #ff0000;
 * }
 *
 */

/*
 * Antarctica
 */

.aq
{
   fill:#e6e6e6;
}

/*
 * Sea
 */

.ocean
{
   opacity: 1;
   color: #000000;
   fill:white;
   fill-opacity:1;
   fill-rule:nonzero;
   stroke:#000000;
   stroke-width:0.5;
   stroke-linecap:butt;
   stroke-linejoin:miter;
   marker:none;
   marker-start:none;
   marker-mid:none;
   marker-end:none;
   stroke-miterlimit:1;
   stroke-dasharray:none;
   stroke-dashoffset:0;
   stroke-opacity:1;
   visibility:visible;
   display:inline;
   overflow:visible;
}

.lake
{
   fill:#ffffff;
   fill-opacity:1;
   stroke:#ffffff;
   stroke-opacity:1;
   stroke-width:0.99986997;
   stroke-miterlimit:3.97446823;
   stroke-dasharray:none;
}
</style>
  
  
  
  
  
  
  
  
  
  
  
  
  
  
  
  
  
  
  
  
  
  
  
  
  
  
  
  
  
  
  
  
  
  
  
  
  
  
  
  
  
  
  
  
  
  
  
  
  
  
  
  
  
  
  
  
  
  
  
  
  
  
  
  
  
  
  
  
  
  
  
  
  
  
  
  
  
  
  
  
  
  
  
  
  
  
  
  
  
  
  
  
  
  
  
  
  
  
  
  
  
  
  
  
  
  
  
  
  
  
  
  
  
  
  <g
     class="land ee"
     id="ee">
    <path
       d="M 1438.9124,263.6605 C 1440.3170,263.2465 1440.0667,262.3135 1440.9015,261.5725 C 1441.4871,261.0545 1442.4924,261.2285 1443.2119,260.9995 C 1443.6184,261.0235 1444.0174,261.0705 1444.4090,261.1405 C 1444.8361,260.9085 1445.2436,260.6545 1445.6327,260.3795 C 1446.4983,260.0145 1447.2727,259.1935 1448.3177,259.4835 C 1446.9294,258.3205 1445.5125,258.1345 1443.4754,258.2595 C 1442.3769,258.3265 1441.7903,258.1355 1440.8300,258.7925 C 1440.0851,259.3025 1438.6310,258.8915 1437.7908,258.9795 C 1438.8684,259.7295 1437.5109,260.4725 1438.9685,261.2705 C 1440.6632,262.1995 1437.9294,262.7725 1438.9124,263.6605"
       id="path5944" />
    <path
       d="M 1443.4554,254.3015 C 1442.0868,255.2315 1440.5906,255.3195 1438.9537,255.4535 C 1440.1096,255.9515 1441.7840,255.4335 1442.3153,256.6625 C 1442.7036,257.5595 1443.6897,257.4195 1444.2836,256.6325 C 1444.5510,256.2805 1446.2451,256.3975 1445.9739,255.5885 C 1445.7106,254.8035 1443.9777,254.9135 1443.4554,254.3015"
       id="path5946" />
    <path
       d="M 1447.4556,258.4775 C 1448.0204,258.7175 1448.5352,258.6225 1448.9960,258.1895 C 1448.6434,257.6585 1447.9482,257.4185 1447.1859,257.6855 C 1447.2751,257.9485 1447.3653,258.2135 1447.4556,258.4775"
       id="path5948" />
    <path
       d="M 1447.7186,254.5895 C 1447.6944,254.8055 1447.6702,255.0215 1447.6461,255.2365 C 1447.9984,255.0815 1448.3178,254.8885 1448.6042,254.6605 C 1448.3089,254.6375 1448.0138,254.6135 1447.7186,254.5895"
       id="path5950" />
    <path
       d="M 1450.0466,258.4045 C 1449.5450,256.9355 1451.8436,257.1685 1452.9032,256.8205 C 1452.1753,256.6625 1450.6138,257.1555 1450.0516,256.7495 C 1449.0725,256.0405 1451.1173,255.4295 1450.5731,254.5895 C 1450.2534,254.7255 1449.9392,254.8685 1449.6301,255.0215 C 1449.8693,254.5475 1449.7041,253.8205 1450.1741,253.4265 C 1451.3122,252.4745 1453.1659,252.7475 1454.5437,252.7175 C 1454.3546,252.4465 1454.2110,252.1585 1454.1116,251.8535 C 1455.3709,252.4575 1456.1332,251.0525 1457.3936,251.2195 C 1458.0371,251.3045 1460.0153,251.9985 1459.8895,250.8455 C 1460.6756,250.8775 1465.9695,251.5295 1465.1996,249.9815 C 1467.1179,250.5175 1469.8121,250.2795 1471.8855,250.4805 C 1473.7123,250.6565 1475.1864,251.2825 1476.9581,251.4695 C 1478.6788,251.6515 1485.4341,250.5705 1485.8872,252.1425 C 1484.1666,252.1225 1483.8074,252.8315 1483.1639,253.9595 C 1482.5421,255.0505 1480.4403,255.6955 1480.3023,256.8305 C 1480.1984,257.6865 1480.7145,258.3875 1480.8691,259.1865 C 1481.0062,259.9015 1480.2939,260.4985 1480.4950,261.2135 C 1480.6398,261.7265 1481.4789,261.9505 1481.8616,262.3085 C 1482.4572,262.8655 1481.6408,263.7255 1483.0192,263.8775 C 1481.7333,264.6345 1479.4596,265.1005 1479.6888,266.6855 C 1478.5927,266.7125 1477.8111,266.1575 1476.7804,266.0385 C 1475.6120,265.9035 1474.5589,266.8745 1473.4316,266.6865 C 1471.0151,266.2835 1469.2844,264.5335 1467.0693,263.7505 C 1466.4362,263.5255 1465.3646,262.7505 1464.6286,262.7925 C 1463.6895,262.8455 1463.1800,262.3585 1462.3472,262.3675 C 1460.3637,262.3885 1458.2292,264.4155 1456.2960,263.9515 C 1456.5615,263.2015 1457.0938,261.2605 1457.6237,260.6735 C 1458.2984,259.9285 1456.9454,259.5745 1456.3765,260.3295 C 1454.6627,262.6105 1451.1399,258.4295 1450.0466,258.4045"
       id="path5970" />
  </g>
  
  
  
  
  
  
  
  
  
  
  
  
  
  
  
  
  
  
  
  
  
  
  
  
  
  
  
  
  
  
  
  
  
  
  
  
  
  
  
  
  
  
  
  
  
  
  
  
  
  
  
  
  
  
  
  
  
  
  
  
  
  
  
  
  
  
  
  
  
  
  
  
  
  
  
  
  
  
  
  
  
  
  
  
  
  
  
  
  
  
  
  
  
  
  
  
  
  
  
  
  
  
  
  
  
  
  
  
  
  
  
  
  
  
  
  
  
</svg>
