<?xml version="1.0" encoding="UTF-8" standalone="no"?>
<svg
   xmlns:dc="http://purl.org/dc/elements/1.1/"
   xmlns:cc="http://web.resource.org/cc/"
   xmlns:rdf="http://www.w3.org/1999/02/22-rdf-syntax-ns#"
   xmlns:svg="http://www.w3.org/2000/svg"
   xmlns="http://www.w3.org/2000/svg"
   xmlns:sodipodi="http://sodipodi.sourceforge.net/DTD/sodipodi-0.dtd"
   xmlns:inkscape="http://www.inkscape.org/namespaces/inkscape"
   viewBox="0 0 2752.766 1537.631"
   version="1.0"
   height="476.7276"
   width="939.74725"
   id="svg1926"
   sodipodi:version="0.32"
   inkscape:version="0.45.1"
   sodipodi:docname="BlankMap-World6.svg"
   sodipodi:docbase="/home/bennett/Desktop"
   inkscape:output_extension="org.inkscape.output.svg.inkscape">
  <sodipodi:namedview
     inkscape:window-height="590"
     inkscape:window-width="822"
     inkscape:pageshadow="2"
     inkscape:pageopacity="0.0"
     guidetolerance="10.0"
     gridtolerance="10.0"
     objecttolerance="10.0"
     borderopacity="1.0"
     bordercolor="#666666"
     pagecolor="#ffffff"
     id="base"
     inkscape:zoom="0.77893284"
     inkscape:cx="469.87363"
     inkscape:cy="238.3638"
     inkscape:window-x="178"
     inkscape:window-y="46"
     inkscape:current-layer="svg1926" />
  <metadata
     id="metadata24111">
    <rdf:RDF>
      <cc:Work
         rdf:about="">
        <dc:format>image/svg+xml</dc:format>
        <dc:type
           rdf:resource="http://purl.org/dc/dcmitype/StillImage" />
        <cc:license
           rdf:resource="http://web.resource.org/cc/PublicDomain" />
        <dc:title>Blank World Map</dc:title>
      </cc:Work>
      <cc:License
         rdf:about="http://web.resource.org/cc/PublicDomain">
        <cc:permits
           rdf:resource="http://web.resource.org/cc/Reproduction" />
        <cc:permits
           rdf:resource="http://web.resource.org/cc/Distribution" />
        <cc:permits
           rdf:resource="http://web.resource.org/cc/DerivativeWorks" />
      </cc:License>
    </rdf:RDF>
  </metadata>
  <defs
     id="defs1930" />
  <style
     type="text/css"
     id="style_css_sheet">
/*
 * Below are Cascading Style Sheet (CSS) definitions in use in this file,
 * which allow easily changing how countries are displayed.
 *
 */

/*
 * Circles around small countries
 *
 * Change opacity to 1 to display all circles.
 *
 */
.circle
{
   opacity:0;
   fill:#b9b9b9;
   fill-opacity:1;
   stroke:black;
   stroke-width:0.99986893;
   stroke-miterlimit:3.97446823;
   stroke-dasharray:none;
   stroke-opacity:1;
}

/*
 * Land
 */
.land
{
   fill: #b9b9b9;
   fill-opacity: 1;
   stroke: #ffffff;
   stroke-opacity: 1;
   stroke-width: 0.99986997;
   stroke-miterlimit: 3.97446823;
   stroke-dasharray: none;
}

/*
 * Additional style rules
 *
 * The following are examples of colouring countries.  You can substitute these with your own styles to colour the countries on the map.
 *
 * Color a few countries:
 *
 * .gb, .au, .nc
 * {
 *    fill:       #ff0000;
 * }
 *
 * Color a few small country circles (and the countries):
 *
 * .ms, .ky
 * {
 *    opacity:    1;
 *    fill:       #ff0000;
 * }
 *
 */

/*
 * Antarctica
 */

.aq
{
   fill:#e6e6e6;
}

/*
 * Sea
 */

.ocean
{
   opacity: 1;
   color: #000000;
   fill:white;
   fill-opacity:1;
   fill-rule:nonzero;
   stroke:#000000;
   stroke-width:0.5;
   stroke-linecap:butt;
   stroke-linejoin:miter;
   marker:none;
   marker-start:none;
   marker-mid:none;
   marker-end:none;
   stroke-miterlimit:1;
   stroke-dasharray:none;
   stroke-dashoffset:0;
   stroke-opacity:1;
   visibility:visible;
   display:inline;
   overflow:visible;
}

.lake
{
   fill:#ffffff;
   fill-opacity:1;
   stroke:#ffffff;
   stroke-opacity:1;
   stroke-width:0.99986997;
   stroke-miterlimit:3.97446823;
   stroke-dasharray:none;
}
</style>
  
  
  
  
  
  
  
  
  
  
  
  
  
  
  
  
  
  
  
  
  
  
  
  
  
  
  
  
  
  
  
  
  
  
  
  
  
  
  
  
  
  
  
  
  
  
  
  
  
  
  
  
  
  
  
  
  
  
  
  
  
  
  
  
  
  
  
  
  
  
  
  
  
  
  
  
  
  
  
  
  
  
  
  
  
  
  
  
  <path
     class="land eg"
     d="M 1459.8998,499.9656 C 1458.5166,497.6846 1461.5230,495.3136 1461.4152,492.9556 C 1461.2878,490.1895 1459.3631,487.8286 1462.7291,485.7095 C 1462.7248,487.5396 1464.9884,486.8845 1466.1620,486.5555 C 1468.3074,485.9545 1470.0094,486.6245 1472.1022,486.8265 C 1474.3917,487.0466 1476.5738,487.5356 1478.7708,488.1026 C 1479.6991,488.3426 1479.7972,489.3206 1480.7374,489.6026 C 1481.5723,489.8526 1482.2231,489.7516 1483.0686,489.6665 C 1483.6365,489.6085 1483.8522,490.4525 1484.4821,490.5786 C 1485.1720,490.7165 1485.8838,490.7196 1486.5837,490.7865 C 1488.8331,491.0005 1490.2655,492.3576 1492.3659,492.6966 C 1494.3964,493.0245 1496.4344,491.7036 1497.9767,490.5036 C 1498.7775,489.8816 1499.5296,489.2056 1500.2712,488.5186 C 1500.8436,488.9656 1501.2674,489.4255 1502.0329,489.3105 C 1501.6125,489.1026 1501.7140,488.9835 1501.1403,489.0226 C 1501.9052,488.6465 1502.6882,487.9635 1502.9195,487.1506 C 1504.1565,487.8825 1505.4449,486.5675 1506.7251,486.5765 C 1505.8405,486.9545 1504.9849,487.4246 1504.2861,488.0876 C 1504.5212,487.9595 1509.8115,486.4595 1507.3414,486.2876 C 1509.2147,485.7076 1510.2770,487.7145 1512.0554,487.4755 C 1512.9046,487.3616 1513.7507,486.5666 1514.6242,486.8646 C 1515.4361,487.1406 1515.7508,488.2896 1516.4566,488.7355 C 1515.7449,488.2375 1515.0548,487.1436 1514.0758,487.0806 C 1514.3174,487.8265 1513.1484,489.2375 1514.3992,489.5276 C 1515.7588,489.8426 1515.0907,490.1696 1515.9302,490.9676 C 1515.9499,490.6735 1518.4798,489.6796 1516.7503,488.8795 C 1518.6196,489.3016 1519.1360,490.9755 1521.3735,490.7896 C 1522.0991,490.7296 1524.3184,489.4556 1523.8336,490.9676 C 1525.2718,490.1295 1526.7847,490.6186 1528.2970,490.1916 C 1529.6292,489.8166 1530.3570,489.7934 1531.4675,488.9244 C 1532.6558,491.9846 1534.0793,494.6716 1535.1879,497.7246 C 1535.7251,499.2045 1538.0427,503.2776 1536.7402,504.7335 C 1535.0087,506.6886 1535.6225,510.0786 1534.4641,512.3945 C 1533.7873,513.7486 1533.7601,514.5925 1533.6873,516.0236 C 1533.6251,517.2476 1531.9416,518.4316 1532.2648,519.6245 C 1531.5381,518.9375 1530.5284,518.6276 1529.7145,518.0535 C 1528.6809,517.3246 1527.9907,516.2626 1527.3135,515.2355 C 1526.4552,513.9335 1523.7675,513.0835 1524.2790,511.1286 C 1524.7951,509.1585 1522.9019,507.7926 1521.9735,506.4045 C 1520.7021,504.4875 1519.8599,502.2545 1519.4507,499.9685 C 1518.4449,500.9375 1517.3017,503.0516 1518.2052,504.1576 C 1519.7523,506.0525 1519.4464,508.3786 1520.7349,510.3365 C 1521.8490,512.0326 1522.9562,514.1086 1524.3845,515.5556 C 1525.0160,516.1956 1525.7468,516.7465 1526.3153,517.4435 C 1526.6125,517.8085 1527.8008,519.9005 1526.2859,518.7595 C 1527.5092,519.7255 1526.3768,520.9556 1527.1411,521.7515 C 1528.1665,522.8196 1528.6771,523.9515 1529.1660,525.2976 C 1529.4057,525.9596 1529.8328,526.5266 1530.1940,527.1215 C 1530.4696,527.5765 1529.8318,528.1566 1529.7823,528.6015 C 1529.7195,529.1966 1530.6836,530.0796 1530.9345,530.5925 C 1531.5112,531.7666 1532.1454,532.9126 1532.7276,534.0846 C 1534.6364,537.9345 1536.5641,541.7165 1538.3517,545.6255 C 1539.0504,547.1545 1540.1288,548.2495 1541.0296,549.6236 C 1541.8674,550.9026 1543.4209,551.2985 1544.1928,552.5996 C 1543.4054,552.6405 1542.6183,552.5076 1541.9252,552.1676 C 1541.3179,554.2565 1541.9578,556.6685 1542.4708,558.6775 C 1542.7966,559.9575 1540.9536,562.2555 1539.4944,562.2736 C 1538.7325,562.2826 1537.8586,561.6466 1537.3802,562.6336 C 1537.0060,563.4066 1536.8012,564.2906 1536.5057,565.0946 C 1536.1663,566.0236 1535.6852,566.8446 1534.6263,567.0835 C 1533.7698,567.2766 1531.9789,566.9715 1531.4892,567.9235 C 1530.5947,569.6666 1531.1610,571.1946 1528.6511,571.5055 C 1526.2740,571.7995 1525.5177,569.4805 1523.5321,569.0656 C 1519.5273,568.2275 1515.0587,569.8536 1510.9580,569.1595 C 1511.0866,568.7686 1511.5785,567.9416 1511.3079,567.5395 C 1510.6260,566.5226 1510.0085,568.3665 1509.7584,568.6996 C 1508.7573,570.0335 1504.0219,569.2315 1502.4952,569.2315 C 1496.9974,569.2315 1491.4997,569.2315 1486.0019,569.2315 C 1480.5093,569.2315 1475.0187,569.2315 1469.5260,569.2315 C 1467.0939,569.2315 1464.1683,569.6676 1461.7899,569.2085 C 1461.1665,569.0875 1461.4076,563.8196 1461.4007,563.1196 C 1461.2796,552.3375 1461.4337,541.5236 1461.4210,530.7346 C 1461.4451,525.4755 1461.7668,520.2146 1461.6433,514.9596 C 1461.5837,512.4266 1461.7486,509.7695 1461.4800,507.2606 C 1461.2541,505.1026 1460.8230,501.9106 1459.8998,499.9656"
     id="eg" />
  
  
  
  
  
  
  
  
  
  
  
  
  
  
  
  
  
  
  
  
  
  
  
  
  
  
  
  
  
  
  
  
  
  
  
  
  
  
  
  
  
  
  
  
  
  
  
  
  
  
  
  
  
  
  
  
  
  
  
  
  
  
  
  
  
  
  
  
  
  
  
  
  
  
  
  
  
  
  
  
  
  
  
  
  
  
  
  
  
  
  
  
  
  
  
  
  
  
  
  
  
  
  
  
  
  
  
  
  
  
  
  
  
  
  
  
  
  
  
  
  
  
  
  
  
  
  
  
  
  
  
  
  
  
  
  
  
  
  
  
  
  
  
</svg>
