<?xml version="1.0" encoding="UTF-8" standalone="no"?>
<svg
   xmlns:dc="http://purl.org/dc/elements/1.1/"
   xmlns:cc="http://web.resource.org/cc/"
   xmlns:rdf="http://www.w3.org/1999/02/22-rdf-syntax-ns#"
   xmlns:svg="http://www.w3.org/2000/svg"
   xmlns="http://www.w3.org/2000/svg"
   xmlns:sodipodi="http://sodipodi.sourceforge.net/DTD/sodipodi-0.dtd"
   xmlns:inkscape="http://www.inkscape.org/namespaces/inkscape"
   viewBox="0 0 2752.766 1537.631"
   version="1.0"
   height="476.7276"
   width="939.74725"
   id="svg1926"
   sodipodi:version="0.32"
   inkscape:version="0.45.1"
   sodipodi:docname="BlankMap-World6.svg"
   sodipodi:docbase="/home/bennett/Desktop"
   inkscape:output_extension="org.inkscape.output.svg.inkscape">
  <sodipodi:namedview
     inkscape:window-height="590"
     inkscape:window-width="822"
     inkscape:pageshadow="2"
     inkscape:pageopacity="0.0"
     guidetolerance="10.0"
     gridtolerance="10.0"
     objecttolerance="10.0"
     borderopacity="1.0"
     bordercolor="#666666"
     pagecolor="#ffffff"
     id="base"
     inkscape:zoom="0.77893284"
     inkscape:cx="469.87363"
     inkscape:cy="238.3638"
     inkscape:window-x="178"
     inkscape:window-y="46"
     inkscape:current-layer="svg1926" />
  <metadata
     id="metadata24111">
    <rdf:RDF>
      <cc:Work
         rdf:about="">
        <dc:format>image/svg+xml</dc:format>
        <dc:type
           rdf:resource="http://purl.org/dc/dcmitype/StillImage" />
        <cc:license
           rdf:resource="http://web.resource.org/cc/PublicDomain" />
        <dc:title>Blank World Map</dc:title>
      </cc:Work>
      <cc:License
         rdf:about="http://web.resource.org/cc/PublicDomain">
        <cc:permits
           rdf:resource="http://web.resource.org/cc/Reproduction" />
        <cc:permits
           rdf:resource="http://web.resource.org/cc/Distribution" />
        <cc:permits
           rdf:resource="http://web.resource.org/cc/DerivativeWorks" />
      </cc:License>
    </rdf:RDF>
  </metadata>
  <defs
     id="defs1930" />
  <style
     type="text/css"
     id="style_css_sheet">
/*
 * Below are Cascading Style Sheet (CSS) definitions in use in this file,
 * which allow easily changing how countries are displayed.
 *
 */

/*
 * Circles around small countries
 *
 * Change opacity to 1 to display all circles.
 *
 */
.circle
{
   opacity:0;
   fill:#b9b9b9;
   fill-opacity:1;
   stroke:black;
   stroke-width:0.99986893;
   stroke-miterlimit:3.97446823;
   stroke-dasharray:none;
   stroke-opacity:1;
}

/*
 * Land
 */
.land
{
   fill: #b9b9b9;
   fill-opacity: 1;
   stroke: #ffffff;
   stroke-opacity: 1;
   stroke-width: 0.99986997;
   stroke-miterlimit: 3.97446823;
   stroke-dasharray: none;
}

/*
 * Additional style rules
 *
 * The following are examples of colouring countries.  You can substitute these with your own styles to colour the countries on the map.
 *
 * Color a few countries:
 *
 * .gb, .au, .nc
 * {
 *    fill:       #ff0000;
 * }
 *
 * Color a few small country circles (and the countries):
 *
 * .ms, .ky
 * {
 *    opacity:    1;
 *    fill:       #ff0000;
 * }
 *
 */

/*
 * Antarctica
 */

.aq
{
   fill:#e6e6e6;
}

/*
 * Sea
 */

.ocean
{
   opacity: 1;
   color: #000000;
   fill:white;
   fill-opacity:1;
   fill-rule:nonzero;
   stroke:#000000;
   stroke-width:0.5;
   stroke-linecap:butt;
   stroke-linejoin:miter;
   marker:none;
   marker-start:none;
   marker-mid:none;
   marker-end:none;
   stroke-miterlimit:1;
   stroke-dasharray:none;
   stroke-dashoffset:0;
   stroke-opacity:1;
   visibility:visible;
   display:inline;
   overflow:visible;
}

.lake
{
   fill:#ffffff;
   fill-opacity:1;
   stroke:#ffffff;
   stroke-opacity:1;
   stroke-width:0.99986997;
   stroke-miterlimit:3.97446823;
   stroke-dasharray:none;
}
</style>
  
  
  
  
  
  
  
  
  
  
  
  
  
  
  
  
  
  
  
  
  
  
  
  
  
  
  
  
  
  
  
  
  
  
  
  
  
  
  
  
  
  
  
  
  
  
  
  
  
  
  
  
  
  
  
  
  
  
  
  
  
  
  
  
  
  
  
  
  
  
  
  
  
  
  
  
  
  
  
  
  
  
  
  
  
  
  
  
  
  
  
  
  
  
  
  
  
  
  
  
  
  
  
  
  
  
  
  
  
  
  
  
  
  
  
  
  
  
  
  <g
     class="land es"
     id="es">
    <path
       d="M 1132.9416,520.4135 C 1131.7770,519.6985 1132.5891,518.5675 1133.7248,518.9005 C 1133.5493,519.4505 1133.2879,519.9545 1132.9416,520.4135"
       id="path5984" />
    <path
       d="M 1134.4783,512.7095 C 1134.2634,512.8535 1134.0495,512.9975 1133.8347,513.1415 C 1133.6784,512.4065 1132.1325,510.3935 1133.5458,510.1175 C 1135.1233,509.8105 1134.9898,511.9365 1134.4783,512.7095"
       id="path5986" />
    <path
       d="M 1138.6742,517.2455 C 1137.8867,516.7945 1137.7546,515.4405 1138.9382,515.6615 C 1140.1751,515.8925 1139.5065,517.1305 1138.6742,517.2455"
       id="path5988" />
    <path
       d="M 1142.9469,517.4615 C 1142.2659,516.4465 1141.8568,515.3035 1141.1670,514.2935 C 1143.3817,513.7835 1145.0463,513.1085 1147.1507,512.2775 C 1146.4814,513.8825 1144.6999,516.8135 1142.9469,517.4615"
       id="path5990" />
    <path
       d="M 1151.2918,519.6215 C 1149.4378,519.3695 1148.9332,516.4715 1150.7992,516.0665 C 1153.6862,515.4415 1153.0111,518.8275 1151.2918,519.6215"
       id="path5992" />
    <path
       d="M 1160.8856,516.8855 C 1160.6518,516.7415 1160.4191,516.5975 1160.1854,516.4535 C 1162.3486,515.7475 1162.4381,512.4825 1163.9439,511.0125 C 1164.8963,510.0835 1164.5821,513.7215 1164.4573,514.0885 C 1163.8797,515.7675 1162.0140,515.7345 1160.8856,516.8855"
       id="path5994" />
    <path
       d="M 1165.1027,510.0455 C 1164.8476,509.9495 1164.5925,509.8535 1164.3374,509.7575 C 1164.6081,509.1055 1166.8385,506.0725 1167.4887,507.5655 C 1168.0326,508.8185 1165.7187,509.3975 1165.1027,510.0455"
       id="path5996" />
    <path
       d="M 1200.4963,389.0855 C 1200.5650,388.9655 1200.6349,388.8455 1200.7037,388.7255 C 1199.6894,388.8055 1199.5755,388.0165 1199.7957,387.3595 C 1200.1513,386.3005 1201.0093,386.5835 1201.6733,385.8675 C 1202.9602,384.4815 1206.0922,385.1345 1207.9957,384.3345 C 1206.3933,384.3945 1207.3899,383.9805 1207.9358,383.6865 C 1207.6055,383.7995 1207.2681,383.8955 1206.9226,383.9745 C 1206.5966,383.0295 1209.8907,380.6075 1210.0332,382.1745 C 1210.5387,381.8865 1211.0444,381.5985 1211.5503,381.3105 C 1211.7776,382.3735 1216.3553,381.8885 1216.5433,383.6865 C 1217.8108,382.0425 1222.0458,383.3195 1223.9695,383.0395 C 1225.6249,382.7995 1226.0494,382.7105 1227.8375,383.0895 C 1229.7394,383.4925 1231.6681,383.8685 1233.5939,384.1595 C 1236.2179,384.5565 1238.5783,384.3365 1240.9184,383.8205 C 1242.3981,383.4945 1244.1952,383.8035 1245.5599,384.5185 C 1247.4236,385.4945 1247.0619,384.1415 1248.7368,384.2495 C 1250.2095,384.3445 1251.6751,384.8725 1253.1289,385.1225 C 1254.0093,385.2735 1256.5568,384.5385 1256.9723,385.0875 C 1257.4235,385.6845 1259.9813,384.9595 1259.5965,386.4005 C 1259.5160,386.7055 1259.2922,387.0705 1259.5987,387.3675 C 1260.3131,388.0605 1260.0921,387.1775 1260.8126,387.2105 C 1263.0812,387.3155 1265.0173,389.3985 1267.1238,389.5725 C 1267.5997,389.6115 1268.0907,389.3235 1268.5583,389.4785 C 1269.1513,389.6755 1269.5053,390.2695 1270.1530,390.3585 C 1271.9385,390.6055 1273.7772,390.3635 1275.5747,390.5985 C 1275.4576,390.0465 1275.5663,389.5425 1275.9009,389.0865 C 1278.1963,390.1165 1281.4127,390.0545 1281.7650,392.6865 C 1283.0098,392.5515 1283.7729,391.9855 1285.0176,392.6155 C 1285.3858,392.8025 1285.9554,393.4075 1286.4074,393.2725 C 1286.9323,393.1155 1287.4569,392.6105 1288.0803,392.8345 C 1289.2687,393.2595 1290.3061,393.7245 1291.4762,393.0155 C 1292.4406,392.4315 1292.9891,392.3575 1294.1196,392.7595 C 1294.7608,392.9885 1294.8379,393.7325 1295.6552,393.6235 C 1295.6733,394.3915 1295.1435,394.1565 1294.6764,394.5055 C 1293.9858,395.0225 1294.7323,396.2995 1294.7223,396.9685 C 1294.6936,398.8185 1290.3156,400.1545 1288.8444,400.7195 C 1287.7427,401.1435 1287.4830,402.1085 1286.5688,402.5125 C 1285.4663,403.0005 1283.9177,402.9855 1282.7277,403.2625 C 1279.8422,403.9345 1278.1316,405.0945 1275.8526,406.5835 C 1277.7370,407.9205 1276.0209,408.1755 1274.8087,408.8285 C 1273.0291,409.7875 1272.7720,412.0995 1271.0357,413.1485 C 1268.0793,414.9375 1267.2452,420.0635 1269.8467,422.5125 C 1271.4263,424.0035 1272.6661,424.4565 1270.2386,425.9005 C 1268.8351,426.7365 1267.7604,427.0885 1266.6438,428.2805 C 1265.9786,428.9865 1265.3964,430.0675 1264.9557,431.0955 C 1264.6795,431.7405 1264.3669,432.4635 1264.3774,433.1795 C 1264.3863,433.7765 1265.4712,434.5845 1264.7777,433.1505 C 1265.8197,434.6625 1261.8305,434.7765 1261.0618,434.8625 C 1259.2054,435.0715 1256.6867,436.6505 1256.3123,438.3655 C 1255.9922,439.8395 1254.8007,442.4665 1253.0548,441.1925 C 1251.9868,440.4125 1251.2645,441.4625 1250.4225,441.7915 C 1249.2073,442.2675 1247.8324,441.5515 1246.5293,441.7525 C 1243.8136,442.1725 1241.0707,441.8785 1238.2769,441.9295 C 1236.7850,441.9565 1236.4677,442.2175 1235.4356,443.1665 C 1234.2561,444.2515 1232.6008,443.8065 1231.2075,444.4765 C 1230.5133,444.8095 1229.9418,447.0585 1229.3007,446.9995 C 1228.5010,446.9265 1228.7842,448.1545 1227.5517,448.1265 C 1226.5561,448.1045 1225.7108,446.5035 1224.7674,446.6005 C 1223.7382,446.7065 1222.8280,444.6765 1222.5341,443.9515 C 1223.8918,443.7265 1222.1299,442.8025 1221.7081,442.5105 C 1220.6902,441.8075 1221.7787,440.6025 1222.7005,440.3505 C 1222.1046,440.1745 1221.8305,440.4705 1221.8200,440.9985 C 1221.2866,440.4975 1217.0134,437.8975 1217.8753,437.1095 C 1216.4431,436.9635 1217.8834,437.6645 1216.3612,437.6965 C 1215.6787,437.7115 1214.8469,437.9525 1214.1627,437.7235 C 1213.1849,437.3975 1213.0694,435.1125 1213.1554,434.3735 C 1213.2304,433.7275 1213.7432,433.2435 1214.1793,432.7985 C 1214.7154,432.2515 1214.7290,431.3915 1215.2014,430.9325 C 1216.2877,429.8775 1216.8208,430.6915 1217.4559,429.0455 C 1216.0067,429.4995 1214.6940,427.6775 1214.5637,426.5245 C 1214.3613,424.7325 1216.5375,423.8585 1216.9632,422.2755 C 1217.1942,421.4185 1215.3474,420.2725 1214.8751,419.5155 C 1214.4764,418.8765 1214.7950,418.5035 1214.2407,417.9555 C 1213.7764,417.4955 1213.1598,417.0035 1212.8389,416.4435 C 1213.8478,416.6985 1214.8716,416.5155 1215.8760,416.5155 C 1216.9194,416.5155 1216.5916,415.9505 1216.9106,415.3535 C 1217.3087,414.6085 1218.6232,413.0785 1217.0444,412.2395 C 1216.3439,411.8675 1218.0045,411.2225 1218.1370,411.1635 C 1218.8162,410.8555 1218.4980,409.9395 1218.4284,409.3845 C 1218.3746,408.9555 1218.2598,404.6995 1217.6614,404.8365 C 1218.7342,404.5925 1219.1275,403.4555 1220.1606,402.8905 C 1220.8012,402.5395 1223.2770,400.9595 1223.0021,400.0535 C 1222.7777,399.3135 1221.1252,399.1405 1220.5059,398.8435 C 1219.8190,398.5145 1221.0857,397.2785 1220.0634,396.9975 C 1219.3394,396.7985 1215.4457,396.4315 1215.4283,397.0705 C 1215.3946,398.2955 1213.1566,397.8415 1212.3846,397.5635 C 1211.1466,397.1165 1210.0316,397.7925 1208.8722,398.0025 C 1207.0524,398.3325 1207.8359,396.5755 1208.6654,395.9945 C 1207.9849,396.0785 1207.6591,395.7305 1207.7198,395.1305 C 1207.0919,395.7215 1206.1751,395.7425 1205.3234,395.8855 C 1204.2548,396.0655 1203.6925,396.8685 1202.7835,397.2905 C 1201.7226,395.2275 1204.2095,395.0035 1204.6262,393.4015 C 1204.2806,394.1055 1203.4707,394.3265 1202.6588,394.3385 C 1202.7549,393.5155 1203.5816,393.1875 1204.2648,392.8265 C 1203.5694,393.1155 1202.4954,393.1885 1202.4552,392.1785 C 1202.4270,391.4585 1203.6539,391.1835 1203.7242,390.4505 C 1203.0785,391.0465 1201.9609,390.9875 1201.6357,391.8895 C 1200.7465,390.8495 1201.9315,390.0125 1202.6711,389.4415 C 1201.9243,390.0295 1200.9140,390.1915 1200.4963,389.0855"
       id="path5998" />
    <path
       d="M 1280.9864,423.6455 C 1279.4191,423.3845 1279.9653,422.0655 1280.9872,421.5675 C 1281.4719,421.3325 1282.1042,421.2555 1282.5635,421.6305 C 1283.3367,422.2635 1281.2788,422.9995 1280.9864,423.6455"
       id="path6006" />
    <path
       d="M 1281.1246,425.3015 C 1280.8523,424.4745 1281.1055,424.3295 1281.8843,424.8695 C 1281.6310,425.0135 1281.3789,425.1575 1281.1246,425.3015"
       id="path6008" />
    <path
       d="M 1295.5955,418.6055 C 1294.1880,420.1255 1294.3019,419.3635 1292.5423,419.1005 C 1290.6702,418.8215 1291.8594,416.9705 1289.7484,417.8175 C 1287.8775,418.5685 1289.3682,416.4575 1289.9000,416.0935 C 1291.5001,415.0005 1293.1851,414.5105 1295.0646,413.9265 C 1294.2778,414.1345 1293.9871,415.0515 1294.7561,415.5545 C 1295.3554,415.9465 1296.1772,415.4045 1296.7353,415.8045 C 1297.5001,416.3525 1295.6380,417.9995 1295.5955,418.6055"
       id="path6010" />
    <path
       d="M 1299.5164,413.6375 C 1300.8868,412.4135 1303.2543,413.3495 1303.4598,415.0775 C 1302.4693,415.2245 1300.0688,414.4735 1299.5164,413.6375"
       id="path6012" />
  </g>
  
  
  
  
  
  
  
  
  
  
  
  
  
  
  
  
  
  
  
  
  
  
  
  
  
  
  
  
  
  
  
  
  
  
  
  
  
  
  
  
  
  
  
  
  
  
  
  
  
  
  
  
  
  
  
  
  
  
  
  
  
  
  
  
  
  
  
  
  
  
  
  
  
  
  
  
  
  
  
  
  
  
  
  
  
  
  
  
  
  
  
  
  
  
  
  
  
  
  
  
  
  
  
  
  
  
  
  
  
  
  
  
</svg>
