<?xml version="1.0" encoding="UTF-8" standalone="no"?>
<svg
   xmlns:dc="http://purl.org/dc/elements/1.1/"
   xmlns:cc="http://web.resource.org/cc/"
   xmlns:rdf="http://www.w3.org/1999/02/22-rdf-syntax-ns#"
   xmlns:svg="http://www.w3.org/2000/svg"
   xmlns="http://www.w3.org/2000/svg"
   xmlns:sodipodi="http://sodipodi.sourceforge.net/DTD/sodipodi-0.dtd"
   xmlns:inkscape="http://www.inkscape.org/namespaces/inkscape"
   viewBox="0 0 2752.766 1537.631"
   version="1.0"
   height="476.7276"
   width="939.74725"
   id="svg1926"
   sodipodi:version="0.32"
   inkscape:version="0.45.1"
   sodipodi:docname="BlankMap-World6.svg"
   sodipodi:docbase="/home/bennett/Desktop"
   inkscape:output_extension="org.inkscape.output.svg.inkscape">
  <sodipodi:namedview
     inkscape:window-height="590"
     inkscape:window-width="822"
     inkscape:pageshadow="2"
     inkscape:pageopacity="0.0"
     guidetolerance="10.0"
     gridtolerance="10.0"
     objecttolerance="10.0"
     borderopacity="1.0"
     bordercolor="#666666"
     pagecolor="#ffffff"
     id="base"
     inkscape:zoom="0.77893284"
     inkscape:cx="469.87363"
     inkscape:cy="238.3638"
     inkscape:window-x="178"
     inkscape:window-y="46"
     inkscape:current-layer="svg1926" />
  <metadata
     id="metadata24111">
    <rdf:RDF>
      <cc:Work
         rdf:about="">
        <dc:format>image/svg+xml</dc:format>
        <dc:type
           rdf:resource="http://purl.org/dc/dcmitype/StillImage" />
        <cc:license
           rdf:resource="http://web.resource.org/cc/PublicDomain" />
        <dc:title>Blank World Map</dc:title>
      </cc:Work>
      <cc:License
         rdf:about="http://web.resource.org/cc/PublicDomain">
        <cc:permits
           rdf:resource="http://web.resource.org/cc/Reproduction" />
        <cc:permits
           rdf:resource="http://web.resource.org/cc/Distribution" />
        <cc:permits
           rdf:resource="http://web.resource.org/cc/DerivativeWorks" />
      </cc:License>
    </rdf:RDF>
  </metadata>
  <defs
     id="defs1930" />
  <style
     type="text/css"
     id="style_css_sheet">
/*
 * Below are Cascading Style Sheet (CSS) definitions in use in this file,
 * which allow easily changing how countries are displayed.
 *
 */

/*
 * Circles around small countries
 *
 * Change opacity to 1 to display all circles.
 *
 */
.circle
{
   opacity:0;
   fill:#b9b9b9;
   fill-opacity:1;
   stroke:black;
   stroke-width:0.99986893;
   stroke-miterlimit:3.97446823;
   stroke-dasharray:none;
   stroke-opacity:1;
}

/*
 * Land
 */
.land
{
   fill: #b9b9b9;
   fill-opacity: 1;
   stroke: #ffffff;
   stroke-opacity: 1;
   stroke-width: 0.99986997;
   stroke-miterlimit: 3.97446823;
   stroke-dasharray: none;
}

/*
 * Additional style rules
 *
 * The following are examples of colouring countries.  You can substitute these with your own styles to colour the countries on the map.
 *
 * Color a few countries:
 *
 * .gb, .au, .nc
 * {
 *    fill:       #ff0000;
 * }
 *
 * Color a few small country circles (and the countries):
 *
 * .ms, .ky
 * {
 *    opacity:    1;
 *    fill:       #ff0000;
 * }
 *
 */

/*
 * Antarctica
 */

.aq
{
   fill:#e6e6e6;
}

/*
 * Sea
 */

.ocean
{
   opacity: 1;
   color: #000000;
   fill:white;
   fill-opacity:1;
   fill-rule:nonzero;
   stroke:#000000;
   stroke-width:0.5;
   stroke-linecap:butt;
   stroke-linejoin:miter;
   marker:none;
   marker-start:none;
   marker-mid:none;
   marker-end:none;
   stroke-miterlimit:1;
   stroke-dasharray:none;
   stroke-dashoffset:0;
   stroke-opacity:1;
   visibility:visible;
   display:inline;
   overflow:visible;
}

.lake
{
   fill:#ffffff;
   fill-opacity:1;
   stroke:#ffffff;
   stroke-opacity:1;
   stroke-width:0.99986997;
   stroke-miterlimit:3.97446823;
   stroke-dasharray:none;
}
</style>
  
  
  
  
  
  
  
  
  
  
  
  
  
  
  
  
  
  
  
  
  
  
  
  
  
  
  
  
  
  
  
  
  
  
  
  
  
  
  
  
  
  
  
  
  
  
  
  
  
  
  
  
  
  
  
  
  
  
  
  
  
  
  
  
  <path
     class="land et"
     d="M 1522.6761,691.3415 C 1522.8346,690.1756 1523.9572,689.5585 1523.9766,688.3736 C 1524.0109,686.3456 1525.4454,686.1545 1527.1546,686.4446 C 1528.6725,686.7025 1529.9846,687.1845 1531.1361,685.5086 C 1531.9326,684.3515 1531.4469,682.3406 1531.3095,681.0696 C 1531.0832,678.9485 1530.7997,676.6616 1531.6257,674.6176 C 1531.9499,673.8175 1532.3760,673.0616 1532.6803,672.2526 C 1533.1285,671.0646 1532.6641,670.2686 1532.6636,669.0925 C 1532.6704,667.9166 1533.3356,666.7336 1534.1208,665.8505 C 1535.0248,664.8346 1536.3096,666.0476 1536.2558,667.1476 C 1536.7773,666.5915 1538.8733,663.5095 1537.8865,662.5406 C 1537.3282,661.9905 1538.2810,660.6896 1538.4650,660.1355 C 1538.8257,659.0445 1538.1196,657.6656 1539.1166,656.7766 C 1540.7154,655.3515 1541.3852,653.4755 1542.4007,651.5556 C 1542.8291,650.7436 1543.1012,649.8966 1544.1015,649.8496 C 1544.5169,649.8296 1546.4727,650.0416 1546.6640,649.5506 C 1547.2466,648.0556 1547.1654,646.1956 1547.4443,644.6295 C 1547.6078,643.7386 1547.9958,643.0445 1548.3961,642.2236 C 1549.1118,640.7526 1548.9905,639.3776 1549.3383,637.8456 C 1549.9996,634.9525 1551.1927,636.0126 1553.4046,635.9896 C 1554.2588,635.9805 1554.4921,634.2576 1555.6696,634.9456 C 1556.5875,635.4815 1557.0641,636.7175 1557.6324,637.5575 C 1558.6068,635.3415 1559.5714,633.1075 1560.2526,630.7895 C 1560.5802,631.3175 1560.9473,631.9865 1561.5143,632.3016 C 1562.1327,632.6445 1562.8540,632.3686 1563.2089,633.1226 C 1563.9070,634.6046 1564.8176,634.7795 1566.3910,634.4986 C 1566.9720,634.3945 1567.5852,634.2396 1568.0552,633.8486 C 1568.3360,633.6146 1568.6034,632.7286 1568.8920,632.6486 C 1569.4243,632.5005 1570.2173,634.2885 1570.3064,634.6775 C 1571.8625,632.8256 1574.2981,634.9765 1575.8410,634.5735 C 1577.9589,634.0205 1580.0313,636.2365 1581.7917,636.9865 C 1584.1474,637.9905 1584.7266,641.0595 1586.6161,642.6036 C 1587.7511,643.5316 1589.2617,644.2745 1589.9367,645.6416 C 1590.5614,646.8916 1590.8424,647.9396 1591.9931,648.8346 C 1593.9259,650.3396 1594.7458,651.4955 1593.3687,653.7776 C 1591.7423,656.4746 1589.5832,658.0095 1589.9759,661.3035 C 1590.1703,662.9396 1589.4654,664.9325 1591.8246,664.7726 C 1593.2048,664.6785 1594.5910,664.0226 1595.9345,663.6856 C 1597.0238,663.4126 1597.6254,664.6735 1598.6451,664.3406 C 1598.4836,666.0516 1596.1281,666.8515 1597.1900,668.7595 C 1597.9723,670.1545 1598.5389,672.1196 1599.5988,673.3116 C 1600.3573,674.1676 1600.6874,674.2935 1601.1936,675.3736 C 1601.5597,676.1526 1602.0353,677.3575 1602.5854,678.0076 C 1603.1366,678.6566 1604.0254,678.8596 1604.6690,679.3895 C 1605.6585,680.2065 1606.3286,681.4496 1607.5958,681.9066 C 1612.6845,683.7455 1617.7063,685.7526 1622.7774,687.6305 C 1625.1795,688.5205 1627.6554,689.8045 1630.1493,690.3936 C 1632.4613,690.9396 1634.9098,690.3335 1637.2573,690.3335 C 1630.8564,697.0065 1624.5774,703.8116 1618.8724,711.0785 C 1617.6741,712.6065 1616.5859,714.2555 1615.3063,715.7156 C 1613.9667,717.2446 1612.8075,717.0775 1610.9443,716.9145 C 1607.3658,716.6005 1602.0313,716.6885 1599.6452,720.0276 C 1598.8132,721.1985 1598.2925,722.3745 1596.7564,722.6785 C 1595.3417,722.9596 1593.6740,722.5495 1592.3583,723.2645 C 1590.9369,724.0376 1590.9694,725.5406 1589.1188,725.1155 C 1587.5676,724.7586 1585.7734,726.3106 1584.4176,724.7916 C 1583.8424,724.1455 1583.1658,722.5585 1582.1941,722.4446 C 1581.2575,722.3346 1580.0321,723.5126 1579.2152,723.8845 C 1577.9326,724.4706 1576.0044,725.2465 1575.1497,726.4385 C 1574.7879,726.9435 1574.7069,727.5796 1574.3232,728.0746 C 1573.8076,728.7396 1573.0002,729.1956 1572.8125,730.0765 C 1571.8569,729.1486 1569.6750,729.0065 1568.4150,729.1215 C 1567.4445,729.2096 1566.9948,728.3895 1566.1282,728.2046 C 1565.2265,728.0136 1564.3036,728.4235 1563.3958,728.3486 C 1559.1775,727.9995 1556.5623,722.7505 1552.7817,721.4306 C 1550.9521,720.7916 1548.5328,721.0775 1546.6038,721.0775 C 1545.6058,721.0775 1544.4393,718.9896 1544.0272,718.1395 C 1543.4575,716.9546 1544.4835,715.3866 1544.1197,714.0856 C 1543.7921,712.9135 1541.3915,712.2025 1540.5727,713.2286 C 1540.0896,712.7545 1539.4253,711.3496 1539.0305,710.7236 C 1538.1171,709.2785 1537.8126,707.3375 1537.2057,705.7365 C 1536.7494,704.5345 1536.5327,703.1785 1535.8978,702.0516 C 1535.6053,701.5316 1535.2510,701.3465 1534.7472,701.0925 C 1534.1887,700.8125 1534.3614,700.2106 1533.9514,699.8406 C 1533.6950,699.6756 1533.4146,699.5756 1533.1104,699.5385 C 1532.3184,699.3175 1532.2507,698.4656 1531.8363,697.8926 C 1530.9100,696.6146 1530.2922,695.0545 1529.0472,694.0295 C 1528.1355,693.2795 1527.0410,692.7666 1525.8613,692.6236 C 1524.7647,692.4926 1523.2462,692.4836 1522.6761,691.3415"
     id="et" />
  
  
  
  
  
  
  
  
  
  
  
  
  
  
  
  
  
  
  
  
  
  
  
  
  
  
  
  
  
  
  
  
  
  
  
  
  
  
  
  
  
  
  
  
  
  
  
  
  
  
  
  
  
  
  
  
  
  
  
  
  
  
  
  
  
  
  
  
  
  
  
  
  
  
  
  
  
  
  
  
  
  
  
  
  
  
  
  
  
  
  
  
  
  
  
  
  
  
  
  
  
  
  
  
  
  
  
  
  
  
  
  
  
  
  
  
  
  
  
  
  
  
  
  
  
  
  
  
  
  
  
  
  
  
  
  
  
  
  
  
  
  
  
  
  
  
  
  
  
  
  
  
  
  
  
  
  
  
  
  
  
  
  
  
  
  
  
</svg>
