<?xml version="1.0" encoding="UTF-8" standalone="no"?>
<svg
   xmlns:dc="http://purl.org/dc/elements/1.1/"
   xmlns:cc="http://web.resource.org/cc/"
   xmlns:rdf="http://www.w3.org/1999/02/22-rdf-syntax-ns#"
   xmlns:svg="http://www.w3.org/2000/svg"
   xmlns="http://www.w3.org/2000/svg"
   xmlns:sodipodi="http://sodipodi.sourceforge.net/DTD/sodipodi-0.dtd"
   xmlns:inkscape="http://www.inkscape.org/namespaces/inkscape"
   viewBox="0 0 2752.766 1537.631"
   version="1.0"
   height="476.7276"
   width="939.74725"
   id="svg1926"
   sodipodi:version="0.32"
   inkscape:version="0.45.1"
   sodipodi:docname="BlankMap-World6.svg"
   sodipodi:docbase="/home/bennett/Desktop"
   inkscape:output_extension="org.inkscape.output.svg.inkscape">
  <sodipodi:namedview
     inkscape:window-height="590"
     inkscape:window-width="822"
     inkscape:pageshadow="2"
     inkscape:pageopacity="0.0"
     guidetolerance="10.0"
     gridtolerance="10.0"
     objecttolerance="10.0"
     borderopacity="1.0"
     bordercolor="#666666"
     pagecolor="#ffffff"
     id="base"
     inkscape:zoom="0.77893284"
     inkscape:cx="469.87363"
     inkscape:cy="238.3638"
     inkscape:window-x="178"
     inkscape:window-y="46"
     inkscape:current-layer="svg1926" />
  <metadata
     id="metadata24111">
    <rdf:RDF>
      <cc:Work
         rdf:about="">
        <dc:format>image/svg+xml</dc:format>
        <dc:type
           rdf:resource="http://purl.org/dc/dcmitype/StillImage" />
        <cc:license
           rdf:resource="http://web.resource.org/cc/PublicDomain" />
        <dc:title>Blank World Map</dc:title>
      </cc:Work>
      <cc:License
         rdf:about="http://web.resource.org/cc/PublicDomain">
        <cc:permits
           rdf:resource="http://web.resource.org/cc/Reproduction" />
        <cc:permits
           rdf:resource="http://web.resource.org/cc/Distribution" />
        <cc:permits
           rdf:resource="http://web.resource.org/cc/DerivativeWorks" />
      </cc:License>
    </rdf:RDF>
  </metadata>
  <defs
     id="defs1930" />
  <style
     type="text/css"
     id="style_css_sheet">
/*
 * Below are Cascading Style Sheet (CSS) definitions in use in this file,
 * which allow easily changing how countries are displayed.
 *
 */

/*
 * Circles around small countries
 *
 * Change opacity to 1 to display all circles.
 *
 */
.circle
{
   opacity:0;
   fill:#b9b9b9;
   fill-opacity:1;
   stroke:black;
   stroke-width:0.99986893;
   stroke-miterlimit:3.97446823;
   stroke-dasharray:none;
   stroke-opacity:1;
}

/*
 * Land
 */
.land
{
   fill: #b9b9b9;
   fill-opacity: 1;
   stroke: #ffffff;
   stroke-opacity: 1;
   stroke-width: 0.99986997;
   stroke-miterlimit: 3.97446823;
   stroke-dasharray: none;
}

/*
 * Additional style rules
 *
 * The following are examples of colouring countries.  You can substitute these with your own styles to colour the countries on the map.
 *
 * Color a few countries:
 *
 * .gb, .au, .nc
 * {
 *    fill:       #ff0000;
 * }
 *
 * Color a few small country circles (and the countries):
 *
 * .ms, .ky
 * {
 *    opacity:    1;
 *    fill:       #ff0000;
 * }
 *
 */

/*
 * Antarctica
 */

.aq
{
   fill:#e6e6e6;
}

/*
 * Sea
 */

.ocean
{
   opacity: 1;
   color: #000000;
   fill:white;
   fill-opacity:1;
   fill-rule:nonzero;
   stroke:#000000;
   stroke-width:0.5;
   stroke-linecap:butt;
   stroke-linejoin:miter;
   marker:none;
   marker-start:none;
   marker-mid:none;
   marker-end:none;
   stroke-miterlimit:1;
   stroke-dasharray:none;
   stroke-dashoffset:0;
   stroke-opacity:1;
   visibility:visible;
   display:inline;
   overflow:visible;
}

.lake
{
   fill:#ffffff;
   fill-opacity:1;
   stroke:#ffffff;
   stroke-opacity:1;
   stroke-width:0.99986997;
   stroke-miterlimit:3.97446823;
   stroke-dasharray:none;
}
</style>
  
  
  
  
  
  
  
  
  
  
  
  
  
  
  
  
  
  
  
  
  
  
  
  
  
  
  
  
  
  
  
  
  
  
  
  
  
  
  
  
  
  
  
  
  
  
  
  
  
  
  
  
  
  
  
  
  
  
  
  
  
  
  
  
  
  
  
  
  
  
  
  <g
     class="land fi"
     id="fi">
    <path
       d="M 1420.4087,244.5815 C 1419.6375,245.2155 1419.6309,245.3465 1420.6879,245.5175 C 1420.7061,245.1785 1420.6127,244.8665 1420.4087,244.5815"
       id="path4630" />
    <path
       d="M 1422.4404,246.0935 C 1423.6386,246.2525 1423.8007,245.3205 1423.2957,244.7255 C 1423.8968,244.5955 1424.5006,245.5705 1425.1613,245.3255 C 1426.5008,244.8285 1422.6843,243.7675 1422.0195,243.8625 C 1422.6382,244.2905 1422.6043,244.8975 1421.9678,245.3745 C 1421.9609,244.7835 1421.5539,244.4165 1420.7663,244.6535 C 1421.0088,245.3135 1421.2018,246.3715 1422.4404,246.0935"
       id="path4632" />
    <path
       d="M 1423.3077,246.4535 C 1426.5570,247.4765 1424.5326,245.6425 1423.3077,246.4535"
       id="path4634" />
    <path
       d="M 1425.7905,246.9575 C 1426.1111,247.0845 1426.4416,247.0845 1426.7795,246.9575 C 1426.4490,246.9575 1426.1197,246.9575 1425.7905,246.9575"
       id="path4636" />
    <path
       d="M 1433.0497,222.1895 C 1434.9818,222.0165 1433.7589,220.5965 1432.1913,221.5425 C 1432.4423,221.7845 1432.7297,222.0005 1433.0497,222.1895"
       id="path4638" />
    <path
       d="M 1433.8177,242.7095 C 1434.1513,242.6855 1434.4861,242.6615 1434.8197,242.6375 C 1434.1863,242.1465 1433.8525,242.1705 1433.8177,242.7095"
       id="path4642" />
    <path
       d="M 1439.3872,220.5335 C 1439.0347,220.6295 1438.6812,220.7245 1438.3290,220.8205 C 1438.7283,220.8475 1439.0817,220.7515 1439.3872,220.5335"
       id="path4644" />
    <path
       d="M 1440.5681,220.8215 C 1440.2545,220.8455 1439.9410,220.8695 1439.6274,220.8935 C 1440.4730,221.5595 1440.7863,221.5355 1440.5681,220.8215"
       id="path4646" />
    <path
       d="M 1438.5906,243.7895 C 1438.3128,243.5435 1438.0025,243.3275 1437.6572,243.1415 C 1436.8048,244.1175 1438.2536,244.4285 1439.1700,244.2215 C 1438.9868,244.1755 1438.5730,243.7785 1438.5906,243.7895"
       id="path4648" />
    <path
       d="M 1438.1133,245.5895 C 1437.8726,245.4765 1437.6251,245.3335 1437.3301,245.3015 C 1437.5917,245.3975 1437.8519,245.4935 1438.1133,245.5895"
       id="path4650" />
    <path
       d="M 1438.4851,245.5175 C 1439.0645,245.7275 1439.3764,245.6315 1439.4209,245.2295 C 1439.1090,245.3245 1438.7957,245.4215 1438.4851,245.5175"
       id="path4652" />
    <path
       d="M 1445.7343,217.0055 C 1445.3891,217.0285 1445.0423,217.0535 1444.6972,217.0765 C 1444.9846,217.2645 1445.3076,217.4085 1445.6674,217.5095 C 1445.8081,217.1945 1446.1904,216.8735 1445.7343,217.0055"
       id="path4660" />
    <path
       d="M 1441.4940,244.4375 C 1441.7926,244.4615 1442.0912,244.4855 1442.3898,244.5095 C 1442.0439,243.9125 1442.0042,244.1665 1441.4940,244.4375"
       id="path4662" />
    <path
       d="M 1441.7407,246.9575 C 1442.4625,246.8985 1443.1857,246.9555 1443.9088,246.9175 C 1445.3250,246.8445 1445.0244,245.2065 1446.1585,244.7245 C 1445.0539,245.2425 1443.3931,245.5145 1442.2117,245.3005 C 1444.2173,245.9315 1441.4275,245.6785 1441.7407,246.9575"
       id="path4664" />
    <path
       d="M 1444.8956,246.9575 C 1445.3002,247.6265 1446.8469,248.1695 1447.0603,246.9575 C 1446.3199,247.1145 1445.5977,247.1145 1444.8956,246.9575"
       id="path4666" />
    <path
       d="M 1458.4695,208.1495 C 1460.1961,208.8625 1460.2818,207.5585 1461.5449,207.9335 C 1461.0629,207.2725 1458.9198,207.3075 1458.4695,208.1495"
       id="path4670" />
    <path
       d="M 1428.1719,177.9815 C 1429.4328,177.0695 1430.8862,178.0895 1432.2911,177.5495 C 1431.9818,177.3385 1431.6798,177.1225 1431.3852,176.9015 C 1435.2742,175.3075 1438.4743,177.2585 1440.8971,179.1925 C 1442.5962,180.5505 1446.1475,181.4425 1448.9390,180.8635 C 1450.4519,180.5505 1451.4237,180.3975 1452.7143,179.7565 C 1453.9040,179.1665 1456.7731,180.0825 1457.8999,180.3255 C 1459.5045,180.6725 1460.0909,181.1925 1461.8203,180.9695 C 1463.3168,180.7755 1463.1667,179.3315 1465.1780,179.2315 C 1466.1928,179.1815 1467.3248,178.8735 1467.2673,177.9745 C 1467.1681,176.4305 1468.2743,174.9975 1469.0729,173.5185 C 1471.0584,172.7455 1473.5230,171.1935 1475.7061,171.4845 C 1477.8913,171.7755 1479.3098,171.3555 1481.4539,170.7425 C 1483.8093,170.0715 1484.9282,171.3685 1486.7653,171.8865 C 1488.6819,172.4265 1490.7129,172.6215 1492.6299,173.1035 C 1498.0846,174.4795 1488.0653,177.1035 1492.2449,178.1995 C 1490.7638,178.5525 1489.2615,178.7705 1487.7880,179.1355 C 1488.5270,179.2075 1491.5259,179.3545 1489.7977,180.4375 C 1488.0917,181.5105 1487.6476,182.3625 1489.2564,183.4805 C 1490.7764,184.5395 1492.9883,184.5095 1494.7471,185.2725 C 1496.2910,185.9445 1497.8182,186.9205 1499.2287,187.7235 C 1502.1082,189.3695 1491.5342,192.1905 1493.1221,194.2915 C 1495.4037,197.3365 1499.8764,199.0095 1500.7591,202.8225 C 1499.7395,202.8625 1498.7248,203.1215 1497.7077,203.2555 C 1498.9383,203.5305 1497.9728,204.9885 1497.2202,205.7335 C 1496.5137,206.4365 1498.4783,206.6345 1498.6805,207.1435 C 1496.8227,207.4365 1496.6678,208.5325 1497.7009,209.3515 C 1498.7076,210.1515 1500.7422,209.2695 1501.3062,210.5275 C 1497.4282,211.7745 1502.2600,213.1935 1503.5891,213.7465 C 1506.5218,214.9715 1501.3037,217.2255 1499.7053,217.8005 C 1502.2725,219.0085 1505.0419,219.9785 1507.5542,221.2305 C 1508.7916,221.8465 1509.9626,222.5335 1510.9806,223.3395 C 1512.0761,224.2105 1511.4694,224.5865 1510.6150,225.7175 C 1509.2472,227.5305 1507.4299,228.4325 1505.2911,229.6735 C 1502.2955,231.4165 1499.7123,233.5475 1496.7209,235.2525 C 1493.9480,236.8485 1490.9853,238.1765 1488.1308,239.6385 C 1486.8469,240.2975 1485.6058,240.9975 1484.3967,241.7435 C 1483.8174,242.0415 1483.3202,242.4085 1482.9073,242.8455 C 1482.1653,243.5625 1480.8973,242.9935 1480.0417,243.0555 C 1478.8119,243.1455 1478.8756,242.2855 1477.4460,242.7915 C 1476.3551,243.1785 1475.3389,243.4965 1474.1741,243.4995 C 1473.6811,243.5245 1473.2494,243.4305 1472.8776,243.2165 C 1472.7164,243.5515 1472.4222,243.7715 1471.9952,243.8755 C 1470.9608,244.1235 1469.7407,243.7085 1468.9677,243.2885 C 1469.6460,243.9945 1469.1708,244.2385 1468.2753,244.2965 C 1468.3547,244.5385 1468.4395,244.7775 1468.5318,245.0165 C 1467.5672,245.2075 1466.5460,244.8995 1466.6973,244.0085 C 1465.6223,245.2085 1463.0382,245.2135 1461.4863,245.4615 C 1460.6139,245.6005 1459.8256,245.8675 1458.9761,246.0815 C 1458.3427,246.2405 1458.1932,246.8455 1457.5473,246.9815 C 1456.3607,247.2305 1456.1393,246.4115 1454.8908,246.6615 C 1452.9976,247.0405 1450.8538,247.8255 1448.9629,247.5375 C 1449.3627,247.3635 1449.7499,247.1715 1450.1246,246.9615 C 1448.5734,247.4105 1447.3761,248.3575 1445.6959,248.4735 C 1446.3071,248.2075 1447.0986,247.9335 1447.5029,247.4365 C 1448.4003,246.3335 1445.9807,247.3395 1448.1915,246.6015 C 1447.3337,246.7005 1446.7062,246.3955 1446.0969,246.0195 C 1445.0529,245.3755 1446.2319,244.7605 1447.1390,244.1535 C 1446.3458,244.3425 1440.9339,245.7175 1442.9056,243.9375 C 1441.2604,243.6575 1439.5342,243.6705 1438.1740,242.8625 C 1437.6004,242.5215 1435.9525,241.4605 1436.1499,242.8575 C 1435.6638,242.5375 1434.2879,242.1615 1434.5309,241.7515 C 1434.9699,241.0105 1434.0424,239.1305 1433.6184,238.4665 C 1436.7081,238.4985 1433.5375,233.5865 1436.4770,234.8665 C 1435.2200,234.1535 1433.7788,232.2815 1433.4701,231.0645 C 1433.2182,230.0775 1434.2287,229.4295 1433.5099,228.3565 C 1432.9835,227.5705 1432.4679,226.4695 1431.8288,226.3705 C 1432.6168,225.6925 1434.6841,222.6415 1436.1812,223.2025 C 1435.5002,222.7645 1434.9599,221.9815 1435.5668,221.2585 C 1436.8153,222.4825 1440.2450,221.7225 1441.8416,221.0425 C 1441.4616,220.7765 1440.0934,219.0755 1441.9512,220.1785 C 1441.6738,219.9365 1441.3933,219.6975 1441.1099,219.4585 C 1442.1402,220.4015 1443.1939,217.7955 1445.3351,218.5945 C 1445.0874,217.0965 1448.2372,216.6255 1449.5647,216.3625 C 1449.5100,216.0975 1449.4500,215.8335 1449.3858,215.5705 C 1450.6529,215.5325 1451.3253,215.0035 1452.1537,214.2995 C 1453.4964,213.1605 1455.3754,212.7115 1456.8126,211.6825 C 1457.7501,211.0135 1458.2494,210.1225 1459.3418,209.4735 C 1461.0145,208.4785 1462.7204,209.1935 1464.3288,209.4515 C 1464.1282,209.2205 1463.9475,208.9795 1463.7837,208.7305 C 1464.3188,208.5975 1464.7949,208.3805 1465.2142,208.0825 C 1464.7704,207.6115 1463.3029,207.2605 1463.5530,206.7855 C 1463.9673,206.0125 1464.6693,205.0655 1463.8392,204.4565 C 1462.5570,203.5165 1458.3263,203.7105 1458.2787,202.1065 C 1456.7576,202.7705 1455.5511,202.1755 1454.7780,201.3005 C 1453.8519,200.2545 1452.8973,199.6875 1451.7979,198.7795 C 1450.0246,197.3205 1455.2315,195.1285 1452.6317,193.3015 C 1452.1633,192.9725 1450.5227,192.0185 1450.9720,191.4605 C 1451.2686,191.0925 1452.9383,190.1045 1451.9107,189.7995 C 1450.5059,189.3845 1449.8745,189.8175 1449.9770,188.3155 C 1450.0088,187.8495 1450.1331,187.3635 1450.0948,186.9025 C 1450.0577,186.4405 1451.3313,186.5155 1451.3156,186.2655 C 1451.2611,185.3455 1448.6380,184.8815 1447.8185,184.5065 C 1447.0235,184.1435 1447.0563,183.4015 1446.0177,183.0915 C 1444.9741,182.7805 1443.7837,182.7625 1442.6739,182.5945 C 1440.7069,182.2975 1438.6552,181.5735 1436.8211,181.0185 C 1434.0242,180.1695 1431.2811,178.2455 1428.1719,177.9815"
       id="path4682" />
    <path
       d="M 1440.5413,244.8695 C 1440.2426,244.6835 1439.8905,244.6115 1439.4865,244.6525 C 1440.0952,244.4465 1440.9936,244.3015 1441.4619,244.7245 C 1441.1549,244.7735 1440.8481,244.8215 1440.5413,244.8695"
       id="path4688" />
    <path
       d="M 1441.7132,244.0765 C 1441.8234,243.9175 1441.9875,243.8465 1442.2032,243.8615 C 1442.0390,243.9335 1441.8760,244.0055 1441.7132,244.0765"
       id="path4690" />
  </g>
  
  
  
  
  
  
  
  
  
  
  
  
  
  
  
  
  
  
  
  
  
  
  
  
  
  
  
  
  
  
  
  
  
  
  
  
  
  
  
  
  
  
  
  
  
  
  
  
  
  
  
  
  
  
  
  
  
  
  
  
  
  
  
  
  
  
  
  
  
  
  
  
  
  
  
  
  
  
  
  
  
  
  
  
  
  
  
  
  
  
  
  
  
  
  
  
  
  
  
  
  
  
  
  
  
  
  
  
  
  
  
  
  
  
  
  
  
  
  
  
  
  
  
  
  
  
  
  
  
  
  
  
  
  
  
  
  
  
  
  
  
  
  
  
  
  
  
  
  
  
  
  
  
  
  
  
  
  
  
  
</svg>
