<?xml version="1.0" encoding="UTF-8" standalone="no"?>
<svg
   xmlns:dc="http://purl.org/dc/elements/1.1/"
   xmlns:cc="http://web.resource.org/cc/"
   xmlns:rdf="http://www.w3.org/1999/02/22-rdf-syntax-ns#"
   xmlns:svg="http://www.w3.org/2000/svg"
   xmlns="http://www.w3.org/2000/svg"
   xmlns:sodipodi="http://sodipodi.sourceforge.net/DTD/sodipodi-0.dtd"
   xmlns:inkscape="http://www.inkscape.org/namespaces/inkscape"
   viewBox="0 0 2752.766 1537.631"
   version="1.0"
   height="476.7276"
   width="939.74725"
   id="svg1926"
   sodipodi:version="0.32"
   inkscape:version="0.45.1"
   sodipodi:docname="BlankMap-World6.svg"
   sodipodi:docbase="/home/bennett/Desktop"
   inkscape:output_extension="org.inkscape.output.svg.inkscape">
  <sodipodi:namedview
     inkscape:window-height="590"
     inkscape:window-width="822"
     inkscape:pageshadow="2"
     inkscape:pageopacity="0.0"
     guidetolerance="10.0"
     gridtolerance="10.0"
     objecttolerance="10.0"
     borderopacity="1.0"
     bordercolor="#666666"
     pagecolor="#ffffff"
     id="base"
     inkscape:zoom="0.77893284"
     inkscape:cx="469.87363"
     inkscape:cy="238.3638"
     inkscape:window-x="178"
     inkscape:window-y="46"
     inkscape:current-layer="svg1926" />
  <metadata
     id="metadata24111">
    <rdf:RDF>
      <cc:Work
         rdf:about="">
        <dc:format>image/svg+xml</dc:format>
        <dc:type
           rdf:resource="http://purl.org/dc/dcmitype/StillImage" />
        <cc:license
           rdf:resource="http://web.resource.org/cc/PublicDomain" />
        <dc:title>Blank World Map</dc:title>
      </cc:Work>
      <cc:License
         rdf:about="http://web.resource.org/cc/PublicDomain">
        <cc:permits
           rdf:resource="http://web.resource.org/cc/Reproduction" />
        <cc:permits
           rdf:resource="http://web.resource.org/cc/Distribution" />
        <cc:permits
           rdf:resource="http://web.resource.org/cc/DerivativeWorks" />
      </cc:License>
    </rdf:RDF>
  </metadata>
  <defs
     id="defs1930" />
  <style
     type="text/css"
     id="style_css_sheet">
/*
 * Below are Cascading Style Sheet (CSS) definitions in use in this file,
 * which allow easily changing how countries are displayed.
 *
 */

/*
 * Circles around small countries
 *
 * Change opacity to 1 to display all circles.
 *
 */
.circle
{
   opacity:0;
   fill:#b9b9b9;
   fill-opacity:1;
   stroke:black;
   stroke-width:0.99986893;
   stroke-miterlimit:3.97446823;
   stroke-dasharray:none;
   stroke-opacity:1;
}

/*
 * Land
 */
.land
{
   fill: #b9b9b9;
   fill-opacity: 1;
   stroke: #ffffff;
   stroke-opacity: 1;
   stroke-width: 0.99986997;
   stroke-miterlimit: 3.97446823;
   stroke-dasharray: none;
}

/*
 * Additional style rules
 *
 * The following are examples of colouring countries.  You can substitute these with your own styles to colour the countries on the map.
 *
 * Color a few countries:
 *
 * .gb, .au, .nc
 * {
 *    fill:       #ff0000;
 * }
 *
 * Color a few small country circles (and the countries):
 *
 * .ms, .ky
 * {
 *    opacity:    1;
 *    fill:       #ff0000;
 * }
 *
 */

/*
 * Antarctica
 */

.aq
{
   fill:#e6e6e6;
}

/*
 * Sea
 */

.ocean
{
   opacity: 1;
   color: #000000;
   fill:white;
   fill-opacity:1;
   fill-rule:nonzero;
   stroke:#000000;
   stroke-width:0.5;
   stroke-linecap:butt;
   stroke-linejoin:miter;
   marker:none;
   marker-start:none;
   marker-mid:none;
   marker-end:none;
   stroke-miterlimit:1;
   stroke-dasharray:none;
   stroke-dashoffset:0;
   stroke-opacity:1;
   visibility:visible;
   display:inline;
   overflow:visible;
}

.lake
{
   fill:#ffffff;
   fill-opacity:1;
   stroke:#ffffff;
   stroke-opacity:1;
   stroke-width:0.99986997;
   stroke-miterlimit:3.97446823;
   stroke-dasharray:none;
}
</style>
  
  
  
  
  
  
  
  
  
  
  
  
  
  
  
  
  
  
  
  
  
  
  
  
  
  
  
  
  
  
  
  
  
  
  
  
  
  
  
  
  
  
  
  
  
  
  
  
  
  
  
  
  
  
  
  
  
  
  
  
  
  
  
  
  
  
  
  
  
  
  
  
  
  
  
  
  
  
  
  
  
  
  
  
  
  
  
  
  
  
  
  
  
  
  
  
  
  
  
  
  
  
  
  
  
  
  
  
  
  
  
  
  
  
  
  
  
  
  
  
  
  
  
  
  
  
  
  
  
  
  
  
  
  
  
  
  
  
  
  
  
  
  
  
  
  
  
  
  
  
  
  
  
  
  
  
  
  
  
  
  
  
  
  
  
  <g
     id="fk">
    <g
       class="land fk"
       id="fk-">
      <path
         d="M 804.6093,1206.8595 C 805.1836,1206.7215 805.4777,1206.4655 805.4891,1206.0925 C 805.1479,1205.1505 803.8202,1207.0865 804.7264,1205.3485 C 802.8743,1205.5735 804.0347,1206.6015 804.6093,1206.8595"
         id="path4876" />
      <path
         d="M 812.0594,1202.1785 C 812.0886,1202.3715 812.1163,1202.5655 812.1456,1202.7585 C 809.9773,1203.3795 809.1265,1201.8495 807.2064,1201.9685 C 807.7775,1202.6215 808.6328,1202.3255 808.8864,1203.1995 C 809.0845,1203.8815 810.8451,1204.3865 811.5807,1204.6285 C 810.3275,1204.2765 808.9349,1204.5845 807.4323,1204.9185 C 807.8337,1206.1425 810.0690,1204.1605 810.7162,1205.2785 C 810.0879,1205.1325 809.6526,1205.4045 809.5391,1205.9985 C 809.4561,1205.7335 809.3451,1205.4705 809.2303,1205.2085 C 808.8566,1205.9315 807.1069,1207.2925 809.2239,1206.4285 C 808.1232,1207.5105 805.5747,1207.3805 804.3528,1207.6485 C 804.6921,1207.8275 807.6830,1209.2015 806.0035,1208.0085 C 806.5507,1207.9465 807.2580,1209.4665 807.8943,1208.9115 C 808.8980,1208.0345 810.3874,1208.4075 810.4161,1207.0085 C 812.4132,1207.6685 814.4004,1205.4285 816.0458,1204.1095 C 816.6076,1203.6585 817.3295,1203.1075 817.6267,1202.5365 C 817.9621,1201.8925 816.5217,1201.1575 816.2212,1202.6195 C 815.3634,1202.2195 813.3364,1201.7005 812.0594,1202.1785"
         id="path4878" />
      <path
         d="M 809.8820,1201.9685 C 810.2515,1202.1835 810.7197,1202.2065 811.2813,1202.0385 C 811.3618,1201.4375 810.9146,1201.1635 810.1343,1201.3885 C 810.3572,1201.5845 810.5822,1201.7785 810.8126,1201.9685 C 810.5020,1201.9685 810.1926,1201.9685 809.8820,1201.9685"
         id="path4880" />
      <path
         d="M 812.0130,1201.3195 C 812.1831,1201.5225 812.4481,1201.6195 812.8060,1201.6095 C 812.5421,1201.5125 812.2772,1201.4155 812.0130,1201.3195"
         id="path4882" />
      <path
         d="M 813.6178,1200.8885 C 813.8347,1201.5055 815.3096,1201.4425 816.0965,1201.1785 C 815.3307,1200.9755 814.3976,1201.0665 813.6178,1200.8885"
         id="path4884" />
      <path
         d="M 813.9262,1209.2385 C 814.7714,1208.7825 814.1675,1208.4555 813.6463,1208.5175 C 813.7403,1208.7585 813.8338,1208.9985 813.9262,1209.2385"
         id="path4886" />
      <path
         d="M 814.2991,1208.0885 C 815.2055,1208.5665 815.4431,1209.7345 816.9064,1209.6685 C 816.4937,1209.3445 816.4609,1208.8055 817.0898,1208.2285 C 817.7992,1208.5105 818.3889,1208.9325 819.2784,1209.0185 C 819.7919,1208.0855 818.9060,1207.6275 818.2526,1207.2985 C 819.3287,1207.2025 819.6753,1207.7835 820.6002,1207.7855 C 821.2329,1207.7875 821.7948,1207.4265 822.3934,1207.5785 C 822.8802,1206.5945 820.8011,1206.3755 820.5293,1205.7085 C 821.4107,1206.3225 822.7271,1206.4315 824.1571,1206.2995 C 825.0601,1206.2165 826.7168,1205.3395 825.5533,1205.1385 C 826.7527,1205.3095 828.1969,1205.0615 829.5454,1204.6285 C 829.1760,1204.7005 826.7270,1203.6025 826.4865,1203.3385 C 827.5320,1202.9375 828.2128,1203.4455 829.1985,1203.2585 C 828.6217,1202.7265 825.7135,1200.7865 824.6759,1203.0485 C 825.3576,1203.1215 825.8800,1203.4455 826.1532,1203.9085 C 825.1479,1203.9355 822.7715,1202.2495 824.8396,1202.4685 C 824.5323,1201.0895 821.8985,1201.1925 820.3028,1201.3195 C 820.5485,1201.9265 819.9091,1202.4815 819.0948,1202.7585 C 819.7311,1202.8005 820.0036,1203.1085 819.6133,1203.6985 C 819.3569,1203.5625 819.1129,1203.4165 818.8811,1203.2585 C 818.8101,1204.0735 820.1383,1204.2025 819.6754,1205.1385 C 818.9234,1203.6855 814.9214,1206.5665 815.2966,1207.7985 C 814.9640,1207.8955 814.6318,1207.9915 814.2991,1208.0885"
         id="path4888" />
      <path
         d="M 823.5583,1207.2985 C 823.6884,1207.5015 823.8930,1207.6455 824.1731,1207.7285 C 823.9684,1207.5845 823.7628,1207.4425 823.5583,1207.2985"
         id="path4890" />
      <path
         d="M 994.3415,1231.3385 C 994.6240,1231.1945 994.9069,1231.0525 995.1893,1230.9085 C 994.9680,1230.6935 994.7164,1230.5035 994.4356,1230.3385 C 994.9058,1230.7705 995.6885,1230.6895 996.3907,1230.1885 C 996.0164,1229.8225 994.2716,1228.6395 994.6124,1228.1515 C 994.9793,1227.6265 992.6004,1226.2625 992.0457,1226.2285 C 992.7088,1227.7705 990.6246,1225.9465 989.8434,1226.1595 C 991.6167,1225.0685 988.3894,1224.9795 987.5472,1224.6745 C 986.5302,1224.3065 984.9262,1224.5745 983.7551,1224.2595 C 982.6332,1223.9585 980.8947,1223.8215 979.5362,1224.1395 C 981.1538,1225.0575 983.1896,1225.2815 985.3348,1225.3695 C 983.1657,1225.4165 985.0066,1226.2535 985.7400,1226.2575 C 986.9842,1226.2655 987.8624,1226.7535 988.6510,1227.3365 C 989.4738,1227.9435 990.3645,1228.2845 991.3170,1228.7535 C 992.5746,1229.3705 993.2692,1230.5525 994.3415,1231.3385"
         id="path4892" />
      <path
         d="M 925.4682,1278.1385 C 925.1629,1276.1335 921.5445,1276.2355 919.0600,1276.3385 C 919.0207,1277.6865 924.3892,1277.3585 925.4682,1278.1385"
         id="path4902" />
      <path
         d="M 928.7469,1278.2885 C 929.4514,1278.0955 930.1548,1277.9015 930.8586,1277.7085 C 929.8903,1277.7725 928.9052,1277.8715 927.9763,1277.8485 C 928.2330,1277.9945 928.4900,1278.1425 928.7469,1278.2885"
         id="path4904" />
    </g>
    <path
       class="circle fk"
       d="M 812.3561,1211.1691 C 821.4164,1211.1691 827.0657,1199.1431 818.1028,1199.1431 C 809.1334,1199.1431 803.2892,1211.1691 812.3561,1211.1691"
       id="fk." />
  </g>
  
  
  
  
  
  
  
  
  
  
  
  
  
  
  
  
  
  
  
  
  
  
  
  
  
  
  
  
  
  
  
  
  
  
  
  
  
  
  
  
  
  
  
  
  
  
  
  
  
  
  
  
  
  
  
  
  
  
  
  
  
  
  
  
  
  
</svg>
