<?xml version="1.0" encoding="UTF-8" standalone="no"?>
<svg
   xmlns:dc="http://purl.org/dc/elements/1.1/"
   xmlns:cc="http://web.resource.org/cc/"
   xmlns:rdf="http://www.w3.org/1999/02/22-rdf-syntax-ns#"
   xmlns:svg="http://www.w3.org/2000/svg"
   xmlns="http://www.w3.org/2000/svg"
   xmlns:sodipodi="http://sodipodi.sourceforge.net/DTD/sodipodi-0.dtd"
   xmlns:inkscape="http://www.inkscape.org/namespaces/inkscape"
   viewBox="0 0 2752.766 1537.631"
   version="1.0"
   height="476.7276"
   width="939.74725"
   id="svg1926"
   sodipodi:version="0.32"
   inkscape:version="0.45.1"
   sodipodi:docname="BlankMap-World6.svg"
   sodipodi:docbase="/home/bennett/Desktop"
   inkscape:output_extension="org.inkscape.output.svg.inkscape">
  <sodipodi:namedview
     inkscape:window-height="590"
     inkscape:window-width="822"
     inkscape:pageshadow="2"
     inkscape:pageopacity="0.0"
     guidetolerance="10.0"
     gridtolerance="10.0"
     objecttolerance="10.0"
     borderopacity="1.0"
     bordercolor="#666666"
     pagecolor="#ffffff"
     id="base"
     inkscape:zoom="0.77893284"
     inkscape:cx="469.87363"
     inkscape:cy="238.3638"
     inkscape:window-x="178"
     inkscape:window-y="46"
     inkscape:current-layer="svg1926" />
  <metadata
     id="metadata24111">
    <rdf:RDF>
      <cc:Work
         rdf:about="">
        <dc:format>image/svg+xml</dc:format>
        <dc:type
           rdf:resource="http://purl.org/dc/dcmitype/StillImage" />
        <cc:license
           rdf:resource="http://web.resource.org/cc/PublicDomain" />
        <dc:title>Blank World Map</dc:title>
      </cc:Work>
      <cc:License
         rdf:about="http://web.resource.org/cc/PublicDomain">
        <cc:permits
           rdf:resource="http://web.resource.org/cc/Reproduction" />
        <cc:permits
           rdf:resource="http://web.resource.org/cc/Distribution" />
        <cc:permits
           rdf:resource="http://web.resource.org/cc/DerivativeWorks" />
      </cc:License>
    </rdf:RDF>
  </metadata>
  <defs
     id="defs1930" />
  <style
     type="text/css"
     id="style_css_sheet">
/*
 * Below are Cascading Style Sheet (CSS) definitions in use in this file,
 * which allow easily changing how countries are displayed.
 *
 */

/*
 * Circles around small countries
 *
 * Change opacity to 1 to display all circles.
 *
 */
.circle
{
   opacity:0;
   fill:#b9b9b9;
   fill-opacity:1;
   stroke:black;
   stroke-width:0.99986893;
   stroke-miterlimit:3.97446823;
   stroke-dasharray:none;
   stroke-opacity:1;
}

/*
 * Land
 */
.land
{
   fill: #b9b9b9;
   fill-opacity: 1;
   stroke: #ffffff;
   stroke-opacity: 1;
   stroke-width: 0.99986997;
   stroke-miterlimit: 3.97446823;
   stroke-dasharray: none;
}

/*
 * Additional style rules
 *
 * The following are examples of colouring countries.  You can substitute these with your own styles to colour the countries on the map.
 *
 * Color a few countries:
 *
 * .gb, .au, .nc
 * {
 *    fill:       #ff0000;
 * }
 *
 * Color a few small country circles (and the countries):
 *
 * .ms, .ky
 * {
 *    opacity:    1;
 *    fill:       #ff0000;
 * }
 *
 */

/*
 * Antarctica
 */

.aq
{
   fill:#e6e6e6;
}

/*
 * Sea
 */

.ocean
{
   opacity: 1;
   color: #000000;
   fill:white;
   fill-opacity:1;
   fill-rule:nonzero;
   stroke:#000000;
   stroke-width:0.5;
   stroke-linecap:butt;
   stroke-linejoin:miter;
   marker:none;
   marker-start:none;
   marker-mid:none;
   marker-end:none;
   stroke-miterlimit:1;
   stroke-dasharray:none;
   stroke-dashoffset:0;
   stroke-opacity:1;
   visibility:visible;
   display:inline;
   overflow:visible;
}

.lake
{
   fill:#ffffff;
   fill-opacity:1;
   stroke:#ffffff;
   stroke-opacity:1;
   stroke-width:0.99986997;
   stroke-miterlimit:3.97446823;
   stroke-dasharray:none;
}
</style>
  
  
  
  
  <g
     class="land fr"
     id="fr">
    <path
       d="M 1246.8471,351.4295 C 1246.4566,351.0935 1246.0255,350.8045 1245.5541,350.5655 C 1245.7067,351.1315 1246.1678,351.5265 1246.8471,351.4295"
       id="path2166" />
    <path
       d="M 1254.0979,354.6695 C 1253.8420,354.2105 1253.8339,354.0415 1253.1600,354.1655 C 1253.4720,354.3335 1253.7850,354.5015 1254.0979,354.6695"
       id="path2168" />
    <path
       d="M 1260.6755,361.0055 C 1260.3435,360.4335 1259.4812,360.5575 1258.9551,360.6455 C 1259.5487,360.6635 1260.1230,360.7835 1260.6755,361.0055"
       id="path2172" />
    <path
       d="M 1261.1764,363.9575 C 1261.6806,363.2525 1260.9907,362.0465 1259.9629,362.5175 C 1260.4945,362.9155 1260.8997,363.3955 1261.1764,363.9575"
       id="path2174" />
    <path
       d="M 1234.2998,345.0935 C 1235.2769,344.6715 1236.4714,344.4075 1237.6120,344.5895 C 1237.8716,343.0755 1235.6703,344.1165 1235.0981,343.0775 C 1236.1261,342.7705 1237.3659,342.8835 1238.4586,342.9325 C 1237.5926,342.8035 1236.4581,343.0705 1236.9873,342.1405 C 1236.3254,342.1095 1234.1833,343.2195 1233.8244,342.2485 C 1233.3349,340.9235 1235.5663,340.1235 1236.6473,339.9335 C 1238.1011,339.6775 1239.4839,339.5735 1240.9840,339.6095 C 1243.1079,339.6605 1244.3172,337.8595 1246.6886,338.1085 C 1246.4752,338.7735 1249.4790,341.0955 1250.2450,340.8165 C 1250.7574,340.5905 1251.2481,340.3325 1251.7161,340.0445 C 1252.7474,339.5235 1252.7271,340.1965 1253.6326,340.3465 C 1254.5274,340.4945 1255.1588,339.8845 1255.3084,341.1335 C 1255.8607,340.7865 1254.9809,340.3715 1255.4147,339.8065 C 1255.8584,339.2295 1256.1687,340.1055 1256.6018,340.2035 C 1257.6303,340.4355 1258.9087,340.1995 1259.9129,340.0535 C 1257.7191,339.5005 1258.3221,336.8345 1258.3992,335.4455 C 1258.4363,334.7695 1257.2131,334.0915 1256.7801,333.6195 C 1256.0332,332.8065 1256.5764,331.5705 1255.5392,330.9085 C 1256.3002,331.0225 1257.0094,331.3425 1257.7658,331.4775 C 1258.5931,331.6255 1259.5522,330.9285 1260.2912,331.2425 C 1261.4423,331.7305 1260.1535,333.1965 1261.7519,333.9665 C 1262.2127,334.1885 1262.9855,333.7935 1263.4445,333.7895 C 1264.7870,333.7785 1266.1047,334.1745 1267.4237,334.3905 C 1268.7120,334.6015 1269.8194,334.5695 1270.9269,334.0005 C 1271.9318,333.4855 1273.3190,333.5045 1274.2194,332.9255 C 1273.4926,333.1815 1272.2393,333.3115 1271.4947,332.9515 C 1269.9841,332.2205 1273.2547,330.4225 1273.8034,330.2035 C 1275.5478,329.5095 1277.5732,329.5925 1279.3506,328.9625 C 1280.3832,328.5975 1281.6745,326.5095 1283.0144,327.0935 C 1281.8344,326.4545 1282.3040,322.0295 1283.2164,321.2005 C 1284.1157,320.3865 1288.8411,318.9145 1290.1162,319.8095 C 1290.7651,320.2655 1289.6153,322.0198 1291.4695,322.4109 C 1293.3788,322.8139 1292.9219,322.4462 1294.2750,322.7942 C 1295.5360,323.1192 1295.1797,323.9499 1296.1615,324.3539 C 1297.4414,324.8809 1298.6887,324.2555 1298.5975,325.9395 C 1299.3300,325.5205 1300.6328,325.6175 1301.4378,325.8545 C 1302.9489,326.2985 1302.3760,327.8935 1302.1099,328.8195 C 1303.1122,328.9645 1304.2522,329.2335 1305.2327,328.8895 C 1306.2034,328.5485 1306.3961,327.5755 1307.3729,327.2355 C 1307.4755,327.7715 1307.2946,330.1685 1308.1314,330.1945 C 1309.3658,330.2325 1311.8886,331.6455 1312.3007,332.6725 C 1312.1820,332.3765 1316.9880,333.0505 1317.2343,333.0685 C 1318.4000,333.1555 1319.2636,332.9465 1320.2045,333.7835 C 1320.9441,334.4435 1321.4764,335.4805 1322.5832,335.7315 C 1322.8174,335.6335 1323.0037,335.4875 1323.1421,335.2935 C 1323.4913,334.9725 1323.6784,335.3985 1324.0565,335.4435 C 1324.2687,335.5135 1324.3272,335.6395 1324.2320,335.8205 C 1324.1740,336.2125 1325.2221,335.9985 1325.3965,336.0115 C 1326.5704,336.1045 1327.2339,335.4735 1328.3307,336.1945 C 1329.4964,336.9625 1331.8834,337.1045 1333.3296,337.3155 C 1331.5754,338.6805 1329.9629,340.1785 1329.4204,342.2065 C 1329.1574,343.1925 1328.5020,344.0985 1328.3405,345.0925 C 1328.2342,345.7425 1328.4895,346.0065 1328.2054,346.8415 C 1327.8642,347.8505 1328.7484,348.6915 1327.9877,349.3175 C 1327.3475,349.8455 1326.8548,350.3545 1325.8792,350.2775 C 1325.0611,350.2135 1324.9731,349.1465 1323.9977,349.6295 C 1323.2936,349.9785 1323.2469,351.0925 1324.4294,350.9255 C 1323.5538,351.7515 1322.7865,352.7325 1321.7852,353.4455 C 1321.1704,353.8035 1320.5698,354.1795 1319.9835,354.5735 C 1319.5024,354.9635 1319.5651,355.7275 1319.1626,356.1815 C 1318.4761,356.9555 1317.1235,357.3195 1316.9335,358.4135 C 1317.0993,358.7865 1317.2158,359.1705 1317.2852,359.5645 C 1317.1331,360.2735 1316.3977,360.5265 1316.1060,361.1485 C 1317.4379,360.9995 1317.9192,360.5935 1318.2494,359.4575 C 1318.5760,358.3395 1320.8974,358.4255 1321.8398,358.6605 C 1322.9706,358.9435 1322.2363,360.5875 1323.0689,361.3885 C 1324.5122,362.7805 1323.6479,363.3025 1322.3882,364.2455 C 1323.0794,365.1025 1325.6582,366.6905 1324.9747,367.9465 C 1324.5168,368.7895 1321.0245,369.9465 1321.0362,370.0905 C 1321.1177,371.0845 1323.2707,371.9315 1324.0175,372.4985 C 1325.0939,373.3185 1322.5698,374.7795 1322.9555,375.8635 C 1323.4221,377.1795 1326.2384,378.6715 1327.7090,378.1385 C 1329.5579,377.4695 1329.2916,378.4425 1328.6036,379.5555 C 1326.9499,382.2365 1323.7493,383.5885 1320.9086,385.3415 C 1321.0941,385.5855 1321.2861,385.8255 1321.4845,386.0615 C 1320.4166,386.2005 1319.5300,386.6985 1318.5334,387.0165 C 1317.4617,387.3595 1316.7621,386.8195 1315.7457,386.8925 C 1314.2035,387.0025 1313.2301,385.8365 1311.3854,385.9895 C 1312.0864,384.2585 1308.9482,385.5855 1308.8873,384.5795 C 1309.0806,384.2675 1309.3949,384.1855 1309.8299,384.3335 C 1309.7826,383.7665 1309.3985,383.4465 1308.7683,383.4695 C 1309.3157,384.2035 1308.8628,384.3115 1308.1337,384.3445 C 1306.9375,384.3985 1306.8064,384.3345 1306.4440,383.0375 C 1306.9458,385.6205 1306.1717,383.9735 1304.3233,383.9735 C 1303.2548,383.9735 1302.3628,383.3635 1301.3179,383.3175 C 1300.0368,383.2605 1298.6767,384.5665 1297.5566,385.0365 C 1296.6846,385.4035 1293.6064,386.4475 1293.8405,387.5365 C 1293.8322,387.8935 1293.7271,388.2255 1293.5218,388.5325 C 1293.0411,388.9325 1293.0958,389.2885 1293.6864,389.6005 C 1294.1660,390.8525 1293.9025,391.4795 1294.7461,392.6865 C 1293.9974,392.8835 1293.3266,392.5375 1292.5801,392.5785 C 1291.8051,392.6215 1291.4317,393.1835 1290.7454,393.3555 C 1289.0890,393.7705 1288.0095,392.1955 1286.4485,393.2565 C 1286.3393,393.3305 1284.0732,392.3845 1283.8266,392.2215 C 1283.1863,391.7985 1284.6136,391.8525 1283.5849,391.2435 C 1282.9889,390.8905 1281.9351,390.7355 1281.4667,391.3175 C 1281.1824,390.0285 1279.6339,390.5675 1278.7521,389.9555 C 1277.5347,389.1105 1275.0956,388.5685 1275.5659,390.5985 C 1274.2394,390.4255 1272.7368,390.1235 1271.4180,390.3455 C 1270.6850,390.4685 1270.2011,390.6585 1269.5440,390.1425 C 1268.3767,389.2285 1268.4810,389.6045 1267.3418,389.5905 C 1266.2126,389.5765 1260.5721,386.3305 1260.0884,387.6465 C 1259.0340,387.2605 1259.7274,386.5805 1259.7544,385.9255 C 1259.7866,385.1465 1257.3043,385.5015 1256.7461,384.9105 C 1259.8464,383.8515 1259.8851,379.8875 1260.3150,377.3095 C 1260.4848,376.2975 1260.5994,374.7025 1261.4946,373.9805 C 1262.7991,372.9285 1260.9610,372.7805 1260.8992,373.9665 C 1260.5711,371.5305 1260.9316,368.5455 1261.9668,366.3345 C 1263.1338,366.9035 1264.3007,367.5785 1264.8536,368.7105 C 1264.9936,369.2145 1265.1313,369.7185 1265.2690,370.2225 C 1265.5688,370.8635 1266.2893,370.9515 1266.3146,371.7345 C 1266.5828,370.7275 1265.3956,369.9525 1265.2342,368.9985 C 1264.9847,367.5325 1264.3482,366.5395 1262.8488,365.8265 C 1262.2199,365.5285 1261.5132,365.1215 1260.9768,364.6845 C 1260.1030,363.9725 1262.2884,364.3275 1262.7497,364.6795 C 1261.7043,364.2385 1261.4076,360.3855 1261.9536,359.6395 C 1260.6643,360.4745 1257.4004,358.8315 1256.7048,357.7245 C 1256.0888,356.7455 1254.8109,356.2365 1254.4845,355.0935 C 1254.1847,354.0505 1256.2678,352.9085 1253.5428,352.8005 C 1253.8378,352.4675 1253.8547,351.8625 1254.2487,351.6085 C 1255.2362,350.9705 1256.2679,352.0435 1257.2499,352.1525 C 1255.4470,351.1435 1254.7846,351.4785 1252.9961,351.6865 C 1252.0953,351.7915 1250.2424,350.6065 1251.9037,350.4245 C 1251.4046,350.0175 1251.5736,349.7535 1252.4100,349.6325 C 1251.1017,349.3505 1249.3453,350.2745 1248.2212,349.2725 C 1248.7967,349.2655 1249.3316,349.1455 1249.8260,348.9125 C 1248.7530,348.3085 1246.8821,348.5535 1246.7083,349.7765 C 1246.6065,348.9765 1245.5396,348.2285 1246.4492,347.5455 C 1246.1238,348.4215 1244.3365,348.3645 1245.3583,347.2575 C 1243.2377,348.9875 1239.8674,345.0485 1237.7538,347.1855 C 1236.7375,346.0685 1235.9092,345.3825 1234.2998,345.0935"
       id="path2182" />
    <path
       d="M 1336.1762,393.1175 C 1336.6274,392.7025 1336.7119,391.8605 1337.3165,391.5835 C 1338.5241,391.0335 1339.8919,390.8915 1341.0365,390.1985 C 1342.0590,389.5795 1341.3294,387.8345 1342.7254,387.9325 C 1342.8992,390.1285 1344.0677,393.2935 1343.4988,395.4205 C 1342.9023,397.6645 1341.6986,399.8095 1340.6445,401.8995 C 1340.2296,401.3065 1336.3600,400.0175 1338.4210,399.2355 C 1337.8629,399.1165 1337.3359,398.9245 1336.8402,398.6605 C 1337.3826,398.3485 1337.7619,397.8275 1337.6968,397.2205 C 1336.5963,397.4575 1336.4295,396.3335 1337.0623,395.7815 C 1336.1190,395.5655 1335.5177,394.4395 1336.8101,394.1975 C 1336.5398,393.8655 1336.3284,393.5065 1336.1762,393.1175"
       id="path2184" />
  </g>
  
  
  
  
  
  
  
  
  
  
  
  
  
  
  
  
  
  
  
  
  
  
  
  
  
  
  
  
  
  
  
  
  
  
  
  
  
  
  
  
  
  
  
  
  
  
  
  
  
  
  
  
  
  
  
  
  
  
  
  
  
  
  
  
  
  
  
  
  
  
  
  
  
  
  
  
  
  
  
  
  
  
  
  
  
  
  
  
  
  
  
  
  
  
  
  
  
  
  
  
  
  
  
  
  
  
  
  
  
  
  
  
  
  
  
  
  
  
  
  
  
  
  
  
  
  
  
  
  
  
  
  
  
  
  
  
  
  
  
  
  
  
  
  
  
  
  
  
  
  
  
  
  
  
  
  
  
  
  
  
  
  
  
  
  
  
  
  
  
  
  
  
  
  
  
  
  
  
  
  
  
  
  
  
  
  
  
  
  
  
  
  
  
  
  
  
  
  
  
  
  
  
  
  
  
  
  
  
  
  
  
  
  
  
  
  
  
  
  
  
  
  
  
  
  
  
  
</svg>
