<?xml version="1.0" encoding="UTF-8" standalone="no"?>
<svg
   xmlns:dc="http://purl.org/dc/elements/1.1/"
   xmlns:cc="http://web.resource.org/cc/"
   xmlns:rdf="http://www.w3.org/1999/02/22-rdf-syntax-ns#"
   xmlns:svg="http://www.w3.org/2000/svg"
   xmlns="http://www.w3.org/2000/svg"
   xmlns:sodipodi="http://sodipodi.sourceforge.net/DTD/sodipodi-0.dtd"
   xmlns:inkscape="http://www.inkscape.org/namespaces/inkscape"
   viewBox="0 0 2752.766 1537.631"
   version="1.0"
   height="476.7276"
   width="939.74725"
   id="svg1926"
   sodipodi:version="0.32"
   inkscape:version="0.45.1"
   sodipodi:docname="BlankMap-World6.svg"
   sodipodi:docbase="/home/bennett/Desktop"
   inkscape:output_extension="org.inkscape.output.svg.inkscape">
  <sodipodi:namedview
     inkscape:window-height="590"
     inkscape:window-width="822"
     inkscape:pageshadow="2"
     inkscape:pageopacity="0.0"
     guidetolerance="10.0"
     gridtolerance="10.0"
     objecttolerance="10.0"
     borderopacity="1.0"
     bordercolor="#666666"
     pagecolor="#ffffff"
     id="base"
     inkscape:zoom="0.77893284"
     inkscape:cx="469.87363"
     inkscape:cy="238.3638"
     inkscape:window-x="178"
     inkscape:window-y="46"
     inkscape:current-layer="svg1926" />
  <metadata
     id="metadata24111">
    <rdf:RDF>
      <cc:Work
         rdf:about="">
        <dc:format>image/svg+xml</dc:format>
        <dc:type
           rdf:resource="http://purl.org/dc/dcmitype/StillImage" />
        <cc:license
           rdf:resource="http://web.resource.org/cc/PublicDomain" />
        <dc:title>Blank World Map</dc:title>
      </cc:Work>
      <cc:License
         rdf:about="http://web.resource.org/cc/PublicDomain">
        <cc:permits
           rdf:resource="http://web.resource.org/cc/Reproduction" />
        <cc:permits
           rdf:resource="http://web.resource.org/cc/Distribution" />
        <cc:permits
           rdf:resource="http://web.resource.org/cc/DerivativeWorks" />
      </cc:License>
    </rdf:RDF>
  </metadata>
  <defs
     id="defs1930" />
  <style
     type="text/css"
     id="style_css_sheet">
/*
 * Below are Cascading Style Sheet (CSS) definitions in use in this file,
 * which allow easily changing how countries are displayed.
 *
 */

/*
 * Circles around small countries
 *
 * Change opacity to 1 to display all circles.
 *
 */
.circle
{
   opacity:0;
   fill:#b9b9b9;
   fill-opacity:1;
   stroke:black;
   stroke-width:0.99986893;
   stroke-miterlimit:3.97446823;
   stroke-dasharray:none;
   stroke-opacity:1;
}

/*
 * Land
 */
.land
{
   fill: #b9b9b9;
   fill-opacity: 1;
   stroke: #ffffff;
   stroke-opacity: 1;
   stroke-width: 0.99986997;
   stroke-miterlimit: 3.97446823;
   stroke-dasharray: none;
}

/*
 * Additional style rules
 *
 * The following are examples of colouring countries.  You can substitute these with your own styles to colour the countries on the map.
 *
 * Color a few countries:
 *
 * .gb, .au, .nc
 * {
 *    fill:       #ff0000;
 * }
 *
 * Color a few small country circles (and the countries):
 *
 * .ms, .ky
 * {
 *    opacity:    1;
 *    fill:       #ff0000;
 * }
 *
 */

/*
 * Antarctica
 */

.aq
{
   fill:#e6e6e6;
}

/*
 * Sea
 */

.ocean
{
   opacity: 1;
   color: #000000;
   fill:white;
   fill-opacity:1;
   fill-rule:nonzero;
   stroke:#000000;
   stroke-width:0.5;
   stroke-linecap:butt;
   stroke-linejoin:miter;
   marker:none;
   marker-start:none;
   marker-mid:none;
   marker-end:none;
   stroke-miterlimit:1;
   stroke-dasharray:none;
   stroke-dashoffset:0;
   stroke-opacity:1;
   visibility:visible;
   display:inline;
   overflow:visible;
}

.lake
{
   fill:#ffffff;
   fill-opacity:1;
   stroke:#ffffff;
   stroke-opacity:1;
   stroke-width:0.99986997;
   stroke-miterlimit:3.97446823;
   stroke-dasharray:none;
}
</style>
  
  
  
  
  
  
  
  
  
  
  
  
  
  
  
  
  
  
  
  
  
  
  
  
  
  
  
  
  
  
  
  
  
  
  
  
  
  
  
  
  
  
  
  
  
  
  
  
  
  
  
  
  
  
  
  
  
  
  
  
  
  
  
  
  
  
  
  
  
  
  
  
  
  
  
  
  
  
  
  
  
  
  
  
  
  
  
  
  
  
  
  
  
  
  
  
  
  
  
  
  
  
  
  
  
  
  
  
  
  
  
  
  
  
  
  
  
  
  
  
  <g
     class="land ga"
     id="ga">
    <path
       d="M 1339.0361,765.6485 C 1339.1331,765.8385 1339.2291,766.0285 1339.3261,766.2185 C 1339.6041,765.7325 1339.5311,765.3025 1339.1061,764.9285 C 1339.0821,765.1685 1339.0591,765.4085 1339.0361,765.6485"
       id="path5980" />
    <path
       d="M 1338.0261,767.2285 C 1337.5581,766.5945 1337.1990,765.7745 1337.5960,764.9995 C 1337.6200,765.5855 1337.8371,766.0885 1338.2461,766.5095 C 1338.4060,764.8765 1339.3791,766.2255 1339.3261,767.1595 C 1339.4871,765.1645 1341.5171,764.0295 1341.7391,762.0795 C 1341.8921,760.7315 1341.0290,758.1105 1342.2070,757.0795 C 1342.2580,757.7365 1342.7451,758.2095 1343.0671,758.7395 C 1343.2881,757.6575 1344.8762,758.2585 1345.3672,759.1695 C 1345.2382,758.2485 1346.2283,757.9095 1346.9573,757.9395 C 1345.1342,757.9395 1343.7321,757.5615 1342.6910,755.9505 C 1342.2770,755.3085 1340.9329,754.4925 1342.4170,754.1965 C 1343.0480,754.0705 1343.9021,754.3905 1343.9261,755.1405 C 1344.4621,753.9455 1343.5610,752.3555 1343.9040,751.0805 C 1344.0931,750.3815 1344.7211,750.4965 1345.2411,750.7785 C 1346.1742,751.2855 1347.2813,750.8895 1348.3064,750.8895 C 1349.6294,750.8895 1356.7598,751.6675 1357.2338,750.4035 C 1357.9347,748.5335 1356.9585,745.4155 1356.9064,743.4585 C 1356.8352,740.6955 1357.2378,739.3845 1360.1321,739.6295 C 1361.6573,739.7585 1363.1484,739.8315 1364.6807,739.7465 C 1366.1519,739.6645 1367.5596,740.2685 1368.9838,740.1405 C 1371.2443,739.9365 1373.0119,739.6465 1371.4624,742.4415 C 1370.2456,744.6395 1372.0769,746.9465 1371.2862,749.0155 C 1373.0102,748.7205 1374.5641,747.8005 1376.2721,747.4315 C 1378.8371,746.8775 1379.1674,748.3145 1380.0058,750.2995 C 1380.8512,752.2995 1381.3326,753.9135 1378.6726,754.6585 C 1377.0185,755.1215 1376.9120,757.8985 1377.0692,759.2225 C 1377.1444,759.8515 1375.6175,761.7695 1377.1117,761.7235 C 1377.5287,761.7105 1378.9240,762.4735 1378.8621,762.9785 C 1378.7942,763.5405 1380.3704,763.6245 1380.8836,764.0415 C 1382.4260,765.2935 1380.1581,767.2345 1380.7345,768.7165 C 1381.1398,769.7595 1381.9885,772.8745 1380.4434,773.4205 C 1381.5307,774.1465 1380.7719,776.0345 1379.7678,776.4445 C 1379.4878,776.5585 1378.9271,779.0515 1379.0082,779.1475 C 1379.6334,779.8825 1378.1784,781.4505 1377.3522,781.3655 C 1376.4780,781.2755 1376.0854,778.3855 1375.6922,777.6695 C 1375.4253,778.5985 1374.2033,780.4495 1373.1331,780.5785 C 1372.0549,780.7085 1370.9205,779.4405 1369.8613,780.0495 C 1371.2143,777.7115 1365.3256,773.0185 1365.7501,777.3095 C 1366.0075,779.9105 1365.3443,779.8045 1362.9888,780.3795 C 1362.1827,780.5755 1362.3306,779.4995 1361.5845,779.8255 C 1360.5213,780.2905 1360.0401,779.9385 1358.9789,779.6885 C 1359.3711,781.1145 1359.6393,782.6525 1358.6991,783.9385 C 1359.6123,783.6855 1359.9255,784.6655 1360.4016,785.1925 C 1361.0058,785.8605 1359.6875,786.1885 1359.9547,786.9935 C 1360.1367,787.5395 1361.0290,787.6815 1361.4021,788.0685 C 1362.1864,788.8815 1361.1472,789.3985 1361.2273,790.2075 C 1361.2925,790.8665 1362.0293,791.4935 1360.8530,791.5575 C 1359.6106,791.6245 1359.4998,790.3755 1358.5255,789.9845 C 1357.1801,789.4355 1355.8070,792.9525 1355.5993,793.5795 C 1353.9379,792.2785 1352.4978,789.5695 1351.3504,787.8195 C 1349.6639,785.2475 1347.1203,783.1875 1344.9333,781.0585 C 1346.1479,780.3085 1346.5500,783.0845 1347.6744,781.6985 C 1346.8652,781.7755 1345.7037,780.7715 1344.8243,780.5545 C 1343.4118,780.2055 1342.3863,776.9505 1341.4835,775.7995 C 1342.3936,775.8825 1342.7224,776.8805 1343.5735,777.0995 C 1342.8017,775.8495 1342.6566,776.1455 1341.5507,775.4985 C 1341.0487,775.2055 1341.2010,774.3155 1341.0792,773.8735 C 1340.7803,772.7885 1340.0023,771.9335 1339.4642,770.9695 C 1340.1612,771.5495 1341.5503,772.8185 1341.3342,773.8595 C 1342.0533,773.6115 1342.8083,773.4495 1343.5743,773.5005 C 1343.1583,773.1835 1342.8223,772.7965 1342.5643,772.3405 C 1342.4023,772.9125 1341.9763,773.2075 1341.4043,772.9205 C 1341.4993,772.1665 1342.0983,771.4825 1341.7742,770.6905 C 1340.6431,773.9815 1338.5671,767.6305 1338.0261,767.2285"
       id="path6014" />
  </g>
  
  
  
  
  
  
  
  
  
  
  
  
  
  
  
  
  
  
  
  
  
  
  
  
  
  
  
  
  
  
  
  
  
  
  
  
  
  
  
  
  
  
  
  
  
  
  
  
  
  
  
  
  
  
  
  
  
  
  
  
  
  
  
  
  
  
  
  
  
  
  
  
  
  
  
  
  
  
  
  
  
  
  
  
  
  
  
  
  
  
  
  
  
  
  
  
  
  
  
  
  
  
  
  
  
  
  
  
  
  
  
</svg>
