<?xml version="1.0" encoding="UTF-8" standalone="no"?>
<svg
   xmlns:dc="http://purl.org/dc/elements/1.1/"
   xmlns:cc="http://web.resource.org/cc/"
   xmlns:rdf="http://www.w3.org/1999/02/22-rdf-syntax-ns#"
   xmlns:svg="http://www.w3.org/2000/svg"
   xmlns="http://www.w3.org/2000/svg"
   xmlns:sodipodi="http://sodipodi.sourceforge.net/DTD/sodipodi-0.dtd"
   xmlns:inkscape="http://www.inkscape.org/namespaces/inkscape"
   viewBox="0 0 2752.766 1537.631"
   version="1.0"
   height="476.7276"
   width="939.74725"
   id="svg1926"
   sodipodi:version="0.32"
   inkscape:version="0.45.1"
   sodipodi:docname="BlankMap-World6.svg"
   sodipodi:docbase="/home/bennett/Desktop"
   inkscape:output_extension="org.inkscape.output.svg.inkscape">
  <sodipodi:namedview
     inkscape:window-height="590"
     inkscape:window-width="822"
     inkscape:pageshadow="2"
     inkscape:pageopacity="0.0"
     guidetolerance="10.0"
     gridtolerance="10.0"
     objecttolerance="10.0"
     borderopacity="1.0"
     bordercolor="#666666"
     pagecolor="#ffffff"
     id="base"
     inkscape:zoom="0.77893284"
     inkscape:cx="469.87363"
     inkscape:cy="238.3638"
     inkscape:window-x="178"
     inkscape:window-y="46"
     inkscape:current-layer="svg1926" />
  <metadata
     id="metadata24111">
    <rdf:RDF>
      <cc:Work
         rdf:about="">
        <dc:format>image/svg+xml</dc:format>
        <dc:type
           rdf:resource="http://purl.org/dc/dcmitype/StillImage" />
        <cc:license
           rdf:resource="http://web.resource.org/cc/PublicDomain" />
        <dc:title>Blank World Map</dc:title>
      </cc:Work>
      <cc:License
         rdf:about="http://web.resource.org/cc/PublicDomain">
        <cc:permits
           rdf:resource="http://web.resource.org/cc/Reproduction" />
        <cc:permits
           rdf:resource="http://web.resource.org/cc/Distribution" />
        <cc:permits
           rdf:resource="http://web.resource.org/cc/DerivativeWorks" />
      </cc:License>
    </rdf:RDF>
  </metadata>
  <defs
     id="defs1930" />
  <style
     type="text/css"
     id="style_css_sheet">
/*
 * Below are Cascading Style Sheet (CSS) definitions in use in this file,
 * which allow easily changing how countries are displayed.
 *
 */

/*
 * Circles around small countries
 *
 * Change opacity to 1 to display all circles.
 *
 */
.circle
{
   opacity:0;
   fill:#b9b9b9;
   fill-opacity:1;
   stroke:black;
   stroke-width:0.99986893;
   stroke-miterlimit:3.97446823;
   stroke-dasharray:none;
   stroke-opacity:1;
}

/*
 * Land
 */
.land
{
   fill: #b9b9b9;
   fill-opacity: 1;
   stroke: #ffffff;
   stroke-opacity: 1;
   stroke-width: 0.99986997;
   stroke-miterlimit: 3.97446823;
   stroke-dasharray: none;
}

/*
 * Additional style rules
 *
 * The following are examples of colouring countries.  You can substitute these with your own styles to colour the countries on the map.
 *
 * Color a few countries:
 *
 * .gb, .au, .nc
 * {
 *    fill:       #ff0000;
 * }
 *
 * Color a few small country circles (and the countries):
 *
 * .ms, .ky
 * {
 *    opacity:    1;
 *    fill:       #ff0000;
 * }
 *
 */

/*
 * Antarctica
 */

.aq
{
   fill:#e6e6e6;
}

/*
 * Sea
 */

.ocean
{
   opacity: 1;
   color: #000000;
   fill:white;
   fill-opacity:1;
   fill-rule:nonzero;
   stroke:#000000;
   stroke-width:0.5;
   stroke-linecap:butt;
   stroke-linejoin:miter;
   marker:none;
   marker-start:none;
   marker-mid:none;
   marker-end:none;
   stroke-miterlimit:1;
   stroke-dasharray:none;
   stroke-dashoffset:0;
   stroke-opacity:1;
   visibility:visible;
   display:inline;
   overflow:visible;
}

.lake
{
   fill:#ffffff;
   fill-opacity:1;
   stroke:#ffffff;
   stroke-opacity:1;
   stroke-width:0.99986997;
   stroke-miterlimit:3.97446823;
   stroke-dasharray:none;
}
</style>
  
  
  
  
  
  
  
  
  
  
  
  
  
  
  
  
  
  
  
  
  
  
  
  
  
  
  
  
  
  
  
  
  
  
  
  
  
  
  
  
  
  
  
  
  
  
  
  
  
  
  
  
  
  
  
  
  
  
  
  
  
  
  
  
  
  
  
  
  
  
  
  
  
  
  
  
  
  
  
  
  
  
  
  
  
  
  
  
  
  
  <path
     class="land ge"
     d="M 1576.2644,384.6936 C 1576.6441,381.2776 1585.0670,384.4875 1586.7037,385.0446 C 1588.6460,385.7045 1590.2886,386.5455 1592.6522,386.2165 C 1593.7698,386.0616 1594.6871,385.7185 1595.5954,386.3625 C 1596.4043,386.9366 1597.6247,386.3286 1598.5446,386.6526 C 1599.2486,386.9006 1599.5955,387.6375 1600.2016,388.0095 C 1600.9350,388.4595 1601.8542,388.6406 1602.7114,388.8856 C 1603.4319,389.0906 1604.2105,389.3155 1604.7710,389.7545 C 1605.5362,390.3555 1604.3730,390.7966 1605.2445,391.1386 C 1607.4526,392.0036 1611.8036,388.2915 1612.8221,391.1735 C 1613.0866,390.1476 1613.8922,390.1196 1614.7027,390.4176 C 1615.1567,390.4336 1615.5771,390.5256 1615.9638,390.6936 C 1616.3151,391.0315 1616.5308,391.7206 1617.0481,391.8936 C 1617.8866,392.1735 1619.8371,391.3635 1620.0676,392.5586 C 1620.2344,393.4285 1618.9826,394.2545 1619.7972,395.0106 C 1621.0513,396.1766 1622.8991,395.9835 1624.4056,396.6336 C 1626.8274,397.6785 1622.8073,398.4015 1623.7917,399.7996 C 1624.3920,400.6535 1627.6239,402.0106 1627.3964,403.1205 C 1626.9020,405.6386 1623.8049,403.0716 1622.9442,403.3446 C 1620.6418,404.0765 1619.6309,401.6545 1617.6426,401.2856 C 1616.8446,401.1375 1616.1494,401.4665 1615.4529,401.9296 C 1614.7985,402.3666 1613.1389,402.8646 1613.3653,403.1995 C 1612.0123,403.2846 1610.7091,403.0396 1609.3550,403.1175 C 1607.9403,403.1995 1606.6711,403.7776 1605.2184,403.7726 C 1603.8124,403.7686 1603.0883,403.9946 1602.0448,403.5686 C 1601.6074,403.3906 1599.8020,403.2676 1600.6517,402.4776 C 1599.4769,402.1085 1598.9104,400.4285 1597.4148,400.6775 C 1598.3568,399.2516 1595.8825,400.0086 1595.3698,400.8555 C 1595.0092,401.4506 1591.7498,400.8256 1590.9643,400.6775 C 1590.2131,400.7706 1590.4759,401.4946 1589.5571,401.2285 C 1588.5942,400.9495 1587.5622,400.8836 1588.2532,399.8485 C 1589.2896,398.2955 1590.0788,397.3145 1589.1153,395.7396 C 1588.1949,394.2405 1588.3561,392.2966 1587.4640,390.7815 C 1586.7237,389.5265 1584.9750,389.6596 1584.1626,388.4645 C 1583.4016,387.3456 1581.4439,387.1886 1580.0963,387.0086 C 1578.2242,386.7575 1578.0461,384.9275 1576.2644,384.6936"
     id="ge" />
  
  
  
  
  
  
  
  
  
  
  
  
  
  
  
  
  
  
  
  
  
  
  
  
  
  
  
  
  
  
  
  
  
  
  
  
  
  
  
  
  
  
  
  
  
  
  
  
  
  
  
  
  
  
  
  
  
  
  
  
  
  
  
  
  
  
  
  
  
  
  
  
  
  
  
  
  
  
  
  
  
  
  
  
  
  
  
  
  
  
  
  
  
  
  
  
  
  
  
  
  
  
  
  
  
  
  
  
  
  
  
  
  
  
  
  
  
  
  
  
  
  
  
  
  
  
  
  
  
  
  
  
  
  
  
  
  
  
  
  
  
</svg>
