<?xml version="1.0" encoding="UTF-8" standalone="no"?>
<svg
   xmlns:dc="http://purl.org/dc/elements/1.1/"
   xmlns:cc="http://web.resource.org/cc/"
   xmlns:rdf="http://www.w3.org/1999/02/22-rdf-syntax-ns#"
   xmlns:svg="http://www.w3.org/2000/svg"
   xmlns="http://www.w3.org/2000/svg"
   xmlns:sodipodi="http://sodipodi.sourceforge.net/DTD/sodipodi-0.dtd"
   xmlns:inkscape="http://www.inkscape.org/namespaces/inkscape"
   viewBox="0 0 2752.766 1537.631"
   version="1.0"
   height="476.7276"
   width="939.74725"
   id="svg1926"
   sodipodi:version="0.32"
   inkscape:version="0.45.1"
   sodipodi:docname="BlankMap-World6.svg"
   sodipodi:docbase="/home/bennett/Desktop"
   inkscape:output_extension="org.inkscape.output.svg.inkscape">
  <sodipodi:namedview
     inkscape:window-height="590"
     inkscape:window-width="822"
     inkscape:pageshadow="2"
     inkscape:pageopacity="0.0"
     guidetolerance="10.0"
     gridtolerance="10.0"
     objecttolerance="10.0"
     borderopacity="1.0"
     bordercolor="#666666"
     pagecolor="#ffffff"
     id="base"
     inkscape:zoom="0.77893284"
     inkscape:cx="469.87363"
     inkscape:cy="238.3638"
     inkscape:window-x="178"
     inkscape:window-y="46"
     inkscape:current-layer="svg1926" />
  <metadata
     id="metadata24111">
    <rdf:RDF>
      <cc:Work
         rdf:about="">
        <dc:format>image/svg+xml</dc:format>
        <dc:type
           rdf:resource="http://purl.org/dc/dcmitype/StillImage" />
        <cc:license
           rdf:resource="http://web.resource.org/cc/PublicDomain" />
        <dc:title>Blank World Map</dc:title>
      </cc:Work>
      <cc:License
         rdf:about="http://web.resource.org/cc/PublicDomain">
        <cc:permits
           rdf:resource="http://web.resource.org/cc/Reproduction" />
        <cc:permits
           rdf:resource="http://web.resource.org/cc/Distribution" />
        <cc:permits
           rdf:resource="http://web.resource.org/cc/DerivativeWorks" />
      </cc:License>
    </rdf:RDF>
  </metadata>
  <defs
     id="defs1930" />
  <style
     type="text/css"
     id="style_css_sheet">
/*
 * Below are Cascading Style Sheet (CSS) definitions in use in this file,
 * which allow easily changing how countries are displayed.
 *
 */

/*
 * Circles around small countries
 *
 * Change opacity to 1 to display all circles.
 *
 */
.circle
{
   opacity:0;
   fill:#b9b9b9;
   fill-opacity:1;
   stroke:black;
   stroke-width:0.99986893;
   stroke-miterlimit:3.97446823;
   stroke-dasharray:none;
   stroke-opacity:1;
}

/*
 * Land
 */
.land
{
   fill: #b9b9b9;
   fill-opacity: 1;
   stroke: #ffffff;
   stroke-opacity: 1;
   stroke-width: 0.99986997;
   stroke-miterlimit: 3.97446823;
   stroke-dasharray: none;
}

/*
 * Additional style rules
 *
 * The following are examples of colouring countries.  You can substitute these with your own styles to colour the countries on the map.
 *
 * Color a few countries:
 *
 * .gb, .au, .nc
 * {
 *    fill:       #ff0000;
 * }
 *
 * Color a few small country circles (and the countries):
 *
 * .ms, .ky
 * {
 *    opacity:    1;
 *    fill:       #ff0000;
 * }
 *
 */

/*
 * Antarctica
 */

.aq
{
   fill:#e6e6e6;
}

/*
 * Sea
 */

.ocean
{
   opacity: 1;
   color: #000000;
   fill:white;
   fill-opacity:1;
   fill-rule:nonzero;
   stroke:#000000;
   stroke-width:0.5;
   stroke-linecap:butt;
   stroke-linejoin:miter;
   marker:none;
   marker-start:none;
   marker-mid:none;
   marker-end:none;
   stroke-miterlimit:1;
   stroke-dasharray:none;
   stroke-dashoffset:0;
   stroke-opacity:1;
   visibility:visible;
   display:inline;
   overflow:visible;
}

.lake
{
   fill:#ffffff;
   fill-opacity:1;
   stroke:#ffffff;
   stroke-opacity:1;
   stroke-width:0.99986997;
   stroke-miterlimit:3.97446823;
   stroke-dasharray:none;
}
</style>
  
  
  
  
  
  
  
  
  
  
  
  
  
  
  
  
  
  
  
  
  
  
  
  
  
  
  
  
  
  
  
  
  
  
  
  
  
  
  
  
  
  
  
  
  
  
  
  
  
  
  
  
  
  
  
  
  <g
     class="land gl"
     id="gl">
    <path
       d="M 852.4829,170.9975 C 853.4313,171.1376 854.3979,171.3526 855.3854,171.6446 C 853.5488,171.4335 850.3996,170.7665 851.5237,172.5815 C 852.3605,172.5825 853.3776,172.8946 854.2454,173.3735 C 852.7017,173.0175 850.4381,172.3896 850.1536,173.3735 C 853.0595,174.5695 855.8563,174.3696 858.1828,174.3096 C 856.1134,175.0335 859.0699,174.6096 859.4458,174.5256 C 857.5010,175.4596 861.4491,174.0236 862.1962,174.0935 C 861.2951,174.1105 859.6790,174.8025 861.9834,175.1016 C 859.8588,175.1016 857.6444,174.9995 855.6636,175.1736 C 857.5659,177.7235 865.6872,175.8236 867.0741,175.6655 C 868.6535,175.4855 874.7650,174.8745 873.2989,173.0256 C 872.3473,171.8265 869.3343,171.7466 868.0315,171.4975 C 865.2658,170.9706 862.8554,169.3896 860.0321,169.2166 C 857.3887,169.0546 854.6449,168.4925 852.7366,169.1295 C 852.0132,169.3716 849.6752,170.3216 852.4829,170.9975"
       id="path4242" />
    <path
       d="M 849.9086,167.5416 C 849.7160,167.7845 849.9875,168.0486 850.7253,168.3336 C 850.9806,168.1866 851.1458,167.9946 851.2209,167.7576 C 850.7831,167.6856 850.3452,167.6136 849.9086,167.5416"
       id="path4252" />
    <path
       d="M 843.5675,157.5335 C 844.9328,158.4195 845.9490,157.9625 845.6723,157.2446 C 844.9340,157.3085 844.2340,157.4046 843.5675,157.5335"
       id="path4262" />
    <path
       d="M 860.4128,161.7096 C 858.9724,161.7475 857.7176,162.2895 857.5877,163.1486 C 859.5764,163.6336 863.8831,163.6556 860.4128,161.7096"
       id="path4322" />
    <path
       d="M 863.2355,160.1256 C 864.5601,159.9795 865.7594,159.6415 866.5824,159.1175 C 865.2651,159.2856 862.9873,158.7916 861.9299,159.1486 C 861.0276,159.4526 862.2405,160.1585 863.2355,160.1256"
       id="path4330" />
    <path
       d="M 863.7343,161.4215 C 863.2560,163.0585 868.8201,162.2326 869.0811,161.3495 C 867.3383,161.4385 865.1192,160.9565 863.7343,161.4215"
       id="path4332" />
    <path
       d="M 865.8500,160.1976 C 865.0201,160.1295 864.4077,160.2485 864.0137,160.5565 C 864.6617,160.4666 865.2730,160.3466 865.8500,160.1976"
       id="path4336" />
    <path
       d="M 872.7604,164.0136 C 871.8660,163.9275 871.6968,164.2226 872.3025,164.8056 C 873.5053,164.9066 874.7565,164.9786 875.4711,164.5896 C 874.5675,164.3975 873.6635,164.2055 872.7604,164.0136"
       id="path4342" />
    <path
       d="M 876.2202,166.3176 C 875.4183,165.7115 874.2449,165.6765 873.6608,165.8135 C 874.5334,166.0335 875.3855,166.2015 876.2202,166.3176"
       id="path4344" />
    <path
       d="M 875.1621,167.1096 C 875.5849,167.2485 875.9819,167.3205 876.3533,167.3255 C 875.9555,167.2526 875.5578,167.1815 875.1621,167.1096"
       id="path4346" />
    <path
       d="M 878.4918,167.4695 C 877.5101,167.0745 876.6704,166.9546 875.9751,167.1096 C 876.8344,167.2696 877.6737,167.3896 878.4918,167.4695"
       id="path4348" />
    <g
       id="g27049">
      <path
         d="M 862.0832,194.9735 C 862.8370,194.9955 863.4124,194.8525 863.8052,194.5415 C 863.1336,194.5965 862.5593,194.7395 862.0832,194.9735"
         id="path4228" />
      <path
         d="M 865.9043,193.8215 C 864.1980,193.8345 862.8677,194.2865 861.3872,194.5425 C 862.1118,193.6695 864.2279,193.7815 865.9043,193.8215"
         id="path4528" />
      <path
         d="M 861.5647,185.1095 C 862.5503,185.7705 862.8404,185.6735 862.4395,184.8215 C 862.1475,184.9165 861.8557,185.0135 861.5647,185.1095"
         id="path4248" />
      <path
         d="M 865.3011,182.0135 C 864.7643,182.2015 864.3464,182.4655 864.0487,182.8055 C 865.1427,183.1365 866.7319,182.9895 865.3011,182.0135"
         id="path4260" />
      <path
         d="M 865.7969,181.5095 C 865.5298,181.6075 865.2951,181.7275 865.0927,181.8695 C 865.3273,181.7495 865.5621,181.6295 865.7969,181.5095"
         id="path4268" />
      <path
         d="M 866.1475,180.5725 C 865.8110,180.6175 865.5066,180.6895 865.2337,180.7895 C 865.5394,180.7175 865.8438,180.6455 866.1475,180.5725"
         id="path4272" />
      <path
         d="M 867.2570,180.3575 C 866.9858,180.4215 866.6830,180.4765 866.4513,180.5735 C 866.7195,180.5005 866.9879,180.4295 867.2570,180.3575"
         id="path4282" />
      <path
         d="M 870.6207,184.3175 C 871.6117,184.6285 874.1141,183.9845 872.0556,184.8215 C 873.6513,184.7305 875.6964,184.5965 876.4195,183.7415 C 874.5953,184.0585 872.6005,184.1845 870.6207,184.3175"
         id="path4294" />
      <path
         d="M 873.2299,184.9655 C 874.2847,185.6305 877.6812,185.0235 878.0801,184.6055 C 876.2515,184.3195 874.6321,184.6905 873.2299,184.9655"
         id="path4304" />
      <path
         d="M 855.5402,174.3815 C 855.9673,174.5845 856.3192,174.6095 856.5939,174.4535 C 856.2427,174.4295 855.8901,174.4055 855.5402,174.3815"
         id="path4256" />
      <path
         d="M 871.4276,180.5015 C 868.7285,180.2155 866.7375,180.7635 864.5686,181.0765 C 866.7806,181.5105 870.5167,181.4115 871.4276,180.5015"
         id="path4270" />
      <path
         d="M 880.3688,171.5725 C 879.5330,171.4945 878.8730,171.5905 878.3872,171.8615 C 881.1763,171.7455 875.7976,173.0135 878.7358,174.2785 C 880.1867,174.9045 880.5486,174.3375 880.5549,173.7285 C 880.5663,172.7885 882.0730,172.9065 882.7654,172.3655 C 881.9785,171.9905 881.1802,171.7265 880.3688,171.5725"
         id="path4338" />
      <path
         d="M 844.7049,151.3415 C 843.1337,151.1815 841.5967,151.4975 841.0654,152.1335 C 842.4016,152.0865 844.3399,152.0865 844.7049,151.3415"
         id="path4274" />
      <path
         d="M 843.2471,152.9255 C 843.5497,152.8055 843.8524,152.6855 844.1538,152.5655 C 843.2695,152.5065 842.5663,152.6025 842.0450,152.8535 C 842.4452,152.8775 842.8455,152.9015 843.2471,152.9255"
         id="path4276" />
      <path
         d="M 838.6779,145.0055 C 837.6708,145.1045 836.2747,144.9375 835.9106,145.5095 C 837.2396,145.3775 838.7430,145.4085 839.7282,145.0055 C 839.3781,145.0055 839.0280,145.0055 838.6779,145.0055"
         id="path4278" />
      <path
         d="M 849.4697,154.0765 C 847.7397,154.0895 845.7255,154.4185 844.9814,155.1565 C 847.4973,156.2535 848.8867,154.7625 849.4697,154.0765"
         id="path4280" />
      <path
         d="M 843.9629,153.1415 C 844.4098,153.2965 844.7326,153.2725 844.9318,153.0695 C 844.6088,153.0935 844.2850,153.1165 843.9629,153.1415"
         id="path4284" />
      <path
         d="M 837.7941,146.0855 C 838.2453,146.1585 838.6339,146.1585 838.9587,146.0855 C 838.5700,146.0855 838.1828,146.0855 837.7941,146.0855"
         id="path4286" />
      <path
         d="M 837.0915,144.2135 C 836.8338,144.1995 836.2246,144.0635 835.9226,144.2135 C 836.3112,144.2135 836.7147,144.2245 837.0915,144.2135"
         id="path4288" />
      <path
         d="M 831.7926,139.3175 C 831.5025,139.4135 831.2139,139.5095 830.9240,139.6055 C 832.8890,139.3635 836.5716,140.1685 837.4846,139.1735 C 835.3000,138.9585 833.7889,139.3575 831.7926,139.3175"
         id="path4290" />
      <path
         d="M 848.1849,150.8375 C 847.2433,151.2405 845.0122,152.1005 843.6572,152.1335 C 846.0974,152.0525 848.5770,152.5105 849.5495,151.1975 C 849.0948,151.0775 848.6385,150.9575 848.1849,150.8375"
         id="path4292" />
      <path
         d="M 843.4501,148.0295 C 842.0880,147.9835 841.6658,148.6705 841.1680,149.1805 C 842.2630,149.0465 842.9506,148.5365 843.4501,148.0295"
         id="path4296" />
      <path
         d="M 839.1986,146.0135 C 839.6541,145.7455 840.1908,145.5305 840.8080,145.3665 C 839.9799,145.3935 839.4440,145.6095 839.1986,146.0135"
         id="path4298" />
      <path
         d="M 839.8765,144.3575 C 840.6191,144.2575 841.2166,144.0655 841.6704,143.7825 C 840.1437,143.6955 837.4817,143.1235 837.5396,144.1415 C 838.1506,144.0185 838.9299,144.0905 839.8765,144.3575"
         id="path4300" />
      <path
         d="M 842.5690,146.9495 C 842.1481,147.1305 841.7862,147.3455 841.4881,147.5965 C 842.5270,147.8205 842.8451,147.5035 842.5690,146.9495"
         id="path4302" />
      <path
         d="M 839.3114,144.4295 C 839.8549,144.6235 840.2963,144.6715 840.6346,144.5735 C 840.1932,144.5255 839.7516,144.4775 839.3114,144.4295"
         id="path4306" />
      <path
         d="M 849.3618,152.7095 C 848.5213,152.6045 847.8404,152.6515 847.3210,152.8535 C 848.2484,153.0415 848.9279,152.9935 849.3618,152.7095"
         id="path4308" />
      <path
         d="M 845.4257,150.5495 C 845.7788,151.1495 846.1678,151.1965 846.5963,150.6935 C 846.2061,150.6455 845.8160,150.5975 845.4257,150.5495"
         id="path4310" />
      <path
         d="M 834.6984,138.6695 C 834.4128,138.7655 834.1260,138.8615 833.8407,138.9575 C 835.1424,139.2805 835.4286,139.1855 834.6984,138.6695"
         id="path4312" />
      <path
         d="M 847.4248,150.3335 C 847.5976,150.1415 847.7706,149.9495 847.9438,149.7575 C 846.6071,149.4795 845.3016,149.3405 844.8356,149.9015 C 845.7056,150.0585 846.5677,150.2025 847.4248,150.3335"
         id="path4314" />
      <path
         d="M 842.7865,145.7975 C 842.4369,145.7975 842.0874,145.7975 841.7378,145.7975 C 843.1624,146.0785 844.6294,146.5475 846.0635,146.8775 C 844.9972,146.3495 843.8833,146.1415 842.7865,145.7975"
         id="path4316" />
      <path
         d="M 842.6350,146.4465 C 843.2969,146.6595 843.2160,146.7705 843.6825,146.4465 C 843.3333,146.4465 842.9827,146.4465 842.6350,146.4465"
         id="path4318" />
      <path
         d="M 849.6820,151.9175 C 848.8077,151.9065 848.2779,152.1225 848.0951,152.5645 C 848.9651,152.5735 849.4954,152.3585 849.6820,151.9175"
         id="path4320" />
      <path
         d="M 845.6701,147.5975 C 846.3280,147.4275 846.8753,147.1875 847.3151,146.8775 C 846.6560,147.0475 846.1071,147.2875 845.6701,147.5975"
         id="path4324" />
      <path
         d="M 761.1464,119.7335 C 762.0055,119.8025 762.6786,119.7545 763.1666,119.5895 C 762.4864,119.5575 759.7513,120.0965 762.5918,119.8055 C 762.1086,119.7805 761.6282,119.7575 761.1464,119.7335"
         id="path4216" />
      <path
         d="M 717.6662,119.9495 C 716.7670,119.9145 716.3597,120.1065 716.4468,120.5245 C 719.5101,120.7325 722.3127,120.8415 724.3209,120.3805 C 722.4298,120.4695 719.8428,120.0645 717.6662,119.9495"
         id="path4204" />
      <path
         d="M 734.7525,126.8625 C 735.0127,126.7655 735.2774,126.6705 735.5379,126.5735 C 734.7762,126.4375 734.1253,126.3895 733.5839,126.4295 C 733.9716,126.5735 734.3622,126.7175 734.7525,126.8625"
         id="path4208" />
      <path
         d="M 725.3370,119.9495 C 727.7495,121.2735 733.0170,120.4035 734.0978,120.2365 C 731.4033,120.3005 727.7002,119.6635 725.3370,119.9495"
         id="path4210" />
      <path
         d="M 734.6315,125.7815 C 736.1689,125.9765 737.4835,125.9745 738.4670,125.7815 C 736.7359,125.3605 735.1129,125.3335 734.6315,125.7815"
         id="path4212" />
      <path
         d="M 758.5568,119.0855 C 759.3510,119.0545 760.0346,118.9585 760.6079,118.7975 C 759.8130,118.8285 759.1292,118.9245 758.5568,119.0855"
         id="path4214" />
      <path
         d="M 761.1464,119.7335 C 761.6839,119.5995 762.3574,119.5515 763.1666,119.5895 C 762.6786,119.7545 762.0055,119.8025 761.1464,119.7335"
         id="path4522" />
      <path
         d="M 761.1464,119.7335 C 761.6282,119.7575 762.1100,119.7815 762.5918,119.8055 C 762.2011,119.8545 761.7194,119.8305 761.1464,119.7335"
         id="path4524" />
      <path
         d="M 758.5250,100.4375 C 759.6995,100.6495 760.6056,100.6985 761.2426,100.5825 C 759.8035,100.2085 758.8980,100.1605 758.5250,100.4375"
         id="path4226" />
      <path
         d="M 878.0669,93.1655 C 874.4988,92.0335 872.7346,92.9625 869.3124,92.0075 C 865.9260,91.0665 862.4886,91.0585 862.1562,92.0855 C 867.9088,93.8845 874.6473,93.4415 878.0669,93.1655"
         id="path4380" />
      <path
         d="M 870.8445,91.9415 C 871.9642,92.0715 872.7374,91.9995 873.1641,91.7255 C 871.9111,91.5185 871.1383,91.5905 870.8445,91.9415"
         id="path4384" />
      <path
         d="M 887.1821,89.0615 C 888.1893,89.1445 889.0760,89.1445 889.8465,89.0615 C 888.8367,88.9765 887.9478,88.9765 887.1821,89.0615"
         id="path4388" />
      <path
         d="M 900.5864,90.9335 C 901.2079,90.9115 901.4987,90.7435 901.4611,90.4295 C 899.8722,90.2535 898.2157,90.1035 897.3472,90.4295 C 898.3204,90.4685 899.3998,90.6365 900.5864,90.9335"
         id="path4396" />
      <path
         d="M 900.7736,89.0615 C 902.6471,89.0615 905.1188,89.3335 906.0956,88.7735 C 903.9726,88.5675 901.0678,88.1645 900.7736,89.0615"
         id="path4398" />
      <path
         d="M 908.8341,90.4295 C 911.6008,91.5675 914.9011,91.6385 917.0111,91.7345 C 920.2875,91.8835 924.8732,92.8945 927.6104,92.6605 C 926.8860,92.4515 926.1617,92.2355 925.4372,92.0135 C 926.4169,91.5665 927.9821,91.4065 929.6541,91.3665 C 921.4844,88.5815 910.8080,89.4125 905.6606,89.7825 C 906.7463,90.0475 907.8056,90.2635 908.8341,90.4295"
         id="path4400" />
      <path
         d="M 912.2898,88.7735 C 913.2637,88.7735 914.2358,88.7735 915.2097,88.7735 C 913.3039,88.7695 910.8738,88.2995 909.0192,88.3415 C 910.1089,88.4845 911.1977,88.6275 912.2898,88.7735"
         id="path4402" />
      <path
         d="M 952.1679,86.9015 C 953.4700,86.9015 954.7703,86.9015 956.0724,86.9015 C 954.6005,86.7375 953.1265,86.6525 952.1679,86.9015"
         id="path4406" />
      <path
         d="M 965.2616,88.0535 C 960.9140,87.0125 956.4300,86.9545 953.2485,87.1895 C 957.3211,87.5385 961.5503,88.0535 965.2616,88.0535"
         id="path4408" />
      <path
         d="M 967.2558,87.9815 C 968.2707,88.0015 968.9656,87.8335 969.3401,87.4775 C 966.4006,87.2765 962.7168,86.7455 960.7459,87.3335 C 963.0098,87.7075 965.3151,87.9715 967.2558,87.9815"
         id="path4410" />
      <path
         d="M 972.4261,87.4045 C 973.2047,87.4065 973.9516,87.3825 974.6664,87.3335 C 970.9903,86.7225 961.7230,85.6315 960.3472,86.6855 C 964.1320,86.6855 968.4739,87.2355 972.4261,87.4045"
         id="path4412" />
      <path
         d="M 967.6297,86.2535 C 969.2529,86.4765 971.1252,86.7055 971.3783,86.0375 C 969.8568,85.9085 968.5692,85.9885 967.6297,86.2535"
         id="path4416" />
      <path
         d="M 1110.3171,95.1815 C 1111.8763,95.0385 1113.6816,95.1635 1115.0483,94.8215 C 1114.1657,94.7565 1113.2769,94.6835 1112.3872,94.6055 C 1111.6615,94.7725 1110.9703,94.9645 1110.3171,95.1815"
         id="path4470" />
      <path
         d="M 1115.7645,93.6695 C 1116.9026,93.8085 1117.6550,93.6405 1118.0271,93.1655 C 1115.9797,92.8155 1113.8883,91.9615 1112.0583,92.2285 C 1112.5703,93.1795 1114.4778,93.3835 1115.7645,93.6695"
         id="path4478" />
      <path
         d="M 1128.3786,94.9655 C 1128.7542,94.8695 1129.1301,94.7735 1129.5046,94.6775 C 1127.5175,94.1585 1125.3719,93.8505 1124.1000,94.4615 C 1125.5055,94.5625 1126.9629,94.8225 1128.3786,94.9655"
         id="path4488" />
      <path
         d="M 1125.1686,93.0935 C 1125.5716,93.0935 1125.9545,93.0695 1126.3175,93.0215 C 1125.3257,92.6405 1124.3868,92.4975 1123.4989,92.5895 C 1124.0554,92.7575 1124.6114,92.9255 1125.1686,93.0935"
         id="path4490" />
      <path
         d="M 1108.8567,116.4925 C 1107.8835,116.3725 1107.1738,116.7695 1106.9233,117.2135 C 1107.6365,117.0275 1108.2816,116.7865 1108.8567,116.4925"
         id="path4450" />
      <path
         d="M 1114.7505,115.1975 C 1113.7471,115.0025 1112.9087,115.0505 1112.2400,115.3415 C 1113.2474,115.5405 1114.0847,115.4925 1114.7505,115.1975"
         id="path4456" />
      <path
         d="M 1112.9582,116.2055 C 1113.4205,116.3105 1113.8165,116.2865 1114.1483,116.1335 C 1113.7521,116.1575 1113.3559,116.1815 1112.9582,116.2055"
         id="path4458" />
      <path
         d="M 1117.4522,117.4295 C 1119.2286,117.6615 1120.9411,117.7025 1122.6625,117.7895 C 1120.5154,116.5215 1115.9494,116.4905 1113.9119,116.7095 C 1115.0871,117.0425 1116.2774,117.2575 1117.4522,117.4295"
         id="path4460" />
      <path
         d="M 1122.5375,111.5975 C 1122.9265,111.6315 1124.2069,111.3735 1123.1235,110.9475 C 1121.7990,110.4275 1120.6676,111.2535 1119.7830,111.3825 C 1121.2574,112.0105 1122.7832,112.0675 1123.8762,111.7415 C 1123.4280,111.6935 1122.9828,111.6455 1122.5375,111.5975"
         id="path4466" />
      <path
         d="M 1123.8327,113.9015 C 1123.4209,113.9015 1123.0074,113.9015 1122.5956,113.9015 C 1123.0796,114.1095 1123.5804,114.2765 1124.1014,114.4055 C 1124.0118,114.2375 1123.9223,114.0695 1123.8327,113.9015"
         id="path4468" />
      <path
         d="M 1126.4868,115.4855 C 1125.6418,115.3455 1124.7604,115.6975 1124.2377,115.9185 C 1125.1334,115.9265 1125.8814,115.7825 1126.4868,115.4855"
         id="path4472" />
      <path
         d="M 1123.9710,114.9815 C 1124.7382,114.9115 1125.4625,114.7925 1126.1399,114.6225 C 1125.1543,114.3765 1124.2948,114.5015 1123.9710,114.9815"
         id="path4474" />
      <path
         d="M 1124.7711,103.2445 C 1122.6686,101.9355 1118.3525,102.7585 1117.5343,103.5335 C 1120.2708,103.9715 1122.4373,103.3825 1124.7711,103.2445"
         id="path4476" />
      <path
         d="M 1135.6275,117.1415 C 1133.7440,116.8625 1132.1102,117.9105 1131.2346,118.5815 C 1132.9995,118.7515 1136.4722,118.7225 1135.6275,117.1415"
         id="path4480" />
      <path
         d="M 1130.8015,112.3175 C 1129.6852,112.0735 1128.8996,112.3745 1128.6783,112.8935 C 1129.3834,112.7005 1130.0923,112.5095 1130.8015,112.3175"
         id="path4482" />
      <path
         d="M 1131.9827,111.0935 C 1131.2408,111.2185 1130.7718,111.1465 1131.1658,111.8135 C 1131.4700,111.5895 1131.7428,111.3495 1131.9827,111.0935"
         id="path4484" />
      <path
         d="M 1135.2954,108.8625 C 1134.0209,108.8195 1132.4049,109.3775 1132.9665,110.3015 C 1133.8211,109.8365 1135.1945,109.8315 1136.2989,109.5815 C 1135.9629,109.3415 1135.6304,109.1025 1135.2954,108.8625"
         id="path4486" />
      <path
         d="M 1115.8832,127.2215 C 1114.9264,126.8905 1113.2875,126.9275 1112.3792,127.2215 C 1113.8021,127.6175 1114.5744,127.1275 1115.8832,127.2215"
         id="path4448" />
      <path
         d="M 1080.8860,150.4775 C 1079.3706,150.2805 1078.0361,150.6215 1076.8376,150.9095 C 1078.4833,151.0585 1080.2262,151.5315 1080.8860,150.4775"
         id="path4424" />
      <path
         d="M 1079.2912,147.5975 C 1083.3803,147.0775 1088.6266,148.9885 1092.4213,147.9575 C 1088.2638,147.5645 1079.9062,145.0435 1077.6878,147.5245 C 1078.2323,147.5755 1078.7666,147.5995 1079.2912,147.5975"
         id="path4426" />
      <path
         d="M 1102.9071,150.4045 C 1098.9759,149.2645 1085.1651,147.9195 1083.3841,150.4765 C 1086.1556,150.2935 1091.2147,150.0595 1094.2332,150.8225 C 1095.0171,151.0215 1096.8016,151.9775 1097.5320,151.8795 C 1099.1427,151.6625 1101.0015,151.8325 1102.7733,151.9875 C 1102.4143,151.4105 1101.6280,151.0505 1100.7989,151.0515 C 1101.5966,150.9315 1102.2986,150.7155 1102.9071,150.4045"
         id="path4432" />
      <path
         d="M 1110.0989,139.8215 C 1109.1859,139.7445 1101.0134,140.4055 1103.5786,141.4135 C 1107.3879,142.9165 1113.2859,142.1235 1116.3881,141.6225 C 1115.1355,141.3895 1114.2871,140.6185 1113.1234,140.2225 C 1112.0904,139.8705 1111.1139,140.0035 1110.0989,139.8215"
         id="path4434" />
      <path
         d="M 1108.3139,125.7815 C 1108.5676,125.5895 1108.8201,125.3975 1109.0744,125.2055 C 1107.8795,125.2055 1106.5665,125.0955 1105.7715,125.5645 C 1106.6347,125.6805 1107.4819,125.7525 1108.3139,125.7815"
         id="path4436" />
      <path
         d="M 1117.4386,137.8775 C 1118.1397,137.6935 1118.7761,137.4535 1119.3460,137.1565 C 1118.3991,136.6705 1117.1960,136.4435 1116.3646,136.7245 C 1116.8462,136.5685 1117.1928,136.3285 1117.4001,136.0045 C 1116.2935,135.7715 1114.7703,135.4915 1113.8760,135.7885 C 1112.9373,136.1015 1113.2530,136.9785 1112.2181,137.2275 C 1113.7876,137.9755 1116.1559,138.3875 1117.4386,137.8775"
         id="path4438" />
      <path
         d="M 1111.7448,126.0695 C 1110.4793,125.9705 1109.8438,126.5625 1108.5541,126.4295 C 1109.8703,126.8915 1111.8123,127.0875 1111.7448,126.0695"
         id="path4442" />
      <path
         d="M 1112.2834,125.6375 C 1111.3650,125.4905 1110.6515,125.5855 1110.1440,125.9255 C 1110.8509,125.8225 1111.5635,125.7265 1112.2834,125.6375"
         id="path4446" />
      <path
         d="M 1115.8897,126.6455 C 1114.7424,126.3765 1113.3917,126.7215 1112.5546,126.9335 C 1113.6646,126.8345 1114.9235,126.9325 1115.8897,126.6455"
         id="path4452" />
      <path
         d="M 1127.4315,138.7405 C 1126.0686,138.1115 1125.0432,138.4045 1124.0320,138.7405 C 1125.3071,139.2885 1126.9108,139.3755 1127.4315,138.7405"
         id="path4454" />
      <path
         d="M 1133.3386,133.4135 C 1132.2043,133.2825 1132.3066,133.9525 1131.3771,133.9885 C 1130.4882,134.0235 1129.4435,133.4865 1128.6084,133.5935 C 1126.8201,133.8245 1125.7290,134.7355 1126.2034,136.0755 C 1128.5198,135.8225 1131.3846,135.6685 1133.9352,135.9015 C 1135.8506,136.0775 1137.6932,136.5455 1138.2538,135.2125 C 1137.1221,134.9295 1136.7337,135.3895 1135.8002,135.4465 C 1134.6170,135.5205 1133.4488,135.0785 1132.3080,134.6355 C 1133.0103,134.4415 1133.7156,134.2495 1134.4239,134.0595 C 1134.0662,133.8455 1133.7025,133.6295 1133.3386,133.4135"
         id="path4462" />
      <path
         d="M 1127.9448,128.3735 C 1128.0810,127.9475 1127.8939,125.5605 1127.3418,125.1285 C 1125.6877,123.8385 1123.9137,125.4795 1126.3857,125.3495 C 1125.8035,125.4935 1124.2041,125.5165 1124.4360,126.1485 C 1124.7272,126.9345 1126.9551,128.8165 1127.9589,129.4545 C 1128.2139,129.1445 1128.2096,128.7845 1127.9448,128.3735"
         id="path4464" />
      <path
         d="M 1041.0202,184.3895 C 1041.8188,184.6345 1042.5096,184.6345 1043.0918,184.3895 C 1042.2872,183.8935 1041.2353,183.7065 1041.0202,184.3895"
         id="path4414" />
      <path
         d="M 1073.8786,163.3655 C 1072.4587,163.3445 1071.1966,163.6715 1070.0393,163.9905 C 1068.0888,164.5275 1065.9335,164.3065 1063.8278,164.5895 C 1061.8308,164.8575 1060.5452,165.7785 1058.7062,166.1855 C 1058.1161,166.2935 1057.5142,166.3865 1056.8991,166.4615 C 1056.0044,166.6005 1056.2439,167.4245 1055.3815,167.6135 C 1058.8633,168.7865 1062.3797,167.4925 1065.2974,167.2865 C 1069.2855,167.0045 1073.4760,167.2305 1076.9687,166.1735 C 1076.5251,165.9585 1076.0849,165.7425 1075.6440,165.5255 C 1077.7064,165.3795 1075.0948,163.8785 1073.7985,164.0135 C 1073.8247,163.7975 1073.8509,163.5815 1073.8786,163.3655"
         id="path4418" />
      <path
         d="M 1061.6763,164.7335 C 1060.3938,164.5155 1058.8884,164.4525 1058.0065,164.8785 C 1059.1747,166.0835 1061.0513,165.2085 1061.6763,164.7335"
         id="path4420" />
      <path
         d="M 1070.8681,167.3245 C 1070.0516,167.0085 1069.1906,167.2675 1068.7483,167.5415 C 1069.7000,167.8275 1070.4063,167.7555 1070.8681,167.3245"
         id="path4422" />
      <path
         d="M 1092.4887,173.0135 C 1091.6375,172.7915 1090.8531,173.0625 1090.4599,173.4465 C 1091.3776,173.6995 1092.1436,173.4975 1092.4887,173.0135"
         id="path4428" />
      <path
         d="M 1098.4987,154.4375 C 1097.6086,154.5075 1096.9498,154.1325 1096.9242,153.5015 C 1098.7906,153.7785 1100.7788,154.1005 1102.5355,154.0055 C 1102.1153,153.1775 1099.3480,152.5995 1098.3701,152.3495 C 1097.9513,152.4035 1097.5099,152.4075 1097.0447,152.3625 C 1095.9527,151.9605 1094.9300,151.6055 1093.8564,151.1735 C 1092.1093,150.4715 1089.0115,150.7245 1087.3303,150.7135 C 1085.0562,150.6975 1082.8194,150.2265 1083.7865,152.0665 C 1084.5648,153.5465 1091.6972,154.0765 1093.4295,154.5385 C 1095.5675,155.1095 1101.0547,157.1925 1101.3391,155.0145 C 1100.3931,154.8575 1099.4460,154.6645 1098.4987,154.4375"
         id="path4430" />
      <path
         d="M 955.3513,213.7655 C 955.0677,213.6665 954.9459,213.3515 954.4103,213.7655 C 954.7240,213.7655 955.0364,213.7655 955.3513,213.7655"
         id="path4374" />
      <path
         d="M 956.6491,214.2695 C 957.6300,214.1725 958.6847,214.1985 959.7205,214.1985 C 958.9179,212.8415 956.7980,213.5065 956.6491,214.2695"
         id="path4376" />
      <path
         d="M 963.0455,212.4695 C 962.7895,211.8215 961.9071,211.4075 961.1222,211.4615 C 961.6134,210.8725 961.0731,209.6465 959.7948,209.0905 C 959.4813,208.9545 957.5062,208.5835 958.3439,209.2725 C 960.2485,210.8415 960.4030,211.9295 963.0455,212.4695"
         id="path4378" />
      <path
         d="M 967.4661,206.0615 C 967.7053,205.9175 967.9446,205.7735 968.1841,205.6295 C 967.4417,205.4545 966.8206,205.4795 966.3196,205.7015 C 966.7019,205.8215 967.0840,205.9415 967.4661,206.0615"
         id="path4382" />
      <path
         d="M 981.6182,203.8285 C 981.7648,203.2885 983.1769,203.3415 983.8361,203.2645 C 985.7453,203.0405 983.1795,202.1795 985.0437,202.3175 C 983.1197,201.5765 981.4106,200.9845 980.5158,202.1945 C 980.1037,202.7525 979.8945,204.0125 981.6182,203.8285"
         id="path4386" />
      <path
         d="M 987.1777,203.6855 C 987.4210,203.4715 987.6167,203.2315 987.7649,202.9655 C 986.8999,202.6255 986.2444,202.6495 985.7982,203.0375 C 986.2421,203.2825 986.7015,203.4985 987.1777,203.6855"
         id="path4390" />
      <path
         d="M 988.5006,202.5335 C 988.9686,202.3335 989.1156,201.9975 988.9448,201.5245 C 988.2128,201.5965 988.0242,201.9575 988.5006,202.5335"
         id="path4392" />
      <path
         d="M 989.6227,202.1015 C 989.9817,201.6345 990.4682,201.2025 991.1421,200.9505 C 990.0878,200.8445 989.1163,201.2175 989.6227,202.1015"
         id="path4394" />
      <path
         d="M 734.7490,124.4135 C 740.3911,125.1445 745.1703,125.1515 749.4292,124.8455 C 751.1897,126.2705 746.3129,125.6265 744.9583,125.6095 C 742.3901,125.5775 738.8214,126.1385 737.5915,126.8625 C 740.5609,127.8585 744.4423,128.3965 746.6156,128.4465 C 744.6347,128.7625 747.5075,128.9955 748.4371,129.0805 C 749.7866,129.2055 750.9371,129.1765 752.1503,129.1975 C 754.7635,129.2405 759.0710,130.2025 760.6183,129.5255 C 758.9367,129.2125 756.9860,128.3205 755.4508,128.2295 C 757.8443,128.0215 757.3828,127.5395 761.0971,128.6235 C 763.4295,129.3055 764.0681,127.0235 767.8158,127.9415 C 767.2165,128.1395 766.8825,128.4525 766.8098,128.8785 C 769.2470,129.5945 770.4515,129.2555 770.2754,128.4405 C 770.2264,128.2115 772.9659,128.6395 773.3610,128.3565 C 773.7498,128.2555 774.2777,128.2565 774.9502,128.3615 C 775.8224,128.4195 775.0883,127.8745 775.6245,127.7775 C 776.8358,127.5575 778.4355,127.2695 779.8320,128.4465 C 780.5992,128.4615 788.3667,125.9265 790.0109,128.1575 C 790.4961,127.2495 793.7265,127.7405 795.9253,127.9795 C 799.0510,128.3205 801.5786,128.1325 804.7431,128.5175 C 804.8404,128.7595 804.9295,128.9985 805.0129,129.2375 C 806.3503,129.3925 810.4064,128.7125 811.2675,129.8855 C 812.0316,129.8555 812.7340,129.7825 813.3772,129.6695 C 813.2668,129.8775 813.1774,130.0935 813.1078,130.3165 C 815.0602,130.6415 815.9376,130.0875 817.8660,130.3885 C 815.6070,130.4455 818.7670,131.3345 819.7031,131.3635 C 820.8838,131.3985 821.6900,131.1555 822.8542,131.1805 C 820.5695,131.7495 823.9240,131.2895 824.5091,132.5015 C 825.0295,133.5695 822.6020,133.3115 821.5903,133.6285 C 823.2525,133.9725 823.4181,133.3005 824.6835,133.3405 C 824.0586,133.6645 824.6080,134.8805 826.3473,134.7805 C 826.1839,134.9665 826.0361,135.1585 825.8985,135.3555 C 829.0376,136.2365 832.4673,135.7355 835.6383,137.1555 C 835.2116,137.5505 833.3060,137.3215 834.4291,138.3075 C 835.5189,137.3655 839.1241,139.4395 840.1703,139.0995 C 839.8994,139.8385 837.9894,139.9195 836.4041,139.7475 C 837.9252,140.2105 839.0633,140.1365 840.1036,140.0355 C 839.5720,140.4995 838.2150,140.3655 837.1771,140.4675 C 838.2468,140.8005 839.1237,140.8965 839.8117,140.7555 C 837.5979,141.4195 834.3209,141.3235 832.2138,142.0515 C 835.6937,142.3975 838.0338,141.6665 840.4023,141.1155 C 840.3506,141.6145 840.0161,142.0195 839.4165,142.2665 C 840.4401,142.4975 841.3808,142.6175 842.2363,142.6265 C 839.8492,142.8105 843.6567,143.5635 844.3659,143.6345 C 843.1531,143.7125 843.4070,144.5925 845.2977,144.7145 C 845.1114,144.7875 840.0191,144.7895 843.3001,145.0025 C 841.0831,145.3245 848.1928,146.5635 849.1702,147.3065 C 848.0613,146.9895 844.6387,147.7375 847.5901,148.0985 C 846.5301,148.3055 846.5500,149.3095 844.7565,148.8905 C 846.9247,149.4835 847.8395,148.9555 849.6213,149.3225 C 852.3114,149.8755 852.2394,151.1685 850.5508,151.2665 C 851.5274,151.5245 852.2323,151.5005 852.6647,151.1955 C 851.4366,151.5725 851.0141,152.4305 849.7446,152.7795 C 851.4522,153.0585 853.0062,153.1145 854.6414,153.2835 C 851.8117,153.8295 846.9929,152.4965 844.7745,153.5705 C 847.3266,154.6485 849.5119,153.2995 851.9162,154.1465 C 850.3399,154.2275 850.0390,155.1375 848.8432,155.4795 C 847.7148,155.8025 845.9768,156.0825 845.6565,156.8835 C 850.4126,158.0995 851.3345,156.1545 853.9406,155.3715 C 852.4321,156.6015 851.1497,157.3115 848.2240,157.5595 C 846.3481,157.7185 843.8165,158.0915 843.0715,159.0435 C 844.2748,159.1995 845.0311,159.9275 845.9355,160.5045 C 846.9684,161.1635 850.0515,161.6565 847.5846,160.3385 C 850.1817,161.3105 852.8940,161.4805 854.8870,161.3255 C 855.8053,161.2545 856.6518,161.1005 857.3280,160.8295 C 859.1783,160.0865 856.8209,160.0425 856.5308,158.7545 C 857.5209,159.2355 858.3850,159.4035 859.1271,159.2585 C 856.6992,157.9555 863.4189,159.1375 860.9163,156.8935 C 860.0032,156.0965 858.8035,155.8885 858.4703,155.0105 C 858.1103,154.0575 859.3296,154.2905 860.5085,154.2905 C 856.6719,154.3865 861.8003,156.5125 862.5208,158.3215 C 863.6196,157.8005 865.2788,157.0455 866.8247,156.8825 C 865.7739,157.3325 863.7421,158.1555 863.2123,158.8985 C 865.4625,159.0845 867.8783,159.3235 870.0483,159.4565 C 872.0546,159.5785 873.0324,158.4185 875.2422,158.8265 C 873.6502,160.8055 867.5537,159.4975 865.1451,160.9155 C 869.4764,161.1135 873.0021,159.6905 877.5816,160.4115 C 876.5209,161.0645 874.0646,160.6095 872.5254,160.8435 C 870.8514,161.0975 870.2944,162.1165 868.6063,162.3555 C 871.6613,163.3615 873.2319,161.5065 875.2400,161.2765 C 876.3657,162.0825 876.1341,162.3335 874.5424,162.0265 C 873.2453,162.1225 872.1890,162.4265 871.2183,162.7885 C 873.5576,163.7115 876.1308,162.9315 877.8750,162.8605 C 875.4548,163.3855 880.0473,163.7145 880.6777,163.6515 C 879.1619,164.8585 874.5321,162.5895 872.9627,163.6515 C 874.6911,163.9645 876.3762,164.5825 878.0022,164.6445 C 879.0839,164.6855 880.2635,164.6955 881.4422,164.8725 C 882.7200,165.0645 882.0082,165.8935 881.0288,165.6465 C 879.3216,165.2155 878.5018,165.5825 877.1332,165.5965 C 878.3799,166.1725 881.5124,166.1015 882.9482,166.3885 C 882.1337,166.3035 881.3897,166.3035 880.7165,166.3885 C 881.2486,166.6365 881.7849,166.8765 882.3270,167.1085 C 880.8538,166.7015 879.0997,166.7225 877.9503,166.8205 C 878.7788,167.1265 882.4001,167.7725 879.6236,167.6135 C 881.6465,168.3025 882.9137,167.8565 883.6062,167.1805 C 883.1874,167.5185 883.4687,168.0005 883.2482,168.3985 C 882.9350,168.9695 880.3923,168.3215 879.4017,168.1825 C 875.8748,167.6885 873.5714,167.2125 869.8205,166.1675 C 866.1229,165.1415 863.7970,165.9935 860.4044,165.4685 C 857.2585,164.9825 853.9727,164.9085 852.7355,166.1725 C 854.9207,166.9325 857.0679,167.9315 859.2033,168.2415 C 862.1324,168.6675 864.9162,168.2655 868.2118,169.6685 C 871.1254,170.9565 872.3466,170.6565 875.0168,170.9745 C 875.4513,171.0265 876.6672,171.3165 876.9899,171.2105 C 877.8569,170.9275 878.5796,170.1135 880.2379,170.8525 C 879.5962,170.9445 878.9840,171.0645 878.4041,171.2125 C 881.3049,171.4675 883.2947,170.6395 886.0508,170.7085 C 886.0208,171.2815 884.8615,171.3305 884.4827,171.7165 C 885.3690,171.7755 886.0893,172.2175 886.2797,172.7965 C 884.6122,172.7325 883.1335,172.5865 882.4716,173.4445 C 883.1687,173.2775 883.9732,173.4215 884.8856,173.8765 C 883.6062,173.7045 880.9599,173.2195 881.9301,174.5965 C 883.1427,174.5965 884.4881,174.0265 886.0138,174.5965 C 882.9309,174.2485 880.7705,175.5105 879.8145,176.8275 C 882.0051,177.2385 882.2602,176.1685 883.9655,176.1685 C 884.7250,176.1685 885.6023,177.0595 886.5355,177.1875 C 885.7805,177.5035 884.4299,177.1905 883.9877,177.7635 C 884.7459,177.8255 885.5326,177.9925 886.3455,178.2675 C 885.5886,178.2545 885.0532,178.4225 884.7400,178.7715 C 883.6336,177.4405 882.0188,177.9205 880.8858,177.9795 C 881.0813,177.7925 881.2678,177.6005 881.4452,177.4035 C 879.9755,177.1535 879.5291,177.8545 879.7380,178.7065 C 879.9276,179.4805 878.4787,179.3845 878.4625,180.1405 C 880.0743,180.3905 880.9237,179.7615 882.2814,179.7085 C 881.5456,179.9275 879.8891,180.1455 881.4861,181.1475 C 879.6299,180.6895 878.9365,181.7315 877.3394,181.6325 C 875.7437,181.5325 873.7569,181.1785 872.4356,181.4355 C 872.9916,181.3145 873.4885,181.1465 873.9251,180.9315 C 872.9579,181.4185 870.9799,180.7585 870.1203,181.3645 C 870.8284,181.3435 871.5672,181.3675 872.3384,181.4355 C 870.8940,181.3805 869.4203,181.4915 868.4854,181.9395 C 871.0861,181.9395 867.5135,182.6675 867.0342,182.7485 C 865.7626,182.9655 864.3513,183.0815 863.3083,183.5235 C 865.0704,183.5635 866.3536,182.9405 868.3095,183.2355 C 867.4466,183.2215 866.8577,183.5275 866.7000,184.0285 C 867.3063,183.1605 871.2670,184.1065 872.7709,183.9405 C 874.4209,183.7575 877.8435,184.2225 878.2826,183.0195 C 877.5465,183.1215 876.7259,182.9535 875.8211,182.5155 C 878.2868,182.9515 879.7015,182.1175 881.7943,182.0835 C 881.1161,182.3965 880.0907,182.4035 879.4045,182.7095 C 878.7714,182.9925 879.2060,183.7185 878.2244,183.8105 C 878.9891,183.9415 879.7606,184.1095 880.5403,184.3145 C 879.4872,184.2565 878.2382,183.9605 877.4871,184.3145 C 880.5992,184.8225 883.8768,186.0025 886.8802,186.1865 C 884.1039,186.6275 880.3143,184.9905 877.4141,185.2145 C 875.9369,185.3285 874.3703,185.3925 872.6795,185.1785 C 870.8644,184.9495 868.6073,183.9585 867.1367,184.3865 C 868.0076,184.5685 868.8739,184.8315 869.7389,185.1785 C 867.1523,184.6855 864.2319,183.9755 862.1347,184.3865 C 863.5331,184.3865 864.0671,184.6745 865.4625,185.2605 C 867.7547,186.2235 869.8341,186.0095 871.7518,185.9705 C 869.3436,186.5665 865.6796,185.0335 863.1736,185.4665 C 863.9692,185.6495 864.7082,185.7205 865.3920,185.6825 C 864.4740,185.8375 863.4600,185.9125 862.7470,186.2585 C 865.1873,186.2045 862.9660,186.8075 861.8826,186.4025 C 865.2907,188.3175 858.1948,186.0135 860.3361,187.4115 C 858.9895,187.0815 858.8485,187.2975 859.9110,188.0585 C 860.0409,187.8365 860.1818,187.6205 860.3361,187.4115 C 861.7598,188.4325 858.4893,187.9285 859.7980,189.2835 C 862.6796,189.3245 863.6776,187.6455 866.1356,187.2685 C 869.3626,186.7735 872.6839,186.2935 875.9646,185.8265 C 874.6446,186.6655 872.0446,186.2015 870.4342,186.7635 C 872.1419,187.5955 873.6733,187.5475 874.8450,187.1965 C 872.7110,187.6835 877.1535,187.8295 877.8232,187.1245 C 877.3918,186.8545 876.9554,186.5915 876.5120,186.3325 C 877.8997,186.3225 878.7091,185.4815 880.5203,186.1875 C 879.6229,186.3445 878.6150,186.3755 877.7326,186.5475 C 878.9008,187.9105 881.6655,187.2705 882.5209,186.9795 C 879.9331,186.7825 882.0330,186.3755 882.6371,186.3725 C 883.5246,186.3665 884.5632,186.5605 885.5486,186.8365 C 883.2643,187.3535 880.7513,187.7005 878.0262,187.7005 C 881.3697,188.8715 883.2428,187.8195 885.7912,187.6285 C 884.4954,188.1595 882.7435,188.2575 881.2885,188.6365 C 883.2308,189.4145 885.0867,189.3955 886.7399,189.3565 C 884.2249,189.9705 880.8112,188.5615 877.8067,188.2585 C 874.2652,187.9015 870.4517,187.6115 867.0251,187.4845 C 869.8664,187.4965 864.8455,187.8615 864.4012,188.0605 C 866.6934,187.7905 864.5842,188.2275 864.1566,188.3275 C 863.1158,188.5695 862.0628,188.8005 861.0848,189.0985 C 860.0232,189.4205 857.5015,190.1225 858.8547,191.5175 C 860.1401,191.3305 861.1664,190.8955 862.4248,190.6805 C 863.9100,190.4275 865.8026,190.8835 867.3108,190.5945 C 870.9199,189.9035 875.5824,190.6315 879.1488,189.9335 C 878.3378,190.1745 877.4263,190.3245 876.4294,190.3665 C 879.4031,193.0685 881.5297,191.0435 884.4540,191.5905 C 883.2387,191.7105 879.6823,192.6915 878.1331,191.8965 C 875.8568,190.7305 875.9531,190.3755 873.5514,190.5495 C 871.3067,190.7125 868.9383,190.7325 866.6855,190.9065 C 865.4214,191.0045 864.1068,191.0395 862.8427,191.1365 C 862.5727,191.1575 858.5057,191.4515 861.5681,191.5185 C 860.4200,191.7605 858.7760,191.5055 857.9984,192.0945 C 859.5956,192.5735 860.9039,192.4465 862.0760,192.2385 C 861.2809,192.4825 860.3074,192.5515 859.2754,192.5265 C 860.5314,193.0825 861.5372,192.9365 862.6353,193.0315 C 861.3455,193.1185 860.0294,193.1755 858.6716,193.1755 C 861.3166,193.8435 863.4490,193.5405 865.9077,193.8225 C 864.2299,193.7825 862.1159,193.6715 861.3906,194.5435 C 863.1950,194.2325 867.6082,192.4365 870.2076,193.6065 C 869.0155,193.8005 869.2016,194.0175 870.7655,194.2545 C 870.0646,194.6315 868.8574,194.1945 867.8492,194.1285 C 866.6907,194.0535 865.9103,194.4505 864.6670,194.2545 C 865.4112,194.3595 866.1374,194.4315 866.8471,194.4705 C 866.3944,195.0425 865.1299,194.8475 864.2580,195.0465 C 865.5113,195.4105 866.3260,195.0655 867.3951,195.1185 C 865.7074,195.5845 863.2563,195.1805 861.6171,195.6935 C 863.6761,196.9525 867.7191,196.6455 869.2674,196.4145 C 868.2509,196.8005 864.0535,197.0055 862.4402,196.7025 C 864.8861,196.7025 861.9308,196.5225 861.5332,196.6075 C 860.6369,196.7985 860.3468,197.4535 859.7658,197.8675 C 858.5339,198.7465 863.8994,198.4475 864.1121,198.4305 C 862.6386,198.6525 860.8088,198.6515 860.1901,199.5825 C 862.9103,200.3015 864.9266,199.1445 866.4092,198.4305 C 868.1829,197.5775 870.9779,197.4465 872.1731,196.1745 C 873.2538,195.0255 875.6070,194.6655 877.5005,194.1305 C 880.0913,193.3995 882.6437,192.7395 885.7567,192.5265 C 885.2238,192.7095 884.5935,192.7815 883.8684,192.7425 C 885.0734,193.1205 886.1796,193.1305 887.2066,193.1025 C 886.6400,193.3855 885.5517,193.2975 884.7034,193.2265 C 882.8917,193.0725 881.8093,193.2905 880.3760,193.6065 C 881.8405,194.4305 883.7289,194.2315 884.9333,194.1825 C 883.0255,194.7105 880.1134,193.8805 878.1562,194.3425 C 876.0717,194.8355 873.8816,195.4055 872.5730,196.4995 C 871.3251,197.5395 868.3587,197.1565 867.2273,198.2915 C 866.0528,199.4785 863.3470,199.4745 861.5448,200.1575 C 862.2871,200.2745 863.0064,200.3465 863.7048,200.3745 C 863.1815,200.5575 862.5597,200.6295 861.8420,200.5905 C 863.5115,201.3855 864.5376,200.6385 865.5294,200.3745 C 864.7632,200.6745 863.9722,200.9565 863.1034,201.1665 C 865.5264,202.2485 866.7184,200.4505 868.6469,200.5905 C 870.0445,200.6925 869.4479,201.4735 870.7408,200.8545 C 871.6753,200.4075 873.0979,200.3045 874.2134,200.0145 C 875.0501,201.2445 873.4343,200.5065 872.4103,200.6195 C 871.2663,200.7455 871.0531,201.1915 870.3872,201.6415 C 870.2156,201.7575 868.1555,201.4285 867.9161,201.4265 C 866.1631,201.4145 864.7614,201.7005 863.5498,202.2445 C 864.3531,202.3605 865.0242,202.3125 865.5635,202.1005 C 865.1797,202.4545 864.5909,202.6225 863.7966,202.6045 C 865.5981,203.3965 866.9590,202.8695 867.3221,202.0295 C 867.7342,202.5985 867.5564,202.9595 866.8665,203.0375 C 869.2712,202.8445 866.8285,203.6295 866.5006,203.9005 C 867.9983,204.4065 868.4658,203.5105 868.9628,203.0375 C 868.6883,203.5375 868.3304,203.9935 867.8910,204.4045 C 868.9214,204.0365 869.1790,204.2285 868.6672,204.9805 C 869.2900,204.8865 869.9218,204.8035 870.5638,204.7315 C 871.8625,204.5555 872.5803,204.1535 873.3068,203.5225 C 874.1191,202.8185 875.5722,202.5045 876.9358,202.2535 C 878.6773,201.9335 880.9585,202.7425 882.6357,202.4615 C 882.2383,202.8615 882.5402,203.0295 883.5383,202.9655 C 880.5085,203.3855 875.9635,201.3735 874.0752,203.3755 C 873.3938,204.1045 872.2389,204.1325 871.3186,204.6615 C 870.6877,204.9025 870.0137,205.1045 869.2958,205.2665 C 868.6514,205.5125 869.1599,206.3885 868.6052,206.7095 C 869.3699,206.4235 869.4398,205.3265 870.9756,205.8455 C 870.9391,206.0955 870.8768,206.3345 870.7908,206.5655 C 871.3248,206.3855 871.8123,206.1695 872.2540,205.9185 C 871.4529,206.5295 870.5693,207.2605 872.2045,208.5105 C 871.6801,208.4615 871.4324,208.5985 871.4601,208.9215 C 871.8870,210.0445 874.1033,208.9875 871.9978,209.7345 C 873.4567,209.6805 873.9053,207.4565 875.9565,208.2955 C 875.8166,208.5275 875.6464,208.7435 875.4451,208.9425 C 876.2619,208.6765 876.9779,208.3065 877.9883,208.2225 C 876.1449,208.6865 873.0718,209.2935 871.9470,210.2925 C 871.5831,210.6175 872.5806,213.6855 873.0051,214.1985 C 876.8105,214.3845 875.4397,208.8915 879.9425,210.0215 C 879.2785,210.1675 878.8659,210.5445 878.7338,211.0305 C 880.6075,211.2325 883.1329,210.1965 882.6759,208.7955 C 882.4967,208.2425 882.2805,207.8815 881.6606,207.9835 C 881.0132,208.0895 880.5290,206.6695 880.3969,206.4215 C 881.2776,206.8445 881.9905,206.9165 882.5339,206.6375 C 881.2172,206.7835 882.0900,208.1815 882.9894,208.9585 C 885.1728,210.8455 886.6473,209.4935 887.9448,209.0855 C 887.4911,209.2995 885.9953,210.9745 888.0352,210.3815 C 885.7992,211.7505 890.2592,211.8045 890.9650,213.2615 C 889.6506,212.9215 888.0110,212.7285 886.7630,211.9655 C 885.3299,211.0905 884.8883,209.8905 883.2645,210.4535 C 886.1416,210.8505 881.9610,210.8255 881.5685,210.8855 C 882.3926,211.1655 883.2167,211.4295 884.0422,211.6775 C 881.9345,212.0315 885.6159,212.4585 886.3805,212.1095 C 886.0257,213.0135 884.3321,212.7855 883.0068,212.7295 C 882.1441,212.6935 878.6729,213.2145 881.3793,213.7655 C 880.1073,214.9185 876.8579,213.8265 874.9299,214.2695 C 875.6487,214.3175 876.3668,214.3665 877.0854,214.4145 C 876.3795,214.4195 875.8142,214.5635 875.3885,214.8465 C 879.1312,216.0765 883.3414,214.4455 885.0286,213.1185 C 884.6679,213.5055 884.2647,213.8655 883.8192,214.1985 C 884.8476,214.3375 886.4962,213.4685 887.4233,214.7025 C 886.4985,214.2305 882.9134,214.4605 882.1798,214.7045 C 880.5644,215.2445 878.3547,215.7925 876.0412,215.4215 C 877.2023,215.6545 877.6890,216.1115 877.1970,216.6455 C 878.7037,217.2295 879.8205,216.5345 880.8562,216.3575 C 880.0155,216.5875 879.4659,217.0565 878.6370,217.2945 C 878.3246,217.3845 874.4920,218.2785 877.0395,217.8705 C 875.1916,218.1475 877.9311,218.8775 878.8909,219.4545 C 878.3849,217.9445 882.1770,218.4495 883.5299,218.3745 C 882.4903,218.7345 879.3192,218.0775 879.5845,219.3825 C 880.5223,219.3825 881.4259,219.3345 882.2948,219.2375 C 881.2444,219.5625 879.8827,219.5725 878.9718,220.0305 C 879.9276,219.9785 880.9872,220.6055 881.9597,220.6055 C 883.0591,220.6055 883.9985,220.3965 884.9774,220.2455 C 883.8449,220.9915 880.5133,220.1235 879.8008,221.0045 C 879.2823,221.6495 881.4407,221.9415 881.8412,221.6145 C 880.0187,222.5665 882.7803,221.8155 883.3109,221.7795 C 884.4182,221.7045 885.5717,221.6965 886.7234,221.6855 C 886.0274,221.9095 883.9813,222.2825 883.8193,222.8565 C 883.6082,223.6105 885.7641,223.8985 886.0526,223.4145 C 885.7310,223.8685 885.5203,224.3725 885.4093,224.9265 C 886.0943,224.5025 886.3869,223.6815 887.6587,223.7745 C 886.8527,224.2295 886.1389,224.7705 885.7350,225.5035 C 887.1027,225.4855 888.0903,224.9255 888.8580,224.3515 C 887.9738,225.3185 886.0055,225.8505 885.7136,227.1645 C 885.3738,228.7135 891.8415,229.3005 892.7713,229.4635 C 891.9375,229.3485 891.3889,229.6445 891.1883,230.1105 C 891.8312,230.0845 892.5061,230.1315 893.2137,230.2555 C 892.5057,230.7295 891.1346,230.1105 890.4616,230.6155 C 891.8807,230.8185 891.5570,230.9865 890.9064,231.4065 C 891.6114,231.0355 892.8073,231.4075 893.6338,231.1905 C 894.5319,230.9545 894.4888,230.1155 895.4047,229.8945 C 895.5418,230.4725 896.0675,230.7905 896.8051,230.7585 C 895.7816,230.7475 894.8525,231.0025 894.0975,231.3095 C 893.4697,231.5665 891.9927,233.4815 893.6308,232.4865 C 893.5600,232.7495 893.4911,233.0135 893.4248,233.2795 C 895.0771,233.1625 894.6735,230.9495 897.0039,231.6235 C 896.0500,231.8185 894.4248,232.4625 894.7030,233.4235 C 895.4341,233.4345 896.0234,233.2895 896.4750,232.9905 C 895.9096,233.2545 895.5390,233.6865 895.4257,234.2155 C 896.4353,234.3325 897.3053,234.1945 898.2639,234.2155 C 896.9728,234.4385 894.6431,234.0315 893.9437,234.8635 C 896.6720,236.1375 898.3018,234.6275 900.5528,234.7185 C 899.4359,234.9065 899.4891,235.0025 900.7119,235.0065 C 898.9803,235.1465 896.3083,235.0375 895.7663,236.3025 C 896.6240,235.5555 898.8386,236.0195 900.3775,236.3745 C 900.0651,236.7815 899.5202,236.9495 898.7412,236.8785 C 899.1542,237.9555 900.4318,237.6095 901.0247,237.3825 C 900.8784,237.6195 900.7370,237.8605 900.6001,238.1025 C 902.1538,238.1955 901.3957,236.2485 903.8727,236.5905 C 902.7474,236.6025 902.4448,237.3555 901.6404,237.6705 C 902.6843,238.6285 903.5892,238.2745 904.3984,238.0305 C 905.0448,239.3965 901.6729,238.8135 900.8725,239.2545 C 902.4029,239.2225 903.8850,239.1095 905.4347,239.1095 C 904.1564,239.6185 902.5903,239.8415 901.4423,240.4775 C 903.0218,240.5855 907.1519,240.9305 907.8192,239.9735 C 906.9223,240.0505 906.0309,240.2305 904.9503,239.9015 C 907.0644,239.7195 909.1418,239.4585 911.4849,239.6855 C 911.2525,239.8935 911.0339,240.1105 910.8261,240.3335 C 911.8906,240.8465 913.3317,240.6545 912.2689,239.6135 C 913.5295,239.7375 915.5649,237.6435 916.8466,239.3245 C 917.5624,239.1045 918.0403,238.8455 916.3844,238.4615 C 917.9509,238.8915 919.9579,237.4435 917.7955,237.1655 C 919.0385,237.5405 919.3260,236.6635 920.3941,236.7325 C 920.1624,236.9585 919.9561,237.1985 919.7744,237.4535 C 920.1671,237.6205 920.5603,237.7885 920.9539,237.9575 C 920.5665,238.8295 918.2168,238.4765 918.6264,239.7575 C 920.0938,239.0855 922.7093,239.1705 922.6899,237.4535 C 923.4552,238.6295 923.9211,238.0735 924.6923,237.5975 C 923.8236,239.8335 919.2853,238.8595 917.6332,240.4775 C 918.1095,240.2355 918.6955,240.1395 919.3921,240.1895 C 918.5961,240.4835 917.6387,240.6325 917.0598,241.1265 C 918.6795,241.7415 918.7629,240.0225 920.4500,240.4785 C 920.2282,240.6785 919.9940,240.8715 919.7486,241.0545 C 921.5585,241.1015 922.5362,239.9385 923.5125,239.1825 C 924.9308,240.3165 923.1224,239.9605 922.3680,240.3045 C 921.8226,240.5545 919.0661,241.6305 921.2177,241.6305 C 920.3505,241.8375 919.5800,242.1505 918.8508,242.4935 C 920.0844,242.7775 920.2531,241.8345 921.3654,241.9185 C 919.9174,242.6905 921.4179,241.8955 921.9051,243.1425 C 922.5365,242.3715 923.2190,241.5955 924.7988,241.7035 C 923.8010,241.8785 923.1242,242.3995 922.7757,243.0725 C 923.6464,242.8225 924.3224,242.3845 925.1945,242.1345 C 924.6244,242.3985 924.2394,242.8295 924.1052,243.3585 C 926.3932,243.4155 926.5596,241.6195 928.5630,241.4155 C 927.6861,241.9095 927.6949,242.8815 927.1135,243.5455 C 926.5269,244.2185 924.9220,244.6165 925.2303,245.7345 C 926.8065,244.9245 928.3533,243.3745 930.2311,242.9265 C 928.8625,244.2775 926.7278,244.9155 925.3505,246.1665 C 926.1501,246.7455 926.9121,246.7995 927.1928,246.2375 C 927.9081,247.2205 928.7274,246.9735 928.7354,246.2375 C 928.5926,248.0945 930.2546,245.9325 930.5508,245.7335 C 931.2759,245.2465 932.5871,245.5475 931.9121,244.2945 C 932.8495,244.9085 933.3861,244.8235 933.3374,244.0775 C 933.4979,244.6475 933.4063,245.1275 933.0654,245.5175 C 933.6475,245.5945 934.2269,245.6665 934.8051,245.7335 C 934.0168,245.5825 933.4864,245.7265 933.2162,246.1665 C 933.9478,246.5305 934.6624,246.6985 935.3616,246.6705 C 933.5901,247.0425 935.4285,247.2815 936.3009,247.4335 C 937.4413,247.6315 938.0552,247.3295 937.3873,246.3825 C 938.3599,246.6295 939.3695,246.9755 940.2922,246.9585 C 939.6703,245.8985 935.9633,245.8795 934.9820,245.7335 C 936.7045,245.4265 939.3424,246.8775 940.7208,246.0215 C 940.2990,245.4525 939.6820,245.1685 939.0231,245.3015 C 939.4848,245.0385 940.0706,244.9425 940.7775,245.0135 C 939.9465,244.1845 937.9011,244.1545 939.5346,243.7895 C 938.6147,243.8985 937.9187,244.2665 937.0500,244.4365 C 937.6218,244.1695 938.0155,243.7395 938.1681,243.2125 C 936.4014,242.7945 934.6989,242.8685 932.9085,242.1325 C 934.1360,242.4435 936.0643,242.8895 936.4668,241.9875 C 937.5766,243.4165 941.6881,243.3035 939.0548,242.6355 C 940.4359,242.9165 941.7235,242.7425 942.7663,242.4195 C 942.1101,242.3915 941.4410,242.3195 940.7580,242.2035 C 941.8587,242.3335 942.9547,242.3095 943.2533,241.5555 C 942.2080,241.9905 941.0815,242.0585 939.6036,241.7005 C 940.7247,241.7855 942.7794,242.2395 942.4305,240.9795 C 941.0519,240.5835 939.7942,240.7305 938.4239,240.4035 C 939.9977,240.5635 941.9772,241.0285 943.2182,240.5485 C 941.4594,240.0985 939.7768,240.1845 937.9998,239.5405 C 939.2751,239.8415 940.5934,240.0045 941.7432,239.9185 C 942.9501,239.8275 942.7743,238.9125 943.7156,238.6045 C 941.8896,238.9095 939.1935,238.5735 937.0428,238.0295 C 939.1182,237.9405 942.0395,238.8555 943.5811,237.9575 C 942.5090,237.7325 941.4528,237.5905 940.4001,237.4535 C 941.5271,237.4535 943.6900,238.0055 944.0496,237.0935 C 943.4793,237.1575 942.8864,237.1815 942.2710,237.1655 C 944.3773,236.6935 940.6348,236.5335 939.9436,236.3735 C 941.6510,236.5075 946.4512,237.2635 944.9006,234.9335 C 943.6990,234.9335 942.3262,235.2365 940.9852,234.4295 C 942.2352,234.6185 944.3019,234.9925 945.3165,234.7035 C 946.0942,234.4815 946.0432,233.6855 946.7978,233.4215 C 945.8475,233.9945 944.2089,233.4775 942.8771,232.9175 C 943.7517,232.9125 949.3899,233.6875 946.7898,231.9085 C 947.6933,232.0325 947.8959,231.6715 947.2837,231.0455 C 946.6003,231.1675 945.9361,231.3125 945.2885,231.4775 C 945.9253,231.0245 947.8751,230.0175 946.6428,228.9275 C 945.6732,228.0725 943.0415,227.7875 941.7982,227.2295 C 943.7529,227.3765 946.2147,228.7295 947.9277,228.2375 C 947.1813,228.0045 946.4397,227.7405 945.7049,227.4465 C 947.7130,227.7365 945.8085,226.6785 944.6894,226.7535 C 943.6049,226.8255 941.6200,225.9655 940.5977,225.3575 C 941.7582,225.7205 943.1016,225.9065 944.1811,225.9105 C 944.5879,225.9115 945.2107,225.8915 945.3057,225.5775 C 945.3252,225.3345 945.1870,225.0925 944.8905,224.8535 C 946.2304,224.8815 946.2012,224.7615 944.7882,224.4935 C 946.0377,224.6675 947.0247,224.5155 948.3327,225.0715 C 947.2685,224.9245 946.1356,224.9745 946.2110,225.8625 C 947.0065,225.8565 947.7282,225.7465 948.3740,225.5335 C 950.6475,224.8575 947.5525,225.1185 949.5384,224.7875 C 950.1452,224.6855 951.3468,224.0115 951.9638,224.2065 C 951.4958,222.6385 947.8512,223.8815 947.9933,222.0465 C 948.9169,222.8645 951.3169,223.4645 952.2455,223.1985 C 951.7985,222.6155 951.0042,222.1655 950.1897,221.9735 C 950.8205,221.9735 953.7234,223.2955 953.5745,222.4115 C 953.2987,220.7505 950.5525,221.6495 950.4347,220.1735 C 951.4653,220.4805 955.2951,222.4695 956.0158,221.8485 C 956.2867,221.6165 952.7593,220.1085 952.3661,219.9575 C 953.5176,220.2155 954.6489,220.6895 955.7783,221.1085 C 955.0010,220.6675 954.1873,220.3075 953.3378,220.0295 C 954.5031,220.4915 954.7257,220.3235 954.0014,219.5245 C 954.5105,219.7595 958.0491,221.3255 955.2976,219.6695 C 956.2358,220.1765 956.5575,220.0795 956.7285,219.5145 C 956.8368,219.1605 958.3826,219.6065 958.7730,219.5255 C 957.6588,218.0895 953.6862,217.4005 952.2607,217.6535 C 952.7815,216.7795 954.8717,217.6395 956.0668,217.8855 C 957.6030,218.2005 958.8421,217.7725 960.3900,218.1565 C 959.7688,217.4325 960.2851,216.5595 958.7455,216.2855 C 959.9961,216.1265 960.6344,214.7265 958.4029,214.5755 C 956.6242,214.4555 954.8649,215.0345 952.9390,213.8375 C 953.6336,212.7695 956.1130,213.6185 957.4326,213.1585 C 958.7285,212.7095 960.1997,213.4885 961.4495,213.1885 C 961.1209,212.6235 960.5005,212.2835 959.7458,212.2525 C 960.8050,210.6235 957.6882,209.9965 956.0292,208.7245 C 956.9756,208.6305 956.4345,208.3075 956.5471,207.8345 C 956.7140,207.1315 958.9949,207.5385 959.7568,207.3405 C 960.3081,207.1975 961.3238,207.8865 961.9108,208.0505 C 962.6448,208.2545 965.8526,207.7485 963.4545,207.0685 C 964.8590,207.2345 964.6581,205.9465 966.2570,206.2775 C 965.8668,206.0455 965.4847,205.8045 965.1119,205.5565 C 965.3698,205.4035 965.6388,205.2585 965.9219,205.1245 C 965.0625,204.9235 964.2075,204.7555 963.3582,204.6205 C 963.1500,203.3355 964.5921,204.2945 965.5976,204.1705 C 966.3998,204.0715 966.0292,202.9625 966.9959,203.0155 C 967.7563,203.0575 968.1105,203.9565 968.7668,204.0435 C 969.7709,204.1765 970.8524,203.5505 969.5963,202.7475 C 971.5205,203.2145 973.2739,203.7685 975.0687,203.6835 C 974.6541,203.4435 974.2398,203.2045 973.8256,202.9635 C 975.0999,202.9945 975.5669,202.3975 975.8923,203.6115 C 976.6208,202.7375 978.3901,203.6015 978.5538,201.9555 C 977.5333,201.6535 975.6699,201.2675 976.3813,200.3715 C 977.2041,201.8295 979.2098,201.2095 979.7566,200.5875 C 980.0809,200.2195 978.5266,199.7955 979.6953,199.6485 C 980.6363,199.5295 980.2265,198.5675 981.0573,198.2835 C 980.2860,198.2205 979.5151,198.0295 978.7414,197.7075 C 981.0864,197.6585 983.6582,198.1925 986.0298,198.2115 C 984.1319,198.3115 980.8624,199.6985 981.2745,201.3075 C 982.0096,200.7555 984.4952,201.7745 985.7187,201.8745 C 987.3794,202.0115 985.1815,200.1855 987.0926,200.2995 C 986.5910,200.6505 986.6558,201.2185 987.4396,201.7385 C 987.8554,200.6525 991.3257,201.5235 990.7469,199.9385 C 991.6431,200.1415 992.2394,200.6525 992.1578,201.2345 C 993.0038,200.6955 994.5963,201.1125 995.3126,200.4235 C 996.2619,199.5145 996.6911,199.8185 998.2469,199.5785 C 997.3275,198.7935 997.8496,197.9315 996.1833,197.5615 C 997.1208,196.8735 997.5243,198.0145 998.8472,198.3845 C 999.9026,198.6795 1000.9903,198.7745 1001.9807,198.7855 C 1000.9360,198.2885 1000.8758,197.7325 1001.6089,197.4175 C 1002.0659,199.4945 1006.4154,196.5845 1007.2059,196.4805 C 1006.2667,195.9235 1006.3279,195.3545 1006.9733,195.0415 C 1007.5758,196.6885 1008.6367,194.6625 1007.9340,196.1935 C 1008.5648,195.8845 1009.4529,194.3075 1010.7672,194.8965 C 1010.1801,194.2045 1009.8672,193.0555 1011.4191,193.4575 C 1009.2850,192.4405 1014.1534,192.8795 1013.9081,191.9005 C 1013.7160,191.1305 1015.1641,191.1385 1014.0576,190.2895 C 1015.4257,190.7005 1015.8728,189.7835 1015.2729,188.9935 C 1016.7674,189.3015 1016.5865,188.4335 1017.3210,188.0215 C 1018.2165,187.5205 1020.3884,187.2035 1021.5534,186.8315 C 1022.3380,186.5815 1024.7500,187.0845 1024.9231,186.4345 C 1025.0623,185.9175 1024.4184,185.0405 1025.7256,185.2495 C 1025.1700,184.2285 1023.7602,184.3745 1022.6848,183.9535 C 1023.4745,184.0885 1024.1269,184.0165 1024.6436,183.7365 C 1024.0107,183.2985 1022.4604,183.0795 1022.0221,182.5235 C 1021.3672,181.6925 1022.7489,181.8605 1022.4863,181.0725 C 1023.1546,181.8125 1023.7457,182.9685 1024.7604,182.2245 C 1025.8535,183.9905 1027.0356,183.4885 1029.0522,183.9535 C 1027.0268,184.0835 1029.1122,185.0975 1030.4433,185.0935 C 1032.9022,185.0845 1035.3485,185.2595 1037.6244,184.8895 C 1037.0240,184.3555 1036.2991,183.9715 1035.4470,183.7375 C 1036.4863,183.7705 1037.2145,184.3885 1038.1878,184.6955 C 1039.2585,185.0335 1040.0633,184.7995 1040.9934,184.7465 C 1040.5978,184.1515 1039.8150,183.7465 1038.9803,183.7375 C 1039.9002,183.6025 1041.1130,184.0675 1041.0921,183.1335 C 1041.0300,182.3325 1043.0846,183.4925 1043.6161,183.6225 C 1044.6742,183.8815 1048.6600,184.1815 1047.5531,182.7295 C 1049.4701,183.4485 1051.2824,183.0095 1052.6819,182.5835 C 1053.4387,182.3535 1053.8830,181.8535 1055.0250,182.2045 C 1056.0385,182.5175 1056.6471,182.1355 1056.2874,181.4335 C 1057.4288,182.2565 1059.8001,181.7615 1060.6624,181.5055 C 1062.0620,181.0915 1063.6687,181.3565 1065.1543,180.9635 C 1066.2332,180.6785 1067.5863,180.9695 1068.6825,180.7295 C 1069.5059,180.5485 1069.6022,179.8495 1070.6056,179.8495 C 1072.7250,179.8495 1073.5640,178.5815 1075.4090,178.2655 C 1072.9832,178.3255 1076.0954,177.7605 1077.2967,178.0495 C 1076.3592,176.7505 1077.2836,177.6235 1078.4247,177.4525 C 1079.1807,177.3395 1079.8354,176.4065 1077.9678,176.6105 C 1078.7340,175.6605 1080.7912,176.7365 1082.0425,176.3935 C 1079.3729,176.0725 1083.3092,176.5615 1081.1505,175.2415 C 1082.1898,175.4255 1083.2653,175.4645 1084.2249,175.3995 C 1084.9814,175.3475 1087.6497,174.5225 1084.9843,174.1625 C 1086.1208,174.2135 1088.3158,174.7165 1089.1044,174.3375 C 1090.2980,173.7645 1089.5379,172.8545 1087.8410,172.8665 C 1088.7281,172.9205 1092.6883,173.3845 1091.7098,172.0735 C 1092.7839,172.3395 1094.0744,172.9435 1094.9838,172.5065 C 1094.2608,172.1435 1093.5354,171.9995 1092.8079,172.0735 C 1094.9672,171.9545 1099.2844,171.5625 1100.7494,170.6345 C 1099.3946,169.7845 1097.4007,170.2605 1096.1652,170.3745 C 1094.0404,170.5695 1091.3562,170.5025 1089.0367,170.0425 C 1086.9970,169.6415 1085.0212,169.9535 1082.9502,169.3175 C 1080.4641,168.5565 1078.8079,168.6565 1076.7569,169.0505 C 1076.9467,168.7935 1077.1221,168.5295 1077.2819,168.2585 C 1074.7638,167.9285 1072.9770,168.8745 1070.8916,169.1945 C 1068.1655,169.6125 1064.5933,168.6985 1062.9083,170.2715 C 1061.5530,171.4915 1060.5053,170.4855 1058.7005,170.7335 C 1057.1237,170.9505 1053.8622,170.9375 1052.0654,170.3465 C 1054.3780,170.5775 1058.6919,170.4115 1060.4014,169.7485 C 1061.4376,169.3425 1062.4976,168.8645 1063.8291,168.7625 C 1065.6238,168.6245 1067.5748,169.0135 1068.7474,168.1155 C 1065.5452,166.3945 1060.2776,167.8725 1057.5420,168.0795 C 1056.5404,168.1555 1055.5812,168.2985 1054.4900,168.2235 C 1053.4650,168.1525 1053.4699,167.2295 1052.5765,167.4835 C 1051.5267,167.7815 1048.3594,168.3325 1046.9532,167.6835 C 1049.0307,167.7925 1052.5780,167.7255 1053.6409,166.7005 C 1054.7059,165.6765 1058.0746,164.9535 1053.4700,163.9395 C 1055.2081,164.2895 1057.4988,164.3715 1058.8779,164.0115 C 1058.0514,163.8405 1057.2819,163.4085 1056.8754,162.8605 C 1057.8909,162.6485 1058.8090,163.3845 1059.7082,163.8545 C 1061.1289,164.5985 1062.8888,164.3225 1064.1968,164.3015 C 1066.6699,164.2605 1073.4718,163.9475 1073.7636,162.2255 C 1073.8510,161.7195 1076.3955,162.7885 1075.6163,161.5645 C 1075.1812,160.8835 1073.6763,160.5295 1072.8317,160.3875 C 1071.3870,160.1445 1070.1579,160.4575 1068.8021,160.4435 C 1066.5339,160.4205 1064.1537,160.1255 1061.8957,160.1255 C 1064.4850,159.5945 1060.1476,159.6135 1059.4282,159.5955 C 1057.2668,159.5385 1055.4976,160.2575 1053.1612,159.8375 C 1055.3288,159.6405 1060.3756,160.2375 1061.2079,158.7575 C 1060.3676,158.6345 1054.3663,157.2025 1057.3766,157.4615 C 1055.8043,157.2025 1054.2902,157.2095 1052.8397,157.2445 C 1053.3247,156.6995 1052.7764,156.1175 1051.6469,155.8055 C 1054.3330,156.6175 1056.6372,156.8435 1059.2122,157.6595 C 1061.1211,158.2685 1064.2227,160.1555 1066.0444,159.9515 C 1066.8007,159.8675 1067.1940,159.4535 1067.9874,159.4055 C 1069.0549,159.3395 1070.3504,159.7745 1071.4666,159.8385 C 1074.5427,160.0135 1077.2080,161.6515 1080.2393,161.4615 C 1081.9806,161.3525 1084.9239,163.1115 1085.2036,164.3235 C 1085.7247,166.5675 1088.4597,166.9475 1091.2232,167.5075 C 1092.7637,167.8205 1096.5233,168.4485 1097.4326,167.5855 C 1098.0124,167.0385 1096.2599,164.4825 1098.6579,165.3815 C 1097.3865,168.4025 1101.4588,166.8415 1102.3348,167.7555 C 1103.8753,169.3655 1106.7853,166.3745 1103.9890,166.6775 C 1103.9246,166.0865 1104.4082,165.6985 1105.2962,165.7405 C 1104.5127,165.4885 1103.7223,165.2965 1102.9242,165.1655 C 1104.3760,165.6045 1104.3409,164.3685 1105.1883,164.0855 C 1104.3888,163.9345 1103.6365,163.9095 1102.9302,164.0135 C 1103.1644,163.7735 1103.3994,163.5345 1103.6337,163.2935 C 1102.6147,163.3585 1101.6136,163.4605 1100.5496,163.4375 C 1101.5485,163.2595 1103.0889,162.2495 1104.4018,162.7175 C 1104.1694,162.0925 1103.5319,161.8215 1102.7308,161.9255 C 1103.4422,161.8495 1104.0975,161.7055 1104.6954,161.4925 C 1103.1220,161.3015 1103.0391,161.1095 1104.4486,160.9175 C 1101.4604,160.3775 1100.1771,160.8075 1098.4900,161.9975 C 1097.9508,159.9005 1099.7835,159.2195 1102.5277,158.8285 C 1100.5595,158.8035 1098.8040,158.8685 1097.5066,159.7655 C 1097.0966,159.1545 1097.4995,158.7775 1098.2686,158.6855 C 1096.5972,158.2995 1095.3487,158.9865 1094.1469,159.3335 C 1094.1326,158.2165 1096.8367,157.7245 1098.1938,157.6045 C 1096.4282,156.7245 1094.5992,157.3095 1093.1483,156.6355 C 1091.4039,155.8265 1089.0671,156.2015 1088.6945,155.0845 C 1087.0962,155.6225 1083.7573,154.3365 1081.8598,153.9335 C 1078.6492,153.2505 1077.8266,155.0715 1075.2968,155.3005 C 1075.9064,155.0115 1076.2312,154.5135 1076.1660,153.9325 C 1075.0470,153.9045 1074.0066,154.1235 1072.7786,153.7885 C 1073.7945,153.8135 1082.6422,154.0795 1081.1850,152.4575 C 1078.4915,149.4715 1070.6010,151.8055 1068.5818,152.4205 C 1068.8085,152.1635 1069.0205,151.8995 1069.2177,151.6285 C 1068.1304,151.7295 1066.9686,151.7005 1065.8245,151.7005 C 1066.5810,151.6355 1067.2667,151.4905 1067.8815,151.2675 C 1065.4677,150.7635 1063.4450,151.5015 1060.9857,150.7635 C 1062.7665,150.8465 1064.4160,150.6915 1066.1528,150.6915 C 1067.7076,150.6915 1069.4020,151.3855 1070.9283,151.2865 C 1072.4575,151.1865 1073.5534,150.5875 1075.0763,150.4755 C 1076.6336,150.3615 1078.4336,150.4595 1079.0640,149.4675 C 1077.4645,148.9355 1075.9945,149.2215 1074.4312,148.9635 C 1071.9152,148.5495 1069.8682,148.2215 1067.7074,148.6545 C 1066.2138,148.9545 1063.8431,148.5305 1062.6402,149.0175 C 1061.7675,149.3715 1061.4927,150.2125 1060.1302,150.1155 C 1061.3697,149.8495 1060.7007,148.6475 1059.1634,148.6755 C 1060.7392,148.7135 1062.0704,148.2235 1063.7688,148.5155 C 1065.7512,148.8565 1066.6916,148.6515 1067.5584,147.7395 C 1065.2645,147.7895 1062.8799,147.0105 1060.4906,146.5885 C 1061.8588,145.9475 1064.0063,147.3805 1065.6603,147.4715 C 1067.8331,147.5905 1070.2235,148.1925 1072.3098,148.1095 C 1074.2304,148.0335 1075.0149,147.4125 1076.4078,146.8565 C 1077.8254,146.2905 1079.8583,146.4235 1081.6186,146.3015 C 1079.4081,145.4855 1076.1385,144.7085 1074.0570,143.5655 C 1075.5379,143.0085 1078.6820,144.8585 1080.2096,145.5035 C 1082.5660,146.5155 1083.4367,145.3145 1084.6137,144.6475 C 1086.1146,143.7905 1089.0929,144.4275 1091.3651,144.8355 C 1094.7220,145.4445 1097.0691,145.4815 1100.1963,145.4385 C 1097.5760,146.0325 1095.1461,145.6985 1092.0818,145.1185 C 1090.3762,144.8015 1087.0792,144.2135 1086.9281,145.5825 C 1093.7844,147.3595 1099.0213,148.8595 1104.6448,147.0555 C 1106.9637,146.3155 1109.4893,146.8815 1112.2281,146.7375 C 1114.4741,146.6185 1113.3384,146.5015 1113.7024,145.4835 C 1113.9287,144.7865 1115.2029,144.4905 1114.9574,143.6385 C 1111.5726,143.5775 1107.6760,142.4465 1104.4315,142.4685 C 1100.8100,142.4925 1106.0414,144.8755 1103.5559,145.2225 C 1102.8201,142.9485 1101.9331,142.9895 1098.3746,142.3425 C 1099.4652,142.1365 1101.0103,142.3955 1101.2122,141.4785 C 1100.3749,141.0555 1099.5040,140.8155 1098.6015,140.7585 C 1100.5237,140.9795 1102.5365,140.7545 1103.7891,140.1105 C 1103.1779,139.5535 1102.2778,139.1115 1101.3451,138.8865 C 1102.6579,138.7785 1103.9606,139.7915 1105.4832,139.7695 C 1108.3558,139.7275 1111.2688,139.8225 1114.1637,139.8225 C 1115.0382,139.8225 1116.0856,140.7535 1116.9405,140.9745 C 1117.9136,141.2255 1118.8616,141.1545 1119.7860,141.2085 C 1122.4405,141.3675 1123.7723,140.2825 1125.5825,139.5345 C 1124.5087,139.5985 1122.8320,139.1615 1122.7446,138.2375 C 1120.5507,138.2975 1118.9941,139.0665 1116.4676,138.3315 C 1113.9442,137.5985 1111.9162,138.6925 1109.5360,138.4545 C 1110.6880,138.4095 1111.8683,138.3195 1112.6697,137.8785 C 1110.8975,137.0815 1111.9671,136.2325 1112.5261,135.6465 C 1109.8060,135.4225 1107.8323,135.8965 1105.5044,136.2575 C 1103.1488,136.6235 1101.7520,135.2205 1099.4943,135.0695 C 1101.7927,135.1485 1103.3532,136.4155 1105.5994,135.8885 C 1107.9875,135.3305 1111.0173,135.7155 1113.3514,135.1415 C 1109.3297,133.1595 1105.1101,133.5045 1100.9505,132.8375 C 1102.5626,132.9635 1104.0294,132.7905 1105.7000,133.0535 C 1104.0450,132.1375 1102.2041,132.0505 1100.4651,131.8285 C 1102.9423,131.1275 1106.7900,132.8245 1109.6505,133.5575 C 1111.0722,133.9225 1118.1956,133.4515 1117.3985,134.8535 C 1119.0091,135.1825 1120.9745,135.2895 1121.8829,134.5655 C 1122.7513,133.8705 1122.5715,132.2615 1120.5467,131.6145 C 1120.8292,131.4695 1121.1126,131.3255 1121.3961,131.1815 C 1115.6136,128.4115 1108.4291,129.6695 1103.1083,129.6695 C 1105.6341,129.4835 1108.3991,129.6725 1111.0426,129.6855 C 1113.6281,129.6975 1115.7013,129.0245 1118.1993,129.0465 C 1120.8553,129.0705 1118.9632,127.6645 1116.8418,127.7625 C 1114.3334,127.8795 1111.2720,127.0955 1108.9196,127.4365 C 1110.6430,127.6405 1112.3708,128.2805 1114.0905,128.5165 C 1112.5095,128.6385 1110.7992,127.8345 1109.1464,127.6525 C 1107.4054,127.4615 1106.2272,128.1035 1104.4665,127.8695 C 1104.6604,127.6115 1104.8376,127.3475 1105.0007,127.0765 C 1102.9806,126.2445 1100.6404,126.6125 1098.8468,126.6445 C 1100.1512,125.9155 1102.8799,126.9025 1104.3387,126.2855 C 1103.5009,126.2505 1102.7241,126.2985 1102.0042,126.4295 C 1102.6788,126.2805 1103.3796,126.1605 1104.1095,126.0695 C 1103.2072,125.7755 1102.4081,125.7275 1101.7150,125.9255 C 1103.7966,125.6825 1099.9407,125.0205 1099.5009,126.0695 C 1098.9078,125.5215 1097.9835,125.1105 1097.0570,125.0615 C 1097.3493,124.7625 1099.4142,123.8375 1100.0262,123.7985 C 1101.4427,123.7085 1102.6508,124.8025 1103.9707,125.0235 C 1106.3305,125.4185 1108.6450,124.4605 1110.4344,124.0535 C 1108.2837,123.4305 1106.4057,123.8535 1104.3936,123.6935 C 1106.6602,123.2145 1110.4856,124.4345 1112.3173,123.4775 C 1111.4358,123.2115 1110.6246,123.1405 1109.8815,123.2615 C 1113.2059,122.4755 1117.9863,123.1155 1122.0358,123.6325 C 1124.5670,123.9565 1129.8201,124.9175 1131.3083,123.7235 C 1134.2033,121.3855 1126.6126,120.0835 1124.4039,121.2055 C 1123.3191,121.7595 1121.8275,121.1905 1120.6641,120.6525 C 1118.6270,119.7135 1114.4123,120.2905 1112.4647,120.2365 C 1113.8453,119.9175 1115.7199,120.3535 1117.1503,120.0925 C 1114.5704,119.7195 1112.1089,119.7115 1109.5578,119.4455 C 1111.1016,119.3915 1112.8336,119.7475 1114.3212,119.5895 C 1111.1028,119.2175 1115.0246,119.2465 1115.4883,119.3015 C 1113.8921,118.7345 1111.7933,118.5415 1110.3412,118.6535 C 1114.5676,117.6995 1120.0892,119.1785 1124.7554,118.9415 C 1123.1859,117.1915 1116.9015,117.3745 1114.7504,117.1715 C 1112.7030,116.9795 1110.8156,116.4065 1109.0844,116.8605 C 1107.0855,117.3865 1106.8246,119.0205 1104.7406,119.3735 C 1107.5112,118.6565 1102.4498,118.5095 1101.7715,118.5095 C 1102.9199,117.3355 1104.7786,116.5425 1106.7094,115.8455 C 1105.8993,115.8005 1105.0858,115.7525 1104.2719,115.7015 C 1105.5308,115.6245 1107.9277,115.7955 1107.4356,114.6105 C 1107.1214,113.8545 1109.0251,113.1345 1109.8052,112.8935 C 1108.8258,112.4765 1107.9685,112.3795 1107.2358,112.6055 C 1107.7298,112.4165 1111.8036,111.6515 1108.4922,111.4545 C 1109.9509,111.2295 1111.4532,110.7405 1113.2496,110.9155 C 1114.8651,111.0725 1117.3121,111.4475 1117.6283,110.4165 C 1117.9264,109.4605 1119.1826,109.7955 1120.5131,109.5105 C 1121.3560,109.3295 1121.5872,108.7595 1122.4361,108.5735 C 1123.4613,108.3505 1124.1101,109.1325 1124.7001,108.3575 C 1121.8642,107.8945 1121.1125,108.9975 1118.9514,108.8625 C 1119.6478,108.5735 1120.1636,108.1895 1120.4974,107.7105 C 1120.7316,107.4095 1119.5479,107.1365 1120.1617,106.8965 C 1121.9381,106.2055 1121.8982,105.3245 1124.7650,105.3705 C 1129.9511,105.4545 1133.4637,105.0815 1137.4741,103.8215 C 1133.1383,102.2475 1128.7343,103.6365 1124.9613,103.6005 C 1122.9586,103.5815 1120.9164,103.5525 1119.1253,103.7965 C 1118.2079,103.9215 1114.7693,105.4015 1117.4056,105.0455 C 1115.3374,105.5985 1114.3340,104.8415 1112.2202,104.9005 C 1112.9529,104.3485 1116.1025,103.7515 1113.5459,103.4615 C 1116.0423,103.2995 1117.9239,102.5445 1120.5001,102.4575 C 1124.2490,102.3295 1128.5633,102.8945 1132.4126,102.8705 C 1138.1886,102.8335 1143.2849,102.5475 1147.6770,101.1575 C 1140.1734,100.1705 1133.7561,101.2485 1126.4906,100.7885 C 1123.4566,100.5965 1120.2958,100.2755 1117.4773,100.4375 C 1114.3098,100.6195 1111.4641,101.1395 1107.9438,100.8705 C 1113.0328,100.4695 1117.9700,100.1825 1123.5967,100.4845 C 1125.7909,100.6025 1128.0136,100.6875 1129.9700,100.4655 C 1131.5428,100.2875 1132.4201,99.5305 1134.1381,99.5465 C 1138.4915,99.5845 1143.2066,100.2455 1147.3258,99.8615 C 1149.3000,99.6785 1151.0003,99.2485 1153.1541,99.2765 C 1154.9190,99.2995 1157.5202,99.5155 1158.2458,98.5645 C 1157.3337,98.5815 1156.4369,98.3895 1155.5540,97.9885 C 1157.7282,97.4255 1160.6691,97.9465 1163.0946,97.7095 C 1165.0076,97.5225 1166.5963,96.9955 1168.5197,96.8065 C 1171.8724,96.4785 1176.7622,96.5865 1178.8934,95.1095 C 1172.4992,94.8085 1165.8129,93.9425 1159.3282,93.6065 C 1151.4367,93.1995 1144.0220,93.5625 1136.6650,93.9585 C 1137.1028,94.2005 1137.5423,94.4405 1137.9883,94.6785 C 1136.6888,94.6355 1132.7235,95.3255 1135.9397,95.1825 C 1133.9848,95.9515 1130.2301,96.1585 1127.3290,95.9015 C 1125.6737,95.7555 1124.0083,95.3845 1122.4208,95.4205 C 1119.9392,95.4755 1117.9796,96.0755 1115.5588,96.1905 C 1115.4837,95.3625 1116.6666,95.0465 1117.8653,94.8945 C 1111.1705,95.4575 1105.1915,96.4925 1099.2555,97.7065 C 1096.6158,98.2495 1092.9670,98.4615 1090.6495,99.1555 C 1088.1796,99.8995 1086.2096,100.5285 1083.3623,101.0145 C 1083.8987,100.8205 1087.2644,100.1585 1083.8808,100.2225 C 1087.0515,99.7495 1089.5127,98.7235 1092.2029,97.8765 C 1094.3866,97.1925 1097.0840,96.9105 1099.2021,96.1765 C 1100.4449,95.7485 1102.2375,95.1575 1102.3183,94.1795 C 1102.4560,92.6345 1097.0619,92.5545 1095.8539,92.6005 C 1093.3097,92.6975 1090.4067,92.6475 1088.0497,92.9165 C 1085.3405,93.2255 1085.4548,94.7285 1082.2098,94.7545 C 1078.2947,94.7865 1074.9783,95.3195 1071.2188,95.5225 C 1067.5152,95.7225 1063.8105,96.7195 1059.6466,96.3355 C 1060.4911,96.3495 1061.2996,96.3255 1062.0739,96.2635 C 1061.0527,96.0425 1060.0796,95.9225 1059.1570,95.9035 C 1061.3472,94.9415 1065.9294,95.2145 1069.0889,95.0025 C 1071.5989,94.8345 1076.7997,95.1855 1076.9991,93.5275 C 1073.3181,92.2555 1067.3566,93.0125 1064.2524,92.9775 C 1058.6324,92.9135 1052.8305,92.7725 1047.6018,93.1085 C 1037.6108,93.7525 1027.2768,94.0225 1017.6149,94.8955 C 1016.7459,93.1545 1023.2983,93.3385 1025.5771,93.3165 C 1030.6767,93.2675 1036.0028,93.3785 1040.3642,92.6635 C 1036.2493,91.3515 1032.2661,92.0885 1028.9854,92.0885 C 1034.7945,91.6425 1041.9619,92.6135 1047.9289,92.3225 C 1054.9283,91.9825 1062.5415,92.3305 1069.8417,92.3125 C 1076.9040,92.2945 1083.3302,91.5745 1090.4079,91.5605 C 1093.8541,91.5535 1097.2721,91.6385 1100.1813,91.0605 C 1102.2948,90.6425 1105.4615,90.7095 1107.1683,89.9995 C 1099.9291,88.2985 1092.7908,88.7775 1086.7878,89.2075 C 1087.1212,89.0005 1087.4361,88.7845 1087.7325,88.5595 C 1081.8124,87.6065 1077.7946,89.2325 1072.5343,89.1355 C 1075.6008,89.0295 1078.2537,88.5385 1080.8056,87.9835 C 1073.0800,86.2105 1066.7590,87.6245 1060.2192,87.6245 C 1052.0956,87.6245 1043.6664,87.1395 1035.9694,87.5935 C 1029.2986,87.9875 1022.8334,88.0965 1015.8090,88.1885 C 1014.0901,88.2105 1012.8456,88.1875 1011.9621,88.7715 C 1011.7251,88.9295 1008.3639,88.4135 1007.8392,88.4095 C 1004.2459,88.3815 1001.7089,89.1535 998.2575,89.1375 C 998.8494,89.0535 1002.2346,88.6715 999.0074,88.4895 C 1005.9885,87.9245 1013.5815,87.8425 1021.2273,87.8425 C 1018.9614,87.2875 1017.1530,87.4045 1015.1520,87.2665 C 1019.7931,87.2665 1024.9688,87.8245 1029.3398,87.5545 C 1033.7624,87.2825 1038.3185,87.1225 1043.0346,87.1225 C 1053.4406,87.1225 1064.1785,87.4435 1073.8192,86.6185 C 1066.1139,84.9265 1059.7573,85.8095 1053.1601,85.6815 C 1057.1132,85.9445 1050.1030,85.7845 1049.2395,85.6815 C 1050.0613,85.6125 1050.9340,85.5875 1051.8587,85.6095 C 1049.9514,85.2425 1048.9320,85.6645 1047.3233,85.6095 C 1045.5484,85.5495 1043.4884,85.1055 1041.7581,85.1055 C 1038.2345,85.1055 1034.8565,85.2395 1031.2646,85.1775 C 1024.0792,85.0545 1016.6261,84.7215 1010.0231,85.1055 C 1010.6876,85.2485 1011.3510,85.3925 1012.0146,85.5385 C 1010.7445,85.9095 1009.0697,85.1865 1007.4797,85.0345 C 1006.1143,84.9045 1003.8423,85.2475 1002.4669,85.2835 C 997.9854,85.3995 991.8921,84.6345 988.5476,85.5385 C 989.5680,85.6005 990.6630,85.7915 991.8360,86.1135 C 989.1246,86.3475 985.0334,85.3375 982.2098,85.4845 C 979.2498,85.6385 976.6744,86.0425 973.2130,85.8255 C 974.5501,87.5635 985.8357,87.3065 987.3445,87.1935 C 983.5693,87.8445 978.3418,87.3795 974.0553,87.6265 C 977.9326,88.1565 980.7175,87.6135 984.2915,87.8425 C 979.7365,87.8425 974.4583,87.3795 970.7650,88.0585 C 972.2645,88.1625 974.1920,89.0245 975.4685,88.8505 C 974.9520,89.4855 972.2415,88.8325 970.6648,88.5215 C 968.2309,88.0425 966.3377,88.0795 964.3841,88.1195 C 959.9107,88.2095 953.6858,86.8975 949.8432,87.4825 C 953.1445,87.1445 946.5976,86.5755 945.6222,86.5305 C 943.2689,86.4225 940.4788,86.3435 939.0289,86.8345 C 940.0297,86.8175 941.0786,86.8415 942.1753,86.9065 C 940.0211,87.1265 937.2828,86.9065 934.8434,86.9065 C 937.6940,87.4055 939.8793,87.1985 942.5244,87.4825 C 939.1049,87.3765 935.7757,87.3485 932.2735,87.1755 C 928.6494,86.9975 926.0238,87.5795 922.2296,87.2665 C 926.0269,87.8755 929.2811,87.9235 932.8926,88.3465 C 929.8763,88.1665 927.0089,88.1175 924.0217,87.9675 C 920.4727,87.7875 915.9368,87.1035 913.9188,87.9865 C 915.2348,87.9445 916.7957,88.0555 918.5213,88.4195 C 916.5735,88.3565 914.2035,87.9805 912.7333,88.2745 C 915.6103,88.8545 917.9741,88.7885 920.2139,88.7785 C 921.6102,88.7725 923.0259,88.7825 924.3960,88.7565 C 924.8771,88.7475 929.3905,88.8385 925.5672,88.4195 C 933.3123,88.6455 940.6512,88.5525 948.3187,88.7295 C 951.4039,88.8005 954.6805,89.0475 957.7397,89.1005 C 958.7764,89.1185 967.0605,89.5965 964.4175,90.2915 C 967.2315,90.4985 965.6237,91.3085 964.6518,90.9635 C 963.0056,90.3805 961.1665,90.0915 959.6238,89.8635 C 956.5455,89.4095 951.8531,88.7925 950.0443,89.4265 C 950.6295,89.5595 951.2150,89.7025 951.8061,89.8585 C 953.0320,91.6615 949.0105,89.4255 947.9534,89.2755 C 944.8653,88.8365 942.0080,88.9635 939.4733,89.0185 C 936.3524,89.0865 933.1618,89.1045 929.9899,89.1315 C 927.1261,89.1565 923.0188,88.6425 921.2148,89.3555 C 923.7302,89.7375 926.1730,90.0345 928.5733,90.2955 C 929.7885,90.4275 930.9957,90.5515 932.1977,90.6695 C 933.0383,90.7525 937.5839,90.8165 934.7593,91.2995 C 938.8312,91.7125 942.2258,91.5145 946.3066,91.9465 C 942.8490,92.0835 938.7891,91.8625 934.7962,91.5575 C 933.1370,91.4315 931.3966,91.2955 930.0984,91.4555 C 929.3112,91.5535 927.0525,92.4525 930.3102,92.5945 C 929.1920,92.7525 927.6415,92.6815 927.1194,93.1705 C 928.0254,93.2225 928.9258,93.2705 929.8224,93.3145 C 927.6152,93.8845 931.1971,93.9395 931.9862,93.9625 C 928.3971,94.5815 923.7072,94.0885 918.3073,93.1775 C 913.8201,92.4235 910.4237,92.6855 905.9792,91.9485 C 901.8036,91.2595 897.1853,90.9755 893.2283,90.5775 C 887.9219,90.0445 883.3288,90.1815 879.2279,90.5065 C 881.0764,90.9835 881.8345,91.8695 883.5228,92.2795 C 886.2680,92.9465 889.4595,93.1555 891.8204,93.3865 C 889.0692,94.0895 884.3430,93.7925 879.8528,93.3145 C 883.4527,94.1365 886.3510,94.1585 889.9214,94.9705 C 887.7809,95.3965 884.0451,94.4085 880.9127,94.0345 C 877.0028,93.5685 873.3039,93.4475 869.5887,93.1625 C 868.4061,93.0715 866.4509,92.7905 865.6235,92.9385 C 864.5746,93.1265 865.0813,93.9595 863.9789,94.1675 C 862.4315,94.4605 861.1739,95.6835 858.8773,95.4735 C 858.1598,94.2615 861.3650,94.1025 859.9762,92.6755 C 857.8232,90.4475 846.8191,91.5115 845.5030,91.5855 C 849.0182,91.4655 842.0190,91.9515 841.0947,92.0135 C 838.8294,92.1645 836.1773,91.9675 833.8300,92.0685 C 827.5384,92.3395 820.6477,92.2725 815.3927,93.0975 C 817.1524,93.3825 818.2651,93.2215 819.9538,93.4575 C 821.5077,93.6755 823.4095,94.3515 825.0507,94.7075 C 826.8433,95.0975 828.2431,94.9595 829.8569,95.1755 C 832.3134,95.5055 834.9535,96.0445 837.3453,96.3375 C 833.8726,96.4125 828.6613,95.2845 824.8280,95.1685 C 823.1370,95.1175 822.3863,94.9525 820.3155,94.2105 C 818.0825,93.4115 816.2340,93.6865 814.7688,93.6325 C 811.1430,93.4995 807.2345,93.2195 804.2261,93.4555 C 802.3629,93.6015 799.1689,95.3125 805.2040,95.7625 C 804.3834,96.2415 802.0157,96.0405 801.9765,96.8425 C 802.6869,97.0865 803.4002,97.3265 804.1130,97.5625 C 801.6894,98.3885 795.6544,97.4725 791.5009,97.3165 C 789.3527,97.2355 786.5418,96.9985 785.9152,97.6995 C 785.4599,98.2135 788.7938,99.2445 790.1624,99.7955 C 788.2764,99.3045 786.3945,98.5415 784.5017,97.9925 C 781.8122,97.2145 780.1805,98.1515 778.7462,98.2735 C 774.6537,98.6235 772.0501,99.6385 768.1061,100.0405 C 764.8020,100.3765 761.7337,100.7945 758.6854,101.2435 C 757.0451,101.4855 753.2160,101.7145 754.7262,103.1065 C 756.3098,103.0155 759.3033,103.7855 761.1188,103.6655 C 763.0233,103.5395 765.5162,103.8965 767.6760,103.9315 C 772.8096,104.0135 776.0076,102.8275 781.8432,103.3235 C 778.1612,103.2445 773.2458,103.2635 772.9297,104.7555 C 772.7414,105.3845 774.4702,106.3975 774.2395,107.0105 C 773.9322,107.8455 772.0197,108.1135 770.4418,108.3845 C 766.6354,109.0385 763.9594,109.6905 758.3997,109.4035 C 755.2963,109.2435 753.6529,109.6885 751.2164,109.8885 C 748.0157,110.1535 744.0081,109.9985 741.6048,110.6675 C 745.5202,110.9925 741.4602,111.2305 740.9878,111.2665 C 739.2726,111.3995 737.2399,111.3615 735.6656,111.5675 C 734.3798,111.7355 732.7613,111.7325 731.4481,111.8855 C 730.2949,112.0205 730.1730,112.6745 728.9792,112.7445 C 726.5485,112.8885 723.6949,112.6085 721.4743,112.9185 C 720.0224,113.1215 718.1622,113.0985 716.5251,113.2055 C 715.0189,113.3045 715.3217,114.2575 713.7591,114.3395 C 717.4519,114.7555 713.1523,115.5925 711.8985,115.4195 C 714.1758,115.6565 716.8142,116.5585 719.2368,117.0035 C 721.5648,117.4315 723.9314,117.4305 725.4968,117.2915 C 724.9696,117.4705 724.4719,117.6625 724.0007,117.8675 C 728.7774,118.4925 730.8101,117.3015 734.9799,117.5075 C 733.5914,117.9155 731.9119,118.1885 730.1182,118.3715 C 733.4906,119.0805 736.6995,118.8085 738.1630,118.2265 C 737.5615,119.1225 734.6841,118.9735 732.8563,119.2345 C 736.8757,119.8995 740.5511,120.0655 743.5045,119.9115 C 744.9139,119.8375 745.1867,119.7535 744.8579,119.0035 C 744.5470,118.2895 748.1131,119.5715 749.2139,119.6575 C 752.8385,119.9395 754.9053,119.3685 757.1315,118.7995 C 758.6016,118.4245 761.7637,117.8735 765.0589,119.7375 C 764.6034,120.1685 762.6241,120.1455 761.3625,120.1175 C 759.9947,120.0865 761.9788,121.2205 763.2312,121.1055 C 761.0823,121.4585 755.9638,120.3335 753.1904,120.3885 C 749.4601,120.4625 745.5651,120.5525 742.5032,121.0345 C 746.3248,122.1305 749.1995,121.6855 751.6716,121.6245 C 755.6318,121.5265 760.6224,122.2335 763.8215,121.6095 C 761.5115,122.8505 720.2192,120.0035 725.7192,123.1935 C 726.6805,123.0335 728.3929,123.4175 729.4752,123.3385 C 728.8437,123.4515 728.1415,123.5235 727.3684,123.5545 C 734.2864,125.9325 732.7943,122.0195 738.0787,122.9785 C 736.3625,122.9845 734.5047,123.4885 734.7490,124.4135"
         id="path4206" />
      <path
         d="M 883.2132,222.9085 C 882.8149,222.7585 882.5202,222.7825 882.3294,222.9805 C 882.6239,222.9565 882.9192,222.9335 883.2132,222.9085"
         id="path4232" />
      <path
         d="M 882.3380,222.1175 C 882.2185,222.4245 881.8544,222.3065 882.3291,222.8375 C 882.3320,222.5975 882.3356,222.3585 882.3380,222.1175"
         id="path4234" />
      <path
         d="M 890.7711,229.5335 C 890.4786,229.6075 890.2388,229.7275 890.0513,229.8925 C 890.2915,229.7735 890.5319,229.6545 890.7711,229.5335"
         id="path4244" />
      <path
         d="M 892.4739,231.9085 C 892.1952,231.9805 891.9428,232.0765 891.7173,232.1975 C 891.9696,232.1015 892.2220,232.0055 892.4739,231.9085"
         id="path4246" />
      <path
         d="M 894.9395,233.8535 C 894.6375,233.8735 894.3582,233.9205 894.1040,233.9985 C 894.3821,233.9495 894.6608,233.9015 894.9395,233.8535"
         id="path4250" />
      <path
         d="M 897.6319,236.8775 C 897.2756,236.8595 896.9688,236.9075 896.7103,237.0215 C 897.0170,236.9735 897.3251,236.9255 897.6319,236.8775"
         id="path4254" />
      <path
         d="M 926.6874,243.6455 C 926.2770,243.4295 925.5012,244.4805 925.3533,244.5825 C 925.9910,244.4155 926.4358,244.1035 926.6874,243.6455"
         id="path4350" />
      <path
         d="M 932.3529,245.7335 C 932.4726,246.0045 932.7152,246.2455 933.0784,246.4545 C 932.8359,246.2135 932.5938,245.9735 932.3529,245.7335"
         id="path4360" />
      <path
         d="M 937.8419,246.9575 C 937.9371,247.1495 938.0324,247.3415 938.1276,247.5335 C 938.4157,247.3795 938.6495,247.1865 938.8318,246.9575 C 938.4377,246.8195 938.1080,246.8195 937.8419,246.9575"
         id="path4362" />
      <path
         d="M 942.0577,240.0455 C 942.8673,240.3255 943.4807,240.2775 943.8955,239.9005 C 943.2366,239.8735 942.6247,239.9225 942.0577,240.0455"
         id="path4366" />
      <path
         d="M 863.5360,203.7575 C 864.5679,204.0465 865.5390,203.9245 865.0940,203.1095 C 864.3384,203.1375 863.8194,203.3535 863.5360,203.7575"
         id="path4218" />
      <path
         d="M 865.5707,204.9085 C 865.4611,204.2615 864.9561,203.9015 864.3581,204.5495 C 864.7622,204.6695 865.1668,204.7885 865.5707,204.9085"
         id="path4220" />
      <path
         d="M 870.5061,206.8535 C 870.0331,206.7905 869.7677,206.9105 869.7090,207.2135 C 869.9742,207.0935 870.2394,206.9735 870.5061,206.8535"
         id="path4224" />
      <path
         d="M 877.8103,213.3335 C 876.9269,212.9045 876.2930,213.3475 876.2129,213.7655 C 876.8957,213.7685 877.4274,213.6235 877.8103,213.3335"
         id="path4230" />
      <path
         d="M 879.5048,211.5335 C 878.0130,211.1295 877.1139,212.3845 876.4574,212.8285 C 878.0531,212.8665 879.0863,212.4705 879.5048,211.5335"
         id="path4236" />
      <path
         d="M 881.8146,211.7495 C 879.1960,210.5885 879.2487,213.4995 878.4137,214.1255 C 879.9897,213.6965 880.8631,212.6295 881.8146,211.7495"
         id="path4240" />
      <path
         d="M 899.2276,236.3015 C 898.5139,236.1755 897.9433,236.2475 897.5200,236.5175 C 898.2339,236.6395 898.8035,236.5685 899.2276,236.3015"
         id="path4258" />
      <path
         d="M 905.1009,240.6935 C 903.7736,240.2595 902.7218,240.5015 901.7683,240.7655 C 903.0478,242.0265 905.0014,241.7585 905.1009,240.6935"
         id="path4264" />
      <path
         d="M 901.7546,238.3895 C 901.4748,238.4855 901.1938,238.5815 900.9141,238.6775 C 901.5219,238.6255 902.1321,238.5775 902.7458,238.5335 C 902.4160,238.4865 902.0850,238.4375 901.7546,238.3895"
         id="path4266" />
      <path
         d="M 917.0013,239.9735 C 916.9559,239.8295 916.9106,239.6855 916.8665,239.5415 C 915.3691,239.6675 913.3917,240.0695 912.8269,241.0535 C 913.8585,240.3205 915.7629,240.5045 917.0013,239.9735"
         id="path4326" />
      <path
         d="M 916.4875,240.9085 C 915.8221,240.9715 915.2865,241.1625 914.8812,241.4845 C 915.5437,241.4195 916.0792,241.2285 916.4875,240.9085"
         id="path4328" />
      <path
         d="M 919.1082,241.4135 C 918.3553,241.3945 917.7736,241.5625 917.3633,241.9175 C 918.0495,241.8645 918.6323,241.6965 919.1082,241.4135"
         id="path4334" />
      <path
         d="M 925.0592,244.0055 C 923.3022,243.7275 923.4476,244.5715 923.2943,245.5175 C 924.1246,245.2045 924.9814,244.8165 925.0592,244.0055"
         id="path4340" />
      <path
         d="M 926.1091,243.5745 C 925.8611,243.6955 925.5613,243.7985 925.4226,244.0055 C 925.6529,243.8625 925.8816,243.7185 926.1091,243.5745"
         id="path4352" />
      <path
         d="M 930.0839,246.9575 C 930.9538,247.0375 931.8123,246.9805 932.3340,246.5975 C 931.1208,245.5595 930.0219,246.0505 930.0839,246.9575"
         id="path4354" />
      <path
         d="M 931.8007,246.9575 C 931.5967,247.1495 931.3928,247.3415 931.1890,247.5335 C 932.2233,248.0555 933.0309,247.1865 933.8683,246.9575 C 933.0950,246.7875 932.4044,246.7875 931.8007,246.9575"
         id="path4356" />
      <path
         d="M 934.6463,248.6855 C 935.3913,248.6125 935.9223,248.3485 936.2397,247.8935 C 934.3313,247.0665 933.5431,247.3985 933.0121,248.4695 C 933.7676,248.5045 934.3005,248.3125 934.6125,247.8935 C 934.6240,248.1565 934.6354,248.4215 934.6463,248.6855"
         id="path4358" />
      <path
         d="M 939.0198,246.9575 C 938.9556,247.1975 938.8898,247.4365 938.8250,247.6775 C 939.0530,247.4905 939.1184,247.2505 939.0198,246.9575"
         id="path4364" />
      <path
         d="M 947.8495,227.5175 C 948.2996,226.8235 948.0289,226.5825 947.0346,226.7975 C 947.3063,227.0375 947.5780,227.2775 947.8495,227.5175"
         id="path4368" />
      <path
         d="M 952.5728,224.4925 C 953.0038,224.2115 953.2264,223.8275 953.2424,223.3415 C 952.6007,223.4795 952.3000,223.9075 952.5728,224.4925"
         id="path4370" />
      <path
         d="M 955.2461,222.5495 C 955.0801,221.9265 954.7537,221.9035 954.2647,222.4775 C 954.5915,222.5015 954.9181,222.5255 955.2461,222.5495"
         id="path4372" />
      <path
         d="M 934.5086,246.9575 C 934.7902,246.8615 935.0731,246.7655 935.3549,246.6695 C 934.6556,246.6975 933.9410,246.5295 933.2094,246.1655 C 933.7134,245.3925 939.5402,245.6855 940.2854,246.9575 C 939.3615,246.9745 938.3518,246.6285 937.3806,246.3815 C 938.5864,248.0925 935.7750,247.3835 934.5086,246.9575"
         id="path4534" />
      <path
         d="M 946.2032,225.8625 C 946.0989,224.6805 948.0670,224.9965 949.3213,225.2145 C 948.3924,225.5475 947.4068,225.8835 946.2032,225.8625"
         id="path4536" />
      <path
         d="M 950.3881,220.1015 C 950.3759,219.2965 951.3419,219.0805 952.3583,219.9575 C 951.5158,219.6195 950.6858,219.6265 950.3881,220.1015"
         id="path4538" />
      <path
         d="M 1110.3419,127.0765 C 1111.4730,127.1215 1112.6635,127.4625 1113.8022,127.7975 C 1112.6531,127.6115 1111.4943,127.3685 1110.3419,127.0765"
         id="path4544" />
    </g>
  </g>
  
  
  
  
  
  
  
  
  
  
  
  
  
  
  
  
  
  
  
  
  
  
  
  
  
  
  
  
  
  
  
  
  
  
  
  
  
  
  
  
  
  
  
  
  
  
  
  
  
  
  
  
  
  
  
  
  
  
  
  
  
  
  
  
  
  
  
  
  
  
  
  
  
  
  
  
  
  
  
  
  
  
  
  
  
  
  
  
  
  
  
  
  
  
  
  
  
  
  
  
  
  
  
  
  
  
  
  
  
  
  
  
  
  
  
  
  
  
  
  
  
  
  
  
  
  
  
  
  
  
  
  
  
  
  
  
  
  
  
  
  
  
  
  
  
  
  
  
  
  
  
  
  
  
  
  
  
  
  
  
  
  
  
  
  
  
  
  
  
  
  
  
  
  
  
</svg>
