<?xml version="1.0" encoding="UTF-8" standalone="no"?>
<svg
   xmlns:dc="http://purl.org/dc/elements/1.1/"
   xmlns:cc="http://web.resource.org/cc/"
   xmlns:rdf="http://www.w3.org/1999/02/22-rdf-syntax-ns#"
   xmlns:svg="http://www.w3.org/2000/svg"
   xmlns="http://www.w3.org/2000/svg"
   xmlns:sodipodi="http://sodipodi.sourceforge.net/DTD/sodipodi-0.dtd"
   xmlns:inkscape="http://www.inkscape.org/namespaces/inkscape"
   viewBox="0 0 2752.766 1537.631"
   version="1.0"
   height="476.7276"
   width="939.74725"
   id="svg1926"
   sodipodi:version="0.32"
   inkscape:version="0.45.1"
   sodipodi:docname="BlankMap-World6.svg"
   sodipodi:docbase="/home/bennett/Desktop"
   inkscape:output_extension="org.inkscape.output.svg.inkscape">
  <sodipodi:namedview
     inkscape:window-height="590"
     inkscape:window-width="822"
     inkscape:pageshadow="2"
     inkscape:pageopacity="0.0"
     guidetolerance="10.0"
     gridtolerance="10.0"
     objecttolerance="10.0"
     borderopacity="1.0"
     bordercolor="#666666"
     pagecolor="#ffffff"
     id="base"
     inkscape:zoom="0.77893284"
     inkscape:cx="469.87363"
     inkscape:cy="238.3638"
     inkscape:window-x="178"
     inkscape:window-y="46"
     inkscape:current-layer="svg1926" />
  <metadata
     id="metadata24111">
    <rdf:RDF>
      <cc:Work
         rdf:about="">
        <dc:format>image/svg+xml</dc:format>
        <dc:type
           rdf:resource="http://purl.org/dc/dcmitype/StillImage" />
        <cc:license
           rdf:resource="http://web.resource.org/cc/PublicDomain" />
        <dc:title>Blank World Map</dc:title>
      </cc:Work>
      <cc:License
         rdf:about="http://web.resource.org/cc/PublicDomain">
        <cc:permits
           rdf:resource="http://web.resource.org/cc/Reproduction" />
        <cc:permits
           rdf:resource="http://web.resource.org/cc/Distribution" />
        <cc:permits
           rdf:resource="http://web.resource.org/cc/DerivativeWorks" />
      </cc:License>
    </rdf:RDF>
  </metadata>
  <defs
     id="defs1930" />
  <style
     type="text/css"
     id="style_css_sheet">
/*
 * Below are Cascading Style Sheet (CSS) definitions in use in this file,
 * which allow easily changing how countries are displayed.
 *
 */

/*
 * Circles around small countries
 *
 * Change opacity to 1 to display all circles.
 *
 */
.circle
{
   opacity:0;
   fill:#b9b9b9;
   fill-opacity:1;
   stroke:black;
   stroke-width:0.99986893;
   stroke-miterlimit:3.97446823;
   stroke-dasharray:none;
   stroke-opacity:1;
}

/*
 * Land
 */
.land
{
   fill: #b9b9b9;
   fill-opacity: 1;
   stroke: #ffffff;
   stroke-opacity: 1;
   stroke-width: 0.99986997;
   stroke-miterlimit: 3.97446823;
   stroke-dasharray: none;
}

/*
 * Additional style rules
 *
 * The following are examples of colouring countries.  You can substitute these with your own styles to colour the countries on the map.
 *
 * Color a few countries:
 *
 * .gb, .au, .nc
 * {
 *    fill:       #ff0000;
 * }
 *
 * Color a few small country circles (and the countries):
 *
 * .ms, .ky
 * {
 *    opacity:    1;
 *    fill:       #ff0000;
 * }
 *
 */

/*
 * Antarctica
 */

.aq
{
   fill:#e6e6e6;
}

/*
 * Sea
 */

.ocean
{
   opacity: 1;
   color: #000000;
   fill:white;
   fill-opacity:1;
   fill-rule:nonzero;
   stroke:#000000;
   stroke-width:0.5;
   stroke-linecap:butt;
   stroke-linejoin:miter;
   marker:none;
   marker-start:none;
   marker-mid:none;
   marker-end:none;
   stroke-miterlimit:1;
   stroke-dasharray:none;
   stroke-dashoffset:0;
   stroke-opacity:1;
   visibility:visible;
   display:inline;
   overflow:visible;
}

.lake
{
   fill:#ffffff;
   fill-opacity:1;
   stroke:#ffffff;
   stroke-opacity:1;
   stroke-width:0.99986997;
   stroke-miterlimit:3.97446823;
   stroke-dasharray:none;
}
</style>
  
  
  
  
  
  
  
  
  
  
  
  
  
  
  
  
  
  
  
  
  
  
  
  
  
  
  
  
  
  
  
  
  
  
  
  
  
  
  
  
  
  
  
  
  
  
  
  
  
  
  
  
  
  
  
  
  
  
  
  
  
  
  
  
  
  
  
  
  
  
  
  
  
  
  
  
  
  
  
  
  
  <g
     class="land gn"
     id="gn">
    <path
       d="M 1155.6386,664.7735 C 1155.2175,665.3215 1155.2809,666.2235 1156.1097,666.3575 C 1155.8743,665.7745 1155.9826,665.2705 1156.4349,664.8455 C 1156.1698,664.8215 1155.9037,664.7975 1155.6386,664.7735"
       id="path5380" />
    <path
       d="M 1155.7758,664.6295 C 1156.7484,663.3875 1156.5992,661.3525 1157.8444,660.2935 C 1158.6886,659.5765 1160.3548,659.4305 1161.3717,658.8965 C 1162.3858,658.3635 1163.4639,659.0095 1164.5037,658.4535 C 1165.1878,658.0875 1165.7242,657.4325 1165.6398,656.6125 C 1165.5136,655.3825 1164.3671,655.2715 1163.9029,654.3725 C 1163.7077,653.9955 1166.0906,652.8255 1166.0205,651.8895 C 1165.8750,649.9655 1165.8254,649.5235 1168.1208,649.9535 C 1168.5651,650.0365 1170.8451,650.1135 1170.7766,650.6915 C 1170.6761,651.5455 1171.0749,651.7165 1171.7996,651.2855 C 1172.3723,650.9445 1173.6623,652.1805 1174.1104,652.4915 C 1174.0490,652.4485 1176.2895,653.0065 1176.2483,653.0105 C 1177.3068,652.9095 1177.9938,652.4035 1179.1510,652.4835 C 1180.5826,652.5835 1182.0887,651.5915 1183.4670,652.1745 C 1182.4773,653.7235 1182.3901,654.6955 1184.1686,655.6625 C 1185.4843,656.3775 1185.7840,653.5825 1186.8722,653.8495 C 1188.5506,654.2625 1187.9557,657.9415 1190.1249,655.3245 C 1192.4212,652.5565 1193.0432,655.5875 1195.6470,655.3185 C 1196.3525,655.2455 1196.7880,654.6375 1197.2660,654.2015 C 1197.7104,653.7955 1199.0097,653.7475 1199.2011,653.3205 C 1199.5441,652.5535 1198.4905,650.7135 1200.1983,651.5075 C 1200.8436,651.8075 1202.1863,652.2835 1201.9279,653.2255 C 1201.8411,653.5405 1202.3311,655.3015 1202.6197,655.4435 C 1203.5159,655.8855 1202.7125,659.3295 1203.8959,658.6545 C 1204.1024,660.0955 1206.3114,660.1565 1206.5324,661.4775 C 1206.6304,662.0605 1205.6551,661.8685 1205.2403,662.3525 C 1204.6669,663.0195 1204.3667,663.9345 1204.1497,664.7745 C 1205.0235,664.8165 1205.3288,663.7945 1206.1795,663.9455 C 1207.5387,664.1865 1207.0079,665.7195 1206.9951,666.6865 C 1206.9850,667.4135 1206.8641,669.1945 1208.0221,669.1915 C 1208.2834,669.1905 1209.7199,670.4555 1209.7291,670.6885 C 1209.7634,671.5555 1209.1156,672.3145 1208.5365,672.8625 C 1208.0010,673.3695 1208.3863,674.4155 1208.3852,675.0935 C 1208.3839,676.3765 1208.3070,679.3695 1210.3964,678.0225 C 1210.0178,680.0035 1210.2279,679.7155 1211.3690,681.0465 C 1210.0137,681.2495 1210.0195,682.3705 1209.6552,683.4225 C 1211.7130,683.7595 1211.5360,685.5185 1212.0687,687.0945 C 1211.0589,686.6375 1208.3709,685.0105 1207.6264,686.6725 C 1207.0402,687.9815 1209.0681,689.2365 1209.7204,690.1905 C 1208.1452,689.3555 1208.6825,692.5105 1208.3734,693.0105 C 1207.6743,694.1415 1207.9825,694.0715 1206.7643,694.0055 C 1206.3238,693.9825 1205.2620,694.1145 1205.0965,693.5065 C 1204.5978,691.6815 1203.7432,694.3815 1203.4706,694.9965 C 1202.8706,696.3525 1202.3068,696.7285 1200.8348,697.3185 C 1200.7353,695.6395 1199.3567,695.3725 1198.0021,695.8795 C 1198.3667,694.7805 1198.6789,693.6515 1198.7079,692.4845 C 1198.7183,692.0395 1198.6862,689.5265 1198.1619,690.0475 C 1198.6442,688.4875 1197.5531,686.8135 1196.4624,685.8655 C 1195.9621,685.4315 1195.4876,685.2575 1194.9624,685.7975 C 1194.0741,686.7115 1194.0853,685.9805 1193.0193,685.8595 C 1192.2778,685.7755 1191.4449,686.1485 1190.8298,686.5185 C 1190.4510,686.7475 1188.8398,687.5965 1188.6783,687.9585 C 1188.5097,686.5095 1190.2747,685.5895 1190.1490,684.1925 C 1190.0404,682.9875 1189.5390,681.4855 1188.6962,680.7085 C 1188.1728,680.2265 1189.1408,679.6955 1188.8436,679.1555 C 1188.5034,678.5385 1187.9458,678.3175 1187.6230,677.5765 C 1186.9690,676.0905 1186.0275,673.7335 1184.3157,673.1555 C 1183.3170,672.8185 1181.9626,673.0545 1180.9297,673.0545 C 1179.6337,673.0545 1179.3428,673.7795 1178.2091,673.9905 C 1176.2191,674.3605 1176.0455,673.3145 1174.7808,675.1855 C 1173.9872,676.3595 1173.8829,678.2225 1172.6383,679.0735 C 1171.9085,679.5725 1171.5135,679.8685 1171.0710,680.6975 C 1170.5353,681.7035 1169.5759,680.7545 1168.8703,681.4065 C 1168.7786,680.7355 1169.2062,680.2475 1169.8690,680.1825 C 1169.7189,679.9045 1169.5222,679.6645 1169.2777,679.4625 C 1169.1019,679.6945 1168.9372,679.9345 1168.7847,680.1825 C 1168.7165,679.7035 1168.6874,679.2245 1168.6965,678.7425 C 1168.4327,678.7665 1168.1679,678.7905 1167.9042,678.8145 C 1168.1199,677.9235 1166.8117,677.7545 1167.3567,676.8715 C 1166.0571,678.2045 1166.6289,674.7545 1166.1451,674.4235 C 1166.2288,675.0015 1165.9093,675.2125 1165.3666,675.0705 C 1165.5858,674.5625 1165.7413,674.0345 1165.8321,673.4865 C 1165.5453,674.5465 1164.8355,674.1785 1164.1694,673.7035 C 1163.2222,673.0275 1163.6963,672.5485 1163.3267,671.6155 C 1162.8354,671.7925 1162.5088,672.1285 1162.3456,672.6235 C 1162.1922,670.8095 1158.3407,670.9635 1159.3568,668.6635 C 1159.0309,668.7815 1158.6939,668.8535 1158.3467,668.8795 C 1158.8932,667.8225 1159.2560,666.6445 1159.5622,665.4945 C 1159.1343,665.9315 1158.8105,666.4345 1158.5931,667.0075 C 1158.4451,665.8365 1157.9921,666.4375 1157.6479,667.0075 C 1157.4588,666.2175 1157.3056,664.5445 1158.3041,664.1995 C 1157.5061,664.6435 1156.6617,664.6215 1155.7758,664.6295"
       id="path5400" />
  </g>
  
  
  
  
  
  
  
  
  
  
  
  
  
  
  
  
  
  
  
  
  
  
  
  
  
  
  
  
  
  
  
  
  
  
  
  
  
  
  
  
  
  
  
  
  
  
  
  
  
  
  
  
  
  
  
  
  
  
  
  
  
  
  
  
  
  
  
  
  
  
  
  
  
  
  
  
  
  
  
  
  
  
  
  
  
  
  
  
  
  
  
  
  
  
  
  
  
  
  
  
  
  
  
  
  
  
  
  
  
  
  
  
  
  
  
  
  
  
  
  
  
  
  
  
  
  
  
  
  
  
  
  
  
  
  
  
  
  
  
  
  
  
  
  
  
  
  
  
  
  
</svg>
