<?xml version="1.0" encoding="UTF-8" standalone="no"?>
<svg
   xmlns:dc="http://purl.org/dc/elements/1.1/"
   xmlns:cc="http://web.resource.org/cc/"
   xmlns:rdf="http://www.w3.org/1999/02/22-rdf-syntax-ns#"
   xmlns:svg="http://www.w3.org/2000/svg"
   xmlns="http://www.w3.org/2000/svg"
   xmlns:sodipodi="http://sodipodi.sourceforge.net/DTD/sodipodi-0.dtd"
   xmlns:inkscape="http://www.inkscape.org/namespaces/inkscape"
   viewBox="0 0 2752.766 1537.631"
   version="1.0"
   height="476.7276"
   width="939.74725"
   id="svg1926"
   sodipodi:version="0.32"
   inkscape:version="0.45.1"
   sodipodi:docname="BlankMap-World6.svg"
   sodipodi:docbase="/home/bennett/Desktop"
   inkscape:output_extension="org.inkscape.output.svg.inkscape">
  <sodipodi:namedview
     inkscape:window-height="590"
     inkscape:window-width="822"
     inkscape:pageshadow="2"
     inkscape:pageopacity="0.0"
     guidetolerance="10.0"
     gridtolerance="10.0"
     objecttolerance="10.0"
     borderopacity="1.0"
     bordercolor="#666666"
     pagecolor="#ffffff"
     id="base"
     inkscape:zoom="0.77893284"
     inkscape:cx="469.87363"
     inkscape:cy="238.3638"
     inkscape:window-x="178"
     inkscape:window-y="46"
     inkscape:current-layer="svg1926" />
  <metadata
     id="metadata24111">
    <rdf:RDF>
      <cc:Work
         rdf:about="">
        <dc:format>image/svg+xml</dc:format>
        <dc:type
           rdf:resource="http://purl.org/dc/dcmitype/StillImage" />
        <cc:license
           rdf:resource="http://web.resource.org/cc/PublicDomain" />
        <dc:title>Blank World Map</dc:title>
      </cc:Work>
      <cc:License
         rdf:about="http://web.resource.org/cc/PublicDomain">
        <cc:permits
           rdf:resource="http://web.resource.org/cc/Reproduction" />
        <cc:permits
           rdf:resource="http://web.resource.org/cc/Distribution" />
        <cc:permits
           rdf:resource="http://web.resource.org/cc/DerivativeWorks" />
      </cc:License>
    </rdf:RDF>
  </metadata>
  <defs
     id="defs1930" />
  <style
     type="text/css"
     id="style_css_sheet">
/*
 * Below are Cascading Style Sheet (CSS) definitions in use in this file,
 * which allow easily changing how countries are displayed.
 *
 */

/*
 * Circles around small countries
 *
 * Change opacity to 1 to display all circles.
 *
 */
.circle
{
   opacity:0;
   fill:#b9b9b9;
   fill-opacity:1;
   stroke:black;
   stroke-width:0.99986893;
   stroke-miterlimit:3.97446823;
   stroke-dasharray:none;
   stroke-opacity:1;
}

/*
 * Land
 */
.land
{
   fill: #b9b9b9;
   fill-opacity: 1;
   stroke: #ffffff;
   stroke-opacity: 1;
   stroke-width: 0.99986997;
   stroke-miterlimit: 3.97446823;
   stroke-dasharray: none;
}

/*
 * Additional style rules
 *
 * The following are examples of colouring countries.  You can substitute these with your own styles to colour the countries on the map.
 *
 * Color a few countries:
 *
 * .gb, .au, .nc
 * {
 *    fill:       #ff0000;
 * }
 *
 * Color a few small country circles (and the countries):
 *
 * .ms, .ky
 * {
 *    opacity:    1;
 *    fill:       #ff0000;
 * }
 *
 */

/*
 * Antarctica
 */

.aq
{
   fill:#e6e6e6;
}

/*
 * Sea
 */

.ocean
{
   opacity: 1;
   color: #000000;
   fill:white;
   fill-opacity:1;
   fill-rule:nonzero;
   stroke:#000000;
   stroke-width:0.5;
   stroke-linecap:butt;
   stroke-linejoin:miter;
   marker:none;
   marker-start:none;
   marker-mid:none;
   marker-end:none;
   stroke-miterlimit:1;
   stroke-dasharray:none;
   stroke-dashoffset:0;
   stroke-opacity:1;
   visibility:visible;
   display:inline;
   overflow:visible;
}

.lake
{
   fill:#ffffff;
   fill-opacity:1;
   stroke:#ffffff;
   stroke-opacity:1;
   stroke-width:0.99986997;
   stroke-miterlimit:3.97446823;
   stroke-dasharray:none;
}
</style>
  
  
  
  
  
  
  
  
  
  
  
  
  
  
  
  
  
  
  
  
  
  
  
  
  
  
  
  
  
  
  
  
  
  
  
  
  
  
  
  
  
  
  
  
  
  
  
  
  
  
  
  
  
  
  
  
  
  
  
  
  
  
  
  
  
  
  
  
  
  
  
  
  
  
  
  
  
  
  
  
  
  
  
  
  
  
  
  
  
  
  
  
  
  
  
  
  
  
  
  
  
  
  
  
  
  
  
  
  
  
  
  
  
  
  
  
  
  
  
  
  
  
  
  
  
  
  
  
  
  
  
  
  
  
  
  
  
  
  
  
  
  <g
     class="land gr"
     id="gr">
    <path
       d="M 1423.5473,416.3736 C 1424.1142,416.4936 1424.8508,416.5965 1425.4152,416.3515 C 1426.6163,415.8306 1424.7113,415.1255 1426.4885,415.2935 C 1425.9224,413.8526 1425.4926,413.9045 1427.0256,413.1565 C 1427.9925,412.6855 1428.6609,412.0306 1429.0423,411.0815 C 1429.5690,409.7715 1430.0781,409.8865 1431.0291,408.9495 C 1431.9489,408.0455 1430.7193,407.2215 1430.8128,406.2935 C 1431.9060,406.2416 1432.8927,405.9805 1433.9615,405.7865 C 1435.0008,405.5985 1435.9103,406.2475 1436.9265,405.5415 C 1437.9842,404.8066 1438.2814,403.8306 1439.7748,403.6696 C 1441.2377,403.5125 1442.2055,403.9486 1443.6643,403.5025 C 1444.5955,403.2176 1444.0814,402.2595 1445.2997,402.1526 C 1446.1523,402.0775 1447.1394,402.9133 1447.9233,402.4273 C 1448.9814,401.7763 1450.4853,402.1713 1451.6422,402.0293 C 1452.7982,401.8873 1453.9729,400.7246 1455.0928,400.4065 C 1455.9741,400.1556 1457.4729,399.7126 1458.1683,400.4275 C 1458.7759,401.0516 1459.1974,402.2176 1460.4190,401.8705 C 1461.7416,401.4955 1462.4596,402.4196 1463.6618,402.6386 C 1464.7366,402.8336 1465.7584,402.2115 1466.8462,402.2516 C 1467.8251,402.2876 1469.1531,402.5555 1470.0525,401.9545 C 1471.1763,401.2056 1470.0897,400.2676 1469.8480,399.4946 C 1469.4159,398.1085 1472.2496,399.0575 1472.5835,399.2366 C 1473.6489,399.8025 1473.7062,400.9035 1474.0407,401.9026 C 1470.5999,402.4296 1472.5327,406.0115 1469.4930,407.3025 C 1470.0316,406.1526 1464.2952,405.9196 1463.4237,405.5956 C 1461.7276,404.9656 1461.7344,405.2835 1460.1193,406.2226 C 1459.0065,406.8696 1458.1273,405.0285 1457.0836,405.4916 C 1455.6205,406.1415 1455.4602,407.8856 1453.3444,407.1615 C 1451.7587,406.6196 1451.8320,407.3216 1452.1931,408.3105 C 1452.3890,408.8456 1453.2613,408.4486 1452.7544,409.2176 C 1452.4103,409.7396 1453.0597,410.3585 1453.5157,409.9325 C 1454.4475,409.0655 1456.5039,411.8465 1456.9513,412.3426 C 1455.6765,412.9645 1454.2569,410.5186 1452.9822,410.4196 C 1450.0393,410.1936 1453.8094,412.8716 1453.9078,413.6386 C 1452.5075,414.0496 1451.1987,411.8256 1450.0803,411.4035 C 1449.1444,411.0505 1448.9895,411.6116 1449.3166,412.2736 C 1449.7940,413.2405 1450.8133,413.4826 1451.6113,414.1426 C 1449.5541,414.9196 1449.1574,413.2885 1448.6419,412.1245 C 1448.0603,410.8116 1445.9407,410.6375 1445.0729,409.5346 C 1445.6899,409.3716 1446.0224,408.9656 1445.9198,408.3825 C 1441.5229,408.9336 1443.2879,413.4026 1444.7884,415.3496 C 1445.5844,416.3836 1450.9217,421.1216 1446.9029,421.4855 C 1448.6491,420.9336 1447.1490,418.7665 1445.8683,419.1096 C 1444.1950,419.5575 1445.4626,422.4035 1446.8029,421.9185 C 1445.9096,422.9185 1444.4900,423.5206 1443.1525,423.1426 C 1444.0203,423.5655 1446.4475,424.1916 1446.7784,424.9986 C 1447.0446,425.6465 1447.9493,424.5956 1448.3901,425.2556 C 1448.8047,425.8786 1447.6608,425.9436 1449.2078,426.3546 C 1450.8369,426.7876 1451.8058,427.6716 1453.3287,428.3225 C 1454.4528,428.8035 1454.3305,429.7036 1454.1255,430.7106 C 1453.9007,431.8206 1454.8620,432.8105 1454.1826,433.8716 C 1452.9283,432.9026 1451.8862,431.2346 1450.1436,430.9275 C 1448.8719,430.7036 1447.5732,431.6535 1446.3478,431.5666 C 1446.2705,432.5616 1447.3051,431.6626 1447.3146,432.7285 C 1447.3212,433.4196 1448.4483,435.8926 1448.7625,434.0876 C 1449.0006,434.5815 1450.3619,435.1205 1449.8118,435.8155 C 1449.9389,435.6545 1447.4376,436.8155 1447.8260,436.8236 C 1446.7387,436.8025 1447.5345,435.7695 1446.7189,435.4586 C 1445.9135,435.1515 1444.9169,435.0815 1444.2535,434.5195 C 1444.0194,436.2946 1445.7314,437.8625 1446.2711,439.4495 C 1446.5910,440.3936 1447.0330,441.2106 1446.7107,442.2135 C 1446.4314,443.0985 1447.8588,443.3566 1447.6139,444.1855 C 1447.5050,444.5535 1444.9079,441.9896 1444.6957,441.6465 C 1443.4483,439.6286 1442.0949,442.8456 1442.4411,444.0236 C 1441.2761,444.1785 1441.0157,441.1055 1440.2043,440.5546 C 1439.6837,440.2015 1439.9427,439.2255 1439.0645,439.3075 C 1437.9176,439.4146 1438.0434,440.7745 1438.1068,441.5036 C 1435.8161,441.1365 1435.1419,438.6476 1436.1559,436.8655 C 1436.9824,435.4165 1432.5602,432.6345 1431.8715,431.6386 C 1432.8018,431.3696 1433.3202,430.1676 1434.0080,429.5935 C 1434.6794,429.0346 1435.4030,429.6375 1436.1380,429.0625 C 1436.6428,428.6676 1437.2208,427.7595 1437.9900,427.8986 C 1439.3991,428.1535 1440.2957,429.5106 1441.8678,429.6415 C 1443.0928,429.7436 1443.8513,430.5795 1444.8176,431.1356 C 1445.5834,431.5765 1446.0151,430.6995 1446.8617,430.2396 C 1447.5447,429.8675 1448.4681,429.3186 1446.9984,429.1486 C 1446.1977,429.0555 1445.5020,429.1685 1444.7892,428.7416 C 1443.9750,428.2536 1443.8438,427.3865 1443.1083,428.3986 C 1442.7453,427.8766 1442.3032,427.4196 1441.7809,427.0306 C 1441.8066,428.9015 1438.9993,427.4226 1438.1680,427.5935 C 1436.0468,428.0306 1434.6781,428.6406 1433.6484,426.8155 C 1433.4706,427.4706 1432.7983,427.9545 1432.1910,428.2556 C 1431.8506,427.0675 1431.5860,425.7686 1430.4945,424.9905 C 1429.9170,424.5795 1428.2844,423.4645 1429.1841,422.6386 C 1429.5234,422.3265 1433.7304,423.5706 1431.8636,421.9185 C 1431.2861,421.4096 1429.0263,421.2835 1429.1119,422.5655 C 1428.5537,420.8206 1426.8151,420.5716 1425.6392,419.4436 C 1424.8129,418.6515 1425.0459,416.4955 1423.5473,416.3736"
       id="path6492" />
    <path
       d="M 1467.1690,412.8456 C 1466.6029,411.8965 1468.6797,410.8786 1469.0056,411.8666 C 1469.1943,412.4405 1467.5484,412.8216 1467.1690,412.8456"
       id="path3606" />
    <path
       d="M 1476.5906,442.2935 C 1475.4183,441.1895 1478.6012,440.2206 1479.4172,440.4216 C 1478.7259,440.9115 1476.7171,441.3465 1476.5906,442.2935"
       id="path3608" />
    <path
       d="M 1423.3111,418.3175 C 1423.5886,418.4855 1423.8670,418.6535 1424.1443,418.8216 C 1422.6202,419.0915 1420.7319,416.6975 1420.8546,415.4375 C 1423.9019,415.1615 1421.2065,417.6836 1423.3111,418.3175"
       id="path6518" />
    <path
       d="M 1427.4194,427.6055 C 1427.4300,427.3655 1427.4407,427.1266 1427.4514,426.8856 C 1427.9934,427.3145 1427.6772,428.0765 1428.1881,428.4696 C 1428.7497,428.9035 1429.2884,429.3596 1429.4729,430.0535 C 1428.7844,430.2985 1426.9379,430.0915 1427.0402,429.1175 C 1426.7776,429.2645 1426.5120,429.4085 1426.2466,429.5496 C 1425.5534,428.2505 1426.8948,428.4635 1427.4194,427.6055"
       id="path6520" />
    <path
       d="M 1428.6745,423.6456 C 1429.0558,424.0906 1428.8776,426.1945 1427.9705,425.5616 C 1427.4435,425.1945 1427.8632,423.4966 1428.6745,423.6456"
       id="path6522" />
    <path
       d="M 1428.8577,428.1816 C 1428.4916,427.7536 1428.2289,427.2736 1428.0718,426.7416 C 1428.4470,427.1646 1428.7086,427.6445 1428.8577,428.1816"
       id="path6524" />
    <path
       d="M 1429.7590,433.8696 C 1429.0265,433.4386 1428.0946,432.8005 1428.2296,431.8526 C 1429.8615,431.8485 1430.7834,432.6526 1429.7590,433.8696"
       id="path6526" />
    <path
       d="M 1445.9444,444.8136 C 1446.4419,445.3926 1447.1585,446.4955 1445.8497,446.7575 C 1445.7148,446.1796 1445.1343,445.2876 1445.9444,444.8136"
       id="path6528" />
    <path
       d="M 1450.0935,430.8456 C 1450.5628,431.6005 1450.1470,431.7896 1449.4276,431.7826 C 1449.4770,431.3675 1449.7000,431.0555 1450.0935,430.8456"
       id="path6530" />
    <path
       d="M 1450.0190,433.6535 C 1449.8238,433.4056 1449.6564,433.1415 1449.5156,432.8625 C 1450.4050,432.6295 1450.5723,432.8936 1450.0190,433.6535"
       id="path6532" />
    <path
       d="M 1450.8731,426.8136 C 1451.3215,425.3315 1447.1392,422.6046 1445.7674,423.6456 C 1446.4376,422.9955 1447.1967,421.9656 1448.2654,421.9375 C 1449.4944,421.9045 1449.8776,423.2285 1450.5688,423.8825 C 1451.6051,424.8635 1453.2231,424.4706 1454.4711,425.0145 C 1455.9296,425.6495 1455.0994,427.4916 1455.8423,428.5485 C 1456.4377,429.3965 1457.8171,429.1096 1458.2621,430.1805 C 1458.8680,431.6465 1456.5131,430.4586 1456.1929,430.1716 C 1455.4421,429.4955 1455.0379,427.8906 1454.1422,427.4715 C 1453.1823,427.0206 1451.4914,427.8956 1450.8731,426.8136"
       id="path6534" />
    <path
       d="M 1451.7875,421.6295 C 1451.5226,421.4316 1451.2761,421.2145 1451.0466,420.9816 C 1451.6428,420.8415 1451.9657,421.0466 1451.7875,421.6295"
       id="path6536" />
    <path
       d="M 1454.9281,454.9656 C 1453.9034,455.1746 1451.7624,455.0415 1450.8219,454.6526 C 1449.8488,454.2495 1450.5689,452.7296 1450.6427,452.0136 C 1450.8870,452.1615 1451.1357,452.3055 1451.3857,452.4456 C 1451.6917,451.9735 1451.8198,451.4696 1451.7720,450.9336 C 1452.3054,452.7015 1453.8725,451.9586 1455.3204,451.7976 C 1453.8618,452.3225 1454.9056,452.5586 1455.4792,453.0775 C 1456.3481,453.8666 1457.2121,453.7176 1458.3360,453.3456 C 1460.6629,452.5765 1462.9690,453.9255 1465.2619,454.0306 C 1465.9025,454.0605 1467.1691,453.4375 1467.1336,454.5005 C 1467.1192,454.9395 1466.7675,455.5186 1467.4810,455.4765 C 1468.5586,455.4135 1469.8174,454.5156 1470.8716,454.7065 C 1471.3766,454.7976 1471.4491,455.8435 1471.1216,456.1665 C 1470.6835,456.6005 1469.8500,456.5826 1469.2955,456.5795 C 1467.0946,456.5675 1464.9518,456.7776 1462.7624,457.1785 C 1461.9653,457.3245 1460.9163,457.6175 1460.1794,457.2056 C 1459.5399,456.8476 1459.6966,456.0716 1459.0284,455.7645 C 1457.7731,455.1866 1456.2697,455.2776 1454.9281,454.9656"
       id="path6538" />
    <path
       d="M 1456.1217,434.9495 C 1455.8448,434.3666 1456.2085,433.8875 1456.8119,433.6526 C 1456.8893,434.2135 1456.6581,434.6465 1456.1217,434.9495"
       id="path6540" />
    <path
       d="M 1456.4364,442.5095 C 1456.4506,442.2455 1456.4648,441.9816 1456.4808,441.7176 C 1456.9863,442.2145 1457.6393,442.1476 1458.1028,441.5745 C 1458.1027,442.5226 1457.1084,442.3465 1456.4364,442.5095"
       id="path6542" />
    <path
       d="M 1458.8274,408.7405 C 1457.7522,408.4595 1457.7572,406.6216 1459.0981,406.8686 C 1460.3093,407.0935 1459.9751,408.5906 1458.8274,408.7405"
       id="path6544" />
    <path
       d="M 1458.2344,424.2935 C 1458.2293,423.4796 1457.0245,423.4515 1457.4120,422.5645 C 1458.3704,422.6236 1458.6440,423.5455 1458.9400,424.2206 C 1458.7044,424.2455 1458.4699,424.2695 1458.2344,424.2935"
       id="path6546" />
    <path
       d="M 1459.3378,440.2785 C 1459.2245,440.0385 1459.1122,439.7985 1458.9989,439.5575 C 1459.8782,439.5566 1459.9924,439.7976 1459.3378,440.2785"
       id="path6548" />
    <path
       d="M 1462.3408,413.6375 C 1463.2322,413.5145 1464.0625,413.9916 1464.9283,413.5655 C 1464.5990,414.0326 1464.4096,414.5365 1464.3609,415.0786 C 1463.2001,414.4715 1461.2870,415.7856 1462.3408,413.6375"
       id="path6550" />
    <path
       d="M 1461.2270,433.5815 C 1460.5622,432.8745 1460.0257,432.0466 1459.1891,431.4925 C 1459.4201,431.2516 1459.6889,431.0596 1459.9987,430.9176 C 1460.2965,432.0625 1462.2394,432.0636 1461.2270,433.5815"
       id="path6552" />
    <path
       d="M 1461.5337,433.6535 C 1462.2313,433.8526 1463.3315,433.7806 1463.3108,434.7335 C 1462.4984,434.8745 1461.7338,434.3526 1461.5337,433.6535"
       id="path6554" />
    <path
       d="M 1461.1709,443.0136 C 1460.8971,442.8696 1460.6254,442.7255 1460.3516,442.5815 C 1460.9274,442.5195 1460.8417,442.7536 1461.1709,443.0136"
       id="path6556" />
    <path
       d="M 1462.9889,439.7015 C 1462.3468,439.2076 1462.4439,438.6125 1463.2414,438.2615 C 1463.6739,438.7385 1463.5413,439.3136 1462.9889,439.7015"
       id="path6558" />
    <path
       d="M 1464.2381,435.9576 C 1463.6972,435.2086 1463.8893,434.9916 1464.8164,435.3096 C 1464.6232,435.5256 1464.4312,435.7416 1464.2381,435.9576"
       id="path6560" />
    <path
       d="M 1464.2747,442.5095 C 1464.0295,442.3175 1463.7853,442.1255 1463.5391,441.9336 C 1464.1357,441.6135 1464.6915,441.8875 1464.2747,442.5095"
       id="path6562" />
    <path
       d="M 1466.5317,409.3895 C 1466.5156,409.6295 1466.4996,409.8686 1466.4835,410.1096 C 1465.8442,410.2226 1465.3886,409.9115 1465.3616,409.3175 C 1465.7687,409.2156 1466.1588,409.2396 1466.5317,409.3895"
       id="path6564" />
    <path
       d="M 1464.9558,440.2056 C 1464.6939,439.8456 1464.1482,439.1775 1464.4728,438.6635 C 1464.6484,438.3845 1465.5290,437.7385 1465.8550,437.9905 C 1466.4211,438.4275 1465.4777,439.9765 1464.9558,440.2056"
       id="path6566" />
    <path
       d="M 1467.5738,441.5016 C 1467.9289,440.7036 1468.7965,440.3465 1469.6505,440.3496 C 1468.8948,440.6306 1468.3090,441.1846 1467.5738,441.5016"
       id="path6568" />
    <path
       d="M 1469.3020,429.5496 C 1467.6287,428.9336 1469.8381,427.0725 1467.9650,426.3816 C 1470.1596,423.9436 1471.3793,428.3875 1469.3020,429.5496"
       id="path6570" />
    <path
       d="M 1469.0767,435.0935 C 1469.2668,433.7935 1470.9286,433.9866 1471.8847,433.5815 C 1471.3739,434.5145 1470.1112,435.0186 1469.0767,435.0935"
       id="path6572" />
    <path
       d="M 1472.4203,422.5655 C 1471.5424,422.4726 1470.7691,422.0706 1470.0664,421.6295 C 1470.3328,421.4495 1470.6081,421.2815 1470.8902,421.1255 C 1470.1791,421.0645 1469.2573,421.4246 1468.6422,421.0036 C 1467.4969,420.2196 1468.8493,419.8596 1469.6359,419.6655 C 1472.0826,419.0616 1472.7741,419.9146 1473.9235,422.0616 C 1473.3234,421.7065 1472.7528,422.0156 1472.4203,422.5655"
       id="path6574" />
    <path
       d="M 1475.4209,433.9416 C 1475.2988,433.8035 1472.5601,433.0376 1474.2952,432.6066 C 1475.2210,432.3766 1476.1419,433.0285 1477.0383,432.7905 C 1476.7483,433.4035 1476.1325,433.8646 1475.4209,433.9416"
       id="path6576" />
    <path
       d="M 1475.7723,438.6216 C 1475.5309,438.4056 1475.2895,438.1886 1475.0468,437.9735 C 1475.6648,437.9696 1475.6297,438.1766 1475.7723,438.6216"
       id="path6578" />
    <path
       d="M 1476.5942,440.1336 C 1476.0651,439.4316 1476.2364,439.1916 1477.1061,439.4135 C 1476.9357,439.6545 1476.7655,439.8936 1476.5942,440.1336"
       id="path6580" />
    <path
       d="M 1477.8754,453.3096 C 1477.6551,451.9486 1477.7822,450.9346 1478.4214,449.6375 C 1478.5796,450.4135 1478.6588,452.8766 1477.8754,453.3096"
       id="path6582" />
    <path
       d="M 1483.8122,448.1255 C 1482.9011,450.1046 1482.3953,447.8945 1482.3384,447.1186 C 1482.2279,445.6255 1484.7075,444.5476 1486.0648,444.3086 C 1486.2278,445.1836 1485.6464,445.9995 1485.3380,446.8016 C 1484.7816,448.2475 1484.7267,447.0476 1483.8122,448.1255"
       id="path6584" />
  </g>
  
  
  
  
  
  
  
  
  
  
  
  
  
  
  
  
  
  
  
  
  
  
  
  
  
  
  
  
  
  
  
  
  
  
  
  
  
  
  
  
  
  
  
  
  
  
  
  
  
  
  
  
  
  
  
  
  
  
  
  
  
  
  
  
  
  
  
  
  
  
  
  
  
  
  
  
  
  
  
  
  
  
  
  
  
  
  
  
  
  
</svg>
