<?xml version="1.0" encoding="UTF-8" standalone="no"?>
<svg
   xmlns:dc="http://purl.org/dc/elements/1.1/"
   xmlns:cc="http://web.resource.org/cc/"
   xmlns:rdf="http://www.w3.org/1999/02/22-rdf-syntax-ns#"
   xmlns:svg="http://www.w3.org/2000/svg"
   xmlns="http://www.w3.org/2000/svg"
   xmlns:sodipodi="http://sodipodi.sourceforge.net/DTD/sodipodi-0.dtd"
   xmlns:inkscape="http://www.inkscape.org/namespaces/inkscape"
   viewBox="0 0 2752.766 1537.631"
   version="1.0"
   height="476.7276"
   width="939.74725"
   id="svg1926"
   sodipodi:version="0.32"
   inkscape:version="0.45.1"
   sodipodi:docname="BlankMap-World6.svg"
   sodipodi:docbase="/home/bennett/Desktop"
   inkscape:output_extension="org.inkscape.output.svg.inkscape">
  <sodipodi:namedview
     inkscape:window-height="590"
     inkscape:window-width="822"
     inkscape:pageshadow="2"
     inkscape:pageopacity="0.0"
     guidetolerance="10.0"
     gridtolerance="10.0"
     objecttolerance="10.0"
     borderopacity="1.0"
     bordercolor="#666666"
     pagecolor="#ffffff"
     id="base"
     inkscape:zoom="0.77893284"
     inkscape:cx="469.87363"
     inkscape:cy="238.3638"
     inkscape:window-x="178"
     inkscape:window-y="46"
     inkscape:current-layer="svg1926" />
  <metadata
     id="metadata24111">
    <rdf:RDF>
      <cc:Work
         rdf:about="">
        <dc:format>image/svg+xml</dc:format>
        <dc:type
           rdf:resource="http://purl.org/dc/dcmitype/StillImage" />
        <cc:license
           rdf:resource="http://web.resource.org/cc/PublicDomain" />
        <dc:title>Blank World Map</dc:title>
      </cc:Work>
      <cc:License
         rdf:about="http://web.resource.org/cc/PublicDomain">
        <cc:permits
           rdf:resource="http://web.resource.org/cc/Reproduction" />
        <cc:permits
           rdf:resource="http://web.resource.org/cc/Distribution" />
        <cc:permits
           rdf:resource="http://web.resource.org/cc/DerivativeWorks" />
      </cc:License>
    </rdf:RDF>
  </metadata>
  <defs
     id="defs1930" />
  <style
     type="text/css"
     id="style_css_sheet">
/*
 * Below are Cascading Style Sheet (CSS) definitions in use in this file,
 * which allow easily changing how countries are displayed.
 *
 */

/*
 * Circles around small countries
 *
 * Change opacity to 1 to display all circles.
 *
 */
.circle
{
   opacity:0;
   fill:#b9b9b9;
   fill-opacity:1;
   stroke:black;
   stroke-width:0.99986893;
   stroke-miterlimit:3.97446823;
   stroke-dasharray:none;
   stroke-opacity:1;
}

/*
 * Land
 */
.land
{
   fill: #b9b9b9;
   fill-opacity: 1;
   stroke: #ffffff;
   stroke-opacity: 1;
   stroke-width: 0.99986997;
   stroke-miterlimit: 3.97446823;
   stroke-dasharray: none;
}

/*
 * Additional style rules
 *
 * The following are examples of colouring countries.  You can substitute these with your own styles to colour the countries on the map.
 *
 * Color a few countries:
 *
 * .gb, .au, .nc
 * {
 *    fill:       #ff0000;
 * }
 *
 * Color a few small country circles (and the countries):
 *
 * .ms, .ky
 * {
 *    opacity:    1;
 *    fill:       #ff0000;
 * }
 *
 */

/*
 * Antarctica
 */

.aq
{
   fill:#e6e6e6;
}

/*
 * Sea
 */

.ocean
{
   opacity: 1;
   color: #000000;
   fill:white;
   fill-opacity:1;
   fill-rule:nonzero;
   stroke:#000000;
   stroke-width:0.5;
   stroke-linecap:butt;
   stroke-linejoin:miter;
   marker:none;
   marker-start:none;
   marker-mid:none;
   marker-end:none;
   stroke-miterlimit:1;
   stroke-dasharray:none;
   stroke-dashoffset:0;
   stroke-opacity:1;
   visibility:visible;
   display:inline;
   overflow:visible;
}

.lake
{
   fill:#ffffff;
   fill-opacity:1;
   stroke:#ffffff;
   stroke-opacity:1;
   stroke-width:0.99986997;
   stroke-miterlimit:3.97446823;
   stroke-dasharray:none;
}
</style>
  
  
  
  
  
  
  
  
  
  
  
  
  
  
  
  
  
  
  
  
  
  
  
  
  
  
  
  
  
  
  
  
  
  
  <g
     class="land gw"
     id="gw">
    <path
       d="M 1145.7357,660.2375 C 1145.7076,660.0465 1145.6785,659.8535 1145.6504,659.6625 C 1145.3827,659.8165 1145.1461,660.0085 1144.9407,660.2375 C 1145.2053,660.2375 1145.4710,660.2375 1145.7357,660.2375"
       id="path3430" />
    <path
       d="M 1146.0990,657.1415 C 1146.7550,656.8135 1146.6512,656.5735 1145.7885,656.4215 C 1145.8913,656.6615 1145.9952,656.9015 1146.0990,657.1415"
       id="path3432" />
    <path
       d="M 1146.9340,664.1975 C 1147.1942,663.9905 1147.4786,663.8225 1147.7861,663.6925 C 1147.1747,662.4775 1145.7246,663.2865 1146.9340,664.1975"
       id="path3434" />
    <path
       d="M 1147.9706,656.7095 C 1147.6057,656.7325 1147.2445,656.7805 1146.8869,656.8535 C 1146.9803,657.9075 1148.2988,657.7385 1147.9706,656.7095"
       id="path3436" />
    <path
       d="M 1147.9797,659.8775 C 1147.8882,660.1175 1147.7977,660.3565 1147.7062,660.5975 C 1148.3208,660.9015 1148.6952,660.5485 1148.7767,659.9505 C 1148.5106,659.9365 1148.2453,659.9115 1147.9797,659.8775"
       id="path3438" />
    <path
       d="M 1149.9408,662.9735 C 1150.3341,662.6535 1150.5895,662.2455 1150.7048,661.7495 C 1150.1836,661.9505 1149.8426,662.3915 1149.9408,662.9735"
       id="path3440" />
    <path
       d="M 1153.4945,663.1175 C 1153.6936,662.4225 1153.4474,662.2305 1152.7559,662.5415 C 1153.0021,662.7345 1153.2493,662.9255 1153.4945,663.1175"
       id="path3442" />
    <path
       d="M 1142.6573,652.9655 C 1143.3468,652.4815 1144.2740,652.8485 1145.0197,652.5115 C 1145.8203,652.1505 1146.5611,651.6935 1147.4792,651.6695 C 1149.4203,651.6175 1151.1962,652.1275 1152.7853,650.7335 C 1154.1836,649.5055 1155.9914,649.8695 1157.7165,649.8695 C 1160.3355,649.8695 1162.9535,649.8695 1165.5724,649.8695 C 1165.3743,650.8795 1166.5320,652.0515 1165.6460,652.9375 C 1165.1647,653.4185 1163.8124,653.3085 1163.6343,654.0445 C 1163.3820,655.0885 1167.1467,655.8995 1165.3353,657.9815 C 1164.4020,659.0535 1162.9814,658.4785 1161.7803,658.6815 C 1160.6525,658.8715 1159.3231,659.7625 1158.1681,660.1095 C 1156.1820,660.7055 1157.2255,664.1855 1155.2006,664.9175 C 1154.6646,663.0425 1154.3930,662.7965 1152.6732,661.9655 C 1152.8183,661.6915 1152.9787,661.4275 1153.1566,661.1735 C 1151.7266,662.2565 1153.0040,657.8225 1155.1367,659.4445 C 1154.5977,658.0335 1153.3396,658.9745 1152.6141,659.5895 C 1151.8700,658.3265 1151.7230,657.4765 1153.2727,656.9255 C 1154.5932,656.4565 1155.1002,657.8745 1156.3343,657.7895 C 1155.6644,657.5245 1155.2532,656.6835 1155.8609,656.1335 C 1155.3726,655.9695 1154.9160,656.0315 1154.4911,656.3175 C 1153.7898,656.7025 1153.1850,656.2285 1152.4530,656.3495 C 1151.7421,656.4675 1151.2995,657.0085 1150.7785,657.4295 C 1150.1027,657.9755 1149.1694,657.8905 1148.3688,658.0775 C 1148.3859,656.7705 1149.4778,656.3495 1150.3407,655.6295 C 1149.0859,655.5075 1148.1270,656.8015 1146.8798,656.5335 C 1144.4489,656.0115 1145.9457,653.8835 1147.0850,653.1085 C 1146.6229,653.1575 1146.1645,653.2295 1145.7107,653.3245 C 1145.4774,653.6135 1145.2194,653.8775 1144.9355,654.1175 C 1144.0391,654.1545 1143.5121,653.1025 1142.6573,652.9655"
       id="path3444" />
  </g>
  
  
  
  
  
  
  
  
  
  
  
  
  
  
  
  
  
  
  
  
  
  
  
  
  
  
  
  
  
  
  
  
  
  
  
  
  
  
  
  
  
  
  
  
  
  
  
  
  
  
  
  
  
  
  
  
  
  
  
  
  
  
  
  
  
  
  
  
  
  
  
  
  
  
  
  
  
  
  
  
  
  
  
  
  
  
  
  
  
  
  
  
  
  
  
  
  
  
  
  
  
  
  
  
  
  
  
  
  
  
  
  
  
  
  
  
  
  
  
  
  
  
  
  
  
  
  
  
  
  
  
  
  
  
  
  
  
  
  
  
  
  
  
  
  
  
  
  
  
  
  
  
  
  
  
  
  
  
  
  
  
  
  
  
  
  
  
  
  
  
  
  
  
  
  
  
  
  
  
  
  
  
  
  
  
  
  
  
  
  
  
  
  
  
  
  
  
</svg>
