<?xml version="1.0" encoding="UTF-8" standalone="no"?>
<svg
   xmlns:dc="http://purl.org/dc/elements/1.1/"
   xmlns:cc="http://web.resource.org/cc/"
   xmlns:rdf="http://www.w3.org/1999/02/22-rdf-syntax-ns#"
   xmlns:svg="http://www.w3.org/2000/svg"
   xmlns="http://www.w3.org/2000/svg"
   xmlns:sodipodi="http://sodipodi.sourceforge.net/DTD/sodipodi-0.dtd"
   xmlns:inkscape="http://www.inkscape.org/namespaces/inkscape"
   viewBox="0 0 2752.766 1537.631"
   version="1.0"
   height="476.7276"
   width="939.74725"
   id="svg1926"
   sodipodi:version="0.32"
   inkscape:version="0.45.1"
   sodipodi:docname="BlankMap-World6.svg"
   sodipodi:docbase="/home/bennett/Desktop"
   inkscape:output_extension="org.inkscape.output.svg.inkscape">
  <sodipodi:namedview
     inkscape:window-height="590"
     inkscape:window-width="822"
     inkscape:pageshadow="2"
     inkscape:pageopacity="0.0"
     guidetolerance="10.0"
     gridtolerance="10.0"
     objecttolerance="10.0"
     borderopacity="1.0"
     bordercolor="#666666"
     pagecolor="#ffffff"
     id="base"
     inkscape:zoom="0.77893284"
     inkscape:cx="469.87363"
     inkscape:cy="238.3638"
     inkscape:window-x="178"
     inkscape:window-y="46"
     inkscape:current-layer="svg1926" />
  <metadata
     id="metadata24111">
    <rdf:RDF>
      <cc:Work
         rdf:about="">
        <dc:format>image/svg+xml</dc:format>
        <dc:type
           rdf:resource="http://purl.org/dc/dcmitype/StillImage" />
        <cc:license
           rdf:resource="http://web.resource.org/cc/PublicDomain" />
        <dc:title>Blank World Map</dc:title>
      </cc:Work>
      <cc:License
         rdf:about="http://web.resource.org/cc/PublicDomain">
        <cc:permits
           rdf:resource="http://web.resource.org/cc/Reproduction" />
        <cc:permits
           rdf:resource="http://web.resource.org/cc/Distribution" />
        <cc:permits
           rdf:resource="http://web.resource.org/cc/DerivativeWorks" />
      </cc:License>
    </rdf:RDF>
  </metadata>
  <defs
     id="defs1930" />
  <style
     type="text/css"
     id="style_css_sheet">
/*
 * Below are Cascading Style Sheet (CSS) definitions in use in this file,
 * which allow easily changing how countries are displayed.
 *
 */

/*
 * Circles around small countries
 *
 * Change opacity to 1 to display all circles.
 *
 */
.circle
{
   opacity:0;
   fill:#b9b9b9;
   fill-opacity:1;
   stroke:black;
   stroke-width:0.99986893;
   stroke-miterlimit:3.97446823;
   stroke-dasharray:none;
   stroke-opacity:1;
}

/*
 * Land
 */
.land
{
   fill: #b9b9b9;
   fill-opacity: 1;
   stroke: #ffffff;
   stroke-opacity: 1;
   stroke-width: 0.99986997;
   stroke-miterlimit: 3.97446823;
   stroke-dasharray: none;
}

/*
 * Additional style rules
 *
 * The following are examples of colouring countries.  You can substitute these with your own styles to colour the countries on the map.
 *
 * Color a few countries:
 *
 * .gb, .au, .nc
 * {
 *    fill:       #ff0000;
 * }
 *
 * Color a few small country circles (and the countries):
 *
 * .ms, .ky
 * {
 *    opacity:    1;
 *    fill:       #ff0000;
 * }
 *
 */

/*
 * Antarctica
 */

.aq
{
   fill:#e6e6e6;
}

/*
 * Sea
 */

.ocean
{
   opacity: 1;
   color: #000000;
   fill:white;
   fill-opacity:1;
   fill-rule:nonzero;
   stroke:#000000;
   stroke-width:0.5;
   stroke-linecap:butt;
   stroke-linejoin:miter;
   marker:none;
   marker-start:none;
   marker-mid:none;
   marker-end:none;
   stroke-miterlimit:1;
   stroke-dasharray:none;
   stroke-dashoffset:0;
   stroke-opacity:1;
   visibility:visible;
   display:inline;
   overflow:visible;
}

.lake
{
   fill:#ffffff;
   fill-opacity:1;
   stroke:#ffffff;
   stroke-opacity:1;
   stroke-width:0.99986997;
   stroke-miterlimit:3.97446823;
   stroke-dasharray:none;
}
</style>
  
  
  
  
  
  
  
  
  
  
  
  
  
  
  
  
  
  
  
  
  
  
  
  
  
  
  
  
  
  
  
  
  
  
  
  
  
  
  
  
  
  
  
  
  
  
  
  
  
  
  
  
  
  
  
  
  
  
  
  
  
  
  
  
  
  
  
  
  
  
  
  
  
  
  
  
  
  
  
  
  
  
  
  
  
  
  
  
  
  
  
  
  
  
  
  
  
  
  
  
  <path
     class="land gy"
     d="M 801.2072,708.1176 C 802.6191,706.5236 803.4024,705.9385 802.8392,703.7776 C 802.4433,702.2595 803.0392,701.5485 804.4995,701.4366 C 805.1551,701.3855 804.4436,700.4965 805.4098,700.7805 C 806.4297,701.0825 806.7014,700.4466 807.5795,700.1806 C 808.2912,699.9656 809.1327,699.4725 809.4409,698.7645 C 809.6928,698.1866 809.0551,697.1226 808.3389,697.3815 C 806.5525,698.0266 807.6064,696.4135 806.8046,695.4166 C 806.0762,694.5095 806.9341,693.5675 807.4888,692.8525 C 808.1860,691.9525 808.2264,692.3056 809.2535,691.7726 C 810.6320,691.0566 811.1776,689.3185 812.3843,688.6155 C 814.0428,687.6476 812.8033,687.0765 811.9860,685.7246 C 813.2175,687.0996 814.8258,688.0076 816.2290,689.1806 C 815.5344,688.1766 814.1670,687.9385 813.6119,686.8045 C 815.3107,687.5575 817.0992,688.6505 818.3859,690.0155 C 819.4228,691.1165 820.7655,693.2505 822.0276,693.9686 C 823.4340,694.7686 823.8855,697.3446 823.4479,698.6985 C 823.1203,699.7136 822.6185,700.4076 822.5312,701.5236 C 822.4465,702.4886 822.4492,703.5406 821.8961,704.3736 C 823.7956,704.0245 822.2093,699.3676 825.1899,700.4095 C 827.4269,701.1916 830.1856,702.7636 830.7887,705.3085 C 832.1946,704.0166 833.2794,706.6845 833.5065,707.7115 C 833.9028,709.4995 833.2856,712.1966 832.1582,713.5886 C 834.1034,714.1345 831.9786,715.0986 832.5017,716.1086 C 831.3204,716.3375 827.0743,715.9704 826.9295,718.2666 C 826.8027,720.2776 827.1628,721.5886 826.9002,723.5625 C 826.7235,724.8905 827.9843,727.5226 828.9790,728.4216 C 829.9951,729.3396 829.3591,730.4425 830.8518,730.6526 C 831.1642,730.6966 831.9624,730.3116 832.1600,730.6086 C 832.7965,731.5675 832.9053,732.7576 833.1016,733.8486 C 833.4666,735.8845 835.6273,737.5435 835.6770,739.5456 C 835.7274,741.5796 838.0280,741.5176 838.7877,742.7495 C 836.3628,744.3265 833.8899,741.1495 831.5792,743.0875 C 831.1922,743.4116 830.9681,743.8515 830.6240,744.2106 C 829.9913,744.8715 829.1629,744.5856 828.3835,744.8586 C 826.9537,745.3596 826.9078,746.0765 825.2079,746.0986 C 824.6800,746.1055 824.3883,746.5166 824.0548,746.8536 C 823.7948,746.8976 823.5572,746.9936 823.3419,747.1416 C 823.4136,747.4406 823.4602,747.7426 823.4820,748.0485 C 823.1270,748.7976 821.0513,749.1305 820.2855,748.8705 C 819.7529,748.6896 820.0783,748.0785 819.3280,748.0725 C 818.7308,748.0675 817.5232,747.6226 817.2814,747.0095 C 816.8928,746.0186 815.4338,744.4815 814.3367,744.3346 C 814.4285,744.0956 814.5193,743.8555 814.6082,743.6146 C 813.5985,743.6795 813.6920,742.7726 813.7972,742.0815 C 813.9792,740.8795 813.6531,740.4166 812.9050,739.5416 C 811.6647,738.0915 811.6490,735.3275 811.9777,733.6086 C 812.2306,732.2835 813.1820,731.0675 813.1518,729.6685 C 813.1254,728.4575 813.4651,728.5476 814.1395,727.5255 C 814.5625,726.8855 815.4706,725.7616 815.0374,724.9986 C 814.6892,724.3876 813.7980,723.5345 813.7791,722.8056 C 813.7609,722.1036 814.1141,721.4325 813.2948,721.0806 C 812.7276,720.8375 811.3010,720.8156 810.9424,720.2386 C 810.6048,719.6966 811.6922,718.0666 811.7870,717.4366 C 811.9450,716.3866 811.7752,715.1726 810.9191,714.4185 C 809.6405,713.2935 807.7373,715.0646 806.2041,714.3175 C 804.3805,713.4306 802.0705,709.8795 801.2072,708.1176"
     id="gy" />
  
  
  
  
  
  
  
  
  
  
  
  
  
  
  
  
  
  
  
  
  
  
  
  
  
  
  
  
  
  
  
  
  
  
  
  
  
  
  
  
  
  
  
  
  
  
  
  
  
  
  
  
  
  
  
  
  
  
  
  
  
  
  
  
  
  
  
  
  
  
  
  
  
  
  
  
  
  
  
  
  
  
  
  
  
  
  
  
  
  
  
  
  
  
  
  
  
  
  
  
  
  
  
  
  
  
  
  
  
  
  
  
  
  
  
  
  
  
  
  
  
  
  
  
  
  
  
  
  
  
  
</svg>
