<?xml version="1.0" encoding="UTF-8" standalone="no"?>
<svg
   xmlns:dc="http://purl.org/dc/elements/1.1/"
   xmlns:cc="http://web.resource.org/cc/"
   xmlns:rdf="http://www.w3.org/1999/02/22-rdf-syntax-ns#"
   xmlns:svg="http://www.w3.org/2000/svg"
   xmlns="http://www.w3.org/2000/svg"
   xmlns:sodipodi="http://sodipodi.sourceforge.net/DTD/sodipodi-0.dtd"
   xmlns:inkscape="http://www.inkscape.org/namespaces/inkscape"
   viewBox="0 0 2752.766 1537.631"
   version="1.0"
   height="476.7276"
   width="939.74725"
   id="svg1926"
   sodipodi:version="0.32"
   inkscape:version="0.45.1"
   sodipodi:docname="BlankMap-World6.svg"
   sodipodi:docbase="/home/bennett/Desktop"
   inkscape:output_extension="org.inkscape.output.svg.inkscape">
  <sodipodi:namedview
     inkscape:window-height="590"
     inkscape:window-width="822"
     inkscape:pageshadow="2"
     inkscape:pageopacity="0.0"
     guidetolerance="10.0"
     gridtolerance="10.0"
     objecttolerance="10.0"
     borderopacity="1.0"
     bordercolor="#666666"
     pagecolor="#ffffff"
     id="base"
     inkscape:zoom="0.77893284"
     inkscape:cx="469.87363"
     inkscape:cy="238.3638"
     inkscape:window-x="178"
     inkscape:window-y="46"
     inkscape:current-layer="svg1926" />
  <metadata
     id="metadata24111">
    <rdf:RDF>
      <cc:Work
         rdf:about="">
        <dc:format>image/svg+xml</dc:format>
        <dc:type
           rdf:resource="http://purl.org/dc/dcmitype/StillImage" />
        <cc:license
           rdf:resource="http://web.resource.org/cc/PublicDomain" />
        <dc:title>Blank World Map</dc:title>
      </cc:Work>
      <cc:License
         rdf:about="http://web.resource.org/cc/PublicDomain">
        <cc:permits
           rdf:resource="http://web.resource.org/cc/Reproduction" />
        <cc:permits
           rdf:resource="http://web.resource.org/cc/Distribution" />
        <cc:permits
           rdf:resource="http://web.resource.org/cc/DerivativeWorks" />
      </cc:License>
    </rdf:RDF>
  </metadata>
  <defs
     id="defs1930" />
  <style
     type="text/css"
     id="style_css_sheet">
/*
 * Below are Cascading Style Sheet (CSS) definitions in use in this file,
 * which allow easily changing how countries are displayed.
 *
 */

/*
 * Circles around small countries
 *
 * Change opacity to 1 to display all circles.
 *
 */
.circle
{
   opacity:0;
   fill:#b9b9b9;
   fill-opacity:1;
   stroke:black;
   stroke-width:0.99986893;
   stroke-miterlimit:3.97446823;
   stroke-dasharray:none;
   stroke-opacity:1;
}

/*
 * Land
 */
.land
{
   fill: #b9b9b9;
   fill-opacity: 1;
   stroke: #ffffff;
   stroke-opacity: 1;
   stroke-width: 0.99986997;
   stroke-miterlimit: 3.97446823;
   stroke-dasharray: none;
}

/*
 * Additional style rules
 *
 * The following are examples of colouring countries.  You can substitute these with your own styles to colour the countries on the map.
 *
 * Color a few countries:
 *
 * .gb, .au, .nc
 * {
 *    fill:       #ff0000;
 * }
 *
 * Color a few small country circles (and the countries):
 *
 * .ms, .ky
 * {
 *    opacity:    1;
 *    fill:       #ff0000;
 * }
 *
 */

/*
 * Antarctica
 */

.aq
{
   fill:#e6e6e6;
}

/*
 * Sea
 */

.ocean
{
   opacity: 1;
   color: #000000;
   fill:white;
   fill-opacity:1;
   fill-rule:nonzero;
   stroke:#000000;
   stroke-width:0.5;
   stroke-linecap:butt;
   stroke-linejoin:miter;
   marker:none;
   marker-start:none;
   marker-mid:none;
   marker-end:none;
   stroke-miterlimit:1;
   stroke-dasharray:none;
   stroke-dashoffset:0;
   stroke-opacity:1;
   visibility:visible;
   display:inline;
   overflow:visible;
}

.lake
{
   fill:#ffffff;
   fill-opacity:1;
   stroke:#ffffff;
   stroke-opacity:1;
   stroke-width:0.99986997;
   stroke-miterlimit:3.97446823;
   stroke-dasharray:none;
}
</style>
  
  
  
  
  
  
  
  
  
  
  
  
  
  
  
  
  
  
  
  
  
  
  
  
  
  
  
  
  
  
  
  
  
  
  
  
  
  
  
  
  
  
  
  
  
  
  
  
  
  
  
  
  
  
  
  
  
  
  
  
  
  
  
  
  
  
  
  
  
  
  
  
  
  
  
  
  
  
  
  
  
  
  
  
  
  
  
  
  
  
  
  
  
  
  
  
  
  
  
  
  
  
  
  
  
  
  
  
  
  
  
  
  
  
  
  
  
  
  
  
  
  
  
  
  
  
  <g
     class="land hn"
     id="hn">
    <path
       d="M 587.3635,634.6775 C 587.7795,633.3295 589.5282,633.0245 588.5138,631.3355 C 587.9451,630.3905 589.0880,628.9435 589.7848,628.6115 C 591.3957,627.8455 592.8428,626.5615 594.0674,625.3175 C 594.5482,624.8285 594.9282,624.2175 595.5177,623.8385 C 596.2005,623.3995 596.6983,624.0035 597.2066,623.3045 C 597.9072,622.3415 599.6793,621.4845 600.7870,622.4715 C 601.5926,623.1905 605.1311,623.2715 606.1777,623.1755 C 607.6383,623.0425 609.9365,623.3975 611.1048,622.5935 C 611.5231,622.3055 614.8085,621.5655 612.8793,620.9975 C 614.5331,620.9455 616.0922,621.9765 617.7439,622.0055 C 619.4472,622.0345 621.2695,620.8045 622.9583,622.1355 C 624.3938,623.2675 624.9901,622.1465 626.3657,622.7975 C 627.9671,623.5565 628.9685,625.3105 630.2479,626.4695 C 629.6902,626.2055 629.0937,625.3895 628.4496,625.3895 C 627.8217,625.3895 627.2863,625.4975 626.7189,625.0295 C 627.2403,625.3005 627.3339,625.8525 627.5166,626.3175 C 627.6515,626.6595 628.7002,627.3815 629.0183,627.6935 C 629.1451,627.1165 628.8313,626.7335 628.2291,626.6145 C 628.8411,625.8595 630.2271,628.0255 631.5214,627.3345 C 631.6704,627.8075 631.8497,627.9895 631.5834,628.4145 C 633.0052,628.0485 631.5435,627.0745 630.8035,626.8305 C 633.2047,627.1595 633.0071,629.1345 634.9637,629.8535 C 633.6631,630.0785 632.3985,629.8455 631.3117,630.6595 C 630.3508,631.3715 628.3103,632.0505 627.0589,632.0175 C 626.0658,631.9925 625.2549,633.0425 624.3812,632.7895 C 623.7627,632.6105 623.1778,632.3905 622.6000,632.0855 C 622.3323,631.9435 622.2620,631.4365 622.0048,631.3855 C 620.5951,631.1075 620.6157,632.8485 620.1957,633.5975 C 619.9247,634.0805 619.3888,634.3105 619.1467,634.8215 C 619.0142,635.1005 619.4294,635.5905 619.1750,635.7845 C 618.2270,636.5085 614.5676,638.2785 614.9017,639.9335 C 612.5649,638.5405 612.5864,637.9125 610.8220,639.6935 C 610.0004,640.5235 606.8396,639.7915 607.1451,641.2655 C 607.4410,642.6935 608.2261,644.3575 606.5558,644.6395 C 605.6765,644.7875 605.9107,645.7445 605.7344,646.3815 C 605.4283,647.4865 603.8329,647.0875 602.9551,647.2055 C 603.5111,646.1455 600.0970,644.6795 602.3412,643.8205 C 601.6458,644.0565 600.6806,644.0455 600.4570,643.1005 C 600.3218,643.8995 599.6830,644.1265 598.9804,643.6045 C 599.8159,643.3255 599.5750,642.4325 599.5530,641.7305 C 599.5185,640.5925 600.4428,639.3195 598.4171,639.3035 C 597.8032,639.8235 597.4357,639.7265 597.3126,639.0135 C 597.0822,638.7585 596.8063,638.6595 596.4846,638.7145 C 595.5523,638.8205 594.8268,639.5635 593.8711,639.5725 C 594.4350,637.9715 588.1695,635.4175 587.3635,634.6775"
       id="path5978" />
    <path
       d="M 608.1479,618.7655 C 608.9554,618.1885 609.8763,617.7675 610.8149,617.3975 C 609.7946,617.4075 608.5337,617.8065 608.1479,618.7655"
       id="path6082" />
  </g>
  
  
  
  
  
  
  
  
  
  
  
  
  
  
  
  
  
  
  
  
  
  
  
  
  
  
  
  
  
  
  
  
  
  
  
  
  
  
  
  
  
  
  
  
  
  
  
  
  
  
  
  
  
  
  
  
  
  
  
  
  
  
  
  
  
  
  
  
  
  
  
  
  
  
  
  
  
  
  
  
  
  
  
  
  
  
  
  
  
  
  
  
  
  
  
  
  
  
  
  
  
  
  
  
  
</svg>
