<?xml version="1.0" encoding="UTF-8" standalone="no"?>
<svg
   xmlns:dc="http://purl.org/dc/elements/1.1/"
   xmlns:cc="http://web.resource.org/cc/"
   xmlns:rdf="http://www.w3.org/1999/02/22-rdf-syntax-ns#"
   xmlns:svg="http://www.w3.org/2000/svg"
   xmlns="http://www.w3.org/2000/svg"
   xmlns:sodipodi="http://sodipodi.sourceforge.net/DTD/sodipodi-0.dtd"
   xmlns:inkscape="http://www.inkscape.org/namespaces/inkscape"
   viewBox="0 0 2752.766 1537.631"
   version="1.0"
   height="476.7276"
   width="939.74725"
   id="svg1926"
   sodipodi:version="0.32"
   inkscape:version="0.45.1"
   sodipodi:docname="BlankMap-World6.svg"
   sodipodi:docbase="/home/bennett/Desktop"
   inkscape:output_extension="org.inkscape.output.svg.inkscape">
  <sodipodi:namedview
     inkscape:window-height="590"
     inkscape:window-width="822"
     inkscape:pageshadow="2"
     inkscape:pageopacity="0.0"
     guidetolerance="10.0"
     gridtolerance="10.0"
     objecttolerance="10.0"
     borderopacity="1.0"
     bordercolor="#666666"
     pagecolor="#ffffff"
     id="base"
     inkscape:zoom="0.77893284"
     inkscape:cx="469.87363"
     inkscape:cy="238.3638"
     inkscape:window-x="178"
     inkscape:window-y="46"
     inkscape:current-layer="svg1926" />
  <metadata
     id="metadata24111">
    <rdf:RDF>
      <cc:Work
         rdf:about="">
        <dc:format>image/svg+xml</dc:format>
        <dc:type
           rdf:resource="http://purl.org/dc/dcmitype/StillImage" />
        <cc:license
           rdf:resource="http://web.resource.org/cc/PublicDomain" />
        <dc:title>Blank World Map</dc:title>
      </cc:Work>
      <cc:License
         rdf:about="http://web.resource.org/cc/PublicDomain">
        <cc:permits
           rdf:resource="http://web.resource.org/cc/Reproduction" />
        <cc:permits
           rdf:resource="http://web.resource.org/cc/Distribution" />
        <cc:permits
           rdf:resource="http://web.resource.org/cc/DerivativeWorks" />
      </cc:License>
    </rdf:RDF>
  </metadata>
  <defs
     id="defs1930" />
  <style
     type="text/css"
     id="style_css_sheet">
/*
 * Below are Cascading Style Sheet (CSS) definitions in use in this file,
 * which allow easily changing how countries are displayed.
 *
 */

/*
 * Circles around small countries
 *
 * Change opacity to 1 to display all circles.
 *
 */
.circle
{
   opacity:0;
   fill:#b9b9b9;
   fill-opacity:1;
   stroke:black;
   stroke-width:0.99986893;
   stroke-miterlimit:3.97446823;
   stroke-dasharray:none;
   stroke-opacity:1;
}

/*
 * Land
 */
.land
{
   fill: #b9b9b9;
   fill-opacity: 1;
   stroke: #ffffff;
   stroke-opacity: 1;
   stroke-width: 0.99986997;
   stroke-miterlimit: 3.97446823;
   stroke-dasharray: none;
}

/*
 * Additional style rules
 *
 * The following are examples of colouring countries.  You can substitute these with your own styles to colour the countries on the map.
 *
 * Color a few countries:
 *
 * .gb, .au, .nc
 * {
 *    fill:       #ff0000;
 * }
 *
 * Color a few small country circles (and the countries):
 *
 * .ms, .ky
 * {
 *    opacity:    1;
 *    fill:       #ff0000;
 * }
 *
 */

/*
 * Antarctica
 */

.aq
{
   fill:#e6e6e6;
}

/*
 * Sea
 */

.ocean
{
   opacity: 1;
   color: #000000;
   fill:white;
   fill-opacity:1;
   fill-rule:nonzero;
   stroke:#000000;
   stroke-width:0.5;
   stroke-linecap:butt;
   stroke-linejoin:miter;
   marker:none;
   marker-start:none;
   marker-mid:none;
   marker-end:none;
   stroke-miterlimit:1;
   stroke-dasharray:none;
   stroke-dashoffset:0;
   stroke-opacity:1;
   visibility:visible;
   display:inline;
   overflow:visible;
}

.lake
{
   fill:#ffffff;
   fill-opacity:1;
   stroke:#ffffff;
   stroke-opacity:1;
   stroke-width:0.99986997;
   stroke-miterlimit:3.97446823;
   stroke-dasharray:none;
}
</style>
  
  
  
  
  
  
  
  
  
  
  
  
  
  
  
  
  
  
  
  
  
  
  
  
  
  
  
  
  
  
  
  
  
  
  
  
  
  
  
  
  
  
  
  
  
  
  
  
  
  
  
  
  
  
  
  <g
     class="land hr"
     id="hr">
    <path
       d="M 1374.3380,366.7655 C 1374.8887,366.8805 1375.4249,367.0455 1375.9875,367.1165 C 1376.7018,367.2065 1377.3323,366.3995 1377.7184,366.4595 C 1379.3584,366.7145 1381.0085,366.9415 1381.8655,365.1815 C 1383.3022,366.4455 1384.4631,366.0275 1386.0767,366.7655 C 1388.1281,367.7045 1386.9793,365.5245 1388.0808,365.3255 C 1387.6820,365.2445 1387.3535,364.9375 1386.9635,364.8215 C 1387.8937,364.1065 1389.2853,363.7115 1390.4769,363.5975 C 1390.4084,363.4215 1389.8901,361.0665 1389.8961,361.0545 C 1390.1353,360.4845 1391.9180,360.0545 1392.4585,359.9345 C 1393.4150,359.7225 1393.2746,359.3475 1394.0251,358.9185 C 1394.0320,358.9145 1394.8880,359.1295 1395.0758,359.1345 C 1393.0057,356.9035 1398.7332,359.0325 1399.1194,359.2065 C 1399.7026,359.4695 1401.1147,360.7365 1401.5498,361.1915 C 1402.6949,362.3905 1403.3528,362.3395 1404.8787,362.8785 C 1406.1083,363.3115 1406.5020,364.0435 1408.1325,364.1745 C 1410.0040,364.3255 1411.6583,364.7235 1413.2215,363.4285 C 1413.9452,362.8295 1414.9297,363.6485 1415.1477,364.3205 C 1415.4582,365.2765 1414.6673,366.2785 1416.3464,366.3345 C 1413.7047,367.9275 1419.2876,368.8495 1418.8592,369.2935 C 1418.5928,369.5675 1416.6702,369.5445 1416.1802,369.7185 C 1416.9331,370.9095 1415.8950,372.9385 1414.2616,371.7645 C 1413.9416,371.5295 1413.8665,371.2315 1414.0365,370.8705 C 1413.5587,370.6855 1413.0769,370.5095 1412.5902,370.3405 C 1411.5608,369.9975 1410.7145,369.9685 1409.6217,370.0315 C 1408.4719,370.0975 1408.3912,369.5395 1407.2479,370.0995 C 1406.4064,370.5115 1405.9386,370.0305 1405.1605,369.8625 C 1404.2216,369.6595 1403.1979,369.7265 1402.2812,369.4895 C 1401.4826,369.2835 1400.6904,368.7545 1399.8337,368.7385 C 1398.5725,368.7165 1400.2741,369.3595 1398.1992,369.0225 C 1396.6924,368.7775 1397.1420,368.9595 1396.3247,369.5755 C 1394.3522,371.0595 1394.3636,370.3251 1392.5392,369.0765 C 1389.9887,367.3349 1389.9083,371.1585 1390.9491,372.0795 C 1391.4864,372.5555 1391.0176,372.9905 1391.8532,373.1365 C 1392.7629,373.2955 1393.6570,375.2597 1393.6747,376.0202 C 1393.7022,377.2102 1393.3724,378.0183 1395.5673,378.6305 C 1397.8782,379.2757 1398.1337,382.0303 1400.0314,383.3433 C 1401.5586,384.4013 1402.7267,386.0535 1404.3551,386.8045 C 1406.0836,387.6025 1405.3095,389.1425 1403.5383,387.4455 C 1401.5549,385.5495 1397.0490,382.4725 1393.9270,383.5115 C 1393.1100,383.7835 1392.6940,383.5025 1392.1960,382.8945 C 1391.5761,382.1395 1391.9823,381.9375 1390.7792,381.3905 C 1389.0219,380.5915 1386.6280,378.7805 1385.9732,377.0625 C 1387.0893,376.8905 1388.0897,377.0345 1389.1802,377.2075 C 1387.7679,376.2555 1386.0110,375.5425 1385.0432,374.1455 C 1384.2334,372.9785 1384.8296,371.4835 1384.0411,370.3265 C 1383.3460,369.3095 1381.7587,368.3375 1380.4692,368.0205 C 1379.5195,367.7875 1378.5898,370.2445 1378.7577,370.8715 C 1378.3515,370.7195 1378.1973,370.8285 1377.8839,370.5115 C 1377.7431,371.3355 1377.5031,372.2175 1376.7858,372.8155 C 1376.2233,372.4205 1374.4212,370.3765 1375.3209,369.7195 C 1374.2992,369.9305 1373.8541,367.4325 1373.6129,366.6955 C 1373.8542,366.7175 1374.0967,366.7405 1374.3380,366.7655"
       id="path4066" />
    <path
       d="M 1405.4150,388.8695 C 1406.6239,388.0195 1411.7182,391.3335 1411.7677,392.5415 C 1410.5049,392.3805 1408.3647,390.7475 1407.3884,390.0165 C 1406.5331,389.3765 1405.3813,389.4735 1404.3790,389.1575 C 1403.2934,388.8155 1402.4149,387.9305 1401.1568,388.0785 C 1402.4906,387.1725 1404.9503,388.5765 1405.9599,389.3025 C 1405.7794,389.1575 1405.5967,389.0135 1405.4150,388.8695"
       id="path4068" />
    <path
       d="M 1380.2076,370.8695 C 1379.7635,370.4325 1379.6422,369.9295 1379.8410,369.3565 C 1380.7377,370.7285 1380.8625,372.3165 1381.3409,373.8205 C 1380.2829,373.6775 1379.2952,371.5745 1380.2076,370.8695"
       id="path4070" />
    <path
       d="M 1381.4609,375.3335 C 1381.0435,374.8355 1380.6020,374.3555 1380.1375,373.8935 C 1380.7033,374.2615 1381.1734,374.7585 1381.4609,375.3335"
       id="path4072" />
    <path
       d="M 1382.2958,370.8695 C 1381.5765,370.8005 1380.3208,369.4755 1381.5345,369.1405 C 1382.3796,368.9075 1382.9817,370.5835 1383.5793,370.8695 C 1383.1338,371.2675 1382.7054,371.2675 1382.2958,370.8695"
       id="path4074" />
    <path
       d="M 1382.8172,372.3095 C 1383.0811,372.4535 1383.3450,372.5975 1383.6088,372.7415 C 1382.8787,373.0475 1382.6160,372.9035 1382.8172,372.3095"
       id="path4076" />
    <path
       d="M 1384.2793,377.7095 C 1384.0178,377.5175 1383.7562,377.3255 1383.4946,377.1335 C 1383.8442,377.2335 1384.1057,377.4255 1384.2793,377.7095"
       id="path4078" />
    <path
       d="M 1385.1356,375.6215 C 1384.3749,374.9495 1383.6118,374.2515 1383.1128,373.3895 C 1384.0611,374.6095 1385.7742,375.0515 1386.7190,376.2695 C 1385.9259,376.8065 1385.4825,376.1535 1385.1356,375.6215"
       id="path4080" />
    <path
       d="M 1385.1214,379.0055 C 1384.8643,378.7895 1384.6082,378.5725 1384.3508,378.3575 C 1385.3858,378.4275 1385.5999,379.5225 1386.3823,379.9415 C 1385.7766,379.8295 1385.3571,379.5175 1385.1214,379.0055"
       id="path4082" />
    <path
       d="M 1386.9224,380.4455 C 1387.5330,380.7575 1388.0792,381.1405 1388.5620,381.5975 C 1387.9427,381.3355 1387.2927,380.9825 1386.9224,380.4455"
       id="path4086" />
    <path
       d="M 1386.9573,379.2215 C 1386.6958,379.0535 1386.4342,378.8855 1386.1725,378.7175 C 1386.5729,378.7295 1386.8345,378.8975 1386.9573,379.2215"
       id="path4088" />
    <path
       d="M 1389.9055,382.1735 C 1390.1930,382.2935 1390.4815,382.4135 1390.7688,382.5335 C 1390.4650,382.4455 1390.1776,382.3245 1389.9055,382.1735"
       id="path4090" />
    <path
       d="M 1394.3971,383.6135 C 1394.6633,383.5895 1394.9295,383.5655 1395.1957,383.5415 C 1394.9316,383.6375 1394.6654,383.6615 1394.3971,383.6135"
       id="path4092" />
    <path
       d="M 1395.6185,385.1255 C 1395.3572,385.0055 1395.0959,384.8855 1394.8346,384.7655 C 1395.1750,384.7645 1395.4363,384.8845 1395.6185,385.1255"
       id="path4094" />
    <path
       d="M 1397.9864,385.7015 C 1397.1671,385.6945 1396.1415,385.5155 1396.0340,384.6215 C 1397.1369,384.5905 1398.2476,384.7205 1399.2792,385.0535 C 1398.9350,385.4185 1398.5034,385.6345 1397.9864,385.7015"
       id="path4096" />
    <path
       d="M 1399.3903,388.7975 C 1398.8466,388.6805 1398.2947,388.6095 1397.7335,388.5815 C 1398.7426,387.8065 1400.8268,387.9325 1401.8587,388.5095 C 1401.0278,388.7445 1400.1791,388.3445 1399.3903,388.7975"
       id="path4098" />
    <path
       d="M 1400.8909,386.9255 C 1399.2547,386.9775 1397.6119,386.8415 1396.0520,386.4215 C 1397.9377,385.8655 1399.8062,386.7675 1401.6934,386.7095 C 1401.4258,386.7815 1401.1584,386.8535 1400.8909,386.9255"
       id="path4100" />
    <path
       d="M 1406.0665,390.5255 C 1405.2805,390.2745 1404.4464,390.1755 1403.6309,390.0215 C 1404.4754,389.8545 1405.3742,390.1315 1406.0665,390.5255"
       id="path4102" />
  </g>
  
  
  
  
  
  
  
  
  
  
  
  
  
  
  
  
  
  
  
  
  
  
  
  
  
  
  
  
  
  
  
  
  
  
  
  
  
  
  
  
  
  
  
  
  
  
  
  
  
  
  
  
  
  
  
  
  
  
  
  
  
  
  
  
  
  
  
  
  
  
  
  
  
  
  
  
  
  
  
  
  
  
  
  
  
  
  
  
  
  
  
  
  
  
  
  
  
  
  
  
  
  
  
  
  
  
  
  
  
  
  
  
  
  
  
  
  
  
  
  
  
  
  
  
  
  
  
  
  
  
  
  
  
  
  
  
  
  
  
  
  
  
  
  
  
  
  
  
  
  
  
  
  
  
  
  
  
  
  
  
  
  
  
  
  
  
  
  
  
  
  
  
  
  
  
  
</svg>
