<?xml version="1.0" encoding="UTF-8" standalone="no"?>
<svg
   xmlns:dc="http://purl.org/dc/elements/1.1/"
   xmlns:cc="http://web.resource.org/cc/"
   xmlns:rdf="http://www.w3.org/1999/02/22-rdf-syntax-ns#"
   xmlns:svg="http://www.w3.org/2000/svg"
   xmlns="http://www.w3.org/2000/svg"
   xmlns:sodipodi="http://sodipodi.sourceforge.net/DTD/sodipodi-0.dtd"
   xmlns:inkscape="http://www.inkscape.org/namespaces/inkscape"
   viewBox="0 0 2752.766 1537.631"
   version="1.0"
   height="476.7276"
   width="939.74725"
   id="svg1926"
   sodipodi:version="0.32"
   inkscape:version="0.45.1"
   sodipodi:docname="BlankMap-World6.svg"
   sodipodi:docbase="/home/bennett/Desktop"
   inkscape:output_extension="org.inkscape.output.svg.inkscape">
  <sodipodi:namedview
     inkscape:window-height="590"
     inkscape:window-width="822"
     inkscape:pageshadow="2"
     inkscape:pageopacity="0.0"
     guidetolerance="10.0"
     gridtolerance="10.0"
     objecttolerance="10.0"
     borderopacity="1.0"
     bordercolor="#666666"
     pagecolor="#ffffff"
     id="base"
     inkscape:zoom="0.77893284"
     inkscape:cx="469.87363"
     inkscape:cy="238.3638"
     inkscape:window-x="178"
     inkscape:window-y="46"
     inkscape:current-layer="svg1926" />
  <metadata
     id="metadata24111">
    <rdf:RDF>
      <cc:Work
         rdf:about="">
        <dc:format>image/svg+xml</dc:format>
        <dc:type
           rdf:resource="http://purl.org/dc/dcmitype/StillImage" />
        <cc:license
           rdf:resource="http://web.resource.org/cc/PublicDomain" />
        <dc:title>Blank World Map</dc:title>
      </cc:Work>
      <cc:License
         rdf:about="http://web.resource.org/cc/PublicDomain">
        <cc:permits
           rdf:resource="http://web.resource.org/cc/Reproduction" />
        <cc:permits
           rdf:resource="http://web.resource.org/cc/Distribution" />
        <cc:permits
           rdf:resource="http://web.resource.org/cc/DerivativeWorks" />
      </cc:License>
    </rdf:RDF>
  </metadata>
  <defs
     id="defs1930" />
  <style
     type="text/css"
     id="style_css_sheet">
/*
 * Below are Cascading Style Sheet (CSS) definitions in use in this file,
 * which allow easily changing how countries are displayed.
 *
 */

/*
 * Circles around small countries
 *
 * Change opacity to 1 to display all circles.
 *
 */
.circle
{
   opacity:0;
   fill:#b9b9b9;
   fill-opacity:1;
   stroke:black;
   stroke-width:0.99986893;
   stroke-miterlimit:3.97446823;
   stroke-dasharray:none;
   stroke-opacity:1;
}

/*
 * Land
 */
.land
{
   fill: #b9b9b9;
   fill-opacity: 1;
   stroke: #ffffff;
   stroke-opacity: 1;
   stroke-width: 0.99986997;
   stroke-miterlimit: 3.97446823;
   stroke-dasharray: none;
}

/*
 * Additional style rules
 *
 * The following are examples of colouring countries.  You can substitute these with your own styles to colour the countries on the map.
 *
 * Color a few countries:
 *
 * .gb, .au, .nc
 * {
 *    fill:       #ff0000;
 * }
 *
 * Color a few small country circles (and the countries):
 *
 * .ms, .ky
 * {
 *    opacity:    1;
 *    fill:       #ff0000;
 * }
 *
 */

/*
 * Antarctica
 */

.aq
{
   fill:#e6e6e6;
}

/*
 * Sea
 */

.ocean
{
   opacity: 1;
   color: #000000;
   fill:white;
   fill-opacity:1;
   fill-rule:nonzero;
   stroke:#000000;
   stroke-width:0.5;
   stroke-linecap:butt;
   stroke-linejoin:miter;
   marker:none;
   marker-start:none;
   marker-mid:none;
   marker-end:none;
   stroke-miterlimit:1;
   stroke-dasharray:none;
   stroke-dashoffset:0;
   stroke-opacity:1;
   visibility:visible;
   display:inline;
   overflow:visible;
}

.lake
{
   fill:#ffffff;
   fill-opacity:1;
   stroke:#ffffff;
   stroke-opacity:1;
   stroke-width:0.99986997;
   stroke-miterlimit:3.97446823;
   stroke-dasharray:none;
}
</style>
  
  
  
  
  
  
  
  
  
  
  
  
  
  
  
  
  
  
  
  
  
  
  
  
  
  
  
  
  
  
  
  
  
  
  
  
  
  
  
  
  
  
  
  
  
  
  
  
  
  
  
  
  
  
  
  
  
  
  
  
  
  
  
  
  
  
  
  
  
  
  
  
  
  
  
  
  
  
  
  
  
  
  
  
  
  
  
  
  
  
  
  
  
  
  
  
  
  
  
  
  
  
  
  
  
  
  
  
  
  
  
  
  
  
  
  
  
  
  
  
  
  <path
     class="land hu"
     d="M 1393.5953,354.9576 C 1394.3831,354.2355 1395.3919,353.6476 1396.5578,353.8775 C 1396.2159,353.0045 1395.9983,351.8326 1396.3487,350.9176 C 1396.6458,350.1426 1397.7607,349.8886 1398.0738,349.1055 C 1398.3323,348.4595 1395.6978,348.2226 1397.1683,347.7396 C 1398.2849,347.3736 1399.3971,349.0086 1400.2629,347.8035 C 1401.4906,346.1005 1401.5723,344.4595 1404.1529,346.2706 C 1407.3373,348.5075 1410.7100,347.3745 1414.5405,346.9645 C 1412.5035,345.4826 1415.5299,345.4247 1416.8309,345.3147 C 1417.4684,345.2607 1419.2610,345.0226 1419.4651,344.3265 C 1419.8152,343.1375 1420.7260,344.2073 1421.6900,344.5483 C 1422.9886,345.0073 1425.6339,344.2744 1426.6514,343.4664 C 1427.3927,342.8794 1426.7278,341.0895 1427.6234,340.7856 C 1429.3692,340.1956 1431.3831,341.0596 1433.0900,341.2056 C 1433.9010,340.1676 1435.1403,341.0206 1435.7672,341.6245 C 1436.7058,342.5306 1437.3921,342.6035 1438.8115,342.2355 C 1441.3118,341.5876 1441.9857,344.7405 1444.3242,344.5236 C 1446.0605,344.3625 1444.9649,346.4776 1444.2697,346.9445 C 1443.1942,347.6705 1441.6522,347.0636 1440.7694,347.9846 C 1440.1997,348.5795 1438.3857,349.5136 1437.8546,350.0885 C 1437.0094,351.0045 1436.5645,352.1567 1435.9917,352.8507 C 1435.3791,353.5927 1435.3806,354.7745 1435.2507,355.5876 C 1435.0935,356.5720 1433.5701,357.0915 1433.0827,358.0226 C 1432.5817,358.9816 1432.5484,359.7385 1431.1894,360.0326 C 1430.2445,360.2375 1429.5497,359.8956 1428.8481,360.6295 C 1428.1341,361.3766 1427.3549,360.8046 1426.4976,361.0716 C 1425.2562,361.4576 1423.8389,361.1196 1422.6054,361.0066 C 1421.7353,360.9266 1420.3675,360.4785 1419.6006,361.0985 C 1418.7253,361.8066 1418.4371,362.4056 1417.1824,362.4576 C 1416.0280,362.5045 1414.7822,362.6096 1413.6884,363.0095 C 1412.6649,363.3836 1412.3412,364.2706 1411.1418,364.4056 C 1409.1347,364.6306 1406.5697,364.1895 1404.9683,363.2566 C 1404.0478,362.7215 1403.1527,362.8406 1402.4372,361.9285 C 1401.5495,360.7985 1400.2584,360.1415 1398.9891,359.3806 C 1397.8241,358.6825 1396.9196,358.0706 1396.2296,356.9765 C 1395.6828,356.1116 1394.9971,354.7385 1393.5953,354.9576"
     id="hu" />
  
  
  
  
  
  
  
  
  
  
  
  
  
  
  
  
  
  
  
  
  
  
  
  
  
  
  
  
  
  
  
  
  
  
  
  
  
  
  
  
  
  
  
  
  
  
  
  
  
  
  
  
  
  
  
  
  
  
  
  
  
  
  
  
  
  
  
  
  
  
  
  
  
  
  
  
  
  
  
  
  
  
  
  
  
  
  
  
  
  
  
  
  
  
  
  
  
  
  
  
  
  
  
  
  
  
  
  
  
  
</svg>
