<?xml version="1.0" encoding="UTF-8" standalone="no"?>
<svg
   xmlns:dc="http://purl.org/dc/elements/1.1/"
   xmlns:cc="http://web.resource.org/cc/"
   xmlns:rdf="http://www.w3.org/1999/02/22-rdf-syntax-ns#"
   xmlns:svg="http://www.w3.org/2000/svg"
   xmlns="http://www.w3.org/2000/svg"
   xmlns:sodipodi="http://sodipodi.sourceforge.net/DTD/sodipodi-0.dtd"
   xmlns:inkscape="http://www.inkscape.org/namespaces/inkscape"
   viewBox="0 0 2752.766 1537.631"
   version="1.0"
   height="476.7276"
   width="939.74725"
   id="svg1926"
   sodipodi:version="0.32"
   inkscape:version="0.45.1"
   sodipodi:docname="BlankMap-World6.svg"
   sodipodi:docbase="/home/bennett/Desktop"
   inkscape:output_extension="org.inkscape.output.svg.inkscape">
  <sodipodi:namedview
     inkscape:window-height="590"
     inkscape:window-width="822"
     inkscape:pageshadow="2"
     inkscape:pageopacity="0.0"
     guidetolerance="10.0"
     gridtolerance="10.0"
     objecttolerance="10.0"
     borderopacity="1.0"
     bordercolor="#666666"
     pagecolor="#ffffff"
     id="base"
     inkscape:zoom="0.77893284"
     inkscape:cx="469.87363"
     inkscape:cy="238.3638"
     inkscape:window-x="178"
     inkscape:window-y="46"
     inkscape:current-layer="svg1926" />
  <metadata
     id="metadata24111">
    <rdf:RDF>
      <cc:Work
         rdf:about="">
        <dc:format>image/svg+xml</dc:format>
        <dc:type
           rdf:resource="http://purl.org/dc/dcmitype/StillImage" />
        <cc:license
           rdf:resource="http://web.resource.org/cc/PublicDomain" />
        <dc:title>Blank World Map</dc:title>
      </cc:Work>
      <cc:License
         rdf:about="http://web.resource.org/cc/PublicDomain">
        <cc:permits
           rdf:resource="http://web.resource.org/cc/Reproduction" />
        <cc:permits
           rdf:resource="http://web.resource.org/cc/Distribution" />
        <cc:permits
           rdf:resource="http://web.resource.org/cc/DerivativeWorks" />
      </cc:License>
    </rdf:RDF>
  </metadata>
  <defs
     id="defs1930" />
  <style
     type="text/css"
     id="style_css_sheet">
/*
 * Below are Cascading Style Sheet (CSS) definitions in use in this file,
 * which allow easily changing how countries are displayed.
 *
 */

/*
 * Circles around small countries
 *
 * Change opacity to 1 to display all circles.
 *
 */
.circle
{
   opacity:0;
   fill:#b9b9b9;
   fill-opacity:1;
   stroke:black;
   stroke-width:0.99986893;
   stroke-miterlimit:3.97446823;
   stroke-dasharray:none;
   stroke-opacity:1;
}

/*
 * Land
 */
.land
{
   fill: #b9b9b9;
   fill-opacity: 1;
   stroke: #ffffff;
   stroke-opacity: 1;
   stroke-width: 0.99986997;
   stroke-miterlimit: 3.97446823;
   stroke-dasharray: none;
}

/*
 * Additional style rules
 *
 * The following are examples of colouring countries.  You can substitute these with your own styles to colour the countries on the map.
 *
 * Color a few countries:
 *
 * .gb, .au, .nc
 * {
 *    fill:       #ff0000;
 * }
 *
 * Color a few small country circles (and the countries):
 *
 * .ms, .ky
 * {
 *    opacity:    1;
 *    fill:       #ff0000;
 * }
 *
 */

/*
 * Antarctica
 */

.aq
{
   fill:#e6e6e6;
}

/*
 * Sea
 */

.ocean
{
   opacity: 1;
   color: #000000;
   fill:white;
   fill-opacity:1;
   fill-rule:nonzero;
   stroke:#000000;
   stroke-width:0.5;
   stroke-linecap:butt;
   stroke-linejoin:miter;
   marker:none;
   marker-start:none;
   marker-mid:none;
   marker-end:none;
   stroke-miterlimit:1;
   stroke-dasharray:none;
   stroke-dashoffset:0;
   stroke-opacity:1;
   visibility:visible;
   display:inline;
   overflow:visible;
}

.lake
{
   fill:#ffffff;
   fill-opacity:1;
   stroke:#ffffff;
   stroke-opacity:1;
   stroke-width:0.99986997;
   stroke-miterlimit:3.97446823;
   stroke-dasharray:none;
}
</style>
  
  
  
  
  
  
  
  
  <g
     class="land id"
     id="id">
    <path
       d="M 2295.3492,793.5085 C 2294.8606,793.8295 2295.0182,794.0695 2295.8233,794.2285 C 2295.6646,793.9885 2295.5069,793.7485 2295.3492,793.5085"
       id="path2528" />
    <path
       d="M 2296.5961,774.7185 C 2295.9451,774.9375 2295.8753,775.6805 2296.1044,776.2285 C 2296.1403,775.6825 2296.3046,775.1795 2296.5961,774.7185"
       id="path2530" />
    <path
       d="M 2297.7701,777.0185 C 2297.2353,776.9005 2297.1866,777.1405 2297.6241,777.7395 C 2297.6717,777.4985 2297.7214,777.2585 2297.7701,777.0185"
       id="path2532" />
    <path
       d="M 2301.5980,767.7385 C 2300.6909,767.9325 2300.8470,769.7345 2301.8236,769.4585 C 2302.3968,769.2975 2301.8114,767.9915 2301.5980,767.7385"
       id="path2540" />
    <path
       d="M 2303.3540,772.3385 C 2303.3318,772.4845 2303.3096,772.6315 2303.2874,772.7775 C 2303.8023,772.7425 2304.3059,772.6465 2304.7961,772.4885 C 2304.3148,772.4445 2303.8334,772.3945 2303.3540,772.3385"
       id="path2542" />
    <path
       d="M 2305.2638,765.1385 C 2305.2732,766.2695 2307.1786,767.6985 2307.9936,766.4445 C 2308.5746,765.5515 2305.7141,765.1825 2305.2638,765.1385"
       id="path2544" />
    <path
       d="M 2306.1706,773.4185 C 2306.1249,773.6585 2306.0792,773.8985 2306.0336,774.1385 C 2307.8916,774.2655 2309.4957,775.2795 2311.2932,775.6595 C 2312.0552,775.8205 2312.8683,776.1655 2313.6603,775.9545 C 2314.5401,775.7205 2315.5333,775.1935 2316.4725,775.3685 C 2315.7020,774.2475 2313.7370,774.3205 2312.5560,774.1785 C 2310.4242,773.9215 2308.3162,773.6395 2306.1706,773.4185"
       id="path2546" />
    <path
       d="M 2322.6148,831.7385 C 2322.5629,831.9785 2322.5110,832.2185 2322.4580,832.4585 C 2323.9052,831.9645 2325.5386,832.1875 2327.0781,832.1795 C 2328.5877,832.1725 2329.4099,831.4025 2330.4902,830.5145 C 2330.9649,830.1245 2333.7793,826.2435 2333.0729,825.4575 C 2331.0323,823.1895 2329.8131,822.9535 2327.1034,824.1245 C 2324.3169,825.3295 2323.5302,829.1235 2322.6148,831.7385"
       id="path2548" />
    <path
       d="M 2331.5469,832.3185 C 2331.7841,832.2455 2332.0214,832.1725 2332.2586,832.0985 C 2331.8186,831.3655 2331.7294,829.9565 2330.5621,830.4435 C 2329.0106,831.0895 2330.3976,832.2815 2331.5469,832.3185"
       id="path2550" />
    <path
       d="M 2329.8928,817.7785 C 2329.9777,818.3465 2330.3718,818.7175 2330.9226,818.8585 C 2330.8223,818.3105 2330.4487,817.8985 2329.8928,817.7785"
       id="path2552" />
    <path
       d="M 2273.8766,768.2385 C 2274.1035,767.6725 2274.0048,767.1685 2273.5783,766.7275 C 2275.8215,766.1565 2277.6851,766.0305 2279.4254,764.4195 C 2281.0404,762.9235 2282.7271,762.2865 2284.9123,762.8245 C 2287.1216,763.3685 2288.2318,764.9975 2290.1356,765.8165 C 2292.0625,766.6445 2294.0366,765.5435 2295.8316,766.9375 C 2294.4711,767.9515 2295.7918,769.3125 2296.3816,770.3345 C 2297.1784,771.7155 2296.2857,772.8675 2295.7837,774.1415 C 2294.4996,777.4055 2296.4617,781.3055 2297.9478,784.1475 C 2298.4479,783.4135 2297.7475,781.7635 2298.5717,781.2195 C 2299.7317,780.4525 2299.6068,783.8855 2299.6196,784.2115 C 2299.6473,784.8645 2299.8642,785.0245 2300.3128,785.4615 C 2300.9574,786.0885 2300.6611,786.9345 2301.2338,787.5745 C 2302.3440,788.8125 2304.6104,789.4745 2305.8743,788.1565 C 2306.7932,787.1985 2307.7396,786.3495 2308.6806,785.4185 C 2309.6694,784.4395 2309.8530,783.1285 2311.1766,782.2885 C 2312.3626,781.5355 2312.0047,778.7445 2313.5220,778.7355 C 2315.3203,778.7245 2316.1875,778.8945 2317.8648,778.0175 C 2319.0665,777.3895 2319.1211,776.9685 2318.5776,775.8425 C 2318.1606,774.9755 2320.7931,773.7475 2321.3246,773.4645 C 2322.6607,772.7515 2323.8991,772.2585 2325.3216,772.9895 C 2327.1784,773.9445 2329.3906,774.6115 2331.0572,775.8615 C 2332.4575,776.9115 2334.0462,777.4905 2335.6020,778.2755 C 2336.6664,778.8125 2338.7594,780.4545 2340.0031,780.0185 C 2341.5722,779.4675 2342.2364,780.6655 2343.8466,780.6435 C 2345.5368,780.6205 2346.3863,782.3665 2348.0603,782.1395 C 2347.8808,787.1735 2347.6053,792.1965 2347.5862,797.2225 C 2347.5661,802.4845 2348.1460,807.8925 2347.9372,813.1225 C 2347.8802,814.7965 2346.7148,815.9925 2346.9501,817.7705 C 2347.0470,818.5035 2348.0342,818.8995 2348.0761,819.3595 C 2348.1781,820.4765 2348.0923,821.6235 2348.1169,822.7395 C 2348.2341,827.9935 2348.3134,833.2645 2348.2978,838.5095 C 2346.0350,837.4225 2345.3654,834.9585 2343.5796,833.3965 C 2342.6968,832.6245 2339.4197,830.6615 2340.7472,829.2995 C 2339.8679,830.0375 2338.1522,829.7245 2337.0601,830.1735 C 2336.1303,830.5555 2334.3544,830.6435 2334.7285,829.0805 C 2334.3008,829.6675 2333.1703,830.7745 2332.3523,830.7825 C 2331.1153,830.7945 2332.3704,828.6705 2332.4719,828.3705 C 2332.8033,827.3915 2333.9798,825.1945 2332.9331,824.6605 C 2331.9894,824.1795 2331.6245,822.9955 2330.8702,822.3095 C 2331.9591,821.2945 2333.6825,823.0695 2334.4784,821.5195 C 2332.9942,823.1425 2330.6354,820.5845 2329.4027,819.5805 C 2330.7570,817.8505 2332.6601,819.8695 2334.1959,819.9395 C 2332.8184,819.4235 2331.6054,818.5045 2330.3238,817.7795 C 2331.7214,817.5305 2330.4598,817.0945 2329.9470,816.6055 C 2329.2187,815.9135 2328.4888,815.0805 2328.1451,814.1405 C 2327.7244,812.9315 2326.4601,810.6675 2328.0159,810.0695 C 2326.4800,810.6495 2326.2803,808.9545 2327.7093,808.6995 C 2327.1705,808.6985 2325.8783,809.5535 2325.4199,808.9205 C 2324.8707,808.1635 2325.8147,807.1705 2325.3974,806.3305 C 2325.0507,808.1765 2323.4991,805.2305 2322.8800,804.9705 C 2321.8240,804.5265 2321.7470,804.2715 2320.9395,803.9115 C 2320.3155,803.6335 2318.8272,803.2225 2318.4248,802.6135 C 2317.8709,801.7735 2314.7656,801.7055 2313.7664,801.1215 C 2312.1981,800.2055 2310.3798,799.2075 2308.6558,798.6635 C 2306.9921,798.1395 2304.6181,798.6235 2303.1519,797.9225 C 2301.8426,797.2975 2300.0994,796.4325 2299.4768,795.0225 C 2298.8984,793.7125 2301.0030,793.9185 2301.7090,793.7995 C 2300.8225,793.5365 2299.6997,793.0915 2299.0563,793.9725 C 2298.3316,794.9645 2297.7200,793.4375 2296.9904,793.2195 C 2297.0695,794.6955 2294.7001,793.6105 2295.7218,792.5795 C 2294.1481,792.5945 2293.5339,792.6115 2293.0164,790.6985 C 2292.9802,791.2545 2292.7067,791.7085 2292.2208,791.1375 C 2291.5525,790.3305 2292.0538,789.8265 2291.9752,788.9835 C 2291.8316,787.4405 2293.3631,786.5685 2293.4125,785.0085 C 2293.0359,785.8185 2291.6881,786.1055 2291.6937,787.1155 C 2291.6987,788.0175 2291.7855,789.4195 2290.4857,789.3385 C 2291.6158,789.8425 2290.7248,790.4305 2290.3774,791.0585 C 2290.1381,791.2855 2289.9136,791.5255 2289.7008,791.7785 C 2289.6908,792.2575 2289.6939,792.7375 2289.7080,793.2185 C 2289.4188,794.2405 2287.4030,795.3205 2286.3011,795.0185 C 2285.3254,794.7505 2284.6289,792.5065 2284.5453,791.6675 C 2284.4892,791.1015 2285.2362,791.0485 2285.6135,790.8685 C 2286.6264,790.3905 2285.0419,789.1075 2285.2973,788.2585 C 2284.0621,789.0055 2282.5028,785.0065 2280.7650,784.9365 C 2278.0717,784.8265 2279.5089,782.9745 2281.4453,782.7785 C 2283.4587,782.5735 2284.9210,784.5695 2286.3045,782.2325 C 2287.3411,780.4835 2290.5347,779.9265 2289.7273,782.7785 C 2289.9466,782.2935 2290.1109,781.7905 2290.2190,781.2685 C 2290.5127,782.6495 2292.0887,780.9415 2292.0358,782.4185 C 2292.2452,781.2195 2292.6620,781.8865 2292.9675,782.4985 C 2293.2551,781.8715 2293.3006,781.0585 2292.7356,780.5485 C 2293.2343,780.6535 2293.7172,780.6075 2294.1852,780.4085 C 2293.7663,779.9075 2293.7866,779.4275 2294.2472,778.9685 C 2292.7132,780.1145 2293.8886,778.1485 2294.1708,777.8185 C 2292.5212,777.9565 2291.6378,779.0055 2289.8629,778.7305 C 2288.7568,778.5595 2287.2872,779.6045 2286.3321,779.2535 C 2285.1564,778.8225 2284.6677,779.6225 2283.7425,778.7085 C 2283.4227,778.3925 2282.5187,778.9715 2282.2127,778.9905 C 2281.1939,779.0535 2280.3796,778.1245 2279.6166,777.5985 C 2279.8033,777.3535 2279.9950,777.1135 2280.1928,776.8785 C 2279.3814,777.0205 2278.6440,776.0705 2278.9299,775.2985 C 2279.0363,775.0105 2279.4232,774.6165 2279.3654,774.2835 C 2279.2208,773.4355 2277.9050,774.8155 2278.8018,773.2785 C 2278.0665,773.4225 2277.8815,773.4325 2277.9381,772.6295 C 2276.9072,774.1365 2274.8744,771.5015 2273.9716,771.5495 C 2274.8379,772.6825 2272.7766,772.5095 2272.2455,772.1445 C 2270.7737,771.1285 2273.6140,769.2525 2273.8766,768.2385"
       id="path2562" />
    <path
       d="M 2006.5199,739.0055 C 2006.8270,739.2245 2007.9604,739.3445 2007.8075,738.5825 C 2007.7342,738.2145 2006.5112,737.4485 2006.2245,737.1505 C 2005.8662,736.7785 2005.4337,736.4405 2004.8659,736.5575 C 2005.1782,735.7575 2004.0989,735.1525 2003.5477,734.9015 C 2003.2587,734.7695 2003.0374,734.1715 2002.6351,734.4935 C 2001.8901,735.0895 2001.8862,735.6915 2002.5897,736.3195 C 2003.7620,737.3675 2005.8803,737.3775 2006.5199,739.0055"
       id="path2206" />
    <path
       d="M 2182.6951,804.3085 C 2182.4237,805.5215 2183.1293,806.6345 2183.0257,807.8385 C 2184.1153,807.3185 2184.8807,809.4665 2186.0815,808.5375 C 2186.9025,807.9025 2186.9090,807.7805 2188.0214,807.9075 C 2189.0673,808.0275 2189.6970,806.8405 2190.7354,807.6175 C 2190.5489,805.9295 2189.1294,804.4725 2189.6574,802.7405 C 2190.3005,800.6225 2190.6268,799.2375 2190.2398,796.9165 C 2189.9155,794.9755 2190.2692,793.4515 2190.3439,791.5635 C 2190.3782,790.7015 2190.2837,789.8455 2190.3734,788.9815 C 2190.5233,787.5335 2189.8701,787.5355 2189.5060,786.3075 C 2188.7980,783.9195 2192.9264,781.9675 2194.7366,782.5335 C 2196.3715,783.0445 2195.8845,786.6925 2195.0301,787.6465 C 2192.6277,790.3275 2196.8642,793.3775 2199.2412,794.6175 C 2200.2495,795.1435 2197.9889,798.8155 2199.0685,800.3105 C 2199.6511,801.1165 2201.4475,801.5295 2202.3637,801.6625 C 2203.4907,801.8255 2203.1090,800.0165 2203.1969,799.3775 C 2203.3961,797.9395 2205.4450,798.2015 2206.4341,797.7905 C 2207.0220,797.5455 2209.5257,798.7885 2208.0267,797.0385 C 2209.2230,798.8895 2210.4890,795.1375 2208.5415,794.5885 C 2208.2948,796.3495 2207.6903,793.9235 2206.7747,793.9385 C 2206.9532,793.6745 2207.1328,793.4115 2207.3113,793.1485 C 2206.5161,793.1145 2205.4745,792.0785 2204.9894,791.4995 C 2204.2041,790.5545 2205.1685,789.7775 2204.4945,788.8295 C 2204.8520,788.9175 2205.2125,788.9905 2205.5759,789.0495 C 2204.7472,788.5475 2204.9621,787.3315 2206.0067,787.3895 C 2205.8128,787.0205 2205.5581,786.6975 2205.2446,786.4225 C 2204.6693,785.7945 2205.0810,785.1245 2204.6915,784.4395 C 2204.3655,783.8655 2203.6081,783.8215 2203.2464,783.2905 C 2202.8353,782.6865 2202.6964,781.7245 2202.3579,781.0515 C 2201.8477,780.0365 2201.4177,779.0425 2200.3438,778.5185 C 2199.4685,778.0915 2199.0443,776.2635 2197.8828,776.8105 C 2197.9327,776.1885 2197.9526,775.5645 2197.9425,774.9405 C 2199.1639,775.9725 2200.1318,776.9145 2201.3565,775.2125 C 2202.4183,773.7355 2203.5334,773.7145 2205.0404,772.8705 C 2207.1090,771.7125 2208.6027,766.8515 2211.3225,766.9375 C 2212.0987,766.9625 2212.2491,769.2055 2213.1425,768.2605 C 2213.6757,767.6975 2214.6895,766.2575 2214.1403,765.4555 C 2213.2274,764.1235 2209.7060,764.5325 2208.6275,765.4295 C 2209.2158,765.4915 2209.7211,765.7315 2210.1413,766.1495 C 2208.7234,766.1995 2204.6408,765.2055 2204.1530,767.0415 C 2203.8261,768.2705 2200.1263,768.2245 2200.3518,766.5105 C 2199.1224,767.2665 2197.8505,768.5205 2197.2359,769.8385 C 2196.5680,771.2735 2196.2621,772.1205 2194.5990,771.7585 C 2193.5097,771.5225 2192.4761,771.2385 2192.1710,770.0105 C 2192.0169,769.3915 2191.9568,768.7655 2191.6130,768.2065 C 2190.9798,767.1785 2190.5558,768.0155 2189.8582,767.5095 C 2187.6129,765.8835 2187.4908,760.8235 2188.4477,758.5755 C 2188.9964,757.2865 2189.9163,755.8415 2191.1870,755.1585 C 2192.2363,754.5955 2194.8201,755.5255 2195.9202,755.9245 C 2196.7006,756.2065 2198.1895,755.5545 2198.8859,755.2325 C 2200.3227,754.5655 2200.7268,755.5855 2202.1230,755.7975 C 2203.6763,756.0325 2205.7402,755.1925 2207.4006,755.2335 C 2209.3880,755.2835 2210.6656,755.3955 2212.2616,756.5435 C 2214.2461,757.9715 2220.3857,757.0085 2221.9861,755.1255 C 2223.0855,753.8325 2223.4670,752.3835 2224.7919,751.1875 C 2226.2183,749.8995 2226.1410,747.7175 2227.6811,746.5655 C 2227.1353,746.2215 2226.8222,745.6215 2227.0228,744.9815 C 2226.4576,745.1275 2225.6605,744.7275 2225.1856,745.1325 C 2224.4717,745.7395 2224.5189,746.9255 2223.5384,747.2265 C 2222.0417,747.6855 2222.9971,748.1475 2222.2940,749.0855 C 2221.8887,749.6265 2220.8856,749.4175 2220.6034,750.1585 C 2219.8959,752.0145 2217.0535,752.3455 2215.4736,752.0045 C 2214.1351,751.7155 2212.5524,751.4075 2211.1787,751.4765 C 2210.4069,751.5155 2209.6722,752.3705 2209.0358,752.1145 C 2207.0417,751.3125 2205.6327,750.9315 2203.4974,750.7095 C 2202.3998,750.5955 2201.7592,750.2725 2200.5937,750.3905 C 2199.2643,750.5245 2198.8572,748.7105 2198.1842,748.7235 C 2197.3153,748.7395 2194.0792,747.1505 2193.9032,748.9565 C 2193.6635,751.4175 2191.4431,753.7615 2189.6251,751.1795 C 2189.4571,751.9865 2189.1971,752.5995 2188.5748,753.1505 C 2187.7335,753.8955 2187.9112,755.0465 2187.0934,755.7095 C 2185.5325,756.9725 2187.5886,759.1725 2185.9891,760.3195 C 2185.8533,759.7535 2185.4454,759.3695 2184.8361,759.5295 C 2185.2397,761.0575 2186.4210,760.6835 2185.9456,762.4455 C 2185.5125,764.0515 2186.9870,765.5235 2186.5340,767.1605 C 2186.1980,766.5505 2186.0555,765.8465 2185.5140,765.3595 C 2184.6259,767.7965 2182.7148,769.0695 2182.5954,771.8395 C 2182.5414,773.0765 2182.6569,774.3955 2182.5738,775.6005 C 2182.4767,777.0125 2181.1609,777.9275 2181.0722,779.4385 C 2180.9560,781.4395 2177.6887,782.3625 2178.2070,784.0335 C 2178.4987,784.9745 2179.2500,784.3865 2178.4443,785.7195 C 2177.7477,786.8735 2178.6831,789.3725 2179.1561,790.5605 C 2179.8017,789.8305 2181.4778,789.5605 2182.3868,789.5115 C 2184.3759,789.4045 2182.8410,791.3335 2183.5504,792.4895 C 2184.7272,794.4095 2184.5574,796.0515 2184.3361,798.2625 C 2184.1482,800.0725 2183.8373,802.8905 2182.6951,804.3085"
       id="path2348" />
    <path
       d="M 2202.5447,803.5185 C 2200.2603,804.3245 2202.4916,806.9255 2202.6086,806.8135 C 2203.2011,806.2435 2203.0267,804.1645 2202.5447,803.5185"
       id="path2366" />
    <path
       d="M 2202.3525,763.6285 C 2201.9598,762.9055 2200.9386,762.8765 2200.9135,763.8485 C 2201.4355,764.0455 2201.9152,763.9715 2202.3525,763.6285"
       id="path2368" />
    <path
       d="M 2203.4297,762.8385 C 2202.9663,762.1835 2202.3963,762.2025 2201.9185,762.8385 C 2202.3902,763.1705 2202.9522,763.1585 2203.4297,762.8385"
       id="path2370" />
    <path
       d="M 2206.9005,806.6175 C 2207.1784,806.2475 2207.8765,805.4535 2207.5742,804.9115 C 2207.0228,803.9195 2207.9943,803.4735 2208.2153,802.6185 C 2208.3356,802.1515 2208.7658,798.9645 2207.5189,799.6545 C 2206.9022,799.9955 2206.0872,800.4445 2205.5619,800.9015 C 2204.5732,801.7595 2206.2004,802.8585 2205.5132,803.7755 C 2205.2484,804.1295 2204.5718,805.3515 2204.8358,805.8185 C 2205.2649,806.5735 2206.5232,806.3495 2206.4681,805.4595 C 2206.6007,805.8485 2206.7452,806.2355 2206.9005,806.6175"
       id="path2372" />
    <path
       d="M 2210.8707,797.6885 C 2209.0213,797.7225 2208.5643,801.7085 2208.5594,803.1205 C 2208.5548,804.5935 2208.0122,805.2285 2207.5448,806.5725 C 2206.9649,808.2375 2207.9768,807.7935 2208.9636,808.7785 C 2209.3783,808.1655 2209.3810,807.3455 2209.8211,806.7595 C 2210.2651,806.1695 2211.1610,806.4905 2211.5823,805.9265 C 2212.1863,805.1205 2210.7690,803.7015 2210.0209,804.5275 C 2210.1896,803.6515 2210.0946,802.7335 2210.2895,801.8605 C 2210.4178,801.2855 2211.3789,799.3785 2211.7109,801.0675 C 2212.4405,799.7325 2210.8592,798.9585 2210.8707,797.6885"
       id="path2378" />
    <path
       d="M 2212.4864,773.7785 C 2212.4508,773.2675 2212.4952,772.7645 2212.6187,772.2685 C 2215.3755,773.6935 2214.6567,768.2635 2212.4754,771.6185 C 2211.7529,770.5555 2213.1896,770.2565 2211.7321,769.8085 C 2211.2333,769.6555 2210.6458,769.5925 2210.1853,769.8925 C 2209.1326,770.5775 2209.3905,772.3405 2209.6737,773.3485 C 2210.4797,772.9345 2210.9347,772.1205 2211.3138,771.3385 C 2212.1068,771.9065 2211.3607,773.6955 2212.4864,773.7785"
       id="path2386" />
    <path
       d="M 2210.5965,794.0085 C 2209.7941,794.3525 2209.9746,795.8575 2210.7996,796.1725 C 2212.0305,796.6425 2212.5949,794.2675 2210.5965,794.0085"
       id="path2388" />
    <path
       d="M 2213.1161,769.9685 C 2212.8787,770.2735 2212.7243,770.2005 2212.9708,770.6885 C 2213.0186,770.4485 2213.0674,770.2085 2213.1161,769.9685"
       id="path2394" />
    <path
       d="M 2213.4888,774.2185 C 2213.1724,774.3425 2213.0065,774.5825 2212.9923,774.9385 C 2213.1582,774.6985 2213.3230,774.4585 2213.4888,774.2185"
       id="path2396" />
    <path
       d="M 2214.4529,805.0285 C 2214.5556,805.5405 2214.4938,805.7445 2215.1429,805.7495 C 2214.9122,805.5085 2214.6826,805.2685 2214.4529,805.0285"
       id="path2398" />
    <path
       d="M 2215.7777,806.8985 C 2215.8565,807.3055 2216.1079,807.5225 2216.5350,807.5485 C 2216.2825,807.3315 2216.0311,807.1145 2215.7777,806.8985"
       id="path2400" />
    <path
       d="M 2218.0062,810.5785 C 2217.5173,811.0965 2217.6980,811.3365 2218.5472,811.2985 C 2218.3665,811.0585 2218.1869,810.8185 2218.0062,810.5785"
       id="path2404" />
    <path
       d="M 2221.4888,773.9285 C 2220.2379,775.7645 2221.2493,777.3645 2223.4422,776.6585 C 2223.7891,776.4435 2224.1472,776.2515 2224.5194,776.0835 C 2224.9379,776.1675 2225.3602,776.2085 2225.7873,776.2055 C 2226.5814,775.8065 2227.9733,776.1235 2228.3360,775.0795 C 2227.7602,775.1495 2227.3756,774.8475 2227.2517,774.2895 C 2226.3283,775.6015 2222.8765,773.4355 2221.4888,773.9285"
       id="path2408" />
    <path
       d="M 2229.1741,735.7655 C 2228.4401,735.5925 2228.3560,735.8325 2228.9235,736.4855 C 2229.0077,736.2455 2229.0909,736.0055 2229.1741,735.7655"
       id="path2414" />
    <path
       d="M 2230.9044,730.5815 C 2231.3749,729.6795 2230.2269,726.8045 2229.0599,728.0605 C 2230.2260,728.3845 2229.7554,730.0915 2230.9044,730.5815"
       id="path2416" />
    <path
       d="M 2229.0548,775.0085 C 2228.0252,776.0935 2230.6790,776.1495 2231.1951,776.1575 C 2232.5985,776.1805 2234.6771,776.3975 2235.7486,775.2985 C 2233.5404,774.9735 2231.2062,775.7905 2229.0548,775.0085"
       id="path2418" />
    <path
       d="M 2233.1641,776.6585 C 2231.6225,776.9925 2233.0451,780.5095 2233.8371,781.0575 C 2234.1533,780.4995 2233.5311,777.2235 2233.1641,776.6585"
       id="path2422" />
    <path
       d="M 2238.3965,792.7185 C 2239.4237,792.1925 2241.7215,791.8425 2242.3367,790.8335 C 2243.1728,789.5575 2242.6998,788.6215 2241.3679,788.3285 C 2242.4179,787.1375 2240.1185,786.4035 2239.3253,786.2065 C 2237.8350,785.8365 2236.5120,786.2995 2235.0365,786.4595 C 2233.2300,786.6565 2232.8576,787.5515 2233.6809,789.2935 C 2234.5690,791.1245 2236.6705,791.8225 2238.3965,792.7185"
       id="path2424" />
    <path
       d="M 2238.8421,726.7655 C 2239.0639,726.1885 2238.8704,725.6105 2238.4063,725.2535 C 2238.5275,725.7655 2238.6721,726.2695 2238.8421,726.7655"
       id="path2426" />
    <path
       d="M 2239.2031,725.1095 C 2240.0246,724.2965 2240.2702,723.0255 2240.1673,721.9465 C 2240.1150,721.3915 2239.6999,719.7475 2239.1310,721.0645 C 2238.7354,721.9815 2239.7683,722.7085 2239.3902,723.4035 C 2239.0446,724.0425 2238.3818,724.5165 2239.2031,725.1095"
       id="path2428" />
    <path
       d="M 2243.0984,761.8985 C 2242.1943,761.5115 2241.4889,763.5395 2242.0987,764.0585 C 2243.1546,764.9565 2243.2433,762.4445 2243.0984,761.8985"
       id="path2432" />
    <path
       d="M 2243.1141,764.8585 C 2242.2494,765.3095 2242.6966,766.6665 2243.7021,766.3685 C 2243.5903,765.8325 2243.3946,765.3285 2243.1141,764.8585"
       id="path2434" />
    <path
       d="M 2243.7671,752.1785 C 2243.5509,752.5215 2243.6796,752.6545 2243.9913,752.9685 C 2243.9169,752.7055 2243.8415,752.4415 2243.7671,752.1785"
       id="path2438" />
    <path
       d="M 2245.3306,762.2585 C 2245.0952,762.5735 2244.8559,762.8865 2244.6155,763.1975 C 2244.3702,762.9625 2244.1289,762.7215 2243.8916,762.4775 C 2243.2401,764.4755 2244.2113,763.7465 2244.8448,765.1375 C 2244.9864,765.4455 2244.0683,766.7675 2245.0522,766.5305 C 2245.5856,766.4025 2246.1600,766.0965 2246.3588,766.7995 C 2246.5871,767.6105 2249.4533,766.2505 2247.0495,765.5895 C 2246.0679,765.3195 2245.8339,764.7545 2246.3585,763.9055 C 2246.6877,763.3775 2245.6272,762.5525 2245.3306,762.2585"
       id="path2440" />
    <path
       d="M 2244.2893,756.3585 C 2244.1081,756.6985 2243.9606,756.6095 2244.2931,757.0795 C 2244.2918,756.8385 2244.2905,756.5985 2244.2893,756.3585"
       id="path2442" />
    <path
       d="M 2244.7328,771.9785 C 2243.6242,772.8435 2244.2125,774.4005 2245.5367,774.5795 C 2246.0962,774.6545 2246.5880,774.2195 2247.1411,774.2195 C 2247.7422,774.2195 2248.3423,774.4105 2248.9446,774.4445 C 2250.9976,774.5595 2248.9728,772.5905 2248.3570,772.2775 C 2247.0082,771.5905 2246.0536,770.9395 2244.7328,771.9785"
       id="path2444" />
    <path
       d="M 2244.5625,753.1885 C 2244.3954,753.1655 2244.2293,753.1415 2244.0621,753.1185 C 2244.1937,753.4055 2244.3621,753.6695 2244.5663,753.9095 C 2244.5651,753.6685 2244.5638,753.4285 2244.5625,753.1885"
       id="path2446" />
    <path
       d="M 2246.4663,759.5285 C 2246.5320,760.4225 2246.1869,761.3565 2246.8211,762.1315 C 2247.4342,762.8805 2248.0841,763.2415 2248.4443,764.1965 C 2248.8389,765.2395 2250.7831,767.4885 2251.6953,766.9385 C 2249.0767,764.2705 2248.7556,761.0515 2248.2223,757.6195 C 2247.9904,756.1325 2248.0439,754.9095 2249.9010,755.8535 C 2251.4805,756.6565 2253.7682,757.1435 2255.5232,757.2985 C 2254.4182,756.7595 2254.3911,755.4155 2253.4932,754.7095 C 2252.5934,753.9995 2250.0598,754.1155 2251.1471,752.2815 C 2251.8726,751.0575 2253.8065,751.0185 2254.1644,749.4945 C 2254.4069,748.4665 2253.6706,746.7415 2254.1026,745.9885 C 2252.2551,745.5195 2250.2468,747.3435 2249.5079,748.8695 C 2251.2314,748.9525 2249.5541,749.8465 2249.0760,750.0355 C 2248.0362,750.4465 2248.4972,751.5675 2248.0092,752.3325 C 2247.5024,753.1255 2246.4170,752.3115 2246.0932,751.7835 C 2245.5152,750.8445 2246.7020,750.2365 2247.3378,749.8165 C 2248.6493,748.9505 2249.4951,746.2825 2248.7660,744.7645 C 2248.4535,744.1145 2247.3593,743.8785 2247.6197,743.0075 C 2247.8882,742.1725 2249.0476,741.6565 2248.7656,740.6615 C 2247.0049,740.6745 2246.1251,742.8965 2245.7123,744.2685 C 2245.2740,745.7225 2244.1326,748.2935 2244.4022,749.7325 C 2244.5340,750.4395 2244.8429,751.1775 2245.2431,751.7745 C 2245.4036,752.0585 2245.6317,752.2665 2245.9264,752.3975 C 2245.4506,752.9975 2245.2835,753.7325 2245.3625,754.4865 C 2245.4647,755.4725 2245.8087,756.0365 2246.3996,756.7705 C 2246.9946,757.5075 2246.5929,758.7055 2246.4663,759.5285"
       id="path2452" />
    <path
       d="M 2245.5902,769.7485 C 2245.3282,769.9415 2245.0662,770.1355 2244.8042,770.3285 C 2245.3396,770.3995 2245.8432,770.3035 2246.3129,770.0385 C 2246.0713,769.9425 2245.8308,769.8455 2245.5902,769.7485"
       id="path2454" />
    <path
       d="M 2245.2453,787.8185 C 2244.8143,788.4205 2245.0096,788.6605 2245.8292,788.5395 C 2245.6349,788.2985 2245.4406,788.0585 2245.2453,787.8185"
       id="path2456" />
    <path
       d="M 2246.3207,786.8885 C 2246.1480,787.1485 2246.0795,787.4355 2246.1151,787.7485 C 2246.3872,787.7515 2246.6510,787.7045 2246.9046,787.6075 C 2246.7352,787.3475 2246.5409,787.1085 2246.3207,786.8885"
       id="path2458" />
    <path
       d="M 2248.1901,784.7985 C 2247.9640,785.1675 2247.7268,785.5275 2247.4756,785.8785 C 2248.0441,785.7595 2248.3242,785.3765 2248.1901,784.7985"
       id="path2462" />
    <path
       d="M 2263.6998,789.6175 C 2265.3133,790.5475 2266.9942,791.1935 2268.5358,792.3445 C 2270.3299,793.6825 2270.4510,791.6765 2270.1105,790.3395 C 2269.9340,789.5165 2268.8273,789.2515 2268.6600,788.4685 C 2268.4886,787.6605 2268.4837,786.7585 2267.6799,786.2805 C 2266.9374,785.8385 2266.6542,785.2615 2265.6880,785.4485 C 2264.7177,785.6365 2263.7858,785.5015 2262.9922,784.8765 C 2262.2197,784.2675 2261.2310,783.8055 2260.2310,783.8365 C 2259.2309,783.8675 2258.7681,784.6805 2257.8839,784.8745 C 2257.1036,785.0445 2256.8014,784.6375 2256.3837,784.1495 C 2256.2357,783.9755 2253.7877,784.2775 2253.4345,784.2525 C 2250.0674,784.0085 2246.5311,786.3975 2247.9292,790.1295 C 2247.9522,789.3695 2248.9831,786.2815 2250.0707,786.5285 C 2249.7310,787.5445 2251.5441,789.1675 2252.4102,789.3285 C 2252.7656,789.3945 2256.7968,786.0305 2255.8433,788.6185 C 2256.4758,788.4795 2260.2158,789.9805 2260.4210,788.6935 C 2260.5981,787.5865 2263.5008,788.5055 2263.6998,789.6175"
       id="path2464" />
    <path
       d="M 2248.6510,790.6285 C 2248.0934,790.9025 2247.6892,791.4715 2247.8668,792.1385 C 2248.7109,792.0315 2249.2619,791.3715 2250.0496,791.1385 C 2249.3533,792.4305 2251.0862,791.1935 2250.8782,789.9785 C 2250.0673,790.0345 2249.5139,790.8005 2248.6510,790.6285"
       id="path2466" />
    <path
       d="M 2249.6692,739.7255 C 2249.9015,739.3975 2250.0549,739.5035 2249.7704,739.0055 C 2249.7370,739.2455 2249.7036,739.4855 2249.6692,739.7255"
       id="path2468" />
    <path
       d="M 2250.7163,742.1015 C 2253.4499,741.4925 2254.5481,739.1935 2253.0390,736.7735 C 2252.6870,737.5545 2251.7972,737.7525 2251.2399,738.3315 C 2250.2754,739.3315 2250.1830,740.9545 2250.7163,742.1015"
       id="path2470" />
    <path
       d="M 2251.8185,789.9785 C 2251.6088,790.2465 2251.5834,790.5365 2251.7533,790.8485 C 2252.0480,790.7045 2252.3104,790.5115 2252.5412,790.2685 C 2252.2996,790.1715 2252.0590,790.0745 2251.8185,789.9785"
       id="path2474" />
    <path
       d="M 2252.8977,789.7685 C 2252.6345,790.5155 2253.2524,791.1515 2253.9899,790.7785 C 2253.8923,790.2105 2253.4869,789.7925 2252.8977,789.7685"
       id="path2478" />
    <path
       d="M 2259.1475,759.5285 C 2259.5270,760.1745 2260.0970,760.7065 2260.8055,760.9685 C 2260.3026,760.4515 2259.8024,759.8615 2259.1475,759.5285"
       id="path2482" />
    <path
       d="M 2264.0623,777.0185 C 2264.5552,777.1845 2265.0590,777.3045 2265.5745,777.3785 C 2266.1275,777.3655 2266.4199,776.8645 2267.0125,776.9475 C 2266.4271,776.1505 2267.6382,775.7625 2267.0056,774.5525 C 2266.3284,773.2555 2263.4674,775.3985 2262.3232,775.5785 C 2262.5056,776.3895 2263.2339,776.9885 2264.0623,777.0185"
       id="path2484" />
    <path
       d="M 2263.2315,769.4585 C 2262.9332,769.6065 2262.6682,769.8005 2262.4345,770.0385 C 2263.1266,770.4205 2263.3927,770.2275 2263.2315,769.4585"
       id="path2486" />
    <path
       d="M 2264.9785,759.5985 C 2265.0998,759.8385 2265.2211,760.0785 2265.3424,760.3185 C 2265.4352,759.7165 2265.2512,759.9055 2264.9785,759.5985"
       id="path2488" />
    <path
       d="M 2269.6793,763.3385 C 2272.6933,764.1895 2269.6712,761.2955 2269.0154,760.6085 C 2269.8638,760.4885 2270.4378,761.3995 2270.8979,761.9465 C 2271.7575,762.9675 2271.9818,762.0885 2272.8121,762.5025 C 2274.3836,763.2855 2274.5124,761.0445 2273.3678,760.4195 C 2272.2895,759.8315 2266.6724,758.9895 2266.5668,761.1075 C 2267.9948,760.1425 2267.2161,761.7015 2266.3484,761.3975 C 2267.0412,762.2795 2268.6052,761.6775 2268.3078,763.2675 C 2268.3888,762.7235 2268.7796,762.3115 2269.3130,762.1875 C 2269.4551,762.5655 2269.5762,762.9485 2269.6793,763.3385"
       id="path2490" />
    <path
       d="M 2267.6075,766.7285 C 2267.3557,768.0845 2271.0007,767.6065 2270.6261,766.2185 C 2269.8587,767.0805 2268.5650,766.4285 2267.6075,766.7285"
       id="path2494" />
    <path
       d="M 2269.0285,763.1975 C 2268.5994,763.3755 2268.2649,763.6615 2268.0230,764.0575 C 2268.6512,764.4375 2270.0489,763.6205 2269.0285,763.1975"
       id="path2496" />
    <path
       d="M 2271.0710,767.2985 C 2268.3391,767.7545 2269.4256,769.6625 2270.9158,771.1285 C 2271.7815,771.9795 2273.4629,767.7625 2271.0710,767.2985"
       id="path2500" />
    <path
       d="M 2272.8760,768.1685 C 2272.6527,768.4885 2272.4259,768.3485 2272.5899,768.8885 C 2272.6846,768.6485 2272.7803,768.4085 2272.8760,768.1685"
       id="path2506" />
    <path
       d="M 2273.6755,794.8085 C 2273.8192,795.2555 2273.8173,795.4415 2274.3678,795.5285 C 2274.1373,795.2885 2273.9069,795.0485 2273.6755,794.8085"
       id="path2508" />
    <path
       d="M 2274.5499,793.8675 C 2273.9200,793.7735 2274.0074,794.0135 2274.8130,794.5885 C 2274.7257,794.3485 2274.6373,794.1085 2274.5499,793.8675"
       id="path2510" />
    <path
       d="M 2289.1816,795.0985 C 2288.9518,796.0955 2290.9359,796.3075 2291.4472,796.8185 C 2290.8393,796.0355 2289.7902,795.8795 2289.1816,795.0985"
       id="path2522" />
    <path
       d="M 2215.0913,846.0685 C 2215.5115,846.3635 2215.4828,846.6725 2216.0643,846.4285 C 2216.3479,847.4955 2214.3952,847.8345 2214.3276,849.2395 C 2215.1718,848.9735 2216.0666,849.2065 2216.9288,849.0405 C 2218.0522,848.8235 2218.8047,847.6095 2219.9597,847.5765 C 2221.8154,847.5235 2222.4091,846.9935 2223.5380,845.6185 C 2224.2656,844.7315 2225.5137,843.6095 2225.7599,842.4965 C 2226.1342,840.8045 2225.2117,842.1634 2226.6633,841.6674 L 2227.4763,837.8390 L 2225.7449,836.5740 C 2222.8504,837.7780 2225.1975,838.4548 2221.7328,839.1348 C 2220.8693,839.3040 2221.7484,841.7843 2221.1602,842.1763 C 2220.5719,842.5683 2220.3038,841.2469 2219.9184,841.8129 C 2219.5328,842.3789 2217.9204,840.3635 2217.6650,841.0548 C 2217.4096,841.7462 2215.2896,845.3005 2215.0913,846.0685"
       id="path2392" />
    <path
       d="M 2180.7389,829.9385 C 2180.2483,830.1365 2180.1051,830.4965 2180.3092,831.0185 C 2180.9776,830.9555 2181.1148,830.4895 2180.7389,829.9385"
       id="path2346" />
    <path
       d="M 2074.8639,816.1175 C 2074.5662,816.2515 2074.3155,816.4445 2074.1108,816.6975 C 2074.8307,817.0815 2075.0814,816.8875 2074.8639,816.1175"
       id="path2278" />
    <path
       d="M 2086.0378,812.0085 C 2085.3743,811.5125 2082.1360,810.9185 2081.5369,811.5085 C 2081.3596,809.4705 2079.5892,812.1375 2079.3643,812.8085 C 2079.1348,813.4875 2079.3003,816.7585 2077.7775,815.4685 C 2077.6056,816.5435 2076.9977,817.4055 2076.6712,818.4185 C 2076.1772,817.4085 2075.2756,817.6845 2074.5681,818.1385 C 2076.9690,819.2645 2079.6250,817.9145 2081.8189,819.3685 C 2082.5027,819.8215 2083.4423,819.8575 2084.1820,820.2005 C 2085.3624,820.7465 2083.8187,821.5815 2083.7022,822.3705 C 2083.3880,824.5005 2089.5057,824.1305 2090.6596,824.3345 C 2092.8802,824.7275 2094.8141,826.3255 2097.0419,826.8885 C 2097.7451,827.0665 2098.7088,827.2995 2099.3659,826.9505 C 2100.0675,826.5775 2099.8524,825.9415 2100.8943,825.9115 C 2103.5505,825.8335 2106.2836,826.4615 2108.8177,827.2825 C 2111.9546,828.2975 2115.0300,829.9325 2118.2245,830.6495 C 2119.5517,830.9475 2121.3966,830.6735 2122.6066,831.2425 C 2123.8541,831.8285 2124.8466,831.2915 2126.1699,831.4175 C 2128.8773,831.6755 2131.9985,833.3415 2134.3425,831.6585 C 2136.2545,830.2835 2138.7607,832.7905 2140.5573,833.6835 C 2141.1642,833.9855 2144.7518,834.2035 2144.7074,834.6145 C 2144.6271,835.3615 2145.7809,835.8105 2146.3667,835.5155 C 2146.7995,835.2965 2145.5000,833.7965 2145.3461,833.5845 C 2143.9957,831.7225 2145.3355,829.8775 2145.3758,827.9615 C 2145.4007,826.7585 2144.1868,826.5335 2143.2955,826.2605 C 2141.7693,825.7925 2141.3539,826.4415 2139.9490,826.3045 C 2138.6209,826.1765 2136.8954,827.1305 2135.7137,826.5695 C 2134.9631,826.2135 2132.8353,825.5185 2132.4435,824.7235 C 2132.1081,824.0445 2133.1431,820.8285 2131.5751,822.2405 C 2131.8277,821.1755 2130.8307,820.1425 2130.8372,819.0695 C 2129.8985,819.5665 2128.5742,819.2245 2127.5370,819.3245 C 2127.1239,819.2805 2126.7752,819.0975 2126.4898,818.7765 C 2125.7249,818.1535 2125.0095,818.6215 2124.2117,818.2105 C 2123.7926,817.9945 2122.9966,816.3195 2122.3537,817.1605 C 2121.7179,817.9915 2120.3119,817.8485 2119.7085,816.9085 C 2118.2835,814.6845 2116.7752,814.4125 2115.9296,817.1775 C 2115.6442,818.1085 2115.1781,820.2255 2113.7221,819.7585 C 2112.9101,819.4975 2112.7158,819.0835 2111.8291,819.1445 C 2111.1119,819.1935 2110.3722,819.3815 2109.6405,819.2215 C 2108.2076,818.9085 2107.6197,818.9865 2106.2596,819.0715 C 2105.4722,819.1215 2104.1376,818.0815 2103.4595,818.4635 C 2100.7165,820.0095 2099.8302,816.0195 2098.6387,814.4965 C 2097.5680,813.0915 2097.8140,814.3925 2096.9083,814.3925 C 2095.8444,814.3925 2094.8500,812.8555 2093.7745,813.4055 C 2092.7536,813.9275 2091.9697,812.5535 2091.2997,812.0125 C 2090.1986,811.1245 2089.4196,811.4865 2088.2167,810.7925 C 2088.0514,811.8025 2087.1106,813.1885 2086.0378,812.0085"
       id="path2280" />
    <path
       d="M 2102.2412,826.0585 C 2102.3675,826.8155 2103.2823,826.7435 2103.8052,826.7785 C 2103.3200,826.4465 2102.7990,826.2065 2102.2412,826.0585"
       id="path2296" />
    <path
       d="M 2133.5920,819.2185 C 2132.8510,819.1015 2131.0775,820.5525 2131.9992,821.2745 C 2132.8670,821.9555 2134.8681,822.5445 2134.8997,821.3785 C 2136.1821,822.7755 2137.6407,821.9665 2139.0069,821.4645 C 2139.5694,821.2575 2140.1869,821.0905 2140.8133,821.2275 C 2140.6169,820.2585 2141.6950,820.2805 2142.3138,820.0785 C 2141.9619,818.6385 2140.0460,818.9755 2139.0438,819.1155 C 2137.2568,819.3655 2135.3265,818.7385 2133.5920,819.2185"
       id="path2308" />
    <path
       d="M 2131.6088,809.1385 C 2131.0385,809.2275 2130.9421,809.6405 2131.1584,810.1385 C 2131.8410,810.1285 2131.9717,809.6815 2131.6088,809.1385"
       id="path2310" />
    <path
       d="M 2144.1591,820.6585 C 2144.2640,821.1915 2144.1834,821.4345 2144.8680,821.4475 C 2144.6475,821.1715 2144.4108,820.9075 2144.1591,820.6585"
       id="path2312" />
    <path
       d="M 2145.4593,829.5785 C 2144.6483,831.3545 2147.0910,832.2165 2148.3554,832.7955 C 2149.1518,833.1605 2149.7942,833.5335 2150.3651,834.2185 C 2151.3972,835.4565 2150.1987,835.1265 2150.2018,836.0205 C 2150.2044,836.6055 2152.3794,833.9315 2152.4812,833.8955 C 2153.4353,833.5495 2155.8236,832.5805 2154.4975,831.2895 C 2153.5389,830.3555 2151.6776,829.0385 2150.3989,829.7685 C 2148.9371,830.6055 2147.0346,830.6295 2145.4593,829.5785"
       id="path2314" />
    <path
       d="M 2145.6491,821.2985 C 2145.8710,821.4815 2146.1106,821.4815 2146.3709,821.2985 C 2146.1303,821.2985 2145.8907,821.2985 2145.6491,821.2985"
       id="path2316" />
    <path
       d="M 2151.5240,818.7085 C 2150.9414,819.0325 2150.8437,819.5875 2151.4039,820.0785 C 2151.9090,819.3945 2152.8205,819.2905 2153.6164,819.6475 C 2153.2180,818.7805 2152.3116,818.7625 2151.5240,818.7085"
       id="path2318" />
    <path
       d="M 2154.0004,835.7785 C 2154.2020,835.3935 2154.1736,835.0075 2153.9152,834.6185 C 2153.6447,834.7885 2153.4197,835.0055 2153.2403,835.2685 C 2153.4937,835.4385 2153.7470,835.6085 2154.0004,835.7785"
       id="path2320" />
    <path
       d="M 2159.6943,830.6585 C 2158.6913,831.1785 2157.4744,832.1455 2157.6994,833.4685 C 2157.8795,834.5215 2157.6378,836.2245 2156.2020,835.1285 C 2155.2094,836.8485 2160.9810,836.3675 2161.2220,836.6385 C 2160.6652,835.5855 2162.0410,833.5655 2162.4884,832.7115 C 2163.1747,831.4015 2160.6718,830.2835 2159.6943,830.6585"
       id="path2322" />
    <path
       d="M 2171.7116,836.7785 C 2173.2055,835.9795 2174.7206,835.7195 2175.4810,834.0495 C 2175.8560,834.6035 2175.1838,835.7515 2175.7772,836.0475 C 2176.4145,836.3645 2176.8255,836.1315 2177.3745,835.9045 C 2178.0684,835.6165 2178.6844,836.0365 2179.3938,836.1395 C 2178.9972,835.6605 2178.4983,835.3945 2177.8969,835.3395 C 2179.2141,834.5085 2181.3136,836.0665 2181.5361,833.8295 C 2180.4020,835.3765 2180.3392,832.5115 2179.9917,831.9125 C 2179.1522,830.4605 2177.7399,831.9505 2177.8634,833.0395 C 2177.5667,831.9555 2176.5927,830.1125 2175.4570,831.4825 C 2174.5968,832.5175 2173.6607,830.4795 2173.1435,829.9525 C 2172.3873,829.1815 2169.5541,829.7675 2170.4815,831.0575 C 2171.6163,832.6345 2172.9791,833.0095 2174.6066,833.8995 C 2174.1653,834.5555 2172.8711,834.9105 2172.1291,835.0795 C 2170.8540,835.3685 2170.6110,834.1765 2170.0048,833.3595 C 2168.5911,831.4575 2164.6610,832.1325 2163.4485,833.6405 C 2162.8660,834.3645 2163.6074,835.4945 2163.0760,836.2325 C 2162.3644,837.2215 2163.8310,838.0155 2164.6458,838.2255 C 2165.1505,838.3555 2165.5750,838.3795 2165.9761,838.0515 C 2166.7189,837.4445 2166.7206,837.8445 2167.7387,837.8045 C 2169.1690,837.7475 2170.2330,836.3115 2171.7116,836.7785"
       id="path2328" />
    <path
       d="M 2168.8377,832.1785 C 2169.2996,831.5665 2169.5348,830.8225 2169.9115,830.1585 C 2168.3511,829.4705 2168.6142,831.2435 2168.8377,832.1785"
       id="path2330" />
    <path
       d="M 2179.6355,842.1085 C 2180.4554,843.8955 2182.1226,843.8385 2183.7586,844.0185 C 2185.6956,844.2315 2187.3583,846.0015 2188.6180,847.3725 C 2190.9836,849.9445 2195.8004,847.6175 2192.9677,844.7425 C 2192.0838,843.8465 2191.4136,843.1015 2190.2162,843.0995 C 2190.2724,843.0995 2188.1565,840.7905 2187.8946,840.5715 C 2187.7014,840.4095 2184.4929,840.4605 2184.3468,840.5585 C 2182.9255,841.5145 2180.7320,839.9965 2179.6355,842.1085"
       id="path2342" />
    <path
       d="M 2183.5345,832.5285 C 2183.1792,833.1995 2182.7391,833.9835 2183.4790,834.6985 C 2183.4274,833.7045 2185.3606,833.2225 2183.5345,832.5285"
       id="path2350" />
    <path
       d="M 2184.8696,833.9685 C 2185.1175,834.5345 2185.0877,835.0645 2184.7801,835.5585 C 2185.7658,835.7965 2185.5144,834.6855 2185.6739,834.1185 C 2185.4051,834.0685 2185.1373,834.0185 2184.8696,833.9685"
       id="path2352" />
    <path
       d="M 2187.6820,835.8485 C 2188.4233,835.4365 2189.9465,835.9005 2190.8391,835.7995 C 2191.6621,835.7065 2192.9247,835.8875 2193.7535,836.0535 C 2194.6599,836.2355 2195.2104,837.2295 2196.1995,836.7645 C 2196.8824,836.4435 2198.6168,837.0625 2198.2299,835.6975 C 2200.5472,836.6355 2201.4590,836.0195 2203.5608,835.2335 C 2204.9652,834.7085 2210.0857,835.4215 2209.1128,832.5275 C 2210.1262,832.7185 2209.9119,831.4845 2210.8349,831.4585 C 2210.3310,830.2685 2208.9165,828.4935 2208.7571,830.8085 C 2209.1912,830.5235 2209.6700,830.4745 2210.1892,830.6595 C 2209.2742,831.8105 2207.4873,831.8885 2206.8381,833.2995 C 2206.0534,835.0075 2204.4201,833.8715 2203.3825,832.9725 C 2202.3990,832.1205 2201.3756,833.5285 2200.3670,833.1405 C 2199.8343,832.9355 2199.9031,833.3435 2199.6007,833.6495 C 2199.1272,834.1305 2198.0787,833.2925 2197.6814,833.0215 C 2196.3594,832.1205 2194.3362,831.5585 2192.8276,831.2125 C 2190.4510,830.6685 2189.7694,831.5525 2187.9036,832.5155 C 2186.9683,832.9995 2186.3341,832.9865 2186.3267,834.3355 C 2186.3239,835.0335 2186.7530,837.1035 2187.6820,835.8485"
       id="path2354" />
    <path
       d="M 2191.2035,809.6385 C 2189.9919,810.0505 2190.8450,814.6145 2191.1886,815.5385 C 2191.3071,813.5655 2191.6422,811.6345 2191.2035,809.6385"
       id="path2356" />
    <path
       d="M 2192.5574,820.2985 C 2192.3654,820.6555 2192.3931,821.0155 2192.6406,821.3785 C 2192.9070,821.2325 2193.1337,821.0385 2193.3176,820.7985 C 2193.0633,820.6325 2192.8108,820.4655 2192.5574,820.2985"
       id="path2358" />
    <path
       d="M 2193.9560,822.4585 C 2194.2020,823.0745 2195.0618,822.7565 2195.4105,822.5985 C 2194.9245,822.6275 2194.4397,822.5815 2193.9560,822.4585"
       id="path2360" />
    <path
       d="M 2199.3749,851.3285 C 2199.6375,851.4345 2199.8738,851.3845 2200.0870,851.1785 C 2199.8486,851.2285 2199.6123,851.2785 2199.3749,851.3285"
       id="path2362" />
    <path
       d="M 2200.8530,850.8185 C 2200.8121,850.9385 2200.7712,851.0585 2200.7313,851.1785 C 2201.3253,851.3975 2202.1691,851.2345 2202.6032,850.8345 C 2202.8219,850.6485 2202.8604,850.4205 2202.7186,850.1495 C 2202.1576,849.2335 2201.4102,850.5135 2200.8530,850.8185"
       id="path2364" />
    <path
       d="M 2209.4652,852.6975 C 2209.1922,853.1635 2209.2069,853.6435 2209.5081,854.1375 C 2210.6792,853.4445 2212.4399,852.2395 2213.7449,851.8975 C 2213.4559,851.4335 2213.2008,850.9535 2212.9787,850.4585 C 2211.6503,851.0865 2210.9583,852.1525 2209.4652,852.6975"
       id="path2374" />
    <path
       d="M 2209.9629,833.2585 C 2210.0499,833.4715 2210.1369,833.6845 2210.2240,833.8985 C 2210.4862,833.3665 2210.8639,832.9365 2211.3569,832.6085 C 2210.7672,832.5875 2210.3015,832.8035 2209.9629,833.2585"
       id="path2380" />
    <path
       d="M 2211.3193,831.2385 C 2211.0064,831.5205 2210.8681,831.8805 2210.9025,832.3175 C 2211.5095,832.2405 2212.9349,832.5145 2213.0890,831.6685 C 2213.2858,830.6025 2211.7876,830.9555 2211.3193,831.2385"
       id="path2382" />
    <path
       d="M 2213.8243,847.4385 C 2213.3397,847.7665 2213.0527,848.3425 2213.0795,848.9485 C 2214.0300,849.0735 2214.1448,848.1245 2213.8243,847.4385"
       id="path2384" />
    <path
       d="M 2213.7017,831.1685 C 2213.9157,831.3885 2214.1012,831.6275 2214.2603,831.8885 C 2213.7144,832.1175 2212.8530,832.5315 2212.7118,833.1715 C 2212.4638,834.3035 2214.5369,833.4475 2214.9900,833.7585 C 2214.7362,832.4005 2216.7368,831.3075 2217.8109,831.0985 C 2216.2798,829.5525 2215.7129,831.5555 2214.7730,832.0285 C 2215.1755,830.9885 2214.4421,831.0525 2213.7017,831.1685"
       id="path2390" />
    <path
       d="M 2218.1516,831.7385 C 2217.8669,832.0325 2217.7519,832.3925 2217.8047,832.8175 C 2218.4123,832.6715 2218.9864,832.9895 2219.3070,833.5385 C 2219.8447,832.9295 2220.9340,831.4605 2220.0760,830.5885 C 2219.7504,831.3895 2218.9017,831.5185 2218.1516,831.7385"
       id="path2402" />
    <path
       d="M 2221.9014,829.9385 C 2221.5153,830.4065 2221.0423,831.5985 2222.3364,830.8785 C 2221.6115,831.2115 2221.0176,831.8935 2221.0415,832.7485 C 2222.8102,832.5795 2224.8709,832.7245 2226.4778,831.9765 C 2227.4925,831.5045 2227.0468,830.4005 2225.9908,830.2175 C 2225.3661,830.1095 2224.8480,830.3675 2224.2283,830.3085 C 2223.4489,830.2345 2222.6885,829.8325 2221.9014,829.9385"
       id="path2406" />
    <path
       d="M 2230.8723,830.0885 C 2230.3068,830.0305 2229.9624,830.9885 2229.8925,831.3785 C 2230.4140,831.1395 2230.7779,830.6615 2230.8723,830.0885"
       id="path2410" />
    <path
       d="M 2231.8631,828.9385 C 2233.2723,827.6815 2234.7629,827.9675 2236.5744,828.2775 C 2237.5377,828.4425 2238.3465,826.6055 2239.5499,826.6285 C 2237.8246,824.6975 2237.0682,825.3865 2234.8740,826.2655 C 2234.2610,826.5115 2233.7724,825.9375 2233.2563,826.1665 C 2232.3122,826.5845 2231.9263,827.9805 2231.8631,828.9385"
       id="path2420" />
    <path
       d="M 2244.2934,824.5385 C 2244.0144,824.9165 2243.9035,825.3505 2243.9594,825.8385 C 2244.5871,825.6165 2244.8526,825.1115 2244.2934,824.5385"
       id="path2430" />
    <path
       d="M 2246.2735,830.2285 C 2246.1645,831.0785 2246.4103,831.1275 2247.0091,830.3785 C 2246.7632,830.3285 2246.5183,830.2785 2246.2735,830.2285"
       id="path2436" />
    <path
       d="M 2247.2410,829.6585 C 2247.0218,830.9135 2249.4453,831.3345 2249.5713,829.9375 C 2248.7967,830.0825 2248.0061,829.8745 2247.2410,829.6585"
       id="path2450" />
    <path
       d="M 2249.6941,830.5885 C 2249.7380,830.8055 2249.7839,831.0225 2249.8277,831.2385 C 2250.0849,831.0595 2250.3049,830.8425 2250.4867,830.5885 C 2250.2218,830.5885 2249.9579,830.5885 2249.6941,830.5885"
       id="path2460" />
    <path
       d="M 2253.4344,820.7285 C 2253.1266,820.9215 2252.9829,821.2085 2253.0042,821.5885 C 2253.7995,821.6775 2253.9433,821.3915 2253.4344,820.7285"
       id="path2472" />
    <path
       d="M 2255.3911,830.4475 C 2255.6613,830.9365 2256.0645,831.1535 2256.5987,831.0975 C 2256.4391,830.4905 2255.9524,830.2225 2255.3911,830.4475"
       id="path2476" />
    <path
       d="M 2261.2489,827.0585 C 2260.6515,827.6175 2261.1006,828.9875 2262.0391,828.9705 C 2263.8270,828.9385 2262.8363,826.8745 2261.2489,827.0585"
       id="path2480" />
    <path
       d="M 2270.0237,831.8185 C 2271.1754,831.4225 2272.1908,830.6835 2273.1162,829.9385 C 2271.9106,830.4185 2270.6616,830.3005 2270.0237,831.8185"
       id="path2492" />
    <path
       d="M 2270.7096,824.4685 C 2270.6333,825.0875 2270.8759,825.1105 2271.4384,824.5385 C 2271.1948,824.5155 2270.9521,824.4915 2270.7096,824.4685"
       id="path2498" />
    <path
       d="M 2271.9424,823.7485 C 2271.8423,823.9415 2271.7414,824.1355 2271.6403,824.3285 C 2272.2352,824.5225 2272.5981,824.2595 2272.6684,823.6785 C 2272.4267,823.7015 2272.1841,823.7255 2271.9424,823.7485"
       id="path2502" />
    <path
       d="M 2276.5658,821.1585 C 2275.3861,821.2305 2272.3695,825.2105 2273.6089,826.2675 C 2271.1828,825.1945 2273.3042,831.0495 2274.2577,828.3445 C 2274.6790,827.1465 2275.9334,826.5615 2276.4817,825.4215 C 2276.9343,824.4785 2276.1233,822.3485 2277.2853,821.9475 C 2277.0790,821.6545 2276.8402,821.3915 2276.5658,821.1585"
       id="path2504" />
    <path
       d="M 2277.3577,821.1585 C 2277.7978,821.7965 2278.6442,821.6225 2279.1777,822.1685 C 2279.0989,821.1815 2278.0957,821.1015 2277.3577,821.1585"
       id="path2512" />
    <path
       d="M 2284.7373,808.6975 C 2284.5421,808.4665 2284.2976,808.3965 2284.0037,808.4885 C 2284.3445,809.0095 2283.9412,810.6135 2284.6492,810.8275 C 2285.7552,811.1635 2284.9518,809.0835 2284.7373,808.6975"
       id="path2516" />
    <path
       d="M 2285.2664,807.8385 C 2284.6266,807.7075 2284.6180,807.9475 2285.2397,808.5585 C 2285.2482,808.3185 2285.2578,808.0785 2285.2664,807.8385"
       id="path2518" />
    <path
       d="M 2285.4875,811.5085 C 2286.7277,810.5485 2287.8069,807.1425 2288.1558,805.6085 C 2287.0906,805.9925 2287.2692,807.0595 2286.9540,807.9425 C 2286.5093,809.1865 2285.7936,810.1555 2285.4875,811.5085"
       id="path2520" />
    <path
       d="M 2295.3108,812.9475 C 2295.1635,813.8355 2295.0889,815.0395 2295.8765,815.7585 C 2294.4196,815.6765 2294.3141,820.0125 2296.6139,818.8715 C 2299.6018,817.3865 2297.3217,814.3835 2295.3108,812.9475"
       id="path2524" />
    <path
       d="M 2299.8486,816.6175 C 2299.3590,816.9445 2299.3535,817.6195 2299.6210,818.1385 C 2299.9580,817.6915 2300.0342,817.1845 2299.8486,816.6175"
       id="path2534" />
    <path
       d="M 2299.7427,815.3985 C 2299.1075,815.7905 2299.2225,816.0305 2300.0858,816.1185 C 2299.9708,815.8785 2299.8577,815.6375 2299.7427,815.3985"
       id="path2536" />
    <path
       d="M 2300.7568,815.5385 C 2301.4263,812.9315 2300.0734,814.6955 2300.7568,815.5385"
       id="path2538" />
    <path
       d="M 2052.7785,807.0485 C 2052.9396,806.0745 2051.4862,804.9555 2050.7839,805.8985 C 2051.4990,806.2355 2051.8446,807.4105 2052.7785,807.0485"
       id="path2230" />
    <path
       d="M 1998.7264,709.4135 C 1999.7960,709.7545 1999.3029,708.3755 1998.2599,708.6925 C 1998.4157,708.9335 1998.5705,709.1735 1998.7264,709.4135"
       id="path2202" />
    <path
       d="M 2015.5981,714.0935 C 2014.9440,714.4635 2014.0957,715.0185 2013.3153,714.7995 C 2012.5724,714.5905 2012.3953,713.9095 2011.5431,713.8875 C 2010.1188,713.8505 2008.8483,714.5865 2007.3890,714.4455 C 2005.6715,714.2795 2004.5690,713.7155 2003.5065,712.4245 C 2002.7134,711.4615 2000.4478,710.1195 1999.1289,711.0115 C 1994.2626,714.3075 2005.3291,723.5315 2007.0604,725.9445 C 2007.7198,726.8645 2008.6493,726.9005 2009.6950,727.0925 C 2011.4232,727.4105 2011.9167,729.3495 2012.6685,730.6265 C 2013.2465,731.6075 2014.3953,734.0675 2015.4316,734.5105 C 2017.2335,735.2815 2016.4683,737.0545 2016.9221,738.6815 C 2017.3489,740.2135 2018.9414,739.8305 2020.0912,740.6475 C 2020.8235,741.1665 2021.5375,741.7245 2022.2592,742.2585 C 2023.1577,742.9155 2024.0854,743.5905 2024.8716,744.3975 C 2025.9762,745.5315 2024.9247,745.6555 2025.2647,746.9145 C 2025.6727,748.4235 2026.3306,749.8775 2026.7477,751.4025 C 2027.1892,753.0175 2028.3521,754.7035 2028.2439,756.4075 C 2028.1291,758.2045 2029.5178,757.1015 2030.2041,757.9085 C 2031.3265,759.2295 2032.9675,758.9215 2033.2802,761.0795 C 2033.6876,763.8925 2037.4015,765.7195 2038.0436,768.6695 C 2038.1353,769.0915 2037.4324,769.1395 2037.7683,769.5945 C 2038.2239,770.2115 2038.6266,770.8625 2038.9734,771.5455 C 2039.7608,773.0935 2041.3894,775.1275 2041.4566,776.8835 C 2041.5215,778.5815 2041.4839,779.6595 2042.5351,781.1325 C 2043.3268,782.2415 2044.5353,783.0225 2045.2013,784.2175 C 2045.9953,785.6415 2046.4133,787.0765 2047.6723,788.2085 C 2048.9182,789.3285 2050.6598,790.0795 2051.4666,791.6525 C 2052.2872,793.2045 2052.1954,794.1155 2053.6858,795.2975 C 2055.1961,796.4945 2056.5502,797.8595 2058.0021,799.1265 C 2059.2582,800.2215 2060.4786,801.2555 2061.9616,802.0095 C 2063.4407,802.7615 2063.6586,803.3195 2064.4316,804.6055 C 2064.8415,805.2875 2065.3676,805.9265 2065.8746,806.5415 C 2066.3063,806.9795 2066.7695,807.3815 2067.2660,807.7455 C 2067.5737,808.0115 2067.2318,808.3045 2067.6175,808.5695 C 2067.8927,808.7585 2070.4360,811.8775 2070.3724,810.2275 C 2070.3345,809.2605 2069.3788,808.5215 2069.2354,807.5665 C 2069.0330,806.2245 2071.2253,807.9575 2071.4880,808.1805 C 2073.3577,809.7715 2075.1117,809.7785 2074.7564,806.7615 C 2075.9211,807.7285 2076.7682,809.6935 2078.3731,810.0015 C 2079.3342,810.1865 2079.1640,807.3105 2079.1632,806.8245 C 2079.1593,804.9525 2079.3511,803.0925 2079.4023,801.2215 C 2079.4284,800.2245 2080.0084,798.8105 2079.5181,797.8545 C 2079.1401,797.1165 2078.8811,796.6955 2079.0790,795.9015 C 2079.3207,794.9365 2080.0432,793.6435 2079.8707,792.6135 C 2079.7427,791.8495 2078.8828,791.8165 2079.0303,790.7835 C 2079.1910,789.8865 2079.7377,789.1035 2080.1856,788.3315 C 2080.6681,787.4985 2081.0487,787.1435 2080.8602,786.1055 C 2080.6789,785.1185 2079.8684,785.5205 2079.3108,784.9405 C 2078.5512,784.1495 2077.3336,781.5105 2077.7803,780.4805 C 2076.9085,780.3385 2072.7199,779.2385 2072.3786,780.1205 C 2072.2474,779.8615 2072.1263,779.5995 2072.0151,779.3315 C 2071.1058,780.4675 2070.9945,782.0675 2069.6496,782.8605 C 2070.0432,782.2735 2071.8681,780.2755 2070.0696,780.2605 C 2071.0402,779.8655 2072.1958,779.0165 2072.0297,777.8235 C 2071.9049,776.9255 2070.9620,777.2385 2070.3995,776.8995 C 2069.8279,776.5545 2069.5056,775.0725 2069.3741,774.4975 C 2068.9869,772.8095 2068.5750,771.2065 2068.3557,769.4765 C 2068.2202,768.4125 2065.1022,768.2985 2064.1880,768.5105 C 2063.4686,768.6775 2062.0874,767.2565 2061.5615,766.8205 C 2060.6703,766.0835 2061.0208,764.5365 2060.6373,763.4905 C 2061.0384,763.9725 2061.6349,764.0655 2062.1484,763.6995 C 2061.9409,762.8665 2061.1353,762.7565 2060.4150,762.6995 C 2060.9989,762.6575 2061.4292,762.2445 2061.5709,761.6895 C 2061.0837,761.6595 2060.6028,761.7065 2060.1313,761.8305 C 2060.9784,761.5825 2061.4792,760.8305 2062.0989,760.2685 C 2062.5762,759.8355 2063.8288,759.9625 2064.1178,759.4765 C 2064.5945,758.6735 2062.8229,756.9315 2062.3607,756.4135 C 2061.0776,754.9775 2060.1290,755.0975 2058.6603,756.1445 C 2057.5236,756.9535 2054.6469,758.9995 2053.4120,757.3695 C 2055.9693,758.8325 2060.8577,754.3095 2056.2060,753.2605 C 2055.4643,753.0935 2054.7016,753.4145 2053.9753,753.1195 C 2053.1519,752.7865 2052.8020,751.8545 2052.1347,751.3275 C 2050.7642,750.2445 2051.5220,748.0195 2050.0241,746.8695 C 2049.4714,746.4455 2048.8966,745.7875 2048.2992,745.4445 C 2047.6637,745.0785 2046.8210,745.3915 2046.1175,745.0265 C 2044.9730,744.4315 2045.0567,742.6645 2044.3504,741.6945 C 2044.0054,741.2165 2041.5159,738.7055 2040.9019,740.2045 C 2040.4447,741.3205 2041.7630,742.7455 2041.9055,743.8315 C 2041.4345,743.3525 2041.2969,742.7085 2040.9282,742.1765 C 2040.3265,741.2965 2039.1778,741.1645 2038.4405,740.4475 C 2037.2207,739.2605 2037.1535,737.3625 2035.9930,736.1285 C 2035.6335,736.5945 2035.5469,737.0985 2035.7330,737.6405 C 2035.5419,737.2785 2034.3754,734.8275 2034.7513,736.7765 C 2033.9727,735.8465 2035.2173,734.6885 2034.0182,733.8885 C 2032.9316,733.1645 2032.1117,731.9015 2031.0468,731.0895 C 2029.8217,730.1545 2028.8573,728.6515 2027.4210,728.0175 C 2026.9100,727.7915 2026.3585,727.6725 2025.8518,727.4375 C 2024.9763,727.0315 2025.1318,726.3745 2024.5752,725.7645 C 2023.8446,724.9635 2022.5051,724.9115 2021.7653,724.1765 C 2020.8343,723.2525 2022.1648,721.6355 2021.1658,720.7985 C 2019.9621,719.7895 2019.7262,719.7795 2019.2328,718.1905 C 2018.8347,716.8415 2016.6279,715.0455 2015.5981,714.0935"
       id="path2204" />
    <path
       d="M 2017.1823,754.1975 C 2018.6827,755.7945 2019.1821,751.3415 2018.5155,750.4385 C 2017.7292,749.3755 2016.4733,747.3675 2015.2361,746.8325 C 2014.3215,746.4365 2013.8026,747.7245 2012.8343,747.1405 C 2012.9925,748.4825 2014.1855,749.4735 2014.7651,750.6295 C 2015.1249,751.3465 2015.9549,751.5945 2016.3756,752.2575 C 2016.7570,752.8605 2016.8288,753.5835 2017.1823,754.1975"
       id="path2208" />
    <path
       d="M 2014.3513,741.8135 C 2014.3624,741.0935 2013.8693,739.9065 2012.9504,740.5895 C 2013.4818,740.9235 2013.9487,741.3315 2014.3513,741.8135"
       id="path2210" />
    <path
       d="M 2023.4113,763.6285 C 2023.5998,762.9905 2023.3482,762.3615 2022.8246,761.9685 C 2022.4297,762.5095 2022.1410,763.3435 2021.9886,763.9915 C 2021.7850,764.8595 2023.7034,764.8925 2023.4113,763.6285"
       id="path2212" />
    <path
       d="M 2022.0938,759.5285 C 2022.4751,760.5965 2023.0431,761.5755 2023.6170,762.5495 C 2023.8589,761.7515 2023.2184,759.3995 2022.0938,759.5285"
       id="path2214" />
    <path
       d="M 2023.8390,745.4855 C 2023.9437,744.9235 2023.7037,744.9235 2023.1179,745.4855 C 2023.3580,745.4855 2023.5980,745.4855 2023.8390,745.4855"
       id="path2216" />
    <path
       d="M 2025.7610,758.7385 C 2025.5612,757.7865 2024.0567,757.9385 2023.5307,758.4475 C 2024.2005,758.8925 2025.0018,758.9465 2025.7610,758.7385"
       id="path2218" />
    <path
       d="M 2028.0669,775.1485 C 2031.0528,774.7275 2026.3737,768.9015 2026.4462,767.5185 C 2025.9562,767.7875 2025.1236,767.6565 2024.7775,768.1435 C 2024.2802,768.8445 2023.9665,770.1935 2024.5016,770.9455 C 2025.5164,772.3675 2026.1109,774.7285 2028.0669,775.1485"
       id="path2220" />
    <path
       d="M 2033.6280,780.1175 C 2033.4378,779.3465 2032.4437,776.6325 2031.3874,777.3555 C 2030.2224,778.1545 2033.0946,779.8005 2033.6280,780.1175"
       id="path2222" />
    <path
       d="M 2034.6532,783.5785 C 2034.8837,784.4325 2035.8773,784.0375 2036.1792,783.4935 C 2036.6300,782.6835 2035.1387,781.4605 2034.5633,781.1285 C 2034.2625,781.9515 2034.8038,782.7455 2034.6532,783.5785"
       id="path2224" />
    <path
       d="M 2038.0525,788.3985 C 2038.0813,787.8475 2037.5685,787.4335 2037.6633,786.8935 C 2037.7865,786.1945 2038.2023,786.3595 2037.9904,785.6645 C 2037.8373,785.1575 2037.2088,783.5885 2036.4368,783.8805 C 2035.2833,784.3175 2037.4965,787.9395 2038.0525,788.3985"
       id="path2226" />
    <path
       d="M 2048.2381,742.7495 C 2047.9800,741.3255 2046.0095,740.8875 2045.4459,742.4265 C 2045.1603,743.2835 2045.7093,744.5045 2046.6561,744.6935 C 2047.7990,744.9215 2047.8298,743.4105 2048.2381,742.7495"
       id="path2228" />
    <path
       d="M 2053.5827,746.4925 C 2052.5088,746.0385 2051.2730,746.1025 2050.2594,745.4845 C 2050.0648,746.5385 2050.9598,747.0175 2051.8405,747.1785 C 2052.7052,747.3365 2053.1725,748.1335 2053.8017,748.6525 C 2053.7986,747.9265 2053.8626,747.1865 2053.5827,746.4925"
       id="path2232" />
    <path
       d="M 2053.7338,749.1565 C 2053.2906,748.4085 2052.6411,747.5675 2051.7155,747.4285 C 2051.4800,748.7435 2051.6197,751.0965 2053.3120,751.3875 C 2053.5750,750.6635 2053.4408,749.8745 2053.7338,749.1565"
       id="path2234" />
    <path
       d="M 2058.1390,752.7585 C 2057.6371,751.8125 2056.6653,751.1655 2055.6570,750.8725 C 2055.0963,750.7085 2054.5819,749.9045 2054.2176,749.8345 C 2053.7953,749.7535 2053.4272,752.1455 2053.9417,752.4875 C 2055.1260,753.2795 2056.8317,752.4655 2058.0020,753.4775 C 2058.0481,753.2385 2058.0930,752.9985 2058.1390,752.7585"
       id="path2236" />
    <path
       d="M 2059.0067,752.1785 C 2058.6965,750.9435 2054.7703,748.5585 2055.3204,750.7395 C 2056.8187,750.0675 2057.4796,752.6635 2059.0067,752.1785"
       id="path2238" />
    <path
       d="M 2060.0264,754.4885 C 2059.9193,753.9755 2059.6040,753.6855 2059.0837,753.6175 C 2058.7230,754.1595 2058.7950,754.6395 2059.2998,755.0575 C 2059.5651,754.8985 2059.8073,754.7085 2060.0264,754.4885"
       id="path2240" />
    <path
       d="M 2061.0104,750.6685 C 2060.8072,750.3785 2060.5423,750.1635 2060.2177,750.0215 C 2060.1332,750.6285 2060.4332,750.8715 2061.0104,750.6685"
       id="path2242" />
    <path
       d="M 2061.6011,753.1885 C 2061.4227,752.6215 2060.9811,752.2455 2060.3690,752.4685 C 2060.3925,753.0695 2060.7537,753.5855 2061.2441,753.9085 C 2061.3631,753.6685 2061.4821,753.4285 2061.6011,753.1885"
       id="path2244" />
    <path
       d="M 2063.2979,761.8985 C 2062.7704,761.5385 2060.8180,761.7455 2061.6181,762.6805 C 2062.1085,763.2525 2063.2143,762.4515 2063.2979,761.8985"
       id="path2248" />
    <path
       d="M 2064.9042,751.5285 C 2065.1071,750.7755 2064.8434,750.6325 2064.1134,751.0985 C 2064.3760,751.2415 2064.6406,751.3845 2064.9042,751.5285"
       id="path2252" />
    <path
       d="M 2066.4767,749.7335 C 2065.9506,748.5325 2064.9673,749.8965 2064.9704,750.6115 C 2064.9740,751.4665 2066.5872,750.5535 2066.4767,749.7335"
       id="path2256" />
    <path
       d="M 2066.7093,752.6885 C 2067.1012,751.9705 2066.9062,751.7305 2066.1262,751.9685 C 2066.3212,752.2085 2066.5152,752.4485 2066.7093,752.6885"
       id="path2258" />
    <path
       d="M 2070.4419,750.6685 C 2069.4001,748.1515 2066.5300,750.5165 2067.7340,750.9635 C 2068.5383,751.2615 2068.8920,750.4895 2069.1557,751.8185 C 2069.4204,753.1545 2070.4723,751.2275 2070.4419,750.6685"
       id="path2262" />
    <path
       d="M 2067.5027,753.4785 C 2067.4945,753.2005 2067.4244,752.9375 2067.2893,752.6885 C 2067.3614,752.9515 2067.4315,753.2155 2067.5027,753.4785"
       id="path2264" />
    <path
       d="M 2069.1314,762.5485 C 2068.7885,762.8235 2068.1100,762.9625 2067.6945,763.0975 C 2066.8975,763.3555 2068.2484,764.9355 2068.3442,765.3585 C 2068.3942,764.6385 2068.7613,764.4125 2069.3522,764.8585 C 2069.5426,763.9995 2070.1651,763.1535 2069.1314,762.5485"
       id="path2266" />
    <path
       d="M 2068.6827,758.1585 C 2068.2725,758.6115 2068.4397,758.8745 2069.1861,758.9475 C 2069.0179,758.6845 2068.8508,758.4225 2068.6827,758.1585"
       id="path2268" />
    <path
       d="M 2069.3996,759.5285 C 2069.5058,760.0425 2068.6077,761.9335 2069.6942,761.7945 C 2070.3010,761.7165 2070.6676,761.3855 2071.2760,761.6925 C 2071.8994,762.0075 2072.4266,762.5115 2073.1610,762.1185 C 2072.7754,761.5115 2070.1083,759.4565 2069.3996,759.5285"
       id="path2270" />
    <path
       d="M 2070.0904,752.8985 C 2069.8393,752.8855 2069.6005,752.9355 2069.3710,753.0485 C 2069.6118,752.9985 2069.8506,752.9485 2070.0904,752.8985"
       id="path2272" />
    <path
       d="M 2069.6809,757.7285 C 2069.3599,758.4315 2070.4104,758.9965 2070.8475,759.2395 C 2070.4792,758.7195 2070.0900,758.2165 2069.6809,757.7285"
       id="path2274" />
    <path
       d="M 2075.7330,774.4285 C 2076.5821,775.5865 2074.4439,776.1105 2074.0131,776.8785 C 2074.9003,777.5945 2075.5770,778.1795 2076.7624,777.7435 C 2077.5613,777.4505 2078.8895,778.1335 2079.1210,778.9535 C 2079.3272,779.6795 2079.8881,780.5505 2080.0088,781.1895 C 2080.2892,782.6605 2079.4247,783.2775 2081.1030,784.1945 C 2081.8239,784.5885 2085.0895,787.0885 2085.8676,786.3785 C 2086.6408,785.6715 2085.4490,785.3435 2085.2115,784.7595 C 2084.8354,783.8355 2085.9634,782.1645 2086.8589,781.9885 C 2085.7166,781.3005 2084.1547,781.6345 2083.1027,780.7675 C 2082.1341,779.9685 2081.7835,777.9905 2081.8844,776.8125 C 2081.9434,776.1125 2081.4606,773.8505 2080.9900,773.2775 C 2079.6628,771.6525 2077.9615,773.5205 2079.1871,775.0075 C 2078.6733,775.0775 2075.8211,771.1615 2075.7330,774.4285"
       id="path2282" />
    <path
       d="M 2086.7994,784.6585 C 2086.5827,784.7285 2086.3669,784.7975 2086.1512,784.8675 C 2086.3018,785.4645 2086.7540,785.7235 2087.3027,785.3785 C 2087.1625,785.1195 2086.9944,784.8795 2086.7994,784.6585"
       id="path2286" />
    <path
       d="M 2091.8388,784.0085 C 2091.5043,784.1295 2091.2150,784.3195 2090.9711,784.5785 C 2091.5354,784.8475 2091.8626,784.6315 2091.8388,784.0085"
       id="path2290" />
    <path
       d="M 2093.6182,781.6975 C 2092.6722,782.6645 2092.4554,784.3355 2092.5650,785.6115 C 2092.6810,786.9735 2094.7007,787.6905 2094.3592,786.2385 C 2094.9525,786.2775 2095.8460,787.9225 2096.4306,787.3435 C 2097.2323,786.5495 2098.0484,784.9415 2097.9113,783.7745 C 2097.7107,782.0675 2095.0033,781.4195 2093.6182,781.6975"
       id="path2292" />
    <path
       d="M 2096.3422,726.2615 C 2096.9590,726.3635 2097.5097,726.7165 2097.8897,727.1985 C 2097.3185,726.8305 2096.9212,727.1365 2096.8582,727.7735 C 2098.6382,728.0305 2099.2103,726.2365 2098.5636,724.8825 C 2097.4140,722.4795 2095.8170,724.3865 2096.3422,726.2615"
       id="path2294" />
    <path
       d="M 2101.0778,774.4285 C 2101.3799,774.4565 2101.6698,774.4105 2101.9473,774.2885 C 2101.6441,774.2605 2101.3543,774.3075 2101.0778,774.4285"
       id="path2298" />
    <path
       d="M 2103.3025,773.1385 C 2102.8960,772.8185 2102.4889,772.8185 2102.0812,773.1385 C 2102.2505,773.4225 2102.4686,773.6615 2102.7345,773.8585 C 2102.9536,773.6405 2103.1416,773.4005 2103.3025,773.1385"
       id="path2302" />
    <path
       d="M 2109.4030,768.5285 C 2108.2666,766.9275 2105.9795,769.4365 2107.4019,770.8295 C 2108.0770,770.1525 2109.8629,769.8445 2109.4030,768.5285"
       id="path2306" />
    <path
       d="M 2158.9030,787.9685 C 2156.2871,786.8745 2157.2907,793.5045 2157.8805,794.3785 C 2158.5097,793.2445 2159.2670,793.5895 2159.0869,792.0365 C 2158.9453,790.8185 2158.4324,789.1315 2158.9030,787.9685"
       id="path2324" />
    <path
       d="M 2160.0585,789.0485 C 2159.2449,789.1975 2159.3171,790.0655 2159.8443,790.4885 C 2159.9590,790.0155 2160.0308,789.5355 2160.0585,789.0485"
       id="path2326" />
    <path
       d="M 2168.0025,730.7255 C 2167.8206,731.3825 2168.0579,731.4545 2168.7144,730.9415 C 2168.4771,730.8695 2168.2408,730.7975 2168.0025,730.7255"
       id="path2332" />
    <path
       d="M 2168.9081,729.8615 C 2168.5675,730.5565 2169.2098,731.1665 2169.7789,731.3745 C 2169.8516,730.7255 2169.9108,729.6315 2168.9081,729.8615"
       id="path2334" />
    <path
       d="M 2169.3454,724.1015 C 2169.3049,724.7225 2169.6868,725.1385 2170.3278,724.8215 C 2170.2766,724.2435 2169.9273,723.9635 2169.3454,724.1015"
       id="path2336" />
    <path
       d="M 2169.0052,762.7685 C 2168.7802,762.9765 2168.6855,763.2405 2168.7190,763.5585 C 2168.8137,763.2955 2168.9095,763.0315 2169.0052,762.7685"
       id="path2338" />
    <path
       d="M 2170.6865,728.6375 C 2170.6921,729.1545 2170.9430,729.4905 2171.4372,729.6455 C 2171.4750,729.1195 2171.1693,728.7765 2170.6865,728.6375"
       id="path2340" />
    <path
       d="M 2176.5179,739.5095 C 2176.5503,740.0275 2176.7741,740.4345 2177.1902,740.7335 C 2176.9890,740.3125 2176.7652,739.9045 2176.5179,739.5095"
       id="path2344" />
    <path
       d="M 2102.7795,752.0385 C 2103.7108,751.4125 2103.0728,750.7565 2103.2691,749.9135 C 2103.5252,748.8185 2105.1139,748.7475 2105.2794,747.5005 C 2104.9508,748.0445 2104.5469,748.5235 2104.0658,748.9395 C 2103.1820,747.6475 2104.2643,746.3745 2105.0881,745.4175 C 2105.6253,744.7945 2105.7837,744.2095 2106.0613,743.4585 C 2106.4241,742.4855 2107.6784,742.2595 2108.3916,741.5965 C 2108.2271,742.4865 2107.0528,743.5775 2108.3973,744.1135 C 2108.5886,744.1905 2109.0791,746.2925 2109.4579,746.7035 C 2110.5663,747.9055 2112.5507,748.8465 2113.2656,750.3805 C 2113.5423,750.9735 2114.7677,751.4875 2115.3571,751.7925 C 2116.4618,752.3625 2118.0097,751.2355 2118.9588,750.8125 C 2120.8451,749.9695 2122.6483,751.0835 2124.6605,750.8875 C 2125.4651,750.8085 2126.1933,750.1905 2126.9016,749.8115 C 2127.9611,749.2445 2127.6537,747.8585 2128.4537,746.9835 C 2129.2875,746.0715 2133.5393,745.1475 2134.2038,746.5425 C 2134.8369,747.8695 2138.7280,749.1355 2139.9664,748.3695 C 2141.0364,747.7075 2141.2624,746.6525 2142.7208,747.1535 C 2143.4380,747.4005 2144.0043,746.8135 2144.6181,746.5685 C 2145.1262,746.3635 2145.7243,747.0245 2146.2462,746.9985 C 2145.9587,745.6125 2148.8854,742.5945 2148.1105,741.6995 C 2146.7757,740.1555 2149.9780,738.1855 2151.1598,737.7825 C 2150.5082,736.9375 2149.3426,733.8275 2151.4844,733.5715 C 2154.1750,733.2485 2152.2331,731.5915 2153.8227,730.1245 C 2154.4360,729.5595 2153.7629,727.2475 2153.8917,726.2745 C 2154.0106,725.3745 2154.2869,724.2345 2154.7237,723.4235 C 2155.1010,722.7255 2155.8306,722.3925 2156.0393,721.5815 C 2157.4362,722.1085 2157.7786,722.3895 2159.3144,721.7405 C 2159.8375,721.5195 2161.0284,723.4245 2161.2301,721.4365 C 2162.1722,722.3805 2164.0303,722.1435 2165.2559,722.0315 C 2166.8261,721.8885 2167.7121,723.5875 2169.2278,723.4535 C 2168.7607,723.7745 2168.2497,723.9665 2167.6938,724.0285 C 2167.9567,724.2655 2170.5790,726.5205 2168.7823,725.6135 C 2169.1443,725.8755 2170.0992,726.0505 2170.2701,726.4865 C 2170.4410,726.9235 2170.4118,727.3585 2170.9374,727.5565 C 2170.0300,728.6635 2168.6484,727.9715 2168.3038,726.8365 C 2168.4627,727.3255 2168.5129,727.8295 2168.4544,728.3485 C 2167.6958,727.8665 2166.3319,727.9155 2165.5052,728.2765 C 2166.5193,728.6745 2167.0101,729.7305 2168.1099,730.0055 C 2167.8045,730.5715 2167.6252,731.8205 2166.6853,731.3735 C 2167.3546,732.2905 2168.3910,732.6735 2169.4315,733.0285 C 2168.5157,734.0285 2170.2075,734.1265 2168.8002,734.3245 C 2169.2826,734.3435 2169.7350,734.4635 2170.1565,734.6845 C 2168.7126,735.0745 2170.4731,735.8875 2170.9908,736.5555 C 2171.5818,737.3205 2172.0988,738.1555 2172.5766,738.9975 C 2173.1777,740.0565 2171.7411,742.1395 2170.5036,742.1005 C 2171.3004,742.3845 2170.9003,743.1895 2171.5329,743.7125 C 2172.4436,744.4655 2173.3534,745.2425 2174.3018,745.9475 C 2175.0666,746.5155 2175.5204,747.4875 2176.4119,747.8075 C 2177.6061,748.2365 2178.4501,749.4505 2179.2447,750.3805 C 2179.5796,750.7725 2180.4451,750.4645 2179.8447,751.4115 C 2179.1024,752.5815 2177.8795,752.0005 2176.8500,752.5235 C 2175.1422,753.3895 2173.1074,751.0045 2171.7547,750.4575 C 2172.3822,751.3695 2172.8788,752.5205 2171.4211,752.6035 C 2170.0974,752.6775 2169.6881,754.6965 2169.3559,755.6885 C 2168.4677,758.3385 2168.0494,761.3745 2168.2207,764.1375 C 2168.5997,763.6995 2169.0776,763.4595 2169.6564,763.4175 C 2169.4743,764.0115 2168.5246,764.7215 2169.2340,764.9975 C 2168.5540,765.4195 2168.5569,766.0145 2169.2410,766.4365 C 2168.3062,766.7005 2167.2714,767.8185 2167.0110,766.5065 C 2166.7309,768.3635 2163.2952,772.2805 2162.7701,768.5265 C 2162.0523,769.8395 2163.2854,770.8675 2161.8091,771.8965 C 2161.1282,772.3705 2161.4688,773.1095 2160.9946,773.7075 C 2160.4428,774.4015 2159.4165,774.3785 2158.9110,775.1465 C 2161.1714,774.2875 2160.4352,777.4365 2159.3559,778.2475 C 2159.9176,778.7965 2161.0592,778.0355 2161.5320,778.6035 C 2161.9908,779.1565 2161.0818,781.2935 2160.7430,781.7765 C 2160.3447,781.3105 2159.8650,781.1915 2159.3009,781.4175 C 2160.7241,782.6435 2158.8874,786.5705 2157.8766,784.5775 C 2157.6107,785.4525 2158.3475,786.2055 2158.8265,786.8165 C 2156.8477,787.1795 2157.4712,790.1905 2155.8168,790.8645 C 2154.0267,791.6045 2152.2447,792.8345 2150.4283,793.6565 C 2149.9502,793.8725 2146.2245,796.4855 2146.3120,795.0125 C 2146.3651,794.1185 2146.2087,793.1375 2146.2029,792.2255 C 2146.1951,790.9255 2145.3372,789.8485 2145.6511,788.5365 C 2144.1954,789.9695 2143.1926,789.4295 2144.2067,787.4565 C 2143.5488,788.5785 2142.0827,789.3005 2142.4046,787.3155 C 2142.2554,788.3685 2139.4935,790.8155 2138.6683,789.1925 C 2138.3856,788.6315 2139.1588,788.2005 2138.6189,787.6105 C 2137.6267,786.5275 2136.5835,788.4895 2136.2826,787.0255 C 2136.6154,788.6915 2134.4601,785.7265 2134.2518,785.0055 C 2134.2717,786.5135 2132.6550,788.1925 2131.3767,788.8475 C 2130.0465,789.5295 2128.8704,787.6105 2127.5813,788.5435 C 2127.1137,788.8815 2125.3471,791.4905 2124.9493,789.7965 C 2124.5118,787.7345 2125.2015,785.8925 2124.0940,783.8555 C 2123.2409,786.0885 2122.9361,785.0485 2121.2845,785.0025 C 2120.5893,784.9835 2120.0228,785.5845 2119.4862,785.9245 C 2118.4659,786.5725 2117.7931,785.9935 2116.7600,785.8055 C 2117.0924,785.4415 2117.4510,785.1045 2117.8357,784.7955 C 2117.0011,784.9215 2116.7329,786.0035 2115.8201,785.8755 C 2116.1923,783.6845 2113.9892,784.8985 2113.0881,785.5855 C 2112.0319,784.2755 2112.8614,782.1035 2112.3925,780.5925 C 2112.0748,779.5655 2112.2610,778.4795 2112.0673,777.4355 C 2111.9043,776.5545 2110.5229,775.8465 2110.6104,775.0755 C 2110.6306,774.8945 2111.3846,773.9615 2111.4744,773.6925 C 2111.7922,772.7305 2111.9644,771.8965 2111.3694,771.0095 C 2110.9626,770.4035 2110.8747,769.7505 2110.5280,769.1685 C 2110.1058,768.4605 2109.2085,768.1985 2109.2541,767.2255 C 2109.0492,767.4755 2108.8332,767.7145 2108.6082,767.9455 C 2107.8385,766.4725 2107.0335,767.8275 2105.9885,767.1975 C 2105.3968,766.8415 2105.7680,766.1835 2106.0262,765.7805 C 2106.2864,765.3745 2107.2556,765.8425 2107.5897,765.8555 C 2107.0253,765.5415 2106.6868,764.7775 2106.0630,764.6215 C 2105.5994,764.5045 2105.0017,764.5915 2104.6976,764.1265 C 2104.2697,763.4745 2104.0078,760.8175 2105.3395,761.6155 C 2104.9903,760.6875 2104.4122,759.5645 2105.5498,759.4565 C 2104.5831,758.1875 2103.3030,757.0845 2102.9548,755.4715 C 2102.8098,754.7975 2102.1750,752.6105 2102.7795,752.0385"
       id="path2554" />
    <path
       d="M 2166.4167,729.0695 C 2166.4463,728.9015 2166.4769,728.7335 2166.5065,728.5655 C 2167.2717,728.6755 2167.9737,728.9925 2168.6368,729.3575 C 2167.8729,729.4955 2167.1204,729.3175 2166.4167,729.0695"
       id="path2556" />
    <path
       d="M 2169.9476,723.5255 C 2170.8280,723.4095 2171.9786,723.2445 2171.7103,724.5345 C 2170.8668,724.7085 2170.4799,723.9605 2169.9476,723.5255"
       id="path2558" />
    <path
       d="M 2296.0279,811.7285 C 2296.1142,812.3225 2296.3843,812.8265 2296.8412,813.2395 C 2296.6250,812.8965 2296.8420,810.8035 2296.9654,810.3305 C 2297.2783,809.1235 2296.0436,809.7495 2296.3441,808.6985 C 2297.3555,809.1905 2297.8892,807.5815 2298.2672,806.9985 C 2298.9149,805.9975 2299.9764,808.1435 2299.9966,808.6865 C 2300.0495,810.1075 2300.0507,811.6335 2300.0565,813.0545 C 2300.0854,815.2835 2298.3341,814.2615 2297.1442,813.4595 C 2298.7423,815.2075 2293.2076,811.5685 2296.0279,811.7285"
       id="path2564" />
    <path
       d="M 2297.8969,813.9585 C 2298.2094,814.1555 2299.2489,815.3765 2298.6550,815.6685 C 2297.6884,816.1445 2296.8463,814.2095 2297.8969,813.9585"
       id="path2566" />
  </g>
  
  
  
  
  
  
  
  
  
  
  
  
  
  
  
  
  
  
  
  
  
  
  
  
  
  
  
  
  
  
  
  
  
  
  
  
  
  
  
  
  
  
  
  
  
  
  
  
  
  
  
  
  
  
  
  
  
  
  
  
  
  
  
  
  
  
  
  
  
  
  
  
  
  
  
  
  
  
  
  
  
  
  
  
  
  
  
  
  
  
  
  
  
  
  
  
  
  
  
  
  
  
  
  
  
  
  
  
  
  
  
  
  
  
  
  
  
  
  
  
  
  
  
  
  
  
  
  
  
  
  
  
  
  
  
  
  
  
  
  
  
  
  
  
  
  
  
  
  
  
  
  
  
  
  
  
  
  
  
  
  
  
  
  
  
  
  
  
  
  
  
  
  
  
  
  
  
  
  
  
  
  
  
  
  
  
  
  
  
  
  
  
  
  
  
  
  
  
  
  
  
  
  
  
  
  
  
  
  
  
  
  
  
  
  
  
  
  
  
  
  
  
  
</svg>
