<?xml version="1.0" encoding="UTF-8" standalone="no"?>
<svg
   xmlns:dc="http://purl.org/dc/elements/1.1/"
   xmlns:cc="http://web.resource.org/cc/"
   xmlns:rdf="http://www.w3.org/1999/02/22-rdf-syntax-ns#"
   xmlns:svg="http://www.w3.org/2000/svg"
   xmlns="http://www.w3.org/2000/svg"
   xmlns:sodipodi="http://sodipodi.sourceforge.net/DTD/sodipodi-0.dtd"
   xmlns:inkscape="http://www.inkscape.org/namespaces/inkscape"
   viewBox="0 0 2752.766 1537.631"
   version="1.0"
   height="476.7276"
   width="939.74725"
   id="svg1926"
   sodipodi:version="0.32"
   inkscape:version="0.45.1"
   sodipodi:docname="BlankMap-World6.svg"
   sodipodi:docbase="/home/bennett/Desktop"
   inkscape:output_extension="org.inkscape.output.svg.inkscape">
  <sodipodi:namedview
     inkscape:window-height="590"
     inkscape:window-width="822"
     inkscape:pageshadow="2"
     inkscape:pageopacity="0.0"
     guidetolerance="10.0"
     gridtolerance="10.0"
     objecttolerance="10.0"
     borderopacity="1.0"
     bordercolor="#666666"
     pagecolor="#ffffff"
     id="base"
     inkscape:zoom="0.77893284"
     inkscape:cx="469.87363"
     inkscape:cy="238.3638"
     inkscape:window-x="178"
     inkscape:window-y="46"
     inkscape:current-layer="svg1926" />
  <metadata
     id="metadata24111">
    <rdf:RDF>
      <cc:Work
         rdf:about="">
        <dc:format>image/svg+xml</dc:format>
        <dc:type
           rdf:resource="http://purl.org/dc/dcmitype/StillImage" />
        <cc:license
           rdf:resource="http://web.resource.org/cc/PublicDomain" />
        <dc:title>Blank World Map</dc:title>
      </cc:Work>
      <cc:License
         rdf:about="http://web.resource.org/cc/PublicDomain">
        <cc:permits
           rdf:resource="http://web.resource.org/cc/Reproduction" />
        <cc:permits
           rdf:resource="http://web.resource.org/cc/Distribution" />
        <cc:permits
           rdf:resource="http://web.resource.org/cc/DerivativeWorks" />
      </cc:License>
    </rdf:RDF>
  </metadata>
  <defs
     id="defs1930" />
  <style
     type="text/css"
     id="style_css_sheet">
/*
 * Below are Cascading Style Sheet (CSS) definitions in use in this file,
 * which allow easily changing how countries are displayed.
 *
 */

/*
 * Circles around small countries
 *
 * Change opacity to 1 to display all circles.
 *
 */
.circle
{
   opacity:0;
   fill:#b9b9b9;
   fill-opacity:1;
   stroke:black;
   stroke-width:0.99986893;
   stroke-miterlimit:3.97446823;
   stroke-dasharray:none;
   stroke-opacity:1;
}

/*
 * Land
 */
.land
{
   fill: #b9b9b9;
   fill-opacity: 1;
   stroke: #ffffff;
   stroke-opacity: 1;
   stroke-width: 0.99986997;
   stroke-miterlimit: 3.97446823;
   stroke-dasharray: none;
}

/*
 * Additional style rules
 *
 * The following are examples of colouring countries.  You can substitute these with your own styles to colour the countries on the map.
 *
 * Color a few countries:
 *
 * .gb, .au, .nc
 * {
 *    fill:       #ff0000;
 * }
 *
 * Color a few small country circles (and the countries):
 *
 * .ms, .ky
 * {
 *    opacity:    1;
 *    fill:       #ff0000;
 * }
 *
 */

/*
 * Antarctica
 */

.aq
{
   fill:#e6e6e6;
}

/*
 * Sea
 */

.ocean
{
   opacity: 1;
   color: #000000;
   fill:white;
   fill-opacity:1;
   fill-rule:nonzero;
   stroke:#000000;
   stroke-width:0.5;
   stroke-linecap:butt;
   stroke-linejoin:miter;
   marker:none;
   marker-start:none;
   marker-mid:none;
   marker-end:none;
   stroke-miterlimit:1;
   stroke-dasharray:none;
   stroke-dashoffset:0;
   stroke-opacity:1;
   visibility:visible;
   display:inline;
   overflow:visible;
}

.lake
{
   fill:#ffffff;
   fill-opacity:1;
   stroke:#ffffff;
   stroke-opacity:1;
   stroke-width:0.99986997;
   stroke-miterlimit:3.97446823;
   stroke-dasharray:none;
}
</style>
  
  
  
  
  
  
  
  
  
  
  
  
  
  
  
  
  
  
  
  
  
  
  
  
  
  
  
  
  
  
  
  
  
  
  
  
  
  
  
  
  
  
  
  
  
  
  
  
  
  
  
  
  
  
  
  
  
  
  
  
  
  
  
  
  
  
  
  
  
  
  
  
  
  
  
  
  
  
  
  
  
  
  <g
     class="land ie"
     id="ie">
    <path
       d="M 1205.0696,287.2785 C 1205.2494,287.3885 1205.0477,287.7545 1205.3058,287.4225 C 1205.5660,287.0865 1205.2533,287.3905 1205.0696,287.2785"
       id="path5352" />
    <path
       d="M 1193.9546,296.2785 C 1195.2531,295.7805 1192.6796,295.4085 1192.0708,295.7025 C 1192.7586,295.6935 1193.3874,295.8855 1193.9546,296.2785"
       id="path5348" />
    <path
       d="M 1193.9919,315.2855 C 1193.7155,315.3085 1193.4394,315.3335 1193.1630,315.3565 C 1194.1478,314.4975 1195.1715,313.4365 1196.7205,313.2685 C 1195.2143,313.0565 1193.0476,314.8365 1191.5653,313.8615 C 1189.8964,312.7655 1194.5077,310.6825 1195.5452,310.9645 C 1193.9854,310.4025 1192.0458,310.8845 1190.6021,311.1805 C 1190.0480,310.1645 1191.2887,310.0075 1192.1356,309.9105 C 1192.5816,309.8595 1193.0980,309.8325 1193.4827,309.6435 C 1193.8446,309.4655 1194.7665,310.1035 1195.6462,309.9565 C 1195.3624,309.4055 1194.9796,308.9015 1194.5000,308.4435 C 1196.1133,308.4495 1196.4055,307.1925 1198.0873,307.2125 C 1200.0433,307.2355 1201.7016,306.5785 1203.6009,306.4285 C 1202.9483,306.4115 1202.3482,306.0845 1202.0470,305.5645 C 1199.7760,306.9055 1197.8863,306.8565 1195.0960,307.2935 C 1195.8056,306.8295 1199.4383,305.2055 1198.8087,304.1135 C 1197.9081,302.5555 1201.6875,302.5945 1202.3888,301.8925 C 1200.9006,301.8135 1199.4997,301.7695 1198.0237,301.7795 C 1197.3040,301.7845 1195.9787,301.1255 1195.0360,301.0285 C 1195.1666,300.7875 1195.2987,300.5485 1195.4331,300.3085 C 1194.5428,300.0895 1193.9680,300.7885 1193.0671,300.3805 C 1193.3301,300.2175 1193.5866,300.0495 1193.8400,299.8765 C 1193.5318,299.7065 1193.2203,299.5385 1192.9090,299.3725 C 1193.8950,299.2345 1193.4932,299.1335 1194.1431,298.7515 C 1194.6674,298.4425 1195.6076,298.7845 1196.2191,298.7245 C 1195.3453,298.8195 1194.2529,298.1615 1195.1224,297.5055 C 1195.4794,297.2355 1196.3405,297.2885 1196.7988,297.1585 C 1199.0975,296.5055 1194.3642,296.2475 1194.6148,296.5085 C 1194.2255,296.1035 1195.2782,296.0825 1195.4872,296.2055 C 1194.8338,295.4655 1195.5502,294.2385 1194.1699,294.9085 C 1194.5077,294.4775 1194.4173,294.0695 1193.8971,293.6845 C 1193.6807,293.9095 1193.4871,294.1495 1193.3185,294.4045 C 1193.3724,293.8785 1193.5562,293.3985 1193.8691,292.9655 C 1194.1768,294.0995 1195.8807,292.9125 1197.2294,292.8405 C 1198.4909,292.7735 1200.1685,293.0435 1200.5052,294.3335 C 1200.8014,291.9805 1204.0988,294.3835 1205.3973,293.1815 C 1205.0596,293.0445 1204.7255,292.9005 1204.3939,292.7495 C 1205.1857,291.7125 1207.8085,291.8175 1207.8569,290.5895 C 1206.3720,290.3525 1204.8438,290.7345 1203.4004,290.0855 C 1203.5889,289.2315 1204.6645,289.0085 1205.6179,289.2935 C 1205.1819,288.6695 1205.1019,288.2435 1206.2814,288.5745 C 1205.4864,287.8155 1206.0250,286.5785 1206.8611,286.1795 C 1208.3528,285.4675 1209.8574,286.0705 1211.3519,285.9085 C 1210.5185,284.9045 1211.6592,284.8215 1212.1272,285.3945 C 1212.9586,286.4145 1212.2563,286.4105 1212.0549,287.2775 C 1213.3623,287.2945 1213.7303,286.1225 1212.6653,285.4045 C 1214.4015,284.3145 1215.1798,284.9075 1217.0555,285.1885 C 1216.1876,286.1145 1214.0216,286.3185 1213.6981,287.6005 C 1213.4148,288.7275 1211.6865,290.0405 1210.1415,289.6525 C 1210.5334,289.9375 1210.9451,290.2025 1211.3738,290.4455 C 1209.9105,291.2745 1207.2400,291.1615 1209.4643,292.8205 C 1210.4331,293.5445 1211.6225,294.3155 1212.9502,294.3665 C 1214.0948,294.4105 1215.1433,294.7415 1215.3388,293.4595 C 1215.4503,292.7305 1215.6352,292.2205 1216.7493,292.3045 C 1218.0054,292.4005 1217.9635,294.0415 1219.4744,293.9715 C 1219.1356,295.2605 1220.6529,294.9755 1221.5694,294.9075 C 1222.3163,294.8515 1222.2290,294.3495 1223.4013,295.1965 C 1222.8402,295.4515 1222.0919,295.4745 1221.6270,295.8655 C 1221.4747,295.9945 1222.5367,297.0005 1222.5239,297.5555 C 1222.5076,298.3355 1225.1089,300.3585 1222.8190,300.7395 C 1224.6178,302.7675 1224.0867,303.9765 1223.3667,306.0065 C 1222.9949,307.0595 1222.5473,309.1925 1220.7603,309.0195 C 1222.7127,309.2425 1221.6191,310.6425 1220.1871,310.4225 C 1219.0458,310.2465 1217.4207,311.0095 1216.9498,309.5955 C 1217.9052,311.4435 1213.8280,310.7525 1212.7600,311.0885 C 1211.7657,311.4015 1212.5545,312.2455 1210.9467,312.2455 C 1209.6898,312.2455 1209.2550,313.7225 1207.6193,313.6275 C 1208.4239,312.4075 1206.7110,312.7445 1206.0135,312.9795 C 1207.3542,313.2965 1206.9781,313.8265 1206.1853,314.2485 C 1205.8248,314.3785 1205.5434,314.5835 1205.3379,314.8645 C 1205.1111,315.3565 1204.5651,314.9275 1204.0667,315.1115 C 1202.8919,315.5445 1201.5688,315.5265 1200.3357,315.8825 C 1198.9614,316.2795 1197.2597,315.8915 1196.0000,316.4355 C 1196.2865,315.9135 1196.7355,315.5295 1197.3483,315.2845 C 1196.7460,315.3605 1196.1759,315.5045 1195.6391,315.7165 C 1196.2910,315.1485 1197.1787,314.8595 1198.0833,314.6365 C 1196.9137,314.1385 1194.8344,314.6925 1193.9919,315.2855"
       id="path5402" />
  </g>
  
  
  
  
  
  
  
  
  
  
  
  
  
  
  
  
  
  
  
  
  
  
  
  
  
  
  
  
  
  
  
  
  
  
  
  
  
  
  
  
  
  
  
  
  
  
  
  
  
  
  
  
  
  
  
  
  
  
  
  
  
  
  
  
  
  
  
  
  
  
  
  
  
  
  
  
  
  
  
  
  
  
  
  
  
  
  
  
  
  
  
  
  
  
  
  
  
  
  
  
  
  
  
  
  
  
  
  
  
  
  
  
  
  
  
  
  
  
  
  
  
  
  
  
  
  
  
  
  
  
  
  
  
  
  
  
  
  
  
  
  
  
  
  
  
  
  
  
  
</svg>
