<?xml version="1.0" encoding="UTF-8" standalone="no"?>
<svg
   xmlns:dc="http://purl.org/dc/elements/1.1/"
   xmlns:cc="http://web.resource.org/cc/"
   xmlns:rdf="http://www.w3.org/1999/02/22-rdf-syntax-ns#"
   xmlns:svg="http://www.w3.org/2000/svg"
   xmlns="http://www.w3.org/2000/svg"
   xmlns:sodipodi="http://sodipodi.sourceforge.net/DTD/sodipodi-0.dtd"
   xmlns:inkscape="http://www.inkscape.org/namespaces/inkscape"
   viewBox="0 0 2752.766 1537.631"
   version="1.0"
   height="476.7276"
   width="939.74725"
   id="svg1926"
   sodipodi:version="0.32"
   inkscape:version="0.45.1"
   sodipodi:docname="BlankMap-World6.svg"
   sodipodi:docbase="/home/bennett/Desktop"
   inkscape:output_extension="org.inkscape.output.svg.inkscape">
  <sodipodi:namedview
     inkscape:window-height="590"
     inkscape:window-width="822"
     inkscape:pageshadow="2"
     inkscape:pageopacity="0.0"
     guidetolerance="10.0"
     gridtolerance="10.0"
     objecttolerance="10.0"
     borderopacity="1.0"
     bordercolor="#666666"
     pagecolor="#ffffff"
     id="base"
     inkscape:zoom="0.77893284"
     inkscape:cx="469.87363"
     inkscape:cy="238.3638"
     inkscape:window-x="178"
     inkscape:window-y="46"
     inkscape:current-layer="svg1926" />
  <metadata
     id="metadata24111">
    <rdf:RDF>
      <cc:Work
         rdf:about="">
        <dc:format>image/svg+xml</dc:format>
        <dc:type
           rdf:resource="http://purl.org/dc/dcmitype/StillImage" />
        <cc:license
           rdf:resource="http://web.resource.org/cc/PublicDomain" />
        <dc:title>Blank World Map</dc:title>
      </cc:Work>
      <cc:License
         rdf:about="http://web.resource.org/cc/PublicDomain">
        <cc:permits
           rdf:resource="http://web.resource.org/cc/Reproduction" />
        <cc:permits
           rdf:resource="http://web.resource.org/cc/Distribution" />
        <cc:permits
           rdf:resource="http://web.resource.org/cc/DerivativeWorks" />
      </cc:License>
    </rdf:RDF>
  </metadata>
  <defs
     id="defs1930" />
  <style
     type="text/css"
     id="style_css_sheet">
/*
 * Below are Cascading Style Sheet (CSS) definitions in use in this file,
 * which allow easily changing how countries are displayed.
 *
 */

/*
 * Circles around small countries
 *
 * Change opacity to 1 to display all circles.
 *
 */
.circle
{
   opacity:0;
   fill:#b9b9b9;
   fill-opacity:1;
   stroke:black;
   stroke-width:0.99986893;
   stroke-miterlimit:3.97446823;
   stroke-dasharray:none;
   stroke-opacity:1;
}

/*
 * Land
 */
.land
{
   fill: #b9b9b9;
   fill-opacity: 1;
   stroke: #ffffff;
   stroke-opacity: 1;
   stroke-width: 0.99986997;
   stroke-miterlimit: 3.97446823;
   stroke-dasharray: none;
}

/*
 * Additional style rules
 *
 * The following are examples of colouring countries.  You can substitute these with your own styles to colour the countries on the map.
 *
 * Color a few countries:
 *
 * .gb, .au, .nc
 * {
 *    fill:       #ff0000;
 * }
 *
 * Color a few small country circles (and the countries):
 *
 * .ms, .ky
 * {
 *    opacity:    1;
 *    fill:       #ff0000;
 * }
 *
 */

/*
 * Antarctica
 */

.aq
{
   fill:#e6e6e6;
}

/*
 * Sea
 */

.ocean
{
   opacity: 1;
   color: #000000;
   fill:white;
   fill-opacity:1;
   fill-rule:nonzero;
   stroke:#000000;
   stroke-width:0.5;
   stroke-linecap:butt;
   stroke-linejoin:miter;
   marker:none;
   marker-start:none;
   marker-mid:none;
   marker-end:none;
   stroke-miterlimit:1;
   stroke-dasharray:none;
   stroke-dashoffset:0;
   stroke-opacity:1;
   visibility:visible;
   display:inline;
   overflow:visible;
}

.lake
{
   fill:#ffffff;
   fill-opacity:1;
   stroke:#ffffff;
   stroke-opacity:1;
   stroke-width:0.99986997;
   stroke-miterlimit:3.97446823;
   stroke-dasharray:none;
}
</style>
  
  
  
  
  
  
  
  
  
  
  
  
  
  
  
  
  
  
  
  
  
  
  
  
  
  
  
  
  
  
  
  
  
  
  
  
  
  
  
  
  
  
  
  
  
  
  
  
  
  
  
  
  
  
  
  
  
  
  
  
  
  
  
  
  
  
  
  
  
  
  
  
  
  
  
  
  
  
  
  
  
  
  
  
  
  
  
  
  
  
  
  
  
  
  
  
  <g
     class="land in"
     id="in">
    <path
       d="M 1982.0058,654.1896 C 1981.7839,654.5316 1981.6371,654.4266 1981.9497,654.9095 C 1981.9685,654.6685 1981.9871,654.4295 1982.0058,654.1896"
       id="path5460" />
    <path
       d="M 1985.9929,685.6535 C 1985.9917,685.8945 1986.0035,686.1345 1986.0294,686.3745 C 1986.0176,686.1336 1986.0047,685.8936 1985.9929,685.6535"
       id="path5466" />
    <path
       d="M 1977.8067,666.2855 C 1977.6618,665.9375 1977.4979,665.6015 1977.3120,665.2765 C 1976.6299,665.8025 1976.1741,666.8345 1976.2883,667.6445 C 1976.5835,669.6915 1978.4021,667.5235 1977.8067,666.2855"
       id="path5450" />
    <path
       d="M 1979.8101,647.9975 C 1978.2823,649.1885 1979.4533,652.7595 1979.4702,654.1885 C 1977.6980,653.8575 1976.8831,659.8055 1979.2720,659.5885 C 1978.2768,658.8535 1979.4056,658.7755 1979.4703,657.9425 C 1979.5476,656.9485 1979.0305,656.0135 1979.4453,655.0145 C 1979.7609,654.2565 1980.4791,653.6025 1980.3881,652.7405 C 1980.2462,651.3935 1980.7892,652.2955 1981.1357,651.0655 C 1981.4840,649.8265 1980.1709,648.5665 1980.5454,647.6105 C 1980.9122,646.6765 1982.8584,644.7365 1981.0567,644.3235 C 1981.8745,643.7405 1981.8388,642.8355 1981.3551,642.1645 C 1979.3695,643.5715 1980.3672,646.1185 1979.8101,647.9975"
       id="path5452" />
    <path
       d="M 1979.1990,647.4215 C 1979.0781,647.4215 1978.9572,647.4215 1978.8363,647.4215 C 1978.8961,647.7025 1978.9964,647.9675 1979.1375,648.2135 C 1979.1580,647.9495 1979.1785,647.6855 1979.1990,647.4215"
       id="path5454" />
    <path
       d="M 1979.6200,679.6055 C 1979.2765,679.7585 1979.0976,680.0225 1979.0812,680.3975 C 1979.8917,680.6285 1980.0707,680.3645 1979.6200,679.6055"
       id="path5456" />
    <path
       d="M 1980.8815,655.7015 C 1981.0278,655.9545 1981.2542,656.0975 1981.5624,656.1335 C 1981.3351,655.9895 1981.1078,655.8455 1980.8815,655.7015"
       id="path5458" />
    <path
       d="M 1984.3322,690.2615 C 1982.2354,691.0155 1986.1405,691.8125 1984.3322,690.2615"
       id="path5462" />
    <path
       d="M 1985.4164,688.5335 C 1984.3863,688.5895 1985.0138,689.7395 1985.4248,690.0455 C 1985.2262,689.5515 1985.2237,689.0485 1985.4164,688.5335"
       id="path5464" />
    <path
       d="M 1986.6873,695.4455 C 1986.0738,695.6755 1985.9082,696.3645 1986.1877,696.8855 C 1986.7804,696.5835 1987.0886,696.0205 1986.6873,695.4455"
       id="path5468" />
    <path
       d="M 1987.9700,697.3895 C 1985.3627,696.0645 1987.3267,700.2025 1987.7977,701.0615 C 1988.6904,699.2785 1987.9268,698.9515 1987.9700,697.3895"
       id="path5470" />
    <path
       d="M 1791.7478,553.8935 C 1791.8206,552.1955 1793.7365,552.1655 1794.9920,552.1655 C 1796.4732,552.1655 1795.9796,549.9375 1796.0029,549.1415 C 1796.9538,549.6275 1799.1191,549.7265 1800.2170,549.4135 C 1802.2251,548.8405 1803.5360,551.3095 1805.5415,550.4365 C 1806.0047,550.2345 1809.1050,547.1555 1809.7281,548.3915 C 1810.7488,550.4125 1812.1526,549.5945 1813.9822,548.3485 C 1812.3714,548.0235 1814.0492,545.9385 1813.5750,544.9235 C 1812.7345,543.1275 1811.7886,541.4415 1810.7692,539.7505 C 1810.2075,538.8225 1811.2926,536.7205 1809.3179,537.2765 C 1807.6686,537.7415 1806.0316,535.6905 1806.3540,534.1935 C 1806.5826,533.1325 1807.2110,530.7765 1806.3207,529.9565 C 1804.8728,528.6235 1801.9157,529.6485 1801.4576,527.1315 C 1801.1668,525.3095 1803.1676,523.4695 1804.3920,522.1335 C 1805.2727,521.1745 1805.8365,520.0635 1806.5638,519.0095 C 1807.0754,518.2665 1808.1678,516.5955 1809.2595,516.8645 C 1810.6772,517.2145 1810.1781,519.6105 1811.7628,519.7525 C 1812.6659,519.8335 1813.6839,519.1705 1814.5280,518.8305 C 1815.5689,518.4115 1816.5465,518.4605 1817.6009,518.3225 C 1820.0441,518.0015 1819.8859,516.1285 1821.4638,514.7655 C 1823.3761,513.1175 1822.7332,510.9475 1825.3697,509.6195 C 1827.7826,508.4055 1828.9314,506.8945 1830.0366,504.5115 C 1830.8762,502.7695 1830.8343,500.4615 1833.1732,499.7425 C 1833.9719,499.4975 1834.9169,499.3365 1835.4746,498.5965 C 1836.2589,497.5555 1834.8957,497.3215 1835.0008,496.7965 C 1835.1277,496.1645 1837.2966,493.9385 1837.8030,493.3605 C 1838.7508,492.2835 1840.6619,491.7025 1841.4141,490.5325 C 1839.8139,490.5025 1840.5024,489.0585 1840.6949,488.0115 C 1840.9281,486.7405 1839.8948,485.7845 1840.1415,484.6935 C 1840.5740,482.7845 1844.5060,482.4235 1845.8630,481.1925 C 1848.1929,479.0785 1842.7706,478.8735 1841.8898,478.5435 C 1840.9842,478.2045 1841.6774,476.8315 1840.7524,476.3005 C 1840.1208,475.9375 1839.2719,475.9435 1838.6042,475.6285 C 1839.0646,474.8635 1838.8089,474.4265 1838.1865,474.0765 C 1837.5233,473.7025 1835.6385,472.5345 1836.3865,471.6205 C 1837.0971,470.7545 1837.6663,469.8315 1836.7477,469.1345 C 1836.1838,468.7075 1835.2850,467.8015 1836.3660,467.0445 C 1836.7966,466.7435 1839.2527,465.3505 1837.4350,465.1945 C 1837.1380,465.1685 1834.2798,465.1465 1835.2972,464.1605 C 1836.5734,462.9245 1835.1800,463.0165 1834.4831,462.4175 C 1833.6483,461.6715 1835.8167,459.7175 1836.5743,459.3315 C 1838.5245,458.3385 1840.1230,459.0985 1841.8005,459.4705 C 1843.7004,459.8915 1845.5675,460.3645 1847.4540,460.8025 C 1849.0617,461.1755 1850.3211,460.1745 1851.9541,459.6775 C 1853.3790,459.2445 1854.7523,459.3005 1856.1544,458.9065 C 1856.5923,458.7835 1859.4803,456.5535 1859.3755,456.2645 C 1859.0903,455.4815 1861.8431,454.2845 1862.6296,453.7815 C 1863.2614,453.3785 1863.9492,452.9315 1864.6576,452.7165 C 1865.2522,452.5355 1865.4035,452.9695 1865.8926,452.8395 C 1867.5321,452.4055 1866.5497,454.2595 1867.0649,455.1165 C 1867.8401,456.4065 1867.5967,458.2168 1868.5976,459.3495 C 1869.6691,460.5639 1872.5554,460.1976 1873.5031,462.1155 C 1873.7784,462.6504 1874.5861,463.2385 1873.6867,463.8255 C 1871.9646,464.9505 1872.3183,465.1275 1872.5603,466.8045 C 1872.7755,468.2995 1872.8504,469.7465 1873.8781,470.8665 C 1874.6587,471.7195 1876.3745,471.8105 1877.0019,472.6255 C 1877.3080,473.0235 1877.0020,473.6995 1877.1404,474.1725 C 1877.2961,474.7065 1877.7055,475.0915 1877.9906,475.5455 C 1878.9570,477.0775 1877.4665,477.3825 1876.2957,478.2215 C 1875.2597,478.9635 1873.5286,480.4905 1873.0364,478.5635 C 1872.6611,477.0975 1871.5511,476.9025 1869.7623,478.0055 C 1870.1842,478.5975 1870.2452,479.2715 1870.3039,480.0105 C 1870.3701,480.8375 1871.1314,481.2545 1871.5688,481.8515 C 1872.5085,483.1325 1871.8615,484.5755 1872.7301,485.6885 C 1873.2443,486.3475 1871.5836,489.0475 1873.4650,488.8055 C 1874.2843,488.7005 1874.1586,487.9855 1874.7862,487.7925 C 1875.7711,487.4885 1875.9019,488.4915 1876.1414,489.0305 C 1876.4817,489.8005 1877.9206,491.4435 1878.8164,491.6215 C 1879.8865,491.8345 1880.7616,491.1475 1881.4810,492.1655 C 1881.9170,492.7835 1882.9050,492.5545 1883.3993,493.0535 C 1883.7338,493.3905 1883.6516,494.0005 1883.6681,494.4615 C 1883.6960,495.2355 1884.6148,495.2435 1885.2282,495.5275 C 1886.9101,496.3105 1888.7493,496.6685 1889.8109,498.2375 C 1887.7059,498.3555 1886.5955,501.1765 1884.9565,502.1385 C 1884.7993,502.2305 1884.7504,503.6465 1884.5157,503.9795 C 1883.6757,505.1665 1884.4166,505.6715 1883.9874,506.7915 C 1883.5962,507.8155 1881.6026,508.8955 1882.5955,510.1085 C 1883.1873,510.8335 1885.6438,512.8695 1885.9030,511.4135 C 1887.0237,512.1675 1888.3480,513.2455 1889.6353,513.7385 C 1891.1625,514.3235 1891.6570,515.5935 1893.0009,516.4575 C 1893.3981,516.7125 1895.4487,518.5635 1896.1166,518.3225 C 1897.6810,517.7575 1898.8991,518.9145 1900.0288,519.5315 C 1900.5103,519.7945 1902.3094,519.8215 1902.5342,520.1625 C 1903.3166,521.3495 1903.3957,521.6715 1905.0815,522.0145 C 1905.9680,522.1955 1906.9943,523.1195 1908.0285,522.4655 C 1909.4088,521.5925 1909.9995,522.2825 1911.2504,522.8615 C 1910.7924,520.6005 1916.2092,522.8975 1916.5879,523.0155 C 1918.1079,523.4905 1916.6746,525.5515 1918.0922,525.8835 C 1919.3071,526.1675 1921.1153,526.7865 1921.6929,527.8585 C 1922.1751,528.7165 1923.6846,527.4845 1924.4444,527.4235 C 1926.3046,527.2745 1924.9802,529.9495 1927.5278,528.9905 C 1928.2784,528.7075 1931.2533,529.7515 1931.8828,530.1505 C 1933.5038,531.1755 1934.0464,530.1555 1935.7405,529.6295 C 1935.7357,530.7605 1937.4730,531.8885 1938.4646,531.0405 C 1938.8406,530.7185 1941.4525,531.0455 1942.0291,531.0575 C 1943.2634,531.0845 1943.5237,531.0005 1943.8883,529.7095 C 1944.5599,527.5095 1943.6606,526.6535 1943.1641,524.7705 C 1942.8912,523.7375 1943.2859,522.4415 1943.6035,521.3425 C 1943.9871,520.0095 1943.8622,518.9775 1944.0437,517.6775 C 1945.4441,517.5845 1947.2473,516.4545 1948.5516,516.8425 C 1951.1113,517.6035 1948.0920,520.8485 1948.9769,522.2125 C 1949.1358,522.4575 1950.0382,523.0355 1949.6367,523.4625 C 1949.0175,524.1205 1948.5775,524.0375 1948.9306,524.9795 C 1949.7076,527.0515 1951.3105,526.9885 1953.3321,527.2505 C 1954.6917,527.4265 1955.3300,528.6235 1956.7337,528.4815 C 1957.3219,528.4225 1958.2550,528.4045 1958.8228,528.0735 C 1959.4159,527.7295 1960.7012,526.4445 1961.3488,526.9535 C 1962.9705,528.2275 1965.4011,527.8095 1967.5739,527.7295 C 1968.2372,527.7055 1969.4989,526.8975 1969.7798,527.3255 C 1970.2109,527.9845 1972.2523,527.3255 1973.0986,527.2305 C 1975.2191,526.9935 1973.1969,525.1985 1973.6496,524.3325 C 1975.1535,521.4655 1971.7746,522.6535 1970.7874,521.3105 C 1970.2481,520.5775 1970.2750,519.0745 1971.6957,519.4245 C 1972.8334,519.7055 1973.3175,519.1425 1974.4195,518.9035 C 1976.0766,518.5435 1978.8134,519.3375 1978.7154,516.6985 C 1978.6732,515.5875 1982.2247,514.4715 1982.6782,512.9545 C 1983.3971,510.5605 1986.3564,511.7395 1988.0855,510.3775 C 1989.4730,509.2865 1990.4207,507.9915 1991.9257,506.9995 C 1992.4805,506.6335 1993.0514,506.2315 1993.6447,505.9395 C 1994.1557,505.6875 1996.0436,507.2625 1996.4553,507.5275 C 1996.0176,506.9955 1996.2226,506.9795 1997.0705,507.4825 C 1997.7485,507.7835 1998.5055,508.2865 1999.3516,508.2535 C 2000.2167,508.2195 2000.2945,507.2325 2000.7185,506.7065 C 2001.4752,505.7665 2003.5187,505.1745 2004.6005,504.7955 C 2004.8396,504.7125 2006.6418,506.5815 2006.8532,506.8085 C 2005.2224,507.4385 2005.3047,507.6285 2005.4361,508.7155 C 2005.5293,509.4855 2007.5309,508.1365 2007.9370,508.0315 C 2007.3879,509.0875 2009.1830,509.7565 2008.6500,510.5945 C 2007.8364,511.8685 2007.2026,512.3015 2006.6507,513.5765 C 2006.2568,514.4845 2008.3498,513.6945 2008.6966,513.6065 C 2010.1736,513.2335 2010.9031,514.6045 2012.4133,514.1885 C 2013.7087,513.8315 2014.3872,515.4105 2014.1669,516.4085 C 2014.0845,516.7815 2014.5864,517.0875 2014.4618,517.3655 C 2014.1629,518.0345 2012.8722,518.8415 2012.3048,519.2935 C 2009.2470,521.7315 2012.7794,522.7155 2012.7076,525.0235 C 2010.9092,525.6815 2010.8616,523.4835 2009.5981,523.1305 C 2008.3878,522.7925 2005.0003,523.8665 2003.9466,524.8945 C 2003.1410,525.6815 2002.4627,526.3455 2001.5418,527.0205 C 2001.1567,527.4675 2000.7031,527.6415 2000.1817,527.5435 C 1999.6334,527.9115 2000.0365,528.1795 1999.2158,528.5995 C 1998.3485,529.0475 1997.7289,528.5295 1997.2481,529.6575 C 1996.8948,530.4865 1996.8767,531.4295 1996.9857,532.2425 C 1997.0686,532.8625 1997.4956,533.2885 1997.5969,533.8685 C 1997.7320,534.6435 1996.5731,535.0865 1996.7087,535.9255 C 1997.0405,537.9635 1993.0894,539.2945 1993.6396,541.0005 C 1993.8368,541.6125 1994.4899,541.8265 1994.6424,542.5205 C 1994.8756,543.5855 1993.9930,544.8685 1993.3820,545.7975 C 1991.8728,548.0925 1990.4172,550.6425 1990.0550,553.2485 C 1989.3938,552.6735 1987.5592,552.1185 1986.6647,551.8845 C 1986.1931,551.9165 1985.7218,551.9805 1985.2500,552.0765 C 1984.6756,551.9595 1984.5965,551.4525 1983.8715,551.5925 C 1984.3441,553.6285 1984.5153,555.4415 1984.3322,557.6005 C 1984.2547,558.5105 1983.9599,561.3845 1982.4412,560.1605 C 1982.4265,562.1295 1982.0637,563.5735 1982.6000,565.4335 C 1982.7906,566.0945 1983.1396,568.3135 1981.7196,567.4325 C 1980.5307,570.4145 1981.0460,568.5865 1979.0820,567.8655 C 1979.1276,568.4475 1978.8028,569.0175 1978.2795,569.3775 C 1977.8281,567.8635 1977.9414,566.1535 1977.8461,564.5525 C 1977.7323,562.6265 1976.7382,560.9625 1976.4732,559.0715 C 1976.2675,557.6065 1975.9040,556.1325 1975.8244,554.6485 C 1975.7558,553.3505 1973.9788,555.3265 1973.2524,554.6175 C 1973.3951,555.4715 1973.6648,556.1245 1972.7700,556.8245 C 1971.8089,557.5765 1972.2278,558.4625 1972.2674,559.3575 C 1972.3059,560.2155 1971.1314,561.2505 1970.3621,560.6285 C 1969.6108,560.0225 1970.0412,558.8185 1969.0490,558.3605 C 1969.0768,558.8455 1968.9863,559.3265 1968.7811,559.8005 C 1968.3337,558.3255 1967.8802,556.8545 1967.4666,555.3655 C 1967.0501,553.8655 1969.1968,552.3695 1968.9585,551.0155 C 1969.7083,551.1145 1971.0411,551.3495 1971.0771,550.1515 C 1971.4623,550.9095 1972.3467,549.7565 1972.9639,550.3685 C 1973.4739,548.4785 1976.5224,546.5725 1975.6413,544.3195 C 1976.0985,544.3615 1978.0426,544.2805 1977.2683,543.3765 C 1976.3614,542.3175 1974.4861,541.7095 1972.9943,541.7285 C 1971.6735,541.7455 1970.3281,541.9855 1969.0423,541.7795 C 1967.3525,541.5095 1965.7710,541.9925 1964.0771,541.7845 C 1961.9394,541.5235 1956.3609,542.0915 1957.1410,538.8925 C 1957.4732,537.5345 1957.4543,532.9765 1955.2043,533.1595 C 1955.4724,533.7735 1955.2097,534.3535 1954.8731,534.9605 C 1953.9198,534.4055 1952.5696,534.2385 1951.9727,533.2555 C 1951.4733,532.4325 1951.3545,530.8265 1949.9379,531.0725 C 1950.3565,531.4915 1950.6319,531.9955 1950.7631,532.5845 C 1950.0325,532.2955 1949.1673,532.2775 1948.4698,531.9145 C 1948.0273,531.6845 1947.9225,530.9715 1947.5281,530.6275 C 1946.9977,530.1655 1946.3477,529.8485 1945.7911,529.4165 C 1944.7702,530.8315 1946.7328,530.1575 1946.9283,531.3595 C 1944.4667,532.2205 1942.5016,535.4495 1945.1851,536.5415 C 1946.2557,536.9775 1946.4951,538.1695 1947.3789,538.7935 C 1948.0267,539.2515 1949.4736,538.4495 1949.4466,539.4245 C 1949.4052,540.8455 1951.4981,540.3075 1950.3310,541.8005 C 1949.7342,541.4725 1948.6798,541.5755 1947.9797,541.6395 C 1947.0316,541.7265 1946.8071,541.7865 1946.5942,542.6255 C 1946.3720,543.5015 1945.2602,545.0345 1944.6570,543.6725 C 1944.3591,545.1575 1942.9682,546.3325 1944.3317,547.5605 C 1945.3304,548.4595 1946.6356,549.0265 1948.0529,549.1295 C 1950.9142,549.3405 1945.3840,555.9315 1948.6768,556.1725 C 1949.6441,556.2435 1948.9092,557.4275 1949.0307,558.1645 C 1949.0777,558.4435 1949.8859,558.5515 1950.0208,558.5925 C 1950.7760,558.8215 1949.8353,559.9195 1949.8310,560.3765 C 1949.8197,561.3015 1950.5616,561.8885 1950.4601,562.8285 C 1950.3230,564.0895 1950.2240,564.7875 1950.7236,565.9215 C 1951.2318,567.0795 1951.7069,568.6755 1950.9197,569.8805 C 1950.6575,569.7015 1950.3866,569.5335 1950.1081,569.3765 C 1950.2698,569.8585 1951.7443,571.7545 1951.0831,572.2395 C 1950.3799,572.7575 1949.6443,571.8325 1949.7047,571.2485 C 1949.4647,572.0305 1948.7701,572.7155 1948.4011,571.6805 C 1948.0126,570.5905 1948.8356,569.2175 1948.9509,568.0805 C 1948.2112,568.4165 1948.8753,569.1035 1947.9943,569.7355 C 1948.2814,568.9735 1947.8792,568.2455 1948.3619,567.5045 C 1946.8343,568.5415 1947.6523,571.8975 1947.2215,573.3365 C 1947.0301,572.3845 1947.6115,570.8495 1946.7629,570.1685 C 1946.7604,570.2725 1946.6519,572.8425 1946.2514,572.5585 C 1946.1366,572.3765 1946.0372,572.1865 1945.9542,571.9875 C 1945.2664,570.8245 1945.6247,573.7145 1945.1835,571.5365 C 1945.4474,572.0515 1945.4021,572.5795 1945.0457,573.1205 C 1944.1558,572.2275 1944.4341,570.3035 1944.4748,569.0885 C 1944.5344,567.2185 1942.9802,567.5775 1942.5932,566.0645 C 1942.6394,567.5805 1945.2000,567.2875 1943.7584,569.2285 C 1942.1333,571.4155 1940.7693,572.3065 1938.1428,573.0495 C 1936.7507,573.4445 1934.8257,574.1325 1934.3308,575.6665 C 1933.9964,576.7095 1934.5678,580.1205 1935.3067,580.8965 C 1934.7416,581.2875 1933.8899,581.6885 1933.5625,582.3215 C 1933.0639,583.2865 1934.0131,583.3615 1932.7231,584.2785 C 1931.1853,585.3715 1930.3914,587.4785 1928.9583,585.2895 C 1929.0977,586.1125 1930.0275,586.5085 1930.6729,586.8735 C 1928.4027,587.9245 1925.9801,588.9895 1923.5499,589.3205 C 1924.3529,588.9165 1924.7868,587.1205 1923.5415,587.5255 C 1922.2657,587.9405 1920.9643,589.6765 1921.2276,590.9045 C 1921.4375,590.4405 1922.7522,588.9015 1923.0677,589.6805 C 1922.2950,589.8905 1920.9116,591.8075 1920.1132,592.4925 C 1918.3206,594.0295 1917.2771,595.9045 1915.9307,597.7945 C 1914.6143,599.7065 1913.1112,601.6035 1910.9154,602.5475 C 1909.0321,603.3575 1908.6047,605.7295 1906.7531,606.5285 C 1907.8660,607.2275 1901.9054,609.8565 1901.2176,610.4215 C 1900.5463,610.9735 1899.8123,611.7775 1899.4169,612.5375 C 1898.7790,613.7645 1900.4092,614.0765 1899.7246,615.4775 C 1898.3711,618.2515 1895.0673,618.0115 1892.6252,618.1305 C 1891.6309,618.1795 1891.4544,618.8835 1891.1560,619.7155 C 1890.8305,620.6235 1889.7130,622.2385 1889.7086,623.0885 C 1888.9589,622.7045 1889.0088,621.9225 1888.7786,621.2165 C 1889.0290,622.0295 1888.4576,622.7825 1888.1445,623.5205 C 1888.8958,621.0845 1885.2089,622.4655 1884.4741,623.6465 C 1883.3966,625.3775 1881.9719,628.0255 1882.4980,629.9565 C 1882.9307,631.5445 1883.4404,633.2685 1883.3251,634.8945 C 1883.1282,637.6805 1883.4896,639.8915 1884.0369,642.6015 C 1883.8399,642.1335 1882.9096,639.8925 1882.8714,641.7375 C 1882.3335,640.4155 1882.2099,642.1295 1882.6774,642.4295 C 1883.2778,642.8135 1883.8878,642.8595 1884.2618,643.5445 C 1884.9477,644.8005 1884.0371,648.0685 1883.7451,649.4275 C 1883.2257,651.8555 1881.6615,653.7015 1880.7879,655.9865 C 1880.1067,657.7655 1880.7818,660.3425 1879.3771,661.8255 C 1879.6145,661.6095 1879.8684,661.4185 1880.1399,661.2505 C 1880.8905,662.1955 1880.8099,663.5465 1880.7229,664.7185 C 1880.5785,666.6435 1880.8928,668.5455 1880.7275,670.4665 C 1880.2187,670.4275 1879.7151,670.3565 1879.2189,670.2505 C 1881.1504,670.8795 1879.1633,670.5685 1878.8183,670.4755 C 1878.0985,670.2805 1877.0530,669.9075 1876.5704,670.7965 C 1876.3204,671.2585 1875.9340,671.8185 1876.1899,672.3435 C 1876.5713,673.1285 1875.3834,673.8945 1874.9945,674.4975 C 1874.2381,675.6675 1872.7503,678.2315 1874.7385,679.0855 C 1875.2541,679.3075 1875.9152,679.2425 1876.4393,679.0375 C 1876.8073,678.8925 1877.5146,680.1985 1877.7386,680.4025 C 1875.8301,678.3555 1872.4693,679.6345 1870.2782,680.6905 C 1867.4279,682.0635 1868.6068,684.6745 1867.1802,686.7885 C 1866.4582,687.8555 1865.0937,688.5895 1863.9500,689.0895 C 1862.1484,689.8775 1861.1701,689.0835 1859.8876,687.8915 C 1859.2962,687.3405 1854.7512,682.3705 1856.2752,681.9875 C 1854.9264,682.4625 1854.5102,679.8095 1854.0799,678.6935 C 1853.4690,677.1075 1852.8216,675.2325 1853.3372,673.4915 C 1853.7037,674.1165 1853.8340,674.8535 1853.8422,675.5795 C 1854.0764,673.8445 1853.6806,677.2505 1854.7181,677.3805 C 1854.3949,676.4335 1854.7092,675.3545 1854.3158,674.4285 C 1853.9797,673.6365 1853.2000,673.2085 1853.1706,672.2685 C 1853.1364,674.1095 1852.5869,672.3255 1852.6417,671.9295 C 1852.7697,670.9975 1852.2410,670.7075 1851.8451,669.7025 C 1851.1788,667.9135 1850.6775,666.0465 1850.1017,664.2245 C 1849.8847,663.5385 1846.0743,656.6935 1846.3325,656.3565 C 1843.8646,653.0945 1842.2578,649.1705 1841.5920,645.0825 C 1841.3798,643.6285 1841.2974,642.3035 1840.8783,640.9375 C 1840.5995,640.0315 1840.2873,639.1885 1839.9848,638.2985 C 1839.7569,637.6275 1838.8445,635.9125 1840.0251,636.3405 C 1838.7166,635.8955 1839.1709,634.0475 1838.5320,633.1005 C 1838.1266,632.4985 1835.9728,631.2995 1837.9026,630.9405 C 1836.7390,631.4485 1836.2765,630.1205 1836.0163,629.3065 C 1835.8123,628.6675 1835.6566,628.0035 1835.3825,627.3935 C 1835.1015,626.7685 1834.1141,626.4795 1835.4223,626.3315 C 1834.7959,626.1715 1834.3237,625.2705 1834.3919,624.6495 C 1834.4629,624.0055 1833.7613,623.8075 1833.3135,623.1095 C 1832.2320,621.4235 1831.5979,619.4135 1831.1179,617.4565 C 1830.7836,616.0955 1830.5225,614.6675 1830.6389,613.2275 C 1830.7602,611.7275 1830.0505,610.3265 1829.9282,608.8525 C 1829.8135,607.4715 1829.1189,606.2885 1828.8009,604.9595 C 1828.5928,604.0905 1827.2272,601.2175 1828.6416,601.7785 C 1828.4024,601.4465 1826.5892,598.8765 1828.2902,599.8355 C 1828.0854,598.7815 1826.8481,598.1075 1827.4592,596.8835 C 1827.6866,597.0715 1827.9105,597.2635 1828.1309,597.4595 C 1828.2373,596.8445 1828.0691,596.3405 1827.6274,595.9465 C 1828.7286,595.5365 1828.2704,594.5365 1828.1457,593.7875 C 1828.0209,594.3935 1827.7457,594.9415 1827.2500,595.3715 C 1826.5881,594.1165 1827.1219,591.2915 1828.7063,593.2835 C 1828.4857,592.5775 1825.8728,592.1325 1826.8122,591.1395 C 1827.1398,590.7935 1826.0601,589.3685 1825.9692,588.9275 C 1825.7265,587.7465 1825.8049,586.5805 1826.1779,585.3705 C 1826.7630,583.4785 1828.1187,581.4995 1827.5471,579.5625 C 1827.4731,579.3105 1827.2975,575.9985 1826.1907,577.2255 C 1826.6167,576.3575 1826.4223,576.3325 1825.6065,577.1535 C 1826.6232,576.0955 1825.0889,575.7745 1825.4344,574.9945 C 1825.6594,574.4885 1825.8576,573.9465 1825.9910,573.4195 C 1826.1866,572.6515 1828.8777,572.1675 1829.4626,571.2505 C 1827.3829,572.6655 1823.0576,571.5665 1826.2722,569.4495 C 1825.2087,569.8925 1824.0898,569.1945 1824.9449,568.0825 C 1825.6771,567.1305 1826.5797,568.0985 1827.3236,567.1455 C 1826.2898,567.3985 1824.2187,567.0385 1823.7557,566.0655 C 1823.6396,566.5565 1822.6330,566.7465 1822.6624,566.6415 C 1822.5239,567.1135 1823.2387,567.1895 1823.1808,567.9155 C 1823.1036,568.8935 1822.3624,569.1885 1821.4890,569.4485 C 1821.6533,569.6945 1821.8254,569.9345 1822.0061,570.1695 C 1821.4317,570.0155 1820.9676,570.3495 1820.7456,570.8895 C 1822.7553,571.5185 1823.5111,572.8475 1821.9478,574.7355 C 1821.3939,575.4045 1821.5640,576.3395 1820.5880,576.6865 C 1819.4037,577.1075 1818.3001,577.8525 1817.1989,578.4655 C 1815.2523,579.5485 1813.0276,580.8825 1810.8774,580.1705 C 1808.7088,579.4535 1806.2528,577.3925 1805.1098,575.4985 C 1803.4127,572.6815 1800.6380,570.9115 1798.5677,568.4385 C 1798.0223,567.7875 1796.5093,565.5725 1798.5389,565.2995 C 1799.0925,565.2255 1799.0171,566.2485 1799.4064,566.4665 C 1800.1502,566.8815 1801.6299,566.5525 1801.8713,565.5625 C 1802.5365,566.6275 1806.3159,564.6245 1807.1130,563.9065 C 1807.8046,563.2825 1807.7841,562.3155 1808.3079,561.6025 C 1808.8601,560.8535 1810.1430,560.3505 1809.1931,559.4425 C 1808.6161,559.9505 1809.0476,561.1535 1808.0346,561.0985 C 1806.9412,561.0385 1806.0244,561.2465 1804.9253,561.5985 C 1803.9902,561.8985 1803.5521,562.7225 1802.5264,562.6745 C 1801.2766,562.6155 1800.0869,562.0265 1799.0472,561.4705 C 1798.0101,560.9155 1796.8202,560.4325 1795.8980,559.7255 C 1795.1621,559.1615 1795.2441,557.7595 1794.3341,557.4295 C 1791.2566,556.3055 1795.2265,553.8965 1796.2427,553.1795 C 1794.5599,552.9915 1793.1336,556.1645 1791.5215,555.4105 C 1791.8960,554.9145 1791.9699,554.4105 1791.7478,553.8935"
       id="path5490" />
  </g>
  
  
  
  
  
  
  
  
  
  
  
  
  
  
  
  
  
  
  
  
  
  
  
  
  
  
  
  
  
  
  
  
  
  
  
  
  
  
  
  
  
  
  
  
  
  
  
  
  
  
  
  
  
  
  
  
  
  
  
  
  
  
  
  
  
  
  
  
  
  
  
  
  
  
  
  
  
  
  
  
  
  
  
  
  
  
  
  
  
  
  
  
  
  
  
  
  
  
  
  
  
  
  
  
  
  
  
  
  
  
  
  
  
  
  
  
  
  
  
  
  
  
  
  
  
  
  
  
  
  
  
  
  
  
  
</svg>
