<?xml version="1.0" encoding="UTF-8" standalone="no"?>
<svg
   xmlns:dc="http://purl.org/dc/elements/1.1/"
   xmlns:cc="http://web.resource.org/cc/"
   xmlns:rdf="http://www.w3.org/1999/02/22-rdf-syntax-ns#"
   xmlns:svg="http://www.w3.org/2000/svg"
   xmlns="http://www.w3.org/2000/svg"
   xmlns:sodipodi="http://sodipodi.sourceforge.net/DTD/sodipodi-0.dtd"
   xmlns:inkscape="http://www.inkscape.org/namespaces/inkscape"
   viewBox="0 0 2752.766 1537.631"
   version="1.0"
   height="476.7276"
   width="939.74725"
   id="svg1926"
   sodipodi:version="0.32"
   inkscape:version="0.45.1"
   sodipodi:docname="BlankMap-World6.svg"
   sodipodi:docbase="/home/bennett/Desktop"
   inkscape:output_extension="org.inkscape.output.svg.inkscape">
  <sodipodi:namedview
     inkscape:window-height="590"
     inkscape:window-width="822"
     inkscape:pageshadow="2"
     inkscape:pageopacity="0.0"
     guidetolerance="10.0"
     gridtolerance="10.0"
     objecttolerance="10.0"
     borderopacity="1.0"
     bordercolor="#666666"
     pagecolor="#ffffff"
     id="base"
     inkscape:zoom="0.77893284"
     inkscape:cx="469.87363"
     inkscape:cy="238.3638"
     inkscape:window-x="178"
     inkscape:window-y="46"
     inkscape:current-layer="svg1926" />
  <metadata
     id="metadata24111">
    <rdf:RDF>
      <cc:Work
         rdf:about="">
        <dc:format>image/svg+xml</dc:format>
        <dc:type
           rdf:resource="http://purl.org/dc/dcmitype/StillImage" />
        <cc:license
           rdf:resource="http://web.resource.org/cc/PublicDomain" />
        <dc:title>Blank World Map</dc:title>
      </cc:Work>
      <cc:License
         rdf:about="http://web.resource.org/cc/PublicDomain">
        <cc:permits
           rdf:resource="http://web.resource.org/cc/Reproduction" />
        <cc:permits
           rdf:resource="http://web.resource.org/cc/Distribution" />
        <cc:permits
           rdf:resource="http://web.resource.org/cc/DerivativeWorks" />
      </cc:License>
    </rdf:RDF>
  </metadata>
  <defs
     id="defs1930" />
  <style
     type="text/css"
     id="style_css_sheet">
/*
 * Below are Cascading Style Sheet (CSS) definitions in use in this file,
 * which allow easily changing how countries are displayed.
 *
 */

/*
 * Circles around small countries
 *
 * Change opacity to 1 to display all circles.
 *
 */
.circle
{
   opacity:0;
   fill:#b9b9b9;
   fill-opacity:1;
   stroke:black;
   stroke-width:0.99986893;
   stroke-miterlimit:3.97446823;
   stroke-dasharray:none;
   stroke-opacity:1;
}

/*
 * Land
 */
.land
{
   fill: #b9b9b9;
   fill-opacity: 1;
   stroke: #ffffff;
   stroke-opacity: 1;
   stroke-width: 0.99986997;
   stroke-miterlimit: 3.97446823;
   stroke-dasharray: none;
}

/*
 * Additional style rules
 *
 * The following are examples of colouring countries.  You can substitute these with your own styles to colour the countries on the map.
 *
 * Color a few countries:
 *
 * .gb, .au, .nc
 * {
 *    fill:       #ff0000;
 * }
 *
 * Color a few small country circles (and the countries):
 *
 * .ms, .ky
 * {
 *    opacity:    1;
 *    fill:       #ff0000;
 * }
 *
 */

/*
 * Antarctica
 */

.aq
{
   fill:#e6e6e6;
}

/*
 * Sea
 */

.ocean
{
   opacity: 1;
   color: #000000;
   fill:white;
   fill-opacity:1;
   fill-rule:nonzero;
   stroke:#000000;
   stroke-width:0.5;
   stroke-linecap:butt;
   stroke-linejoin:miter;
   marker:none;
   marker-start:none;
   marker-mid:none;
   marker-end:none;
   stroke-miterlimit:1;
   stroke-dasharray:none;
   stroke-dashoffset:0;
   stroke-opacity:1;
   visibility:visible;
   display:inline;
   overflow:visible;
}

.lake
{
   fill:#ffffff;
   fill-opacity:1;
   stroke:#ffffff;
   stroke-opacity:1;
   stroke-width:0.99986997;
   stroke-miterlimit:3.97446823;
   stroke-dasharray:none;
}
</style>
  
  
  
  
  
  
  
  
  
  
  
  
  
  
  
  
  
  
  
  
  
  
  
  
  
  
  
  
  
  
  
  
  
  
  
  
  
  
  
  
  
  
  
  
  
  
  
  
  
  
  
  
  
  
  <path
     class="land iq"
     d="M 1566.9996,470.8055 C 1571.8164,468.7014 1576.1087,466.6023 1580.1390,463.7516 C 1581.4557,462.8215 1583.0579,462.1585 1584.1444,460.9336 C 1585.7099,459.1685 1585.2791,457.4525 1585.4650,455.4545 C 1585.6227,453.7586 1587.2878,450.9395 1586.5949,449.4336 C 1585.9590,448.0555 1585.0474,445.3025 1586.6763,443.8786 C 1587.8120,442.8856 1589.5682,443.2625 1590.8465,442.2255 C 1591.8543,441.4155 1593.8557,440.0786 1594.1505,438.8145 C 1594.2691,438.3025 1594.7806,438.4975 1595.3556,438.3406 C 1596.3055,438.0826 1596.4026,437.2436 1596.9145,436.5736 C 1597.4073,435.9275 1601.4275,436.6245 1602.2353,436.8435 C 1602.9377,437.0335 1603.5853,437.3365 1604.3092,437.4796 C 1605.4992,437.7156 1605.9716,436.9706 1607.0633,436.7915 C 1609.5953,436.3766 1607.4516,439.6236 1609.0455,439.4826 C 1610.1673,439.3825 1610.8760,437.9216 1612.0902,437.9645 C 1613.6313,438.0186 1613.0109,440.3766 1613.5633,441.2276 C 1613.8248,441.6316 1614.4166,441.5605 1614.6111,442.0666 C 1614.8565,442.6846 1614.6122,443.4045 1615.0242,443.9715 C 1615.8286,445.0775 1618.0021,446.3086 1616.9213,448.1266 C 1618.6803,447.7625 1618.7591,448.7486 1619.9639,449.4226 C 1620.5922,449.7745 1623.8323,449.8446 1624.6160,449.6386 C 1624.1844,450.7625 1622.7846,450.4515 1622.1676,451.3206 C 1621.1245,452.7885 1623.4323,453.9305 1623.3868,455.2645 C 1623.3252,457.0256 1621.3062,455.0895 1621.1297,456.8745 C 1621.0492,457.6785 1619.8714,457.5935 1619.5339,458.3505 C 1619.1524,459.2065 1619.7868,459.7935 1619.8357,460.5826 C 1619.2603,460.5795 1618.7463,460.4355 1618.2947,460.1495 C 1618.0654,460.8705 1617.4146,461.3435 1617.9590,462.0236 C 1618.5157,462.7115 1618.9176,463.0215 1618.4964,464.0005 C 1618.0555,465.0265 1617.0987,465.2785 1617.9410,466.0736 C 1618.6621,466.7536 1619.2724,467.5666 1620.1029,468.1356 C 1620.9321,468.7036 1624.9489,472.4776 1622.4361,473.1825 C 1623.2049,473.4755 1622.8869,474.4936 1623.7868,474.3976 C 1624.9413,474.2745 1625.8212,474.8286 1626.6602,475.4155 C 1628.2649,476.5376 1629.6726,478.7695 1631.9677,478.5516 C 1632.9695,478.4556 1634.9860,482.5675 1635.5582,483.3385 C 1636.7067,484.8836 1635.8861,486.0016 1635.2843,487.8206 C 1634.9966,488.6895 1634.4463,491.3836 1635.7820,491.4755 C 1636.2507,491.5086 1637.2269,491.0365 1637.5450,491.4875 C 1637.9557,492.0666 1637.5931,493.3875 1637.6370,494.0926 C 1637.7452,495.8385 1638.8231,496.4216 1639.8277,497.4416 C 1640.5817,498.2076 1640.9976,499.7926 1641.5582,500.6166 C 1640.8765,500.6655 1636.8669,499.8116 1636.8590,499.1035 C 1637.2689,500.3616 1634.6715,499.2516 1633.7745,499.2135 C 1632.4771,499.1596 1631.1662,499.5555 1630.4405,500.7595 C 1628.8683,503.3686 1628.1743,507.9846 1624.2858,508.0895 C 1621.3147,508.1696 1618.0346,507.6316 1615.0717,507.4155 C 1611.2549,507.1365 1609.2988,504.8075 1606.7611,502.5086 C 1604.0228,500.0326 1600.9676,497.8795 1598.1887,495.4325 C 1595.5230,493.0906 1592.8610,490.5915 1589.4730,489.1375 C 1586.0701,487.6775 1583.3502,485.6236 1580.2545,483.7056 C 1577.3116,481.8836 1573.2946,482.2475 1569.9058,481.5376 C 1572.4652,479.5926 1569.3522,480.1476 1568.7963,479.2115 C 1568.6372,478.9925 1568.6386,478.7656 1568.7970,478.5315 C 1569.3840,477.9475 1568.9089,477.3356 1568.6505,476.4835 C 1568.0744,474.5976 1567.4612,472.7255 1566.9996,470.8055"
     id="iq" />
  
  
  
  
  
  
  
  
  
  
  
  
  
  
  
  
  
  
  
  
  
  
  
  
  
  
  
  
  
  
  
  
  
  
  
  
  
  
  
  
  
  
  
  
  
  
  
  
  
  
  
  
  
  
  
  
  
  
  
  
  
  
  
  
  
  
  
  
  
  
  
  
  
  
  
  
  
  
  
  
  
  
  
  
  
  
  
  
  
  
  
  
  
  
  
  
  
  
  
  
  
  
  
  
  
  
  
  
  
  
  
  
  
  
  
  
  
  
  
  
  
  
  
  
  
  
  
  
  
  
  
  
  
  
  
  
  
  
  
  
  
  
  
  
  
  
  
  
  
  
  
  
  
  
  
  
  
  
  
  
  
  
  
  
  
  
  
  
  
  
  
  
  
  
  
  
  
</svg>
