<?xml version="1.0" encoding="UTF-8" standalone="no"?>
<svg
   xmlns:dc="http://purl.org/dc/elements/1.1/"
   xmlns:cc="http://web.resource.org/cc/"
   xmlns:rdf="http://www.w3.org/1999/02/22-rdf-syntax-ns#"
   xmlns:svg="http://www.w3.org/2000/svg"
   xmlns="http://www.w3.org/2000/svg"
   xmlns:sodipodi="http://sodipodi.sourceforge.net/DTD/sodipodi-0.dtd"
   xmlns:inkscape="http://www.inkscape.org/namespaces/inkscape"
   viewBox="0 0 2752.766 1537.631"
   version="1.0"
   height="476.7276"
   width="939.74725"
   id="svg1926"
   sodipodi:version="0.32"
   inkscape:version="0.45.1"
   sodipodi:docname="BlankMap-World6.svg"
   sodipodi:docbase="/home/bennett/Desktop"
   inkscape:output_extension="org.inkscape.output.svg.inkscape">
  <sodipodi:namedview
     inkscape:window-height="590"
     inkscape:window-width="822"
     inkscape:pageshadow="2"
     inkscape:pageopacity="0.0"
     guidetolerance="10.0"
     gridtolerance="10.0"
     objecttolerance="10.0"
     borderopacity="1.0"
     bordercolor="#666666"
     pagecolor="#ffffff"
     id="base"
     inkscape:zoom="0.77893284"
     inkscape:cx="469.87363"
     inkscape:cy="238.3638"
     inkscape:window-x="178"
     inkscape:window-y="46"
     inkscape:current-layer="svg1926" />
  <metadata
     id="metadata24111">
    <rdf:RDF>
      <cc:Work
         rdf:about="">
        <dc:format>image/svg+xml</dc:format>
        <dc:type
           rdf:resource="http://purl.org/dc/dcmitype/StillImage" />
        <cc:license
           rdf:resource="http://web.resource.org/cc/PublicDomain" />
        <dc:title>Blank World Map</dc:title>
      </cc:Work>
      <cc:License
         rdf:about="http://web.resource.org/cc/PublicDomain">
        <cc:permits
           rdf:resource="http://web.resource.org/cc/Reproduction" />
        <cc:permits
           rdf:resource="http://web.resource.org/cc/Distribution" />
        <cc:permits
           rdf:resource="http://web.resource.org/cc/DerivativeWorks" />
      </cc:License>
    </rdf:RDF>
  </metadata>
  <defs
     id="defs1930" />
  <style
     type="text/css"
     id="style_css_sheet">
/*
 * Below are Cascading Style Sheet (CSS) definitions in use in this file,
 * which allow easily changing how countries are displayed.
 *
 */

/*
 * Circles around small countries
 *
 * Change opacity to 1 to display all circles.
 *
 */
.circle
{
   opacity:0;
   fill:#b9b9b9;
   fill-opacity:1;
   stroke:black;
   stroke-width:0.99986893;
   stroke-miterlimit:3.97446823;
   stroke-dasharray:none;
   stroke-opacity:1;
}

/*
 * Land
 */
.land
{
   fill: #b9b9b9;
   fill-opacity: 1;
   stroke: #ffffff;
   stroke-opacity: 1;
   stroke-width: 0.99986997;
   stroke-miterlimit: 3.97446823;
   stroke-dasharray: none;
}

/*
 * Additional style rules
 *
 * The following are examples of colouring countries.  You can substitute these with your own styles to colour the countries on the map.
 *
 * Color a few countries:
 *
 * .gb, .au, .nc
 * {
 *    fill:       #ff0000;
 * }
 *
 * Color a few small country circles (and the countries):
 *
 * .ms, .ky
 * {
 *    opacity:    1;
 *    fill:       #ff0000;
 * }
 *
 */

/*
 * Antarctica
 */

.aq
{
   fill:#e6e6e6;
}

/*
 * Sea
 */

.ocean
{
   opacity: 1;
   color: #000000;
   fill:white;
   fill-opacity:1;
   fill-rule:nonzero;
   stroke:#000000;
   stroke-width:0.5;
   stroke-linecap:butt;
   stroke-linejoin:miter;
   marker:none;
   marker-start:none;
   marker-mid:none;
   marker-end:none;
   stroke-miterlimit:1;
   stroke-dasharray:none;
   stroke-dashoffset:0;
   stroke-opacity:1;
   visibility:visible;
   display:inline;
   overflow:visible;
}

.lake
{
   fill:#ffffff;
   fill-opacity:1;
   stroke:#ffffff;
   stroke-opacity:1;
   stroke-width:0.99986997;
   stroke-miterlimit:3.97446823;
   stroke-dasharray:none;
}
</style>
  
  
  
  
  
  
  
  
  
  
  
  
  
  
  
  
  
  
  
  
  
  
  
  
  
  
  
  
  
  
  
  
  
  
  
  
  
  
  
  
  
  
  
  
  
  
  
  
  
  
  
  
  
  
  
  
  
  
  
  
  
  
  
  
  
  
  
  
  
  
  
  
  
  
  
  
  
  
  
  
  
  
  
  
  
  
  
  
  
  
  
  
  
  
  
  
  
  
  
  
  
  
  
  
  
  
  
  
  
  
  
  
  
  
  
  
  
  
  
  
  
  
  
  
  
  
  
  <path
     class="land is"
     d="M 1087.7122,205.0536 C 1089.0857,205.0146 1090.9674,204.6995 1092.2663,204.4776 C 1092.9822,204.3555 1092.3914,203.4546 1093.5371,203.9035 C 1095.0809,204.5095 1095.5070,202.6875 1096.3077,204.3336 C 1096.9355,204.1175 1097.5122,203.8536 1098.0406,203.5416 C 1098.5665,204.6316 1100.2737,204.3435 1101.0476,203.6856 C 1100.5695,204.0575 1099.9990,204.3456 1099.3372,204.5496 C 1100.4371,205.1105 1100.5025,204.4786 1101.1598,204.2415 C 1101.6047,204.0815 1103.4274,204.9135 1104.3514,204.6926 C 1102.0260,205.1486 1099.3962,205.5985 1097.9047,206.9246 C 1098.8883,206.8665 1099.9367,207.1376 1100.9484,207.2125 C 1101.9665,207.2876 1102.7814,206.8445 1103.8647,207.1405 C 1102.6765,209.6386 1094.9343,206.1935 1093.6095,208.7245 C 1092.9052,207.4046 1092.5389,208.4265 1091.6145,208.6026 C 1090.5037,208.8145 1089.2440,208.7245 1088.0371,208.7245 C 1085.5944,208.7245 1087.6463,210.5455 1089.2506,210.0525 C 1090.9640,209.5275 1092.0826,209.4155 1094.2550,209.5836 C 1095.2934,209.6635 1096.2582,209.6345 1097.2703,209.6345 C 1098.2929,209.6345 1099.8632,210.6266 1100.6594,210.1645 C 1099.9707,210.3336 1099.4339,210.7406 1099.3635,211.3156 C 1100.1152,211.4035 1100.6769,211.7655 1100.9166,212.3236 C 1101.9928,211.4555 1103.9220,210.8195 1105.7037,210.8116 C 1105.4466,211.3925 1104.3704,211.4416 1103.6554,211.5726 C 1102.7995,211.7286 1101.1198,213.2696 1103.2557,212.8276 C 1102.5265,212.8586 1101.9316,213.0505 1101.4701,213.4035 C 1103.2747,213.6906 1104.2087,212.3236 1106.1056,212.8996 C 1105.2638,212.9826 1101.3295,213.7216 1104.0730,214.4836 C 1103.3767,214.6055 1102.4916,214.3205 1101.8510,214.5556 C 1102.3915,215.7365 1101.0565,215.4416 1099.8615,215.6355 C 1099.3716,215.9246 1098.8106,215.9615 1098.1776,215.7456 C 1097.9180,215.5356 1097.6226,215.3785 1097.2896,215.2765 C 1096.2057,215.5846 1096.6925,216.5335 1096.8506,217.2926 C 1098.9898,217.2055 1101.6204,217.1866 1103.6414,216.8605 C 1104.6204,216.7026 1105.7631,217.0246 1106.7761,216.9505 C 1107.9042,216.8696 1108.0629,216.0066 1109.4346,216.2125 C 1109.3258,216.4656 1109.2492,216.7295 1109.2075,217.0045 C 1109.8087,217.0815 1111.0394,217.5656 1111.4961,217.2156 C 1112.3402,216.5716 1113.1951,217.7005 1111.5526,217.5805 C 1112.7560,218.1436 1113.6859,217.5215 1114.2708,217.0045 C 1114.6063,217.2686 1114.8867,217.5565 1115.1148,217.8685 C 1114.6851,217.9155 1114.2698,217.9875 1113.8703,218.0846 C 1115.3936,219.6556 1117.3923,219.1376 1119.2952,219.3876 C 1121.5684,219.6866 1123.7129,220.3015 1125.9753,220.3766 C 1127.6892,220.4335 1129.4143,220.3936 1130.9923,220.1036 C 1131.7092,219.9716 1132.4102,219.7845 1132.9887,219.4776 C 1134.4221,218.7185 1132.4957,218.7106 1134.0677,218.3725 C 1131.6075,218.0115 1136.1697,217.7055 1136.8947,217.6765 C 1138.1680,217.6235 1140.4893,217.6295 1140.6299,216.4286 C 1141.2673,218.2655 1144.7480,216.3296 1145.8488,215.8416 C 1147.9538,214.9106 1150.2230,214.2315 1152.2497,213.2286 C 1153.4377,212.6425 1155.1220,213.9875 1156.4451,213.5736 C 1157.1785,213.3435 1161.3607,211.3615 1158.9196,211.2435 C 1159.5329,210.5426 1161.6081,210.9226 1160.0491,209.8046 C 1161.6634,211.2605 1162.8348,209.5006 1164.4527,209.6595 C 1162.4855,208.9745 1165.8796,208.7555 1163.3523,208.7235 C 1164.0392,208.7586 1164.6926,208.7106 1165.3153,208.5796 C 1164.3135,208.2976 1163.3100,207.9766 1162.2817,207.8596 C 1163.7423,206.9956 1165.8092,209.0726 1166.9990,207.5616 C 1167.7520,206.6096 1164.3923,206.6345 1163.8590,206.6345 C 1164.8359,206.5585 1165.8724,206.5745 1166.5621,206.0585 C 1165.4843,205.8656 1164.4143,205.8826 1163.3989,205.9865 C 1164.3947,205.8276 1166.5110,205.2175 1165.8633,204.1156 C 1164.7929,204.3865 1163.3540,203.5565 1162.2428,203.3946 C 1160.7158,203.1715 1159.9366,203.7336 1158.9659,204.3315 C 1159.5763,203.7046 1161.3049,203.2725 1160.6863,202.1715 C 1159.3480,202.2396 1158.1230,202.5505 1156.7777,202.6036 C 1156.8436,201.8286 1158.2907,201.6386 1158.4795,200.9066 C 1158.6560,200.2255 1155.2239,200.0906 1154.5953,199.5086 C 1155.7913,199.5525 1155.5585,199.2636 1155.6338,198.6285 C 1155.7212,197.8836 1157.9312,197.9615 1158.6381,197.7096 C 1156.8795,197.9766 1152.8233,197.7406 1152.6754,199.5095 C 1151.9054,199.0476 1149.9548,198.6115 1150.0752,197.8526 C 1150.2634,196.6425 1146.6857,196.5416 1146.0232,196.8245 C 1145.3602,197.1086 1143.6112,196.4155 1144.2199,197.5165 C 1144.9846,198.9226 1143.3619,198.8625 1143.4717,199.8706 C 1143.0718,199.6065 1139.7671,198.8975 1139.2652,198.9335 C 1137.6152,199.0536 1137.1466,200.5625 1136.1100,201.2375 C 1135.4114,200.3836 1131.0786,198.1955 1130.2554,199.4335 C 1130.0077,199.8085 1130.6044,200.6256 1131.0870,200.9195 C 1132.1895,201.5945 1132.1622,202.4385 1132.1242,203.2535 C 1130.3560,201.9406 1128.4754,198.6436 1125.5883,199.1496 C 1124.7549,199.2955 1124.8478,199.9265 1124.2328,200.0345 C 1123.5057,200.1626 1122.6793,199.7705 1121.9900,200.0505 C 1121.0277,200.4416 1122.3398,201.7765 1121.6945,202.4025 C 1120.6233,203.4445 1117.5649,200.2065 1116.5360,199.7305 C 1114.7202,198.8925 1114.0454,200.4975 1114.8189,201.4646 C 1115.4501,202.2566 1115.0287,204.6856 1113.8422,203.6856 C 1114.1425,205.4735 1112.5140,203.3315 1111.6553,203.2106 C 1109.3224,202.8855 1110.7443,206.4615 1109.0268,204.6926 C 1109.3619,205.5026 1108.6239,206.1005 1109.1098,206.9246 C 1108.2358,205.9075 1108.1250,204.0095 1106.0617,204.6926 C 1108.9872,204.3216 1104.3482,203.0465 1103.9868,202.2446 C 1107.0848,204.4286 1108.1625,200.3915 1105.5006,200.8056 C 1107.1684,200.3425 1105.8554,200.1715 1104.9938,199.9855 C 1103.8081,199.7305 1103.9465,199.2365 1102.9432,198.7675 C 1101.9025,198.2825 1100.7260,198.6486 1099.8876,197.8245 C 1099.4869,197.4306 1098.1293,197.1305 1097.5689,197.0616 C 1097.1458,197.0095 1092.9599,197.5745 1093.9357,197.9786 C 1095.2855,198.5395 1097.6606,198.6486 1098.9695,198.5736 C 1097.7821,198.8305 1095.6960,198.1945 1095.2869,199.2945 C 1096.1698,199.5726 1098.2298,199.7926 1098.6902,200.6285 C 1099.0101,201.2096 1097.3253,201.4296 1097.1653,201.8865 C 1098.2515,200.1386 1096.3030,200.4106 1095.0107,200.9505 C 1095.3151,200.0896 1095.0192,199.9695 1094.1234,200.5906 C 1094.2528,200.3605 1094.3589,200.1206 1094.4388,199.8706 C 1093.5167,199.5436 1092.5281,199.1895 1091.5710,199.1065 C 1090.8106,199.0405 1089.0531,199.3915 1091.2404,199.7976 C 1090.0383,200.0146 1090.1426,200.3015 1091.5524,200.6606 C 1090.5311,200.2526 1089.4785,200.1606 1088.4403,200.0136 C 1088.4358,201.3075 1090.7795,201.3116 1091.9172,201.6695 C 1090.6797,201.5786 1088.5921,200.8876 1088.0747,201.8855 C 1089.4977,202.4265 1090.8130,202.2456 1092.2295,202.5335 C 1091.5621,202.5606 1090.9205,202.6326 1090.3033,202.7495 C 1090.8823,202.9476 1091.4573,203.0436 1092.0269,203.0376 C 1090.5292,203.9915 1087.6574,201.8096 1085.8422,202.3166 C 1086.2823,202.8416 1086.9993,203.2485 1087.7674,203.3965 C 1086.5520,203.5596 1086.6408,203.7996 1088.0329,204.1175 C 1086.3168,203.7586 1083.9451,202.8986 1083.4641,204.4046 C 1084.8651,204.4046 1086.2781,204.3795 1087.7122,205.0536"
     id="is" />
  
  
  
  
  
  
  
  
  
  
  
  
  
  
  
  
  
  
  
  
  
  
  
  
  
  
  
  
  
  
  
  
  
  
  
  
  
  
  
  
  
  
  
  
  
  
  
  
  
  
  
  
  
  
  
  
  
  
  
  
  
  
  
  
  
  
  
  
  
  
  
  
  
  
  
  
  
  
  
  
  
  
  
  
  
  
  
  
  
  
  
  
  
  
  
  
  
  
  
  
  
  
  
  
</svg>
