<?xml version="1.0" encoding="UTF-8" standalone="no"?>
<svg
   xmlns:dc="http://purl.org/dc/elements/1.1/"
   xmlns:cc="http://web.resource.org/cc/"
   xmlns:rdf="http://www.w3.org/1999/02/22-rdf-syntax-ns#"
   xmlns:svg="http://www.w3.org/2000/svg"
   xmlns="http://www.w3.org/2000/svg"
   xmlns:sodipodi="http://sodipodi.sourceforge.net/DTD/sodipodi-0.dtd"
   xmlns:inkscape="http://www.inkscape.org/namespaces/inkscape"
   viewBox="0 0 2752.766 1537.631"
   version="1.0"
   height="476.7276"
   width="939.74725"
   id="svg1926"
   sodipodi:version="0.32"
   inkscape:version="0.45.1"
   sodipodi:docname="BlankMap-World6.svg"
   sodipodi:docbase="/home/bennett/Desktop"
   inkscape:output_extension="org.inkscape.output.svg.inkscape">
  <sodipodi:namedview
     inkscape:window-height="590"
     inkscape:window-width="822"
     inkscape:pageshadow="2"
     inkscape:pageopacity="0.0"
     guidetolerance="10.0"
     gridtolerance="10.0"
     objecttolerance="10.0"
     borderopacity="1.0"
     bordercolor="#666666"
     pagecolor="#ffffff"
     id="base"
     inkscape:zoom="0.77893284"
     inkscape:cx="469.87363"
     inkscape:cy="238.3638"
     inkscape:window-x="178"
     inkscape:window-y="46"
     inkscape:current-layer="svg1926" />
  <metadata
     id="metadata24111">
    <rdf:RDF>
      <cc:Work
         rdf:about="">
        <dc:format>image/svg+xml</dc:format>
        <dc:type
           rdf:resource="http://purl.org/dc/dcmitype/StillImage" />
        <cc:license
           rdf:resource="http://web.resource.org/cc/PublicDomain" />
        <dc:title>Blank World Map</dc:title>
      </cc:Work>
      <cc:License
         rdf:about="http://web.resource.org/cc/PublicDomain">
        <cc:permits
           rdf:resource="http://web.resource.org/cc/Reproduction" />
        <cc:permits
           rdf:resource="http://web.resource.org/cc/Distribution" />
        <cc:permits
           rdf:resource="http://web.resource.org/cc/DerivativeWorks" />
      </cc:License>
    </rdf:RDF>
  </metadata>
  <defs
     id="defs1930" />
  <style
     type="text/css"
     id="style_css_sheet">
/*
 * Below are Cascading Style Sheet (CSS) definitions in use in this file,
 * which allow easily changing how countries are displayed.
 *
 */

/*
 * Circles around small countries
 *
 * Change opacity to 1 to display all circles.
 *
 */
.circle
{
   opacity:0;
   fill:#b9b9b9;
   fill-opacity:1;
   stroke:black;
   stroke-width:0.99986893;
   stroke-miterlimit:3.97446823;
   stroke-dasharray:none;
   stroke-opacity:1;
}

/*
 * Land
 */
.land
{
   fill: #b9b9b9;
   fill-opacity: 1;
   stroke: #ffffff;
   stroke-opacity: 1;
   stroke-width: 0.99986997;
   stroke-miterlimit: 3.97446823;
   stroke-dasharray: none;
}

/*
 * Additional style rules
 *
 * The following are examples of colouring countries.  You can substitute these with your own styles to colour the countries on the map.
 *
 * Color a few countries:
 *
 * .gb, .au, .nc
 * {
 *    fill:       #ff0000;
 * }
 *
 * Color a few small country circles (and the countries):
 *
 * .ms, .ky
 * {
 *    opacity:    1;
 *    fill:       #ff0000;
 * }
 *
 */

/*
 * Antarctica
 */

.aq
{
   fill:#e6e6e6;
}

/*
 * Sea
 */

.ocean
{
   opacity: 1;
   color: #000000;
   fill:white;
   fill-opacity:1;
   fill-rule:nonzero;
   stroke:#000000;
   stroke-width:0.5;
   stroke-linecap:butt;
   stroke-linejoin:miter;
   marker:none;
   marker-start:none;
   marker-mid:none;
   marker-end:none;
   stroke-miterlimit:1;
   stroke-dasharray:none;
   stroke-dashoffset:0;
   stroke-opacity:1;
   visibility:visible;
   display:inline;
   overflow:visible;
}

.lake
{
   fill:#ffffff;
   fill-opacity:1;
   stroke:#ffffff;
   stroke-opacity:1;
   stroke-width:0.99986997;
   stroke-miterlimit:3.97446823;
   stroke-dasharray:none;
}
</style>
  
  
  
  
  
  
  
  
  
  
  
  
  
  
  
  
  
  
  
  
  
  
  
  
  
  
  
  
  
  <g
     class="land it"
     id="it">
    <path
       d="M 1362.1797,441.7175 C 1362.0001,441.4775 1361.8204,441.2385 1361.6407,440.9975 C 1362.4580,440.9035 1362.6376,441.1435 1362.1797,441.7175"
       id="path2916" />
    <path
       d="M 1321.0555,369.9335 C 1322.1635,368.8585 1325.1529,369.7665 1324.9779,367.5295 C 1324.9073,366.6275 1324.0383,365.8755 1323.3858,365.2575 C 1323.0317,364.9385 1322.7006,364.6015 1322.3927,364.2465 C 1322.7312,363.9935 1323.7758,362.9065 1324.3144,363.0335 C 1325.3305,363.2735 1325.7434,363.2045 1326.8246,362.8675 C 1328.1836,362.4435 1328.8347,362.7725 1330.1389,362.8595 C 1330.9960,362.9165 1332.0926,361.9015 1332.4737,361.3095 C 1332.7836,360.8555 1332.7453,360.4175 1332.3584,359.9975 C 1333.2852,359.7755 1333.9573,359.1265 1334.5265,358.4845 C 1335.4683,359.0635 1334.7104,359.8805 1335.5429,360.5575 C 1336.2750,361.1535 1337.0635,361.5505 1337.7164,362.2285 C 1338.0262,362.5505 1338.7289,364.1745 1339.4213,363.8845 C 1340.1678,363.5715 1339.3973,361.8135 1340.1309,361.1775 C 1340.9660,360.4535 1341.5705,360.0745 1341.4151,358.9665 C 1341.1817,357.3075 1342.2753,358.3965 1342.8026,358.8445 C 1343.7231,359.6265 1343.7712,359.4995 1344.9085,359.3485 C 1346.4241,359.1465 1346.5123,359.9895 1347.7438,360.4285 C 1347.8633,359.7695 1348.4355,359.1035 1347.4912,358.7215 C 1346.6456,358.3795 1347.7678,357.1405 1348.3089,357.0445 C 1348.8445,356.9495 1349.4532,357.6675 1349.9498,357.7885 C 1351.0430,358.0555 1350.2141,356.0005 1350.2430,355.6665 C 1350.3637,354.2415 1352.6160,355.3755 1353.4337,355.7475 C 1354.5064,356.2365 1355.2678,354.8715 1355.9010,354.3695 C 1356.7471,353.7005 1358.0699,353.8905 1359.0908,353.9435 C 1360.7462,354.0305 1362.3455,352.9315 1363.9463,353.2275 C 1362.1591,354.1705 1365.5723,356.6271 1366.5662,356.9081 C 1369.5536,357.7521 1370.8652,357.0950 1373.8464,357.8680 C 1373.7020,358.8750 1373.3804,359.1605 1372.8516,359.9965 C 1373.5155,360.3335 1374.1784,360.7095 1374.9376,360.8605 C 1374.2768,361.5365 1372.8788,362.5115 1374.6612,362.8765 C 1373.8096,363.8405 1374.8848,364.0305 1375.6610,364.4045 C 1376.6787,364.8955 1376.8853,366.0925 1375.3208,365.7565 C 1376.4928,363.6795 1373.4180,364.8455 1372.8360,365.0365 C 1372.6182,363.6035 1370.6438,364.9085 1370.0714,365.2265 C 1369.4440,365.5755 1368.7892,365.8985 1368.1296,366.1925 C 1367.6923,366.3875 1363.9925,367.4515 1366.2836,366.4025 C 1365.6707,366.5155 1364.8555,366.4415 1364.3413,366.8355 C 1363.9775,367.1145 1364.1337,368.2655 1363.4420,368.1315 C 1363.4314,368.4645 1364.7828,370.1755 1364.9153,370.2085 C 1366.9483,370.7105 1365.6229,373.3635 1364.4434,372.1635 C 1362.0769,375.8495 1367.2368,379.3515 1370.0115,380.9625 C 1371.3674,381.7515 1373.5729,382.3065 1374.5084,383.5435 C 1375.8715,385.3445 1376.5625,387.7135 1377.3378,389.7685 C 1378.3296,392.4065 1382.0763,395.1055 1384.7559,396.2395 C 1386.7368,397.0795 1387.7960,397.3385 1390.0306,397.0665 C 1390.8654,396.9655 1394.5531,396.4725 1394.0427,398.2115 C 1393.7995,399.0415 1391.1780,399.8135 1392.0976,400.8285 C 1393.0887,401.9235 1395.7830,402.5465 1397.1603,403.0005 C 1399.3553,403.7255 1401.3261,404.4425 1403.1370,405.7965 C 1404.9811,407.1775 1407.2850,407.5875 1409.0733,409.1125 C 1410.2740,410.1375 1411.8823,411.2115 1411.5119,412.9195 C 1411.4274,413.3075 1411.2765,415.0535 1410.6422,415.1115 C 1409.7785,415.1905 1408.7302,414.7185 1408.2973,414.0285 C 1407.3511,412.5225 1407.4764,410.7785 1404.9962,411.0075 C 1403.0049,411.1915 1402.6421,409.9985 1402.3860,409.3155 C 1400.2790,409.6405 1399.8195,409.6215 1398.4464,411.4135 C 1397.5979,412.5245 1396.9649,413.9185 1396.6299,415.2335 C 1396.2467,416.7405 1398.3172,417.1075 1399.4295,417.5855 C 1401.2143,418.3525 1401.5046,419.5455 1401.6301,421.2335 C 1401.8414,424.0835 1396.5789,422.0345 1396.9827,425.4755 C 1397.1797,427.1585 1396.6861,427.2905 1395.4988,428.4335 C 1394.4962,429.4015 1393.7081,430.5955 1392.5228,431.3895 C 1391.4096,432.1365 1390.4949,431.7165 1389.9718,430.6275 C 1389.1753,428.9695 1391.7840,428.2005 1391.9528,426.6925 C 1392.0096,426.1805 1391.7566,425.5635 1392.1495,425.1065 C 1392.8050,424.3425 1394.0393,424.9135 1394.4046,423.9305 C 1394.7228,423.0745 1393.5864,422.1035 1393.3789,421.3215 C 1393.0560,420.1065 1392.9700,419.0385 1392.2885,417.9285 C 1391.4708,416.5985 1391.3936,414.6055 1390.2875,413.4815 C 1389.6273,412.8125 1389.1524,412.9715 1388.5016,413.4605 C 1387.7253,414.0455 1386.9675,412.8575 1386.4752,412.4875 C 1385.9174,412.0695 1384.9930,412.1795 1384.8359,411.3385 C 1384.7071,410.6455 1385.2050,410.4385 1384.8229,409.5865 C 1383.9962,407.7475 1381.7444,407.7045 1380.0782,408.6665 C 1380.9461,407.4875 1380.6979,406.3815 1378.9516,406.5425 C 1377.6509,406.6615 1376.9460,404.9025 1376.4894,404.0805 C 1375.6781,402.6195 1374.6758,403.4695 1373.3180,403.1015 C 1372.5927,402.9055 1371.9180,402.5915 1371.1328,402.7625 C 1369.4885,403.1195 1370.5423,402.9215 1369.4235,402.0765 C 1368.3138,401.2395 1366.8983,401.0095 1365.7952,400.0855 C 1364.5681,399.0605 1363.8564,397.5445 1362.5068,396.6795 C 1361.3345,395.9275 1360.8742,396.1185 1360.0971,394.9445 C 1359.2852,393.7185 1357.1837,392.2785 1355.5677,393.1865 C 1356.4997,391.7795 1352.7440,388.1475 1351.3454,388.3275 C 1351.5108,388.3065 1349.2868,382.5705 1349.2021,382.1975 C 1348.4358,378.8205 1345.8835,379.1975 1343.1849,377.5625 C 1340.3869,375.8715 1336.8297,374.9525 1334.5067,377.6815 C 1333.6833,378.6505 1333.0044,379.7685 1331.7726,380.3705 C 1331.3369,380.5845 1327.9943,381.8975 1327.8448,380.9475 C 1327.6033,379.4105 1331.3439,377.6425 1327.2015,378.0535 C 1324.9671,378.2755 1321.3421,375.8795 1323.7862,373.9115 C 1324.7008,373.1775 1324.5639,372.5895 1323.4107,372.1105 C 1322.0693,371.5585 1322.1288,370.7365 1321.0555,369.9335"
       id="path2906" />
    <path
       d="M 1334.5656,409.9655 C 1334.2894,409.3905 1333.7590,409.0255 1333.3806,408.5205 C 1332.6809,407.5895 1333.2153,406.7175 1333.0491,405.7175 C 1335.1369,407.8635 1337.7759,405.2965 1339.3980,404.0135 C 1339.9875,403.5485 1340.8109,402.7485 1341.6638,403.2425 C 1342.2208,403.5655 1342.6088,404.4265 1343.4046,404.0605 C 1343.1234,404.6195 1343.3610,404.9665 1344.0288,404.9975 C 1343.7728,405.1915 1343.5147,405.3845 1343.2556,405.5745 C 1344.8609,405.5145 1345.5536,408.9395 1345.2130,409.9655 C 1344.9173,410.8595 1343.4638,411.3385 1344.3664,412.3845 C 1345.2603,413.4225 1344.4275,416.0625 1344.3591,417.3145 C 1344.3086,418.2525 1344.3972,420.1945 1343.3898,420.7855 C 1342.4586,421.3315 1340.9010,420.2475 1339.8624,420.3335 C 1339.3232,421.0975 1339.5185,423.2135 1337.9112,422.9645 C 1336.3824,422.7275 1336.3577,423.1035 1335.5907,421.7015 C 1335.3860,421.9425 1335.1781,422.1825 1334.9692,422.4215 C 1334.7097,422.2185 1334.4985,421.9785 1334.3376,421.7015 C 1335.6916,421.4515 1334.8304,420.6675 1334.7773,419.5955 C 1334.7115,418.2765 1334.9068,416.9655 1334.9972,415.6535 C 1335.2597,415.8435 1335.5212,416.0365 1335.7814,416.2295 C 1335.7611,415.7755 1335.9791,415.2975 1335.8244,414.8465 C 1335.6563,414.3565 1334.8635,414.5345 1334.7454,413.9505 C 1334.6385,413.4255 1335.3338,412.7205 1335.3220,412.1175 C 1335.3058,411.3305 1334.3731,410.7045 1334.5656,409.9655"
       id="path2910" />
    <path
       d="M 1350.1109,390.3815 C 1349.3310,389.9475 1348.4023,390.3295 1347.6560,389.8055 C 1348.4570,389.4655 1349.3988,389.5445 1350.1137,389.0135 C 1350.1965,389.4695 1350.1955,389.9255 1350.1109,390.3815"
       id="path2912" />
    <path
       d="M 1368.6427,434.5175 C 1367.6991,434.4895 1366.3419,434.2135 1365.7706,433.4455 C 1364.5277,431.7785 1367.0983,430.5305 1367.6919,429.4775 C 1368.8293,431.0405 1369.5949,430.1475 1370.9329,429.4595 C 1372.9896,428.4045 1374.3985,431.3135 1376.7529,430.8525 C 1378.1020,430.5875 1379.4290,430.7985 1380.7811,430.5725 C 1382.0321,430.3635 1383.2233,429.1805 1384.4356,429.1895 C 1385.5112,429.1985 1385.6987,429.9355 1386.7404,429.2645 C 1387.4160,428.8285 1389.2506,428.0465 1390.0264,428.4695 C 1389.0086,429.6145 1387.9979,430.9775 1387.3411,432.3295 C 1386.8843,433.2715 1385.5463,435.1585 1385.8191,436.1805 C 1386.0570,437.0735 1387.7416,438.4095 1387.1914,439.4185 C 1386.7265,440.2715 1385.5056,440.9135 1386.0955,442.0055 C 1384.8739,442.2715 1383.4117,442.1545 1382.2324,441.8135 C 1380.5717,441.3335 1380.6947,439.4995 1379.0873,438.8805 C 1377.3906,438.2265 1375.5723,438.1385 1373.9259,437.2785 C 1372.2364,436.3995 1370.7283,434.5605 1368.6427,434.5175"
       id="path2920" />
  </g>
  
  
  
  
  
  
  
  
  
  
  
  
  
  
  
  
  
  
  
  
  
  
  
  
  
  
  
  
  
  
  
  
  
  
  
  
  
  
  
  
  
  
  
  
  
  
  
  
  
  
  
  
  
  
  
  
  
  
  
  
  
  
  
  
  
  
  
  
  
  
  
  
  
  
  
  
  
  
  
  
  
  
  
  
  
  
  
  
  
  
  
  
  
  
  
  
  
  
  
  
  
  
  
  
  
  
  
  
  
  
  
  
  
  
  
  
  
  
  
  
  
  
  
  
  
  
  
  
  
  
  
  
  
  
  
  
  
  
  
  
  
  
  
  
  
  
  
  
  
  
  
  
  
  
  
  
  
  
  
  
  
  
  
  
  
  
  
  
  
  
  
  
  
  
  
  
  
  
  
  
  
  
  
  
  
  
  
  
  
  
  
  
  
  
  
  
  
  
  
  
  
  
</svg>
