<?xml version="1.0" encoding="UTF-8" standalone="no"?>
<svg
   xmlns:dc="http://purl.org/dc/elements/1.1/"
   xmlns:cc="http://web.resource.org/cc/"
   xmlns:rdf="http://www.w3.org/1999/02/22-rdf-syntax-ns#"
   xmlns:svg="http://www.w3.org/2000/svg"
   xmlns="http://www.w3.org/2000/svg"
   xmlns:sodipodi="http://sodipodi.sourceforge.net/DTD/sodipodi-0.dtd"
   xmlns:inkscape="http://www.inkscape.org/namespaces/inkscape"
   viewBox="0 0 2752.766 1537.631"
   version="1.0"
   height="476.7276"
   width="939.74725"
   id="svg1926"
   sodipodi:version="0.32"
   inkscape:version="0.45.1"
   sodipodi:docname="BlankMap-World6.svg"
   sodipodi:docbase="/home/bennett/Desktop"
   inkscape:output_extension="org.inkscape.output.svg.inkscape">
  <sodipodi:namedview
     inkscape:window-height="590"
     inkscape:window-width="822"
     inkscape:pageshadow="2"
     inkscape:pageopacity="0.0"
     guidetolerance="10.0"
     gridtolerance="10.0"
     objecttolerance="10.0"
     borderopacity="1.0"
     bordercolor="#666666"
     pagecolor="#ffffff"
     id="base"
     inkscape:zoom="0.77893284"
     inkscape:cx="469.87363"
     inkscape:cy="238.3638"
     inkscape:window-x="178"
     inkscape:window-y="46"
     inkscape:current-layer="svg1926" />
  <metadata
     id="metadata24111">
    <rdf:RDF>
      <cc:Work
         rdf:about="">
        <dc:format>image/svg+xml</dc:format>
        <dc:type
           rdf:resource="http://purl.org/dc/dcmitype/StillImage" />
        <cc:license
           rdf:resource="http://web.resource.org/cc/PublicDomain" />
        <dc:title>Blank World Map</dc:title>
      </cc:Work>
      <cc:License
         rdf:about="http://web.resource.org/cc/PublicDomain">
        <cc:permits
           rdf:resource="http://web.resource.org/cc/Reproduction" />
        <cc:permits
           rdf:resource="http://web.resource.org/cc/Distribution" />
        <cc:permits
           rdf:resource="http://web.resource.org/cc/DerivativeWorks" />
      </cc:License>
    </rdf:RDF>
  </metadata>
  <defs
     id="defs1930" />
  <style
     type="text/css"
     id="style_css_sheet">
/*
 * Below are Cascading Style Sheet (CSS) definitions in use in this file,
 * which allow easily changing how countries are displayed.
 *
 */

/*
 * Circles around small countries
 *
 * Change opacity to 1 to display all circles.
 *
 */
.circle
{
   opacity:0;
   fill:#b9b9b9;
   fill-opacity:1;
   stroke:black;
   stroke-width:0.99986893;
   stroke-miterlimit:3.97446823;
   stroke-dasharray:none;
   stroke-opacity:1;
}

/*
 * Land
 */
.land
{
   fill: #b9b9b9;
   fill-opacity: 1;
   stroke: #ffffff;
   stroke-opacity: 1;
   stroke-width: 0.99986997;
   stroke-miterlimit: 3.97446823;
   stroke-dasharray: none;
}

/*
 * Additional style rules
 *
 * The following are examples of colouring countries.  You can substitute these with your own styles to colour the countries on the map.
 *
 * Color a few countries:
 *
 * .gb, .au, .nc
 * {
 *    fill:       #ff0000;
 * }
 *
 * Color a few small country circles (and the countries):
 *
 * .ms, .ky
 * {
 *    opacity:    1;
 *    fill:       #ff0000;
 * }
 *
 */

/*
 * Antarctica
 */

.aq
{
   fill:#e6e6e6;
}

/*
 * Sea
 */

.ocean
{
   opacity: 1;
   color: #000000;
   fill:white;
   fill-opacity:1;
   fill-rule:nonzero;
   stroke:#000000;
   stroke-width:0.5;
   stroke-linecap:butt;
   stroke-linejoin:miter;
   marker:none;
   marker-start:none;
   marker-mid:none;
   marker-end:none;
   stroke-miterlimit:1;
   stroke-dasharray:none;
   stroke-dashoffset:0;
   stroke-opacity:1;
   visibility:visible;
   display:inline;
   overflow:visible;
}

.lake
{
   fill:#ffffff;
   fill-opacity:1;
   stroke:#ffffff;
   stroke-opacity:1;
   stroke-width:0.99986997;
   stroke-miterlimit:3.97446823;
   stroke-dasharray:none;
}
</style>
  
  
  
  
  
  
  
  
  
  
  
  
  
  
  
  
  
  
  
  
  
  
  
  
  
  
  
  
  
  
  
  
  
  
  
  
  
  
  
  
  
  <g
     class="land jp"
     id="jp">
    <path
       d="M 2216.7486,548.4215 C 2216.4406,548.7745 2216.2135,549.1585 2216.0691,549.5745 C 2216.5710,549.6195 2217.0787,549.5465 2217.5912,549.3565 C 2217.6187,548.8015 2217.3184,548.4615 2216.7486,548.4215"
       id="path3482" />
    <path
       d="M 2219.0258,548.1335 C 2218.9565,548.6715 2219.1985,548.9355 2219.7539,548.9255 C 2220.4760,548.7895 2220.3515,547.8255 2220.4370,547.4135 C 2220.1571,548.0005 2219.5984,548.2985 2219.0258,548.1335"
       id="path3484" />
    <path
       d="M 2228.2380,544.3895 C 2227.4723,545.2655 2228.5392,545.9165 2229.3629,545.3975 C 2228.7631,545.3375 2228.3606,544.9285 2228.2380,544.3895"
       id="path3486" />
    <path
       d="M 2238.9152,531.2855 C 2238.4215,531.6425 2238.5459,531.8835 2239.2890,532.0055 C 2239.1644,531.7655 2239.0396,531.5265 2238.9152,531.2855"
       id="path3496" />
    <path
       d="M 2246.1517,533.9495 C 2247.2279,533.6175 2247.3298,531.4265 2248.0973,530.6785 C 2249.0296,529.7735 2251.1225,528.8875 2250.7970,527.4685 C 2249.7798,527.6435 2248.5048,529.8745 2247.7303,528.6205 C 2247.6432,529.6835 2247.9377,529.9615 2246.9964,530.8425 C 2246.1863,531.6025 2245.6007,533.1445 2246.1517,533.9495"
       id="path3504" />
    <path
       d="M 2252.7750,522.3575 C 2252.8248,522.5255 2252.8732,522.6945 2252.9230,522.8625 C 2253.2037,522.6505 2253.4519,522.4095 2253.6668,522.1415 C 2253.3692,522.2135 2253.0729,522.2845 2252.7750,522.3575"
       id="path3514" />
    <path
       d="M 2255.6751,518.1815 C 2254.9221,518.8165 2255.3937,519.9175 2256.2649,519.6935 C 2256.1584,519.1405 2255.9614,518.6365 2255.6751,518.1815"
       id="path3516" />
    <path
       d="M 2257.7698,515.6615 C 2257.7933,515.9925 2257.9843,516.1835 2258.3422,516.2365 C 2258.1512,516.0455 2257.9605,515.8535 2257.7698,515.6615"
       id="path3518" />
    <path
       d="M 2261.6022,512.8535 C 2260.6709,513.4375 2256.3184,515.1005 2258.4795,516.0215 C 2259.8129,516.5895 2259.1922,515.5065 2259.8217,514.7975 C 2260.4966,514.0385 2262.2454,514.0065 2261.6022,512.8535"
       id="path3520" />
    <path
       d="M 2259.7134,459.4295 C 2257.8680,459.7635 2257.9571,462.1525 2258.9589,462.4535 C 2258.7619,461.5965 2259.5181,460.3845 2259.7134,459.4295"
       id="path3488" />
    <path
       d="M 2258.5344,463.3895 C 2258.4584,462.9625 2258.1500,462.8425 2257.6083,463.0295 C 2257.2349,464.7005 2258.7418,464.5515 2258.5344,463.3895"
       id="path3490" />
    <path
       d="M 2253.8650,476.6375 C 2253.8441,476.9605 2253.8561,477.2735 2253.9016,477.5755 C 2254.5024,477.2655 2255.1099,477.0495 2255.7257,476.9265 C 2255.5605,476.0655 2254.5171,476.3225 2253.8956,475.9185 C 2253.8853,476.1575 2253.8757,476.3975 2253.8650,476.6375"
       id="path3492" />
    <path
       d="M 2257.3669,473.4695 C 2257.3086,473.3495 2257.2514,473.2295 2257.1931,473.1095 C 2256.9701,473.7835 2256.2002,474.7855 2257.2186,474.9095 C 2257.1376,474.4575 2257.1863,473.9785 2257.3669,473.4695"
       id="path3494" />
    <path
       d="M 2260.4793,471.3815 C 2260.3385,471.2855 2260.1987,471.1895 2260.0579,471.0935 C 2259.6686,471.5785 2259.4073,472.0825 2259.2728,472.6055 C 2259.9045,472.4075 2260.4227,471.9645 2260.4793,471.3815"
       id="path3498" />
    <path
       d="M 2262.1141,466.9175 C 2261.8766,466.9405 2261.6395,466.9655 2261.4031,466.9885 C 2261.3720,467.5405 2261.6984,467.8595 2262.3890,467.6365 C 2262.2971,467.3975 2262.2056,467.1575 2262.1141,466.9175"
       id="path3500" />
    <path
       d="M 2262.5867,471.2375 C 2262.3445,470.9845 2261.4017,470.9835 2260.9793,471.2475 C 2260.4167,471.5985 2261.1834,472.6795 2261.3157,472.8815 C 2261.7488,473.5405 2262.7223,473.5755 2263.4569,473.8995 C 2264.0266,474.1505 2263.7512,475.1675 2264.1784,475.5585 C 2263.7859,475.3275 2263.0294,475.5595 2262.6960,475.2705 C 2262.3206,474.9465 2262.4953,474.2335 2262.2367,473.8315 C 2260.3747,474.9135 2263.1146,476.0225 2262.7652,477.1435 C 2263.1442,476.7395 2265.5448,475.2505 2265.5508,476.1865 C 2265.5530,476.6935 2264.9725,477.5715 2266.0278,477.3665 C 2267.1983,477.1375 2267.2476,474.4285 2265.1197,475.4875 C 2266.0456,474.5005 2265.4782,473.6245 2264.9585,473.0405 C 2266.7385,471.4285 2267.9896,474.6675 2268.3439,475.6095 C 2268.8724,477.0195 2269.1509,478.9305 2267.4536,480.6995 C 2266.4445,481.7525 2265.6972,481.4835 2265.6743,482.8955 C 2265.6616,483.6325 2265.8437,484.1885 2266.0492,484.8305 C 2266.2043,485.3195 2267.1963,488.4915 2265.4210,487.8005 C 2265.9183,488.5985 2266.2135,489.1605 2267.3731,489.2765 C 2267.9535,489.3345 2267.9605,490.0135 2268.6556,489.8885 C 2269.6611,489.7075 2269.2325,488.9925 2268.9003,488.7765 C 2268.1525,488.2945 2268.0369,486.5275 2269.0672,485.6195 C 2270.2533,484.5735 2271.1325,486.5165 2269.5544,486.0005 C 2269.5580,486.8555 2270.1059,487.4355 2270.2362,488.2315 C 2270.3932,489.2025 2269.8303,490.1535 2269.3850,491.1835 C 2270.7132,490.7345 2271.6426,489.6635 2272.8861,489.0235 C 2271.2890,487.7065 2272.9057,487.2005 2274.3136,488.0155 C 2276.3362,485.7835 2275.4598,482.5325 2276.5437,480.0915 C 2276.7376,479.6545 2277.0232,477.8145 2277.3748,477.4615 C 2278.4760,476.3615 2280.2368,475.1645 2278.7212,474.3365 C 2278.9837,474.0905 2279.2520,473.8515 2279.5273,473.6165 C 2278.3931,473.6655 2278.5836,472.9305 2278.1282,472.3455 C 2277.5703,471.6305 2276.0418,472.1615 2275.5052,471.3845 C 2276.9011,470.8395 2277.9248,468.9475 2276.8028,468.3635 C 2275.2391,467.5495 2272.6174,470.3245 2271.7323,467.8865 C 2271.2230,466.4845 2272.1845,465.8235 2270.1175,466.0535 C 2268.6597,466.2155 2266.3814,467.2595 2266.7662,468.9365 C 2264.9265,468.8715 2265.6985,468.9835 2264.0224,470.2325 C 2263.8642,468.5045 2262.6913,470.2635 2262.5867,471.2375"
       id="path3502" />
    <path
       d="M 2264.2129,478.9415 C 2264.0413,479.6915 2264.2949,480.3245 2264.2824,481.0295 C 2267.9126,479.4405 2264.0325,477.3815 2264.2129,478.9415"
       id="path3506" />
    <path
       d="M 2261.7816,485.5655 C 2262.3699,485.7315 2262.5823,485.4925 2262.4188,484.8455 C 2262.2071,485.0855 2261.9947,485.3245 2261.7816,485.5655"
       id="path3508" />
    <path
       d="M 2270.8777,466.0535 C 2271.5153,464.6485 2272.9928,466.1585 2274.3534,465.7555 C 2277.1405,464.9315 2278.5623,465.5015 2280.3336,466.7735 C 2279.7433,466.1715 2280.5976,462.4125 2282.1607,462.3095 C 2283.0332,462.2525 2283.0344,463.2895 2283.7116,463.4995 C 2284.1987,463.6495 2287.1256,462.4555 2287.6750,462.0935 C 2287.5121,462.4625 2287.5961,462.6835 2287.8979,462.7555 C 2288.2119,462.4995 2288.3762,462.2065 2288.3794,461.8785 C 2288.8069,462.2985 2289.6199,462.1545 2289.9500,461.3025 C 2290.5832,461.7915 2291.7513,460.8455 2292.5184,461.1615 C 2293.6300,461.6195 2295.3572,459.8955 2293.6585,460.3675 C 2295.2480,460.0175 2296.9099,459.1595 2298.4762,458.9265 C 2300.2129,458.6675 2300.7692,460.0955 2302.3514,459.8285 C 2303.5300,459.6295 2305.2006,458.6585 2305.3681,459.9905 C 2305.5056,461.0945 2303.5518,462.4325 2302.4131,462.8865 C 2303.0169,463.4755 2303.3933,464.2935 2302.8897,465.3345 C 2302.3219,466.5075 2303.5934,467.0415 2304.3132,467.4575 C 2305.0910,467.9085 2304.9736,469.0065 2305.8717,469.3645 C 2306.5510,469.6355 2307.0946,470.0835 2307.8311,470.2815 C 2308.6985,470.5145 2310.7950,466.4965 2311.1952,465.9105 C 2311.5774,465.3525 2311.9799,464.0325 2312.6472,463.6205 C 2313.9538,462.8155 2315.1199,463.4825 2316.3936,462.9585 C 2315.9411,461.7955 2315.5589,461.0945 2314.4216,460.4615 C 2313.0335,459.6895 2314.0347,458.9375 2314.7202,457.4595 C 2315.0264,456.7965 2316.2938,455.5365 2316.3186,456.7975 C 2316.3314,457.5345 2315.3016,459.2595 2316.8008,458.9985 C 2316.5096,458.6015 2316.6122,458.1215 2317.1117,457.5585 C 2316.6400,459.4825 2319.9295,457.7865 2319.6378,459.2875 C 2318.9822,459.4325 2318.3561,459.8395 2318.0875,460.4385 C 2321.3682,459.0005 2323.9850,459.9065 2326.5417,460.2945 C 2325.5307,458.6845 2330.7685,454.0215 2331.7732,456.6225 C 2331.4440,456.7125 2331.1141,456.8085 2330.7838,456.9095 C 2330.9921,457.7675 2329.9321,459.5915 2330.9409,460.0085 C 2332.0350,460.4625 2333.2242,458.5325 2333.5221,457.7565 C 2333.9018,456.7695 2333.1797,456.1505 2333.5592,455.1605 C 2334.3478,453.0975 2337.2739,454.7095 2337.5938,455.3255 C 2338.6492,454.4095 2336.3421,452.7145 2338.6192,452.3025 C 2338.1067,451.0005 2342.6664,450.4605 2340.2705,452.9175 C 2339.6578,453.5465 2337.6807,457.3275 2338.7174,457.6145 C 2339.1197,457.7255 2342.9076,455.3545 2343.1855,454.8145 C 2343.6202,453.9715 2343.2295,453.4045 2343.5854,452.6175 C 2344.1478,451.3745 2345.7195,450.9235 2346.8865,450.4295 C 2345.1452,448.9135 2344.4992,446.6635 2344.9806,443.9915 C 2345.1553,443.0165 2345.5644,441.9215 2346.1528,440.9075 C 2346.5122,440.2875 2346.6027,440.3265 2347.2752,440.0925 C 2347.8832,439.8805 2347.6330,439.4565 2347.7983,439.1255 C 2349.2519,436.2165 2347.8896,433.9215 2347.6543,431.6025 C 2347.3727,428.8845 2350.1271,426.4435 2352.3168,428.3975 C 2351.7803,427.1945 2352.2415,422.1715 2354.9619,421.7025 C 2354.4662,421.0595 2355.8533,419.8115 2355.6953,419.0085 C 2355.5656,418.3585 2356.0517,417.5845 2355.8371,416.8905 C 2355.5945,416.1055 2355.8686,415.0735 2355.6130,414.2615 C 2355.3836,413.5325 2354.9048,413.2145 2354.8490,412.4055 C 2354.7270,410.6685 2352.7031,409.8255 2351.8092,408.5535 C 2350.6398,406.8935 2350.6624,404.1175 2351.3991,401.6865 C 2349.5796,402.6775 2348.4685,400.0915 2346.9790,401.2025 C 2344.8501,402.8395 2347.3290,405.0725 2349.1444,402.7665 C 2350.0667,403.2935 2350.4061,405.0045 2348.8568,406.2225 C 2348.3422,405.7695 2347.7190,405.4065 2347.0711,405.0715 C 2347.1317,405.5755 2346.8500,406.0795 2346.2261,406.5835 C 2345.0818,406.2855 2345.3838,404.9805 2345.0730,404.1355 C 2344.7456,403.2485 2343.3934,403.5915 2342.8520,402.9105 C 2342.2455,403.9565 2343.3705,406.1495 2341.8920,406.9635 C 2341.1333,407.3815 2338.9931,407.8235 2339.5243,408.8265 C 2339.9316,409.5945 2340.9593,410.6195 2340.7584,411.6215 C 2340.5793,412.5155 2339.4239,414.6635 2338.3753,413.6385 C 2338.1258,414.6515 2338.7750,414.5025 2339.6861,414.5005 C 2340.8994,414.4975 2341.0921,415.7595 2341.1737,416.5905 C 2341.3821,418.7275 2339.7274,422.4445 2338.0250,424.8745 C 2336.7055,426.7585 2336.9002,430.0515 2334.1274,431.1625 C 2330.9563,432.4335 2330.9908,434.6465 2328.5688,436.7975 C 2326.5753,438.5705 2324.2585,438.6625 2322.0541,439.6865 C 2320.6789,440.3265 2317.8641,443.2925 2317.6094,440.8005 C 2317.5626,440.1245 2318.2154,439.1965 2317.2750,439.0185 C 2316.7117,438.9125 2316.6042,437.7695 2317.3610,437.9085 C 2318.9454,438.1975 2319.6922,435.5775 2320.2483,435.0945 C 2319.2042,434.7785 2316.5892,435.7895 2315.5971,436.9085 C 2314.2304,438.4535 2316.1625,440.2855 2314.7277,442.2835 C 2313.6657,443.8825 2312.4402,444.8665 2310.8345,446.1115 C 2308.1606,448.1875 2311.1175,449.3945 2310.1644,451.1495 C 2309.2745,450.0525 2309.5175,451.9035 2308.3475,451.4375 C 2307.7645,453.7805 2304.1539,451.0985 2304.9800,452.7335 C 2304.6488,452.4545 2303.5939,452.4245 2303.7702,451.7955 C 2303.9677,451.0965 2305.0033,450.0245 2303.5579,450.3635 C 2302.9358,450.5095 2302.3082,450.8365 2301.6926,450.9895 C 2300.1746,451.3675 2298.9231,450.9765 2297.3662,451.5835 C 2296.2729,452.0105 2295.3252,452.2885 2294.2684,452.4165 C 2293.2666,452.5385 2291.5593,451.9915 2290.6274,452.4465 C 2289.3104,453.0905 2289.1205,452.6315 2288.4194,452.1355 C 2287.6308,451.5775 2285.3101,452.6635 2284.1788,453.0205 C 2285.0475,454.8155 2276.0257,459.7225 2274.8967,461.0885 C 2273.7199,462.5235 2271.1642,461.2625 2270.5805,462.6725 C 2270.1996,463.7965 2270.6773,465.0895 2270.8777,466.0535"
       id="path3510" />
    <path
       d="M 2266.0375,478.7255 C 2265.8927,479.6345 2267.5331,478.8825 2267.8104,478.2215 C 2267.2744,478.0315 2266.5885,478.2495 2266.0375,478.7255"
       id="path3512" />
    <path
       d="M 2287.4920,447.0455 C 2286.8487,446.9645 2286.6237,447.2295 2286.8160,447.8375 C 2287.0416,447.5735 2287.2663,447.3095 2287.4920,447.0455"
       id="path3522" />
    <path
       d="M 2268.1687,496.1495 C 2266.7527,496.3755 2267.3056,497.8385 2268.0454,497.9875 C 2269.5022,498.2785 2269.1237,496.3105 2268.1687,496.1495"
       id="path3524" />
    <path
       d="M 2289.0611,445.3175 C 2288.2998,445.6115 2287.8301,446.4475 2288.5338,446.6145 C 2289.6787,446.8845 2289.6068,445.5545 2289.0611,445.3175"
       id="path3526" />
    <path
       d="M 2282.3484,466.2695 C 2282.2727,465.8115 2280.9782,466.4695 2280.7204,466.5575 C 2281.2505,466.5375 2281.7942,466.4415 2282.3484,466.2695"
       id="path3528" />
    <path
       d="M 2282.7459,463.1735 C 2281.7473,463.4725 2281.7316,463.7125 2282.6996,463.8935 C 2282.7144,463.6535 2282.7301,463.4135 2282.7459,463.1735"
       id="path3530" />
    <path
       d="M 2283.1258,468.6455 C 2282.1364,469.8335 2280.5707,470.1325 2279.4050,471.0935 C 2280.3344,471.1555 2281.2363,470.3255 2282.1586,470.0135 C 2282.1798,470.4295 2282.0562,471.6925 2282.7295,471.6445 C 2283.6082,471.5825 2283.7192,472.1705 2282.4794,472.3895 C 2283.2392,472.6605 2282.4022,474.8865 2283.6145,474.7405 C 2284.6830,474.6105 2284.4089,475.7635 2285.1191,476.0615 C 2285.8201,476.3555 2286.8406,475.8945 2287.2729,476.5655 C 2286.0865,475.5235 2288.1175,472.6625 2289.2494,471.3695 C 2292.1532,468.0535 2294.1305,470.4575 2295.7743,471.7415 C 2296.2837,470.9815 2296.3418,470.1945 2296.8723,469.4375 C 2297.5039,468.5345 2298.6252,467.9585 2299.4286,467.1685 C 2300.1921,466.4175 2298.9236,464.4215 2299.2593,463.3895 C 2297.3534,463.7375 2296.6244,462.5865 2295.0942,462.3065 C 2293.8290,462.0735 2291.9496,463.8075 2291.1640,463.2455 C 2292.1178,464.4225 2291.1197,465.2245 2289.4332,465.6215 C 2287.0148,466.1915 2287.8150,464.7885 2285.9170,464.4695 C 2285.3786,465.4255 2284.3377,468.3225 2283.1258,468.6455"
       id="path3532" />
    <path
       d="M 2283.2106,463.9655 C 2282.3361,464.3655 2282.6565,464.8505 2283.3954,464.6855 C 2283.3332,464.4455 2283.2730,464.2055 2283.2106,463.9655"
       id="path3534" />
    <path
       d="M 2272.4646,492.8375 C 2271.4627,493.2555 2270.2037,496.9455 2271.6355,496.5095 C 2271.5422,495.3255 2272.6902,493.9985 2272.4646,492.8375"
       id="path3536" />
    <path
       d="M 2286.8546,462.9575 C 2286.3111,462.8535 2286.2214,463.0925 2286.5842,463.6775 C 2286.6743,463.4375 2286.7645,463.1975 2286.8546,462.9575"
       id="path3538" />
    <path
       d="M 2348.3582,367.0535 C 2347.9072,366.9715 2348.7174,367.9615 2348.9281,368.0615 C 2349.0989,367.5415 2348.8978,367.1525 2348.3582,367.0535"
       id="path3540" />
    <path
       d="M 2297.0492,460.9415 C 2296.6178,460.6445 2296.0154,460.8875 2295.4696,461.3745 C 2295.7691,461.8325 2297.0651,462.0135 2297.0492,460.9415"
       id="path3542" />
    <path
       d="M 2349.7795,368.7815 C 2349.0800,369.6645 2349.8179,370.0835 2350.9546,369.5015 C 2350.7502,369.1115 2350.3587,368.8705 2349.7795,368.7815"
       id="path3544" />
    <path
       d="M 2353.5062,367.0535 C 2353.4771,368.0745 2352.7946,369.2655 2353.2345,370.1015 C 2353.8882,371.3475 2354.7701,372.6475 2354.4782,374.3505 C 2354.2216,375.8435 2353.9664,377.5205 2353.4729,379.0785 C 2353.0040,380.5635 2350.8613,381.1645 2351.1155,382.4465 C 2351.3843,383.7645 2352.0912,386.8825 2348.4684,386.4715 C 2346.8356,386.2865 2345.7471,384.9505 2344.0360,384.9925 C 2342.9766,385.0185 2343.1904,386.4655 2343.3889,386.6715 C 2343.9508,387.2595 2344.6988,387.5615 2343.6440,388.8255 C 2341.7442,391.0985 2339.8285,389.8025 2338.9744,392.7995 C 2338.3229,395.0745 2340.9901,394.9615 2341.4319,396.6015 C 2341.7111,397.6385 2340.1554,399.1765 2340.2304,400.3395 C 2340.3473,402.1885 2341.6493,400.9595 2343.6237,400.3895 C 2343.0681,399.6125 2344.7966,398.6615 2345.8772,398.4935 C 2346.1683,398.4485 2348.9368,399.2765 2348.9693,398.0055 C 2348.9914,397.0995 2347.1130,396.5935 2346.5718,395.9845 C 2345.7787,395.0945 2343.8073,395.2365 2342.9770,394.3245 C 2342.5121,393.8135 2342.6985,392.7095 2343.8161,391.8435 C 2344.9186,390.9895 2345.9386,391.7755 2346.3715,392.0725 C 2346.9373,392.4605 2347.1622,393.1745 2347.7957,393.4805 C 2348.4660,393.8045 2350.8505,391.9235 2351.9667,391.4945 C 2355.6507,390.0795 2357.1569,393.2575 2359.0461,394.0575 C 2360.4121,394.6355 2362.5847,396.7795 2364.5926,396.5765 C 2365.8196,396.4525 2365.9634,395.3705 2366.0274,394.8135 C 2366.1789,393.4795 2366.6970,392.4795 2368.3500,391.0125 C 2371.8334,387.9245 2374.0019,387.8315 2376.7768,388.5825 C 2376.4752,386.8985 2380.0693,388.8025 2379.8094,386.8535 C 2380.7912,386.5545 2381.7768,386.3455 2382.5214,386.4935 C 2382.8597,385.8595 2383.6302,385.3455 2384.4237,385.1265 C 2384.1357,384.0295 2383.1844,385.4715 2382.2011,385.8015 C 2381.6035,386.0015 2381.4011,385.1135 2381.3318,384.9875 C 2381.1729,384.6965 2380.0326,382.2175 2381.5472,383.1105 C 2380.4705,382.4795 2378.9249,382.1735 2379.9120,380.4025 C 2380.5574,379.2455 2382.5383,377.0485 2381.4309,376.4855 C 2380.3648,377.6215 2378.5637,379.5955 2376.8105,380.0115 C 2374.7048,380.5115 2373.8035,378.0755 2372.0805,379.0785 C 2372.4161,378.2065 2371.6593,378.2665 2370.7421,378.3955 C 2369.4656,378.5745 2369.8082,377.8055 2369.0979,377.4765 C 2366.8850,376.4505 2364.8289,375.5625 2363.1651,374.0485 C 2361.2386,372.3035 2359.7355,370.2665 2357.8124,368.5065 C 2357.1829,367.9315 2356.6170,366.9135 2355.5443,366.6935 C 2354.7718,366.5355 2353.9992,367.7165 2353.5062,367.0535"
       id="path3546" />
    <path
       d="M 2301.8712,460.7255 C 2300.7504,460.6675 2299.0127,462.8735 2299.6003,463.5295 C 2300.6882,464.7455 2301.6259,461.1135 2301.8712,460.7255"
       id="path3548" />
    <path
       d="M 2336.2944,394.6295 C 2335.8791,395.2085 2336.0297,395.5045 2336.7184,395.4215 C 2337.1766,394.8135 2337.0733,394.4845 2336.2944,394.6295"
       id="path3550" />
    <path
       d="M 2329.2944,428.3975 C 2328.3168,428.6655 2326.4400,430.3185 2327.3257,430.8015 C 2328.1117,431.2315 2327.7616,431.5175 2327.0223,432.5745 C 2328.3100,432.5405 2329.4775,431.4465 2329.3811,430.4555 C 2329.2680,430.2605 2329.0818,430.1305 2328.8210,430.0665 C 2328.5271,429.8635 2329.2503,428.7675 2329.2944,428.3975"
       id="path3552" />
    <path
       d="M 2335.6604,458.6375 C 2335.0352,459.2885 2335.1474,459.5285 2335.9958,459.3575 C 2335.9106,459.1015 2335.7995,458.8615 2335.6604,458.6375"
       id="path3556" />
  </g>
  
  
  
  
  
  
  
  
  
  
  
  
  
  
  
  
  
  
  
  
  
  
  
  
  
  
  
  
  
  
  
  
  
  
  
  
  
  
  
  
  
  
  
  
  
  
  
  
  
  
  
  
  
  
  
  
  
  
  
  
  
  
  
  
  
  
  
  
  
  
  
  
  
  
  
  
  
  
  
  
  
  
  
  
  
  
  
  
  
  
  
  
  
  
  
  
  
  
  
  
  
  
  
  
  
  
  
  
  
  
  
  
  
  
  
  
  
  
  
  
  
  
  
  
  
  
  
  
  
  
  
  
  
  
  
  
  
  
  
  
  
  
  
  
  
  
  
  
  
  
  
  
  
  
  
  
  
  
  
  
  
  
  
  
  
  
  
  
  
  
  
  
  
  
  
  
  
  
  
  
  
  
  
  
  
  
  
  
  
  
</svg>
