<?xml version="1.0" encoding="UTF-8" standalone="no"?>
<svg
   xmlns:dc="http://purl.org/dc/elements/1.1/"
   xmlns:cc="http://web.resource.org/cc/"
   xmlns:rdf="http://www.w3.org/1999/02/22-rdf-syntax-ns#"
   xmlns:svg="http://www.w3.org/2000/svg"
   xmlns="http://www.w3.org/2000/svg"
   xmlns:sodipodi="http://sodipodi.sourceforge.net/DTD/sodipodi-0.dtd"
   xmlns:inkscape="http://www.inkscape.org/namespaces/inkscape"
   viewBox="0 0 2752.766 1537.631"
   version="1.0"
   height="476.7276"
   width="939.74725"
   id="svg1926"
   sodipodi:version="0.32"
   inkscape:version="0.45.1"
   sodipodi:docname="BlankMap-World6.svg"
   sodipodi:docbase="/home/bennett/Desktop"
   inkscape:output_extension="org.inkscape.output.svg.inkscape">
  <sodipodi:namedview
     inkscape:window-height="590"
     inkscape:window-width="822"
     inkscape:pageshadow="2"
     inkscape:pageopacity="0.0"
     guidetolerance="10.0"
     gridtolerance="10.0"
     objecttolerance="10.0"
     borderopacity="1.0"
     bordercolor="#666666"
     pagecolor="#ffffff"
     id="base"
     inkscape:zoom="0.77893284"
     inkscape:cx="469.87363"
     inkscape:cy="238.3638"
     inkscape:window-x="178"
     inkscape:window-y="46"
     inkscape:current-layer="svg1926" />
  <metadata
     id="metadata24111">
    <rdf:RDF>
      <cc:Work
         rdf:about="">
        <dc:format>image/svg+xml</dc:format>
        <dc:type
           rdf:resource="http://purl.org/dc/dcmitype/StillImage" />
        <cc:license
           rdf:resource="http://web.resource.org/cc/PublicDomain" />
        <dc:title>Blank World Map</dc:title>
      </cc:Work>
      <cc:License
         rdf:about="http://web.resource.org/cc/PublicDomain">
        <cc:permits
           rdf:resource="http://web.resource.org/cc/Reproduction" />
        <cc:permits
           rdf:resource="http://web.resource.org/cc/Distribution" />
        <cc:permits
           rdf:resource="http://web.resource.org/cc/DerivativeWorks" />
      </cc:License>
    </rdf:RDF>
  </metadata>
  <defs
     id="defs1930" />
  <style
     type="text/css"
     id="style_css_sheet">
/*
 * Below are Cascading Style Sheet (CSS) definitions in use in this file,
 * which allow easily changing how countries are displayed.
 *
 */

/*
 * Circles around small countries
 *
 * Change opacity to 1 to display all circles.
 *
 */
.circle
{
   opacity:0;
   fill:#b9b9b9;
   fill-opacity:1;
   stroke:black;
   stroke-width:0.99986893;
   stroke-miterlimit:3.97446823;
   stroke-dasharray:none;
   stroke-opacity:1;
}

/*
 * Land
 */
.land
{
   fill: #b9b9b9;
   fill-opacity: 1;
   stroke: #ffffff;
   stroke-opacity: 1;
   stroke-width: 0.99986997;
   stroke-miterlimit: 3.97446823;
   stroke-dasharray: none;
}

/*
 * Additional style rules
 *
 * The following are examples of colouring countries.  You can substitute these with your own styles to colour the countries on the map.
 *
 * Color a few countries:
 *
 * .gb, .au, .nc
 * {
 *    fill:       #ff0000;
 * }
 *
 * Color a few small country circles (and the countries):
 *
 * .ms, .ky
 * {
 *    opacity:    1;
 *    fill:       #ff0000;
 * }
 *
 */

/*
 * Antarctica
 */

.aq
{
   fill:#e6e6e6;
}

/*
 * Sea
 */

.ocean
{
   opacity: 1;
   color: #000000;
   fill:white;
   fill-opacity:1;
   fill-rule:nonzero;
   stroke:#000000;
   stroke-width:0.5;
   stroke-linecap:butt;
   stroke-linejoin:miter;
   marker:none;
   marker-start:none;
   marker-mid:none;
   marker-end:none;
   stroke-miterlimit:1;
   stroke-dasharray:none;
   stroke-dashoffset:0;
   stroke-opacity:1;
   visibility:visible;
   display:inline;
   overflow:visible;
}

.lake
{
   fill:#ffffff;
   fill-opacity:1;
   stroke:#ffffff;
   stroke-opacity:1;
   stroke-width:0.99986997;
   stroke-miterlimit:3.97446823;
   stroke-dasharray:none;
}
</style>
  
  
  
  
  
  
  
  
  
  
  
  
  
  
  
  
  
  
  
  <path
     class="land ke"
     d="M 1529.7939,768.2386 C 1529.7925,766.8755 1529.7460,765.5116 1529.7996,764.1486 C 1529.8433,763.0005 1530.3668,761.5366 1530.1086,760.4195 C 1529.6635,758.4976 1530.6168,755.9836 1531.8641,754.3525 C 1532.9946,752.8726 1533.8304,749.9416 1535.6427,749.2265 C 1536.5124,748.8836 1536.3692,748.7115 1536.3213,747.9575 C 1536.2480,746.7935 1537.6034,746.2336 1537.8993,745.1975 C 1538.2509,743.9665 1538.3508,742.7605 1538.4821,741.5255 C 1538.6014,740.4145 1537.4911,739.6283 1537.2695,738.3826 C 1536.7720,735.5877 1535.0567,734.9805 1534.8107,733.7495 C 1534.6174,732.7726 1534.0806,731.9435 1533.7607,731.0136 C 1533.5453,730.6046 1533.4261,730.1695 1533.4022,729.7065 C 1533.4078,729.0835 1534.1094,728.7296 1533.9273,728.0606 C 1533.7654,727.4706 1533.1204,727.3156 1532.6236,727.1295 C 1531.4965,726.7085 1532.3318,725.8505 1531.1337,725.9725 C 1531.5330,724.8515 1530.1523,723.7736 1530.4324,722.9905 C 1530.7022,722.2386 1531.4917,721.5906 1532.0312,721.0305 C 1533.9137,719.0756 1536.1942,719.6366 1538.6409,719.6366 C 1540.0444,719.6366 1541.4520,719.5205 1542.8557,719.5055 C 1543.5435,719.4986 1544.2597,719.4646 1544.9414,719.5725 C 1545.5312,719.6656 1545.7025,720.6996 1546.4086,720.9736 C 1548.5837,721.8206 1551.0302,720.7866 1553.2484,721.8196 C 1555.5669,722.9005 1558.0391,724.8905 1559.8375,726.6685 C 1560.7539,727.5746 1561.4829,728.2106 1562.8163,728.3565 C 1563.6829,728.4515 1565.6649,727.9135 1566.3418,728.3486 C 1568.2342,729.5666 1571.1686,728.4846 1572.8105,730.0775 C 1573.0519,728.9446 1574.6299,727.2956 1575.3431,726.3196 C 1576.6112,724.5835 1579.2903,723.8886 1581.1456,723.0285 C 1583.1258,722.1115 1583.4467,724.2705 1584.9081,725.1295 C 1585.9112,725.7196 1587.0095,725.3346 1588.0616,725.1445 C 1588.9141,724.9896 1589.9234,725.5506 1590.7282,725.1096 C 1589.4778,727.2106 1588.3224,729.5065 1586.8073,731.4316 C 1585.2073,733.4636 1583.7808,734.5946 1583.7548,737.3246 C 1583.7080,743.7736 1583.7740,750.2215 1583.7770,756.6716 C 1583.7777,761.5045 1582.8220,766.0875 1586.0730,770.0366 C 1587.1750,771.3755 1588.8348,773.1046 1587.6560,774.8596 C 1586.9624,775.8945 1584.8936,777.7845 1583.5927,776.5896 C 1583.4890,776.8496 1583.3913,777.1126 1583.3037,777.3795 C 1583.0953,777.1295 1582.9049,776.8655 1582.7325,776.5896 C 1583.0736,777.3755 1583.9458,778.8246 1583.1668,779.6186 C 1583.0290,777.6605 1582.2230,779.9035 1582.0265,780.3546 C 1581.6247,781.2805 1580.8488,781.4585 1579.9647,781.5835 C 1578.0027,781.8596 1577.2138,783.5925 1577.8412,785.2455 C 1578.1283,786.0026 1576.7469,788.1925 1576.1774,788.6555 C 1575.2062,789.4446 1574.4514,794.7536 1573.3622,794.2995 C 1573.8644,796.3555 1571.8282,797.8166 1571.4991,799.6985 C 1570.6526,799.0896 1570.7640,800.1545 1570.0620,799.9896 C 1569.1762,799.7816 1568.0029,798.2755 1567.3396,797.7246 C 1565.1060,795.8705 1562.7293,794.1946 1560.5233,792.3085 C 1559.7206,791.6236 1559.5598,790.9095 1558.9156,790.1985 C 1558.3677,789.5915 1557.2105,789.7106 1558.2344,788.5785 C 1559.6818,786.9786 1557.4899,785.0886 1556.1526,784.3246 C 1551.3662,781.5896 1546.8125,778.4475 1542.0682,775.6176 C 1539.6992,774.2046 1537.2371,772.7776 1535.0309,771.1186 C 1533.7336,770.1445 1531.5929,767.9396 1529.7939,768.2386"
     id="ke" />
  
  
  
  
  
  
  
  
  
  
  
  
  
  
  
  
  
  
  
  
  
  
  
  
  
  
  
  
  
  
  
  
  
  
  
  
  
  
  
  
  
  
  
  
  
  
  
  
  
  
  
  
  
  
  
  
  
  
  
  
  
  
  
  
  
  
  
  
  
  
  
  
  
  
  
  
  
  
  
  
  
  
  
  
  
  
  
  
  
  
  
  
  
  
  
  
  
  
  
  
  
  
  
  
  
  
  
  
  
  
  
  
  
  
  
  
  
  
  
  
  
  
  
  
  
  
  
  
  
  
  
  
  
  
  
  
  
  
  
  
  
  
  
  
  
  
  
  
  
  
  
  
  
  
  
  
  
  
  
  
  
  
  
  
  
  
  
  
  
  
  
  
  
  
  
  
  
  
  
  
  
  
  
  
  
  
  
  
  
  
  
  
  
  
  
  
  
  
  
  
  
  
  
  
  
  
  
  
  
  
  
  
</svg>
