<?xml version="1.0" encoding="UTF-8" standalone="no"?>
<svg
   xmlns:dc="http://purl.org/dc/elements/1.1/"
   xmlns:cc="http://web.resource.org/cc/"
   xmlns:rdf="http://www.w3.org/1999/02/22-rdf-syntax-ns#"
   xmlns:svg="http://www.w3.org/2000/svg"
   xmlns="http://www.w3.org/2000/svg"
   xmlns:sodipodi="http://sodipodi.sourceforge.net/DTD/sodipodi-0.dtd"
   xmlns:inkscape="http://www.inkscape.org/namespaces/inkscape"
   viewBox="0 0 2752.766 1537.631"
   version="1.0"
   height="476.7276"
   width="939.74725"
   id="svg1926"
   sodipodi:version="0.32"
   inkscape:version="0.45.1"
   sodipodi:docname="BlankMap-World6.svg"
   sodipodi:docbase="/home/bennett/Desktop"
   inkscape:output_extension="org.inkscape.output.svg.inkscape">
  <sodipodi:namedview
     inkscape:window-height="590"
     inkscape:window-width="822"
     inkscape:pageshadow="2"
     inkscape:pageopacity="0.0"
     guidetolerance="10.0"
     gridtolerance="10.0"
     objecttolerance="10.0"
     borderopacity="1.0"
     bordercolor="#666666"
     pagecolor="#ffffff"
     id="base"
     inkscape:zoom="0.77893284"
     inkscape:cx="469.87363"
     inkscape:cy="238.3638"
     inkscape:window-x="178"
     inkscape:window-y="46"
     inkscape:current-layer="svg1926" />
  <metadata
     id="metadata24111">
    <rdf:RDF>
      <cc:Work
         rdf:about="">
        <dc:format>image/svg+xml</dc:format>
        <dc:type
           rdf:resource="http://purl.org/dc/dcmitype/StillImage" />
        <cc:license
           rdf:resource="http://web.resource.org/cc/PublicDomain" />
        <dc:title>Blank World Map</dc:title>
      </cc:Work>
      <cc:License
         rdf:about="http://web.resource.org/cc/PublicDomain">
        <cc:permits
           rdf:resource="http://web.resource.org/cc/Reproduction" />
        <cc:permits
           rdf:resource="http://web.resource.org/cc/Distribution" />
        <cc:permits
           rdf:resource="http://web.resource.org/cc/DerivativeWorks" />
      </cc:License>
    </rdf:RDF>
  </metadata>
  <defs
     id="defs1930" />
  <style
     type="text/css"
     id="style_css_sheet">
/*
 * Below are Cascading Style Sheet (CSS) definitions in use in this file,
 * which allow easily changing how countries are displayed.
 *
 */

/*
 * Circles around small countries
 *
 * Change opacity to 1 to display all circles.
 *
 */
.circle
{
   opacity:0;
   fill:#b9b9b9;
   fill-opacity:1;
   stroke:black;
   stroke-width:0.99986893;
   stroke-miterlimit:3.97446823;
   stroke-dasharray:none;
   stroke-opacity:1;
}

/*
 * Land
 */
.land
{
   fill: #b9b9b9;
   fill-opacity: 1;
   stroke: #ffffff;
   stroke-opacity: 1;
   stroke-width: 0.99986997;
   stroke-miterlimit: 3.97446823;
   stroke-dasharray: none;
}

/*
 * Additional style rules
 *
 * The following are examples of colouring countries.  You can substitute these with your own styles to colour the countries on the map.
 *
 * Color a few countries:
 *
 * .gb, .au, .nc
 * {
 *    fill:       #ff0000;
 * }
 *
 * Color a few small country circles (and the countries):
 *
 * .ms, .ky
 * {
 *    opacity:    1;
 *    fill:       #ff0000;
 * }
 *
 */

/*
 * Antarctica
 */

.aq
{
   fill:#e6e6e6;
}

/*
 * Sea
 */

.ocean
{
   opacity: 1;
   color: #000000;
   fill:white;
   fill-opacity:1;
   fill-rule:nonzero;
   stroke:#000000;
   stroke-width:0.5;
   stroke-linecap:butt;
   stroke-linejoin:miter;
   marker:none;
   marker-start:none;
   marker-mid:none;
   marker-end:none;
   stroke-miterlimit:1;
   stroke-dasharray:none;
   stroke-dashoffset:0;
   stroke-opacity:1;
   visibility:visible;
   display:inline;
   overflow:visible;
}

.lake
{
   fill:#ffffff;
   fill-opacity:1;
   stroke:#ffffff;
   stroke-opacity:1;
   stroke-width:0.99986997;
   stroke-miterlimit:3.97446823;
   stroke-dasharray:none;
}
</style>
  
  
  
  
  
  
  
  
  
  
  
  
  
  
  
  
  
  
  
  
  
  
  
  
  
  
  
  
  
  
  
  
  
  
  
  
  
  
  
  
  
  
  
  
  
  
  
  
  
  
  
  
  
  
  
  
  
  
  
  
  
  
  
  
  
  
  
  
  
  
  
  
  
  <path
     class="land kg"
     d="M 1801.7087,412.9176 C 1803.5642,411.9416 1805.5735,411.6805 1807.2574,412.1895 C 1807.7732,412.3456 1810.5006,413.2156 1809.1208,414.1406 C 1810.4497,414.0575 1810.7388,412.7636 1811.8425,412.2366 C 1813.4866,411.4525 1814.7624,410.3906 1816.3086,411.0795 C 1816.7092,411.2586 1817.0015,411.6956 1817.3890,411.8365 C 1818.0115,412.0625 1818.2125,410.9235 1818.5999,411.8585 C 1818.8271,412.4076 1820.3346,411.4536 1821.0795,411.4755 C 1819.0345,410.3265 1823.6485,410.0786 1824.1072,410.1076 C 1823.9470,409.5636 1823.7505,409.0935 1823.9946,408.4525 C 1825.1548,408.9645 1826.0391,409.2695 1827.1094,407.8655 C 1827.3717,407.5215 1829.7256,406.8816 1829.0274,406.4246 C 1828.6633,406.1866 1827.2214,406.0655 1826.6815,406.0756 C 1824.8881,406.1066 1824.3910,403.9366 1822.1794,404.9966 C 1822.5880,403.1905 1821.2106,403.9855 1820.3385,403.0865 C 1819.4441,402.1596 1818.2544,401.2776 1817.9632,400.2446 C 1817.8902,400.8415 1817.9885,401.6336 1817.4601,402.2226 C 1817.1420,402.5426 1816.7689,402.6995 1816.3386,402.6916 C 1816.4389,403.1005 1816.3320,403.5086 1816.0177,403.9165 C 1814.9488,402.7246 1811.6297,404.2135 1811.2747,402.2176 C 1811.1432,401.1635 1810.6605,401.0446 1809.4254,401.3605 C 1808.4214,401.6175 1807.7082,400.5525 1806.7730,400.5326 C 1807.9303,398.0876 1813.0475,396.1796 1815.2370,394.7006 C 1813.2561,393.6026 1811.3904,394.7636 1813.5751,392.0546 C 1814.1529,391.3385 1813.9834,390.7946 1815.0341,390.3256 C 1816.1252,389.8385 1817.2894,390.1125 1818.2460,389.6286 C 1820.2516,388.6146 1824.0261,390.0516 1825.5669,390.5346 C 1826.1251,390.6535 1826.5935,390.8795 1826.9745,391.2115 C 1827.7536,391.8786 1828.3285,391.5686 1829.4186,391.6766 C 1830.5016,391.7826 1831.1360,393.0396 1832.4196,392.6846 C 1831.5916,391.6986 1831.7228,388.0716 1833.7508,387.2036 C 1834.2411,386.9936 1837.8589,386.2606 1837.6731,385.6295 C 1839.7621,386.3175 1841.6914,387.4285 1843.5363,388.4155 C 1844.2494,388.7976 1847.7116,390.0485 1848.9011,389.5895 C 1849.8121,389.2355 1849.4192,388.3655 1850.5062,388.3655 C 1852.0894,388.3655 1853.5145,388.9085 1855.1542,388.7226 C 1856.3516,388.5865 1857.6008,388.0765 1858.7751,388.0765 C 1860.0068,388.0765 1860.7649,388.9056 1862.1378,388.5636 C 1863.3635,388.2595 1864.5458,388.5775 1865.5950,388.7545 C 1866.9623,388.9855 1868.4459,388.7276 1869.8679,388.8116 C 1872.2319,388.9515 1875.5058,389.7615 1876.8868,391.1716 C 1877.4809,391.7765 1877.5141,392.5915 1878.7425,392.5505 C 1879.7922,392.5145 1880.4284,392.5335 1881.1524,393.0005 C 1882.0591,393.5836 1883.5152,394.4866 1883.6284,395.6275 C 1883.6616,395.9615 1880.2358,396.9126 1879.4737,397.3655 C 1877.0255,398.8216 1873.8088,399.4656 1871.1943,400.7656 C 1869.9825,401.3696 1869.3806,401.8086 1868.8050,402.8616 C 1868.3305,403.7826 1867.6646,404.5976 1866.5243,404.4905 C 1865.3922,404.3845 1864.2223,405.1375 1863.0788,405.0346 C 1861.8286,404.9226 1860.7029,404.6426 1859.3933,404.6606 C 1857.6665,404.6846 1856.6708,406.6436 1856.1479,408.0005 C 1854.9837,411.0215 1853.4270,409.7706 1850.8229,410.7276 C 1848.3592,411.6345 1849.2156,409.3275 1848.2785,408.4846 C 1847.7548,408.0156 1846.6537,408.8576 1846.0835,409.1266 C 1844.7431,409.7625 1843.6797,409.5546 1842.4849,409.3136 C 1842.2295,409.8105 1842.1496,410.2905 1842.2472,410.7536 C 1841.2232,410.7776 1840.3535,411.6775 1839.5393,412.2536 C 1838.3263,413.1116 1836.9930,412.5876 1835.8915,413.6336 C 1834.3275,415.1205 1836.9179,417.1775 1834.5515,418.1486 C 1833.4949,418.5836 1832.6304,417.8585 1831.5655,418.4445 C 1830.3373,419.1196 1829.0631,419.1866 1827.8664,419.0716 C 1826.3301,418.9235 1823.6087,418.4285 1822.7950,420.5466 C 1822.4741,420.0415 1821.9319,419.5666 1821.3611,419.2905 C 1820.6518,418.9486 1819.8021,419.9936 1819.3070,419.7045 C 1818.7732,419.3936 1819.3399,418.4706 1818.8738,418.3145 C 1818.4470,418.3485 1818.0367,418.3286 1817.6458,418.2556 C 1817.2448,417.9755 1817.2641,417.4606 1816.9023,417.1785 C 1815.9061,416.4015 1813.4158,418.7505 1812.2573,418.7615 C 1811.3298,418.7706 1810.8396,418.5965 1810.5522,417.8526 C 1810.0941,416.6726 1808.4063,417.3025 1807.2724,417.6665 C 1807.3126,417.4026 1807.3547,417.1395 1807.4028,416.8745 C 1806.6024,417.2636 1804.6063,417.8195 1803.9471,417.3936 C 1803.0080,416.7865 1801.6324,418.0815 1800.6245,417.5476 C 1799.4958,416.9495 1800.3638,412.8825 1801.4938,414.3546 C 1801.6502,413.8696 1801.7214,413.3906 1801.7087,412.9176"
     id="kg" />
  
  
  
  
  
  
  
  
  
  
  
  
  
  
  
  
  
  
  
  
  
  
  
  
  
  
  
  
  
  
  
  
  
  
  
  
  
  
  
  
  
  
  
  
  
  
  
  
  
  
  
  
  
  
  
  
  
  
  
  
  
  
  
  
  
  
  
  
  
  
  
  
  
  
  
  
  
  
  
  
  
  
  
  
  
  
  
  
  
  
  
  
  
  
  
  
  
  
  
  
  
  
  
  
  
  
  
  
  
  
  
  
  
  
  
  
  
  
  
  
  
  
  
  
  
  
  
  
  
  
  
  
  
  
  
  
  
  
  
  
  
  
  
  
  
  
  
  
  
  
  
  
  
  
  
  
  
  
</svg>
