<?xml version="1.0" encoding="UTF-8" standalone="no"?>
<svg
   xmlns:dc="http://purl.org/dc/elements/1.1/"
   xmlns:cc="http://web.resource.org/cc/"
   xmlns:rdf="http://www.w3.org/1999/02/22-rdf-syntax-ns#"
   xmlns:svg="http://www.w3.org/2000/svg"
   xmlns="http://www.w3.org/2000/svg"
   xmlns:sodipodi="http://sodipodi.sourceforge.net/DTD/sodipodi-0.dtd"
   xmlns:inkscape="http://www.inkscape.org/namespaces/inkscape"
   viewBox="0 0 2752.766 1537.631"
   version="1.0"
   height="476.7276"
   width="939.74725"
   id="svg1926"
   sodipodi:version="0.32"
   inkscape:version="0.45.1"
   sodipodi:docname="BlankMap-World6.svg"
   sodipodi:docbase="/home/bennett/Desktop"
   inkscape:output_extension="org.inkscape.output.svg.inkscape">
  <sodipodi:namedview
     inkscape:window-height="590"
     inkscape:window-width="822"
     inkscape:pageshadow="2"
     inkscape:pageopacity="0.0"
     guidetolerance="10.0"
     gridtolerance="10.0"
     objecttolerance="10.0"
     borderopacity="1.0"
     bordercolor="#666666"
     pagecolor="#ffffff"
     id="base"
     inkscape:zoom="0.77893284"
     inkscape:cx="469.87363"
     inkscape:cy="238.3638"
     inkscape:window-x="178"
     inkscape:window-y="46"
     inkscape:current-layer="svg1926" />
  <metadata
     id="metadata24111">
    <rdf:RDF>
      <cc:Work
         rdf:about="">
        <dc:format>image/svg+xml</dc:format>
        <dc:type
           rdf:resource="http://purl.org/dc/dcmitype/StillImage" />
        <cc:license
           rdf:resource="http://web.resource.org/cc/PublicDomain" />
        <dc:title>Blank World Map</dc:title>
      </cc:Work>
      <cc:License
         rdf:about="http://web.resource.org/cc/PublicDomain">
        <cc:permits
           rdf:resource="http://web.resource.org/cc/Reproduction" />
        <cc:permits
           rdf:resource="http://web.resource.org/cc/Distribution" />
        <cc:permits
           rdf:resource="http://web.resource.org/cc/DerivativeWorks" />
      </cc:License>
    </rdf:RDF>
  </metadata>
  <defs
     id="defs1930" />
  <style
     type="text/css"
     id="style_css_sheet">
/*
 * Below are Cascading Style Sheet (CSS) definitions in use in this file,
 * which allow easily changing how countries are displayed.
 *
 */

/*
 * Circles around small countries
 *
 * Change opacity to 1 to display all circles.
 *
 */
.circle
{
   opacity:0;
   fill:#b9b9b9;
   fill-opacity:1;
   stroke:black;
   stroke-width:0.99986893;
   stroke-miterlimit:3.97446823;
   stroke-dasharray:none;
   stroke-opacity:1;
}

/*
 * Land
 */
.land
{
   fill: #b9b9b9;
   fill-opacity: 1;
   stroke: #ffffff;
   stroke-opacity: 1;
   stroke-width: 0.99986997;
   stroke-miterlimit: 3.97446823;
   stroke-dasharray: none;
}

/*
 * Additional style rules
 *
 * The following are examples of colouring countries.  You can substitute these with your own styles to colour the countries on the map.
 *
 * Color a few countries:
 *
 * .gb, .au, .nc
 * {
 *    fill:       #ff0000;
 * }
 *
 * Color a few small country circles (and the countries):
 *
 * .ms, .ky
 * {
 *    opacity:    1;
 *    fill:       #ff0000;
 * }
 *
 */

/*
 * Antarctica
 */

.aq
{
   fill:#e6e6e6;
}

/*
 * Sea
 */

.ocean
{
   opacity: 1;
   color: #000000;
   fill:white;
   fill-opacity:1;
   fill-rule:nonzero;
   stroke:#000000;
   stroke-width:0.5;
   stroke-linecap:butt;
   stroke-linejoin:miter;
   marker:none;
   marker-start:none;
   marker-mid:none;
   marker-end:none;
   stroke-miterlimit:1;
   stroke-dasharray:none;
   stroke-dashoffset:0;
   stroke-opacity:1;
   visibility:visible;
   display:inline;
   overflow:visible;
}

.lake
{
   fill:#ffffff;
   fill-opacity:1;
   stroke:#ffffff;
   stroke-opacity:1;
   stroke-width:0.99986997;
   stroke-miterlimit:3.97446823;
   stroke-dasharray:none;
}
</style>
  
  
  
  
  
  
  
  
  
  
  
  
  
  
  
  
  
  
  
  
  
  
  
  
  
  
  
  
  
  
  
  
  
  
  
  
  
  
  
  
  
  
  
  
  
  
  
  
  
  
  
  
  
  
  
  
  
  
  
  
  
  
  
  
  
  
  
  
  
  
  
  
  
  
  
  
  
  
  
  
  
  
  
  
  
  
  
  
  
  
  
  
  
  
  
  
  
  
  
  
  
  
  
  
  
  
  
  
  
  
  
  
  
  
  
  
  
  
  
  
  
  
  
  
  <g
     class="land kh"
     id="kh">
    <path
       d="M 2065.3343,669.2375 C 2064.9862,669.6925 2064.5375,669.9325 2063.9806,669.9585 C 2064.9208,670.7065 2064.9466,671.9905 2065.6346,672.9095 C 2065.3387,671.6795 2066.4613,670.2225 2065.3343,669.2375"
       id="path3472" />
    <path
       d="M 2057.8852,660.8855 C 2057.7404,660.8855 2057.5976,660.8855 2057.4527,660.8855 C 2057.5852,661.1765 2057.7573,661.4405 2057.9669,661.6775 C 2057.9397,661.4135 2057.9125,661.1495 2057.8852,660.8855"
       id="path6024" />
    <path
       d="M 2059.6532,667.2215 C 2060.0593,666.6125 2059.8623,666.3725 2059.0630,666.5015 C 2059.2415,666.7575 2059.4387,666.9965 2059.6532,667.2215"
       id="path6026" />
    <path
       d="M 2052.6730,644.4695 C 2052.7787,643.7155 2052.8223,642.9505 2052.6300,642.2375 C 2055.0285,642.3195 2056.4337,638.8875 2057.3718,637.1535 C 2058.3959,635.2605 2062.4545,634.1055 2064.0151,635.1535 C 2064.7820,635.6685 2066.1317,635.4185 2067.0415,635.1155 C 2068.2441,634.7145 2069.0776,635.3865 2070.3431,634.8965 C 2072.6261,634.0135 2073.5008,637.3255 2074.6942,635.3985 C 2074.4929,638.4145 2078.3575,636.3065 2079.3307,638.3075 C 2079.8068,639.2875 2081.8305,639.3375 2081.8131,637.8445 C 2081.8033,637.0205 2080.0794,636.0105 2081.2773,635.2405 C 2081.7793,634.9175 2082.1545,635.5685 2082.3874,634.8185 C 2082.5780,634.2065 2083.0739,634.4205 2083.5480,634.3805 C 2084.1434,634.3305 2084.1561,633.5145 2084.6518,633.4715 C 2085.3249,633.4145 2085.8906,634.3325 2086.3266,634.6775 C 2088.2407,636.1935 2091.3212,633.9785 2092.5726,632.3015 C 2092.5162,632.8545 2092.5589,633.4925 2092.2984,634.0295 C 2092.0116,634.6195 2091.0714,634.9045 2091.2137,635.6565 C 2091.3492,636.3715 2091.0675,637.1155 2091.1761,637.8355 C 2091.2898,638.5895 2091.7305,639.4855 2091.9428,640.2315 C 2092.4582,642.0355 2093.4790,642.7365 2092.6840,644.8925 C 2092.3332,645.8765 2091.7219,646.7655 2091.9967,647.7815 C 2092.2088,648.5685 2092.7104,649.3175 2092.7152,650.1675 C 2092.7200,650.9835 2092.2380,652.1355 2091.8389,652.8655 C 2091.2975,653.8545 2091.1790,652.5735 2090.3827,652.9805 C 2089.3835,653.4925 2088.6773,654.4375 2087.7243,655.0095 C 2086.3500,655.8335 2085.3237,655.6975 2083.8203,656.0625 C 2084.3897,656.8315 2083.7046,657.8185 2084.0887,658.6545 C 2083.2801,658.4955 2081.2599,657.0445 2080.5241,658.0405 C 2080.0417,658.6935 2079.1384,658.7915 2079.2444,659.6375 C 2079.3542,660.5295 2079.5779,661.5415 2079.9756,662.3295 C 2080.4395,663.2515 2082.1061,663.3015 2082.1699,664.6315 C 2081.2094,664.7695 2081.9773,665.4275 2081.8849,666.2155 C 2081.2329,666.0005 2080.4439,666.0225 2079.8705,665.6255 C 2079.3738,665.2815 2079.2258,664.2235 2078.4350,664.3745 C 2076.9260,664.6645 2074.8763,666.0885 2073.6207,664.7745 C 2072.7831,665.5645 2073.6310,666.6275 2072.5523,667.6085 C 2071.5056,668.5615 2070.6749,668.0845 2069.5219,668.5285 C 2068.6708,668.8565 2068.5056,669.3825 2067.5300,668.9515 C 2066.5696,668.5285 2064.5478,668.2325 2064.1355,667.2225 C 2064.3136,668.2905 2062.7709,669.0225 2062.0544,668.3265 C 2061.1074,667.4045 2062.0634,667.2075 2062.7202,666.5745 C 2063.4871,665.8335 2062.8066,663.8575 2062.2015,663.3405 C 2061.1205,662.4145 2060.7754,664.8335 2060.5336,665.4235 C 2059.8714,664.8245 2059.3526,665.6965 2058.7223,665.3755 C 2057.7686,664.8885 2058.5094,663.3165 2058.3414,662.5005 C 2058.1881,661.7585 2059.0145,660.6935 2058.2862,660.1535 C 2057.7789,659.7775 2056.7371,658.4695 2058.1096,658.2955 C 2057.5625,657.9935 2057.1455,658.2865 2056.9727,658.8715 C 2057.2670,657.6435 2056.3027,656.5505 2055.9707,655.4865 C 2055.6002,654.2965 2056.3663,652.6325 2055.7168,651.5695 C 2054.3279,649.2995 2053.3309,647.1475 2052.6730,644.4695"
       id="path6044" />
  </g>
  
  
  
  
  
  
  
  
  
  
  
  
  
  
  
  
  
  
  
  
  
  
  
  
  
  
  
  
  
  
  
  
  
  
  
  
  
  
  
  
  
  
  
  
  
  
  
  
  
  
  
  
  
  
  
  
  
  
  
  
  
  
  
  
  
  
  
  
  
  
  
  
  
  
  
  
  
  
  
  
  
  
  
  
  
  
  
  
  
  
  
  
  
  
  
  
  
  
  
  
  
  
  
  
  
  
  
</svg>
