<?xml version="1.0" encoding="UTF-8" standalone="no"?>
<svg
   xmlns:dc="http://purl.org/dc/elements/1.1/"
   xmlns:cc="http://web.resource.org/cc/"
   xmlns:rdf="http://www.w3.org/1999/02/22-rdf-syntax-ns#"
   xmlns:svg="http://www.w3.org/2000/svg"
   xmlns="http://www.w3.org/2000/svg"
   xmlns:sodipodi="http://sodipodi.sourceforge.net/DTD/sodipodi-0.dtd"
   xmlns:inkscape="http://www.inkscape.org/namespaces/inkscape"
   viewBox="0 0 2752.766 1537.631"
   version="1.0"
   height="476.7276"
   width="939.74725"
   id="svg1926"
   sodipodi:version="0.32"
   inkscape:version="0.45.1"
   sodipodi:docname="BlankMap-World6.svg"
   sodipodi:docbase="/home/bennett/Desktop"
   inkscape:output_extension="org.inkscape.output.svg.inkscape">
  <sodipodi:namedview
     inkscape:window-height="590"
     inkscape:window-width="822"
     inkscape:pageshadow="2"
     inkscape:pageopacity="0.0"
     guidetolerance="10.0"
     gridtolerance="10.0"
     objecttolerance="10.0"
     borderopacity="1.0"
     bordercolor="#666666"
     pagecolor="#ffffff"
     id="base"
     inkscape:zoom="0.77893284"
     inkscape:cx="469.87363"
     inkscape:cy="238.3638"
     inkscape:window-x="178"
     inkscape:window-y="46"
     inkscape:current-layer="svg1926" />
  <metadata
     id="metadata24111">
    <rdf:RDF>
      <cc:Work
         rdf:about="">
        <dc:format>image/svg+xml</dc:format>
        <dc:type
           rdf:resource="http://purl.org/dc/dcmitype/StillImage" />
        <cc:license
           rdf:resource="http://web.resource.org/cc/PublicDomain" />
        <dc:title>Blank World Map</dc:title>
      </cc:Work>
      <cc:License
         rdf:about="http://web.resource.org/cc/PublicDomain">
        <cc:permits
           rdf:resource="http://web.resource.org/cc/Reproduction" />
        <cc:permits
           rdf:resource="http://web.resource.org/cc/Distribution" />
        <cc:permits
           rdf:resource="http://web.resource.org/cc/DerivativeWorks" />
      </cc:License>
    </rdf:RDF>
  </metadata>
  <defs
     id="defs1930" />
  <style
     type="text/css"
     id="style_css_sheet">
/*
 * Below are Cascading Style Sheet (CSS) definitions in use in this file,
 * which allow easily changing how countries are displayed.
 *
 */

/*
 * Circles around small countries
 *
 * Change opacity to 1 to display all circles.
 *
 */
.circle
{
   opacity:0;
   fill:#b9b9b9;
   fill-opacity:1;
   stroke:black;
   stroke-width:0.99986893;
   stroke-miterlimit:3.97446823;
   stroke-dasharray:none;
   stroke-opacity:1;
}

/*
 * Land
 */
.land
{
   fill: #b9b9b9;
   fill-opacity: 1;
   stroke: #ffffff;
   stroke-opacity: 1;
   stroke-width: 0.99986997;
   stroke-miterlimit: 3.97446823;
   stroke-dasharray: none;
}

/*
 * Additional style rules
 *
 * The following are examples of colouring countries.  You can substitute these with your own styles to colour the countries on the map.
 *
 * Color a few countries:
 *
 * .gb, .au, .nc
 * {
 *    fill:       #ff0000;
 * }
 *
 * Color a few small country circles (and the countries):
 *
 * .ms, .ky
 * {
 *    opacity:    1;
 *    fill:       #ff0000;
 * }
 *
 */

/*
 * Antarctica
 */

.aq
{
   fill:#e6e6e6;
}

/*
 * Sea
 */

.ocean
{
   opacity: 1;
   color: #000000;
   fill:white;
   fill-opacity:1;
   fill-rule:nonzero;
   stroke:#000000;
   stroke-width:0.5;
   stroke-linecap:butt;
   stroke-linejoin:miter;
   marker:none;
   marker-start:none;
   marker-mid:none;
   marker-end:none;
   stroke-miterlimit:1;
   stroke-dasharray:none;
   stroke-dashoffset:0;
   stroke-opacity:1;
   visibility:visible;
   display:inline;
   overflow:visible;
}

.lake
{
   fill:#ffffff;
   fill-opacity:1;
   stroke:#ffffff;
   stroke-opacity:1;
   stroke-width:0.99986997;
   stroke-miterlimit:3.97446823;
   stroke-dasharray:none;
}
</style>
  
  
  
  
  
  
  
  
  
  
  
  
  
  
  
  
  
  
  
  
  
  
  
  
  
  
  
  
  
  
  
  
  
  
  
  
  
  
  
  
  
  
  
  
  
  
  
  
  
  
  
  
  
  
  
  
  
  
  
  
  
  
  
  
  
  
  
  
  
  
  
  
  
  
  
  
  
  
  
  
  
  
  
  
  
  
  
  
  
  
  
  
  
  
  
  
  
  
  
  
  
  
  
  
  
  
  
  
  
  
  
  
  
  
  
  
  
  
  
  
  
  
  
  
  
  <g
     class="land kr"
     id="kr">
    <path
       d="M 2236.9901,432.5015 C 2235.9054,432.9805 2236.2931,434.7245 2237.5990,433.9405 C 2237.6509,433.3365 2237.4600,432.8065 2236.9901,432.5015"
       id="path6028" />
    <path
       d="M 2236.4399,444.6695 C 2236.3886,444.2165 2236.1866,443.8565 2235.8339,443.5895 C 2235.6866,444.1335 2235.9245,444.5455 2236.4399,444.6695"
       id="path6030" />
    <path
       d="M 2235.7561,457.5575 C 2234.8712,458.1135 2234.9076,458.3775 2235.8629,458.3495 C 2235.8266,458.0855 2235.7924,457.8215 2235.7561,457.5575"
       id="path6032" />
    <path
       d="M 2236.0015,461.1565 C 2235.7322,460.8435 2235.3692,460.6275 2234.9111,460.5095 C 2233.4166,462.6395 2235.9672,462.0945 2236.0015,461.1565"
       id="path6034" />
    <path
       d="M 2239.8113,469.3655 C 2238.8076,469.2705 2233.5658,470.4985 2235.0835,471.9695 C 2236.6544,473.4945 2242.3931,470.0375 2239.8113,469.3655"
       id="path6036" />
    <path
       d="M 2238.0424,462.2375 C 2238.1077,462.6405 2238.4000,462.8085 2238.9038,462.7415 C 2238.9041,462.2355 2238.6253,462.0675 2238.0424,462.2375"
       id="path6038" />
    <path
       d="M 2247.4693,457.4855 C 2246.7475,458.9085 2247.6263,459.0705 2248.8921,459.0705 C 2249.0735,458.3355 2248.0639,457.6755 2247.4693,457.4855"
       id="path6040" />
    <path
       d="M 2252.1516,457.9175 C 2252.5356,459.8345 2255.1214,457.6155 2253.6752,456.9085 C 2253.3922,457.4985 2252.7774,457.8785 2252.1516,457.9175"
       id="path6042" />
    <path
       d="M 2237.6434,433.2215 C 2238.7258,432.4355 2238.6097,433.9145 2239.2581,434.0135 C 2237.1544,432.9685 2240.1376,429.4285 2242.6241,428.3775 C 2244.6757,427.5105 2246.3195,428.4435 2248.2208,428.1465 C 2248.8104,428.0545 2249.4299,428.1525 2250.0679,427.8365 C 2251.5978,427.0815 2250.8234,426.3965 2251.6941,425.5175 C 2253.5352,427.5135 2254.2384,430.3865 2255.8172,432.5805 C 2257.2472,434.5745 2258.8963,436.5335 2259.5905,438.9785 C 2260.1069,440.8055 2259.3155,442.7085 2259.2155,444.7615 C 2259.1875,445.3365 2259.1643,449.3865 2260.5208,447.4785 C 2260.9901,448.4835 2260.3818,451.3865 2259.4060,452.6635 C 2259.2343,452.4575 2259.0782,452.2405 2258.9330,452.0155 C 2258.7247,453.6585 2258.3226,455.4465 2255.9255,456.3355 C 2256.2366,455.4205 2253.8211,455.7475 2252.9218,455.1835 C 2253.1011,456.5125 2252.1008,455.5475 2251.3318,456.6955 C 2252.6191,456.1425 2252.1518,457.4965 2251.5654,458.2085 C 2251.5936,456.5325 2248.5354,458.0815 2248.9153,456.1205 C 2248.0732,457.7355 2246.5269,456.5815 2245.3985,457.8485 C 2245.6074,458.1815 2246.0863,458.3195 2246.3878,458.5725 C 2246.9420,459.0375 2245.4288,458.9605 2245.5045,460.0095 C 2244.9295,459.4465 2245.2099,458.4125 2244.6350,457.8495 C 2244.3086,458.2045 2243.9536,458.5405 2243.5722,458.8575 C 2243.8940,459.3795 2244.5607,459.7135 2244.5509,460.4415 C 2244.1610,460.4615 2243.7799,460.4615 2243.4078,460.4415 C 2243.6073,460.5925 2243.7865,460.7605 2243.9465,460.9455 C 2242.8806,462.0425 2242.4321,460.7005 2242.0953,460.2985 C 2243.0334,460.5265 2243.9791,458.7095 2242.6607,458.8585 C 2241.4935,458.9895 2240.3148,461.0145 2239.9016,461.8105 C 2239.3887,461.5835 2239.0388,461.2245 2238.8565,460.7305 C 2238.5287,461.4495 2237.9023,462.0905 2237.3785,462.7465 C 2236.5689,462.5345 2236.4646,461.6555 2237.2684,460.8755 C 2236.4838,460.9125 2234.5710,460.3205 2235.7867,459.2195 C 2235.7238,459.7465 2236.0192,460.1185 2236.5915,460.1555 C 2236.3674,459.3965 2236.6062,459.2055 2237.3097,459.5815 C 2236.9741,459.2695 2236.5674,459.0295 2236.0937,458.8595 C 2236.6374,458.9525 2237.1956,458.7845 2237.7664,458.3555 C 2237.6757,458.0905 2237.5163,457.8755 2237.2890,457.7085 C 2236.2504,459.6305 2235.5302,456.0255 2235.1546,455.6205 C 2235.5631,455.8085 2236.0402,455.8815 2236.5873,455.8365 C 2235.6477,455.1385 2236.6931,452.2665 2238.3949,451.7325 C 2237.8710,451.6935 2237.3680,451.6215 2236.8837,451.5165 C 2237.2474,451.0375 2237.7159,450.6905 2238.2919,450.4765 C 2238.8884,450.2065 2239.1701,449.3275 2239.6318,448.9245 C 2239.0257,449.0825 2238.4903,449.0825 2238.0233,448.9245 C 2238.5426,448.3585 2239.2208,447.8795 2239.9254,447.5565 C 2237.6490,449.1995 2236.2519,445.4785 2237.8720,444.0285 C 2236.6418,444.5155 2237.0583,443.7035 2237.2051,443.0395 C 2237.3591,442.3415 2236.2727,441.2765 2235.7053,442.6605 C 2235.5625,441.8145 2234.2995,441.8755 2234.4739,440.8605 C 2235.2484,440.8635 2235.7262,440.6325 2235.5181,439.8525 C 2235.5283,440.9155 2235.6822,440.9155 2235.9780,439.8525 C 2236.6556,439.7455 2236.9849,440.0625 2236.8149,440.6445 C 2237.5325,440.1205 2237.7205,439.6405 2237.3780,439.2055 C 2238.2064,440.0855 2239.8311,439.8935 2239.6221,441.5095 C 2239.6023,440.9095 2240.2990,440.4055 2240.9486,440.0695 C 2240.0957,440.2105 2239.2931,439.7345 2240.1043,438.8455 C 2238.6847,439.5275 2238.0891,437.0095 2240.0702,437.1895 C 2239.2046,436.9395 2238.7100,436.1615 2238.3320,435.5035 C 2238.3225,435.1375 2238.3372,434.7635 2238.3763,434.3815 C 2238.1943,433.8845 2237.5872,433.8755 2237.6434,433.2215"
       id="path6046" />
  </g>
  
  
  
  
  
  
  
  
  
  
  
  
  
  
  
  
  
  
  
  
  
  
  
  
  
  
  
  
  
  
  
  
  
  
  
  
  
  
  
  
  
  
  
  
  
  
  
  
  
  
  
  
  
  
  
  
  
  
  
  
  
  
  
  
  
  
  
  
  
  
  
  
  
  
  
  
  
  
  
  
  
  
  
  
  
  
  
  
  
  
  
  
  
  
  
  
  
  
  
  
  
  
  
  
  
  
</svg>
