<?xml version="1.0" encoding="UTF-8" standalone="no"?>
<svg
   xmlns:dc="http://purl.org/dc/elements/1.1/"
   xmlns:cc="http://web.resource.org/cc/"
   xmlns:rdf="http://www.w3.org/1999/02/22-rdf-syntax-ns#"
   xmlns:svg="http://www.w3.org/2000/svg"
   xmlns="http://www.w3.org/2000/svg"
   xmlns:sodipodi="http://sodipodi.sourceforge.net/DTD/sodipodi-0.dtd"
   xmlns:inkscape="http://www.inkscape.org/namespaces/inkscape"
   viewBox="0 0 2752.766 1537.631"
   version="1.0"
   height="476.7276"
   width="939.74725"
   id="svg1926"
   sodipodi:version="0.32"
   inkscape:version="0.45.1"
   sodipodi:docname="BlankMap-World6.svg"
   sodipodi:docbase="/home/bennett/Desktop"
   inkscape:output_extension="org.inkscape.output.svg.inkscape">
  <sodipodi:namedview
     inkscape:window-height="590"
     inkscape:window-width="822"
     inkscape:pageshadow="2"
     inkscape:pageopacity="0.0"
     guidetolerance="10.0"
     gridtolerance="10.0"
     objecttolerance="10.0"
     borderopacity="1.0"
     bordercolor="#666666"
     pagecolor="#ffffff"
     id="base"
     inkscape:zoom="0.77893284"
     inkscape:cx="469.87363"
     inkscape:cy="238.3638"
     inkscape:window-x="178"
     inkscape:window-y="46"
     inkscape:current-layer="svg1926" />
  <metadata
     id="metadata24111">
    <rdf:RDF>
      <cc:Work
         rdf:about="">
        <dc:format>image/svg+xml</dc:format>
        <dc:type
           rdf:resource="http://purl.org/dc/dcmitype/StillImage" />
        <cc:license
           rdf:resource="http://web.resource.org/cc/PublicDomain" />
        <dc:title>Blank World Map</dc:title>
      </cc:Work>
      <cc:License
         rdf:about="http://web.resource.org/cc/PublicDomain">
        <cc:permits
           rdf:resource="http://web.resource.org/cc/Reproduction" />
        <cc:permits
           rdf:resource="http://web.resource.org/cc/Distribution" />
        <cc:permits
           rdf:resource="http://web.resource.org/cc/DerivativeWorks" />
      </cc:License>
    </rdf:RDF>
  </metadata>
  <defs
     id="defs1930" />
  <style
     type="text/css"
     id="style_css_sheet">
/*
 * Below are Cascading Style Sheet (CSS) definitions in use in this file,
 * which allow easily changing how countries are displayed.
 *
 */

/*
 * Circles around small countries
 *
 * Change opacity to 1 to display all circles.
 *
 */
.circle
{
   opacity:0;
   fill:#b9b9b9;
   fill-opacity:1;
   stroke:black;
   stroke-width:0.99986893;
   stroke-miterlimit:3.97446823;
   stroke-dasharray:none;
   stroke-opacity:1;
}

/*
 * Land
 */
.land
{
   fill: #b9b9b9;
   fill-opacity: 1;
   stroke: #ffffff;
   stroke-opacity: 1;
   stroke-width: 0.99986997;
   stroke-miterlimit: 3.97446823;
   stroke-dasharray: none;
}

/*
 * Additional style rules
 *
 * The following are examples of colouring countries.  You can substitute these with your own styles to colour the countries on the map.
 *
 * Color a few countries:
 *
 * .gb, .au, .nc
 * {
 *    fill:       #ff0000;
 * }
 *
 * Color a few small country circles (and the countries):
 *
 * .ms, .ky
 * {
 *    opacity:    1;
 *    fill:       #ff0000;
 * }
 *
 */

/*
 * Antarctica
 */

.aq
{
   fill:#e6e6e6;
}

/*
 * Sea
 */

.ocean
{
   opacity: 1;
   color: #000000;
   fill:white;
   fill-opacity:1;
   fill-rule:nonzero;
   stroke:#000000;
   stroke-width:0.5;
   stroke-linecap:butt;
   stroke-linejoin:miter;
   marker:none;
   marker-start:none;
   marker-mid:none;
   marker-end:none;
   stroke-miterlimit:1;
   stroke-dasharray:none;
   stroke-dashoffset:0;
   stroke-opacity:1;
   visibility:visible;
   display:inline;
   overflow:visible;
}

.lake
{
   fill:#ffffff;
   fill-opacity:1;
   stroke:#ffffff;
   stroke-opacity:1;
   stroke-width:0.99986997;
   stroke-miterlimit:3.97446823;
   stroke-dasharray:none;
}
</style>
  
  
  
  
  
  
  
  
  
  
  
  
  
  
  
  
  
  
  
  
  
  
  
  
  
  
  
  
  
  
  
  
  
  
  
  
  
  
  
  
  
  
  
  
  
  
  
  
  
  
  
  
  
  
  
  
  
  
  
  
  
  
  
  
  
  
  
  
  
  
  
  
  
  
  
  
  
  
  
  
  
  
  
  
  
  
  
  
  
  
  
  
  
  
  
  
  
  
  
  
  
  
  
  
  
  
  
  
  
  
  
  
  
  
  
  
  
  
  
  
  
  
  
  
  
  
  
  
  
  
  
  
  
  
  
  
  
  
  
  
  
  
  
  
  
  
  
  
  
  
  
  
  <g
     class="land kz"
     id="kz">
    <path
       d="M 1626.8903,339.8376 C 1627.5154,338.7366 1627.6302,337.8646 1628.9559,337.1966 C 1629.6283,336.8576 1630.3064,336.0016 1630.0215,335.4146 C 1629.3660,334.0695 1628.1381,334.4056 1628.5151,332.5056 C 1628.9372,330.3716 1629.8204,330.3275 1631.3609,328.7215 C 1632.3913,327.6755 1631.8149,326.0446 1633.0996,325.1306 C 1635.9935,323.0756 1638.4237,329.6076 1640.4464,329.8456 C 1641.6585,329.9885 1645.2349,328.9346 1643.8316,327.6125 C 1642.7562,326.6005 1643.6473,323.7036 1641.9586,323.2056 C 1644.2486,323.7575 1644.9717,322.3585 1647.1664,321.7676 C 1649.3247,321.1866 1646.9028,319.7676 1649.0920,319.4235 C 1651.1186,319.1055 1653.0933,318.5476 1655.1554,317.7545 C 1656.9527,317.0655 1656.5737,314.3035 1658.8894,315.3576 C 1658.7973,314.8786 1658.7044,314.3976 1658.6119,313.9185 C 1659.3644,314.0636 1662.9220,314.5466 1662.9894,315.0865 C 1663.2539,317.2246 1665.1198,315.0056 1665.7183,316.4375 C 1666.5004,315.8016 1666.7387,315.0836 1667.7465,314.6375 C 1668.1219,314.6796 1668.5083,314.6785 1668.9088,314.6325 C 1669.4852,314.3195 1670.0765,314.0326 1670.6787,313.7736 C 1671.0075,318.1785 1676.9381,314.9076 1679.6293,316.7826 C 1680.9122,317.6785 1682.2339,318.2156 1683.5685,318.9946 C 1684.1171,319.3145 1684.4712,319.8275 1684.7506,320.3365 C 1685.1770,321.1135 1686.3287,321.1295 1687.1658,321.4776 C 1686.5674,322.0876 1686.1939,324.8236 1687.6754,324.1945 C 1689.9253,323.2396 1687.5412,321.2086 1687.4571,320.2545 C 1688.7434,319.6085 1690.5399,320.6375 1691.1105,321.3055 C 1692.1079,322.4755 1694.1261,322.4085 1695.0488,323.3426 C 1696.0676,324.3766 1697.2041,323.7966 1698.8011,322.7985 C 1699.3393,322.4626 1699.2892,321.8025 1699.8508,321.5186 C 1700.7089,321.0826 1701.8284,320.7425 1702.0486,319.8225 C 1702.6913,319.8576 1703.2143,320.0496 1703.6184,320.3986 C 1704.0238,319.3356 1707.5319,319.1576 1707.8285,319.9235 C 1708.0152,320.4026 1708.7048,320.8075 1709.1455,321.1015 C 1709.9359,321.6286 1711.0157,320.6665 1711.8559,321.0466 C 1712.4874,318.8926 1712.0993,319.5865 1714.4396,319.7076 C 1715.6547,319.7706 1716.4389,318.8725 1717.5548,319.5566 C 1718.3552,320.0496 1718.4929,320.6866 1718.6482,321.5066 C 1718.8622,322.6456 1726.5576,323.2135 1725.3489,324.3585 C 1726.3891,324.2996 1727.4805,324.1456 1728.2961,323.2795 C 1728.7575,322.7905 1728.5050,321.7536 1729.3713,321.4785 C 1730.5114,321.1166 1730.6438,322.3745 1731.2511,322.7036 C 1732.0388,323.1295 1733.6699,323.1205 1734.7190,323.1005 C 1735.9441,323.0775 1739.4418,322.6676 1740.1763,321.3446 C 1740.6419,320.5036 1740.3971,318.2566 1742.0507,318.0956 C 1740.9953,317.7625 1741.0420,316.6696 1739.7564,316.5326 C 1738.6706,316.4165 1737.3941,316.6535 1736.7112,315.9405 C 1736.0543,315.2566 1735.7154,315.0736 1734.4334,315.0675 C 1732.8523,315.0596 1733.0062,314.4995 1732.0854,313.7265 C 1731.4125,313.1635 1730.7483,313.0215 1729.7569,312.9305 C 1728.7959,312.8426 1728.9934,311.9366 1730.1194,312.0306 C 1730.9954,312.1035 1732.0715,311.0306 1732.9884,310.7905 C 1734.6858,310.3485 1735.5703,309.8035 1737.2129,309.1665 C 1736.8000,308.8836 1734.5408,306.5625 1734.6024,306.1816 C 1734.7424,305.3116 1737.4272,304.8915 1736.7313,303.8385 C 1739.1084,303.6186 1740.8850,304.0775 1743.1377,303.9816 C 1743.7695,303.9545 1744.6087,304.4975 1745.0697,303.6135 C 1745.5681,302.6596 1744.2514,302.4936 1743.5515,302.3275 C 1741.8279,301.9185 1739.8391,301.7065 1738.2247,301.1526 C 1736.0791,300.4176 1740.9124,299.5276 1741.0063,299.4466 C 1740.7057,298.7595 1740.1518,298.8526 1739.2770,299.0195 C 1737.9748,299.2686 1737.0214,298.6945 1736.1608,298.2235 C 1739.1314,298.0215 1737.3675,296.4255 1736.7357,295.8476 C 1737.3447,295.7525 1737.9068,295.7776 1738.4180,295.9196 C 1738.5045,294.4946 1742.3917,295.3986 1742.9516,295.6096 C 1744.1560,296.0645 1744.6452,295.4645 1746.0002,295.2715 C 1747.5238,295.0566 1747.3179,296.2065 1748.5415,296.2806 C 1748.9293,294.3716 1751.0705,294.6245 1752.7851,294.6245 C 1753.0027,294.3845 1753.2204,294.1445 1753.4410,293.9035 C 1754.0371,293.8286 1754.6106,293.8086 1755.1642,293.8456 C 1756.3610,293.8035 1757.2772,293.6905 1758.4373,293.7686 C 1759.6031,293.8465 1759.8123,292.7606 1761.0297,292.7455 C 1762.2655,292.7296 1763.5939,292.3125 1764.7477,292.5016 C 1765.5880,292.6395 1766.7118,291.8666 1767.3535,292.3786 C 1768.2205,293.0716 1768.4049,292.4486 1768.7437,291.6746 C 1769.7708,289.3256 1777.1755,289.9955 1778.9415,289.6716 C 1781.4142,289.2185 1784.4174,288.3596 1786.7439,288.3596 C 1787.6829,288.3596 1788.9157,287.4135 1789.4722,287.4525 C 1790.5029,287.5245 1791.5503,287.4816 1792.6888,286.7045 C 1791.9660,286.5876 1791.9988,285.6096 1792.8938,285.7115 C 1793.8525,285.8206 1795.6905,285.2326 1795.7490,284.2566 C 1796.3796,284.4246 1797.0764,284.4726 1797.8431,284.4006 C 1797.7041,284.1565 1797.5566,283.9176 1797.4044,283.6805 C 1798.2968,283.7176 1798.9229,284.1606 1799.7792,284.2545 C 1800.6671,284.3526 1801.7299,284.1545 1802.6529,284.3096 C 1803.2990,284.4176 1807.7981,286.8286 1808.7495,285.3496 C 1809.8429,283.6515 1812.1520,285.3775 1812.6418,286.0106 C 1813.0992,286.6026 1813.0047,287.1046 1813.0399,287.8705 C 1813.0834,288.8686 1814.3070,289.3295 1815.1468,289.8005 C 1813.5163,290.7926 1815.5290,292.9545 1812.9940,293.1125 C 1813.7762,294.7785 1815.5660,293.5716 1816.7083,294.3406 C 1817.3663,294.7835 1818.5387,294.2955 1819.0987,293.5745 C 1819.6993,292.8016 1821.2890,293.8336 1821.9152,293.7615 C 1821.4001,293.4855 1821.2982,292.9386 1821.7827,292.3216 C 1822.8007,292.7896 1822.9940,294.1916 1824.4056,294.2656 C 1822.8243,295.0156 1823.8957,295.2495 1824.0006,296.2095 C 1824.6723,295.7686 1825.3641,295.5516 1826.0720,295.5616 C 1825.9200,295.0636 1825.4199,294.7905 1824.5988,295.0575 C 1827.3705,292.0756 1830.2589,298.2835 1833.3833,294.7695 C 1833.7991,295.1895 1834.0091,295.7935 1833.6974,296.4975 C 1832.1675,296.3075 1831.4537,296.9846 1830.3716,298.0935 C 1829.6246,298.8576 1831.7243,299.4536 1831.6896,300.0985 C 1833.2255,299.2036 1834.3176,298.3496 1835.9923,298.4425 C 1837.2892,298.5136 1838.0681,299.6615 1839.2825,299.6676 C 1840.0610,297.5566 1841.4441,297.4735 1843.4896,296.9316 C 1844.4747,296.6705 1847.4334,295.7935 1846.8561,294.6995 C 1847.9149,294.6255 1849.0202,294.3936 1850.1369,294.0876 C 1850.8918,293.8745 1851.6481,293.6526 1852.4039,293.4255 C 1852.7970,293.1676 1853.1747,292.8965 1853.5380,292.6125 C 1854.1991,292.4416 1854.6702,292.9556 1855.3989,292.5136 C 1856.6037,291.7846 1856.9835,291.9506 1858.2756,291.6046 C 1857.8924,291.8566 1857.5230,292.1205 1857.1676,292.3965 C 1857.8749,292.5706 1857.8417,293.2466 1856.9988,293.8075 C 1855.9814,294.4855 1855.3944,293.9816 1854.3671,294.4115 C 1856.8457,296.7176 1860.4568,298.0405 1863.4946,299.8976 C 1866.5286,301.7595 1868.6170,304.3725 1870.7920,306.8476 C 1873.2579,309.6735 1875.4054,312.6696 1877.6592,315.6325 C 1879.0045,317.4126 1880.0744,321.6286 1882.8542,322.2045 C 1882.0194,320.8406 1886.4582,321.3195 1885.8422,319.6565 C 1885.3079,318.2285 1887.0230,318.8655 1887.5233,317.7396 C 1888.3028,318.0645 1891.2923,318.0476 1891.1733,318.9595 C 1891.0358,319.9946 1889.7660,320.9565 1891.8882,320.6205 C 1893.6179,320.3465 1892.9812,322.2645 1894.2321,322.4925 C 1894.8880,322.6125 1895.7552,322.2296 1896.4777,322.1696 C 1897.4978,322.0845 1898.0628,322.6676 1899.0874,322.6266 C 1900.9660,322.5525 1901.8448,322.1295 1903.6068,321.2265 C 1904.0367,321.0066 1904.6122,321.1875 1905.0062,321.1255 C 1905.7090,321.0145 1905.8959,320.4855 1906.5430,320.3336 C 1911.0700,319.2726 1913.3238,323.3736 1914.4917,325.5276 C 1915.1386,326.7255 1916.6860,326.8456 1918.1520,327.3005 C 1919.8597,327.8295 1920.0320,328.9755 1920.9073,330.1436 C 1921.2857,330.6476 1921.6438,330.9425 1921.8685,331.5376 C 1922.2070,332.4436 1923.0088,331.6836 1923.8459,331.9946 C 1924.9663,332.4106 1926.9518,331.9045 1928.0557,332.3795 C 1929.4458,332.9785 1929.8494,332.1495 1931.2545,331.4176 C 1931.5815,331.2475 1934.4561,329.8025 1933.4480,330.8875 C 1931.4714,333.0226 1937.6285,334.9076 1938.1350,336.2446 C 1936.9681,335.9635 1933.1085,335.5836 1933.6145,337.8265 C 1933.9648,339.3976 1932.7043,340.8086 1930.5051,341.5145 C 1928.8483,342.0466 1926.4376,341.2996 1925.4255,343.0956 C 1923.8332,345.9216 1924.6768,348.6076 1925.4905,350.8145 C 1926.3576,353.1836 1922.5925,353.3435 1920.8633,354.3446 C 1919.4594,355.1585 1919.0053,355.4106 1918.3805,354.3945 C 1917.7619,353.3926 1915.3815,353.8806 1914.0113,354.0206 C 1910.9233,354.3356 1909.4690,353.0786 1907.2132,352.2176 C 1905.0027,351.3736 1903.6729,356.6205 1903.2087,357.8915 C 1902.3028,360.3655 1900.9912,362.7756 1899.9626,365.2255 C 1898.9951,367.5836 1903.6724,366.3736 1902.0880,369.1245 C 1901.4147,370.2966 1900.5253,369.3956 1899.9899,369.1146 C 1899.0925,368.6445 1897.8818,369.4325 1896.8201,369.2505 C 1895.9634,369.1035 1895.8184,367.6886 1894.8163,368.0476 C 1893.4272,368.5466 1890.9701,369.3066 1889.6238,369.4456 C 1887.8041,369.6336 1882.9661,369.7976 1881.4463,371.5996 C 1880.3791,372.8666 1887.4508,372.0236 1885.4343,373.6746 C 1883.6072,375.1705 1885.6213,379.8555 1886.1400,380.9185 C 1886.6262,381.9185 1887.5421,383.0485 1887.4779,384.2976 C 1887.4410,385.1956 1888.5513,385.9685 1887.6694,387.0045 C 1886.9100,386.3675 1885.7246,387.3555 1884.9965,388.0125 C 1885.5074,388.2366 1885.9247,388.5476 1886.2440,388.9486 C 1885.4674,389.1146 1884.6772,389.4855 1883.9235,389.4525 C 1883.8249,390.1655 1883.3189,390.9456 1883.4231,391.6205 C 1883.5721,392.5926 1884.4876,393.5636 1883.6521,394.7806 C 1882.1892,393.8005 1881.7413,392.5906 1879.4616,392.5625 C 1877.2612,392.5365 1877.0091,390.9835 1875.6470,390.0605 C 1874.4823,389.2736 1871.5007,389.2896 1869.8968,389.1295 C 1867.2600,388.8655 1864.4507,388.9606 1861.7819,388.7536 C 1860.8932,388.6846 1860.3851,388.5446 1859.6628,388.2296 C 1858.6903,387.8046 1857.5286,388.4015 1856.3711,388.6356 C 1855.3215,388.8485 1850.0577,388.0106 1849.6536,388.6596 C 1847.9152,391.4515 1839.5050,386.2405 1837.6708,385.6365 C 1837.8566,386.2676 1834.2388,387.0005 1833.7485,387.2106 C 1831.7205,388.0786 1831.5890,391.7065 1832.4174,392.6916 C 1831.4179,392.9676 1830.6257,392.1836 1829.9328,391.8976 C 1828.8587,391.4536 1827.3877,391.4776 1826.2339,391.0996 C 1824.2044,390.4346 1821.7048,389.4015 1819.2984,389.4785 C 1818.6263,389.4995 1817.7122,390.0815 1817.2816,389.7416 C 1816.9870,389.5106 1815.6748,389.8245 1815.2865,390.0285 C 1814.3696,390.5125 1811.4008,394.0845 1812.9227,394.2765 C 1812.2413,394.6306 1810.8070,395.7436 1810.2202,395.9355 C 1809.0114,396.3315 1809.2255,395.1325 1807.8425,396.3385 C 1805.7356,398.1785 1803.8365,398.9875 1801.3147,400.0686 C 1800.4625,400.4346 1799.6012,400.9735 1798.8177,401.4816 C 1797.9363,402.0535 1798.7201,402.4375 1797.7932,403.1395 C 1796.8101,403.8856 1795.7993,404.4966 1794.9989,405.4495 C 1794.0078,406.6275 1795.1480,407.2985 1795.0279,408.3895 C 1793.7135,408.0005 1790.3476,407.8206 1790.9207,405.9586 C 1791.3131,404.6805 1790.5047,403.4176 1788.9752,403.3616 C 1786.4752,403.2706 1780.7824,405.3265 1779.8044,402.8035 C 1779.2622,401.2715 1779.3151,399.5245 1779.1035,397.8875 C 1778.8257,395.7486 1776.9602,397.1766 1775.7515,396.2335 C 1773.9053,394.7976 1775.5833,390.3485 1775.8742,388.1576 C 1773.5651,388.3426 1773.3565,388.5005 1772.3073,386.7486 C 1771.2805,385.0405 1769.2575,384.3786 1767.9850,382.8795 C 1766.3852,380.9785 1765.3146,382.7736 1762.8121,383.1606 C 1760.3018,383.5496 1758.0586,382.8965 1755.7359,382.7006 C 1755.5589,382.6857 1755.3804,382.6732 1755.2005,382.6632 C 1755.0207,382.6531 1754.8393,382.6454 1754.6567,382.6399 C 1754.4742,382.6344 1754.2904,382.6311 1754.1056,382.6301 C 1753.9206,382.6290 1753.7346,382.6300 1753.5477,382.6332 C 1753.3608,382.6363 1753.1729,382.6415 1752.9842,382.6486 C 1752.7955,382.6558 1752.6062,382.6649 1752.4161,382.6758 C 1752.2260,382.6868 1752.0353,382.6996 1751.8442,382.7141 C 1751.6529,382.7287 1751.4612,382.7450 1751.2693,382.7631 C 1751.0774,382.7810 1750.8850,382.8007 1750.6926,382.8219 C 1750.5001,382.8432 1750.3075,382.8660 1750.1149,382.8902 C 1749.9222,382.9145 1749.7297,382.9402 1749.5372,382.9673 C 1749.3447,382.9944 1749.1523,383.0229 1748.9602,383.0527 C 1748.7682,383.0824 1748.5765,383.1135 1748.3851,383.1456 C 1748.1938,383.1778 1748.0030,383.2112 1747.8126,383.2457 C 1747.6224,383.2801 1747.4328,383.3157 1747.2438,383.3522 C 1747.0550,383.3887 1746.8668,383.4262 1746.6796,383.4645 C 1743.7937,384.0575 1742.9446,382.0145 1741.2910,380.6755 C 1739.5906,379.3035 1738.6180,377.5666 1737.1369,376.0686 C 1735.4523,374.3705 1736.3073,374.9075 1734.0774,373.7485 C 1734.0677,373.7435 1734.9373,373.5354 1734.4119,372.8429 C 1733.8857,372.1505 1733.1016,371.5281 1732.3950,370.5937 C 1730.6934,367.8920 1732.4571,368.9469 1732.9346,366.3403 C 1732.9995,365.6249 1728.3939,365.6284 1728.2950,366.1000 C 1726.6037,365.4911 1727.1267,365.2098 1728.1928,364.9184 C 1727.8993,364.3715 1732.3289,365.5003 1731.9689,364.8206 C 1731.6118,364.1409 1730.8657,364.3238 1730.4840,363.5985 C 1730.1016,362.8731 1731.8837,364.1122 1731.5198,363.4283 C 1731.1552,362.7444 1730.0319,363.1257 1729.7252,362.5703 C 1730.2325,362.6107 1732.6832,362.3815 1730.8840,361.5585 C 1730.4912,361.3790 1727.8478,361.9803 1727.5538,361.8134 C 1727.8188,361.5885 1729.2686,359.8950 1725.6116,359.8104 C 1725.2747,359.6135 1727.2317,360.7208 1726.7952,362.0908 C 1726.5132,362.9763 1726.2308,364.5611 1726.0135,364.4282 C 1725.7961,364.2954 1725.8245,365.0286 1725.0355,364.5564 C 1724.2459,364.0843 1724.2056,364.6687 1723.4462,364.2152 C 1722.6862,363.7617 1724.6504,363.1256 1723.9804,362.7293 C 1723.3100,362.3329 1720.1953,363.8279 1719.6750,363.5273 C 1719.1544,363.2267 1719.2841,365.0504 1718.9743,364.8840 C 1716.7367,363.6840 1720.9001,365.4530 1717.7238,366.1690 C 1712.3118,367.3910 1703.9778,368.6925 1698.7305,370.7976 C 1697.7816,371.1785 1698.4595,383.0736 1698.4584,384.3485 C 1698.4791,390.2905 1698.4746,396.2355 1698.3661,402.1975 C 1697.3337,402.1716 1696.3049,402.8195 1695.2675,402.8206 C 1693.9649,402.8216 1693.0452,401.4176 1692.4638,400.6125 C 1691.0177,398.6166 1689.8482,396.4735 1687.5220,395.1836 C 1684.9415,393.7556 1683.2316,393.2566 1679.8014,394.0115 C 1676.5144,394.7346 1673.6127,396.2296 1671.2279,398.6696 C 1671.7115,397.3336 1670.6012,396.2305 1671.4641,394.8986 C 1672.3633,393.5106 1673.8207,391.7715 1672.4415,390.6046 C 1672.6461,390.7955 1672.8722,390.9635 1673.1231,391.1085 C 1674.6596,389.6585 1669.9822,389.2865 1669.1306,388.9515 C 1668.2419,388.6026 1667.4217,389.5005 1666.7155,388.7036 C 1666.1655,388.0836 1665.5822,387.3696 1665.3919,386.5435 C 1665.1173,385.3505 1662.2520,387.8145 1662.5671,385.0045 C 1662.6747,384.0446 1662.4768,383.4696 1661.7542,382.8686 C 1660.7611,382.0446 1660.5131,380.6936 1659.9795,379.5826 C 1659.2053,377.9776 1658.3346,377.1846 1656.3275,376.8395 C 1655.2511,376.6556 1653.0130,375.7326 1654.8292,374.3646 C 1656.0632,373.4375 1658.2670,373.8836 1659.4101,374.2015 C 1660.1073,374.3956 1660.4876,374.9946 1661.1733,375.1576 C 1662.1506,375.3886 1663.4673,374.8836 1664.5341,375.0525 C 1663.9831,373.7335 1661.5863,373.6236 1660.6086,372.6096 C 1659.6928,371.6606 1662.5003,368.6295 1663.8088,368.1696 C 1664.1890,368.0356 1665.8059,367.2505 1665.9923,367.2425 C 1666.3882,367.3326 1666.7516,367.4715 1667.0826,367.6596 C 1667.7162,367.8986 1668.7328,367.5315 1669.4421,367.4776 C 1671.9114,367.2926 1675.0056,369.1255 1677.4072,367.9955 C 1676.3307,367.4576 1674.1107,367.2466 1673.8237,365.9835 C 1673.4279,364.2285 1676.9702,362.0616 1676.8233,359.9316 C 1676.6847,357.9525 1675.8445,356.3736 1674.8753,354.9366 C 1674.4071,354.2425 1672.0045,353.9006 1671.0890,354.5496 C 1666.9429,357.4986 1662.2869,349.8616 1658.6241,354.4885 C 1658.4745,354.6766 1656.7215,354.7595 1656.5616,354.7425 C 1655.4472,354.6205 1655.1553,355.7795 1654.2642,356.2915 C 1653.4630,356.7516 1652.5824,357.0885 1651.7310,357.4325 C 1651.1796,357.6495 1650.6205,357.7736 1650.0535,357.8055 C 1649.1509,357.8476 1648.1610,356.7385 1648.8433,358.2036 C 1648.3748,357.8886 1647.8667,357.6245 1647.3149,357.4106 C 1647.5777,357.6995 1647.8418,357.9875 1648.1059,358.2745 C 1647.7415,358.1685 1647.4492,358.2645 1647.2284,358.5655 C 1646.7988,359.5686 1645.9639,358.4146 1646.7183,359.4266 C 1645.7437,359.0106 1640.8815,357.8806 1641.0657,356.6905 C 1641.3242,355.0236 1647.2478,357.7296 1643.8958,354.1855 C 1641.7504,351.9266 1640.7140,348.4696 1637.2198,347.4826 C 1636.0456,347.1515 1634.5036,346.7785 1633.1431,347.1545 C 1633.0809,347.1717 1633.0240,347.1910 1632.9718,347.2121 C 1632.9195,347.2331 1632.8719,347.2558 1632.8283,347.2797 C 1632.7846,347.3035 1632.7449,347.3285 1632.7084,347.3541 C 1632.6721,347.3797 1632.6389,347.4059 1632.6084,347.4321 C 1632.5780,347.4583 1632.5501,347.4846 1632.5242,347.5104 C 1632.4982,347.5362 1632.4743,347.5615 1632.4516,347.5858 C 1632.4289,347.6100 1632.4075,347.6333 1632.3867,347.6549 C 1632.3659,347.6766 1632.3457,347.6966 1632.3255,347.7145 C 1632.3052,347.7325 1632.2849,347.7483 1632.2638,347.7614 C 1632.2428,347.7746 1632.2210,347.7851 1632.1978,347.7923 C 1632.1746,347.7996 1632.1500,347.8036 1632.1233,347.8039 C 1632.0967,347.8042 1632.0679,347.8007 1632.0365,347.7930 C 1632.0049,347.7852 1631.9707,347.7732 1631.9330,347.7562 C 1631.8954,347.7393 1631.8543,347.7176 1631.8092,347.6904 C 1631.7640,347.6633 1631.7147,347.6308 1631.6607,347.5923 C 1631.6066,347.5538 1631.5478,347.5094 1631.4836,347.4586 C 1631.4420,347.4256 1631.4034,347.3910 1631.3677,347.3550 C 1631.3319,347.3189 1631.2989,347.2814 1631.2682,347.2426 C 1631.2377,347.2038 1631.2094,347.1637 1631.1832,347.1225 C 1631.1569,347.0814 1631.1327,347.0392 1631.1102,346.9960 C 1631.0875,346.9529 1631.0667,346.9089 1631.0469,346.8641 C 1631.0273,346.8194 1631.0089,346.7740 1630.9914,346.7280 C 1630.9739,346.6821 1630.9582,346.6356 1630.9433,346.5889 C 1630.9283,346.5421 1630.9139,346.4950 1630.8997,346.4478 C 1630.8854,346.4006 1630.8713,346.3532 1630.8570,346.3059 C 1630.8426,346.2587 1630.8280,346.2114 1630.8129,346.1645 C 1630.7978,346.1175 1630.7821,346.0708 1630.7653,346.0245 C 1630.7487,345.9782 1630.7309,345.9324 1630.7120,345.8872 C 1630.6930,345.8420 1630.6725,345.7975 1630.6504,345.7537 C 1630.6283,345.7100 1630.6045,345.6671 1630.5786,345.6252 C 1630.5526,345.5833 1630.5246,345.5424 1630.4941,345.5027 C 1630.4635,345.4631 1630.4305,345.4246 1630.3947,345.3875 C 1630.4141,345.3769 1630.4334,345.3663 1630.4528,345.3557 C 1630.4721,345.3451 1630.4914,345.3345 1630.5108,345.3239 C 1630.5301,345.3133 1630.5495,345.3027 1630.5689,345.2921 C 1630.5883,345.2816 1630.6077,345.2710 1630.6271,345.2604 C 1630.6465,345.2499 1630.6659,345.2393 1630.6853,345.2288 C 1630.7048,345.2182 1630.7242,345.2077 1630.7437,345.1971 C 1630.7630,345.1866 1630.7825,345.1761 1630.8019,345.1656 C 1630.8213,345.1551 1630.8409,345.1445 1630.8604,345.1341 C 1630.8798,345.1236 1630.8992,345.1131 1630.9187,345.1026 C 1630.9382,345.0921 1630.9577,345.0816 1630.9771,345.0711 C 1630.9967,345.0607 1631.0161,345.0502 1631.0356,345.0398 C 1631.0551,345.0293 1631.0745,345.0189 1631.0941,345.0084 C 1631.1135,344.9980 1631.1330,344.9876 1631.1526,344.9771 C 1631.1720,344.9667 1631.1916,344.9563 1631.2110,344.9459 C 1631.2305,344.9355 1631.2501,344.9251 1631.2695,344.9147 C 1631.2890,344.9043 1631.3084,344.8939 1631.3280,344.8836 C 1631.2990,344.8553 1631.2721,344.8264 1631.2468,344.7968 C 1631.2217,344.7673 1631.1983,344.7371 1631.1764,344.7064 C 1631.1546,344.6756 1631.1344,344.6443 1631.1156,344.6126 C 1631.0968,344.5808 1631.0793,344.5485 1631.0630,344.5158 C 1631.0468,344.4831 1631.0317,344.4500 1631.0175,344.4165 C 1631.0034,344.3830 1630.9903,344.3491 1630.9780,344.3150 C 1630.9656,344.2808 1630.9540,344.2464 1630.9430,344.2117 C 1630.9320,344.1770 1630.9216,344.1420 1630.9115,344.1069 C 1630.9015,344.0718 1630.8919,344.0365 1630.8823,344.0011 C 1630.8728,343.9658 1630.8634,343.9302 1630.8541,343.8947 C 1630.8446,343.8591 1630.8353,343.8236 1630.8256,343.7880 C 1630.8159,343.7524 1630.8060,343.7168 1630.7957,343.6814 C 1630.7854,343.6459 1630.7746,343.6105 1630.7632,343.5752 C 1630.7518,343.5400 1630.7397,343.5048 1630.7268,343.4699 C 1630.7140,343.4350 1630.7002,343.4004 1630.6854,343.3659 C 1630.6706,343.3315 1630.6547,343.2974 1630.6376,343.2636 C 1630.6224,343.2335 1630.6029,343.2052 1630.5801,343.1784 C 1630.5571,343.1517 1630.5307,343.1264 1630.5010,343.1026 C 1630.4713,343.0788 1630.4386,343.0564 1630.4031,343.0353 C 1630.3675,343.0142 1630.3293,342.9944 1630.2888,342.9758 C 1630.2483,342.9572 1630.2054,342.9397 1630.1608,342.9233 C 1630.1162,342.9069 1630.0696,342.8915 1630.0216,342.8771 C 1629.9737,342.8627 1629.9243,342.8492 1629.8740,342.8364 C 1629.8235,342.8237 1629.7721,342.8118 1629.7202,342.8005 C 1629.6683,342.7893 1629.6156,342.7787 1629.5630,342.7687 C 1629.5103,342.7587 1629.4576,342.7492 1629.4049,342.7401 C 1629.3524,342.7310 1629.3002,342.7224 1629.2487,342.7141 C 1629.1971,342.7057 1629.1463,342.6977 1629.0967,342.6898 C 1629.0470,342.6819 1628.9985,342.6742 1628.9515,342.6666 C 1628.9046,342.6589 1628.8593,342.6513 1628.8159,342.6436 C 1628.7725,342.6359 1628.7312,342.6282 1628.6923,342.6202 C 1628.6533,342.6122 1628.6169,342.6040 1628.5832,342.5956 C 1628.4695,342.5664 1628.3603,342.5373 1628.2560,342.5079 C 1628.1514,342.4786 1628.0517,342.4490 1627.9565,342.4188 C 1627.8614,342.3886 1627.7709,342.3577 1627.6853,342.3260 C 1627.5997,342.2942 1627.5188,342.2615 1627.4427,342.2275 C 1627.3667,342.1934 1627.2955,342.1581 1627.2291,342.1212 C 1627.1629,342.0842 1627.1014,342.0456 1627.0448,342.0049 C 1626.9884,341.9643 1626.9368,341.9217 1626.8902,341.8767 C 1626.8436,341.8318 1626.8020,341.7844 1626.7655,341.7344 C 1626.7289,341.6844 1626.6975,341.6317 1626.6712,341.5759 C 1626.6449,341.5202 1626.6237,341.4614 1626.6076,341.3992 C 1626.5916,341.3370 1626.5806,341.2714 1626.5750,341.2020 C 1626.5694,341.1327 1626.5689,341.0596 1626.5738,340.9824 C 1626.5787,340.9053 1626.5889,340.8240 1626.6043,340.7383 C 1626.6199,340.6526 1626.6408,340.5624 1626.6670,340.4675 C 1626.6934,340.3725 1626.7251,340.2728 1626.7623,340.1679 C 1626.7994,340.0631 1626.8421,339.9531 1626.8903,339.8376"
       id="path3898" />
    <path
       d="M 1721.3452,364.4110 C 1721.3961,364.9201 1721.6026,365.4690 1721.9223,365.8510 C 1723.4115,363.3580 1724.0509,368.1800 1724.2379,368.3711 C 1724.3403,367.7591 1724.4785,366.6331 1724.0103,366.2111 C 1726.6185,367.8115 1724.9263,369.1305 1724.8203,369.2848 L 1719.9574,366.5638 C 1720.1749,366.2001 1720.0561,365.1933 1721.5551,365.8813 C 1720.9359,365.4453 1720.8877,365.1691 1721.4217,364.4101"
       id="path7142" />
  </g>
  
  
  
  
  
  
  
  
  
  
  
  
  
  
  
  
  
  
  
  
  
  
  
  
  
  
  
  
  
  
  
  
  
  
  
  
  
  
  
  
  
  
  
  
  
  
  
  
  
  
  
  
  
  
  
  
  
  
  
  
  
  
  
  
  
  
  
  
  
  
  
  
  
  
  
  
  
  
  
</svg>
