<?xml version="1.0" encoding="UTF-8" standalone="no"?>
<svg
   xmlns:dc="http://purl.org/dc/elements/1.1/"
   xmlns:cc="http://web.resource.org/cc/"
   xmlns:rdf="http://www.w3.org/1999/02/22-rdf-syntax-ns#"
   xmlns:svg="http://www.w3.org/2000/svg"
   xmlns="http://www.w3.org/2000/svg"
   xmlns:sodipodi="http://sodipodi.sourceforge.net/DTD/sodipodi-0.dtd"
   xmlns:inkscape="http://www.inkscape.org/namespaces/inkscape"
   viewBox="0 0 2752.766 1537.631"
   version="1.0"
   height="476.7276"
   width="939.74725"
   id="svg1926"
   sodipodi:version="0.32"
   inkscape:version="0.45.1"
   sodipodi:docname="BlankMap-World6.svg"
   sodipodi:docbase="/home/bennett/Desktop"
   inkscape:output_extension="org.inkscape.output.svg.inkscape">
  <sodipodi:namedview
     inkscape:window-height="590"
     inkscape:window-width="822"
     inkscape:pageshadow="2"
     inkscape:pageopacity="0.0"
     guidetolerance="10.0"
     gridtolerance="10.0"
     objecttolerance="10.0"
     borderopacity="1.0"
     bordercolor="#666666"
     pagecolor="#ffffff"
     id="base"
     inkscape:zoom="0.77893284"
     inkscape:cx="469.87363"
     inkscape:cy="238.3638"
     inkscape:window-x="178"
     inkscape:window-y="46"
     inkscape:current-layer="svg1926" />
  <metadata
     id="metadata24111">
    <rdf:RDF>
      <cc:Work
         rdf:about="">
        <dc:format>image/svg+xml</dc:format>
        <dc:type
           rdf:resource="http://purl.org/dc/dcmitype/StillImage" />
        <cc:license
           rdf:resource="http://web.resource.org/cc/PublicDomain" />
        <dc:title>Blank World Map</dc:title>
      </cc:Work>
      <cc:License
         rdf:about="http://web.resource.org/cc/PublicDomain">
        <cc:permits
           rdf:resource="http://web.resource.org/cc/Reproduction" />
        <cc:permits
           rdf:resource="http://web.resource.org/cc/Distribution" />
        <cc:permits
           rdf:resource="http://web.resource.org/cc/DerivativeWorks" />
      </cc:License>
    </rdf:RDF>
  </metadata>
  <defs
     id="defs1930" />
  <style
     type="text/css"
     id="style_css_sheet">
/*
 * Below are Cascading Style Sheet (CSS) definitions in use in this file,
 * which allow easily changing how countries are displayed.
 *
 */

/*
 * Circles around small countries
 *
 * Change opacity to 1 to display all circles.
 *
 */
.circle
{
   opacity:0;
   fill:#b9b9b9;
   fill-opacity:1;
   stroke:black;
   stroke-width:0.99986893;
   stroke-miterlimit:3.97446823;
   stroke-dasharray:none;
   stroke-opacity:1;
}

/*
 * Land
 */
.land
{
   fill: #b9b9b9;
   fill-opacity: 1;
   stroke: #ffffff;
   stroke-opacity: 1;
   stroke-width: 0.99986997;
   stroke-miterlimit: 3.97446823;
   stroke-dasharray: none;
}

/*
 * Additional style rules
 *
 * The following are examples of colouring countries.  You can substitute these with your own styles to colour the countries on the map.
 *
 * Color a few countries:
 *
 * .gb, .au, .nc
 * {
 *    fill:       #ff0000;
 * }
 *
 * Color a few small country circles (and the countries):
 *
 * .ms, .ky
 * {
 *    opacity:    1;
 *    fill:       #ff0000;
 * }
 *
 */

/*
 * Antarctica
 */

.aq
{
   fill:#e6e6e6;
}

/*
 * Sea
 */

.ocean
{
   opacity: 1;
   color: #000000;
   fill:white;
   fill-opacity:1;
   fill-rule:nonzero;
   stroke:#000000;
   stroke-width:0.5;
   stroke-linecap:butt;
   stroke-linejoin:miter;
   marker:none;
   marker-start:none;
   marker-mid:none;
   marker-end:none;
   stroke-miterlimit:1;
   stroke-dasharray:none;
   stroke-dashoffset:0;
   stroke-opacity:1;
   visibility:visible;
   display:inline;
   overflow:visible;
}

.lake
{
   fill:#ffffff;
   fill-opacity:1;
   stroke:#ffffff;
   stroke-opacity:1;
   stroke-width:0.99986997;
   stroke-miterlimit:3.97446823;
   stroke-dasharray:none;
}
</style>
  
  
  
  
  
  
  
  
  
  
  
  
  
  
  
  
  
  
  
  
  
  
  
  
  
  
  
  
  
  
  
  
  
  
  
  
  
  
  
  
  
  
  
  
  
  
  
  
  
  
  
  
  
  
  
  
  
  
  
  
  
  
  
  
  
  
  
  
  
  
  
  
  
  
  
  
  
  
  
  
  
  
  
  
  
  
  
  
  
  
  
  
  
  
  
  
  
  
  
  
  
  
  
  
  
  
  
  
  
  
  
  
  
  
  
  
  
  
  
  
  
  
  
  
  
  
  
  
  
  
  
  
  
  
  
  
  
  
  
  <path
     class="land la"
     d="M 2035.4698,583.4855 C 2035.9349,582.3185 2035.8031,580.6476 2037.0439,579.8135 C 2037.7550,579.3356 2039.4154,579.8745 2039.6906,578.8056 C 2038.0501,579.6835 2039.6475,577.0445 2039.9095,576.5656 C 2040.3426,575.7736 2040.3975,575.3425 2041.3335,574.9606 C 2042.1229,574.6386 2043.6634,573.9005 2043.5905,572.9016 C 2044.7445,573.5956 2043.1816,576.9126 2045.5395,576.0186 C 2046.9190,575.4955 2046.8620,576.0925 2047.9295,576.5186 C 2049.4356,577.1196 2048.2869,575.2146 2048.2677,575.0915 C 2048.1111,574.0915 2048.8168,573.3655 2048.8302,572.4425 C 2048.8428,571.5186 2048.2051,570.6436 2047.7600,569.9285 C 2047.2584,569.1215 2046.8234,568.3456 2046.9190,567.2895 C 2046.9404,567.0516 2048.1290,564.4425 2048.4863,564.9696 C 2048.8461,565.4995 2048.7019,565.8166 2049.7199,565.5696 C 2051.2908,565.1875 2051.2861,566.2515 2052.0213,567.0996 C 2052.7985,567.9976 2053.7217,568.8415 2054.5573,569.6946 C 2055.1980,570.3475 2054.8814,571.8106 2055.8436,572.1096 C 2056.3358,571.6666 2056.5139,571.1626 2056.3767,570.5975 C 2056.4724,571.4926 2057.5542,571.3025 2057.6185,572.3116 C 2057.6843,573.3166 2056.8636,574.4936 2056.9923,575.6555 C 2057.3765,579.0506 2060.9934,579.2035 2063.3240,580.7495 C 2064.0911,579.9055 2063.9779,579.1176 2065.1852,578.6616 C 2066.6287,578.1165 2067.5584,578.6276 2068.5456,579.4105 C 2069.1175,579.8646 2069.9829,580.3715 2069.9813,581.2215 C 2069.9810,581.9715 2068.6222,581.9546 2068.3130,582.6935 C 2068.9504,582.9656 2070.2406,582.7666 2070.3695,583.6416 C 2070.4680,584.3116 2070.9841,584.2876 2071.4654,584.5656 C 2073.4998,585.7355 2072.6525,585.9456 2071.2896,587.5896 C 2072.7298,588.0136 2069.5458,589.7705 2068.4964,589.6105 C 2068.2409,589.5716 2065.7216,588.7776 2065.4549,589.3175 C 2065.1978,589.8356 2066.1764,590.7236 2065.8307,591.6226 C 2064.9682,591.6305 2063.9656,592.5716 2065.1245,592.9406 C 2067.0629,593.5595 2068.9598,595.4406 2070.5588,596.6745 C 2071.1888,597.1616 2074.5650,597.2265 2074.2954,598.4335 C 2074.1095,599.3805 2073.4498,599.6545 2074.1798,600.5585 C 2074.7161,601.2246 2075.6350,602.2655 2076.3737,602.2826 C 2077.1327,602.2995 2077.4490,603.6096 2077.6465,604.1445 C 2078.0975,605.3696 2078.8895,606.2755 2079.7130,607.2455 C 2080.1861,607.8035 2081.8214,610.4466 2082.6749,610.2056 C 2083.5052,609.9725 2083.8301,612.5685 2084.5791,612.9026 C 2085.4634,613.2966 2084.8578,615.1916 2085.3574,615.9596 C 2085.5224,616.2136 2085.8739,617.1956 2086.2204,617.2505 C 2086.6403,617.3175 2087.1566,616.8676 2087.5468,617.1086 C 2088.3375,617.5975 2087.9508,618.4066 2089.0154,618.6595 C 2090.0193,618.8966 2090.9534,620.4235 2092.0402,620.8525 C 2091.5518,621.7125 2090.3436,622.1025 2089.9091,622.9926 C 2089.4373,623.9596 2091.9632,625.2006 2092.2673,625.9035 C 2092.7289,626.9755 2093.9937,626.9715 2093.1779,628.5276 C 2092.9352,628.9896 2092.3534,629.4926 2092.2766,630.0136 C 2092.2060,630.4995 2092.7119,630.8346 2092.6378,631.4095 C 2092.4244,633.0416 2092.0067,633.2956 2090.6380,633.6086 C 2089.4613,633.8776 2088.9806,635.3786 2087.4043,635.4016 C 2085.8846,635.4245 2085.8237,633.4396 2084.8919,633.3095 C 2084.2740,633.2236 2084.4905,634.0735 2084.0543,634.2465 C 2083.6203,634.4185 2083.1402,634.4575 2082.6950,634.5706 C 2082.1739,634.7015 2080.6254,635.4295 2080.8983,636.0585 C 2081.2614,636.8916 2082.2785,637.8335 2081.3306,638.7805 C 2080.1718,639.9375 2078.1563,636.7096 2076.4065,637.3196 C 2075.4223,637.6626 2074.1195,635.9955 2075.1253,635.2315 C 2075.8776,634.6616 2077.2059,634.1315 2077.2149,633.0696 C 2077.2243,632.0825 2077.7823,630.6236 2077.6656,629.7835 C 2077.5869,629.2246 2076.6469,629.1585 2076.7204,628.5236 C 2076.7880,627.9396 2077.3536,627.4095 2077.6367,626.9026 C 2077.3359,627.0385 2077.0851,627.0226 2076.8831,626.8555 C 2076.8301,626.0476 2078.8470,624.9905 2077.7533,623.7495 C 2077.1606,623.0775 2074.5957,622.2816 2076.4148,621.1436 C 2073.7390,620.0545 2071.0917,618.1875 2071.0447,614.8976 C 2071.0076,612.3425 2072.3237,608.7636 2069.8497,607.2065 C 2067.3262,605.6186 2066.8662,601.7645 2063.7922,601.1015 C 2063.3954,601.0155 2058.1748,599.4525 2059.7525,601.4166 C 2058.4600,601.5915 2058.6247,603.3745 2057.9919,603.9366 C 2057.7434,604.1585 2056.4673,604.1825 2055.9068,604.6326 C 2055.0391,605.3306 2054.8248,604.5775 2054.3142,604.1685 C 2053.4622,603.4876 2052.0529,602.5045 2050.9840,602.1616 C 2049.8964,601.8125 2049.5902,604.0775 2048.3475,603.2885 C 2048.0184,605.2676 2045.4487,606.6455 2044.1249,608.0166 C 2043.5139,608.6495 2042.7933,608.2995 2042.2799,607.7006 C 2041.7094,607.0335 2042.3703,605.8045 2042.7438,605.1036 C 2043.3263,604.0105 2043.5511,603.2726 2043.5174,602.0865 C 2043.4972,601.3786 2042.9299,600.1626 2043.0900,599.5445 C 2043.3144,599.1866 2043.5828,598.8596 2043.8962,598.5656 C 2044.3449,597.9525 2043.9629,597.9335 2044.0990,597.3116 C 2044.3972,595.9496 2044.9747,595.1626 2044.4724,593.8596 C 2043.7642,592.0216 2045.1988,589.2275 2041.9098,590.0815 C 2041.5327,590.0796 2041.2301,590.2255 2040.9986,590.5226 C 2040.5861,591.2206 2040.5890,590.6155 2039.9714,590.7325 C 2038.8910,590.9385 2038.4707,590.5236 2038.1027,589.5305 C 2037.5780,588.1176 2039.7606,586.4055 2039.0748,585.3565 C 2038.7926,584.9256 2037.9874,583.5585 2037.5478,583.3425 C 2036.6712,582.9126 2036.3351,583.9915 2035.5149,584.2065 C 2035.5006,583.9656 2035.4852,583.7255 2035.4698,583.4855"
     id="la" />
  
  
  
  
  
  
  
  
  
  
  
  
  
  
  
  
  
  
  
  
  
  
  
  
  
  
  
  
  
  
  
  
  
  
  
  
  
  
  
  
  
  
  
  
  
  
  
  
  
  
  
  
  
  
  
  
  
  
  
  
  
  
  
  
  
  
  
  
  
  
  
  
  
  
  
  
  
  
  
  
  
  
  
  
  
  
  
  
  
  
  
  
</svg>
