<?xml version="1.0" encoding="UTF-8" standalone="no"?>
<svg
   xmlns:dc="http://purl.org/dc/elements/1.1/"
   xmlns:cc="http://web.resource.org/cc/"
   xmlns:rdf="http://www.w3.org/1999/02/22-rdf-syntax-ns#"
   xmlns:svg="http://www.w3.org/2000/svg"
   xmlns="http://www.w3.org/2000/svg"
   xmlns:sodipodi="http://sodipodi.sourceforge.net/DTD/sodipodi-0.dtd"
   xmlns:inkscape="http://www.inkscape.org/namespaces/inkscape"
   viewBox="0 0 2752.766 1537.631"
   version="1.0"
   height="476.7276"
   width="939.74725"
   id="svg1926"
   sodipodi:version="0.32"
   inkscape:version="0.45.1"
   sodipodi:docname="BlankMap-World6.svg"
   sodipodi:docbase="/home/bennett/Desktop"
   inkscape:output_extension="org.inkscape.output.svg.inkscape">
  <sodipodi:namedview
     inkscape:window-height="590"
     inkscape:window-width="822"
     inkscape:pageshadow="2"
     inkscape:pageopacity="0.0"
     guidetolerance="10.0"
     gridtolerance="10.0"
     objecttolerance="10.0"
     borderopacity="1.0"
     bordercolor="#666666"
     pagecolor="#ffffff"
     id="base"
     inkscape:zoom="0.77893284"
     inkscape:cx="469.87363"
     inkscape:cy="238.3638"
     inkscape:window-x="178"
     inkscape:window-y="46"
     inkscape:current-layer="svg1926" />
  <metadata
     id="metadata24111">
    <rdf:RDF>
      <cc:Work
         rdf:about="">
        <dc:format>image/svg+xml</dc:format>
        <dc:type
           rdf:resource="http://purl.org/dc/dcmitype/StillImage" />
        <cc:license
           rdf:resource="http://web.resource.org/cc/PublicDomain" />
        <dc:title>Blank World Map</dc:title>
      </cc:Work>
      <cc:License
         rdf:about="http://web.resource.org/cc/PublicDomain">
        <cc:permits
           rdf:resource="http://web.resource.org/cc/Reproduction" />
        <cc:permits
           rdf:resource="http://web.resource.org/cc/Distribution" />
        <cc:permits
           rdf:resource="http://web.resource.org/cc/DerivativeWorks" />
      </cc:License>
    </rdf:RDF>
  </metadata>
  <defs
     id="defs1930" />
  <style
     type="text/css"
     id="style_css_sheet">
/*
 * Below are Cascading Style Sheet (CSS) definitions in use in this file,
 * which allow easily changing how countries are displayed.
 *
 */

/*
 * Circles around small countries
 *
 * Change opacity to 1 to display all circles.
 *
 */
.circle
{
   opacity:0;
   fill:#b9b9b9;
   fill-opacity:1;
   stroke:black;
   stroke-width:0.99986893;
   stroke-miterlimit:3.97446823;
   stroke-dasharray:none;
   stroke-opacity:1;
}

/*
 * Land
 */
.land
{
   fill: #b9b9b9;
   fill-opacity: 1;
   stroke: #ffffff;
   stroke-opacity: 1;
   stroke-width: 0.99986997;
   stroke-miterlimit: 3.97446823;
   stroke-dasharray: none;
}

/*
 * Additional style rules
 *
 * The following are examples of colouring countries.  You can substitute these with your own styles to colour the countries on the map.
 *
 * Color a few countries:
 *
 * .gb, .au, .nc
 * {
 *    fill:       #ff0000;
 * }
 *
 * Color a few small country circles (and the countries):
 *
 * .ms, .ky
 * {
 *    opacity:    1;
 *    fill:       #ff0000;
 * }
 *
 */

/*
 * Antarctica
 */

.aq
{
   fill:#e6e6e6;
}

/*
 * Sea
 */

.ocean
{
   opacity: 1;
   color: #000000;
   fill:white;
   fill-opacity:1;
   fill-rule:nonzero;
   stroke:#000000;
   stroke-width:0.5;
   stroke-linecap:butt;
   stroke-linejoin:miter;
   marker:none;
   marker-start:none;
   marker-mid:none;
   marker-end:none;
   stroke-miterlimit:1;
   stroke-dasharray:none;
   stroke-dashoffset:0;
   stroke-opacity:1;
   visibility:visible;
   display:inline;
   overflow:visible;
}

.lake
{
   fill:#ffffff;
   fill-opacity:1;
   stroke:#ffffff;
   stroke-opacity:1;
   stroke-width:0.99986997;
   stroke-miterlimit:3.97446823;
   stroke-dasharray:none;
}
</style>
  
  
  
  
  
  
  
  
  
  
  
  
  
  
  
  
  
  
  
  
  
  
  
  
  
  
  
  
  
  
  
  
  
  
  
  
  
  
  
  
  
  
  
  
  
  
  
  
  
  
  
  
  
  
  
  
  
  
  
  
  
  
  
  
  
  
  
  
  
  
  
  
  
  
  
  
  
  
  
  
  
  
  
  
  
  
  
  
  
  
  
  
  
  
  
  
  
  
  
  
  
  
  
  
  
  
  
  
  
  
  
  
  
  
  
  
  
  
  
  
  
  
  
  
  
  
  
  
  
  
  
  
  
  
  
  <path
     class="land lt"
     d="M 1431.3372,278.4925 C 1432.5497,278.6565 1432.9403,277.5965 1433.8130,277.1255 C 1434.7657,276.6116 1436.3872,276.4425 1437.4491,276.2416 C 1440.2108,275.7196 1443.3975,275.6925 1446.1566,275.8286 C 1447.1067,275.8755 1446.3709,276.7826 1447.5475,276.2296 C 1448.4209,275.8195 1450.3349,276.2036 1451.2447,276.2686 C 1453.0353,276.3956 1456.8074,277.6476 1458.4434,276.4735 C 1460.5867,274.9405 1460.9342,276.3856 1462.4252,277.2246 C 1463.3169,277.7265 1464.4105,277.6986 1465.4757,277.8326 C 1466.8962,278.0115 1467.7495,278.7575 1468.7822,279.4606 C 1469.4451,279.9096 1474.0069,281.7676 1473.7938,282.2926 C 1472.9185,284.4495 1473.0164,284.3086 1475.2936,284.8286 C 1473.7732,285.4165 1474.6961,286.4056 1472.7380,286.0765 C 1471.2339,285.8236 1470.9884,287.2706 1469.7111,287.5815 C 1465.9873,288.4835 1468.1926,290.4816 1465.6800,292.5335 C 1466.2233,292.7296 1467.3728,292.8086 1467.4421,293.4685 C 1467.5234,294.2645 1466.2398,294.4325 1465.6292,294.2606 C 1466.4733,292.7856 1463.3538,293.1356 1463.1696,293.4325 C 1462.3226,294.8105 1460.7404,293.9235 1459.7733,295.3166 C 1459.4462,295.8025 1458.0166,295.8096 1457.3761,296.0915 C 1456.3005,296.5675 1454.4566,295.9515 1453.2945,296.0415 C 1452.7196,296.0856 1450.3131,296.4185 1450.1917,295.6066 C 1450.0561,294.6415 1449.7153,293.9536 1448.6423,293.5276 C 1447.5751,293.1046 1446.5886,292.5396 1445.4874,292.1716 C 1445.0314,292.0195 1444.1982,292.4626 1443.9863,291.9275 C 1443.4022,290.4565 1445.8992,288.7856 1444.1654,287.6785 C 1444.3182,287.7756 1442.9689,286.6076 1443.1660,286.6726 C 1442.2508,286.3716 1439.9876,286.6426 1438.8897,286.5826 C 1437.3936,286.5005 1434.2576,284.4685 1432.9905,285.1866 C 1433.1410,284.1196 1432.7581,282.9536 1432.1881,282.0476 C 1431.4841,280.9405 1431.7125,279.6816 1431.3372,278.4925"
     id="lt" />
  
  
  
  
  
  
  
  
  
  
  
  
  
  
  
  
  
  
  
  
  
  
  
  
  
  
  
  
  
  
  
  
  
  
  
  
  
  
  
  
  
  
  
  
  
  
  
  
  
  
  
  
  
  
  
  
  
  
  
  
  
  
  
  
  
  
  
  
  
  
  
  
  
  
  
  
  
  
  
  
  
  
  
  
  
  
  
  
  
  
  
  
  
  
  
  
</svg>
