<?xml version="1.0" encoding="UTF-8" standalone="no"?>
<svg
   xmlns:dc="http://purl.org/dc/elements/1.1/"
   xmlns:cc="http://web.resource.org/cc/"
   xmlns:rdf="http://www.w3.org/1999/02/22-rdf-syntax-ns#"
   xmlns:svg="http://www.w3.org/2000/svg"
   xmlns="http://www.w3.org/2000/svg"
   xmlns:sodipodi="http://sodipodi.sourceforge.net/DTD/sodipodi-0.dtd"
   xmlns:inkscape="http://www.inkscape.org/namespaces/inkscape"
   viewBox="0 0 2752.766 1537.631"
   version="1.0"
   height="476.7276"
   width="939.74725"
   id="svg1926"
   sodipodi:version="0.32"
   inkscape:version="0.45.1"
   sodipodi:docname="BlankMap-World6.svg"
   sodipodi:docbase="/home/bennett/Desktop"
   inkscape:output_extension="org.inkscape.output.svg.inkscape">
  <sodipodi:namedview
     inkscape:window-height="590"
     inkscape:window-width="822"
     inkscape:pageshadow="2"
     inkscape:pageopacity="0.0"
     guidetolerance="10.0"
     gridtolerance="10.0"
     objecttolerance="10.0"
     borderopacity="1.0"
     bordercolor="#666666"
     pagecolor="#ffffff"
     id="base"
     inkscape:zoom="0.77893284"
     inkscape:cx="469.87363"
     inkscape:cy="238.3638"
     inkscape:window-x="178"
     inkscape:window-y="46"
     inkscape:current-layer="svg1926" />
  <metadata
     id="metadata24111">
    <rdf:RDF>
      <cc:Work
         rdf:about="">
        <dc:format>image/svg+xml</dc:format>
        <dc:type
           rdf:resource="http://purl.org/dc/dcmitype/StillImage" />
        <cc:license
           rdf:resource="http://web.resource.org/cc/PublicDomain" />
        <dc:title>Blank World Map</dc:title>
      </cc:Work>
      <cc:License
         rdf:about="http://web.resource.org/cc/PublicDomain">
        <cc:permits
           rdf:resource="http://web.resource.org/cc/Reproduction" />
        <cc:permits
           rdf:resource="http://web.resource.org/cc/Distribution" />
        <cc:permits
           rdf:resource="http://web.resource.org/cc/DerivativeWorks" />
      </cc:License>
    </rdf:RDF>
  </metadata>
  <defs
     id="defs1930" />
  <style
     type="text/css"
     id="style_css_sheet">
/*
 * Below are Cascading Style Sheet (CSS) definitions in use in this file,
 * which allow easily changing how countries are displayed.
 *
 */

/*
 * Circles around small countries
 *
 * Change opacity to 1 to display all circles.
 *
 */
.circle
{
   opacity:0;
   fill:#b9b9b9;
   fill-opacity:1;
   stroke:black;
   stroke-width:0.99986893;
   stroke-miterlimit:3.97446823;
   stroke-dasharray:none;
   stroke-opacity:1;
}

/*
 * Land
 */
.land
{
   fill: #b9b9b9;
   fill-opacity: 1;
   stroke: #ffffff;
   stroke-opacity: 1;
   stroke-width: 0.99986997;
   stroke-miterlimit: 3.97446823;
   stroke-dasharray: none;
}

/*
 * Additional style rules
 *
 * The following are examples of colouring countries.  You can substitute these with your own styles to colour the countries on the map.
 *
 * Color a few countries:
 *
 * .gb, .au, .nc
 * {
 *    fill:       #ff0000;
 * }
 *
 * Color a few small country circles (and the countries):
 *
 * .ms, .ky
 * {
 *    opacity:    1;
 *    fill:       #ff0000;
 * }
 *
 */

/*
 * Antarctica
 */

.aq
{
   fill:#e6e6e6;
}

/*
 * Sea
 */

.ocean
{
   opacity: 1;
   color: #000000;
   fill:white;
   fill-opacity:1;
   fill-rule:nonzero;
   stroke:#000000;
   stroke-width:0.5;
   stroke-linecap:butt;
   stroke-linejoin:miter;
   marker:none;
   marker-start:none;
   marker-mid:none;
   marker-end:none;
   stroke-miterlimit:1;
   stroke-dasharray:none;
   stroke-dashoffset:0;
   stroke-opacity:1;
   visibility:visible;
   display:inline;
   overflow:visible;
}

.lake
{
   fill:#ffffff;
   fill-opacity:1;
   stroke:#ffffff;
   stroke-opacity:1;
   stroke-width:0.99986997;
   stroke-miterlimit:3.97446823;
   stroke-dasharray:none;
}
</style>
  
  
  
  
  
  
  
  
  
  
  
  
  
  
  
  
  
  
  
  
  
  
  
  
  
  
  
  
  
  
  
  
  
  
  
  
  
  
  
  
  
  
  
  
  
  
  
  
  
  
  
  
  
  
  
  
  
  
  
  <path
     class="land lv"
     d="M 1431.0470,274.9656 C 1431.1425,275.2056 1431.2368,275.4445 1431.3320,275.6855 C 1431.3292,274.4355 1431.0927,273.1186 1432.2583,272.0575 C 1432.7588,271.6026 1433.6029,271.2806 1433.8539,270.6655 C 1434.1690,269.8936 1433.9702,269.2255 1434.5389,268.4635 C 1435.6393,266.9925 1436.8892,266.3166 1438.8724,265.9255 C 1439.8264,265.7375 1442.4725,264.5136 1443.1336,265.2446 C 1444.1794,266.4045 1445.3966,266.9096 1446.6093,267.9035 C 1447.9838,269.0326 1448.4366,270.5295 1450.4738,271.0806 C 1452.0785,271.5156 1453.7552,270.9475 1455.2024,270.1615 C 1457.3000,269.0236 1457.1808,267.6596 1456.5430,266.0256 C 1456.2891,265.3795 1456.0315,264.6676 1456.2975,263.9495 C 1457.0219,264.1236 1457.8405,263.6796 1458.4706,263.3965 C 1459.7252,262.8345 1462.1389,262.0276 1463.3037,262.6735 C 1464.0751,263.1015 1465.6921,262.9785 1466.7094,263.4676 C 1468.2304,264.1966 1469.5677,264.3976 1470.8514,265.4545 C 1471.8985,266.3186 1472.9216,266.8336 1474.4950,266.2156 C 1476.2509,265.5265 1477.9769,266.4805 1479.7008,266.6105 C 1480.7353,266.6886 1482.3992,267.8806 1483.1825,268.4266 C 1483.6085,268.7246 1482.1873,271.7326 1481.8040,272.0845 C 1484.4504,271.8256 1483.0470,273.0276 1484.1362,273.3845 C 1485.4166,273.8046 1485.9476,275.6766 1486.0288,276.7196 C 1486.1117,277.8035 1484.9405,277.8136 1483.9463,278.2045 C 1483.1944,278.5005 1482.5205,279.1255 1481.9913,279.6436 C 1481.6942,279.9355 1481.8565,280.5985 1481.3946,280.7955 C 1479.9166,281.4266 1478.5412,279.9425 1476.9025,280.5895 C 1475.0115,281.3365 1473.9121,282.2086 1471.9581,281.2525 C 1470.3483,280.4665 1468.9264,279.4475 1467.4389,278.5315 C 1466.0032,277.6476 1463.9746,278.0946 1462.5467,277.2976 C 1461.2948,276.6005 1461.2128,275.1046 1459.2773,275.9905 C 1457.5968,276.7606 1457.0494,276.7305 1455.2888,276.8705 C 1453.7133,276.9955 1451.9464,276.1526 1450.2414,276.1735 C 1448.4626,276.1945 1447.2574,276.4416 1445.6902,275.9486 C 1444.6889,275.6345 1442.6863,275.8256 1441.5565,275.8256 C 1439.7902,275.8256 1438.2091,276.0586 1436.4702,276.3995 C 1435.3661,276.6155 1433.3469,276.8845 1432.7823,277.8845 C 1432.4119,278.5415 1431.8884,278.7106 1431.3941,278.1545 C 1430.5301,277.1905 1430.8425,276.1155 1431.0470,274.9656"
     id="lv" />
  
  
  
  
  
  
  
  
  
  
  
  
  
  
  
  
  
  
  
  
  
  
  
  
  
  
  
  
  
  
  
  
  
  
  
  
  
  
  
  
  
  
  
  
  
  
  
  
  
  
  
  
  
  
  
  
  
  
  
  
  
  
  
  
  
  
  
  
  
  
  
  
  
  
  
  
  
  
  
  
  
  
  
  
  
  
  
  
  
  
  
  
  
  
  
  
  
  
  
  
  
  
  
  
  
  
  
  
  
  
  
  
  
  
  
  
  
  
  
  
  
  
  
  
  
  
  
  
  
  
  
  
  
  
  
  
  
  
  
  
  
  
  
  
  
  
  
  
  
  
  
  
  
  
  
  
  
  
  
  
  
  
  
  
  
  
  
  
  
  
  
  
</svg>
