<?xml version="1.0" encoding="UTF-8" standalone="no"?>
<svg
   xmlns:dc="http://purl.org/dc/elements/1.1/"
   xmlns:cc="http://web.resource.org/cc/"
   xmlns:rdf="http://www.w3.org/1999/02/22-rdf-syntax-ns#"
   xmlns:svg="http://www.w3.org/2000/svg"
   xmlns="http://www.w3.org/2000/svg"
   xmlns:sodipodi="http://sodipodi.sourceforge.net/DTD/sodipodi-0.dtd"
   xmlns:inkscape="http://www.inkscape.org/namespaces/inkscape"
   viewBox="0 0 2752.766 1537.631"
   version="1.0"
   height="476.7276"
   width="939.74725"
   id="svg1926"
   sodipodi:version="0.32"
   inkscape:version="0.45.1"
   sodipodi:docname="BlankMap-World6.svg"
   sodipodi:docbase="/home/bennett/Desktop"
   inkscape:output_extension="org.inkscape.output.svg.inkscape">
  <sodipodi:namedview
     inkscape:window-height="590"
     inkscape:window-width="822"
     inkscape:pageshadow="2"
     inkscape:pageopacity="0.0"
     guidetolerance="10.0"
     gridtolerance="10.0"
     objecttolerance="10.0"
     borderopacity="1.0"
     bordercolor="#666666"
     pagecolor="#ffffff"
     id="base"
     inkscape:zoom="0.77893284"
     inkscape:cx="469.87363"
     inkscape:cy="238.3638"
     inkscape:window-x="178"
     inkscape:window-y="46"
     inkscape:current-layer="svg1926" />
  <metadata
     id="metadata24111">
    <rdf:RDF>
      <cc:Work
         rdf:about="">
        <dc:format>image/svg+xml</dc:format>
        <dc:type
           rdf:resource="http://purl.org/dc/dcmitype/StillImage" />
        <cc:license
           rdf:resource="http://web.resource.org/cc/PublicDomain" />
        <dc:title>Blank World Map</dc:title>
      </cc:Work>
      <cc:License
         rdf:about="http://web.resource.org/cc/PublicDomain">
        <cc:permits
           rdf:resource="http://web.resource.org/cc/Reproduction" />
        <cc:permits
           rdf:resource="http://web.resource.org/cc/Distribution" />
        <cc:permits
           rdf:resource="http://web.resource.org/cc/DerivativeWorks" />
      </cc:License>
    </rdf:RDF>
  </metadata>
  <defs
     id="defs1930" />
  <style
     type="text/css"
     id="style_css_sheet">
/*
 * Below are Cascading Style Sheet (CSS) definitions in use in this file,
 * which allow easily changing how countries are displayed.
 *
 */

/*
 * Circles around small countries
 *
 * Change opacity to 1 to display all circles.
 *
 */
.circle
{
   opacity:0;
   fill:#b9b9b9;
   fill-opacity:1;
   stroke:black;
   stroke-width:0.99986893;
   stroke-miterlimit:3.97446823;
   stroke-dasharray:none;
   stroke-opacity:1;
}

/*
 * Land
 */
.land
{
   fill: #b9b9b9;
   fill-opacity: 1;
   stroke: #ffffff;
   stroke-opacity: 1;
   stroke-width: 0.99986997;
   stroke-miterlimit: 3.97446823;
   stroke-dasharray: none;
}

/*
 * Additional style rules
 *
 * The following are examples of colouring countries.  You can substitute these with your own styles to colour the countries on the map.
 *
 * Color a few countries:
 *
 * .gb, .au, .nc
 * {
 *    fill:       #ff0000;
 * }
 *
 * Color a few small country circles (and the countries):
 *
 * .ms, .ky
 * {
 *    opacity:    1;
 *    fill:       #ff0000;
 * }
 *
 */

/*
 * Antarctica
 */

.aq
{
   fill:#e6e6e6;
}

/*
 * Sea
 */

.ocean
{
   opacity: 1;
   color: #000000;
   fill:white;
   fill-opacity:1;
   fill-rule:nonzero;
   stroke:#000000;
   stroke-width:0.5;
   stroke-linecap:butt;
   stroke-linejoin:miter;
   marker:none;
   marker-start:none;
   marker-mid:none;
   marker-end:none;
   stroke-miterlimit:1;
   stroke-dasharray:none;
   stroke-dashoffset:0;
   stroke-opacity:1;
   visibility:visible;
   display:inline;
   overflow:visible;
}

.lake
{
   fill:#ffffff;
   fill-opacity:1;
   stroke:#ffffff;
   stroke-opacity:1;
   stroke-width:0.99986997;
   stroke-miterlimit:3.97446823;
   stroke-dasharray:none;
}
</style>
  
  
  
  
  
  
  
  
  
  
  
  
  
  
  
  
  
  
  
  
  
  
  
  
  
  
  
  
  
  
  
  
  
  
  
  
  
  
  
  
  
  
  
  
  
  
  
  
  
  
  
  
  
  
  
  
  
  
  
  
  
  
  
  
  
  
  
  
  
  
  
  
  
  
  
  
  
  
  
  
  
  
  
  
  
  
  
  
  
  
  
  
  
  
  
  
  
  
  
  
  
  
  
  
  
  
  
  
  
  
  
  
  
  
  
  
  
  
  
  
  
  
  
  
  
  
  
  
  
  
  <path
     class="land ma"
     d="M 1169.7321,520.1975 C 1170.0679,519.8166 1171.1266,518.0345 1171.5274,517.8905 C 1172.9634,517.3755 1174.5634,517.3095 1176.0609,516.9876 C 1178.8407,516.3895 1181.6468,515.5316 1183.6643,513.5675 C 1185.6441,511.6415 1187.7337,510.1286 1189.8237,508.3435 C 1191.8288,506.6345 1193.3117,504.3546 1194.8845,502.2795 C 1195.9526,500.8716 1198.3694,496.8175 1196.0806,495.2815 C 1195.1937,494.6875 1194.5904,494.6676 1195.0827,493.5666 C 1195.5716,492.4735 1195.4582,491.3806 1195.4427,490.1886 C 1195.3994,486.8696 1196.5598,485.3886 1198.5313,482.9155 C 1199.6602,481.5016 1199.2349,480.0625 1199.6455,478.4366 C 1199.9439,477.2595 1200.9039,476.3476 1201.7801,475.5466 C 1203.6538,473.8336 1205.0956,471.7246 1207.5186,470.6585 C 1210.1552,469.4975 1212.9761,468.5906 1215.4769,467.1936 C 1220.4347,464.4285 1222.5011,457.6936 1224.1595,452.7366 C 1224.3205,452.2575 1224.8634,449.8136 1225.6558,449.8886 C 1226.6280,449.9816 1227.5823,449.6135 1228.3819,449.1986 C 1229.3929,448.6746 1229.6653,449.9715 1230.0079,450.6696 C 1230.6676,452.0176 1231.4971,452.9336 1232.8066,453.7776 C 1235.5380,455.5396 1237.6976,455.0466 1240.6937,454.7065 C 1243.1784,454.4255 1246.4256,455.8555 1247.8133,453.0926 C 1247.8339,453.9925 1248.1060,454.2165 1248.2713,454.8995 C 1248.4483,455.6316 1249.8779,456.0016 1248.5862,454.8206 C 1249.2954,455.6925 1250.5107,456.1375 1251.5598,455.6345 C 1252.6292,455.1216 1253.3280,456.1785 1254.0273,456.7645 C 1254.7769,457.3936 1256.0806,457.7495 1256.5500,458.6365 C 1257.0859,459.6506 1256.0615,460.5795 1257.5812,461.1565 C 1256.7981,461.7556 1257.1085,462.8555 1257.2968,463.6615 C 1257.5953,464.9375 1257.1947,466.0596 1257.4013,467.2905 C 1257.5677,468.2795 1258.2713,468.9106 1258.0572,469.9726 C 1257.7275,471.5695 1257.9407,472.1365 1258.7952,473.5415 C 1259.2293,474.2566 1258.8837,474.8936 1259.3154,475.5485 C 1259.9564,476.5226 1260.9181,476.9096 1261.8351,477.5806 C 1263.5242,478.8175 1258.6823,480.8716 1261.3455,481.8206 C 1258.6580,482.4846 1249.0213,479.3755 1247.7727,482.8856 C 1247.1229,484.7185 1245.2595,485.4165 1243.2019,485.2525 C 1241.6456,485.1275 1239.8342,487.2425 1241.9707,487.7966 C 1240.2543,489.3585 1243.5844,490.5156 1242.8355,491.2566 C 1241.9743,492.1035 1240.3994,491.7976 1239.4591,492.4706 C 1238.4756,493.1766 1237.4072,494.2346 1236.2274,494.6295 C 1235.3355,494.9275 1234.3147,494.9015 1233.4844,495.3555 C 1231.8754,496.2346 1231.2852,498.0775 1230.1323,499.3675 C 1228.8128,500.8465 1226.2901,501.4246 1224.2914,501.5005 C 1222.7898,501.5566 1221.1459,500.9515 1220.6113,502.6726 C 1220.0418,504.5086 1218.1045,503.1336 1216.6050,503.2405 C 1215.5476,503.3155 1214.9528,503.8245 1214.3016,504.5326 C 1213.6408,505.2525 1212.8163,505.1005 1211.9679,505.4325 C 1210.9889,505.8155 1210.4176,506.7636 1209.6516,507.4015 C 1208.8379,508.0795 1207.8111,508.5016 1206.9792,509.1746 C 1205.3576,510.4875 1203.8912,510.6785 1204.1683,512.9506 C 1204.4428,515.2106 1204.3133,517.7156 1204.1576,519.9625 C 1204.0909,520.9145 1172.9148,520.1975 1169.7321,520.1975"
     id="ma" />
  
  
  
  
  
  
  
  
  
  
  
  
  
  
  
  
  
  
  
  
  
  
  
  
  
  
  
  
  
  
  
  
  
  
  
  
  
  
  
  
  
  
  
  
  
  
  
  
  
  
  
  
  
  
  
  
  
  
  
  
  
  
  
  
  
  
  
  
  
  
  
  
  
  
  
  
  
  
  
  
  
  
  
  
  
  
  
  
  
  
  
  
  
  
  
  
  
  
  
  
  
</svg>
