<?xml version="1.0" encoding="UTF-8" standalone="no"?>
<svg
   xmlns:dc="http://purl.org/dc/elements/1.1/"
   xmlns:cc="http://web.resource.org/cc/"
   xmlns:rdf="http://www.w3.org/1999/02/22-rdf-syntax-ns#"
   xmlns:svg="http://www.w3.org/2000/svg"
   xmlns="http://www.w3.org/2000/svg"
   xmlns:sodipodi="http://sodipodi.sourceforge.net/DTD/sodipodi-0.dtd"
   xmlns:inkscape="http://www.inkscape.org/namespaces/inkscape"
   viewBox="0 0 2752.766 1537.631"
   version="1.0"
   height="476.7276"
   width="939.74725"
   id="svg1926"
   sodipodi:version="0.32"
   inkscape:version="0.45.1"
   sodipodi:docname="BlankMap-World6.svg"
   sodipodi:docbase="/home/bennett/Desktop"
   inkscape:output_extension="org.inkscape.output.svg.inkscape">
  <sodipodi:namedview
     inkscape:window-height="590"
     inkscape:window-width="822"
     inkscape:pageshadow="2"
     inkscape:pageopacity="0.0"
     guidetolerance="10.0"
     gridtolerance="10.0"
     objecttolerance="10.0"
     borderopacity="1.0"
     bordercolor="#666666"
     pagecolor="#ffffff"
     id="base"
     inkscape:zoom="0.77893284"
     inkscape:cx="469.87363"
     inkscape:cy="238.3638"
     inkscape:window-x="178"
     inkscape:window-y="46"
     inkscape:current-layer="svg1926" />
  <metadata
     id="metadata24111">
    <rdf:RDF>
      <cc:Work
         rdf:about="">
        <dc:format>image/svg+xml</dc:format>
        <dc:type
           rdf:resource="http://purl.org/dc/dcmitype/StillImage" />
        <cc:license
           rdf:resource="http://web.resource.org/cc/PublicDomain" />
        <dc:title>Blank World Map</dc:title>
      </cc:Work>
      <cc:License
         rdf:about="http://web.resource.org/cc/PublicDomain">
        <cc:permits
           rdf:resource="http://web.resource.org/cc/Reproduction" />
        <cc:permits
           rdf:resource="http://web.resource.org/cc/Distribution" />
        <cc:permits
           rdf:resource="http://web.resource.org/cc/DerivativeWorks" />
      </cc:License>
    </rdf:RDF>
  </metadata>
  <defs
     id="defs1930" />
  <style
     type="text/css"
     id="style_css_sheet">
/*
 * Below are Cascading Style Sheet (CSS) definitions in use in this file,
 * which allow easily changing how countries are displayed.
 *
 */

/*
 * Circles around small countries
 *
 * Change opacity to 1 to display all circles.
 *
 */
.circle
{
   opacity:0;
   fill:#b9b9b9;
   fill-opacity:1;
   stroke:black;
   stroke-width:0.99986893;
   stroke-miterlimit:3.97446823;
   stroke-dasharray:none;
   stroke-opacity:1;
}

/*
 * Land
 */
.land
{
   fill: #b9b9b9;
   fill-opacity: 1;
   stroke: #ffffff;
   stroke-opacity: 1;
   stroke-width: 0.99986997;
   stroke-miterlimit: 3.97446823;
   stroke-dasharray: none;
}

/*
 * Additional style rules
 *
 * The following are examples of colouring countries.  You can substitute these with your own styles to colour the countries on the map.
 *
 * Color a few countries:
 *
 * .gb, .au, .nc
 * {
 *    fill:       #ff0000;
 * }
 *
 * Color a few small country circles (and the countries):
 *
 * .ms, .ky
 * {
 *    opacity:    1;
 *    fill:       #ff0000;
 * }
 *
 */

/*
 * Antarctica
 */

.aq
{
   fill:#e6e6e6;
}

/*
 * Sea
 */

.ocean
{
   opacity: 1;
   color: #000000;
   fill:white;
   fill-opacity:1;
   fill-rule:nonzero;
   stroke:#000000;
   stroke-width:0.5;
   stroke-linecap:butt;
   stroke-linejoin:miter;
   marker:none;
   marker-start:none;
   marker-mid:none;
   marker-end:none;
   stroke-miterlimit:1;
   stroke-dasharray:none;
   stroke-dashoffset:0;
   stroke-opacity:1;
   visibility:visible;
   display:inline;
   overflow:visible;
}

.lake
{
   fill:#ffffff;
   fill-opacity:1;
   stroke:#ffffff;
   stroke-opacity:1;
   stroke-width:0.99986997;
   stroke-miterlimit:3.97446823;
   stroke-dasharray:none;
}
</style>
  
  
  
  
  
  
  
  
  
  
  <g
     class="land mg"
     id="mg">
    <path
       d="M 1600.8591,950.5385 C 1601.5557,952.9415 1600.4537,955.8715 1602.3141,957.9705 C 1603.2349,958.9975 1603.2976,960.1505 1603.8163,961.3385 C 1604.2931,962.4325 1605.4263,962.6045 1604.4002,963.8465 C 1603.3933,965.0645 1603.8277,969.0195 1604.6364,970.4615 C 1605.3721,971.7725 1606.0896,972.7455 1606.5470,974.1985 C 1607.1410,976.0865 1608.4371,976.6155 1609.9431,977.7585 C 1608.0735,976.7425 1609.7238,978.1015 1610.1825,978.2375 C 1610.8554,978.4375 1611.5533,978.3695 1612.2311,978.5345 C 1613.8758,978.9355 1614.8771,980.6715 1616.5135,981.0175 C 1619.3487,981.6165 1622.0012,978.1565 1624.5145,977.4245 C 1625.4380,977.1555 1626.4688,977.7015 1627.3121,977.3925 C 1627.9811,977.1465 1628.5450,976.7025 1629.2660,976.5665 C 1630.2780,976.3765 1630.8054,975.1915 1631.1372,974.3685 C 1631.5844,973.2605 1631.8597,972.0815 1632.0990,970.9045 C 1632.4286,969.2745 1633.3613,967.9515 1633.7614,966.3865 C 1634.4975,963.4965 1635.3131,960.7035 1635.9036,957.7385 C 1636.8191,953.5175 1638.3523,949.7475 1639.6195,945.6575 C 1640.6455,942.3425 1641.1461,938.9525 1642.4626,935.7435 C 1642.8466,934.8065 1643.5909,933.3235 1643.0947,932.2575 C 1643.6078,932.2565 1644.0718,930.2285 1644.1806,929.8925 C 1644.9093,927.6485 1645.2353,925.2765 1646.0387,923.0645 C 1647.2112,919.8325 1648.2815,917.0815 1648.7858,913.6165 C 1649.1617,911.0315 1647.1597,907.2585 1650.2506,905.5615 C 1650.8561,905.2285 1651.4357,903.2765 1651.4690,902.5065 C 1651.5001,901.7875 1651.3000,901.0795 1651.3897,900.3605 C 1651.5109,899.3895 1650.3081,899.5015 1650.2720,898.5715 C 1650.2462,897.8655 1649.2084,892.3905 1651.0220,893.1365 C 1652.5785,893.7765 1652.2293,896.8955 1653.7282,897.4065 C 1655.4057,897.9775 1656.2344,893.5835 1656.3630,892.6195 C 1656.5473,891.2285 1655.5688,890.5345 1655.1156,889.2995 C 1654.2877,887.0325 1654.2521,884.8295 1654.0756,882.4945 C 1653.7507,878.2065 1652.5393,873.6615 1650.6477,869.8265 C 1650.4072,869.9855 1650.1761,870.1555 1649.9515,870.3365 C 1650.1212,869.7535 1649.8679,869.6375 1649.4955,869.2805 C 1648.8889,868.6995 1649.7850,868.3335 1649.2378,867.6985 C 1648.7150,867.0935 1648.3078,864.8155 1647.0789,865.5765 C 1646.9934,865.3175 1646.9591,865.0545 1646.9790,864.7865 C 1649.1723,864.9945 1645.8676,861.7105 1646.3305,864.4645 C 1646.5141,865.5475 1644.3425,867.5475 1643.3086,867.5255 C 1645.2890,868.4945 1644.1379,871.3485 1643.7950,872.6355 C 1643.2917,874.5325 1643.3660,875.7445 1641.0117,875.8055 C 1641.3507,877.1785 1640.8713,876.0925 1640.2418,876.8845 C 1639.7846,877.4595 1639.7953,878.2835 1639.6081,878.9655 C 1639.0186,878.9485 1636.6889,874.5635 1636.4944,877.6635 C 1636.4236,878.7715 1636.8386,879.4935 1637.2748,880.4865 C 1637.6671,881.3795 1637.1174,883.8245 1636.8907,882.0655 C 1636.7601,882.9245 1634.0783,883.0265 1635.2105,885.0035 C 1635.8124,886.0525 1637.9458,885.6415 1637.1749,887.3255 C 1637.4006,886.0155 1636.0276,885.8955 1635.2398,886.5205 C 1634.1431,887.3965 1634.3441,889.3645 1632.8048,889.8445 C 1632.5400,888.7355 1633.5780,887.8845 1633.2984,886.7445 C 1632.1876,886.9885 1632.4889,887.7535 1632.0797,888.5445 C 1631.6823,889.3115 1630.4354,889.7275 1630.2994,890.6345 C 1630.2046,891.2635 1630.9078,891.9685 1631.1991,892.4815 C 1631.7674,893.4835 1629.9521,893.6945 1629.3901,894.1655 C 1629.4738,893.4735 1630.6483,891.4635 1628.8544,891.5085 C 1627.8242,891.5345 1627.0597,892.8065 1626.3026,893.3375 C 1625.7960,893.6915 1624.4233,894.4265 1624.6085,895.2305 C 1624.7019,895.6385 1624.3902,896.1525 1624.5582,896.5365 C 1624.7935,897.0705 1625.5177,896.9725 1625.7151,897.6155 C 1624.9075,897.5645 1624.0752,897.7265 1623.8729,896.6025 C 1623.6186,895.1875 1622.2186,895.2115 1622.2389,896.6855 C 1621.8735,896.1335 1620.2529,895.9745 1619.7033,896.2475 C 1619.0095,896.5925 1619.3391,897.7745 1618.8293,898.2655 C 1618.7554,896.7715 1617.0820,897.9475 1617.0260,898.8455 C 1616.7585,898.3835 1616.4469,897.9495 1616.0923,897.5455 C 1615.2507,898.1425 1614.6312,899.1725 1613.6366,899.5455 C 1612.7035,899.8955 1610.9813,899.1355 1610.2436,899.8485 C 1609.8828,900.1975 1610.3399,903.0435 1610.0103,902.7355 C 1610.3428,903.8875 1609.5719,905.2155 1609.0513,906.1525 C 1608.1795,907.7175 1605.2853,910.6355 1606.5459,912.5245 C 1607.4164,913.8275 1606.8346,916.1785 1607.0405,917.6965 C 1607.2763,919.4215 1608.6058,920.8585 1608.6852,922.5545 C 1608.7597,924.1335 1608.7091,925.1345 1609.6490,926.5355 C 1610.6598,928.0395 1610.1624,928.7165 1609.7775,930.1815 C 1609.5015,931.2345 1610.8680,931.5605 1610.2897,932.6915 C 1609.6724,933.8965 1608.8448,935.0445 1608.1651,936.2235 C 1607.4353,937.4905 1606.5175,938.7565 1606.0180,940.1405 C 1605.6325,941.2115 1606.0781,942.9975 1604.7147,943.4725 C 1603.0759,944.0425 1602.6836,944.0745 1602.6121,945.9495 C 1602.5530,947.5095 1601.1763,948.9395 1600.8591,950.5385"
       id="path2622" />
    <path
       d="M 1639.8491,875.6585 C 1640.1844,875.0325 1639.7270,874.3665 1639.2803,873.9285 C 1638.5896,874.5115 1638.7974,875.6745 1639.8491,875.6585"
       id="path2624" />
    <path
       d="M 1652.6787,904.5285 C 1652.6708,904.3855 1652.6628,904.2415 1652.6548,904.0985 C 1652.2578,904.9005 1651.1927,905.8025 1651.7129,906.8385 C 1652.1357,906.1135 1652.2925,905.2705 1652.6787,904.5285"
       id="path2628" />
  </g>
  
  
  
  
  
  
  
  
  
  
  
  
  
  
  
  
  
  
  
  
  
  
  
  
  
  
  
  
  
  
  
  
  
  
  
  
  
  
  
  
  
  
  
  
  
  
  
  
  
  
  
  
  
  
  
  
  
  
  
  
  
  
  
  
  
  
  
  
  
  
  
  
  
  
  
  
  
  
  
  
  
  
  
  
  
  
  
  
  
  
  
  
  
  
  
  
  
  
  
  
  
  
  
  
  
  
  
  
  
  
  
  
  
  
  
  
  
  
  
  
  
  
  
  
  
  
  
  
  
  
  
  
  
  
  
  
  
  
  
  
  
  
  
  
  
  
  
  
  
  
  
  
  
  
  
  
  
  
  
  
  
  
  
  
  
  
  
  
  
  
  
  
  
  
  
  
  
  
  
  
  
  
  
  
  
  
  
  
  
  
  
  
  
  
  
  
  
  
  
  
  
  
  
  
  
  
  
  
  
  
  
  
  
  
  
  
  
  
  
  
  
</svg>
