<?xml version="1.0" encoding="UTF-8" standalone="no"?>
<svg
   xmlns:dc="http://purl.org/dc/elements/1.1/"
   xmlns:cc="http://web.resource.org/cc/"
   xmlns:rdf="http://www.w3.org/1999/02/22-rdf-syntax-ns#"
   xmlns:svg="http://www.w3.org/2000/svg"
   xmlns="http://www.w3.org/2000/svg"
   xmlns:sodipodi="http://sodipodi.sourceforge.net/DTD/sodipodi-0.dtd"
   xmlns:inkscape="http://www.inkscape.org/namespaces/inkscape"
   viewBox="0 0 2752.766 1537.631"
   version="1.0"
   height="476.7276"
   width="939.74725"
   id="svg1926"
   sodipodi:version="0.32"
   inkscape:version="0.45.1"
   sodipodi:docname="BlankMap-World6.svg"
   sodipodi:docbase="/home/bennett/Desktop"
   inkscape:output_extension="org.inkscape.output.svg.inkscape">
  <sodipodi:namedview
     inkscape:window-height="590"
     inkscape:window-width="822"
     inkscape:pageshadow="2"
     inkscape:pageopacity="0.0"
     guidetolerance="10.0"
     gridtolerance="10.0"
     objecttolerance="10.0"
     borderopacity="1.0"
     bordercolor="#666666"
     pagecolor="#ffffff"
     id="base"
     inkscape:zoom="0.77893284"
     inkscape:cx="469.87363"
     inkscape:cy="238.3638"
     inkscape:window-x="178"
     inkscape:window-y="46"
     inkscape:current-layer="svg1926" />
  <metadata
     id="metadata24111">
    <rdf:RDF>
      <cc:Work
         rdf:about="">
        <dc:format>image/svg+xml</dc:format>
        <dc:type
           rdf:resource="http://purl.org/dc/dcmitype/StillImage" />
        <cc:license
           rdf:resource="http://web.resource.org/cc/PublicDomain" />
        <dc:title>Blank World Map</dc:title>
      </cc:Work>
      <cc:License
         rdf:about="http://web.resource.org/cc/PublicDomain">
        <cc:permits
           rdf:resource="http://web.resource.org/cc/Reproduction" />
        <cc:permits
           rdf:resource="http://web.resource.org/cc/Distribution" />
        <cc:permits
           rdf:resource="http://web.resource.org/cc/DerivativeWorks" />
      </cc:License>
    </rdf:RDF>
  </metadata>
  <defs
     id="defs1930" />
  <style
     type="text/css"
     id="style_css_sheet">
/*
 * Below are Cascading Style Sheet (CSS) definitions in use in this file,
 * which allow easily changing how countries are displayed.
 *
 */

/*
 * Circles around small countries
 *
 * Change opacity to 1 to display all circles.
 *
 */
.circle
{
   opacity:0;
   fill:#b9b9b9;
   fill-opacity:1;
   stroke:black;
   stroke-width:0.99986893;
   stroke-miterlimit:3.97446823;
   stroke-dasharray:none;
   stroke-opacity:1;
}

/*
 * Land
 */
.land
{
   fill: #b9b9b9;
   fill-opacity: 1;
   stroke: #ffffff;
   stroke-opacity: 1;
   stroke-width: 0.99986997;
   stroke-miterlimit: 3.97446823;
   stroke-dasharray: none;
}

/*
 * Additional style rules
 *
 * The following are examples of colouring countries.  You can substitute these with your own styles to colour the countries on the map.
 *
 * Color a few countries:
 *
 * .gb, .au, .nc
 * {
 *    fill:       #ff0000;
 * }
 *
 * Color a few small country circles (and the countries):
 *
 * .ms, .ky
 * {
 *    opacity:    1;
 *    fill:       #ff0000;
 * }
 *
 */

/*
 * Antarctica
 */

.aq
{
   fill:#e6e6e6;
}

/*
 * Sea
 */

.ocean
{
   opacity: 1;
   color: #000000;
   fill:white;
   fill-opacity:1;
   fill-rule:nonzero;
   stroke:#000000;
   stroke-width:0.5;
   stroke-linecap:butt;
   stroke-linejoin:miter;
   marker:none;
   marker-start:none;
   marker-mid:none;
   marker-end:none;
   stroke-miterlimit:1;
   stroke-dasharray:none;
   stroke-dashoffset:0;
   stroke-opacity:1;
   visibility:visible;
   display:inline;
   overflow:visible;
}

.lake
{
   fill:#ffffff;
   fill-opacity:1;
   stroke:#ffffff;
   stroke-opacity:1;
   stroke-width:0.99986997;
   stroke-miterlimit:3.97446823;
   stroke-dasharray:none;
}
</style>
  
  
  
  
  
  
  
  
  
  
  
  
  
  
  
  
  
  
  
  
  
  
  
  
  
  
  
  <path
     class="land ml"
     d="M 1176.8563,631.7976 C 1178.2138,631.4725 1178.8386,632.2035 1179.9184,630.7945 C 1180.8245,629.6055 1180.3297,627.0456 1180.7446,625.5635 C 1181.6864,622.1785 1186.6002,627.7866 1187.1179,628.8456 C 1187.9570,626.3836 1189.4312,625.0345 1192.3247,626.1835 C 1194.2262,626.9385 1198.2104,626.8045 1198.5583,624.2365 C 1199.6963,626.8045 1204.9495,625.6566 1207.0132,625.5005 C 1212.0616,625.1186 1217.2568,625.3895 1222.3274,625.3895 C 1224.1130,625.3895 1225.9477,625.7035 1227.7195,625.6326 C 1229.2096,625.5716 1228.9806,623.3375 1229.0616,622.2636 C 1229.1565,621.0195 1230.2452,618.7816 1229.0226,617.8056 C 1227.4649,616.5635 1227.4691,615.1605 1227.2817,613.3135 C 1224.8571,589.9796 1223.2544,566.5226 1220.1680,543.2376 C 1222.9752,543.2376 1225.7814,543.2376 1228.5886,543.2376 C 1230.5797,543.2376 1232.8854,542.6405 1234.5865,543.8496 C 1239.1086,547.0685 1243.5253,550.4016 1247.9916,553.6756 C 1257.5893,560.7286 1266.9209,568.1486 1276.6092,574.9886 C 1278.2097,576.1205 1279.4027,576.6996 1279.5186,578.6616 C 1279.5625,579.3976 1279.2112,580.1806 1280.2165,580.1616 C 1280.9180,580.1486 1281.9263,580.8836 1282.4838,581.2455 C 1283.4144,581.8496 1283.2766,582.9356 1284.0228,583.6585 C 1284.7327,584.3465 1285.4506,584.2275 1286.3067,584.5625 C 1287.2537,584.9325 1286.6657,583.2666 1287.9125,584.4796 C 1288.5847,585.1345 1288.8808,586.0506 1289.8479,586.3486 C 1291.3545,586.8146 1293.0719,586.6516 1294.4708,587.4585 C 1295.4913,588.0476 1295.6508,591.1345 1295.2295,592.0986 C 1294.6435,593.4396 1293.7830,594.7436 1295.9561,595.0485 C 1298.2542,595.3726 1300.6802,594.2025 1302.9455,593.9256 C 1302.1444,600.0685 1304.2384,606.6766 1302.7968,612.7096 C 1302.4543,614.1426 1302.5418,615.6265 1302.5531,617.0875 C 1302.5617,618.1896 1301.3945,618.9656 1301.1183,619.9886 C 1300.8343,621.0385 1300.8180,622.1605 1300.3943,623.1745 C 1299.9856,624.1516 1299.0254,624.4496 1298.2427,625.0516 C 1297.2805,625.7906 1297.9490,626.7645 1296.6188,626.5406 C 1296.3151,626.4896 1293.6580,625.7895 1293.5409,626.2436 C 1293.2336,627.4316 1286.8784,626.8705 1285.6240,626.9696 C 1282.5529,627.2115 1280.6815,626.9976 1278.5344,629.3505 C 1277.8613,630.0896 1276.5226,630.3515 1275.5637,630.1426 C 1275.0088,630.0426 1274.4496,629.9986 1273.8880,630.0126 C 1272.8876,629.9936 1272.2346,629.2645 1272.2499,630.5036 C 1271.5219,630.2325 1270.8360,629.8596 1270.1050,629.5915 C 1269.0124,629.1916 1268.4358,629.6605 1267.4454,629.5656 C 1266.1028,629.4366 1265.5469,628.7115 1264.1690,629.7845 C 1261.5542,631.8156 1258.6976,633.2236 1255.7958,634.8125 C 1254.7184,635.4026 1255.6057,637.6286 1253.8201,636.8575 C 1252.7213,636.3836 1251.5869,635.6616 1250.4378,636.4565 C 1249.4611,637.1336 1249.0738,638.4416 1248.7270,639.5105 C 1248.5289,640.1215 1248.3543,640.7515 1248.0721,641.3306 C 1247.8273,641.8325 1246.1146,641.1376 1245.4754,641.0166 C 1246.0595,642.0266 1245.5272,643.5195 1245.6736,644.6176 C 1244.6910,644.5835 1243.9024,644.4245 1244.1643,645.6255 C 1243.1204,645.5226 1240.0890,644.0105 1240.1321,642.7446 C 1239.4919,643.6386 1236.8974,645.6616 1237.8253,646.7626 C 1238.2866,647.3106 1238.5973,648.5525 1238.1020,649.1726 C 1237.6960,649.6806 1236.2288,648.8315 1236.3493,649.7236 C 1236.6462,651.9016 1236.6674,653.4665 1234.7714,655.1165 C 1233.8674,655.9026 1233.0266,655.7576 1231.9109,655.9596 C 1230.8685,656.1476 1230.2993,657.2745 1229.1659,657.2186 C 1230.5270,657.5575 1229.4713,658.5126 1230.1781,659.2046 C 1231.0840,660.0906 1230.4304,661.8786 1229.9034,662.7626 C 1229.7179,663.0735 1228.8437,663.7415 1228.8121,664.0466 C 1228.6510,665.5606 1229.2102,667.4316 1228.3602,668.7945 C 1227.9982,669.3765 1226.7187,669.3216 1226.1272,669.4855 C 1224.8892,669.8296 1225.5590,671.4725 1223.9861,671.3296 C 1222.2431,671.1706 1223.3310,667.7175 1222.7218,666.6495 C 1222.0496,666.9275 1221.9411,668.1305 1221.3005,668.3056 C 1220.6329,668.4876 1220.1093,667.5685 1219.6153,667.2976 C 1219.5894,668.1155 1220.0631,670.1676 1218.8195,670.1495 C 1217.8886,670.1345 1216.5822,670.2065 1217.3731,671.4736 C 1216.2420,671.9755 1213.3652,670.5746 1213.4950,669.1695 C 1212.9134,669.4285 1211.9604,669.1295 1211.5233,669.6635 C 1210.8383,670.5015 1210.9472,671.4995 1209.5575,671.6176 C 1210.5512,669.7146 1207.1539,669.4335 1207.1168,667.8146 C 1207.0933,666.7795 1207.3381,665.5716 1207.0757,664.5646 C 1206.7009,663.1286 1204.8141,664.8075 1204.1467,664.7766 C 1204.3843,663.8546 1205.0774,661.4195 1206.4887,661.8966 C 1206.9709,660.5076 1204.0854,659.9946 1203.8939,658.6566 C 1202.9894,659.1726 1203.0532,658.1516 1203.1260,657.5706 C 1203.2892,656.2586 1202.7492,655.7536 1202.1701,654.6545 C 1201.7138,653.7885 1202.2449,652.5616 1201.2109,652.0545 C 1200.8083,651.8565 1199.4015,651.0906 1198.9957,651.4765 C 1198.5495,651.9005 1200.0334,652.9675 1199.0581,653.4285 C 1197.9531,653.9506 1197.0919,654.8365 1195.9768,655.3945 C 1195.2039,655.7816 1194.3081,654.6666 1193.6645,654.4076 C 1192.2737,653.8486 1191.2121,653.9485 1190.2574,655.1055 C 1187.8585,658.0155 1189.1365,654.5495 1186.9867,653.8325 C 1185.5902,653.3676 1184.2165,657.7705 1182.7861,654.3736 C 1182.3281,653.2876 1184.1153,652.2935 1183.2140,651.0675 C 1182.6954,650.3615 1183.0549,648.6785 1183.3125,647.9396 C 1183.6157,647.0675 1180.8333,642.0986 1180.3257,644.2565 C 1179.6927,644.0796 1178.6495,642.1466 1178.3594,641.5595 C 1178.0988,641.0316 1178.8810,639.9736 1178.8282,638.9285 C 1178.7499,637.3586 1178.9162,636.6906 1177.7679,635.4556 C 1177.3689,635.0266 1176.9499,634.5145 1177.1959,633.8966 C 1177.6152,632.8375 1177.3072,632.8386 1176.8563,631.7976"
     id="ml" />
  
  
  
  
  
  
  
  
  
  
  
  
  
  
  
  
  
  
  
  
  
  
  
  
  
  
  
  
  
  
  
  
  
  
  
  
  
  
  
  
  
  
  
  
  
  
  
  
  
  
  
  
  
  
  
  
  
  
  
  
  
  
  
  
  
  
  
  
  
  
  
  
  
  
  
  
  
  
  
  
  
  
  
  
  
  
  
  
  
  
  
  
  
  
  
  
  
  
  
  
  
  
  
  
  
  
  
  
  
  
  
  
  
  
  
  
  
  
  
  
  
  
  
  
  
  
  
  
  
  
  
  
  
  
  
  
  
  
  
  
  
  
  
  
  
  
  
  
  
  
  
  
  
  
  
  
  
  
  
  
  
  
  
  
  
  
  
  
  
  
  
  
  
  
  
  
  
  
  
  
  
  
  
  
  
  
  
  
  
  
  
  
  
  
  
  
  
  
  
  
  
  
  
  
</svg>
