<?xml version="1.0" encoding="UTF-8" standalone="no"?>
<svg
   xmlns:dc="http://purl.org/dc/elements/1.1/"
   xmlns:cc="http://web.resource.org/cc/"
   xmlns:rdf="http://www.w3.org/1999/02/22-rdf-syntax-ns#"
   xmlns:svg="http://www.w3.org/2000/svg"
   xmlns="http://www.w3.org/2000/svg"
   xmlns:sodipodi="http://sodipodi.sourceforge.net/DTD/sodipodi-0.dtd"
   xmlns:inkscape="http://www.inkscape.org/namespaces/inkscape"
   viewBox="0 0 2752.766 1537.631"
   version="1.0"
   height="476.7276"
   width="939.74725"
   id="svg1926"
   sodipodi:version="0.32"
   inkscape:version="0.45.1"
   sodipodi:docname="BlankMap-World6.svg"
   sodipodi:docbase="/home/bennett/Desktop"
   inkscape:output_extension="org.inkscape.output.svg.inkscape">
  <sodipodi:namedview
     inkscape:window-height="590"
     inkscape:window-width="822"
     inkscape:pageshadow="2"
     inkscape:pageopacity="0.0"
     guidetolerance="10.0"
     gridtolerance="10.0"
     objecttolerance="10.0"
     borderopacity="1.0"
     bordercolor="#666666"
     pagecolor="#ffffff"
     id="base"
     inkscape:zoom="0.77893284"
     inkscape:cx="469.87363"
     inkscape:cy="238.3638"
     inkscape:window-x="178"
     inkscape:window-y="46"
     inkscape:current-layer="svg1926" />
  <metadata
     id="metadata24111">
    <rdf:RDF>
      <cc:Work
         rdf:about="">
        <dc:format>image/svg+xml</dc:format>
        <dc:type
           rdf:resource="http://purl.org/dc/dcmitype/StillImage" />
        <cc:license
           rdf:resource="http://web.resource.org/cc/PublicDomain" />
        <dc:title>Blank World Map</dc:title>
      </cc:Work>
      <cc:License
         rdf:about="http://web.resource.org/cc/PublicDomain">
        <cc:permits
           rdf:resource="http://web.resource.org/cc/Reproduction" />
        <cc:permits
           rdf:resource="http://web.resource.org/cc/Distribution" />
        <cc:permits
           rdf:resource="http://web.resource.org/cc/DerivativeWorks" />
      </cc:License>
    </rdf:RDF>
  </metadata>
  <defs
     id="defs1930" />
  <style
     type="text/css"
     id="style_css_sheet">
/*
 * Below are Cascading Style Sheet (CSS) definitions in use in this file,
 * which allow easily changing how countries are displayed.
 *
 */

/*
 * Circles around small countries
 *
 * Change opacity to 1 to display all circles.
 *
 */
.circle
{
   opacity:0;
   fill:#b9b9b9;
   fill-opacity:1;
   stroke:black;
   stroke-width:0.99986893;
   stroke-miterlimit:3.97446823;
   stroke-dasharray:none;
   stroke-opacity:1;
}

/*
 * Land
 */
.land
{
   fill: #b9b9b9;
   fill-opacity: 1;
   stroke: #ffffff;
   stroke-opacity: 1;
   stroke-width: 0.99986997;
   stroke-miterlimit: 3.97446823;
   stroke-dasharray: none;
}

/*
 * Additional style rules
 *
 * The following are examples of colouring countries.  You can substitute these with your own styles to colour the countries on the map.
 *
 * Color a few countries:
 *
 * .gb, .au, .nc
 * {
 *    fill:       #ff0000;
 * }
 *
 * Color a few small country circles (and the countries):
 *
 * .ms, .ky
 * {
 *    opacity:    1;
 *    fill:       #ff0000;
 * }
 *
 */

/*
 * Antarctica
 */

.aq
{
   fill:#e6e6e6;
}

/*
 * Sea
 */

.ocean
{
   opacity: 1;
   color: #000000;
   fill:white;
   fill-opacity:1;
   fill-rule:nonzero;
   stroke:#000000;
   stroke-width:0.5;
   stroke-linecap:butt;
   stroke-linejoin:miter;
   marker:none;
   marker-start:none;
   marker-mid:none;
   marker-end:none;
   stroke-miterlimit:1;
   stroke-dasharray:none;
   stroke-dashoffset:0;
   stroke-opacity:1;
   visibility:visible;
   display:inline;
   overflow:visible;
}

.lake
{
   fill:#ffffff;
   fill-opacity:1;
   stroke:#ffffff;
   stroke-opacity:1;
   stroke-width:0.99986997;
   stroke-miterlimit:3.97446823;
   stroke-dasharray:none;
}
</style>
  
  
  
  
  
  
  
  
  
  
  
  
  
  
  
  
  
  
  
  
  
  
  
  
  
  
  
  
  
  
  
  
  
  
  
  
  
  
  
  
  
  
  
  
  
  
  
  
  
  
  
  
  
  
  
  
  
  
  
  
  
  
  
  <g
     class="land mm"
     id="mm">
    <path
       d="M 1979.6901,582.6935 C 1979.5888,583.0645 1979.7218,583.3295 1980.0918,583.4855 C 1979.9576,583.2215 1979.8245,582.9565 1979.6901,582.6935"
       id="path4568" />
    <path
       d="M 1980.7799,586.5095 C 1981.0536,586.9885 1981.2800,587.4925 1981.4592,588.0215 C 1981.3573,587.2025 1981.1112,586.4015 1980.5826,585.7905 C 1980.6488,586.0295 1980.7149,586.2695 1980.7799,586.5095"
       id="path4570" />
    <path
       d="M 1984.4671,586.9415 C 1984.1304,587.5195 1984.7992,588.1715 1985.1349,588.4545 C 1985.1960,587.8385 1984.9074,587.3015 1984.4671,586.9415"
       id="path4572" />
    <path
       d="M 1986.0484,596.1565 C 1985.6452,596.1775 1985.2640,596.2975 1984.9017,596.5165 C 1986.9394,599.2075 1987.3608,596.1065 1986.0484,596.1565"
       id="path4574" />
    <path
       d="M 1988.6062,591.9815 C 1988.2951,591.1345 1987.2374,591.1045 1986.7693,590.3975 C 1985.5599,591.4625 1987.4167,593.4475 1988.6062,591.9815"
       id="path4576" />
    <path
       d="M 1993.9791,618.9815 C 1993.4319,619.5125 1991.4569,621.1795 1992.4188,621.9335 C 1993.2471,621.1545 1994.4402,620.1715 1993.9791,618.9815"
       id="path4578" />
    <path
       d="M 1995.3558,621.7895 C 1995.1244,622.1315 1994.9794,622.0265 1995.2818,622.5095 C 1995.3064,622.2695 1995.3311,622.0295 1995.3558,621.7895"
       id="path4580" />
    <path
       d="M 2015.9462,616.7495 C 2015.5331,616.9215 2015.2336,618.4775 2015.7376,618.4775 C 2016.7244,618.4775 2016.8731,616.8705 2015.9462,616.7495"
       id="path4582" />
    <path
       d="M 2019.3459,653.1815 C 2019.5728,652.9575 2019.7154,652.6945 2019.7728,652.3895 C 2018.9236,652.2485 2018.7810,652.5125 2019.3459,653.1815"
       id="path4584" />
    <path
       d="M 2019.8388,658.6535 C 2019.9068,658.1105 2019.7764,657.6315 2019.4446,657.2145 C 2019.6124,657.6805 2019.7437,658.1605 2019.8388,658.6535"
       id="path4586" />
    <path
       d="M 2019.9805,654.2615 C 2020.1255,654.2615 2020.2684,654.2615 2020.4134,654.2615 C 2020.2543,653.9695 2020.0588,653.7045 2019.8255,653.4695 C 2019.8772,653.7335 2019.9289,653.9975 2019.9805,654.2615"
       id="path4588" />
    <path
       d="M 2021.5754,647.2775 C 2022.0825,646.7025 2021.8757,646.1095 2021.2612,645.8385 C 2021.3615,646.3195 2021.4660,646.7985 2021.5754,647.2775"
       id="path4590" />
    <path
       d="M 2021.5481,666.7895 C 2021.5235,665.9465 2021.1743,665.1765 2020.4948,664.7015 C 2020.2891,664.9155 2020.1265,665.1555 2020.0029,665.4215 C 2021.0337,664.9445 2021.3028,666.1355 2021.5481,666.7895"
       id="path4592" />
    <path
       d="M 2020.7059,660.4535 C 2021.9309,660.3705 2021.9962,658.1765 2021.5239,657.5015 C 2021.1949,658.4725 2020.9218,659.4615 2020.7059,660.4535"
       id="path4594" />
    <path
       d="M 2021.8652,652.5335 C 2022.1922,653.0585 2024.0993,649.8455 2021.7591,650.3015 C 2021.8391,651.0385 2022.0828,651.7675 2021.8652,652.5335"
       id="path4596" />
    <path
       d="M 2020.6460,673.0535 C 2020.6813,673.2935 2020.7157,673.5325 2020.7510,673.7735 C 2021.2162,673.4875 2021.4543,673.0795 2021.4644,672.5495 C 2021.1762,672.6915 2020.9037,672.8595 2020.6460,673.0535"
       id="path4598" />
    <path
       d="M 2022.6310,659.0855 C 2022.7655,659.5015 2023.0604,659.7175 2023.5129,659.7325 C 2024.0686,657.3935 2021.4842,656.9485 2022.6310,659.0855"
       id="path4600" />
    <path
       d="M 2022.8305,655.7015 C 2023.0011,656.0355 2023.1684,656.3715 2023.3305,656.7095 C 2023.6293,656.5415 2023.8878,656.3245 2024.1090,656.0615 C 2023.5440,655.8355 2023.0898,655.4755 2022.7494,654.9815 C 2022.7768,655.2215 2022.8042,655.4615 2022.8305,655.7015"
       id="path4602" />
    <path
       d="M 2023.0589,652.1015 C 2023.2370,651.7155 2023.4708,651.8585 2023.1952,651.3095 C 2023.1502,651.5725 2023.1050,651.8375 2023.0589,652.1015"
       id="path4604" />
    <path
       d="M 1975.1328,576.2135 C 1975.2799,575.6595 1975.3567,574.2585 1976.2055,574.1665 C 1977.2574,574.0525 1977.7127,575.5835 1978.7900,575.2775 C 1978.4215,573.9915 1978.2301,572.6335 1978.2849,571.2445 C 1978.3963,570.6725 1978.4132,570.1115 1978.3359,569.5595 C 1978.1907,569.0245 1979.1358,568.4765 1979.0877,567.8615 C 1979.8004,568.1235 1979.9973,569.6765 1980.9650,569.3915 C 1981.6578,569.1875 1981.5319,567.9115 1981.7253,567.4285 C 1983.1453,568.3095 1982.7962,566.0905 1982.6056,565.4295 C 1982.0694,563.5695 1982.4324,562.1245 1982.4469,560.1565 C 1983.8137,561.2595 1984.1906,558.9895 1984.2943,558.0535 C 1984.5484,555.7465 1984.3819,553.7615 1983.8773,551.5885 C 1984.2360,551.5635 1984.5338,551.6635 1984.7727,551.8875 C 1985.4071,552.3455 1985.4105,552.0105 1986.2706,551.8655 C 1987.1278,551.7195 1989.4806,552.7415 1990.0606,553.2455 C 1990.5233,549.9415 1996.0987,544.0525 1993.8593,541.4795 C 1992.6696,540.1145 1995.9268,538.2115 1996.4557,536.8475 C 1997.0708,535.2585 1997.7067,534.3395 1997.1073,532.9325 C 1996.6144,531.7745 1996.7501,529.5495 1998.1845,528.6925 C 1998.6289,528.4255 1999.7999,528.7785 1999.9968,528.0865 C 2000.2040,527.4405 2001.6294,527.0115 2002.2465,526.5375 C 2003.0264,525.9375 2003.5135,525.3275 2004.1120,524.5765 C 2005.1282,523.2995 2007.0042,523.4855 2008.3316,523.2935 C 2008.9697,523.2015 2009.8161,522.7825 2010.2507,523.2875 C 2010.8374,523.9685 2011.2451,525.5585 2012.7124,525.0205 C 2012.7471,523.9145 2011.7431,523.3795 2011.2255,522.5915 C 2010.2773,521.1505 2011.3685,520.0405 2012.7441,518.9435 C 2014.7229,517.3695 2013.8878,517.6865 2014.2634,515.9855 C 2014.3965,515.3825 2015.2310,515.1505 2015.2953,514.5925 C 2015.3759,513.8995 2015.8076,513.2505 2015.9819,512.5655 C 2017.0461,514.0615 2019.7927,514.3035 2020.4964,516.2145 C 2020.7520,516.9075 2020.4330,517.7625 2020.6386,518.4695 C 2020.9173,519.4275 2021.4655,520.2475 2021.7435,521.2055 C 2022.3671,521.0065 2022.7823,520.5565 2022.6072,519.9805 C 2025.3838,521.3685 2024.7650,524.4505 2024.9405,527.4045 C 2025.0589,528.8615 2025.1476,530.0895 2024.6654,531.5925 C 2024.4676,532.2095 2025.2894,534.2805 2023.7508,533.6605 C 2023.9022,534.2845 2025.6293,536.7035 2023.6260,536.0925 C 2023.2676,535.9835 2022.3492,537.5405 2022.3658,537.8355 C 2022.4192,538.7755 2021.2425,538.1605 2020.7417,538.1255 C 2020.5030,538.6545 2019.7554,542.6045 2018.2651,541.0775 C 2018.1261,542.4095 2017.2481,543.4055 2017.8453,544.6775 C 2016.4507,544.7825 2016.3029,545.7515 2016.1934,546.8035 C 2016.0787,547.8935 2016.9905,547.9065 2017.2453,548.7505 C 2017.3561,549.1185 2017.8104,550.1385 2017.5731,550.5525 C 2017.1608,551.2725 2015.8689,552.2995 2016.7037,553.0245 C 2017.0938,553.3625 2019.9111,551.4155 2020.3786,551.1805 C 2022.4034,550.1605 2024.3664,551.7995 2026.3676,550.5105 C 2026.4712,551.6355 2024.8963,552.0785 2025.1121,553.1965 C 2025.2339,553.8305 2025.6235,554.1465 2025.9955,554.6145 C 2026.4669,555.2055 2025.6733,555.8655 2026.0149,556.1925 C 2026.9343,557.0745 2026.2901,558.7095 2027.5509,559.3865 C 2029.2689,560.3095 2030.9478,559.1425 2031.3705,561.3105 C 2029.4777,561.2355 2030.1809,563.4725 2030.1617,564.4825 C 2030.1420,565.5435 2027.5120,567.6315 2029.3829,568.2475 C 2030.6566,568.6665 2033.6164,567.7965 2034.5846,568.7985 C 2035.6422,569.8955 2033.6106,572.0065 2036.0741,572.0385 C 2035.6618,572.5405 2035.7866,573.4645 2036.0728,573.8915 C 2036.5378,574.5845 2037.3057,573.0765 2038.0245,573.5785 C 2039.5065,574.6145 2042.0318,572.0805 2043.4159,571.1755 C 2043.3117,572.4305 2044.1829,573.1325 2042.8327,574.1775 C 2042.2105,574.6595 2040.9066,574.9355 2040.5020,575.4905 C 2040.1851,575.9265 2038.0553,579.6825 2039.6893,578.8075 C 2039.4141,579.8765 2037.7537,579.3375 2037.0426,579.8155 C 2035.8018,580.6495 2035.9336,582.3205 2035.4685,583.4875 C 2034.1949,582.0535 2032.7781,583.6875 2030.9539,583.7755 C 2031.3425,584.3815 2031.1886,585.3865 2030.3363,585.7395 C 2029.4928,586.0895 2029.1288,585.2735 2028.3839,585.3325 C 2027.4565,585.4075 2027.3857,587.3665 2027.1324,587.9565 C 2026.8484,588.6175 2026.4692,588.5385 2026.0328,588.2175 C 2025.6026,587.9015 2024.1814,589.2805 2023.4902,589.2125 C 2023.1431,589.1785 2019.7619,588.6805 2019.7751,588.5895 C 2019.6059,589.7585 2018.5394,590.5415 2018.0578,591.7065 C 2017.8219,592.2765 2018.1610,592.9625 2018.2160,593.4965 C 2018.2903,594.2125 2017.4550,594.9715 2017.2562,595.6865 C 2016.9975,596.6195 2018.2926,597.7015 2017.5156,598.6685 C 2016.8280,599.5425 2014.9518,599.7975 2014.5168,598.7525 C 2014.7069,599.8175 2015.1517,601.7835 2016.7150,601.3445 C 2016.5072,602.0235 2016.9071,602.5675 2017.1708,603.1035 C 2017.5622,603.9035 2017.2075,604.6985 2017.4157,605.5205 C 2017.7746,606.9435 2019.6506,608.6395 2020.5547,609.7575 C 2021.1081,610.4415 2021.6790,611.1125 2022.1027,611.8925 C 2022.4902,612.6065 2023.3872,612.4505 2023.5922,613.5845 C 2023.9154,615.3645 2024.0688,617.1215 2025.1271,618.6245 C 2025.5810,618.1835 2025.9318,617.6795 2026.1795,617.1115 C 2027.0145,617.8605 2026.5130,619.3775 2025.6215,620.0635 C 2024.4375,620.9755 2023.9358,620.0285 2024.1101,621.9115 C 2024.2139,622.9805 2024.2660,624.6805 2024.0352,625.7565 C 2023.8527,626.6095 2022.5416,626.5445 2022.6944,627.5525 C 2022.0573,626.9235 2021.4439,627.4145 2021.2062,628.1815 C 2020.8664,629.2805 2021.3188,630.6705 2021.7458,631.6075 C 2022.8892,634.1185 2025.2717,635.8995 2026.9924,637.9465 C 2028.6107,639.8745 2028.6614,642.4875 2028.6335,644.9765 C 2028.6375,646.1265 2027.9376,645.9895 2028.3824,647.2855 C 2028.8035,648.5145 2028.8192,649.2175 2029.7292,650.1855 C 2030.5844,651.0955 2030.3385,652.1175 2030.6255,653.2565 C 2030.9190,654.4125 2031.5617,655.3885 2031.8021,656.5745 C 2032.1437,658.2665 2030.3469,660.5405 2029.4450,662.0825 C 2028.5025,663.6925 2027.3182,665.5535 2025.9147,666.6385 C 2024.9402,667.3925 2025.8713,668.2415 2025.3533,669.1255 C 2024.6218,670.4245 2024.4317,671.9055 2023.5989,673.2005 C 2022.8011,671.8465 2023.3408,669.8565 2023.0948,668.3375 C 2022.9997,667.7165 2022.7095,667.1815 2023.3594,666.7995 C 2024.1540,666.3345 2023.6002,666.0555 2024.0112,665.4775 C 2024.8961,664.2325 2025.1914,662.7415 2025.0145,661.2805 C 2024.9303,660.5885 2024.6942,658.2915 2025.9525,658.2955 C 2025.7801,657.9625 2025.7125,657.6025 2025.7508,657.2155 C 2025.3593,657.6985 2024.8159,658.0745 2024.2189,658.2235 C 2024.1243,657.1955 2025.5959,656.6355 2024.1162,656.7845 C 2025.8600,655.9905 2023.5067,654.7345 2024.9338,653.9755 C 2024.3197,654.1335 2023.8390,653.8245 2023.6850,653.2555 C 2024.0876,653.1965 2024.4620,653.0525 2024.8083,652.8225 C 2024.1812,652.4705 2023.7920,651.6895 2024.8526,651.4555 C 2023.9820,651.1605 2024.5946,650.2965 2024.5262,649.4965 C 2024.4112,648.1665 2024.0196,646.7685 2023.6071,645.5235 C 2023.2018,644.2145 2022.5361,642.9615 2022.0321,641.6925 C 2021.5527,640.4835 2021.6517,639.0235 2020.9377,637.9195 C 2021.2128,638.9485 2021.4387,641.3015 2020.5458,642.2385 C 2020.9165,641.3855 2020.2590,640.6225 2020.2742,639.8015 C 2020.2874,639.0275 2020.3999,637.7595 2020.2947,637.0545 C 2020.1947,636.3855 2017.9249,631.6575 2019.5391,632.5905 C 2019.4990,632.3045 2019.4060,632.0405 2019.2611,631.7985 C 2019.0034,631.9425 2018.7457,632.0865 2018.4869,632.2305 C 2017.5650,629.1355 2018.2135,625.6715 2017.3948,622.5875 C 2017.2357,621.9905 2016.7300,621.6665 2016.5250,621.1145 C 2016.3434,620.6225 2016.6794,620.0435 2016.7089,619.5275 C 2016.7641,618.5835 2016.2925,616.7395 2017.6000,616.2475 C 2016.7798,616.3745 2015.3019,616.9255 2014.7873,616.1485 C 2013.8498,614.7315 2013.1555,613.1735 2013.2550,611.3515 C 2012.4829,611.8255 2012.7383,610.7865 2012.1870,610.2305 C 2011.7112,609.7515 2011.0751,609.3365 2010.9341,608.6155 C 2010.7658,608.7985 2010.8561,610.3515 2010.8107,610.7055 C 2010.6573,611.9245 2011.2685,613.1715 2010.4686,614.4465 C 2009.8912,615.3705 2009.1437,616.6525 2007.9251,616.7505 C 2006.6737,616.8525 2005.4338,615.1955 2006.4684,614.0865 C 2004.9879,614.4435 2006.1192,615.4905 2006.4075,616.3655 C 2006.8063,617.5765 2005.3611,618.9615 2004.3744,617.8305 C 2005.4717,618.6565 2002.9515,620.1235 2002.1710,619.2695 C 2002.3464,620.3735 2001.0648,624.1205 1999.3037,623.4335 C 1998.3947,623.0795 1999.5363,620.5905 1999.4163,619.8455 C 1999.3633,619.9135 1998.0511,623.3415 1998.7768,621.0695 C 1998.4112,621.6845 1998.2229,622.3335 1998.2093,623.0135 C 1997.3458,622.5705 1997.3023,620.6105 1998.0784,620.0615 C 1997.0774,619.3665 1996.9727,624.3855 1995.6533,623.1355 C 1995.0247,622.5405 1995.9728,619.2885 1996.5971,618.9815 C 1995.4897,619.3945 1994.9652,621.5445 1994.3280,622.5095 C 1994.0305,622.3235 1993.7891,622.0835 1993.6028,621.7895 C 1994.5324,621.4205 1994.7514,620.5105 1995.0618,619.7015 C 1994.5672,620.4085 1994.2826,621.4665 1993.2609,621.5725 C 1994.5155,620.1115 1994.2146,618.2745 1994.5979,616.6045 C 1994.4506,616.6185 1994.3068,616.6185 1994.1626,616.6045 C 1994.5993,617.8065 1992.6567,620.4965 1991.4760,620.9465 C 1989.7695,621.5975 1991.8337,614.7495 1992.1262,613.9905 C 1992.4201,613.2285 1992.4287,610.9795 1992.8995,610.5795 C 1994.0955,609.5655 1993.2174,606.7135 1992.8258,605.5955 C 1992.3225,604.1575 1992.7791,601.9725 1991.8241,600.7935 C 1991.4190,600.2935 1991.2230,599.6425 1990.9907,599.0455 C 1990.6420,598.1505 1989.5109,597.6225 1990.7815,597.3805 C 1989.9995,596.7935 1988.9908,596.5955 1989.1626,595.3535 C 1989.2906,594.4285 1989.5513,592.9415 1989.1630,592.1245 C 1989.1899,592.7975 1989.2785,594.3475 1988.1710,593.4915 C 1988.6419,594.1735 1988.9105,595.5305 1988.3623,596.3725 C 1986.6904,595.6635 1985.8562,593.8615 1985.0184,592.3835 C 1984.7882,591.9795 1985.7456,591.5685 1985.9742,592.1175 C 1986.1451,592.5305 1986.7252,592.6745 1987.1306,592.7945 C 1988.0448,593.0655 1989.3336,592.5675 1988.6129,591.4255 C 1988.2066,590.7805 1986.0997,589.9485 1987.5449,589.0285 C 1986.9525,589.0155 1986.3763,588.9435 1985.8153,588.8125 C 1986.0637,588.3235 1986.2042,587.8195 1986.2369,587.3005 C 1985.5197,587.6235 1984.7002,586.8455 1984.3898,586.3845 C 1983.8092,585.5235 1983.1307,586.1295 1982.2086,585.7165 C 1982.4436,586.4855 1982.7733,587.2165 1982.9218,588.0205 C 1982.6771,587.5255 1982.4508,587.0215 1982.2430,586.5085 C 1982.0389,587.0335 1982.0720,587.5145 1982.3414,587.9485 C 1981.6282,586.7685 1981.2558,586.0285 1982.2137,584.6355 C 1981.8649,584.6985 1981.5196,584.7215 1981.1752,584.7075 C 1981.4466,584.1965 1981.7323,583.6925 1982.0344,583.1955 C 1981.8875,583.2265 1981.7584,583.2995 1981.6473,583.4115 C 1981.5739,582.8595 1981.6491,582.3075 1981.8732,581.7555 C 1981.1989,582.9645 1981.0951,584.3165 1980.3341,585.4995 C 1979.4108,585.0775 1979.9335,584.5515 1980.1466,583.7945 C 1980.3950,582.9125 1979.4618,582.1845 1979.1112,581.5395 C 1979.1389,582.2735 1979.4718,583.0555 1978.8785,583.7705 C 1978.6917,582.4375 1977.3752,581.7905 1976.7395,580.7345 C 1975.9684,579.4545 1975.6510,577.6435 1975.1328,576.2135"
       id="path4608" />
  </g>
  
  
  
  
  
  
  
  
  
  
  
  
  
  
  
  
  
  
  
  
  
  
  
  
  
  
  
  
  
  
  
  
  
  
  
  
  
  
  
  
  
  
  
  
  
  
  
  
  
  
  
  
  
  
  
  
  
  
  
  
  
  
  
  
  
  
  
  
  
  
  
  
  
  
  
  
  
  
  
  
  
  
  
  
  
  
  
  
  
  
  
  
  
  
  
  
  
  
  
  
  
  
  
  
  
  
  
  
  
  
  
  
  
  
  
  
  
  
  
  
  
  
  
  
  
  
  
  
  
  
  
  
  
  
  
  
  
  
  
  
  
  
  
  
  
  
  
  
  
  
  
  
  
  
  
  
  
  
  
  
  
  
  
  
  
  
  
  
</svg>
