<?xml version="1.0" encoding="UTF-8" standalone="no"?>
<svg
   xmlns:dc="http://purl.org/dc/elements/1.1/"
   xmlns:cc="http://web.resource.org/cc/"
   xmlns:rdf="http://www.w3.org/1999/02/22-rdf-syntax-ns#"
   xmlns:svg="http://www.w3.org/2000/svg"
   xmlns="http://www.w3.org/2000/svg"
   xmlns:sodipodi="http://sodipodi.sourceforge.net/DTD/sodipodi-0.dtd"
   xmlns:inkscape="http://www.inkscape.org/namespaces/inkscape"
   viewBox="0 0 2752.766 1537.631"
   version="1.0"
   height="476.7276"
   width="939.74725"
   id="svg1926"
   sodipodi:version="0.32"
   inkscape:version="0.45.1"
   sodipodi:docname="BlankMap-World6.svg"
   sodipodi:docbase="/home/bennett/Desktop"
   inkscape:output_extension="org.inkscape.output.svg.inkscape">
  <sodipodi:namedview
     inkscape:window-height="590"
     inkscape:window-width="822"
     inkscape:pageshadow="2"
     inkscape:pageopacity="0.0"
     guidetolerance="10.0"
     gridtolerance="10.0"
     objecttolerance="10.0"
     borderopacity="1.0"
     bordercolor="#666666"
     pagecolor="#ffffff"
     id="base"
     inkscape:zoom="0.77893284"
     inkscape:cx="469.87363"
     inkscape:cy="238.3638"
     inkscape:window-x="178"
     inkscape:window-y="46"
     inkscape:current-layer="svg1926" />
  <metadata
     id="metadata24111">
    <rdf:RDF>
      <cc:Work
         rdf:about="">
        <dc:format>image/svg+xml</dc:format>
        <dc:type
           rdf:resource="http://purl.org/dc/dcmitype/StillImage" />
        <cc:license
           rdf:resource="http://web.resource.org/cc/PublicDomain" />
        <dc:title>Blank World Map</dc:title>
      </cc:Work>
      <cc:License
         rdf:about="http://web.resource.org/cc/PublicDomain">
        <cc:permits
           rdf:resource="http://web.resource.org/cc/Reproduction" />
        <cc:permits
           rdf:resource="http://web.resource.org/cc/Distribution" />
        <cc:permits
           rdf:resource="http://web.resource.org/cc/DerivativeWorks" />
      </cc:License>
    </rdf:RDF>
  </metadata>
  <defs
     id="defs1930" />
  <style
     type="text/css"
     id="style_css_sheet">
/*
 * Below are Cascading Style Sheet (CSS) definitions in use in this file,
 * which allow easily changing how countries are displayed.
 *
 */

/*
 * Circles around small countries
 *
 * Change opacity to 1 to display all circles.
 *
 */
.circle
{
   opacity:0;
   fill:#b9b9b9;
   fill-opacity:1;
   stroke:black;
   stroke-width:0.99986893;
   stroke-miterlimit:3.97446823;
   stroke-dasharray:none;
   stroke-opacity:1;
}

/*
 * Land
 */
.land
{
   fill: #b9b9b9;
   fill-opacity: 1;
   stroke: #ffffff;
   stroke-opacity: 1;
   stroke-width: 0.99986997;
   stroke-miterlimit: 3.97446823;
   stroke-dasharray: none;
}

/*
 * Additional style rules
 *
 * The following are examples of colouring countries.  You can substitute these with your own styles to colour the countries on the map.
 *
 * Color a few countries:
 *
 * .gb, .au, .nc
 * {
 *    fill:       #ff0000;
 * }
 *
 * Color a few small country circles (and the countries):
 *
 * .ms, .ky
 * {
 *    opacity:    1;
 *    fill:       #ff0000;
 * }
 *
 */

/*
 * Antarctica
 */

.aq
{
   fill:#e6e6e6;
}

/*
 * Sea
 */

.ocean
{
   opacity: 1;
   color: #000000;
   fill:white;
   fill-opacity:1;
   fill-rule:nonzero;
   stroke:#000000;
   stroke-width:0.5;
   stroke-linecap:butt;
   stroke-linejoin:miter;
   marker:none;
   marker-start:none;
   marker-mid:none;
   marker-end:none;
   stroke-miterlimit:1;
   stroke-dasharray:none;
   stroke-dashoffset:0;
   stroke-opacity:1;
   visibility:visible;
   display:inline;
   overflow:visible;
}

.lake
{
   fill:#ffffff;
   fill-opacity:1;
   stroke:#ffffff;
   stroke-opacity:1;
   stroke-width:0.99986997;
   stroke-miterlimit:3.97446823;
   stroke-dasharray:none;
}
</style>
  
  
  
  
  
  
  
  
  
  
  
  
  
  
  
  
  
  
  
  
  
  
  
  
  
  
  
  
  
  
  
  
  
  
  
  
  
  
  
  
  
  
  
  
  
  
  
  
  
  
  
  
  
  
  
  
  
  
  
  
  
  
  
  
  
  
  
  
  
  
  
  
  
  
  
  
  
  
  
  
  
  
  
  
  
  
  
  
  
  
  
  
  
  
  
  
  
  
  
  
  
  
  
  
  
  
  
  
  
  
  
  
  
  
  
  
  
  
  
  
  
  
  
  
  
  
  
  
  
  
  
  
  
  
  
  
  
  
  
  
  
  
  
  
  
  
  
  
  
  
  
  
  
  
  
  
  
  <path
     class="land mn"
     id="mn"
     d="M 1941.6542,335.5422 C 1943.5345,335.6872 1943.2943,334.5662 1944.1839,333.5602 C 1945.8196,331.7092 1948.9900,334.2402 1949.6201,332.5182 C 1950.2895,332.8212 1951.0795,333.1352 1952.1458,332.5902 C 1952.1027,332.3472 1952.0542,332.1082 1951.9971,331.8702 C 1953.5550,331.6702 1954.3845,331.3892 1956.0127,330.9332 C 1955.5191,330.5852 1955.3865,329.9692 1955.4409,329.3492 C 1955.9138,329.1252 1958.4517,328.9192 1958.5112,328.3472 C 1958.5892,327.6092 1959.7160,327.6112 1960.4823,327.3012 C 1961.5164,326.8832 1962.6999,327.0652 1963.6114,326.5912 C 1964.9259,325.9082 1965.8366,325.1532 1967.2662,324.8092 C 1968.3253,324.5542 1969.0233,324.8532 1970.0283,324.0402 C 1970.7936,323.4212 1971.3139,322.9942 1972.2321,322.8872 C 1973.2879,322.7642 1976.1113,323.0012 1976.1424,321.4292 C 1977.2653,321.4102 1977.5172,323.0912 1978.7927,322.7222 C 1979.1378,322.6222 1980.6653,321.7212 1980.8322,322.0662 C 1981.1949,322.8162 1981.0259,323.5022 1982.3798,323.5272 C 1984.1603,323.5612 1985.7950,323.8452 1987.6202,323.7882 C 1989.6418,323.7242 1991.0357,323.6592 1991.4240,325.1372 C 1992.1516,327.9362 1994.9528,328.3792 1998.1837,329.0952 C 1999.9591,329.4842 2001.3536,328.6272 2003.1425,328.6182 C 2003.3107,328.6182 2004.9345,328.5652 2005.1008,328.6112 C 2005.7532,328.7912 2006.4909,329.5702 2007.3139,329.4712 C 2008.3030,329.3522 2010.4795,329.2202 2011.2087,329.5112 C 2012.3668,329.9752 2013.3573,331.5652 2015.4408,330.1972 C 2016.9185,329.2282 2016.9082,329.3542 2018.3639,329.0912 C 2019.7748,328.8402 2021.1155,326.9002 2021.5804,326.0312 C 2022.2163,324.8382 2021.6993,324.2182 2020.7865,323.7842 C 2019.3800,323.1172 2019.6877,321.7112 2018.7180,320.7922 C 2018.0235,320.1342 2019.2798,315.6802 2021.3282,316.3872 C 2021.3801,315.3662 2021.8214,314.2722 2023.6009,313.8752 C 2025.3692,313.4812 2026.1033,311.7662 2026.4187,310.7712 C 2027.9891,311.2742 2029.1148,312.1192 2030.8821,312.4332 C 2032.6978,312.7572 2033.7962,313.8152 2035.7019,314.0112 C 2037.6452,314.2112 2039.3249,314.2092 2040.9423,314.8142 C 2042.2999,315.3212 2044.4526,316.6912 2046.5471,316.2272 C 2050.3527,315.3842 2051.3345,317.9352 2051.5795,319.8872 C 2051.7134,320.9762 2052.5975,321.8332 2052.5144,322.9702 C 2052.4221,324.2422 2054.7948,324.7132 2055.8685,325.3182 C 2057.0456,325.9832 2058.6654,325.8632 2059.7131,326.6412 C 2060.4419,327.1832 2062.1430,327.3722 2063.5221,326.9992 C 2065.5001,326.4652 2065.4541,327.7332 2067.9428,326.4422 C 2070.0385,325.3562 2072.1239,325.3392 2074.1144,324.9652 C 2078.0642,324.2242 2081.7378,325.4682 2085.0787,325.7602 C 2086.7478,325.9062 2087.4698,326.8402 2088.4057,327.6162 C 2089.8901,328.8522 2092.3373,328.4092 2094.5405,328.8592 C 2095.6757,329.0912 2095.4180,330.2592 2095.7570,331.0322 C 2096.1858,332.0122 2097.5636,332.4042 2098.3369,333.1572 C 2099.4150,334.2102 2100.8506,334.1822 2102.9552,334.0642 C 2105.5854,333.9162 2106.5295,334.8842 2108.6685,335.2332 C 2110.3686,335.5102 2112.4752,335.1402 2114.2907,335.2382 C 2115.6061,335.3082 2116.4739,335.8922 2118.1446,335.2782 C 2120.2741,334.4962 2122.0991,333.7442 2124.1505,333.5252 C 2126.2135,333.3052 2128.9235,332.6242 2130.7177,332.7882 C 2132.3257,332.9352 2133.6314,332.4582 2134.9685,331.0132 C 2136.4136,329.4522 2138.1539,328.6732 2140.2907,327.7822 C 2142.3174,326.9372 2143.5902,326.0642 2145.1047,326.4592 C 2146.8592,326.9182 2148.6157,326.5212 2149.7882,327.6472 C 2150.6355,328.4612 2151.6167,329.3092 2153.1814,329.5532 C 2154.5564,329.7672 2156.0808,328.9962 2157.6808,328.7202 C 2162.0885,327.9612 2163.0367,329.4282 2160.7240,332.7192 C 2158.7093,335.5872 2155.4777,339.9002 2155.6003,342.3382 C 2155.6493,343.3232 2153.8241,343.8432 2153.5496,345.0822 C 2153.3051,346.1852 2154.6887,347.2352 2155.6831,347.6222 C 2156.8563,348.0792 2158.2422,346.4692 2159.7135,346.5802 C 2161.5817,346.7212 2163.8806,346.0792 2165.1749,346.9552 C 2166.3039,347.6992 2166.8533,348.5732 2169.0396,346.8002 C 2170.8008,345.4432 2172.0852,345.0892 2173.8878,345.2022 C 2176.9948,345.3962 2179.3165,347.6022 2181.1016,349.1142 C 2183.1550,350.8592 2185.8194,352.1382 2186.9279,354.5392 C 2188.2189,357.3592 2183.3637,357.1862 2181.5434,356.8892 C 2180.3313,356.6912 2179.6952,355.5482 2178.1770,356.3902 C 2177.6877,356.6622 2176.2356,356.1822 2175.7446,356.2092 C 2174.2455,356.2922 2172.8965,356.9382 2171.3286,357.4972 C 2170.2324,357.8882 2169.0166,356.8312 2168.2122,357.7542 C 2167.3362,358.7602 2167.1109,359.2532 2165.7492,359.1752 C 2164.1632,359.0842 2162.6467,358.8942 2160.9580,360.4812 C 2160.3311,361.0712 2159.8020,361.7222 2159.3976,362.3602 C 2158.9609,363.0492 2159.5377,363.7202 2159.0531,364.2692 C 2158.5344,364.8572 2155.5160,366.2832 2154.6693,366.7252 C 2153.0963,367.5472 2151.1467,367.5682 2149.8023,367.5402 C 2148.8113,367.5202 2147.5572,366.7222 2146.3461,367.7912 C 2145.2125,368.7922 2144.3918,369.9932 2142.9737,370.8212 C 2142.0369,371.3682 2141.3618,371.2322 2140.4702,371.9472 C 2139.7955,372.4882 2139.2206,372.9932 2138.4593,372.9322 C 2136.8357,372.8012 2135.1896,372.5112 2133.7034,372.1952 C 2131.1876,371.6622 2129.6434,368.6252 2125.5718,370.6442 C 2124.0090,371.4192 2123.3520,372.7342 2123.2386,373.8152 C 2123.1667,374.4922 2122.3010,375.1192 2122.1516,375.7892 C 2121.9949,376.4942 2122.6464,376.5562 2122.9077,377.0132 C 2123.4203,377.9092 2128.1884,381.2262 2124.8144,382.3132 C 2123.9559,382.5902 2122.3599,383.6282 2121.5389,384.1302 C 2120.4137,384.8182 2118.9074,384.9332 2117.9664,385.9522 C 2116.5962,387.4362 2115.1439,389.1362 2113.2187,390.2102 C 2111.6589,391.0812 2109.5048,391.4712 2107.8161,392.1962 C 2105.9015,393.0192 2103.3077,392.7832 2101.5668,392.8562 C 2099.3213,392.9512 2097.6647,392.5102 2095.3138,392.8282 C 2090.4232,393.4892 2086.3242,393.9262 2081.1426,395.8772 C 2079.0455,396.6682 2076.9232,397.4362 2074.8843,398.5422 C 2073.0401,399.5442 2073.2053,399.7062 2071.6768,399.5732 C 2070.7445,399.4932 2069.6585,399.5702 2069.1519,398.9812 C 2068.1574,397.8262 2068.0466,397.7862 2065.7474,397.9992 C 2061.5700,398.3852 2058.5279,396.4992 2054.9493,395.8592 C 2053.2738,395.5602 2051.4507,395.2492 2050.1163,394.5162 C 2048.6589,393.7172 2048.3078,392.0872 2046.3591,391.7382 C 2044.6427,391.4312 2042.6275,391.6952 2040.9156,391.3462 C 2039.4296,391.0442 2037.8986,390.8042 2036.3644,390.5722 C 2034.5676,390.3002 2032.7560,391.2732 2030.8008,391.4542 C 2028.2677,391.6872 2025.9314,391.0682 2023.5246,390.9962 C 2019.4560,390.8752 2016.0916,389.3682 2011.7818,389.7732 C 2010.5721,389.8872 2008.2818,390.4412 2007.3452,389.9862 C 2006.9035,389.7712 2006.8431,389.1992 2006.7967,388.7562 C 2006.7210,388.0292 2005.8071,387.5842 2005.2429,387.2072 C 2002.7730,385.5612 2002.7181,382.4182 2001.0780,380.2672 C 2000.4455,379.4412 1998.8912,379.2872 1999.3949,377.8362 C 1999.8894,376.4092 1996.2100,377.0482 1995.0286,376.4342 C 1993.6661,375.7252 1992.2191,374.9762 1991.0599,374.0742 C 1990.0113,373.2592 1988.3385,373.3332 1987.3995,372.3482 C 1985.2502,370.1022 1980.5249,371.0572 1976.9816,370.7262 C 1974.0436,370.4512 1971.1197,369.9732 1968.2628,369.5992 C 1965.7386,369.2702 1962.9510,367.6342 1963.7818,364.9192 C 1964.1908,363.6302 1966.6150,362.3912 1966.0758,361.2892 C 1965.3882,359.8922 1966.8712,358.1062 1966.2811,356.8232 C 1965.5234,355.1832 1964.8619,353.9302 1963.3864,352.7532 C 1962.0291,351.6722 1962.1515,350.1942 1961.3652,348.8122 C 1960.8439,347.8962 1959.3412,347.3552 1958.5602,346.5522 C 1957.8620,345.8022 1958.0811,346.8122 1957.1526,346.8292 C 1956.4111,346.8422 1955.9532,346.3132 1955.5374,345.9802 C 1954.4353,345.0992 1954.1338,345.3802 1952.4296,345.4762 C 1950.2806,345.5972 1948.7972,344.2992 1947.7278,343.2402 C 1946.9027,342.4242 1946.1134,341.4802 1944.7346,341.1552 C 1943.4197,340.8452 1942.6728,340.9162 1943.3229,339.6882 C 1943.7977,338.7932 1941.3255,338.6462 1941.2863,337.7942 C 1941.2735,337.5022 1941.7770,337.4922 1941.9762,337.3132 C 1942.5444,336.8072 1941.7041,335.9262 1941.6542,335.5422" />
  
  
  
  
  
  
  
  
  
  
  
  
  
  
  
  
  
  
  
  
  
  
  
  
  
  
  
  
  
  
  
  
  
  
  
  
  
  
  
  
  
  
  
  
  
  
  
  
  
  
  
  
  
  
  
  
  
  
  
  
  
  
  
  
  
  
  
  
  
  
  
  
  
  
</svg>
