<?xml version="1.0" encoding="UTF-8" standalone="no"?>
<svg
   xmlns:dc="http://purl.org/dc/elements/1.1/"
   xmlns:cc="http://web.resource.org/cc/"
   xmlns:rdf="http://www.w3.org/1999/02/22-rdf-syntax-ns#"
   xmlns:svg="http://www.w3.org/2000/svg"
   xmlns="http://www.w3.org/2000/svg"
   xmlns:sodipodi="http://sodipodi.sourceforge.net/DTD/sodipodi-0.dtd"
   xmlns:inkscape="http://www.inkscape.org/namespaces/inkscape"
   viewBox="0 0 2752.766 1537.631"
   version="1.0"
   height="476.7276"
   width="939.74725"
   id="svg1926"
   sodipodi:version="0.32"
   inkscape:version="0.45.1"
   sodipodi:docname="BlankMap-World6.svg"
   sodipodi:docbase="/home/bennett/Desktop"
   inkscape:output_extension="org.inkscape.output.svg.inkscape">
  <sodipodi:namedview
     inkscape:window-height="590"
     inkscape:window-width="822"
     inkscape:pageshadow="2"
     inkscape:pageopacity="0.0"
     guidetolerance="10.0"
     gridtolerance="10.0"
     objecttolerance="10.0"
     borderopacity="1.0"
     bordercolor="#666666"
     pagecolor="#ffffff"
     id="base"
     inkscape:zoom="0.77893284"
     inkscape:cx="469.87363"
     inkscape:cy="238.3638"
     inkscape:window-x="178"
     inkscape:window-y="46"
     inkscape:current-layer="svg1926" />
  <metadata
     id="metadata24111">
    <rdf:RDF>
      <cc:Work
         rdf:about="">
        <dc:format>image/svg+xml</dc:format>
        <dc:type
           rdf:resource="http://purl.org/dc/dcmitype/StillImage" />
        <cc:license
           rdf:resource="http://web.resource.org/cc/PublicDomain" />
        <dc:title>Blank World Map</dc:title>
      </cc:Work>
      <cc:License
         rdf:about="http://web.resource.org/cc/PublicDomain">
        <cc:permits
           rdf:resource="http://web.resource.org/cc/Reproduction" />
        <cc:permits
           rdf:resource="http://web.resource.org/cc/Distribution" />
        <cc:permits
           rdf:resource="http://web.resource.org/cc/DerivativeWorks" />
      </cc:License>
    </rdf:RDF>
  </metadata>
  <defs
     id="defs1930" />
  <style
     type="text/css"
     id="style_css_sheet">
/*
 * Below are Cascading Style Sheet (CSS) definitions in use in this file,
 * which allow easily changing how countries are displayed.
 *
 */

/*
 * Circles around small countries
 *
 * Change opacity to 1 to display all circles.
 *
 */
.circle
{
   opacity:0;
   fill:#b9b9b9;
   fill-opacity:1;
   stroke:black;
   stroke-width:0.99986893;
   stroke-miterlimit:3.97446823;
   stroke-dasharray:none;
   stroke-opacity:1;
}

/*
 * Land
 */
.land
{
   fill: #b9b9b9;
   fill-opacity: 1;
   stroke: #ffffff;
   stroke-opacity: 1;
   stroke-width: 0.99986997;
   stroke-miterlimit: 3.97446823;
   stroke-dasharray: none;
}

/*
 * Additional style rules
 *
 * The following are examples of colouring countries.  You can substitute these with your own styles to colour the countries on the map.
 *
 * Color a few countries:
 *
 * .gb, .au, .nc
 * {
 *    fill:       #ff0000;
 * }
 *
 * Color a few small country circles (and the countries):
 *
 * .ms, .ky
 * {
 *    opacity:    1;
 *    fill:       #ff0000;
 * }
 *
 */

/*
 * Antarctica
 */

.aq
{
   fill:#e6e6e6;
}

/*
 * Sea
 */

.ocean
{
   opacity: 1;
   color: #000000;
   fill:white;
   fill-opacity:1;
   fill-rule:nonzero;
   stroke:#000000;
   stroke-width:0.5;
   stroke-linecap:butt;
   stroke-linejoin:miter;
   marker:none;
   marker-start:none;
   marker-mid:none;
   marker-end:none;
   stroke-miterlimit:1;
   stroke-dasharray:none;
   stroke-dashoffset:0;
   stroke-opacity:1;
   visibility:visible;
   display:inline;
   overflow:visible;
}

.lake
{
   fill:#ffffff;
   fill-opacity:1;
   stroke:#ffffff;
   stroke-opacity:1;
   stroke-width:0.99986997;
   stroke-miterlimit:3.97446823;
   stroke-dasharray:none;
}
</style>
  
  
  
  
  
  
  
  
  
  
  
  
  
  
  
  
  
  
  
  
  
  
  <g
     class="land mx"
     id="mx">
    <path
       d="M 443.2915,543.2375 C 443.5074,543.7755 443.8067,544.2795 444.1898,544.7505 C 444.0190,543.8455 443.3452,543.0205 442.5389,542.4455 C 442.7896,542.7085 443.0407,542.9735 443.2915,543.2375"
       id="path2614" />
    <path
       d="M 366.0122,506.9495 C 365.2128,507.4085 365.6091,508.4345 366.3705,509.1805 C 366.6424,508.4515 365.7415,507.6795 366.0122,506.9495"
       id="path2594" />
    <path
       d="M 389.4613,514.0055 C 389.1332,514.5845 388.1579,516.4895 389.6727,517.0285 C 389.8350,516.1305 390.1915,515.0455 389.4613,514.0055"
       id="path2596" />
    <path
       d="M 412.1391,544.6775 C 412.1228,545.2465 412.4860,545.4845 413.0298,545.3975 C 412.8200,545.9705 413.1339,546.5865 413.7302,546.9815 C 411.9146,545.1995 413.6750,542.7495 413.2047,540.9335 C 413.4254,542.3085 412.7275,543.6155 412.1391,544.6775"
       id="path2600" />
    <path
       d="M 405.2622,508.4615 C 405.1818,507.5965 403.4221,503.9155 402.2306,503.8595 C 400.4133,503.7765 404.8855,508.2125 405.2622,508.4615"
       id="path2602" />
    <path
       d="M 414.1462,547.1975 C 414.8520,547.7685 415.5089,548.4845 416.4281,548.5645 C 415.9765,547.7345 415.0565,547.0915 414.1462,547.1975"
       id="path2604" />
    <path
       d="M 411.7459,510.7655 C 412.5627,509.5435 411.8498,507.9595 412.0618,506.5175 C 410.0497,506.8055 410.7118,508.6425 409.9048,509.9015 C 410.5128,510.2075 411.1265,510.4955 411.7459,510.7655"
       id="path2606" />
    <path
       d="M 421.5891,533.9495 C 420.6011,534.0835 420.5031,534.9955 420.7786,535.8925 C 420.8681,535.1405 421.9128,534.8705 421.5891,533.9495"
       id="path2608" />
    <path
       d="M 424.1366,542.2295 C 424.1428,542.9855 424.4801,543.7415 425.0272,544.3895 C 425.8641,543.7245 425.0278,542.6865 424.1366,542.2295"
       id="path2610" />
    <path
       d="M 431.1540,550.7975 C 431.1608,550.2165 430.7993,549.6465 430.2519,549.2855 C 430.3630,549.8655 430.6637,550.3695 431.1540,550.7975"
       id="path2612" />
    <path
       d="M 443.8691,542.8055 C 443.7010,543.3815 443.9215,543.8615 444.5305,544.2455 C 444.5701,543.6995 444.3497,543.2195 443.8691,542.8055"
       id="path2616" />
    <path
       d="M 454.8874,571.8935 C 454.9285,572.5115 455.3959,572.9185 456.0271,572.9015 C 455.9302,572.3245 455.4917,571.9075 454.8874,571.8935"
       id="path2618" />
    <path
       d="M 375.0414,478.0775 C 381.1210,477.4825 387.1094,476.6845 393.3928,476.4925 C 393.1612,477.0995 392.6740,477.5575 392.6845,478.2935 C 401.2555,481.4715 410.0035,483.8005 418.4841,487.3895 C 422.9076,489.2645 427.4416,488.4455 431.4972,488.4455 C 433.6234,488.4455 435.7495,488.4455 437.8757,488.4455 C 439.1051,488.4455 441.7833,488.9615 442.6625,488.3555 C 443.8348,487.5445 442.5074,485.5975 443.6742,484.7805 C 444.7008,484.0625 447.3394,484.5575 448.7679,484.5575 C 450.7897,484.5575 452.7898,484.4815 454.8186,484.5055 C 456.6832,484.5275 457.1949,485.2965 458.1593,486.7045 C 458.9666,487.8845 460.6193,488.1475 461.6737,489.3285 C 462.5881,490.3535 464.1571,492.0925 465.3361,492.7525 C 466.4485,493.3755 467.9455,493.8585 468.5489,495.0565 C 469.4214,496.7895 469.8282,498.2795 470.0970,499.9885 C 470.6928,503.7765 474.6603,505.4505 477.9277,507.2365 C 479.0671,507.8595 480.9362,509.1835 481.9322,508.4725 C 482.6504,507.9595 483.4278,507.0785 483.6339,506.1865 C 483.8991,505.0375 484.5723,503.2115 485.4149,502.4175 C 485.9457,501.9175 487.3325,501.7315 488.0229,501.3755 C 488.7788,500.9855 490.6068,501.7025 491.5684,501.7145 C 492.5781,501.7275 493.6580,501.8735 494.6975,502.0645 C 495.3444,502.1825 496.5501,503.7315 497.2939,504.2615 C 498.5117,505.1285 500.2149,507.0715 500.8148,508.2905 C 501.6263,509.9415 502.6521,511.6765 503.2272,513.3645 C 503.8279,515.1385 505.3016,516.2055 506.3485,517.8195 C 506.8281,518.5575 507.2985,519.2995 507.8797,519.9905 C 508.3356,520.5325 508.8788,520.5135 509.2893,520.9745 C 510.2968,522.1045 509.8209,523.9265 510.1473,525.1285 C 510.5586,526.6405 512.0678,527.7145 512.3289,529.3605 C 512.3712,529.6245 512.9848,530.9975 512.9822,530.9955 C 513.5152,531.3895 514.3044,531.3495 514.8564,531.4325 C 515.6676,531.5545 516.1811,532.1185 516.9439,532.4355 C 517.4967,532.6645 518.1018,532.6385 518.6413,532.9395 C 519.4467,533.3905 519.0826,533.9355 520.2076,533.9725 C 522.0181,534.0335 523.4188,534.0845 525.1098,535.2835 C 526.6502,536.3785 526.8366,534.8975 528.1504,534.8845 C 527.4193,538.8245 525.1210,542.0955 524.2782,546.0425 C 524.1028,546.8675 523.7603,553.9015 522.6542,553.7485 C 524.0399,555.3855 523.0131,557.7335 523.1530,559.4365 C 523.2927,561.5555 522.2010,563.2695 522.4564,565.4455 C 522.7180,567.6755 523.3098,569.6925 524.9731,571.5455 C 526.7609,573.5385 526.0830,573.4545 525.5908,575.4925 C 525.3639,574.6885 526.1970,573.5555 525.5797,572.8895 C 524.4110,571.6295 523.9524,570.1595 522.9945,568.7965 C 523.5356,570.0505 523.2316,571.3845 523.9306,572.6125 C 524.5608,573.7185 525.1457,573.8325 525.4580,575.1755 C 526.1094,577.9795 527.7438,580.8875 529.5731,583.2385 C 531.6724,585.9415 532.6103,588.1205 533.8321,591.1285 C 534.3434,592.3885 535.4428,593.3245 536.0643,594.5275 C 536.6007,595.5675 536.8856,596.5195 538.1104,597.0195 C 537.4910,596.9735 536.9403,596.2465 536.5877,596.6605 C 537.9599,597.0065 536.9063,598.6555 536.5641,599.1805 C 537.7890,599.1235 536.4729,597.8265 537.5072,597.6275 C 537.8951,597.6505 538.1006,597.4725 538.1224,597.0925 C 538.8697,597.4715 539.6815,597.5195 540.4508,597.5505 C 542.9448,597.6505 545.2165,598.9115 546.6976,600.9995 C 547.9560,602.7735 548.9468,602.6295 550.8962,602.1295 C 552.1215,601.8145 554.2481,601.3895 555.0490,600.4045 C 554.2998,600.5895 553.5626,600.8295 552.9102,601.1975 C 553.8336,600.5955 561.4924,598.7965 561.9157,599.9005 C 561.1333,597.8845 566.9928,596.7965 568.0399,598.3885 C 566.3884,598.1045 568.2199,599.4795 568.1058,600.1885 C 568.5761,599.7335 569.0474,599.9515 569.6691,599.9005 C 570.0679,599.9815 570.4655,600.0295 570.8622,600.0455 C 570.9160,599.7625 571.0103,599.4975 571.1450,599.2505 C 571.9837,598.8995 573.7278,596.9595 571.4482,596.8055 C 571.8803,596.4005 572.3322,596.0165 572.8036,595.6535 C 572.1500,596.0795 571.5114,596.5295 570.8010,596.8785 C 571.4620,595.3975 573.3838,594.8365 574.6832,594.0135 C 576.4951,592.8675 576.2093,591.1985 576.8289,589.3625 C 577.1508,588.4065 577.9350,587.9585 578.4491,587.1545 C 578.9673,586.3435 578.6303,585.2335 578.5886,584.2795 C 578.4878,581.9975 579.4546,580.3445 579.6788,578.2315 C 579.5608,578.5195 579.4063,578.7835 579.2155,579.0235 C 579.8890,575.7985 584.4681,575.1825 587.3842,574.8495 C 589.4880,574.6095 591.1124,574.0475 593.0190,573.3195 C 595.5100,572.3685 597.9242,573.4525 600.5849,573.6955 C 600.1101,573.5155 599.6289,573.4205 599.1439,573.4075 C 600.2891,573.1085 601.5619,573.8275 602.7095,574.1285 C 600.7878,573.7535 603.8272,572.5785 605.1946,573.1495 C 607.2355,574.0025 607.0071,576.4075 606.6286,577.9255 C 606.1278,579.9395 604.5937,581.0455 603.3442,582.5435 C 602.6893,583.3295 601.9190,584.3155 601.7000,585.3605 C 601.5767,585.9465 602.3366,588.3245 601.5105,587.0165 C 601.9847,588.1855 600.0820,589.2215 600.1173,590.4005 C 603.6980,589.9575 599.3534,592.2125 600.3454,593.3525 C 600.4882,592.8125 600.9045,592.4115 601.5218,592.4165 C 600.7264,593.8195 600.6962,595.5505 600.1548,597.0665 C 599.7130,598.3055 598.6700,600.7445 598.8261,602.1355 C 596.8331,600.2675 597.9138,598.8475 597.2095,596.8075 C 596.1938,597.5845 596.2664,597.6135 595.8432,598.6685 C 595.5019,599.5195 594.7597,599.4885 594.0600,599.9075 C 592.5743,600.7965 591.8042,603.3245 591.2060,604.8715 C 590.6204,604.3305 588.8863,603.3005 588.6641,604.6025 C 588.4933,605.6055 588.3959,605.3755 586.9653,605.3755 C 583.8229,605.3755 580.6816,605.3755 577.5392,605.3755 C 576.8259,605.3755 574.7435,604.9025 574.7645,605.9775 C 574.7722,606.8525 574.9392,607.7715 574.9754,608.6535 C 575.0718,611.0025 573.2371,610.2715 571.3678,610.2715 C 572.8458,611.5965 573.9145,613.2495 575.7667,614.0875 C 577.3875,614.8205 577.3629,616.6545 578.9111,617.4185 C 579.4347,617.6775 579.2073,620.1705 578.7953,620.4945 C 578.1472,621.0045 575.3223,620.4945 574.5188,620.4945 C 573.0222,620.4945 570.8110,620.0975 569.4849,620.7445 C 568.1942,621.3745 567.0583,623.0502 566.7100,624.3562 C 566.4013,625.5142 565.2022,627.1750 566.2976,628.6200 C 566.7297,629.1890 565.7168,633.0365 565.2421,633.6715 C 564.4509,632.7995 563.5772,632.0035 562.7836,631.1325 C 562.3238,630.6275 559.9790,627.0825 561.5262,628.9905 C 561.1136,627.9415 559.7570,627.5275 558.9562,626.8335 C 557.7808,625.8145 556.8830,624.5595 555.6358,623.5595 C 553.1331,621.5535 551.6790,619.6825 548.5277,618.6955 C 548.4894,619.8315 551.4085,620.3445 552.0737,621.1435 C 550.1906,620.2395 548.2497,619.3525 546.2230,619.4155 C 546.7283,619.2135 547.0985,618.7905 547.2286,618.2635 C 546.6193,618.1775 546.1601,618.3695 545.8512,618.8395 C 545.7498,617.0825 544.1675,617.6355 544.1120,618.9105 C 544.6439,618.8565 545.1675,618.9525 545.6828,619.1995 C 542.9954,619.3795 541.9093,620.9955 539.5503,621.7265 C 537.4207,622.3865 535.7155,623.3835 533.5181,623.8215 C 531.8600,624.1525 531.1022,623.9445 529.2990,623.0505 C 527.2949,622.0565 526.1030,621.9215 523.9878,621.5985 C 522.8831,621.4305 522.1470,620.8775 521.2528,620.1835 C 520.1135,619.2995 519.0965,619.1115 517.8099,618.6695 C 516.7671,618.3115 516.4284,617.4815 515.5936,616.8555 C 514.5758,616.0925 512.9588,615.9415 511.8019,615.6605 C 510.6595,615.3825 509.3785,615.2735 508.2760,614.7775 C 507.1211,614.2565 506.1904,613.3795 504.9938,612.8885 C 502.2291,611.7545 499.5178,611.1135 496.9655,609.3715 C 494.8585,607.9335 493.5166,605.9185 491.5699,604.3995 C 490.8075,603.8045 489.9954,604.0425 489.2461,604.1915 C 488.1175,604.4175 485.9981,603.5995 484.8325,603.2155 C 482.8951,602.5775 480.2335,601.7105 478.7704,600.1075 C 478.0449,599.3135 477.4851,598.4285 476.8417,597.5835 C 475.7465,596.1455 474.5285,596.0925 473.1076,595.2245 C 472.5999,593.8895 469.0771,593.2065 467.6967,592.1525 C 466.9722,591.5995 467.0008,590.7175 466.2813,590.1205 C 465.4722,589.4495 464.5549,587.8975 463.9995,587.0145 C 463.3475,585.9795 461.9355,583.1355 463.1098,582.3375 C 463.9260,581.7825 465.0445,582.0825 465.6745,581.2285 C 466.2636,580.4295 464.4974,579.7635 463.9153,579.8895 C 464.0604,578.8125 467.3183,575.2015 465.9833,573.8705 C 464.7530,572.6365 464.2476,571.9185 463.4446,570.4065 C 462.5798,568.7805 463.0586,567.5305 462.5855,565.9055 C 461.5682,562.4175 457.6338,559.5035 455.4314,556.4565 C 452.8834,552.9395 450.3738,550.3415 446.6726,547.8495 C 447.6186,548.2175 448.5417,549.2665 448.6833,547.9215 C 447.3199,548.0755 444.6676,546.7915 444.9234,545.2985 C 445.1078,544.2235 444.5870,541.1235 442.7407,541.9445 C 442.4826,540.6705 442.4825,541.6345 441.4652,541.1615 C 440.7711,540.8375 440.1300,540.2935 439.4002,540.0735 C 440.3401,540.2495 440.4049,540.1885 439.5924,539.8905 C 439.0981,539.4425 439.0684,538.7955 438.5301,538.3445 C 438.1561,538.7415 437.6963,539.0305 437.1502,539.2085 C 436.7506,538.2975 437.8605,538.2195 437.8208,537.4075 C 436.9025,538.4115 436.2043,537.8035 434.7230,537.4795 C 434.9658,537.3175 435.2033,537.1495 435.4354,536.9755 C 434.6698,536.4425 434.3781,536.5865 434.5601,537.4075 C 434.3103,536.3655 434.1573,535.3345 434.3806,534.4045 C 434.4641,534.0585 435.1276,531.6925 435.3351,533.0165 C 435.4555,532.4615 435.8054,531.4145 436.5271,532.2965 C 436.4498,531.5435 436.1444,530.9025 435.3965,531.5045 C 435.5053,530.5765 435.0042,529.3855 433.8702,528.8205 C 432.9718,528.3735 432.4055,529.1735 431.3624,528.4545 C 430.2312,527.6745 430.5676,525.2825 429.3788,524.9955 C 428.5535,524.7965 426.0065,524.5375 425.6221,523.4855 C 425.2131,522.3695 423.9719,518.5975 425.4524,518.6165 C 424.7207,518.5365 422.9530,518.2895 423.0037,517.6795 C 422.7664,517.9535 422.6454,518.2895 422.6418,518.6875 C 422.2749,517.6235 420.7396,517.5625 419.9575,516.8665 C 419.2881,516.2685 418.8206,515.2515 418.3185,514.5545 C 417.7994,513.8385 416.9379,513.8035 416.3313,513.2155 C 415.3952,512.3075 415.0725,510.6525 414.1219,509.8895 C 412.4734,508.5675 413.0298,507.3125 412.1451,505.7995 C 411.1325,506.7805 410.7095,504.0405 410.3530,503.4235 C 409.1709,501.3775 408.7980,500.2035 408.3006,498.1525 C 407.8946,496.4765 406.1825,494.9555 406.0723,493.2815 C 406.0223,492.5055 406.7228,490.5525 406.2200,489.9595 C 405.3950,488.9865 403.7261,488.9985 402.7255,488.7015 C 401.1022,488.2205 402.2225,486.3935 399.9039,486.2405 C 399.1142,486.1885 399.1480,487.0415 398.2602,486.9795 C 397.4104,486.9185 396.4814,486.2925 395.7489,485.7335 C 394.2040,484.5525 392.6469,484.1925 391.0450,482.9765 C 391.5075,483.8885 392.9371,484.7335 392.9262,485.6755 C 392.9117,486.8395 392.5556,488.1195 392.4251,489.2705 C 392.2916,490.4335 393.6553,491.5785 393.7833,492.7685 C 393.9247,494.0755 394.2517,495.4375 394.1288,496.6865 C 393.8274,499.7295 395.6108,500.9245 398.3102,503.1665 C 400.7597,505.2035 401.6961,506.6415 402.3840,509.2565 C 403.3674,508.3215 404.6699,510.5385 405.1011,511.3355 C 405.3278,511.7545 405.5457,512.5995 406.0030,512.9175 C 406.3714,513.1745 407.6100,513.4275 407.5199,513.9975 C 407.3098,515.3115 408.0536,518.9095 409.6055,520.0095 C 411.6992,521.4955 412.3245,524.1545 414.6044,525.2395 C 413.7362,526.0465 415.4968,528.6395 415.9328,529.7755 C 416.4911,529.1415 415.5679,527.6075 415.1686,526.8235 C 419.1405,527.4435 419.5908,539.1975 421.9965,538.6325 C 422.0499,539.8245 422.2352,541.2055 422.8458,542.3765 C 423.4905,543.6135 424.6359,544.2815 423.9677,545.5865 C 423.1007,547.2825 424.5995,550.4785 427.0572,550.2245 C 425.4216,550.3895 426.9062,550.4425 427.0696,550.1205 C 427.2679,549.7285 427.1955,549.2285 427.4398,548.8555 C 428.0219,549.7915 429.8444,551.1055 430.7592,551.7315 C 431.2621,552.0765 431.5994,554.2305 431.9947,554.8315 C 432.8921,556.1955 435.0980,557.1565 433.6183,558.8075 C 433.0295,559.4615 430.7862,561.5165 429.7289,561.0905 C 428.3400,560.5295 428.4498,557.7375 427.7021,556.6725 C 427.1542,555.8915 426.3346,555.3135 425.5579,554.7605 C 424.3036,553.8685 423.4638,552.5685 422.3291,551.5545 C 420.6736,550.0765 418.4221,549.4325 416.9409,547.7155 C 415.6985,546.2755 413.2332,545.4365 413.3596,543.3845 C 413.3269,543.8765 413.2547,544.3565 413.1428,544.8235 C 412.4920,540.6685 415.4623,538.0195 412.1816,533.7155 C 410.8487,532.0545 408.9299,531.8425 407.3591,530.3015 C 406.6423,529.5985 405.5372,528.5025 405.2293,527.6165 C 405.0085,526.9795 405.7365,526.8305 405.2770,526.1035 C 404.9885,526.6545 405.2695,527.7385 404.6207,528.0475 C 403.9606,528.3625 403.1291,527.7085 402.5207,528.2575 C 402.0286,528.7025 401.3404,527.7465 401.0394,527.3435 C 400.3175,526.3765 399.4708,526.2065 398.4986,525.5985 C 398.2546,525.3025 397.9816,525.0325 397.6775,524.7855 C 397.2112,524.6865 396.7436,524.5735 396.2757,524.4465 C 395.3111,523.8855 395.5875,523.5785 395.2033,522.8325 C 394.2896,521.0575 391.3634,520.7535 390.6057,518.7585 C 392.4411,518.9305 394.9830,519.8565 396.1285,518.5425 C 396.6548,520.4125 399.9322,519.9195 399.5541,521.8545 C 400.2448,521.1705 399.9658,518.8145 398.7296,518.0395 C 398.8779,518.4825 399.0408,520.2785 398.0062,519.8515 C 397.3970,519.5995 397.6678,518.1315 397.5950,517.7515 C 397.3670,517.9125 397.1473,518.0805 396.9331,518.2555 C 397.2329,516.4105 399.4407,514.6445 397.6087,512.3515 C 395.7014,509.9675 393.3987,506.8715 390.6321,505.2685 C 388.3551,503.9505 386.5222,502.8955 385.3402,500.5955 C 384.8964,499.7325 385.3185,499.1125 385.2482,498.2925 C 385.1564,497.2165 383.9373,496.7525 384.2653,496.1525 C 384.0966,496.3615 383.9078,496.5535 383.6991,496.7285 C 382.5903,494.7945 384.3902,493.9425 382.1282,492.1505 C 381.0820,491.3295 381.7703,490.6975 381.4070,489.8165 C 380.9188,488.6325 379.6048,487.8545 378.9710,486.7655 C 378.4981,485.9525 378.6954,485.2885 379.0561,484.7785 C 379.3717,484.3315 378.4037,483.6215 378.0135,483.1815 C 377.6541,482.8925 377.3178,482.5835 377.0055,482.2565 C 376.9179,481.7775 376.8209,481.2985 376.7133,480.8165 C 376.0922,479.7775 374.9013,479.1955 375.0414,478.0775"
       id="path2630" />
    <path
       d="M 568.1595,598.2455 C 569.2266,598.4715 569.7539,597.4105 570.6228,597.1655 C 569.6427,597.0285 568.8671,597.8305 568.1595,598.2455"
       id="path2634" />
    <path
       d="M 605.2710,584.2785 C 606.1363,583.5195 606.9244,582.5315 607.2583,581.3975 C 606.4598,582.2235 604.2620,582.2915 605.2710,584.2785"
       id="path2772" />
  </g>
  
  
  
  
  
  
  
  
  
  
  
  
  
  
  
  
  
  
  
  
  
  
  
  
  
  
  
  
  
  
  
  
  
  
  
  
  
  
  
  
  
  
  
  
  
  
  
  
  
  
  
  
  
  
  
  
  
  
  
  
  
  
  
  
  
  
  
  
  
  
  
  
  
  
  
  
  
  
  
  
  
  
  
  
  
  
  
  
  
  
  
  
  
  
  
  
  
  
  
  
  
  
  
  
  
  
  
  
  
  
  
  
  
  
  
  
  
  
  
  
  
  
  
  
  
  
  
  
  
  
  
  
  
  
  
  
  
  
  
  
  
  
  
  
  
  
  
  
  
  
  
  
  
  
  
  
  
  
  
  
  
  
  
  
  
  
  
  
  
  
  
  
  
  
  
  
  
  
  
  
  
  
  
  
  
  
  
  
  
  
  
  
  
  
  
  
  
  
  
  
  
  
  
  
  
  
  
  
  
</svg>
