<?xml version="1.0" encoding="UTF-8" standalone="no"?>
<svg
   xmlns:dc="http://purl.org/dc/elements/1.1/"
   xmlns:cc="http://web.resource.org/cc/"
   xmlns:rdf="http://www.w3.org/1999/02/22-rdf-syntax-ns#"
   xmlns:svg="http://www.w3.org/2000/svg"
   xmlns="http://www.w3.org/2000/svg"
   xmlns:sodipodi="http://sodipodi.sourceforge.net/DTD/sodipodi-0.dtd"
   xmlns:inkscape="http://www.inkscape.org/namespaces/inkscape"
   viewBox="0 0 2752.766 1537.631"
   version="1.0"
   height="476.7276"
   width="939.74725"
   id="svg1926"
   sodipodi:version="0.32"
   inkscape:version="0.45.1"
   sodipodi:docname="BlankMap-World6.svg"
   sodipodi:docbase="/home/bennett/Desktop"
   inkscape:output_extension="org.inkscape.output.svg.inkscape">
  <sodipodi:namedview
     inkscape:window-height="590"
     inkscape:window-width="822"
     inkscape:pageshadow="2"
     inkscape:pageopacity="0.0"
     guidetolerance="10.0"
     gridtolerance="10.0"
     objecttolerance="10.0"
     borderopacity="1.0"
     bordercolor="#666666"
     pagecolor="#ffffff"
     id="base"
     inkscape:zoom="0.77893284"
     inkscape:cx="469.87363"
     inkscape:cy="238.3638"
     inkscape:window-x="178"
     inkscape:window-y="46"
     inkscape:current-layer="svg1926" />
  <metadata
     id="metadata24111">
    <rdf:RDF>
      <cc:Work
         rdf:about="">
        <dc:format>image/svg+xml</dc:format>
        <dc:type
           rdf:resource="http://purl.org/dc/dcmitype/StillImage" />
        <cc:license
           rdf:resource="http://web.resource.org/cc/PublicDomain" />
        <dc:title>Blank World Map</dc:title>
      </cc:Work>
      <cc:License
         rdf:about="http://web.resource.org/cc/PublicDomain">
        <cc:permits
           rdf:resource="http://web.resource.org/cc/Reproduction" />
        <cc:permits
           rdf:resource="http://web.resource.org/cc/Distribution" />
        <cc:permits
           rdf:resource="http://web.resource.org/cc/DerivativeWorks" />
      </cc:License>
    </rdf:RDF>
  </metadata>
  <defs
     id="defs1930" />
  <style
     type="text/css"
     id="style_css_sheet">
/*
 * Below are Cascading Style Sheet (CSS) definitions in use in this file,
 * which allow easily changing how countries are displayed.
 *
 */

/*
 * Circles around small countries
 *
 * Change opacity to 1 to display all circles.
 *
 */
.circle
{
   opacity:0;
   fill:#b9b9b9;
   fill-opacity:1;
   stroke:black;
   stroke-width:0.99986893;
   stroke-miterlimit:3.97446823;
   stroke-dasharray:none;
   stroke-opacity:1;
}

/*
 * Land
 */
.land
{
   fill: #b9b9b9;
   fill-opacity: 1;
   stroke: #ffffff;
   stroke-opacity: 1;
   stroke-width: 0.99986997;
   stroke-miterlimit: 3.97446823;
   stroke-dasharray: none;
}

/*
 * Additional style rules
 *
 * The following are examples of colouring countries.  You can substitute these with your own styles to colour the countries on the map.
 *
 * Color a few countries:
 *
 * .gb, .au, .nc
 * {
 *    fill:       #ff0000;
 * }
 *
 * Color a few small country circles (and the countries):
 *
 * .ms, .ky
 * {
 *    opacity:    1;
 *    fill:       #ff0000;
 * }
 *
 */

/*
 * Antarctica
 */

.aq
{
   fill:#e6e6e6;
}

/*
 * Sea
 */

.ocean
{
   opacity: 1;
   color: #000000;
   fill:white;
   fill-opacity:1;
   fill-rule:nonzero;
   stroke:#000000;
   stroke-width:0.5;
   stroke-linecap:butt;
   stroke-linejoin:miter;
   marker:none;
   marker-start:none;
   marker-mid:none;
   marker-end:none;
   stroke-miterlimit:1;
   stroke-dasharray:none;
   stroke-dashoffset:0;
   stroke-opacity:1;
   visibility:visible;
   display:inline;
   overflow:visible;
}

.lake
{
   fill:#ffffff;
   fill-opacity:1;
   stroke:#ffffff;
   stroke-opacity:1;
   stroke-width:0.99986997;
   stroke-miterlimit:3.97446823;
   stroke-dasharray:none;
}
</style>
  
  
  
  
  
  
  
  
  
  
  
  
  
  
  
  
  
  
  
  
  
  
  
  
  
  
  
  
  
  
  
  
  
  
  
  
  
  
  
  
  
  
  
  
  
  
  
  
  
  
  
  
  
  
  
  
  
  
  
  
  
  
  
  
  
  
  
  
  
  
  
  
  
  
  
  
  
  
  
  
  
  
  
  
  
  
  
  
  
  
  
  
  
  
  
  
  
  
  
  
  
  
  
  
  
  
  
  
  <g
     class="land my"
     id="my">
    <path
       d="M 2035.7890,703.9415 C 2036.2131,703.4025 2036.1949,702.4125 2036.4900,701.7885 C 2037.0052,700.6975 2037.9534,702.9985 2038.4923,703.3225 C 2039.1614,703.7245 2039.8005,703.4555 2040.5000,703.6535 C 2041.1560,703.8395 2041.1607,704.6155 2041.4841,705.0935 C 2042.1234,706.0395 2043.9062,705.8415 2043.3020,707.6875 C 2043.0101,708.5785 2041.7335,711.1025 2044.0407,710.5655 C 2045.0758,710.3255 2045.3823,708.6225 2046.5791,708.4355 C 2047.5749,708.2795 2047.8927,710.2085 2048.8256,709.8525 C 2049.5828,709.5635 2050.8468,706.3815 2050.8581,705.5985 C 2051.7650,705.8905 2052.6090,705.9815 2053.1798,706.8225 C 2053.7449,707.6555 2053.9339,708.6685 2054.7368,709.3375 C 2056.7350,711.0025 2058.4883,712.5335 2059.6006,714.9385 C 2060.7244,717.3665 2061.5002,719.8255 2061.2678,722.6065 C 2061.1782,723.6755 2060.9975,724.8585 2060.7574,725.9095 C 2060.4172,727.3985 2060.6826,727.5105 2061.0860,728.8495 C 2061.6868,730.8525 2060.3799,733.2825 2061.5024,735.2975 C 2062.3692,736.8555 2064.4463,737.6845 2064.8854,739.5715 C 2065.3995,741.8025 2066.8480,743.6765 2067.4226,745.9345 C 2068.1945,748.9655 2064.7534,747.3045 2066.3227,746.2055 C 2065.7198,746.2275 2065.2043,745.8785 2064.9491,745.3415 C 2065.0569,745.5495 2065.6295,747.5765 2064.7910,746.9735 C 2063.9474,746.3655 2061.9860,747.7065 2061.2205,748.0775 C 2060.3994,745.4365 2057.1853,744.7085 2055.2615,743.0855 C 2054.7647,742.6665 2054.4019,742.1615 2053.9437,741.7255 C 2053.2104,741.0265 2052.0057,741.0455 2051.1889,740.4445 C 2050.3672,739.8405 2049.0716,738.5485 2048.6358,737.6765 C 2048.3351,737.0735 2047.8388,737.0165 2047.2461,736.8555 C 2046.3262,736.6055 2045.9371,735.7695 2045.2084,735.2485 C 2044.5137,734.7515 2044.6663,734.6155 2045.0696,734.0735 C 2045.5191,733.4695 2044.9951,732.2365 2044.7630,731.6695 C 2044.0340,729.8915 2042.0776,728.6655 2041.4141,726.8665 C 2041.0936,726.0005 2039.2151,725.5205 2041.4072,724.8205 C 2040.1230,725.0035 2038.9311,722.3445 2039.3015,721.4085 C 2040.0195,719.5925 2039.1282,717.6355 2038.1004,716.2825 C 2037.1943,715.0925 2037.5838,711.3525 2037.6551,709.8445 C 2037.7587,707.6395 2036.5052,705.8945 2035.7890,703.9415"
       id="path4722" />
    <path
       d="M 2169.9476,723.5255 C 2169.9110,723.2615 2169.8754,722.9975 2169.8387,722.7335 C 2170.5378,722.6735 2171.0870,723.0855 2171.6119,723.4545 C 2171.0564,723.4305 2170.5019,723.4545 2169.9476,723.5255"
       id="path2560" />
    <path
       d="M 2121.1286,737.9255 C 2121.1791,738.4235 2121.2601,738.6655 2121.8193,738.7175 C 2121.4673,737.7205 2122.0302,736.4365 2121.0715,735.6935 C 2120.9945,736.4455 2121.2025,737.1745 2121.1286,737.9255"
       id="path4708" />
    <path
       d="M 2150.6591,713.8775 C 2151.3775,714.1435 2151.4879,713.9025 2150.9920,713.1565 C 2150.8817,713.3975 2150.7704,713.6375 2150.6591,713.8775"
       id="path4710" />
    <path
       d="M 2163.7628,697.3895 C 2164.2097,697.1435 2164.5179,696.7845 2164.6897,696.3095 C 2164.1165,696.4045 2163.6998,696.7825 2163.7628,697.3895"
       id="path4712" />
    <path
       d="M 2165.5435,696.4535 C 2165.2696,696.9255 2165.2684,697.3805 2165.5418,697.8205 C 2167.1212,697.2835 2166.5972,695.4205 2165.5435,696.4535"
       id="path4714" />
    <path
       d="M 2167.3851,701.8535 C 2167.6707,701.9055 2167.9426,701.8335 2168.2010,701.6375 C 2167.9290,701.7095 2167.6561,701.7805 2167.3851,701.8535"
       id="path4716" />
    <path
       d="M 2175.3068,719.1335 C 2175.7067,719.5735 2176.1834,719.6455 2176.7388,719.3495 C 2176.2697,719.2385 2175.7920,719.1675 2175.3068,719.1335"
       id="path4718" />
    <path
       d="M 2078.3126,734.9735 C 2079.0332,734.5665 2079.1105,733.6465 2078.2156,733.4615 C 2078.3343,733.9565 2078.3666,734.4605 2078.3126,734.9735"
       id="path2284" />
    <path
       d="M 2101.8794,734.4695 C 2102.1213,734.6705 2102.3854,734.6705 2102.6698,734.4695 C 2102.6053,734.2065 2102.4939,733.9665 2102.3357,733.7495 C 2102.1830,733.9895 2102.0322,734.2295 2101.8794,734.4695"
       id="path2300" />
    <path
       d="M 2033.7089,703.6535 C 2033.3368,704.0375 2032.9142,704.3495 2032.4391,704.5905 C 2033.1392,706.0745 2034.8444,704.6075 2033.7089,703.6535"
       id="path4700" />
    <path
       d="M 2037.1633,712.4375 C 2036.3054,712.0525 2036.1734,712.8815 2036.1933,713.5185 C 2036.2346,714.8615 2037.2820,713.3185 2037.1633,712.4375"
       id="path4704" />
    <path
       d="M 2066.7159,734.7575 C 2066.4176,734.9345 2066.2645,735.1975 2066.2584,735.5495 C 2067.0815,735.6995 2067.2346,735.4355 2066.7159,734.7575"
       id="path4706" />
    <path
       d="M 2108.3916,741.5975 C 2108.1185,744.1625 2113.7234,746.3475 2113.6227,743.9735 C 2113.6527,744.6435 2114.6430,744.7175 2114.5773,744.9945 C 2114.3801,745.8415 2115.9988,746.2075 2116.5968,746.4275 C 2117.5194,746.7665 2118.0660,746.0195 2118.8591,746.9225 C 2119.5819,747.7465 2120.6734,747.8375 2121.7018,747.9335 C 2120.9813,746.9505 2119.4512,747.8095 2119.0665,746.3395 C 2118.8181,745.3865 2119.5565,744.5875 2120.3903,745.4145 C 2119.5920,744.9155 2119.5375,744.1375 2119.7997,743.3175 C 2119.9649,742.9225 2120.0911,742.5155 2120.1927,742.0955 C 2120.4430,741.0905 2120.9565,741.4825 2121.5900,740.8775 C 2121.0850,740.9305 2120.5801,740.9785 2120.0745,741.0215 C 2120.7932,740.3575 2120.1444,739.5705 2120.3783,738.7905 C 2121.1282,738.7965 2121.7790,739.1835 2122.5216,739.2225 C 2119.9868,737.2665 2123.9945,734.9405 2125.6166,734.6845 C 2128.1848,734.2795 2131.8834,733.7455 2134.0945,732.2285 C 2136.0051,730.9185 2136.1670,728.2265 2137.8744,726.7415 C 2140.0624,724.8395 2141.3589,722.6475 2141.6252,719.7825 C 2143.1321,719.8275 2143.4013,720.5925 2143.9056,721.8015 C 2144.2018,722.5115 2145.9441,724.4805 2146.7225,724.5135 C 2148.1025,724.5725 2148.6031,721.7295 2148.0502,720.9055 C 2146.8040,719.0475 2148.4608,718.2945 2149.5228,717.1905 C 2149.7807,719.0145 2149.3043,721.5605 2151.6273,722.0865 C 2151.7899,720.6765 2151.5160,719.0825 2150.8406,717.8685 C 2149.9988,716.3165 2151.7111,717.2315 2152.2982,716.7845 C 2152.8403,716.3715 2154.7195,714.9885 2153.3223,714.4335 C 2151.2125,713.5955 2153.4183,711.9945 2154.1411,711.0695 C 2153.8551,712.8905 2156.2259,710.9135 2156.6707,710.1355 C 2157.3493,708.9475 2157.6226,707.6005 2158.2525,706.3915 C 2158.6111,705.7025 2158.9881,706.0365 2159.3750,705.5975 C 2159.8445,705.0665 2160.2680,704.1645 2160.7679,703.5445 C 2161.8621,702.1895 2161.8633,700.2205 2163.2380,698.9735 C 2164.1776,700.1595 2162.8926,701.3825 2163.2992,702.6455 C 2164.1565,702.1215 2165.1082,698.9665 2166.1187,699.1525 C 2166.1871,699.1655 2168.3053,704.7525 2168.8168,702.2145 C 2168.8824,703.2575 2170.7941,703.7155 2170.5773,704.9675 C 2170.4342,705.7945 2169.2981,705.4905 2169.5277,706.6205 C 2169.7967,707.9425 2169.6060,708.2805 2168.2733,708.7665 C 2169.1149,708.3005 2169.9552,708.8195 2170.7263,708.3945 C 2171.3564,708.0475 2171.7387,707.1745 2172.5766,707.5355 C 2174.1614,708.2175 2172.5726,709.3415 2171.7577,709.6305 C 2171.8287,711.1895 2173.4267,709.6955 2174.0457,709.3175 C 2175.3743,708.5055 2176.7744,710.3935 2176.8342,711.5025 C 2177.7735,710.5685 2179.1743,712.2215 2179.4899,712.9415 C 2180.2581,711.9735 2182.2195,712.7235 2182.1771,713.8735 C 2182.1175,715.5345 2178.3866,716.8475 2177.0801,716.7455 C 2176.1722,716.6745 2172.7467,715.4535 2173.6727,718.0025 C 2174.0544,719.0065 2176.3601,719.4315 2176.1196,720.6465 C 2176.8480,720.2015 2177.3912,720.8655 2176.9521,721.5365 C 2176.4809,722.2595 2175.4812,722.1005 2174.7722,722.1585 C 2172.5028,722.3405 2171.5390,722.9185 2169.6772,721.2955 C 2169.4896,721.8135 2169.8073,722.8955 2169.2747,723.2545 C 2168.4675,723.7985 2167.3997,722.6765 2166.8320,722.2965 C 2165.1456,721.1685 2162.7202,722.9325 2161.2330,721.4395 C 2161.0563,723.1705 2159.9681,721.5855 2159.1203,721.8155 C 2158.4900,721.9865 2158.3217,721.3985 2157.8526,722.1075 C 2157.3304,722.9005 2156.6105,721.7975 2156.0412,721.5835 C 2155.8431,722.3535 2155.1903,722.5915 2154.8269,723.2385 C 2154.3561,724.0765 2154.0887,725.2435 2153.9375,726.1765 C 2153.8179,726.9145 2153.6789,727.7895 2153.8739,728.5165 C 2154.1774,729.6485 2153.7528,729.7855 2153.4706,730.8455 C 2153.0178,732.5415 2153.4974,733.3335 2151.5590,733.3735 C 2149.4575,733.4165 2150.6064,737.0625 2151.1627,737.7845 C 2149.9809,738.1875 2146.7787,740.1575 2148.1134,741.7015 C 2148.8895,742.5965 2145.9617,745.6145 2146.2492,747.0005 C 2145.0485,747.0615 2145.0345,746.2235 2143.7962,747.0095 C 2142.9427,747.5515 2142.0667,746.6985 2141.2278,747.1525 C 2140.0827,747.7715 2139.7954,748.7825 2138.2602,748.5365 C 2137.2474,748.3735 2135.1600,747.6625 2134.6086,746.7275 C 2133.8577,745.4555 2129.1014,745.6215 2128.2624,747.1445 C 2127.8667,747.8615 2127.6358,748.7585 2127.3774,749.5295 C 2127.4306,749.3715 2125.0600,750.7835 2125.1620,750.7755 C 2124.4642,750.8295 2123.7666,750.9295 2123.0730,751.0255 C 2122.2485,751.1385 2121.5516,750.5055 2120.6913,750.4515 C 2119.1998,750.3575 2118.2333,751.1475 2116.9690,751.7515 C 2115.2367,752.5795 2115.1713,751.1705 2113.7555,750.8005 C 2113.3200,750.6875 2112.3367,749.5315 2111.9170,749.1595 C 2111.3909,748.6915 2111.1758,748.0015 2110.6597,747.5315 C 2110.1526,747.0685 2109.5027,747.1105 2109.1557,746.4385 C 2108.8389,745.8235 2109.0031,744.2935 2108.3514,743.9325 C 2107.0201,743.1935 2108.1968,742.6705 2108.3916,741.5975"
       id="path4724" />
    <path
       d="M 2183.4444,719.4215 C 2183.8558,718.6725 2183.8241,717.8485 2183.4895,717.1175 C 2183.5296,717.8835 2183.4752,718.6535 2183.4444,719.4215"
       id="path5822" />
  </g>
  
  
  
  
  
  
  
  
  
  
  
  
  
  
  
  
  
  
  
  
  
  
  
  
  
  
  
  
  
  
  
  
  
  
  
  
  
  
  
  
  
  
  
  
  
  
  
  
  
  
  
  
  
  
  
  
  
  
  
  
  
  
  
  
  
  
  
  
  
  
  
  
  
  
  
  
  
  
  
  
  
  
  
  
  
  
  
  
  
  
  
  
  
  
  
  
  
  
  
  
  
  
  
  
  
  
  
  
  
  
  
  
  
  
  
  
  
  
  
  
  
  
  
</svg>
