<?xml version="1.0" encoding="UTF-8" standalone="no"?>
<svg
   xmlns:dc="http://purl.org/dc/elements/1.1/"
   xmlns:cc="http://web.resource.org/cc/"
   xmlns:rdf="http://www.w3.org/1999/02/22-rdf-syntax-ns#"
   xmlns:svg="http://www.w3.org/2000/svg"
   xmlns="http://www.w3.org/2000/svg"
   xmlns:sodipodi="http://sodipodi.sourceforge.net/DTD/sodipodi-0.dtd"
   xmlns:inkscape="http://www.inkscape.org/namespaces/inkscape"
   viewBox="0 0 2752.766 1537.631"
   version="1.0"
   height="476.7276"
   width="939.74725"
   id="svg1926"
   sodipodi:version="0.32"
   inkscape:version="0.45.1"
   sodipodi:docname="BlankMap-World6.svg"
   sodipodi:docbase="/home/bennett/Desktop"
   inkscape:output_extension="org.inkscape.output.svg.inkscape">
  <sodipodi:namedview
     inkscape:window-height="590"
     inkscape:window-width="822"
     inkscape:pageshadow="2"
     inkscape:pageopacity="0.0"
     guidetolerance="10.0"
     gridtolerance="10.0"
     objecttolerance="10.0"
     borderopacity="1.0"
     bordercolor="#666666"
     pagecolor="#ffffff"
     id="base"
     inkscape:zoom="0.77893284"
     inkscape:cx="469.87363"
     inkscape:cy="238.3638"
     inkscape:window-x="178"
     inkscape:window-y="46"
     inkscape:current-layer="svg1926" />
  <metadata
     id="metadata24111">
    <rdf:RDF>
      <cc:Work
         rdf:about="">
        <dc:format>image/svg+xml</dc:format>
        <dc:type
           rdf:resource="http://purl.org/dc/dcmitype/StillImage" />
        <cc:license
           rdf:resource="http://web.resource.org/cc/PublicDomain" />
        <dc:title>Blank World Map</dc:title>
      </cc:Work>
      <cc:License
         rdf:about="http://web.resource.org/cc/PublicDomain">
        <cc:permits
           rdf:resource="http://web.resource.org/cc/Reproduction" />
        <cc:permits
           rdf:resource="http://web.resource.org/cc/Distribution" />
        <cc:permits
           rdf:resource="http://web.resource.org/cc/DerivativeWorks" />
      </cc:License>
    </rdf:RDF>
  </metadata>
  <defs
     id="defs1930" />
  <style
     type="text/css"
     id="style_css_sheet">
/*
 * Below are Cascading Style Sheet (CSS) definitions in use in this file,
 * which allow easily changing how countries are displayed.
 *
 */

/*
 * Circles around small countries
 *
 * Change opacity to 1 to display all circles.
 *
 */
.circle
{
   opacity:0;
   fill:#b9b9b9;
   fill-opacity:1;
   stroke:black;
   stroke-width:0.99986893;
   stroke-miterlimit:3.97446823;
   stroke-dasharray:none;
   stroke-opacity:1;
}

/*
 * Land
 */
.land
{
   fill: #b9b9b9;
   fill-opacity: 1;
   stroke: #ffffff;
   stroke-opacity: 1;
   stroke-width: 0.99986997;
   stroke-miterlimit: 3.97446823;
   stroke-dasharray: none;
}

/*
 * Additional style rules
 *
 * The following are examples of colouring countries.  You can substitute these with your own styles to colour the countries on the map.
 *
 * Color a few countries:
 *
 * .gb, .au, .nc
 * {
 *    fill:       #ff0000;
 * }
 *
 * Color a few small country circles (and the countries):
 *
 * .ms, .ky
 * {
 *    opacity:    1;
 *    fill:       #ff0000;
 * }
 *
 */

/*
 * Antarctica
 */

.aq
{
   fill:#e6e6e6;
}

/*
 * Sea
 */

.ocean
{
   opacity: 1;
   color: #000000;
   fill:white;
   fill-opacity:1;
   fill-rule:nonzero;
   stroke:#000000;
   stroke-width:0.5;
   stroke-linecap:butt;
   stroke-linejoin:miter;
   marker:none;
   marker-start:none;
   marker-mid:none;
   marker-end:none;
   stroke-miterlimit:1;
   stroke-dasharray:none;
   stroke-dashoffset:0;
   stroke-opacity:1;
   visibility:visible;
   display:inline;
   overflow:visible;
}

.lake
{
   fill:#ffffff;
   fill-opacity:1;
   stroke:#ffffff;
   stroke-opacity:1;
   stroke-width:0.99986997;
   stroke-miterlimit:3.97446823;
   stroke-dasharray:none;
}
</style>
  
  
  
  
  
  
  
  
  
  
  
  
  
  
  
  
  
  
  
  
  
  
  
  
  
  
  
  
  
  
  
  
  
  
  
  
  
  
  
  
  <g
     class="land mz"
     id="mz">
    <path
       d="M 1541.4159,948.0985 C 1541.6501,947.3815 1541.7694,946.6215 1541.7018,945.8585 C 1541.4083,946.5445 1541.0879,947.3345 1541.4159,948.0985"
       id="path3382" />
    <path
       d="M 1548.1706,922.9685 C 1548.7618,922.3945 1548.6071,922.1545 1547.7044,922.2485 C 1547.8601,922.4885 1548.0158,922.7285 1548.1706,922.9685"
       id="path3384" />
    <path
       d="M 1501.3942,889.3385 C 1506.9252,887.2575 1512.4820,885.2245 1518.0595,883.2345 C 1519.3058,882.7895 1520.5508,882.3395 1521.7850,881.8625 C 1522.2030,881.7015 1523.8934,880.6225 1524.3657,880.7685 C 1525.2342,881.0395 1524.7645,881.7625 1525.1798,882.3255 C 1526.0409,883.4935 1526.9526,884.6175 1527.9588,885.6695 C 1527.9786,884.7365 1530.0074,885.0625 1530.9518,884.7965 C 1531.7638,884.5685 1532.9768,883.8095 1533.6684,884.6715 C 1534.9479,886.2655 1535.0873,890.1275 1534.5023,891.8945 C 1533.7590,894.1335 1531.9205,896.1465 1533.2089,898.4505 C 1533.5157,898.9975 1533.3719,899.6495 1533.7245,900.1695 C 1534.1229,900.7575 1534.8058,901.0775 1535.2024,901.6645 C 1535.9797,902.8135 1537.1537,903.8885 1538.2314,904.7715 C 1539.2593,905.6135 1539.2110,905.7675 1538.5648,906.8735 C 1537.8743,908.0545 1540.2611,908.4995 1540.3613,906.9095 C 1540.4569,905.3635 1539.9572,903.9965 1539.0142,902.7405 C 1540.4015,901.7165 1539.5873,899.5935 1541.6624,899.1645 C 1544.4742,898.5835 1544.6811,897.3615 1544.5887,894.5385 C 1544.5548,893.5115 1544.3342,892.4635 1544.3589,891.4385 C 1544.3999,889.7685 1545.2190,887.9245 1544.4361,886.2865 C 1543.6688,884.6455 1542.1176,883.0995 1541.1071,881.5715 C 1540.1681,880.1505 1539.2470,878.6215 1538.0720,877.3705 C 1537.2088,876.4525 1535.8227,876.4075 1535.0465,875.5675 C 1533.8162,874.2365 1534.6374,871.1715 1534.2260,869.5175 C 1533.8415,867.9725 1533.0926,866.2125 1533.3752,864.5995 C 1533.5550,863.5745 1534.2801,862.5065 1534.6882,861.5415 C 1535.2114,860.3095 1535.0813,859.7085 1536.5244,859.6825 C 1538.3245,859.6495 1540.5137,860.1735 1542.2602,859.6715 C 1543.2540,859.3855 1544.1715,858.1615 1545.2765,858.8645 C 1546.0408,859.3505 1546.4238,860.2795 1547.2344,860.7045 C 1547.8550,861.0305 1549.8984,861.1425 1550.5723,860.9695 C 1551.6927,860.6815 1552.4684,858.8015 1553.7647,860.1725 C 1556.1762,862.7165 1558.9456,859.7035 1560.0510,857.8345 C 1560.6605,856.8025 1561.7823,856.7745 1562.7771,857.3935 C 1564.3982,858.4025 1564.7853,858.3935 1566.2829,857.3335 C 1567.5343,856.4485 1568.5174,855.8255 1570.1781,856.1485 C 1571.1333,856.3355 1572.9332,854.5205 1573.8127,854.1185 C 1575.5477,853.3265 1576.9871,852.2125 1578.4726,851.0535 C 1580.2859,849.6365 1581.5376,852.0075 1579.9545,852.7685 C 1580.2012,852.8825 1580.4440,853.0025 1580.6860,853.1285 C 1579.9740,854.0665 1580.4117,855.1225 1580.0263,856.1485 C 1579.8198,856.7005 1578.4360,857.4155 1579.2730,857.9985 C 1579.9672,858.4805 1579.8620,861.0595 1579.9808,862.0575 C 1580.0755,862.8055 1580.1577,863.5675 1580.1127,864.3185 C 1580.0461,865.4575 1579.6802,865.1715 1580.0305,866.1805 C 1580.1152,866.5565 1580.1001,866.9265 1579.9840,867.2875 C 1579.8558,867.9855 1580.3042,868.1975 1580.5036,868.8015 C 1580.7957,869.6795 1580.4991,870.9395 1579.9243,871.6285 C 1581.9517,871.9135 1579.4553,876.3125 1580.2541,876.5635 C 1581.6493,877.0025 1580.4362,881.5795 1580.9090,882.6485 C 1582.4054,881.7535 1580.7486,884.6725 1581.2138,885.3785 C 1581.2977,884.1055 1582.5989,884.3245 1582.4149,885.5865 C 1582.2260,886.9545 1582.5988,887.9245 1581.1942,888.6985 C 1581.4643,888.9005 1581.7411,889.0905 1582.0274,889.2685 C 1580.3464,888.8755 1581.8071,889.4765 1581.3536,890.0435 C 1581.0669,890.4015 1580.6029,890.5365 1580.4246,890.9985 C 1582.0076,890.4325 1580.7272,892.9565 1580.5089,893.4555 C 1579.7748,895.1405 1578.0986,896.0745 1577.3406,897.7485 C 1576.5878,899.4105 1575.2843,900.3765 1574.4347,901.9515 C 1573.7841,903.1595 1569.0996,904.7905 1569.3239,906.1045 C 1569.4274,906.7125 1565.7838,907.3345 1565.0867,907.7685 C 1564.4696,908.1525 1563.7653,908.4595 1563.0619,908.6645 C 1561.9266,908.9955 1562.1074,908.5625 1561.3029,909.3235 C 1560.1468,910.4185 1558.4864,910.9365 1557.0889,911.6685 C 1555.6980,912.3975 1553.5718,915.8055 1551.9230,914.4685 C 1555.0324,917.6895 1547.8425,918.9265 1548.6446,922.1785 C 1548.0321,922.2615 1547.6030,921.8655 1547.4421,921.3085 C 1547.6310,922.4515 1546.5839,923.9005 1546.6788,922.3185 C 1545.3317,923.5075 1543.6768,924.3235 1542.5993,925.7915 C 1541.6450,927.0905 1540.7782,928.3235 1539.6121,929.4575 C 1539.1398,929.9165 1537.2688,931.9335 1536.5386,931.0985 C 1536.0679,930.5605 1535.4242,928.7155 1534.4251,929.2995 C 1536.1805,929.1955 1535.6458,931.3715 1536.0123,931.8995 C 1536.3564,932.3965 1536.3688,933.2035 1536.1433,933.7255 C 1536.0420,934.0005 1535.8440,934.1595 1535.5500,934.1995 C 1535.7908,934.6135 1535.8818,935.0535 1535.8229,935.5195 C 1535.7118,937.7925 1536.4508,937.1645 1537.6965,938.6605 C 1538.3953,939.4995 1538.6236,940.4925 1538.6467,941.5325 C 1538.6550,941.9355 1538.4400,945.0705 1538.9581,943.1305 C 1538.5720,944.8235 1539.7871,946.6535 1540.0240,948.3805 C 1540.1676,949.4155 1540.5848,950.4985 1540.4479,951.5435 C 1540.3316,952.4245 1539.9775,953.4035 1540.9641,954.0015 C 1541.0966,952.8925 1541.0113,951.8935 1541.7421,950.9715 C 1541.7360,951.3105 1541.8460,953.7395 1542.1365,951.7005 C 1541.9738,952.8715 1541.7165,954.0295 1541.6533,955.2165 C 1541.5959,956.2815 1542.4039,957.2285 1542.3175,958.2645 C 1542.0807,961.0915 1540.1362,963.8175 1540.7569,966.8205 C 1540.4055,965.1785 1541.7254,966.8705 1541.7231,965.4505 C 1542.9264,967.2765 1540.9093,970.0065 1539.8203,971.2945 C 1538.0185,973.4235 1535.1703,974.3965 1532.5482,975.3115 C 1529.5789,976.3475 1526.5873,977.4255 1523.9715,979.1305 C 1522.7897,979.9005 1521.5497,980.5775 1520.9357,981.8935 C 1520.4080,983.0225 1520.1761,984.3355 1518.6689,984.5295 C 1519.6801,984.5185 1521.4657,988.0195 1522.2172,985.8995 C 1522.1224,987.6945 1523.8179,992.0674 1521.9031,992.1261 C 1520.1298,992.1804 1518.3616,991.3837 1517.0208,991.6917 C 1517.1464,990.3177 1516.3692,989.1325 1516.2663,987.7655 C 1516.1929,986.7875 1515.7543,985.2332 1514.9932,984.4182 C 1514.1901,983.5572 1514.2919,982.5745 1515.0463,981.6105 C 1515.4991,981.0335 1514.9540,978.5215 1514.9541,977.8175 C 1514.9530,976.0935 1514.9683,974.3705 1515.0268,972.6505 C 1515.0791,971.0985 1514.5649,970.0635 1514.2439,968.5815 C 1513.7618,966.3615 1512.1335,964.5465 1511.5684,962.3855 C 1511.2963,961.3425 1511.6260,960.2425 1511.3925,959.1665 C 1511.0686,957.6715 1510.5037,956.2345 1510.0432,954.7785 C 1509.4460,952.8905 1511.2072,951.6655 1512.4471,950.4275 C 1513.3854,949.4905 1517.6016,943.3815 1518.7913,944.2105 C 1517.5715,942.7275 1518.7170,941.8685 1519.0355,940.3905 C 1519.2315,939.4815 1518.2926,938.2125 1519.2916,937.6165 C 1520.6812,936.7875 1521.0142,935.6585 1521.7488,934.2295 C 1522.0627,933.6185 1522.5317,933.0005 1522.7504,932.3405 C 1523.0976,931.2995 1522.4721,930.6005 1522.4895,929.5905 C 1522.2486,929.6865 1522.0087,929.7835 1521.7668,929.8805 C 1521.2004,928.0635 1521.1507,926.8065 1521.8203,925.0265 C 1522.1194,924.2285 1520.2690,924.4295 1520.5584,923.1275 C 1520.7745,922.1555 1522.8031,922.0215 1522.2723,920.9395 C 1521.5365,919.4375 1523.2651,919.6765 1523.1021,918.3335 C 1522.9698,917.2305 1522.2895,916.0065 1522.4646,914.8955 C 1522.5869,914.1145 1523.0057,913.4575 1522.9625,912.6445 C 1522.9336,912.0985 1522.3393,911.4155 1522.3711,911.0105 C 1522.4120,910.4895 1523.0117,910.2395 1523.0571,909.7205 C 1523.0985,909.2395 1522.6705,908.5005 1522.5082,908.0505 C 1522.3193,907.5265 1521.9389,907.0675 1521.7702,906.5415 C 1521.5252,905.7785 1522.4794,904.8595 1522.5848,904.1005 C 1521.4814,904.4275 1520.8391,904.4845 1520.3821,903.3495 C 1519.9603,902.3015 1516.8913,901.7165 1515.9313,901.8305 C 1514.6645,901.9805 1513.7444,900.6425 1512.8641,899.8765 C 1512.4911,899.5515 1511.8410,899.6675 1511.4049,899.4965 C 1510.7886,899.2545 1510.4409,898.7215 1509.8696,898.4215 C 1508.9264,897.9275 1507.6499,898.6505 1507.1977,898.2345 C 1506.4681,897.5635 1504.8011,898.2245 1503.8704,898.0075 C 1502.3636,897.6575 1502.9697,895.1025 1502.7999,894.0005 C 1502.5574,892.3985 1501.2957,890.9715 1501.3942,889.3385"
       id="path3462" />
    <path
       d="M 1574.7943,900.8585 C 1575.0302,900.6915 1575.2652,900.5255 1575.5021,900.3585 C 1575.5236,900.7785 1575.4707,901.1855 1575.3403,901.5795 C 1575.1583,901.3385 1574.9763,901.0985 1574.7943,900.8585"
       id="path3466" />
  </g>
  
  
  
  
  
  
  
  
  
  
  
  
  
  
  
  
  
  
  
  
  
  
  
  
  
  
  
  
  
  
  
  
  
  
  
  
  
  
  
  
  
  
  
  
  
  
  
  
  
  
  
  
  
  
  
  
  
  
  
  
  
  
  
  
  
  
  
  
  
  
  
  
  
  
  
  
  
  
  
  
  
  
  
  
  
  
  
  
  
  
  
  
  
  
  
  
  
  
  
  
  
  
  
  
  
  
  
  
  
  
  
  
  
  
  
  
  
  
  
  
  
  
  
  
  
  
  
  
  
  
  
  
  
  
  
  
  
  
  
  
  
  
  
  
  
  
  
  
  
  
  
  
  
  
  
  
  
  
  
  
  
  
  
  
  
  
  
  
  
  
  
  
  
  
  
  
  
  
  
  
  
  
  
  
  
  
  
  
  
  
  
</svg>
