<?xml version="1.0" encoding="UTF-8" standalone="no"?>
<svg
   xmlns:dc="http://purl.org/dc/elements/1.1/"
   xmlns:cc="http://web.resource.org/cc/"
   xmlns:rdf="http://www.w3.org/1999/02/22-rdf-syntax-ns#"
   xmlns:svg="http://www.w3.org/2000/svg"
   xmlns="http://www.w3.org/2000/svg"
   xmlns:sodipodi="http://sodipodi.sourceforge.net/DTD/sodipodi-0.dtd"
   xmlns:inkscape="http://www.inkscape.org/namespaces/inkscape"
   viewBox="0 0 2752.766 1537.631"
   version="1.0"
   height="476.7276"
   width="939.74725"
   id="svg1926"
   sodipodi:version="0.32"
   inkscape:version="0.45.1"
   sodipodi:docname="BlankMap-World6.svg"
   sodipodi:docbase="/home/bennett/Desktop"
   inkscape:output_extension="org.inkscape.output.svg.inkscape">
  <sodipodi:namedview
     inkscape:window-height="590"
     inkscape:window-width="822"
     inkscape:pageshadow="2"
     inkscape:pageopacity="0.0"
     guidetolerance="10.0"
     gridtolerance="10.0"
     objecttolerance="10.0"
     borderopacity="1.0"
     bordercolor="#666666"
     pagecolor="#ffffff"
     id="base"
     inkscape:zoom="0.77893284"
     inkscape:cx="469.87363"
     inkscape:cy="238.3638"
     inkscape:window-x="178"
     inkscape:window-y="46"
     inkscape:current-layer="svg1926" />
  <metadata
     id="metadata24111">
    <rdf:RDF>
      <cc:Work
         rdf:about="">
        <dc:format>image/svg+xml</dc:format>
        <dc:type
           rdf:resource="http://purl.org/dc/dcmitype/StillImage" />
        <cc:license
           rdf:resource="http://web.resource.org/cc/PublicDomain" />
        <dc:title>Blank World Map</dc:title>
      </cc:Work>
      <cc:License
         rdf:about="http://web.resource.org/cc/PublicDomain">
        <cc:permits
           rdf:resource="http://web.resource.org/cc/Reproduction" />
        <cc:permits
           rdf:resource="http://web.resource.org/cc/Distribution" />
        <cc:permits
           rdf:resource="http://web.resource.org/cc/DerivativeWorks" />
      </cc:License>
    </rdf:RDF>
  </metadata>
  <defs
     id="defs1930" />
  <style
     type="text/css"
     id="style_css_sheet">
/*
 * Below are Cascading Style Sheet (CSS) definitions in use in this file,
 * which allow easily changing how countries are displayed.
 *
 */

/*
 * Circles around small countries
 *
 * Change opacity to 1 to display all circles.
 *
 */
.circle
{
   opacity:0;
   fill:#b9b9b9;
   fill-opacity:1;
   stroke:black;
   stroke-width:0.99986893;
   stroke-miterlimit:3.97446823;
   stroke-dasharray:none;
   stroke-opacity:1;
}

/*
 * Land
 */
.land
{
   fill: #b9b9b9;
   fill-opacity: 1;
   stroke: #ffffff;
   stroke-opacity: 1;
   stroke-width: 0.99986997;
   stroke-miterlimit: 3.97446823;
   stroke-dasharray: none;
}

/*
 * Additional style rules
 *
 * The following are examples of colouring countries.  You can substitute these with your own styles to colour the countries on the map.
 *
 * Color a few countries:
 *
 * .gb, .au, .nc
 * {
 *    fill:       #ff0000;
 * }
 *
 * Color a few small country circles (and the countries):
 *
 * .ms, .ky
 * {
 *    opacity:    1;
 *    fill:       #ff0000;
 * }
 *
 */

/*
 * Antarctica
 */

.aq
{
   fill:#e6e6e6;
}

/*
 * Sea
 */

.ocean
{
   opacity: 1;
   color: #000000;
   fill:white;
   fill-opacity:1;
   fill-rule:nonzero;
   stroke:#000000;
   stroke-width:0.5;
   stroke-linecap:butt;
   stroke-linejoin:miter;
   marker:none;
   marker-start:none;
   marker-mid:none;
   marker-end:none;
   stroke-miterlimit:1;
   stroke-dasharray:none;
   stroke-dashoffset:0;
   stroke-opacity:1;
   visibility:visible;
   display:inline;
   overflow:visible;
}

.lake
{
   fill:#ffffff;
   fill-opacity:1;
   stroke:#ffffff;
   stroke-opacity:1;
   stroke-width:0.99986997;
   stroke-miterlimit:3.97446823;
   stroke-dasharray:none;
}
</style>
  
  
  
  
  
  
  
  
  
  
  
  
  
  
  
  
  
  
  
  
  
  
  
  
  
  
  
  
  
  
  
  
  
  
  
  
  
  
  
  
  
  
  
  
  
  
  
  
  
  
  
  
  
  
  
  
  
  
  
  
  
  
  
  
  
  
  
  
  
  
  
  
  
  
  
  
  
  
  
  
  
  
  
  
  
  
  <path
     class="land na"
     d="M 1360.3116,908.8485 C 1361.3834,908.6835 1362.2281,907.7515 1363.3747,907.9525 C 1364.3510,908.1235 1365.2360,908.8545 1366.2691,908.6595 C 1368.4211,908.2535 1369.8862,905.7755 1372.3405,906.4355 C 1374.2952,906.9615 1375.4311,909.1735 1377.3459,909.9485 C 1379.0135,910.6235 1381.8956,910.0085 1383.6685,910.0085 C 1389.6543,910.0085 1395.6401,910.0085 1401.6248,910.0085 C 1403.9675,910.0085 1406.3160,910.0825 1408.6515,909.9125 C 1410.8179,909.7555 1411.3406,909.8125 1412.5501,911.5825 C 1414.1277,913.8895 1416.0142,913.2595 1418.3680,913.7405 C 1420.5422,914.1845 1422.8197,914.4555 1425.0031,914.1955 C 1426.0948,914.0655 1426.8009,914.7195 1427.7802,915.0545 C 1428.9096,915.4415 1430.0760,915.2805 1431.1935,914.9905 C 1432.4150,914.6735 1432.5737,914.8225 1433.6722,915.2805 C 1434.5716,915.6555 1435.9922,915.0055 1436.8820,914.8285 C 1442.3621,913.7425 1447.7723,912.3645 1453.2618,911.3365 C 1454.3253,911.1375 1455.3979,910.6545 1456.5096,910.8215 C 1457.1667,910.9205 1458.1717,911.5425 1458.8147,911.2225 C 1460.8635,910.2025 1462.2016,912.6815 1463.5898,913.6075 C 1462.5858,913.3515 1461.1075,913.6045 1460.1691,913.9675 C 1459.0022,914.4185 1458.6939,916.1495 1457.5433,915.1265 C 1455.6921,913.4805 1452.2545,918.8735 1450.9290,919.5075 C 1450.2521,918.2715 1449.4945,915.5195 1447.6341,915.3465 C 1445.2381,915.1235 1442.2810,916.3135 1439.9586,916.8005 C 1437.2250,917.3735 1434.4554,917.5905 1431.7308,918.0925 C 1430.1567,918.3825 1431.0039,922.6885 1430.9938,923.7475 C 1430.9321,930.3045 1431.3554,936.8805 1431.0773,943.4305 C 1431.0154,944.8795 1431.7122,948.2135 1430.9331,949.4575 C 1430.1637,950.6855 1426.6024,949.8655 1425.3397,949.7865 C 1422.5048,949.6085 1423.2921,951.8215 1423.2845,954.0115 C 1423.2749,957.2435 1423.3709,960.4775 1423.3973,963.7095 C 1423.4545,970.6685 1423.4281,977.6265 1423.3862,984.5845 C 1423.3490,991.1105 1423.1871,997.6385 1423.3305,1004.1675 C 1423.3906,1006.4835 1421.1349,1005.6275 1419.8920,1006.7075 C 1419.1956,1007.3115 1419.3648,1007.8685 1418.3912,1008.1825 C 1417.5677,1008.4485 1417.2482,1008.8425 1417.9404,1009.5785 C 1416.0899,1010.1095 1416.0819,1009.3685 1414.3451,1009.1135 C 1412.5076,1008.8435 1410.8328,1010.0305 1408.9020,1009.4315 C 1408.1625,1009.2025 1407.6075,1008.6545 1406.8540,1008.4345 C 1406.3317,1008.2595 1405.8336,1008.3035 1405.3627,1008.5685 C 1405.2735,1008.2515 1405.0829,1008.0065 1404.7913,1007.8375 C 1403.2248,1006.8455 1403.4224,1006.4945 1403.0805,1004.7665 C 1402.9383,1004.0455 1401.2084,1002.0435 1400.4162,1002.3115 C 1398.7102,1002.8875 1399.3935,1005.3245 1398.3639,1005.8265 C 1397.3318,1006.3295 1396.1826,1007.2225 1395.1459,1006.2915 C 1393.5485,1004.8535 1391.9484,1003.3465 1390.7236,1001.5985 C 1389.6372,1000.0435 1388.7665,998.3665 1387.8874,996.6995 C 1387.4207,995.8145 1387.3678,994.8625 1387.1982,993.9075 C 1387.0231,992.9215 1386.3247,992.4075 1386.1158,991.5095 C 1385.7318,989.8625 1386.4836,989.2575 1385.2102,987.7395 C 1384.7017,987.1335 1384.8657,986.7425 1384.8752,985.9685 C 1384.8920,984.7175 1384.4337,983.6345 1384.2822,982.4145 C 1384.1744,981.5455 1384.2426,980.6655 1383.9779,979.8155 C 1383.6054,978.6135 1384.2124,977.4505 1383.9603,976.2485 C 1383.5264,974.1765 1382.4970,972.2855 1381.7072,970.3305 C 1380.8164,968.1235 1381.4511,966.2605 1381.2037,964.0265 C 1381.0366,962.5105 1380.7936,960.6126 1380.9269,959.8295 C 1380.9893,959.4626 1381.9008,955.7805 1381.4893,955.8695 C 1381.3784,953.8865 1380.3431,951.9445 1379.1840,950.3535 C 1378.5320,949.4585 1377.7888,948.6245 1377.2401,947.6605 C 1376.7369,946.7745 1376.6278,945.6905 1375.9712,944.8835 C 1372.9478,941.1645 1372.2820,936.6495 1370.0483,932.6195 C 1368.0020,928.9255 1367.3004,923.8515 1363.9956,920.9455 C 1360.4432,917.8205 1360.0175,913.2575 1360.3116,908.8485"
     id="na" />
  
  
  
  
  
  
  
  
  
  
  
  
  
  
  
  
  
  
  
  
  
  
  
  
  
  
  
  
  
  
  
  
  
  
  
  
  
  
  
  
  
  
  
  
  
  
  
  
  
  
  
  
  
  
  
  
  
  
  
  
  
  
  
  
  
  
  
  
  
  
  
  
  
  
  
  
  
  
  
  
  
  
  
  
  
  
  
  
  
  
  
  
  
  
  
  
  
  
  
  
  
  
  
  
  
  
  
  
  
  
  
  
  
  
  
  
  
  
  
  
  
  
  
  
  
  
  
  
  
  
  
  
  
  
  
  
  
  
  
  
  
  
  
  
  
</svg>
