<?xml version="1.0" encoding="UTF-8" standalone="no"?>
<svg
   xmlns:dc="http://purl.org/dc/elements/1.1/"
   xmlns:cc="http://web.resource.org/cc/"
   xmlns:rdf="http://www.w3.org/1999/02/22-rdf-syntax-ns#"
   xmlns:svg="http://www.w3.org/2000/svg"
   xmlns="http://www.w3.org/2000/svg"
   xmlns:sodipodi="http://sodipodi.sourceforge.net/DTD/sodipodi-0.dtd"
   xmlns:inkscape="http://www.inkscape.org/namespaces/inkscape"
   viewBox="0 0 2752.766 1537.631"
   version="1.0"
   height="476.7276"
   width="939.74725"
   id="svg1926"
   sodipodi:version="0.32"
   inkscape:version="0.45.1"
   sodipodi:docname="BlankMap-World6.svg"
   sodipodi:docbase="/home/bennett/Desktop"
   inkscape:output_extension="org.inkscape.output.svg.inkscape">
  <sodipodi:namedview
     inkscape:window-height="590"
     inkscape:window-width="822"
     inkscape:pageshadow="2"
     inkscape:pageopacity="0.0"
     guidetolerance="10.0"
     gridtolerance="10.0"
     objecttolerance="10.0"
     borderopacity="1.0"
     bordercolor="#666666"
     pagecolor="#ffffff"
     id="base"
     inkscape:zoom="0.77893284"
     inkscape:cx="469.87363"
     inkscape:cy="238.3638"
     inkscape:window-x="178"
     inkscape:window-y="46"
     inkscape:current-layer="svg1926" />
  <metadata
     id="metadata24111">
    <rdf:RDF>
      <cc:Work
         rdf:about="">
        <dc:format>image/svg+xml</dc:format>
        <dc:type
           rdf:resource="http://purl.org/dc/dcmitype/StillImage" />
        <cc:license
           rdf:resource="http://web.resource.org/cc/PublicDomain" />
        <dc:title>Blank World Map</dc:title>
      </cc:Work>
      <cc:License
         rdf:about="http://web.resource.org/cc/PublicDomain">
        <cc:permits
           rdf:resource="http://web.resource.org/cc/Reproduction" />
        <cc:permits
           rdf:resource="http://web.resource.org/cc/Distribution" />
        <cc:permits
           rdf:resource="http://web.resource.org/cc/DerivativeWorks" />
      </cc:License>
    </rdf:RDF>
  </metadata>
  <defs
     id="defs1930" />
  <style
     type="text/css"
     id="style_css_sheet">
/*
 * Below are Cascading Style Sheet (CSS) definitions in use in this file,
 * which allow easily changing how countries are displayed.
 *
 */

/*
 * Circles around small countries
 *
 * Change opacity to 1 to display all circles.
 *
 */
.circle
{
   opacity:0;
   fill:#b9b9b9;
   fill-opacity:1;
   stroke:black;
   stroke-width:0.99986893;
   stroke-miterlimit:3.97446823;
   stroke-dasharray:none;
   stroke-opacity:1;
}

/*
 * Land
 */
.land
{
   fill: #b9b9b9;
   fill-opacity: 1;
   stroke: #ffffff;
   stroke-opacity: 1;
   stroke-width: 0.99986997;
   stroke-miterlimit: 3.97446823;
   stroke-dasharray: none;
}

/*
 * Additional style rules
 *
 * The following are examples of colouring countries.  You can substitute these with your own styles to colour the countries on the map.
 *
 * Color a few countries:
 *
 * .gb, .au, .nc
 * {
 *    fill:       #ff0000;
 * }
 *
 * Color a few small country circles (and the countries):
 *
 * .ms, .ky
 * {
 *    opacity:    1;
 *    fill:       #ff0000;
 * }
 *
 */

/*
 * Antarctica
 */

.aq
{
   fill:#e6e6e6;
}

/*
 * Sea
 */

.ocean
{
   opacity: 1;
   color: #000000;
   fill:white;
   fill-opacity:1;
   fill-rule:nonzero;
   stroke:#000000;
   stroke-width:0.5;
   stroke-linecap:butt;
   stroke-linejoin:miter;
   marker:none;
   marker-start:none;
   marker-mid:none;
   marker-end:none;
   stroke-miterlimit:1;
   stroke-dasharray:none;
   stroke-dashoffset:0;
   stroke-opacity:1;
   visibility:visible;
   display:inline;
   overflow:visible;
}

.lake
{
   fill:#ffffff;
   fill-opacity:1;
   stroke:#ffffff;
   stroke-opacity:1;
   stroke-width:0.99986997;
   stroke-miterlimit:3.97446823;
   stroke-dasharray:none;
}
</style>
  
  
  
  
  
  
  
  
  
  
  
  
  
  
  
  
  
  
  
  
  
  
  
  
  
  
  
  
  
  
  
  
  
  
  
  
  
  
  
  
  
  
  
  
  
  
  
  
  
  
  
  
  
  
  
  
  
  
  
  
  
  
  
  
  
  
  
  
  
  
  
  
  
  
  
  
  
  
  
  
  
  
  
  
  
  
  
  
  
  
  
  
  
  
  
  
  
  
  
  
  
  
  
  
  
  
  
  
  
  
  
  
  
  
  
  
  
  
  
  
  
  
  
  
  
  
  
  
  
  
  
  
  
  
  
  
  
  
  
  
  
  
  
  
  
  
  
  
  
  
  
  
  
  
  
  
  
  
  
  <g
     id="nc">
    <g
       class="land nc"
       id="nc-">
      <path
         d="M 2526.5454,938.5885 C 2527.6004,939.6015 2528.2995,941.1195 2529.6326,941.8385 C 2530.1970,942.1435 2530.2010,942.9255 2530.5274,943.3715 C 2531.0147,944.0365 2532.1198,944.2435 2532.4474,944.9975 C 2533.0007,946.2665 2534.7060,946.6365 2535.6705,947.4105 C 2537.0944,948.5545 2538.3717,949.0435 2539.9730,949.7475 C 2539.2057,950.6485 2541.3760,952.3925 2542.1267,951.4765 C 2541.8896,951.9195 2542.0190,952.1055 2542.1580,952.6265 C 2542.7227,950.8795 2543.9385,953.2895 2544.8121,953.0735 C 2545.9895,952.7815 2547.3066,952.7395 2546.1205,950.9515 C 2545.6140,950.1875 2544.9073,950.1105 2544.2088,949.6375 C 2543.3154,949.0325 2542.6857,948.1265 2541.9274,947.3845 C 2540.4874,945.9755 2538.5498,945.4575 2537.0535,944.2075 C 2535.8712,943.2195 2535.1600,942.2295 2534.3693,940.9775 C 2533.3426,939.3515 2533.0877,939.5895 2531.4723,938.5865 C 2530.0356,937.6935 2529.2329,935.9585 2527.7113,935.2065 C 2527.0638,934.8865 2526.5674,935.2115 2525.9336,934.9805 C 2525.0918,934.6745 2524.6510,933.8095 2523.8599,933.4065 C 2524.3643,934.0465 2524.7982,934.8485 2525.1217,935.5605 C 2525.3549,936.0765 2525.1158,936.4325 2525.4698,936.9695 C 2525.8401,937.5285 2526.3339,937.9595 2526.5454,938.5885"
         id="path2568" />
      <path
         d="M 2542.9648,938.8085 C 2543.9830,938.3765 2543.4813,937.4265 2543.7870,936.5685 C 2543.4458,937.2865 2543.4849,938.1875 2542.9648,938.8085"
         id="path2570" />
      <path
         d="M 2550.0730,955.7285 C 2550.2229,955.5085 2550.3397,955.2685 2550.4223,955.0085 C 2549.4393,954.3745 2549.0994,955.4235 2550.0730,955.7285"
         id="path2572" />
      <path
         d="M 2549.5303,942.8385 C 2550.2572,942.1535 2548.9916,938.1775 2547.4250,938.7385 C 2549.0680,939.6965 2547.3182,939.7225 2547.2465,940.5275 C 2547.1338,941.7715 2548.7645,942.0745 2549.5303,942.8385"
         id="path2574" />
      <path
         d="M 2554.2010,946.9385 C 2555.1432,946.9695 2555.3398,946.0205 2555.3703,945.2895 C 2554.5567,945.5185 2554.3909,944.4515 2553.7008,944.4325 C 2552.2813,944.3915 2553.5258,946.4625 2554.2010,946.9385"
         id="path2576" />
      <path
         d="M 2493.0870,926.9285 C 2493.2658,926.4585 2493.3505,925.9545 2493.3396,925.4185 C 2493.0262,925.7815 2492.8055,926.3735 2493.0870,926.9285"
         id="path3370" />
    </g>
    <path
       class="circle nc"
       d="M 2537.4612,948.8687 C 2545.3480,948.8687 2542.6504,936.8426 2534.7813,936.8426 C 2526.9065,936.8426 2529.5686,948.8687 2537.4612,948.8687"
       id="nc." />
  </g>
  
  
  
  
  
  
  
  
  
  
  
  
  
  
  
  
  
  
  
  
  
  
  
  
  
  
  
  
  
  
  
  
  
  
  
  
  
  
  
  
  
  
  
  
  
  
  
  
  
  
  
  
  
  
  
  
  
  
  
  
  
  
  
  
  
  
  
  
  
  
  
  
</svg>
