<?xml version="1.0" encoding="UTF-8" standalone="no"?>
<svg
   xmlns:dc="http://purl.org/dc/elements/1.1/"
   xmlns:cc="http://web.resource.org/cc/"
   xmlns:rdf="http://www.w3.org/1999/02/22-rdf-syntax-ns#"
   xmlns:svg="http://www.w3.org/2000/svg"
   xmlns="http://www.w3.org/2000/svg"
   xmlns:sodipodi="http://sodipodi.sourceforge.net/DTD/sodipodi-0.dtd"
   xmlns:inkscape="http://www.inkscape.org/namespaces/inkscape"
   viewBox="0 0 2752.766 1537.631"
   version="1.0"
   height="476.7276"
   width="939.74725"
   id="svg1926"
   sodipodi:version="0.32"
   inkscape:version="0.45.1"
   sodipodi:docname="BlankMap-World6.svg"
   sodipodi:docbase="/home/bennett/Desktop"
   inkscape:output_extension="org.inkscape.output.svg.inkscape">
  <sodipodi:namedview
     inkscape:window-height="590"
     inkscape:window-width="822"
     inkscape:pageshadow="2"
     inkscape:pageopacity="0.0"
     guidetolerance="10.0"
     gridtolerance="10.0"
     objecttolerance="10.0"
     borderopacity="1.0"
     bordercolor="#666666"
     pagecolor="#ffffff"
     id="base"
     inkscape:zoom="0.77893284"
     inkscape:cx="469.87363"
     inkscape:cy="238.3638"
     inkscape:window-x="178"
     inkscape:window-y="46"
     inkscape:current-layer="svg1926" />
  <metadata
     id="metadata24111">
    <rdf:RDF>
      <cc:Work
         rdf:about="">
        <dc:format>image/svg+xml</dc:format>
        <dc:type
           rdf:resource="http://purl.org/dc/dcmitype/StillImage" />
        <cc:license
           rdf:resource="http://web.resource.org/cc/PublicDomain" />
        <dc:title>Blank World Map</dc:title>
      </cc:Work>
      <cc:License
         rdf:about="http://web.resource.org/cc/PublicDomain">
        <cc:permits
           rdf:resource="http://web.resource.org/cc/Reproduction" />
        <cc:permits
           rdf:resource="http://web.resource.org/cc/Distribution" />
        <cc:permits
           rdf:resource="http://web.resource.org/cc/DerivativeWorks" />
      </cc:License>
    </rdf:RDF>
  </metadata>
  <defs
     id="defs1930" />
  <style
     type="text/css"
     id="style_css_sheet">
/*
 * Below are Cascading Style Sheet (CSS) definitions in use in this file,
 * which allow easily changing how countries are displayed.
 *
 */

/*
 * Circles around small countries
 *
 * Change opacity to 1 to display all circles.
 *
 */
.circle
{
   opacity:0;
   fill:#b9b9b9;
   fill-opacity:1;
   stroke:black;
   stroke-width:0.99986893;
   stroke-miterlimit:3.97446823;
   stroke-dasharray:none;
   stroke-opacity:1;
}

/*
 * Land
 */
.land
{
   fill: #b9b9b9;
   fill-opacity: 1;
   stroke: #ffffff;
   stroke-opacity: 1;
   stroke-width: 0.99986997;
   stroke-miterlimit: 3.97446823;
   stroke-dasharray: none;
}

/*
 * Additional style rules
 *
 * The following are examples of colouring countries.  You can substitute these with your own styles to colour the countries on the map.
 *
 * Color a few countries:
 *
 * .gb, .au, .nc
 * {
 *    fill:       #ff0000;
 * }
 *
 * Color a few small country circles (and the countries):
 *
 * .ms, .ky
 * {
 *    opacity:    1;
 *    fill:       #ff0000;
 * }
 *
 */

/*
 * Antarctica
 */

.aq
{
   fill:#e6e6e6;
}

/*
 * Sea
 */

.ocean
{
   opacity: 1;
   color: #000000;
   fill:white;
   fill-opacity:1;
   fill-rule:nonzero;
   stroke:#000000;
   stroke-width:0.5;
   stroke-linecap:butt;
   stroke-linejoin:miter;
   marker:none;
   marker-start:none;
   marker-mid:none;
   marker-end:none;
   stroke-miterlimit:1;
   stroke-dasharray:none;
   stroke-dashoffset:0;
   stroke-opacity:1;
   visibility:visible;
   display:inline;
   overflow:visible;
}

.lake
{
   fill:#ffffff;
   fill-opacity:1;
   stroke:#ffffff;
   stroke-opacity:1;
   stroke-width:0.99986997;
   stroke-miterlimit:3.97446823;
   stroke-dasharray:none;
}
</style>
  
  
  
  
  
  
  
  
  
  
  
  
  
  
  
  
  
  
  
  
  
  
  
  
  
  
  
  
  
  
  
  
  
  
  
  
  
  
  
  
  
  
  
  
  
  
  
  
  
  
  
  
  
  
  
  
  
  
  
  
  
  
  
  
  
  
  
  
  
  
  
  
  
  
  
  
  
  
  
  
  
  
  
  <g
     class="land ng"
     id="ng">
    <path
       d="M 1325.3251,721.6535 C 1326.2404,721.5925 1326.5673,721.0295 1325.8246,720.4295 C 1325.5115,720.7785 1325.3457,721.1855 1325.3251,721.6535"
       id="path5382" />
    <path
       d="M 1327.2675,721.2215 C 1327.5077,721.0775 1327.7479,720.9335 1327.9881,720.7895 C 1327.4794,720.7965 1326.9988,720.9165 1326.5464,721.1485 C 1326.7867,721.1735 1327.0271,721.1965 1327.2675,721.2215"
       id="path5386" />
    <path
       d="M 1290.9808,691.2695 C 1291.8705,688.1495 1290.5555,684.4365 1291.9220,681.4885 C 1292.2556,680.7675 1293.5309,681.4055 1294.1326,680.7125 C 1295.1613,679.5255 1294.2162,678.0875 1295.2691,676.8995 C 1295.9579,676.1215 1295.9107,674.8905 1296.7543,674.3995 C 1297.6390,673.8835 1298.9583,672.7835 1298.5165,671.5275 C 1298.1737,670.5525 1297.7214,669.7445 1299.0274,669.4775 C 1300.8606,669.1035 1299.3630,666.4925 1299.1681,665.7095 C 1298.9681,664.9115 1299.2424,664.2095 1298.8172,663.4375 C 1298.4519,662.7745 1297.8883,662.2475 1297.5369,661.5755 C 1296.8167,660.1975 1297.8429,659.0315 1298.2455,657.7505 C 1298.7313,656.2075 1298.3726,654.5625 1298.4744,652.9615 C 1298.5973,651.0275 1299.1178,650.6285 1300.4741,649.2975 C 1301.6415,648.1515 1302.1405,646.4225 1302.0899,644.8285 C 1302.0479,643.4835 1302.9802,642.6825 1303.9481,641.8805 C 1305.0889,640.9365 1306.4959,640.6765 1307.9444,640.6195 C 1309.8397,640.5445 1310.8575,639.8665 1312.5941,639.4305 C 1313.6111,639.1745 1314.9438,640.3325 1315.7869,640.7505 C 1317.2384,641.4715 1318.7450,641.0505 1320.0072,642.2575 C 1321.1203,643.3235 1321.6519,644.5955 1322.4093,645.8845 C 1322.6961,646.3735 1323.0849,646.8925 1323.6550,647.0765 C 1324.8526,647.4635 1325.0182,646.1305 1325.9727,646.0265 C 1329.1547,645.6775 1330.1931,642.8475 1333.5255,645.1905 C 1333.9859,645.5135 1334.4977,645.8945 1334.7979,646.3785 C 1334.9434,646.6135 1335.8152,646.4955 1336.0685,646.6305 C 1337.4565,647.3675 1338.0101,648.3945 1339.8042,648.4615 C 1340.8534,648.5015 1343.0408,649.0715 1343.9517,648.6695 C 1345.2406,648.1005 1345.6817,646.4425 1346.7866,645.6155 C 1349.4458,643.6255 1353.4649,643.4545 1356.6439,643.7535 C 1358.3108,643.9105 1359.8007,644.3545 1361.2765,645.1275 C 1362.5127,645.7755 1364.0686,646.7295 1365.5237,646.1995 C 1366.9215,645.6905 1367.6500,644.1055 1368.8020,643.2465 C 1369.4337,642.7755 1370.0493,642.3355 1370.8641,642.2915 C 1372.1055,642.2255 1371.2565,641.9875 1371.9339,641.5175 C 1374.3460,639.8475 1375.1244,641.7105 1376.3768,643.6455 C 1377.6547,645.6225 1378.8853,647.9105 1379.0613,650.2995 C 1379.0957,650.7635 1378.6439,652.2275 1379.0554,652.5575 C 1379.5633,652.9645 1380.4424,652.4315 1381.0280,652.7495 C 1383.7047,654.2025 1381.3019,656.8275 1382.2872,658.6465 C 1383.1225,660.1895 1379.2200,662.1385 1378.1518,662.1835 C 1375.9330,662.2755 1374.6265,666.4865 1374.0458,668.2185 C 1373.7160,669.2025 1373.7196,670.2425 1373.4183,671.2245 C 1373.0817,672.3215 1371.6523,672.2815 1371.6220,673.5205 C 1371.5949,674.6295 1372.2488,675.6565 1371.3894,676.6405 C 1370.6629,677.4725 1369.6206,678.1005 1368.6448,678.5965 C 1369.7288,678.8085 1368.6471,681.5725 1368.5688,682.1975 C 1368.3422,683.9885 1367.1804,685.0105 1365.3829,685.0775 C 1365.5492,686.0145 1364.8244,686.2215 1364.3229,686.8165 C 1363.6968,687.5585 1363.8861,688.6575 1363.7115,689.5415 C 1363.3067,691.5925 1362.6792,693.8135 1361.3065,695.4395 C 1360.0345,696.9465 1361.4692,698.0425 1359.6812,699.4505 C 1358.6690,700.2485 1359.2458,700.9165 1358.8650,701.9255 C 1358.6139,702.5905 1357.8017,702.9675 1357.4614,703.5925 C 1357.1313,704.1975 1356.0411,703.8395 1355.5822,703.6565 C 1355.0191,703.4315 1355.0850,702.0205 1355.0472,701.5215 C 1355.0045,700.9435 1353.9140,700.6105 1353.6416,699.9445 C 1353.2080,698.8845 1351.7863,699.0495 1351.4979,697.8205 C 1351.2771,698.5775 1351.2216,699.9175 1350.2541,700.1285 C 1349.0340,700.3945 1348.5229,699.1235 1347.5273,699.4045 C 1345.7308,699.9115 1344.6415,702.6905 1343.3948,703.9385 C 1342.5220,704.8125 1336.8736,709.5615 1338.3300,710.6365 C 1338.9655,711.1055 1338.0098,713.7175 1337.7677,714.4475 C 1337.2285,716.0735 1335.9099,717.2815 1335.4170,718.8455 C 1334.8029,718.6885 1334.5522,718.1995 1334.8353,717.6215 C 1334.1785,718.0465 1333.6723,717.3975 1333.3925,716.9005 C 1334.0311,719.2675 1334.6253,719.8035 1331.8734,720.2025 C 1330.7849,720.3605 1327.2033,721.0755 1328.2047,718.8445 C 1327.7368,719.7505 1327.7150,719.9925 1326.6233,719.9245 C 1325.4144,719.8495 1325.6223,719.5375 1324.4487,718.7725 C 1324.9990,719.1735 1325.6652,721.2415 1324.3577,720.7195 C 1323.4820,720.3705 1324.7757,718.2715 1323.2271,719.0605 C 1323.6608,719.9285 1324.0343,720.7525 1323.6608,721.7245 C 1322.9434,721.4215 1322.1151,718.8405 1322.3646,718.0525 C 1321.5401,718.7655 1322.9117,720.8465 1322.4843,721.8205 C 1321.8891,723.1785 1321.8902,719.9915 1321.9259,719.7085 C 1321.7902,720.1055 1321.5765,722.2875 1321.4960,720.3555 C 1321.4777,720.9255 1321.3994,721.5665 1320.9974,722.0115 C 1320.9757,721.4945 1320.8319,721.0145 1320.5649,720.5715 C 1320.8742,721.1905 1320.8504,722.1875 1319.9010,722.1025 C 1318.1883,721.9495 1318.6595,722.3415 1318.1816,720.7155 C 1318.2018,722.2525 1317.0050,723.5875 1316.7404,721.3635 C 1316.7606,722.8065 1316.3826,721.8605 1315.3294,721.3465 C 1314.2900,720.8395 1313.5894,719.8285 1313.0609,718.8435 C 1312.5636,717.9185 1311.9419,716.9095 1312.2025,715.8325 C 1312.3766,715.1125 1312.4706,714.4525 1311.4613,714.7385 C 1311.2736,713.9565 1311.3560,713.5175 1312.1572,713.3565 C 1313.7106,713.0445 1312.2569,712.4865 1313.4090,711.7875 C 1312.5865,711.8515 1311.8610,712.9665 1311.0512,712.7835 C 1308.4673,712.1995 1311.9994,711.2985 1312.6165,711.2115 C 1312.1978,710.7065 1311.7168,710.6345 1311.1733,710.9955 C 1311.1948,710.6825 1311.2173,710.3705 1311.2418,710.0585 C 1311.0861,710.9575 1309.9490,711.6065 1309.5092,710.4905 C 1309.1105,709.4805 1310.3262,709.0345 1310.8783,708.4745 C 1310.2234,708.7405 1309.6340,709.1955 1309.1470,709.6995 C 1308.1537,707.4525 1305.9601,704.9665 1303.4983,704.3415 C 1302.3019,704.0375 1300.8693,703.8815 1299.6357,703.9565 C 1298.6726,704.0165 1297.2684,704.4335 1296.4378,703.7235 C 1297.4867,703.9285 1299.0256,703.2325 1299.6119,702.3555 C 1298.5393,702.3055 1297.7815,703.5655 1296.7260,702.7155 C 1296.3512,703.1675 1296.2552,703.6715 1296.4390,704.2275 C 1294.7117,704.4535 1292.9488,704.1235 1291.2380,704.5155 C 1291.1779,703.4355 1291.7848,702.4845 1291.8106,701.4195 C 1291.8364,700.3175 1291.3390,699.5085 1291.6093,698.3695 C 1292.0523,696.5145 1292.0787,692.9495 1290.9808,691.2695"
       id="path5406" />
  </g>
  
  
  
  
  
  
  
  
  
  
  
  
  
  
  
  
  
  
  
  
  
  
  
  
  
  
  
  
  
  
  
  
  
  
  
  
  
  
  
  
  
  
  
  
  
  
  
  
  
  
  
  
  
  
  
  
  
  
  
  
  
  
  
  
  
  
  
  
  
  
  
  
  
  
  
  
  
  
  
  
  
  
  
  
  
  
  
  
  
  
  
  
  
  
  
  
  
  
  
  
  
  
  
  
  
  
  
  
  
  
  
  
  
  
  
  
  
  
  
  
  
  
  
  
  
  
  
  
  
  
  
  
  
  
  
  
  
  
  
  
  
  
  
  
  
  
  
  
</svg>
