<?xml version="1.0" encoding="UTF-8" standalone="no"?>
<svg
   xmlns:dc="http://purl.org/dc/elements/1.1/"
   xmlns:cc="http://web.resource.org/cc/"
   xmlns:rdf="http://www.w3.org/1999/02/22-rdf-syntax-ns#"
   xmlns:svg="http://www.w3.org/2000/svg"
   xmlns="http://www.w3.org/2000/svg"
   xmlns:sodipodi="http://sodipodi.sourceforge.net/DTD/sodipodi-0.dtd"
   xmlns:inkscape="http://www.inkscape.org/namespaces/inkscape"
   viewBox="0 0 2752.766 1537.631"
   version="1.0"
   height="476.7276"
   width="939.74725"
   id="svg1926"
   sodipodi:version="0.32"
   inkscape:version="0.45.1"
   sodipodi:docname="BlankMap-World6.svg"
   sodipodi:docbase="/home/bennett/Desktop"
   inkscape:output_extension="org.inkscape.output.svg.inkscape">
  <sodipodi:namedview
     inkscape:window-height="590"
     inkscape:window-width="822"
     inkscape:pageshadow="2"
     inkscape:pageopacity="0.0"
     guidetolerance="10.0"
     gridtolerance="10.0"
     objecttolerance="10.0"
     borderopacity="1.0"
     bordercolor="#666666"
     pagecolor="#ffffff"
     id="base"
     inkscape:zoom="0.77893284"
     inkscape:cx="469.87363"
     inkscape:cy="238.3638"
     inkscape:window-x="178"
     inkscape:window-y="46"
     inkscape:current-layer="svg1926" />
  <metadata
     id="metadata24111">
    <rdf:RDF>
      <cc:Work
         rdf:about="">
        <dc:format>image/svg+xml</dc:format>
        <dc:type
           rdf:resource="http://purl.org/dc/dcmitype/StillImage" />
        <cc:license
           rdf:resource="http://web.resource.org/cc/PublicDomain" />
        <dc:title>Blank World Map</dc:title>
      </cc:Work>
      <cc:License
         rdf:about="http://web.resource.org/cc/PublicDomain">
        <cc:permits
           rdf:resource="http://web.resource.org/cc/Reproduction" />
        <cc:permits
           rdf:resource="http://web.resource.org/cc/Distribution" />
        <cc:permits
           rdf:resource="http://web.resource.org/cc/DerivativeWorks" />
      </cc:License>
    </rdf:RDF>
  </metadata>
  <defs
     id="defs1930" />
  <style
     type="text/css"
     id="style_css_sheet">
/*
 * Below are Cascading Style Sheet (CSS) definitions in use in this file,
 * which allow easily changing how countries are displayed.
 *
 */

/*
 * Circles around small countries
 *
 * Change opacity to 1 to display all circles.
 *
 */
.circle
{
   opacity:0;
   fill:#b9b9b9;
   fill-opacity:1;
   stroke:black;
   stroke-width:0.99986893;
   stroke-miterlimit:3.97446823;
   stroke-dasharray:none;
   stroke-opacity:1;
}

/*
 * Land
 */
.land
{
   fill: #b9b9b9;
   fill-opacity: 1;
   stroke: #ffffff;
   stroke-opacity: 1;
   stroke-width: 0.99986997;
   stroke-miterlimit: 3.97446823;
   stroke-dasharray: none;
}

/*
 * Additional style rules
 *
 * The following are examples of colouring countries.  You can substitute these with your own styles to colour the countries on the map.
 *
 * Color a few countries:
 *
 * .gb, .au, .nc
 * {
 *    fill:       #ff0000;
 * }
 *
 * Color a few small country circles (and the countries):
 *
 * .ms, .ky
 * {
 *    opacity:    1;
 *    fill:       #ff0000;
 * }
 *
 */

/*
 * Antarctica
 */

.aq
{
   fill:#e6e6e6;
}

/*
 * Sea
 */

.ocean
{
   opacity: 1;
   color: #000000;
   fill:white;
   fill-opacity:1;
   fill-rule:nonzero;
   stroke:#000000;
   stroke-width:0.5;
   stroke-linecap:butt;
   stroke-linejoin:miter;
   marker:none;
   marker-start:none;
   marker-mid:none;
   marker-end:none;
   stroke-miterlimit:1;
   stroke-dasharray:none;
   stroke-dashoffset:0;
   stroke-opacity:1;
   visibility:visible;
   display:inline;
   overflow:visible;
}

.lake
{
   fill:#ffffff;
   fill-opacity:1;
   stroke:#ffffff;
   stroke-opacity:1;
   stroke-width:0.99986997;
   stroke-miterlimit:3.97446823;
   stroke-dasharray:none;
}
</style>
  
  
  
  
  
  
  
  
  
  
  
  
  
  
  
  
  
  
  
  
  
  
  
  
  
  
  
  
  
  
  
  
  
  
  
  
  
  
  
  
  
  
  
  
  
  
  
  
  
  
  
  
  
  
  
  
  
  
  
  
  
  
  
  
  
  
  
  
  
  
  
  
  
  
  
  
  
  
  
  
  
  
  
  
  
  
  
  
  
  
  
  
  
  
  
  
  
  
  
  
  
  
  
  
  
  
  
  
  
  
  
  
  
  
  
  
  
  
  
  
  
  
  
  
  
  
  
  
  <path
     class="land ni"
     d="M 600.7872,646.5575 C 601.7380,646.9385 601.8577,647.8945 603.0092,647.7826 C 602.9116,646.7616 604.4199,647.1645 605.2768,646.9016 C 606.2065,646.6176 605.4776,645.3146 606.1103,644.8425 C 606.5830,644.4905 607.4007,644.7655 607.4556,644.0485 C 607.5259,643.1416 606.5403,641.3025 607.0428,640.5815 C 607.5072,639.9145 608.7708,640.4515 609.4398,640.5376 C 610.2863,640.6445 610.5542,639.9135 610.9749,639.3575 C 612.5527,637.2755 612.9294,638.7576 614.8997,639.9335 C 614.6805,638.8465 615.9515,638.2495 616.6429,637.7545 C 617.3485,637.2495 617.7521,635.9416 618.6727,635.7895 C 619.7972,635.6046 618.8439,634.7576 619.6047,634.0595 C 620.3982,633.3315 620.3276,632.3465 621.1952,631.6516 C 622.1785,630.8636 622.6006,632.3306 623.5689,632.6115 C 624.7987,632.9686 626.1156,632.2035 627.3238,632.0426 C 628.6538,631.8655 629.9981,631.4356 631.1328,630.7906 C 631.6484,630.4976 632.0273,629.9955 632.6339,629.8536 C 633.3899,629.6775 634.1971,629.9855 634.9617,629.8536 C 634.3378,630.1666 634.1052,631.5595 633.1693,630.7906 C 632.4801,632.1996 634.7977,634.5305 634.2578,636.3346 C 633.7363,638.0815 632.4150,639.0806 632.0114,640.9846 C 631.5098,643.3555 632.0190,645.7265 631.8437,648.1215 C 631.7590,649.2845 632.5449,652.3565 631.1691,652.5345 C 631.0883,651.1735 631.7748,650.1795 631.3986,648.7186 C 630.4955,648.9475 631.5437,650.6146 629.8826,651.1666 C 631.1811,652.6535 630.4717,654.2046 630.6756,655.8465 C 630.3665,655.3955 630.2500,654.9156 630.3262,654.4066 C 630.2493,655.3916 629.6952,656.2676 629.7927,657.2876 C 631.6003,656.6215 630.3568,659.1046 630.0419,659.7106 C 629.2927,661.1535 628.8136,662.8396 630.0893,664.4416 C 630.6575,665.1545 631.6659,665.8095 630.1938,666.4145 C 629.3324,666.7686 627.7925,666.7096 626.9663,666.1015 C 626.7168,665.9035 626.4996,665.6756 626.3149,665.4166 C 625.5762,664.4636 625.8301,664.8056 624.9401,664.6545 C 624.2565,664.5385 623.7635,663.7315 623.0422,663.8836 C 622.4581,664.0055 622.0470,664.4546 621.5570,664.7346 C 620.3239,665.4375 617.4452,663.0285 616.1803,662.6695 C 615.2749,662.4116 615.2186,664.6695 614.2923,662.8016 C 613.5593,661.3256 611.9847,660.3626 610.7739,659.3025 C 608.3735,657.2015 607.1841,654.3335 604.6314,652.2985 C 602.9914,650.9915 599.4797,648.4166 600.7872,646.5575"
     id="ni" />
  
  
  
  
  
  
  
  
  
  
  
  
  
  
  
  
  
  
  
  
  
  
  
  
  
  
  
  
  
  
  
  
  
  
  
  
  
  
  
  
  
  
  
  
  
  
  
  
  
  
  
  
  
  
  
  
  
  
  
  
  
  
  
  
  
  
  
  
  
  
  
  
  
  
  
  
  
  
  
  
  
  
  
  
  
  
  
  
  
  
  
  
  
  
  
  
  
  
  
  
  
  
  
</svg>
