<?xml version="1.0" encoding="UTF-8" standalone="no"?>
<svg
   xmlns:dc="http://purl.org/dc/elements/1.1/"
   xmlns:cc="http://web.resource.org/cc/"
   xmlns:rdf="http://www.w3.org/1999/02/22-rdf-syntax-ns#"
   xmlns:svg="http://www.w3.org/2000/svg"
   xmlns="http://www.w3.org/2000/svg"
   xmlns:sodipodi="http://sodipodi.sourceforge.net/DTD/sodipodi-0.dtd"
   xmlns:inkscape="http://www.inkscape.org/namespaces/inkscape"
   viewBox="0 0 2752.766 1537.631"
   version="1.0"
   height="476.7276"
   width="939.74725"
   id="svg1926"
   sodipodi:version="0.32"
   inkscape:version="0.45.1"
   sodipodi:docname="BlankMap-World6.svg"
   sodipodi:docbase="/home/bennett/Desktop"
   inkscape:output_extension="org.inkscape.output.svg.inkscape">
  <sodipodi:namedview
     inkscape:window-height="590"
     inkscape:window-width="822"
     inkscape:pageshadow="2"
     inkscape:pageopacity="0.0"
     guidetolerance="10.0"
     gridtolerance="10.0"
     objecttolerance="10.0"
     borderopacity="1.0"
     bordercolor="#666666"
     pagecolor="#ffffff"
     id="base"
     inkscape:zoom="0.77893284"
     inkscape:cx="469.87363"
     inkscape:cy="238.3638"
     inkscape:window-x="178"
     inkscape:window-y="46"
     inkscape:current-layer="svg1926" />
  <metadata
     id="metadata24111">
    <rdf:RDF>
      <cc:Work
         rdf:about="">
        <dc:format>image/svg+xml</dc:format>
        <dc:type
           rdf:resource="http://purl.org/dc/dcmitype/StillImage" />
        <cc:license
           rdf:resource="http://web.resource.org/cc/PublicDomain" />
        <dc:title>Blank World Map</dc:title>
      </cc:Work>
      <cc:License
         rdf:about="http://web.resource.org/cc/PublicDomain">
        <cc:permits
           rdf:resource="http://web.resource.org/cc/Reproduction" />
        <cc:permits
           rdf:resource="http://web.resource.org/cc/Distribution" />
        <cc:permits
           rdf:resource="http://web.resource.org/cc/DerivativeWorks" />
      </cc:License>
    </rdf:RDF>
  </metadata>
  <defs
     id="defs1930" />
  <style
     type="text/css"
     id="style_css_sheet">
/*
 * Below are Cascading Style Sheet (CSS) definitions in use in this file,
 * which allow easily changing how countries are displayed.
 *
 */

/*
 * Circles around small countries
 *
 * Change opacity to 1 to display all circles.
 *
 */
.circle
{
   opacity:0;
   fill:#b9b9b9;
   fill-opacity:1;
   stroke:black;
   stroke-width:0.99986893;
   stroke-miterlimit:3.97446823;
   stroke-dasharray:none;
   stroke-opacity:1;
}

/*
 * Land
 */
.land
{
   fill: #b9b9b9;
   fill-opacity: 1;
   stroke: #ffffff;
   stroke-opacity: 1;
   stroke-width: 0.99986997;
   stroke-miterlimit: 3.97446823;
   stroke-dasharray: none;
}

/*
 * Additional style rules
 *
 * The following are examples of colouring countries.  You can substitute these with your own styles to colour the countries on the map.
 *
 * Color a few countries:
 *
 * .gb, .au, .nc
 * {
 *    fill:       #ff0000;
 * }
 *
 * Color a few small country circles (and the countries):
 *
 * .ms, .ky
 * {
 *    opacity:    1;
 *    fill:       #ff0000;
 * }
 *
 */

/*
 * Antarctica
 */

.aq
{
   fill:#e6e6e6;
}

/*
 * Sea
 */

.ocean
{
   opacity: 1;
   color: #000000;
   fill:white;
   fill-opacity:1;
   fill-rule:nonzero;
   stroke:#000000;
   stroke-width:0.5;
   stroke-linecap:butt;
   stroke-linejoin:miter;
   marker:none;
   marker-start:none;
   marker-mid:none;
   marker-end:none;
   stroke-miterlimit:1;
   stroke-dasharray:none;
   stroke-dashoffset:0;
   stroke-opacity:1;
   visibility:visible;
   display:inline;
   overflow:visible;
}

.lake
{
   fill:#ffffff;
   fill-opacity:1;
   stroke:#ffffff;
   stroke-opacity:1;
   stroke-width:0.99986997;
   stroke-miterlimit:3.97446823;
   stroke-dasharray:none;
}
</style>
  
  
  
  
  
  
  
  
  
  
  
  
  
  
  
  
  
  
  
  
  
  
  
  
  
  
  
  
  
  
  
  
  
  
  
  
  
  
  
  
  
  
  
  
  
  
  
  
  
  
  
  
  
  
  
  
  
  
  
  
  
  
  
  
  
  
  
  
  
  
  
  
  
  
  
  
  
  
  
  
  
  
  
  
  
  
  
  
  
  
  
  
  
  
  
  
  
  
  
  
  
  
  
  
  
  
  
  
  
  
  
  
  
  
  
  
  
  
  
  
  
  
  
  
  
  
  
  
  
  
  
  
  
  
  
  
  
  
  
  
  
  
  
  
  
  
  <g
     class="land no"
     id="no">
    <path
       d="M 1362.2977,114.4775 C 1360.5750,113.6285 1358.0383,113.7445 1356.4119,112.7975 C 1354.8317,111.8815 1353.5726,110.4895 1351.0634,111.1655 C 1351.6509,112.4665 1354.2799,113.3105 1356.1577,113.6315 C 1358.3676,114.0105 1361.1068,115.2735 1363.3965,115.1255 C 1363.0565,114.8905 1362.6918,114.6745 1362.2977,114.4775"
       id="path6656" />
    <path
       d="M 1354.2466,105.7655 C 1353.4568,105.3825 1352.6074,105.3345 1351.7007,105.6215 C 1352.5478,105.6765 1353.3964,105.7245 1354.2466,105.7655"
       id="path6658" />
    <path
       d="M 1355.7875,109.0055 C 1356.0716,110.1695 1359.0607,109.3425 1360.0094,109.0765 C 1359.6958,108.8245 1359.3591,108.5845 1359.0009,108.3565 C 1360.2421,108.7445 1361.6569,108.2195 1362.6324,109.0045 C 1361.6596,109.2255 1360.7393,109.5135 1359.8704,109.8685 C 1360.8502,110.0605 1361.8305,110.2525 1362.8081,110.4445 C 1360.7253,111.3555 1358.2606,109.6635 1356.1908,110.6595 C 1358.3122,110.9365 1358.9562,112.4205 1360.9713,112.7425 C 1363.4213,113.1345 1366.0895,112.8605 1368.5608,113.3235 C 1366.8665,113.4525 1365.0741,113.1925 1363.4589,113.6835 C 1365.8713,114.6235 1368.5551,115.2975 1371.4039,115.2455 C 1373.3744,115.2095 1375.2007,115.1435 1377.1530,114.8365 C 1378.6898,113.8105 1379.9033,114.4425 1381.8451,113.9725 C 1381.0653,113.7205 1380.2578,113.5045 1379.4243,113.3245 C 1380.4829,113.1935 1380.7366,112.7415 1380.0675,112.2445 C 1382.5492,111.7325 1385.0818,113.4525 1386.6353,111.3085 C 1388.2377,111.6685 1387.6905,112.8915 1386.0150,112.8925 C 1387.0999,114.0165 1389.6329,113.7595 1391.4068,113.4345 C 1392.5108,113.2325 1393.5295,112.9405 1394.5324,112.5615 C 1396.3364,111.8835 1396.6072,112.3925 1398.4209,112.3875 C 1397.1056,112.6825 1395.7893,113.0505 1394.8488,113.7555 C 1396.9695,113.6195 1399.0579,113.8785 1401.1373,113.9715 C 1397.5372,114.6645 1393.5586,113.4845 1390.0861,114.5985 C 1388.5728,115.0855 1387.1810,114.8455 1385.7407,115.2905 C 1383.0031,116.1395 1380.6225,115.5755 1377.8348,116.0595 C 1378.1320,116.3115 1378.4483,116.5515 1378.7870,116.7805 C 1377.4980,116.4085 1374.7393,115.8095 1373.3515,116.3645 C 1370.7071,117.4285 1376.6592,118.2925 1377.3748,118.2745 C 1380.8021,118.1875 1384.2237,117.7045 1387.6562,117.5745 C 1389.7701,117.4945 1391.8201,117.6715 1393.9447,117.5465 C 1395.7608,117.4405 1397.9255,116.8095 1399.6943,116.9955 C 1398.9013,117.5245 1398.7019,117.9235 1400.2298,117.9315 C 1397.4041,117.4135 1394.3311,118.0755 1391.4122,118.0755 C 1388.2685,118.0755 1385.0731,118.2635 1381.9654,118.7235 C 1385.7511,119.5675 1390.1018,118.9265 1393.7095,120.0915 C 1390.0808,120.1385 1386.3299,118.7915 1382.5231,119.4815 C 1380.9749,119.7625 1379.6963,119.1185 1378.1448,119.2055 C 1375.2129,119.3715 1376.1433,120.4725 1377.9003,121.1685 C 1380.2448,122.1015 1383.6770,122.3975 1386.3532,122.8115 C 1388.3186,123.1165 1389.4827,122.5665 1391.3367,122.4395 C 1392.9014,122.3325 1394.3449,122.8535 1395.8096,123.0445 C 1393.3920,123.6815 1390.8378,122.8985 1388.4668,123.7645 C 1390.5216,124.0905 1393.1808,124.6875 1394.8514,125.5365 C 1396.6062,126.4335 1402.8705,124.6295 1399.3032,124.1245 C 1400.0694,123.8505 1401.0731,123.7455 1401.7279,123.3325 C 1401.6141,123.0925 1401.4970,122.8525 1401.3782,122.6125 C 1401.8857,122.4705 1402.3521,122.2825 1402.7791,122.0475 C 1403.7961,120.5885 1405.4835,119.7325 1407.9357,119.7325 C 1409.5685,119.7325 1411.5266,118.1955 1410.4369,117.3355 C 1409.2189,116.3795 1415.4167,115.9935 1415.9325,115.7725 C 1415.5522,115.6255 1415.1681,115.4805 1414.7780,115.3405 C 1416.5516,115.3165 1415.7112,114.1665 1415.4181,113.6125 C 1419.3939,113.3455 1423.0126,112.4025 1427.0194,112.5135 C 1428.9350,112.5675 1433.7933,112.9005 1434.8372,111.2355 C 1430.7999,110.6795 1425.2023,110.9715 1421.6576,109.7665 C 1420.3181,109.3125 1419.1743,109.0715 1417.5215,109.2095 C 1415.3412,109.3925 1414.5575,108.5885 1412.6908,108.5715 C 1416.1104,108.1295 1411.8989,106.6975 1410.7130,106.4675 C 1409.4233,106.2185 1408.1890,106.9575 1407.0879,107.3315 C 1406.5017,107.5315 1405.8806,107.6255 1405.4578,107.2785 C 1404.4961,106.4925 1406.6205,106.1635 1407.4629,105.5475 C 1405.8267,105.2225 1404.3354,104.7005 1402.6394,104.4495 C 1401.2197,104.2405 1400.1213,104.7275 1398.8216,104.6115 C 1397.4924,104.4935 1393.4889,102.9695 1393.9178,104.8995 C 1388.1375,103.8035 1396.9383,110.3615 1396.9283,110.8035 C 1394.8284,110.3795 1393.8046,108.8545 1391.1910,109.3645 C 1392.5123,108.1715 1386.9791,106.1565 1385.8388,105.7845 C 1384.0951,105.2165 1382.8331,105.2905 1381.2362,106.0705 C 1380.1456,106.6055 1378.9605,106.4465 1377.8931,106.9095 C 1377.3960,107.1255 1378.3672,108.1775 1378.2394,108.4995 C 1376.6922,107.0245 1374.3461,107.8835 1372.1319,107.3475 C 1372.3737,107.0815 1372.6204,106.8175 1372.8738,106.5555 C 1370.7360,106.5075 1368.5204,107.0135 1366.4266,106.6275 C 1368.4026,106.6515 1370.2273,105.9795 1372.2049,105.9795 C 1373.9809,105.9795 1375.8240,105.9795 1377.5561,105.6205 C 1377.2667,104.2425 1373.1464,104.9885 1371.7619,105.0885 C 1370.2961,105.1935 1368.8448,105.4465 1367.3889,105.5295 C 1366.4305,105.5835 1362.2782,104.4615 1363.6905,105.9795 C 1362.1723,106.2915 1361.6072,105.1655 1360.2650,105.0435 C 1359.2502,104.9515 1354.7205,105.8615 1357.5790,106.3395 C 1356.9419,106.3515 1351.4285,106.6845 1355.1378,106.7715 C 1354.1769,106.7185 1353.2547,106.8145 1352.3693,107.0595 C 1353.6069,107.0455 1353.4412,107.2075 1353.2630,107.7425 C 1353.0603,108.3495 1355.2774,108.6675 1355.7875,109.0055"
       id="path6660" />
    <path
       d="M 1412.4478,104.1095 C 1411.1646,104.4355 1409.8171,104.4255 1408.5208,104.6855 C 1413.4335,105.4145 1418.3186,106.1985 1423.6233,105.5495 C 1429.3209,104.8565 1434.9723,105.1495 1440.5285,105.3335 C 1436.1786,106.2335 1431.6166,106.0795 1427.3446,105.9805 C 1428.3136,106.4845 1429.6391,106.4855 1430.8958,106.5565 C 1427.3762,106.8135 1424.0849,106.1295 1420.5642,106.4125 C 1422.4347,107.7165 1428.0168,107.7565 1430.7848,107.9025 C 1435.1085,108.1315 1440.2861,108.0235 1444.7385,107.7085 C 1444.2639,107.8625 1443.7987,108.0305 1443.3461,108.2125 C 1446.1268,109.5175 1451.6477,109.7305 1455.3505,108.8625 C 1458.2241,108.1925 1459.5444,108.1025 1462.2986,108.2435 C 1464.1212,108.3365 1466.7090,107.9225 1468.4322,107.2045 C 1468.1757,106.9625 1467.9149,106.7225 1467.6485,106.4835 C 1471.1082,105.8105 1474.6151,105.2855 1478.1124,104.8995 C 1477.7026,102.3765 1472.1699,103.0365 1468.9141,103.1145 C 1466.2808,103.1775 1463.9783,102.5955 1461.3714,102.5955 C 1460.1981,102.5955 1458.8984,102.3075 1457.6962,102.5255 C 1456.5515,102.7335 1456.3111,101.7735 1454.8918,102.0195 C 1458.4555,102.2585 1452.2713,102.5765 1451.4695,102.9315 C 1449.8365,103.6575 1447.8609,103.0845 1446.1783,103.2435 C 1448.6236,102.5935 1445.8159,101.9585 1448.3140,101.8045 C 1447.3218,101.3285 1445.9094,101.4195 1444.7432,101.1565 C 1444.8572,102.3025 1442.6975,102.2415 1441.9371,101.6605 C 1442.8144,102.0335 1442.8470,102.2015 1442.0764,102.6755 C 1441.4840,103.0395 1441.7919,103.8575 1441.4191,104.0175 C 1439.5614,104.8165 1437.5213,102.8935 1435.3184,103.4615 C 1438.9954,102.7715 1433.8729,102.7855 1433.1138,102.8335 C 1431.5425,102.9315 1429.7640,103.1075 1428.5233,102.5125 C 1426.5389,101.5665 1422.5206,100.9395 1419.8156,101.4465 C 1420.5540,101.7285 1421.3740,101.8965 1422.2747,101.9505 C 1420.1974,103.2995 1418.1708,102.1265 1415.9662,102.0945 C 1416.4868,102.8985 1417.8458,103.2305 1419.2648,103.1025 C 1417.7115,104.0235 1415.5396,103.2425 1414.0326,102.9945 C 1411.7415,102.6175 1408.9782,103.0595 1406.5835,103.1755 C 1407.1871,103.2345 1412.4028,103.7645 1409.0483,103.6795 C 1410.6242,103.9135 1412.3210,104.0625 1414.0045,103.8955 C 1413.5155,104.1245 1412.9988,104.1965 1412.4478,104.1095"
       id="path6718" />
    <path
       d="M 1411.0592,102.7405 C 1411.4390,102.5725 1411.8175,102.4045 1412.1980,102.2365 C 1411.0163,102.0625 1409.6899,101.8475 1408.5543,102.4535 C 1409.4267,102.4675 1410.2625,102.5625 1411.0592,102.7405"
       id="path6720" />
    <path
       d="M 1415.8998,140.5415 C 1416.6643,140.3955 1417.1000,140.0605 1417.2083,139.5335 C 1416.1511,139.2155 1414.9299,139.3325 1413.8046,139.6045 C 1414.4509,139.9665 1415.1502,140.2785 1415.8998,140.5415"
       id="path6730" />
    <path
       d="M 1422.9843,108.0695 C 1423.4031,108.0695 1423.8234,108.0695 1424.2422,108.0695 C 1423.1148,107.8105 1421.7589,107.6155 1420.5496,108.1415 C 1421.3564,108.1585 1422.1684,108.1345 1422.9843,108.0695"
       id="path6732" />
    <path
       d="M 1425.7015,110.3015 C 1426.8836,110.2225 1428.0801,110.0745 1429.2338,109.7975 C 1427.6813,109.5815 1425.9062,109.2495 1424.3867,110.0855 C 1424.8241,110.1575 1425.2629,110.2295 1425.7015,110.3015"
       id="path6738" />
    <path
       d="M 1429.4263,100.2935 C 1429.8355,100.2215 1430.2451,100.1485 1430.6546,100.0765 C 1429.4601,100.0125 1428.2701,99.9355 1427.0804,99.8615 C 1427.8538,100.0165 1428.6360,100.1595 1429.4263,100.2935"
       id="path6740" />
    <path
       d="M 1424.1371,113.5415 C 1426.1590,113.8065 1427.7496,113.8765 1429.2984,114.7175 C 1430.6321,115.4455 1432.3042,115.1205 1434.0407,115.1175 C 1434.8003,115.1165 1442.4136,115.0565 1440.0918,113.4975 C 1437.4903,111.7685 1427.7925,112.7545 1424.1371,113.5415"
       id="path6742" />
    <path
       d="M 1428.5390,100.5815 C 1428.3008,100.3565 1427.9159,100.3095 1427.3893,100.4365 C 1427.7719,100.4855 1428.1563,100.5335 1428.5390,100.5815"
       id="path6744" />
    <path
       d="M 1429.6032,119.9495 C 1434.1930,120.7745 1439.3445,119.1035 1444.0820,119.3735 C 1443.6307,119.6125 1440.7349,120.3705 1441.5984,120.8595 C 1443.2345,121.7865 1445.1766,120.8315 1447.0707,120.5105 C 1449.1763,120.1565 1450.4731,120.3105 1452.5593,119.5275 C 1454.9394,118.6385 1457.2373,118.3625 1459.7706,118.2215 C 1458.3221,117.4015 1456.0997,116.9745 1453.9086,117.3415 C 1451.4904,117.7475 1449.2171,116.9855 1447.1650,116.5655 C 1447.8960,116.0915 1448.8192,115.7205 1449.7903,115.5575 C 1447.0227,114.7235 1443.8278,115.2695 1440.7152,115.2695 C 1437.3120,115.2695 1433.8879,115.2315 1430.4378,115.7025 C 1431.3820,116.5275 1433.2558,116.8135 1434.8796,116.8535 C 1434.5268,117.4715 1433.6345,118.1335 1432.9669,118.6435 C 1431.9439,119.4245 1430.1179,118.7805 1429.6032,119.9495"
       id="path6754" />
    <path
       d="M 1474.8321,112.6055 C 1475.2663,112.4375 1475.6994,112.2695 1476.1358,112.1015 C 1475.0031,111.9575 1474.0077,111.2195 1472.6729,111.9575 C 1473.4150,112.1515 1474.1348,112.3675 1474.8321,112.6055"
       id="path6780" />
    <path
       d="M 1483.3988,103.1015 C 1482.9672,103.2215 1482.5375,103.3415 1482.1049,103.4615 C 1482.9290,103.5005 1483.7650,103.4285 1484.6205,103.2445 C 1484.2124,103.1965 1483.8071,103.1495 1483.3988,103.1015"
       id="path6784" />
    <path
       d="M 1485.2485,111.3815 C 1488.9730,110.6805 1493.0717,111.8215 1496.4883,110.8055 C 1492.3323,111.1155 1488.1643,109.5535 1483.9000,111.3095 C 1484.3506,111.3335 1484.7996,111.3575 1485.2485,111.3815"
       id="path6786" />
    <path
       d="M 1511.7246,103.6775 C 1516.9263,103.3765 1522.0433,103.3805 1527.3421,102.8135 C 1522.7005,102.5335 1516.7556,102.3495 1511.7246,103.6775"
       id="path6788" />
    <path
       d="M 1309.0670,238.1015 C 1308.7514,237.8565 1308.4078,237.6415 1308.0350,237.4545 C 1307.7466,238.2955 1308.0901,238.5115 1309.0670,238.1015"
       id="path6606" />
    <path
       d="M 1309.7130,244.2215 C 1309.3097,243.9795 1308.9050,243.7395 1308.4976,243.5015 C 1308.7504,244.0145 1308.8955,244.5425 1308.9357,245.0855 C 1309.6943,245.1145 1309.9927,244.7955 1309.7130,244.2215"
       id="path6608" />
    <path
       d="M 1308.8293,242.7815 C 1309.1693,242.9725 1309.5104,243.1655 1309.8501,243.3565 C 1309.6080,243.0405 1309.2669,242.8485 1308.8293,242.7815"
       id="path6610" />
    <path
       d="M 1308.8976,242.3495 C 1309.2087,242.3465 1309.5089,242.2985 1309.7983,242.2055 C 1309.4968,242.2535 1309.1978,242.3015 1308.8976,242.3495"
       id="path6612" />
    <path
       d="M 1309.9481,231.6215 C 1310.2128,230.9275 1309.5220,230.9415 1308.9157,231.1175 C 1309.2595,231.2855 1309.6045,231.4535 1309.9481,231.6215"
       id="path6614" />
    <path
       d="M 1310.4417,252.3575 C 1309.9509,252.9275 1310.2429,253.4725 1311.0373,253.7255 C 1311.3559,253.0825 1311.3524,252.2025 1310.5871,251.7095 C 1310.5382,251.9255 1310.4893,252.1415 1310.4417,252.3575"
       id="path6616" />
    <path
       d="M 1310.8024,248.3975 C 1309.4824,248.3645 1310.1734,249.4335 1310.0639,250.0535 C 1310.2413,249.4445 1310.8038,249.1095 1311.5621,249.4775 C 1311.4795,249.0435 1311.2264,248.6835 1310.8024,248.3975"
       id="path6618" />
    <path
       d="M 1311.4655,247.2445 C 1311.0349,247.7665 1311.2523,249.0195 1312.2683,249.0455 C 1313.6309,249.0795 1312.3073,247.3335 1311.4655,247.2445"
       id="path6620" />
    <path
       d="M 1312.6310,246.9575 C 1312.3323,247.0055 1312.0336,247.0535 1311.7350,247.1015 C 1312.6117,247.1535 1313.3526,247.9315 1314.0044,247.1445 C 1314.5905,246.4395 1312.9867,246.5275 1312.6310,246.9575"
       id="path6624" />
    <path
       d="M 1315.1794,228.9575 C 1314.5356,228.8115 1313.8915,228.7885 1313.2420,228.8855 C 1313.2513,230.0295 1314.7920,229.7175 1315.1794,228.9575"
       id="path6626" />
    <path
       d="M 1316.7112,228.0935 C 1316.4055,228.0455 1316.1010,227.9975 1315.7952,227.9495 C 1315.7418,228.4285 1315.6976,228.9085 1315.6585,229.3885 C 1316.2969,229.1405 1316.7432,228.6765 1316.7112,228.0935"
       id="path6628" />
    <path
       d="M 1318.5530,227.5895 C 1318.2472,227.5405 1317.9371,227.5165 1317.6265,227.5175 C 1317.9354,227.5415 1318.2442,227.5655 1318.5530,227.5895"
       id="path6630" />
    <path
       d="M 1317.9063,227.8055 C 1318.2471,227.9015 1318.5891,227.9975 1318.9297,228.0935 C 1318.6619,227.8405 1318.3211,227.7445 1317.9063,227.8055"
       id="path6632" />
    <path
       d="M 1323.0082,225.5015 C 1322.6698,225.5015 1322.3302,225.5015 1321.9919,225.5015 C 1322.4134,225.6585 1322.8492,225.7785 1323.3017,225.8615 C 1323.2030,225.7415 1323.1056,225.6215 1323.0082,225.5015"
       id="path6634" />
    <path
       d="M 1323.8171,224.5655 C 1323.4815,224.5445 1323.1370,224.5655 1322.7996,224.5655 C 1323.5182,224.9855 1323.5573,224.6195 1323.8171,224.5655"
       id="path6636" />
    <path
       d="M 1328.8074,223.7735 C 1329.1128,223.6055 1329.4182,223.4375 1329.7238,223.2695 C 1329.4964,222.9885 1329.2105,222.7485 1328.8673,222.5495 C 1328.9961,223.3735 1328.6295,223.5175 1327.7680,222.9815 C 1327.6486,223.5895 1327.9977,223.9215 1328.8074,223.7735"
       id="path6638" />
    <path
       d="M 1333.3007,220.6775 C 1332.8682,219.6025 1331.0926,219.9405 1330.4117,220.6055 C 1331.3525,220.8215 1332.3787,221.1225 1333.3007,220.6775"
       id="path6642" />
    <path
       d="M 1332.4004,222.3335 C 1332.7392,222.2855 1333.0793,222.2365 1333.4183,222.1885 C 1332.8227,221.6655 1332.0334,221.6375 1331.4671,222.1885 C 1331.7783,222.2375 1332.0906,222.2855 1332.4004,222.3335"
       id="path6644" />
    <path
       d="M 1334.0579,221.8285 C 1334.6580,222.1485 1335.3109,222.2455 1336.0144,222.1175 C 1335.8231,221.1885 1334.7010,221.1735 1334.0579,221.8285"
       id="path6648" />
    <path
       d="M 1334.3086,219.8135 C 1335.4043,220.7285 1339.8015,219.9855 1340.2753,218.8055 C 1339.6062,218.3605 1338.6621,218.3845 1337.8638,218.5215 C 1337.2483,218.6265 1334.9641,218.9245 1337.2815,219.1665 C 1336.1812,219.1655 1335.0451,219.0335 1334.3086,219.8135"
       id="path6650" />
    <path
       d="M 1338.3023,217.7255 C 1337.3131,217.0475 1335.4804,217.9965 1334.4617,218.1575 C 1335.7691,218.0985 1337.2597,218.6005 1338.3023,217.7255"
       id="path6652" />
    <path
       d="M 1336.5605,220.4615 C 1336.2500,220.4855 1335.9396,220.5095 1335.6291,220.5335 C 1335.9825,220.6915 1336.3558,220.8115 1336.7479,220.8925 C 1336.6851,220.7495 1336.6235,220.6055 1336.5605,220.4615"
       id="path6654" />
    <path
       d="M 1354.3019,208.4375 C 1353.9490,208.6055 1353.5975,208.7735 1353.2449,208.9415 C 1353.9602,208.8145 1354.6591,208.6465 1355.3415,208.4375 C 1354.9941,208.4375 1354.6480,208.4375 1354.3019,208.4375"
       id="path6662" />
    <path
       d="M 1354.1912,208.8695 C 1355.3093,208.6205 1356.2028,209.5835 1357.1394,208.7245 C 1356.1606,208.3965 1355.1487,208.6265 1354.1912,208.8695"
       id="path6664" />
    <path
       d="M 1357.0974,211.9655 C 1357.4082,211.9415 1357.7177,211.9175 1358.0285,211.8935 C 1357.2197,211.7355 1356.4758,211.3995 1355.8780,210.9575 C 1355.7829,211.5805 1356.2851,211.9795 1357.0974,211.9655"
       id="path6666" />
    <path
       d="M 1357.2095,210.4535 C 1356.8587,210.4765 1356.5093,210.5015 1356.1586,210.5245 C 1356.4654,210.7585 1356.8132,210.9505 1357.2008,211.1005 C 1357.2037,210.8855 1357.2066,210.6695 1357.2095,210.4535"
       id="path6668" />
    <path
       d="M 1357.5821,211.0295 C 1357.2684,211.5295 1357.5813,211.6495 1358.5209,211.3885 C 1358.2080,211.2695 1357.8951,211.1505 1357.5821,211.0295"
       id="path6670" />
    <path
       d="M 1360.9585,207.1415 C 1360.1921,207.0165 1359.4314,207.2535 1358.9457,207.7175 C 1359.6778,207.6535 1360.3491,207.4615 1360.9585,207.1415"
       id="path6672" />
    <path
       d="M 1360.8367,203.2535 C 1361.2366,203.4725 1361.6803,203.5445 1362.1709,203.4695 C 1362.0057,202.4675 1361.4417,202.7205 1360.8367,203.2535"
       id="path6674" />
    <path
       d="M 1366.4309,201.3095 C 1367.2219,200.9915 1368.0570,200.7745 1368.9373,200.6615 C 1367.6624,200.2185 1366.1091,200.3945 1365.4699,201.4545 C 1365.7902,201.4055 1366.1119,201.3575 1366.4309,201.3095"
       id="path6676" />
    <path
       d="M 1367.2465,199.3655 C 1365.3877,198.2675 1365.6391,200.9455 1367.6225,199.7245 C 1367.4967,199.6055 1367.3710,199.4865 1367.2465,199.3655"
       id="path6678" />
    <path
       d="M 1369.8284,185.5415 C 1369.5527,185.7625 1369.3133,186.0025 1369.1101,186.2615 C 1370.3613,186.8155 1371.6977,185.7335 1371.2294,184.8215 C 1370.6921,184.9865 1370.2246,185.2265 1369.8284,185.5415"
       id="path6680" />
    <path
       d="M 1369.9537,198.9335 C 1369.6304,199.0295 1369.3072,199.1255 1368.9841,199.2215 C 1369.3222,199.1565 1369.6467,199.0615 1369.9537,198.9335"
       id="path6682" />
    <path
       d="M 1370.7396,198.5725 C 1370.3490,198.4815 1369.9902,198.5535 1369.6649,198.7895 C 1370.0222,198.7175 1370.3808,198.6455 1370.7396,198.5725"
       id="path6684" />
    <path
       d="M 1371.6954,185.4695 C 1372.5841,185.6085 1373.3386,185.1855 1373.6903,184.6055 C 1372.8368,184.2365 1371.5623,184.6625 1371.6954,185.4695"
       id="path6686" />
    <path
       d="M 1372.7079,194.3975 C 1373.3903,194.3535 1374.0729,194.3055 1374.7545,194.2535 C 1374.0568,194.1335 1373.3740,194.1815 1372.7079,194.3975"
       id="path6688" />
    <path
       d="M 1374.6670,184.3895 C 1374.4293,184.6295 1374.1932,184.8685 1373.9558,185.1095 C 1375.4618,184.3565 1377.7511,184.7275 1379.0235,183.6705 C 1378.1132,183.7865 1377.8106,183.1975 1376.9857,183.1665 C 1376.1744,183.1365 1375.6641,183.6255 1374.8156,183.4545 C 1375.3466,183.9315 1375.1065,184.1225 1374.0956,184.0305 C 1374.2857,184.1505 1374.4757,184.2695 1374.6670,184.3895"
       id="path6690" />
    <path
       d="M 1379.3238,183.6695 C 1379.9961,183.1615 1378.8885,183.0205 1378.4677,183.0215 C 1378.7537,183.2375 1379.0381,183.4535 1379.3238,183.6695"
       id="path6692" />
    <path
       d="M 1378.4347,191.8775 C 1378.6574,192.6685 1379.4485,192.9385 1379.5029,191.8055 C 1379.1459,191.8295 1378.7903,191.8535 1378.4347,191.8775"
       id="path6694" />
    <path
       d="M 1379.9020,183.8135 C 1381.5318,184.6815 1385.2204,183.3475 1386.0994,182.1575 C 1385.2764,182.1485 1384.5705,182.3655 1383.9838,182.8055 C 1383.5025,181.2565 1380.6831,183.5085 1379.9020,183.8135"
       id="path6696" />
    <path
       d="M 1384.5633,181.2935 C 1385.8559,181.2525 1387.4383,181.1145 1388.4664,180.4295 C 1387.4794,180.2425 1387.6657,180.0915 1387.9669,179.5935 C 1388.3206,179.0105 1386.3786,178.4435 1385.9382,178.1985 C 1385.9613,178.7195 1385.8300,179.2225 1385.5460,179.7105 C 1384.5187,178.7705 1382.2958,180.2305 1380.8536,180.7185 C 1382.3222,181.6565 1384.4246,179.8245 1386.0979,180.3585 C 1385.4288,180.5905 1384.7308,180.7355 1384.0025,180.7915 C 1384.1891,180.9575 1384.3756,181.1255 1384.5633,181.2935"
       id="path6698" />
    <path
       d="M 1383.3496,181.9415 C 1384.0057,182.0025 1384.5707,181.8585 1385.0439,181.5095 C 1384.1686,181.2485 1383.1623,181.2405 1382.2879,181.5815 C 1382.6415,181.7015 1382.9949,181.8215 1383.3496,181.9415"
       id="path6700" />
    <path
       d="M 1385.0835,179.1335 C 1385.2672,178.5545 1384.9055,178.5545 1383.9979,179.1335 C 1384.3607,179.1335 1384.7221,179.1335 1385.0835,179.1335"
       id="path6702" />
    <path
       d="M 1383.9244,183.8855 C 1384.2955,183.7655 1384.6653,183.6455 1385.0366,183.5255 C 1384.5865,183.5205 1384.2152,183.6405 1383.9244,183.8855"
       id="path6704" />
    <path
       d="M 1385.0685,186.2615 C 1385.7758,186.2525 1386.4653,186.1575 1387.1387,185.9735 C 1386.4812,185.5565 1385.4353,185.5465 1385.0685,186.2615"
       id="path6706" />
    <path
       d="M 1388.6584,180.4295 C 1388.7433,180.6695 1388.8296,180.9085 1388.9143,181.1495 C 1388.2664,181.3225 1387.6030,181.4195 1386.9241,181.4375 C 1387.8962,182.2545 1386.1132,182.6375 1386.0237,183.4545 C 1386.9770,182.8635 1388.1502,182.5235 1389.3333,182.3025 C 1389.0078,182.5595 1388.6958,182.8235 1388.3945,183.0945 C 1388.9916,183.1125 1389.7406,183.5245 1390.3424,183.3825 C 1391.0888,183.2055 1391.4898,182.3455 1392.1155,182.0145 C 1391.8992,183.6765 1393.0597,182.2475 1393.6060,181.8335 C 1394.2195,181.3705 1395.0941,181.5645 1395.8309,181.5425 C 1397.1841,181.5015 1398.5386,180.1475 1397.1720,179.4795 C 1396.5851,179.1925 1395.3055,179.0285 1394.7401,179.5105 C 1393.9417,180.1925 1392.3372,180.7215 1391.1594,181.5825 C 1391.2173,181.3735 1394.5090,178.7325 1391.7500,180.1425 C 1392.7078,179.3085 1392.4602,178.0215 1390.6095,178.6515 C 1389.7262,178.9535 1389.2892,180.3875 1390.5372,180.4305 C 1389.9208,180.2715 1389.2939,180.2715 1388.6584,180.4295"
       id="path6708" />
    <path
       d="M 1390.5750,178.4135 C 1391.9969,178.2275 1393.8524,177.3985 1394.2932,176.3245 C 1392.4404,175.5945 1389.3863,177.5675 1388.7630,178.7725 C 1389.4527,178.9305 1390.0571,178.8105 1390.5750,178.4135"
       id="path6710" />
    <path
       d="M 1390.1189,185.3245 C 1389.7858,185.4215 1389.4530,185.5165 1389.1202,185.6135 C 1390.1275,185.7305 1391.1607,185.6405 1392.1645,185.4685 C 1391.4815,185.4255 1390.8001,185.3765 1390.1189,185.3245"
       id="path6712" />
    <path
       d="M 1393.9609,182.2295 C 1396.7990,183.7425 1396.3720,180.2955 1393.9609,182.2295"
       id="path6714" />
    <path
       d="M 1396.9578,179.1335 C 1397.2968,179.0135 1397.6358,178.8935 1397.9750,178.7735 C 1397.2611,178.4975 1396.5656,178.5445 1395.8881,178.9185 C 1396.2444,178.9895 1396.6005,179.0615 1396.9578,179.1335"
       id="path6716" />
    <path
       d="M 1400.6621,176.2535 C 1401.0272,176.2295 1401.3936,176.2055 1401.7588,176.1815 C 1400.2850,176.4215 1400.2649,176.6615 1401.6969,176.9015 C 1400.9978,177.0955 1400.2903,177.2635 1399.5729,177.4055 C 1400.7693,177.9225 1402.2469,177.6965 1403.4783,177.2305 C 1404.9371,176.6785 1406.6245,177.2495 1408.1449,176.9745 C 1406.9070,176.7665 1406.8635,176.5395 1408.0158,176.2935 C 1408.7144,175.7785 1409.2106,174.5715 1407.4263,175.2455 C 1409.9093,174.7425 1407.3193,174.6225 1406.5088,174.3195 C 1403.9640,173.3705 1406.9536,175.8175 1404.8332,174.0935 C 1406.8696,175.4615 1403.2408,174.2295 1402.1995,174.5975 C 1402.7898,175.0005 1403.5024,175.1685 1404.3409,175.1015 C 1402.8030,175.4975 1401.1933,175.2975 1399.6309,175.5345 C 1400.6139,175.4635 1400.8302,175.5865 1400.6621,176.2535"
       id="path6722" />
    <path
       d="M 1401.4232,180.1415 C 1401.4172,179.0155 1399.8275,179.6615 1399.3456,180.2135 C 1400.0382,180.1485 1400.7304,180.1235 1401.4232,180.1415"
       id="path6724" />
    <path
       d="M 1401.6104,179.2055 C 1402.1911,179.6715 1403.0662,179.7945 1403.8589,179.4215 C 1403.4463,179.0095 1402.0842,178.3805 1401.6104,179.2055"
       id="path6726" />
    <path
       d="M 1414.5987,173.3015 C 1415.2030,173.1225 1415.7600,172.8835 1416.2714,172.5815 C 1415.3517,172.2365 1414.4225,171.6535 1413.2349,172.0055 C 1414.5851,172.3005 1414.1884,172.7185 1413.3101,173.1565 C 1413.1448,172.8905 1412.9736,172.6265 1412.7949,172.3655 C 1412.0190,172.6615 1410.5337,173.2345 1412.5953,173.2285 C 1411.8739,173.0665 1408.7885,173.8835 1411.4560,173.6605 C 1410.6376,173.6815 1409.8882,173.8735 1409.2100,174.2365 C 1410.1695,174.5315 1414.7116,174.6555 1414.5987,173.3015"
       id="path6728" />
    <path
       d="M 1413.5339,170.9975 C 1414.2393,170.7215 1414.9650,170.4815 1415.7126,170.2775 C 1415.0033,170.3565 1414.3026,170.3565 1413.6086,170.2775 C 1413.5836,170.5185 1413.5588,170.7575 1413.5339,170.9975"
       id="path6734" />
    <path
       d="M 1414.5360,170.9975 C 1413.5598,174.0355 1420.4542,171.1175 1421.1472,170.9975 C 1420.2307,171.0525 1419.4774,170.9075 1418.8722,170.9915 C 1418.5415,171.0365 1418.2173,170.4465 1417.8007,170.4215 C 1416.6479,170.3515 1415.6272,170.7765 1414.5360,170.9975"
       id="path6736" />
    <path
       d="M 1416.3894,169.5575 C 1416.7225,169.7275 1417.0792,169.8715 1417.4580,169.9895 C 1417.7614,169.3225 1416.7287,168.6395 1416.3894,169.5575"
       id="path6746" />
    <path
       d="M 1418.3503,169.9885 C 1418.7869,170.0735 1419.2258,170.0495 1419.6687,169.9175 C 1419.2282,169.9415 1418.7892,169.9655 1418.3503,169.9885"
       id="path6748" />
    <path
       d="M 1421.7457,170.9975 C 1421.0060,171.2925 1420.3290,171.6525 1419.7164,172.0765 C 1420.8033,171.9655 1422.1635,171.8965 1422.6504,170.9975 C 1422.3483,170.9975 1422.0463,170.9975 1421.7457,170.9975"
       id="path6750" />
    <path
       d="M 1423.0844,169.9175 C 1422.2577,169.3805 1421.1548,169.2525 1420.0432,169.1975 C 1421.6318,169.8205 1421.8858,171.1565 1424.1426,170.2775 C 1423.7890,170.1575 1423.4368,170.0375 1423.0844,169.9175"
       id="path6752" />
    <path
       d="M 1426.3872,169.9175 C 1426.9027,171.2515 1429.3433,170.6095 1429.6725,169.4135 C 1428.5800,169.1275 1427.3590,169.4255 1426.3872,169.9175"
       id="path6756" />
    <path
       d="M 1428.5861,172.3655 C 1428.8195,172.1255 1429.0545,171.8855 1429.2898,171.6445 C 1428.5222,171.4155 1427.8885,171.6535 1427.8037,172.2925 C 1428.0643,172.3185 1428.3253,172.3415 1428.5861,172.3655"
       id="path6758" />
    <path
       d="M 1429.3728,170.9975 C 1430.0539,171.3915 1430.9817,171.3915 1431.7668,170.9975 C 1431.1216,171.0565 1429.9535,170.5535 1429.3728,170.9975"
       id="path6760" />
    <path
       d="M 1436.2763,170.9975 C 1436.2683,170.8245 1436.1955,170.8275 1435.6201,170.7095 C 1435.8380,170.8055 1436.0570,170.9025 1436.2763,170.9975"
       id="path6762" />
    <path
       d="M 1449.5802,165.5255 C 1449.7344,165.4295 1449.8872,165.3335 1450.0414,165.2375 C 1448.9835,165.3145 1447.8780,165.4765 1446.9236,165.1665 C 1448.9076,167.0005 1441.8268,165.1855 1445.0044,166.3175 C 1443.9302,166.3285 1443.2624,165.6735 1442.2726,166.2275 C 1441.4187,166.7065 1439.5193,166.3405 1438.5207,166.4625 C 1439.1746,166.6835 1439.8608,166.8515 1440.5782,166.9665 C 1440.2302,167.1745 1439.8679,167.3665 1439.4872,167.5425 C 1440.9350,166.8145 1442.9162,167.3965 1444.4509,167.2905 C 1446.2992,167.1595 1447.9606,166.1775 1449.5802,165.5255"
       id="path6764" />
    <path
       d="M 1444.8732,169.1975 C 1445.2403,169.1975 1445.6088,169.1975 1445.9759,169.1975 C 1445.5191,168.3605 1443.2249,168.0755 1442.0732,168.4045 C 1442.6876,169.1125 1443.7910,169.1085 1444.8732,169.1975"
       id="path6770" />
    <path
       d="M 1450.8674,166.8935 C 1450.8222,166.7735 1450.7755,166.6545 1450.7289,166.5345 C 1449.1237,167.6965 1446.9753,167.1245 1445.2427,168.0465 C 1446.2752,168.6685 1447.8451,167.6695 1447.6132,168.9825 C 1448.4527,168.5725 1452.2722,167.9745 1450.8674,166.8935"
       id="path6772" />
    <path
       d="M 1453.9327,167.2535 C 1455.2691,166.1375 1453.6671,165.9955 1452.4471,165.9505 C 1449.7651,165.8525 1452.1044,167.4855 1453.9327,167.2535"
       id="path6774" />
    <path
       d="M 1453.3256,163.9415 C 1453.8344,164.3735 1454.5152,164.5175 1455.3661,164.3745 C 1455.0665,163.9805 1454.0842,163.2545 1453.3256,163.9415"
       id="path6776" />
    <path
       d="M 1454.1415,163.3655 C 1454.4353,163.5065 1454.7782,163.4825 1455.1704,163.2935 C 1454.8272,163.3185 1454.4830,163.3415 1454.1415,163.3655"
       id="path6778" />
    <path
       d="M 1469.0373,163.9415 C 1469.4090,163.9415 1469.7779,163.9415 1470.1496,163.9415 C 1468.6404,163.9985 1469.0372,163.5735 1469.8353,163.0775 C 1469.0760,162.9085 1468.3009,162.7645 1467.5114,162.6455 C 1466.4346,162.6455 1465.4911,163.1875 1464.4181,163.2215 C 1465.1040,163.3295 1465.3784,163.8495 1465.8303,164.1495 C 1466.4385,164.5565 1468.2581,164.0215 1469.0373,163.9415"
       id="path6782" />
    <path
       d="M 1201.1700,165.2375 C 1202.5700,164.7645 1203.9320,164.1485 1205.5956,164.0455 C 1206.5975,163.9825 1208.5977,164.0855 1209.0676,163.3695 C 1210.0900,161.8205 1205.4378,163.4745 1204.9919,163.6865 C 1203.7858,164.2605 1201.5638,164.0205 1201.1700,165.2375"
       id="path6604" />
    <path
       d="M 1308.8726,235.8695 C 1310.7739,235.1335 1312.9104,235.7805 1314.8827,235.2935 C 1314.4301,235.2285 1314.0011,235.2745 1313.5983,235.4315 C 1312.6833,235.6695 1311.9486,235.1355 1311.0377,235.1495 C 1313.9626,234.4605 1309.0653,234.8115 1311.9059,234.3575 C 1310.8950,234.2335 1309.8919,234.3675 1308.8934,234.4295 C 1309.8888,234.2725 1310.9301,234.2775 1311.8902,233.9975 C 1311.0253,234.1575 1308.8050,234.6585 1308.7566,233.4215 C 1309.4783,233.4915 1310.1138,233.3475 1310.6608,232.9885 C 1308.2176,233.1825 1311.8916,231.9195 1312.5395,231.9085 C 1313.3239,231.8955 1313.7610,232.3735 1314.4900,232.4845 C 1315.2150,232.5945 1317.5063,232.0255 1315.8981,233.2775 C 1316.2673,232.4995 1321.3627,231.9775 1322.3935,232.3405 C 1321.2711,231.8675 1319.9626,232.4735 1318.7884,232.3055 C 1318.1627,232.2165 1313.0495,232.0485 1315.6694,231.9805 C 1314.0717,231.8915 1311.5420,232.4755 1310.1396,231.6215 C 1310.8945,231.6565 1311.5283,231.4645 1312.0427,231.0455 C 1311.6040,230.6845 1309.7076,230.4745 1309.7469,229.8275 C 1309.8029,228.9005 1312.4917,230.5475 1312.5952,231.1175 C 1312.9362,230.9935 1313.2359,230.8255 1313.4942,230.6135 C 1311.8061,230.6285 1313.0465,229.0505 1314.6035,230.5415 C 1314.6662,229.8365 1315.7112,229.3615 1315.8829,230.1975 C 1315.9869,230.7085 1318.5642,230.6095 1319.0169,230.6135 C 1318.2619,230.4835 1315.6683,229.6765 1317.2130,228.9405 C 1319.0772,228.0545 1319.4097,228.9325 1320.8322,229.8205 C 1318.2349,226.0315 1326.8793,228.7185 1323.5255,230.4685 C 1324.2621,230.6095 1324.9371,230.5135 1325.5509,230.1805 C 1324.7786,230.0525 1324.2039,229.5415 1324.9567,229.0295 C 1325.3518,228.7615 1326.4701,229.1535 1326.9916,228.9575 C 1324.8220,229.0195 1324.5692,228.1255 1322.8530,227.6345 C 1321.4973,227.2455 1320.0125,227.8755 1318.6428,227.5895 C 1319.7113,227.3105 1320.8531,227.4115 1321.9574,227.3015 C 1320.9304,226.8195 1319.7582,227.2145 1318.7875,226.5815 C 1320.5518,226.2765 1322.6457,225.8565 1324.4408,226.3625 C 1325.9593,226.7905 1328.4717,227.4145 1329.8893,226.6535 C 1329.2256,226.7915 1328.5511,226.8395 1327.8630,226.7985 C 1328.0736,225.1975 1331.6413,225.3515 1333.0205,225.7185 C 1331.2552,224.3345 1328.9800,226.5495 1327.0863,225.5025 C 1327.7341,225.3695 1328.3792,225.2265 1329.0193,225.0715 C 1327.5597,225.1265 1325.3592,226.1555 1324.1153,225.0715 C 1324.7047,224.8815 1325.3208,224.8085 1325.9631,224.8535 C 1325.1664,224.7235 1324.4751,224.4355 1323.8890,223.9895 C 1324.8601,223.4565 1326.0348,223.2625 1327.1033,223.8335 C 1328.1910,224.4155 1329.1508,223.5265 1330.2899,223.7025 C 1331.3314,223.8635 1332.2232,223.4045 1332.6652,224.4275 C 1333.0337,225.2865 1335.1516,225.3675 1335.9818,225.8635 C 1334.9603,224.4775 1332.2814,224.4925 1331.7532,222.7665 C 1332.4947,222.3995 1333.6673,223.1535 1334.1065,223.5445 C 1335.1667,224.4925 1334.6030,224.2985 1336.5145,224.3505 C 1334.6428,224.2095 1335.8615,223.6075 1336.6955,223.4865 C 1336.3146,223.4605 1332.9606,223.3785 1335.6731,223.2705 C 1335.2632,223.2915 1332.7753,222.6135 1334.1335,222.3735 C 1335.7065,222.0965 1337.5513,222.0455 1339.1799,221.8305 C 1338.2167,221.9285 1337.1889,222.0085 1336.2939,221.6155 C 1336.6612,221.3445 1336.9830,221.0435 1337.2594,220.7145 C 1337.8121,220.1865 1338.3485,220.5165 1339.0417,220.3055 C 1340.1177,219.9785 1341.2413,220.2905 1340.1046,221.1835 C 1341.0477,220.8475 1342.0718,220.6795 1343.0900,220.5365 C 1342.3667,220.6395 1341.6505,220.6155 1340.9396,220.4645 C 1341.5252,220.1435 1342.1769,219.9505 1342.8920,219.8885 C 1342.2395,219.8085 1341.5861,219.8085 1340.9348,219.8885 C 1341.9356,219.3675 1343.3547,219.1265 1344.5074,218.8775 C 1345.8659,218.5845 1347.7716,220.3765 1345.7975,221.0405 C 1346.7655,220.7635 1347.7763,220.9205 1348.7742,220.8955 C 1346.2394,220.4365 1349.3529,219.9865 1350.0383,219.9915 C 1351.1812,220.0015 1352.3975,220.2365 1353.5314,220.0325 C 1352.8381,219.3755 1353.0259,219.0875 1354.0968,219.1685 C 1353.4173,218.9805 1352.7630,219.0275 1352.1369,219.3125 C 1353.6702,218.4055 1355.4444,217.6845 1357.3887,217.5125 C 1357.3209,216.8655 1356.7303,216.6525 1355.9914,216.9365 C 1356.3015,215.9545 1357.6820,215.9935 1358.6411,215.6405 C 1357.7873,215.5555 1355.4272,215.9665 1357.6206,214.9925 C 1355.6513,215.0525 1354.4776,216.7385 1352.5317,216.9365 C 1353.2395,216.9345 1353.8953,216.7905 1354.5007,216.5045 C 1355.6146,217.6935 1351.9459,218.5755 1351.0514,218.8205 C 1348.1197,219.6275 1347.4869,220.0525 1345.7937,218.1595 C 1346.6135,218.1575 1347.3424,217.8495 1347.9381,217.4395 C 1346.5794,217.6895 1345.2098,217.9535 1343.9237,218.3765 C 1344.6550,218.0025 1345.5116,217.5045 1343.8159,217.5125 C 1345.2958,217.0095 1347.2635,215.9335 1348.9678,216.4325 C 1348.2613,216.0935 1347.5761,216.1185 1346.9106,216.5045 C 1347.2049,216.2945 1347.5162,216.1025 1347.8485,215.9285 C 1345.7160,216.2615 1347.9665,215.3375 1348.5265,214.9945 C 1349.2217,214.5685 1348.8092,214.0195 1350.0189,214.3445 C 1349.0801,212.3395 1354.8862,212.8615 1354.3721,211.1045 C 1355.4212,211.3435 1356.0173,212.1395 1357.0965,212.3285 C 1356.9554,212.6015 1356.7897,212.8655 1356.6020,213.1215 C 1357.5647,212.6455 1358.6756,212.2305 1359.8234,212.1125 C 1357.9682,212.2565 1359.0815,211.2515 1360.0347,211.2485 C 1359.3953,211.0635 1358.7319,210.9685 1358.0460,210.9615 C 1358.0837,209.8175 1360.1635,209.7975 1361.1933,209.5935 C 1360.6837,209.5795 1360.1813,209.5315 1359.6846,209.4495 C 1361.4242,208.4415 1363.9424,208.1775 1365.9436,208.8015 C 1362.6113,207.5445 1360.1116,209.9885 1356.8393,209.9535 C 1358.1346,209.6615 1358.1072,209.4705 1356.7547,209.3775 C 1357.7183,208.9945 1358.8340,209.2145 1359.7876,208.8015 C 1359.0368,209.0285 1358.2777,209.0525 1357.5109,208.8735 C 1358.1517,208.6755 1358.8159,208.6025 1359.5006,208.6565 C 1356.4685,208.1895 1362.9078,207.9815 1359.5089,208.1525 C 1360.4342,208.0915 1361.3577,207.9235 1362.1798,207.5765 C 1359.8127,207.6225 1362.1684,206.7635 1363.0393,207.4325 C 1363.2198,206.5095 1364.6114,206.4115 1364.8464,207.3605 C 1364.0700,207.5995 1363.2784,207.6475 1362.4711,207.5055 C 1364.6679,208.2845 1367.6990,207.0465 1369.3444,205.9215 C 1368.6259,206.1815 1367.9705,206.5265 1367.2423,206.7695 C 1366.5758,206.9905 1363.8966,206.9255 1366.2862,206.7135 C 1364.9574,206.6215 1365.1402,206.2135 1365.8378,205.7055 C 1365.0508,205.5915 1364.3128,205.8905 1363.8276,206.3525 C 1363.1590,205.6465 1364.0537,204.0745 1365.3117,204.1215 C 1365.5836,204.2985 1365.8191,204.4995 1366.0179,204.7265 C 1366.6992,205.2355 1367.6891,204.7995 1368.4339,204.6255 C 1368.1262,204.6915 1365.8955,204.0255 1365.8071,203.9165 C 1364.6258,202.4565 1367.1304,202.8595 1368.0905,203.2575 C 1365.6117,202.5125 1368.7557,199.6625 1371.5749,201.8175 C 1371.2709,200.6335 1368.9049,200.1295 1367.6101,200.2335 C 1368.9372,200.2015 1371.3258,199.2155 1372.6591,198.8555 C 1373.8954,198.5225 1373.4421,199.0345 1374.1913,199.3855 C 1374.6703,199.6095 1375.5484,199.2875 1376.0876,199.3705 C 1374.4691,199.0675 1378.0562,198.5735 1378.8297,198.0025 C 1376.1100,198.4845 1373.3279,198.6685 1370.6158,199.1535 C 1371.3184,198.3575 1372.5014,198.2815 1373.6387,198.2175 C 1372.5859,198.0885 1371.5032,198.3025 1370.4655,198.0725 C 1371.3634,197.6035 1371.2413,197.0395 1370.3108,196.7055 C 1371.3133,196.2005 1371.6722,197.0705 1372.6128,197.0645 C 1372.9365,197.0625 1375.5618,196.1215 1375.7469,195.9845 C 1374.1985,195.6355 1372.5862,197.0235 1371.5129,195.6255 C 1372.2166,195.4755 1372.9226,195.4515 1373.6333,195.5535 C 1373.1361,195.4075 1372.6270,195.2865 1372.1047,195.1935 C 1373.4652,194.9295 1374.8291,195.4845 1376.1714,195.1225 C 1375.7703,195.1545 1372.8366,195.0205 1375.3112,194.8335 C 1372.6226,194.6375 1376.9422,194.5665 1377.3498,194.5465 C 1376.2396,194.4185 1375.3504,193.8975 1374.2825,193.6825 C 1375.3579,193.2785 1376.8073,192.9085 1378.0084,193.0695 C 1379.5566,193.2775 1380.7264,192.2255 1382.2693,192.8185 C 1381.6313,192.5225 1380.9287,192.3785 1380.1635,192.3865 C 1380.6103,191.3725 1385.0882,190.8385 1385.0438,191.5945 C 1386.2376,191.0495 1387.9538,191.4365 1388.8987,192.0265 C 1388.9506,191.2235 1389.1445,191.0835 1390.2083,191.3795 C 1388.8790,191.1835 1387.5902,190.8025 1386.2129,190.7645 C 1384.2856,190.7105 1382.8409,191.3245 1380.9229,190.7315 C 1381.7339,190.5615 1382.2068,189.9585 1383.0133,189.7955 C 1383.9323,189.6105 1384.2665,190.4785 1385.0632,189.6505 C 1384.3591,189.6895 1383.6830,189.6175 1383.0332,189.4345 C 1383.9912,189.0485 1385.2235,188.4845 1386.2787,189.0025 C 1385.8776,189.1465 1385.4766,189.2905 1385.0758,189.4345 C 1386.0686,189.2565 1387.2288,189.1365 1388.2051,189.3625 C 1389.0875,189.5665 1389.6937,190.4675 1390.7763,190.1545 C 1388.5764,190.0935 1391.1096,188.7645 1392.1412,188.7875 C 1390.4218,188.6425 1388.7418,189.3275 1387.0592,188.8585 C 1390.3873,188.3255 1385.5180,188.8425 1387.4977,187.8145 C 1388.1131,187.4955 1389.1100,187.8985 1389.7654,187.8505 C 1387.2750,187.5545 1390.8897,187.5855 1391.8030,187.9945 C 1389.4184,186.1335 1386.8593,188.1635 1384.0767,188.2115 C 1384.5433,187.6875 1385.3312,187.3435 1386.1750,187.3475 C 1385.3892,187.3035 1384.6864,187.1115 1384.0635,186.7715 C 1384.7478,186.7065 1385.4325,186.6815 1386.1188,186.6995 C 1382.7906,186.6035 1388.7869,186.1445 1389.3699,186.1055 C 1390.2590,186.0455 1392.3487,186.4615 1392.7605,185.5475 C 1391.1752,184.9015 1389.3769,185.4735 1387.6709,185.3305 C 1388.3579,184.4535 1389.6242,184.7055 1390.6784,184.3225 C 1388.8786,185.9435 1392.5354,183.5555 1393.5541,184.0485 C 1394.8240,184.6635 1393.6991,186.6755 1396.0052,186.5555 C 1395.2096,186.4375 1394.6426,185.9945 1394.5264,185.4035 C 1394.9835,185.6845 1398.2142,186.6115 1395.5064,185.4035 C 1396.6206,185.8765 1396.8959,185.7085 1396.3338,184.8995 C 1397.0320,185.0495 1397.7479,185.0735 1398.4803,184.9715 C 1397.3553,184.9185 1396.2401,184.7865 1395.1752,184.5395 C 1395.6987,184.3725 1396.2317,184.2275 1396.7754,184.1065 C 1396.0459,183.9765 1395.3010,183.9045 1394.5408,183.8905 C 1395.9901,183.8115 1396.0080,183.5715 1394.5930,183.1705 C 1396.0787,183.5015 1397.3747,184.1875 1398.9210,184.3945 C 1397.6228,184.1355 1396.3554,183.4715 1395.3980,182.8105 C 1397.0234,182.7305 1398.6238,182.4165 1400.1656,182.8795 C 1400.8392,182.9295 1401.5171,182.9595 1402.1966,182.9705 C 1402.9110,183.1165 1402.6772,183.5695 1403.5957,183.6025 C 1403.0957,183.5755 1402.8180,183.4065 1402.7626,183.0945 C 1403.0777,182.6035 1404.6032,182.7745 1405.0315,182.9545 C 1402.3680,182.5085 1406.5479,182.5035 1407.1274,182.5945 C 1405.0430,182.1275 1403.6740,182.1395 1401.4898,182.3335 C 1400.1137,182.4565 1397.7846,182.5895 1396.6508,181.9455 C 1398.0665,181.7575 1397.5881,180.6795 1399.5355,180.4655 C 1401.3969,180.2605 1403.3186,180.4075 1405.1442,180.5775 C 1404.4562,180.3385 1403.7532,180.1225 1403.0327,179.9305 C 1404.0301,179.4745 1405.1071,179.8005 1406.0934,179.9305 C 1404.3867,179.7495 1405.1588,179.3845 1406.0609,179.0665 C 1403.2736,179.2625 1406.6216,176.9565 1408.9148,177.2665 C 1406.4059,175.8245 1412.7691,173.4135 1411.9506,176.6905 C 1412.3608,175.3535 1414.3521,175.6605 1415.7925,176.1145 C 1414.4399,175.6405 1412.7150,175.6185 1411.9773,174.5305 C 1413.2476,174.3205 1414.2909,174.5895 1415.3240,175.0235 C 1416.4837,175.5115 1419.1627,175.4815 1418.2308,176.5465 C 1418.9954,176.4835 1419.7628,175.4665 1418.6599,175.4665 C 1417.4671,175.4665 1416.3253,175.6465 1415.7356,174.7455 C 1416.3729,174.2925 1417.0826,174.1725 1417.8648,174.3865 C 1417.1746,174.1545 1416.4474,174.1295 1415.6851,174.3145 C 1415.6653,172.3425 1419.5385,172.5555 1421.3052,172.2985 C 1421.0147,173.3685 1421.1848,174.2435 1420.3545,175.2495 C 1421.3951,174.7795 1421.9572,173.4425 1423.3990,173.9545 C 1421.2319,173.8615 1423.1683,171.5815 1423.4569,172.6575 C 1423.9967,171.8165 1425.5035,172.1335 1425.7387,171.1455 C 1428.2773,171.9205 1424.2500,175.3915 1423.1321,176.1855 C 1424.3128,175.6365 1425.7423,175.4965 1426.4290,174.4875 C 1427.1325,173.4585 1429.0831,174.6125 1429.9967,174.6745 C 1426.7671,173.8415 1428.4681,171.7755 1431.3320,171.3615 C 1430.9432,171.5575 1430.5772,171.7735 1430.2323,172.0095 C 1431.3681,173.1855 1431.7500,171.4295 1433.0200,172.1535 C 1430.9415,169.6965 1439.2775,172.8175 1439.8202,172.8745 C 1439.3738,172.4585 1438.7749,172.2185 1438.0215,172.1535 C 1439.2456,172.1625 1439.3610,172.0845 1438.3647,171.9195 C 1437.7821,171.6075 1437.8649,170.5605 1439.3199,171.4345 C 1439.0204,170.6225 1436.3289,170.6595 1438.7994,170.2105 C 1437.0911,170.5665 1433.7318,170.3395 1432.5877,169.3465 C 1433.3511,169.1585 1434.0509,169.2065 1434.6891,169.4905 C 1434.8256,169.2265 1434.9592,168.9635 1435.0904,168.6985 C 1435.8203,168.9765 1436.5169,169.2885 1437.1799,169.6355 C 1437.7626,167.8645 1439.4662,169.6535 1440.8013,168.9145 C 1440.3504,169.8555 1441.7397,169.9745 1442.6391,170.0665 C 1441.8603,170.0265 1441.4070,169.6865 1441.3686,169.1305 C 1442.7794,168.9645 1444.1973,169.3385 1445.5291,169.4895 C 1445.0256,170.5945 1442.8238,170.4355 1441.6695,170.4975 C 1443.1454,170.5295 1444.7861,170.5205 1446.1738,169.9225 C 1446.0444,171.8145 1448.7044,171.0465 1450.3078,171.0025 C 1450.1877,170.5895 1448.6794,170.7215 1448.1247,170.2825 C 1449.1340,169.9285 1450.0468,169.5135 1448.1606,169.3455 C 1448.6105,169.3685 1452.0845,169.1575 1449.2225,168.9855 C 1450.3542,169.1545 1451.2122,168.0785 1452.1051,167.7215 C 1453.4591,167.1795 1454.8501,167.4355 1456.2344,167.4015 C 1454.3896,166.1805 1458.1374,166.3305 1459.0045,165.9625 C 1458.0663,165.5945 1456.8646,165.6655 1456.0282,165.1705 C 1457.2892,164.5075 1458.2348,165.5805 1459.4460,164.7375 C 1456.5976,164.3225 1461.1842,163.9555 1462.2148,164.1165 C 1462.2843,164.1275 1465.9420,166.0795 1464.3193,164.2335 C 1465.7912,164.1355 1466.9397,165.1335 1468.4906,164.5935 C 1467.2896,166.1635 1464.0286,166.2675 1462.3687,167.4735 C 1463.2005,167.3305 1463.6262,167.6085 1463.5525,168.1935 C 1463.0442,168.2295 1461.2329,169.3055 1461.2080,170.0655 C 1461.9584,169.7825 1463.2013,170.3345 1463.5372,170.0035 C 1463.8979,169.6455 1464.3560,169.3745 1464.9134,169.1885 C 1465.5995,168.8735 1464.7097,168.6615 1465.1351,168.3375 C 1467.0929,166.8515 1471.6767,164.5885 1474.3727,164.0895 C 1474.5426,165.2905 1474.4840,166.0045 1472.4025,166.1055 C 1474.3956,165.8625 1473.9473,167.5125 1473.1853,168.3375 C 1474.0170,168.4005 1474.1888,168.0825 1474.7229,167.7085 C 1475.5011,167.1655 1476.6274,167.5665 1477.4684,167.5455 C 1477.2527,167.2835 1477.0385,167.0195 1476.8301,166.7535 C 1477.5643,166.6565 1478.2642,166.6805 1478.9326,166.8245 C 1478.1631,166.7025 1477.7443,166.2515 1477.8527,165.6735 C 1479.0474,165.7305 1480.1572,164.8685 1481.2988,165.2405 C 1480.6522,164.5265 1479.3373,164.6255 1478.2432,164.4495 C 1479.0356,164.3595 1485.9948,161.9065 1486.0627,163.5845 C 1486.0757,163.8785 1488.0138,163.9365 1488.3216,164.1905 C 1489.1744,164.8975 1483.8634,165.3365 1483.5623,165.4575 C 1484.3503,165.3945 1485.0303,165.5155 1485.6068,165.8165 C 1484.4670,166.0235 1483.3633,166.3815 1482.2147,166.5375 C 1483.6192,166.5035 1485.7636,165.6635 1486.8851,166.3925 C 1485.7512,166.8875 1484.5114,167.1705 1483.3192,167.5445 C 1484.6389,167.6095 1486.0988,167.2305 1487.3649,167.4725 C 1486.5750,167.7725 1485.9958,168.3045 1486.1454,168.9115 C 1486.2552,167.8995 1487.7399,167.3125 1488.9918,167.3995 C 1486.3778,167.4165 1489.8946,165.2135 1490.8472,164.8475 C 1492.1174,164.3595 1496.2521,164.8195 1494.7000,166.2465 C 1495.7591,166.0315 1498.2509,165.2075 1498.2821,166.4635 C 1499.9832,165.4275 1503.1783,166.8915 1500.7131,167.2555 C 1502.9199,167.1375 1506.2205,166.9205 1507.6759,168.1945 C 1508.6132,169.0205 1504.8420,169.3005 1504.3059,169.3755 C 1501.8991,169.7105 1500.3370,170.7085 1497.8049,170.4445 C 1495.7620,170.2315 1491.9477,169.1385 1489.8624,170.2795 C 1491.1355,170.3375 1492.3800,170.4715 1493.6092,170.6335 C 1494.4742,170.7475 1499.0231,170.8415 1496.0821,171.5745 C 1497.2255,171.6855 1499.8054,172.1595 1496.8430,173.0145 C 1497.8005,172.9315 1498.7574,172.8345 1499.7158,172.7265 C 1499.6906,173.3085 1500.1598,173.3295 1500.9651,173.3025 C 1500.9146,172.9015 1500.9478,172.4925 1501.0644,172.0775 C 1502.1274,172.1175 1503.3576,172.2175 1503.5267,173.0865 C 1504.3758,171.7765 1506.7678,172.3685 1507.0151,173.3825 C 1507.5059,175.4125 1502.0540,173.7355 1501.4093,173.5185 C 1501.8975,174.8355 1499.6019,175.3395 1498.2252,175.6065 C 1497.4505,175.7565 1495.5511,175.7675 1494.9397,176.2935 C 1494.1580,176.9685 1494.7497,177.4535 1493.2823,177.9795 C 1492.4515,178.2765 1491.8100,177.9945 1491.2174,177.7005 C 1490.0042,177.1005 1491.9117,176.4915 1492.5398,176.1105 C 1494.2004,175.1085 1495.1771,173.6945 1492.6184,173.1905 C 1490.6539,172.8035 1488.6118,172.5865 1486.7435,172.0245 C 1484.6092,171.3835 1483.4370,169.9085 1480.6691,170.8335 C 1476.9900,172.0655 1470.7583,170.7175 1468.6456,174.2765 C 1468.1618,175.0945 1467.6640,175.9185 1467.3827,176.7695 C 1467.2069,177.3045 1467.8339,178.1945 1467.0449,178.6545 C 1466.1787,179.1605 1465.4055,178.9515 1464.4702,179.2095 C 1463.5065,179.4765 1462.9672,180.1685 1462.3379,180.7135 C 1460.8725,181.9865 1458.6523,180.5155 1457.1285,180.2135 C 1456.1017,180.0105 1455.0475,179.8525 1454.0335,179.6215 C 1452.7815,179.3375 1452.6085,180.1505 1451.5763,180.4295 C 1448.4132,181.2865 1445.2347,180.8335 1442.2767,180.2655 C 1440.9787,180.0175 1438.9835,178.1475 1437.9116,177.4535 C 1435.8930,176.1525 1434.0742,175.8025 1431.3950,176.9005 C 1431.6895,177.1225 1431.9914,177.3385 1432.3008,177.5485 C 1430.2248,178.3465 1427.0284,177.5625 1424.7736,178.2685 C 1427.6176,179.1415 1425.0764,180.8245 1423.2999,181.5815 C 1423.9982,181.6985 1424.6668,181.8665 1425.3072,182.0855 C 1421.7560,183.9545 1418.1478,181.5965 1414.4913,181.9285 C 1412.7651,182.0855 1411.5842,181.0845 1409.8363,181.6685 C 1408.5857,182.0865 1409.9300,183.4465 1409.6502,184.1735 C 1408.6736,186.7015 1404.4936,184.7235 1402.3102,185.2465 C 1398.7117,186.1095 1397.2103,188.7415 1393.8173,189.8625 C 1394.5748,190.3725 1396.5848,191.2545 1396.2596,192.2135 C 1395.9910,193.0215 1391.8842,194.7315 1390.9128,195.4965 C 1390.2376,196.0295 1389.7791,196.2765 1388.9475,196.6105 C 1387.9633,197.0065 1389.3351,197.8305 1388.7499,198.3655 C 1387.4706,199.5385 1383.4698,199.5595 1381.7397,199.5105 C 1381.9895,200.2915 1382.6342,205.3325 1381.2532,205.8865 C 1380.1706,206.3215 1379.6547,207.6915 1378.6375,208.3555 C 1377.2899,209.2365 1375.9980,210.2145 1374.8556,211.2465 C 1376.6740,211.7145 1380.0169,212.6005 1378.4507,214.6435 C 1377.3671,216.0635 1372.3014,215.0115 1370.4693,215.2365 C 1368.7770,215.4445 1363.8484,217.4845 1363.7241,219.0295 C 1363.6593,219.8385 1362.6817,220.4705 1362.7417,221.1975 C 1362.7883,221.7695 1364.3665,223.3275 1363.7543,223.6515 C 1362.4406,224.3445 1363.1566,226.3155 1363.7979,227.3675 C 1365.0664,229.4605 1363.5394,230.8275 1363.7684,232.8965 C 1363.9137,234.2105 1365.9592,234.6455 1367.2233,235.0325 C 1367.8423,235.2225 1368.8256,235.5015 1369.0377,236.0715 C 1369.1738,236.4355 1368.0459,238.5805 1367.4995,238.5785 C 1365.8224,238.5715 1364.1552,238.9355 1364.8184,240.4795 C 1365.2131,241.4015 1366.3207,241.9545 1366.7587,242.8545 C 1367.2711,243.9105 1366.0863,244.4365 1366.2031,245.4485 C 1366.3032,246.3085 1365.0546,247.0705 1364.1790,247.3375 C 1362.7276,247.7815 1361.3679,247.2205 1361.4714,248.5785 C 1361.5277,249.3095 1360.5063,249.7455 1360.0840,250.3015 C 1359.5696,250.9785 1360.8811,251.9985 1360.7912,252.7555 C 1360.7056,253.4795 1360.2272,256.0265 1358.7876,255.8165 C 1358.1270,255.7195 1357.9476,254.7695 1357.5944,254.4105 C 1357.1722,253.9805 1356.1861,254.1035 1355.5726,253.8505 C 1353.9740,253.1915 1352.8039,253.2565 1352.2310,251.7225 C 1351.9757,251.0405 1351.8412,250.3135 1351.8587,249.6005 C 1351.8697,249.1585 1352.4752,247.2675 1352.6812,248.9765 C 1353.6152,247.5975 1351.2620,247.1235 1351.0822,248.5595 C 1350.9798,249.3805 1352.2201,250.1205 1351.0498,250.7765 C 1350.8090,250.5405 1350.5730,250.2995 1350.3420,250.0565 C 1350.1914,250.6695 1349.6662,250.8185 1348.9938,250.5605 C 1350.2944,251.5235 1350.5361,252.1475 1350.0562,253.5125 C 1350.0610,252.0625 1349.9898,253.2895 1349.3599,253.6995 C 1348.8238,254.0485 1348.1692,254.2345 1347.6016,254.5405 C 1346.6820,255.0365 1347.4188,255.4805 1346.0465,254.9485 C 1345.2230,254.6295 1344.4582,254.2175 1343.6075,253.9445 C 1345.9656,254.7655 1343.0982,256.1105 1341.7443,256.0335 C 1341.9577,256.2725 1342.1697,256.5125 1342.3804,256.7535 C 1341.6262,256.9555 1340.8505,257.0525 1340.0544,257.0415 C 1340.2125,257.3045 1340.3667,257.5675 1340.5185,257.8325 C 1338.7357,258.0485 1338.1155,259.5345 1336.7004,260.2275 C 1334.9682,261.0765 1333.0953,261.4685 1331.2121,262.0145 C 1330.4238,262.2435 1329.4002,262.8555 1328.5392,262.8505 C 1327.6795,262.8465 1326.8780,262.4925 1326.0102,262.4755 C 1324.6168,262.4485 1322.1404,262.8835 1321.1312,261.7935 C 1321.6897,261.3595 1322.3293,261.0235 1323.0486,260.7855 C 1319.9714,262.3435 1309.8437,257.2855 1314.0540,255.3855 C 1313.7628,255.2015 1313.4586,255.0335 1313.1412,254.8815 C 1315.0004,254.7815 1316.4266,256.1845 1318.2829,256.1055 C 1317.9377,255.9015 1317.6031,255.6855 1317.2816,255.4585 C 1318.4295,254.9125 1319.8120,254.7925 1321.0862,254.5215 C 1319.6029,254.6175 1318.1188,254.8635 1316.9268,255.6015 C 1317.0700,254.9705 1316.6048,254.4105 1315.8831,254.1615 C 1316.5038,254.0085 1317.1285,253.8645 1317.7561,253.7295 C 1315.4351,253.3595 1319.7248,252.4675 1320.4831,252.3615 C 1319.8450,252.3395 1319.2263,252.4125 1318.6296,252.5805 C 1317.5351,252.8415 1316.9606,252.5115 1318.5162,252.3615 C 1317.8773,252.3885 1317.2444,252.3405 1316.6186,252.2175 C 1317.9141,251.5355 1319.0749,250.7855 1320.5946,250.4175 C 1319.7044,250.5895 1318.8700,249.9045 1318.3963,250.6785 C 1318.0332,251.2725 1316.7983,251.8245 1316.0778,252.0745 C 1316.0988,251.5105 1316.5110,251.1685 1317.2142,251.1365 C 1316.2233,251.1095 1315.1414,251.0865 1314.3544,251.6405 C 1315.0479,251.3735 1315.4879,251.5995 1315.5478,252.2165 C 1314.8642,252.1535 1314.2414,252.2735 1313.6824,252.5775 C 1313.6598,252.0245 1313.6373,251.4735 1313.6148,250.9205 C 1313.1917,251.0335 1312.8084,251.2015 1312.4638,251.4245 C 1314.8232,251.5855 1311.7337,253.8215 1312.3046,251.7845 C 1312.2169,253.3505 1310.9090,251.8625 1310.9180,251.2455 C 1310.9310,250.3525 1311.8937,249.5215 1312.9099,249.2645 C 1312.8214,249.9595 1312.6825,250.8735 1311.5415,250.8485 C 1312.5222,251.3305 1312.8535,250.7875 1313.0880,250.1255 C 1313.4036,249.2355 1315.1109,249.9815 1315.9850,249.6245 C 1313.4618,249.3755 1317.1565,248.9685 1317.6602,248.6165 C 1316.6180,249.1105 1315.2071,248.8245 1314.2220,248.3275 C 1315.0528,247.4275 1316.7566,246.0805 1318.2976,246.0965 C 1315.8600,245.5245 1320.3428,243.9795 1321.1036,243.5775 C 1321.5358,244.3695 1320.8279,245.0775 1320.6341,245.8075 C 1322.1190,244.4505 1322.5244,243.2455 1325.0788,243.0735 C 1323.1200,242.8175 1320.9395,243.1235 1319.1386,243.7005 C 1318.6011,243.8725 1316.8569,244.9125 1316.5480,245.3585 C 1314.2623,248.6775 1315.3838,245.1535 1313.4777,245.3765 C 1313.6481,244.9035 1313.7796,244.4235 1313.8719,243.9365 C 1313.6262,244.4225 1312.7565,245.9675 1311.7334,245.6015 C 1310.9058,245.3055 1311.1712,244.1005 1310.1617,243.9365 C 1310.8331,243.7895 1311.3527,243.3815 1311.5617,242.8565 C 1312.5539,244.9615 1314.9311,242.4515 1314.2989,241.0565 C 1313.0709,241.3015 1312.4861,242.4955 1311.1368,242.4955 C 1309.8189,242.4955 1309.7068,240.9285 1308.5618,240.6245 C 1309.6599,240.6155 1310.9674,241.0055 1311.6889,241.7045 C 1311.5362,241.0555 1311.2500,240.0085 1312.5280,240.0485 C 1311.3343,239.8225 1309.3166,241.2285 1308.9542,239.5445 C 1309.8041,240.0305 1309.9582,240.0275 1310.3067,239.2565 C 1309.3333,239.4575 1308.5185,238.2845 1310.5490,238.5485 C 1312.6966,238.8275 1314.0220,238.1625 1316.0931,238.1045 C 1317.5823,238.0625 1319.5588,238.8515 1320.9085,238.1345 C 1322.3516,237.3695 1325.2602,239.1505 1323.2561,239.6165 C 1323.8851,239.3245 1324.5503,239.2765 1325.2498,239.4715 C 1323.1293,238.2805 1328.0983,237.4725 1328.9473,237.4555 C 1326.1933,237.1855 1327.1991,236.3235 1328.7062,235.2235 C 1327.4639,235.6255 1325.9121,236.6195 1327.1290,237.7435 C 1326.1340,237.6845 1325.1985,238.0925 1324.2039,237.8155 C 1324.5115,237.5805 1324.8389,237.3645 1325.1872,237.1685 C 1324.2861,237.6315 1319.7940,237.8035 1321.7915,236.4485 C 1320.6789,236.5805 1320.8885,237.3275 1320.2639,237.8355 C 1319.3557,238.5755 1317.9950,237.8095 1316.9829,237.6825 C 1315.8254,237.5385 1313.8664,238.0445 1312.7717,238.3045 C 1311.6062,238.5805 1310.6663,237.7275 1309.5938,237.5285 C 1311.3121,237.5185 1310.2964,237.0095 1309.5536,236.6645 C 1310.7015,236.2345 1312.0830,236.0925 1313.3645,236.1605 C 1312.0992,235.8505 1310.7164,236.1975 1309.5469,236.5205 C 1310.3193,235.6765 1310.0973,235.4605 1308.8726,235.8695"
       id="path6794" />
    <path
       d="M 1309.2465,241.9885 C 1308.9373,241.8445 1308.6281,241.7005 1308.3187,241.5565 C 1309.0058,241.2205 1309.7278,241.4775 1310.1542,241.9885 C 1309.8516,241.9885 1309.5491,241.9885 1309.2465,241.9885"
       id="path6796" />
    <path
       d="M 1309.7925,232.1255 C 1310.1336,232.2455 1310.4758,232.3645 1310.8167,232.4845 C 1309.8112,232.6135 1308.7629,232.5335 1307.7833,232.2685 C 1308.3982,231.8925 1309.0686,231.8445 1309.7925,232.1255"
       id="path6798" />
    <path
       d="M 1313.3003,243.4295 C 1312.6226,243.2625 1312.0072,242.9985 1311.4541,242.6375 C 1312.3616,242.2305 1313.4215,242.0445 1314.2175,241.4855 C 1314.4117,242.2525 1314.5230,243.2245 1313.3003,243.4295"
       id="path6800" />
    <path
       d="M 1318.0222,251.2785 C 1318.3364,249.9295 1319.4043,250.6425 1320.5871,250.4145 C 1319.6933,250.6295 1318.7452,250.7745 1318.0222,251.2785"
       id="path6802" />
    <path
       d="M 1330.1870,223.2695 C 1330.3072,223.0535 1330.4262,222.8375 1330.5466,222.6225 C 1330.8795,223.1925 1330.5050,222.9555 1330.1870,223.2695"
       id="path6806" />
    <path
       d="M 1499.7385,171.7175 C 1497.8366,171.3635 1498.3556,173.4585 1500.8442,172.1495 C 1499.8035,172.5455 1499.4352,172.4015 1499.7385,171.7175"
       id="path6812" />
  </g>
  
  
  
  
  
  
  
  
  
  
  
  
  
  
  
  
  
  
  
  
  
  
  
  
  
  
  
  
  
  
  
  
  
  
  
  
  
  
  
  
  
  
  
  
  
  
  
  
  
  
  
  
  
  
  
  
  
  
  
  
  
  
  
  
  
  
  
  
  
  
  
  
  
  
  
  
  
  
  
  
  
  
  
  
  
</svg>
