<?xml version="1.0" encoding="UTF-8" standalone="no"?>
<svg
   xmlns:dc="http://purl.org/dc/elements/1.1/"
   xmlns:cc="http://web.resource.org/cc/"
   xmlns:rdf="http://www.w3.org/1999/02/22-rdf-syntax-ns#"
   xmlns:svg="http://www.w3.org/2000/svg"
   xmlns="http://www.w3.org/2000/svg"
   xmlns:sodipodi="http://sodipodi.sourceforge.net/DTD/sodipodi-0.dtd"
   xmlns:inkscape="http://www.inkscape.org/namespaces/inkscape"
   viewBox="0 0 2752.766 1537.631"
   version="1.0"
   height="476.7276"
   width="939.74725"
   id="svg1926"
   sodipodi:version="0.32"
   inkscape:version="0.45.1"
   sodipodi:docname="BlankMap-World6.svg"
   sodipodi:docbase="/home/bennett/Desktop"
   inkscape:output_extension="org.inkscape.output.svg.inkscape">
  <sodipodi:namedview
     inkscape:window-height="590"
     inkscape:window-width="822"
     inkscape:pageshadow="2"
     inkscape:pageopacity="0.0"
     guidetolerance="10.0"
     gridtolerance="10.0"
     objecttolerance="10.0"
     borderopacity="1.0"
     bordercolor="#666666"
     pagecolor="#ffffff"
     id="base"
     inkscape:zoom="0.77893284"
     inkscape:cx="469.87363"
     inkscape:cy="238.3638"
     inkscape:window-x="178"
     inkscape:window-y="46"
     inkscape:current-layer="svg1926" />
  <metadata
     id="metadata24111">
    <rdf:RDF>
      <cc:Work
         rdf:about="">
        <dc:format>image/svg+xml</dc:format>
        <dc:type
           rdf:resource="http://purl.org/dc/dcmitype/StillImage" />
        <cc:license
           rdf:resource="http://web.resource.org/cc/PublicDomain" />
        <dc:title>Blank World Map</dc:title>
      </cc:Work>
      <cc:License
         rdf:about="http://web.resource.org/cc/PublicDomain">
        <cc:permits
           rdf:resource="http://web.resource.org/cc/Reproduction" />
        <cc:permits
           rdf:resource="http://web.resource.org/cc/Distribution" />
        <cc:permits
           rdf:resource="http://web.resource.org/cc/DerivativeWorks" />
      </cc:License>
    </rdf:RDF>
  </metadata>
  <defs
     id="defs1930" />
  <style
     type="text/css"
     id="style_css_sheet">
/*
 * Below are Cascading Style Sheet (CSS) definitions in use in this file,
 * which allow easily changing how countries are displayed.
 *
 */

/*
 * Circles around small countries
 *
 * Change opacity to 1 to display all circles.
 *
 */
.circle
{
   opacity:0;
   fill:#b9b9b9;
   fill-opacity:1;
   stroke:black;
   stroke-width:0.99986893;
   stroke-miterlimit:3.97446823;
   stroke-dasharray:none;
   stroke-opacity:1;
}

/*
 * Land
 */
.land
{
   fill: #b9b9b9;
   fill-opacity: 1;
   stroke: #ffffff;
   stroke-opacity: 1;
   stroke-width: 0.99986997;
   stroke-miterlimit: 3.97446823;
   stroke-dasharray: none;
}

/*
 * Additional style rules
 *
 * The following are examples of colouring countries.  You can substitute these with your own styles to colour the countries on the map.
 *
 * Color a few countries:
 *
 * .gb, .au, .nc
 * {
 *    fill:       #ff0000;
 * }
 *
 * Color a few small country circles (and the countries):
 *
 * .ms, .ky
 * {
 *    opacity:    1;
 *    fill:       #ff0000;
 * }
 *
 */

/*
 * Antarctica
 */

.aq
{
   fill:#e6e6e6;
}

/*
 * Sea
 */

.ocean
{
   opacity: 1;
   color: #000000;
   fill:white;
   fill-opacity:1;
   fill-rule:nonzero;
   stroke:#000000;
   stroke-width:0.5;
   stroke-linecap:butt;
   stroke-linejoin:miter;
   marker:none;
   marker-start:none;
   marker-mid:none;
   marker-end:none;
   stroke-miterlimit:1;
   stroke-dasharray:none;
   stroke-dashoffset:0;
   stroke-opacity:1;
   visibility:visible;
   display:inline;
   overflow:visible;
}

.lake
{
   fill:#ffffff;
   fill-opacity:1;
   stroke:#ffffff;
   stroke-opacity:1;
   stroke-width:0.99986997;
   stroke-miterlimit:3.97446823;
   stroke-dasharray:none;
}
</style>
  
  
  
  
  
  
  
  
  
  
  
  
  
  
  
  
  
  
  
  
  
  
  
  
  
  
  
  
  
  
  
  
  
  
  
  
  
  
  
  
  
  
  <g
     class="land nz"
     id="nz">
    <path
       d="M 2540.8028,1195.2685 C 2539.3953,1194.4235 2537.3061,1196.6415 2538.3909,1197.5695 C 2538.7561,1197.3185 2540.1967,1197.7055 2540.1421,1197.2625 C 2540.0270,1196.3135 2540.1312,1195.8505 2540.8028,1195.2685"
       id="path3560" />
    <path
       d="M 2554.2421,1164.3085 C 2557.2153,1165.2535 2552.4988,1160.8605 2552.3627,1163.1045 C 2552.2628,1164.7105 2552.3378,1166.1575 2550.6207,1166.8985 C 2551.7844,1167.3585 2553.6440,1166.5215 2554.3410,1166.3135 C 2554.8472,1166.1625 2556.1804,1166.3425 2556.1176,1165.7825 C 2556.0097,1164.8625 2554.3474,1164.5225 2553.9452,1164.8885 C 2554.0412,1164.6955 2554.1405,1164.5015 2554.2421,1164.3085"
       id="path3564" />
    <path
       d="M 2542.8393,1156.7485 C 2543.5740,1156.5385 2544.1133,1156.1685 2544.5492,1155.7385 C 2545.2596,1156.6895 2543.7774,1156.4965 2544.1547,1157.3285 C 2545.1289,1157.3175 2544.8263,1156.3805 2545.8969,1156.4585 C 2545.0805,1156.7285 2544.0250,1157.4435 2544.5982,1158.4785 C 2546.0663,1158.5995 2549.0212,1159.4865 2549.5600,1158.6815 C 2550.1763,1157.7565 2552.3504,1158.3775 2552.7758,1160.0585 C 2553.6316,1160.1065 2554.0016,1159.5385 2554.9925,1159.7555 C 2556.5998,1160.1085 2556.1545,1161.1645 2556.8037,1161.8595 C 2557.1887,1161.5445 2558.8926,1161.4635 2559.7204,1161.5615 C 2560.4048,1161.6425 2560.6139,1162.4215 2561.6091,1162.4315 C 2564.4108,1162.4575 2565.8713,1161.3115 2567.9414,1160.6935 C 2568.3338,1160.5765 2568.3668,1159.6415 2568.7051,1159.4075 C 2569.4579,1158.8845 2570.6497,1158.6565 2571.1633,1157.9695 C 2571.6353,1157.3365 2571.6549,1156.4825 2572.6665,1156.1935 C 2573.5687,1155.9345 2575.1720,1156.1195 2574.9795,1155.0995 C 2574.5901,1155.2865 2574.1760,1155.4535 2573.7349,1155.5995 C 2575.6937,1154.3465 2575.4975,1151.7305 2576.5282,1149.9385 C 2577.0084,1149.0955 2577.9540,1148.5355 2578.3092,1147.6205 C 2578.7122,1146.5805 2578.3348,1145.1595 2578.7050,1144.0805 C 2579.3796,1142.0975 2581.6835,1141.2435 2583.6726,1140.1545 C 2584.6759,1139.6055 2586.2183,1139.3235 2587.0259,1138.6525 C 2587.5660,1138.2025 2587.7922,1136.7145 2589.7997,1137.8895 C 2589.4326,1138.0985 2589.0411,1138.2885 2588.6240,1138.4595 C 2589.5045,1137.9205 2592.0617,1139.0215 2592.8975,1138.6095 C 2594.7788,1137.6935 2592.1314,1136.8935 2590.2404,1136.3795 C 2591.3504,1136.0725 2589.9631,1134.2145 2590.3112,1133.4715 C 2590.9084,1132.1905 2592.8288,1131.5915 2593.9368,1130.6325 C 2594.9276,1129.7735 2595.1405,1128.5515 2595.6567,1127.4215 C 2596.1792,1126.4625 2597.3266,1126.0015 2598.2528,1125.3025 C 2598.9632,1124.7655 2599.2569,1124.3035 2599.3436,1123.4335 C 2599.4545,1122.3035 2600.9121,1121.9825 2601.5356,1121.1795 C 2602.2584,1120.2485 2600.2731,1118.3535 2600.7314,1117.3355 C 2601.2052,1116.2875 2603.3443,1116.3295 2603.2330,1114.9195 C 2603.1439,1115.4855 2601.2891,1116.8985 2599.9583,1115.9995 C 2600.9640,1115.7995 2603.1755,1115.4315 2601.8551,1113.9095 C 2600.6218,1113.9445 2601.2253,1114.7195 2600.4730,1114.9655 C 2600.0447,1115.1065 2599.1200,1115.9925 2600.7059,1115.6395 C 2599.9269,1115.7235 2599.4191,1116.0715 2598.7040,1116.2195 C 2599.1327,1115.8295 2600.5417,1114.3115 2598.7444,1114.2695 C 2599.3350,1114.1285 2599.6740,1113.7385 2599.7891,1113.2595 C 2598.4143,1113.5045 2597.8116,1114.4095 2596.6569,1114.8495 C 2595.5611,1115.2655 2595.3489,1116.8285 2593.3287,1116.2895 C 2593.1010,1115.1565 2593.9778,1113.4835 2592.6539,1112.1095 C 2592.3919,1112.3065 2590.6595,1112.5675 2590.3276,1111.6305 C 2589.8523,1110.2915 2591.2545,1109.7205 2592.8285,1110.0185 C 2590.0748,1109.0615 2587.1943,1111.3435 2586.5287,1112.6145 C 2586.1114,1113.4105 2586.1292,1114.4305 2586.0238,1115.3855 C 2585.8773,1116.6975 2585.0733,1117.5245 2584.4084,1118.5395 C 2583.7317,1119.5675 2582.5837,1119.8295 2581.2314,1120.2955 C 2579.9737,1120.7275 2579.8827,1122.0365 2579.5989,1123.1005 C 2578.9169,1125.6235 2577.8094,1127.7755 2576.0967,1129.5285 C 2575.3523,1130.2905 2574.3973,1130.7995 2573.1986,1131.2215 C 2571.8574,1131.6955 2571.2715,1132.7345 2570.2304,1133.4385 C 2567.9924,1134.9515 2565.7883,1136.3525 2563.2777,1137.6775 C 2560.8959,1138.9325 2557.8014,1139.6165 2555.8427,1141.1995 C 2555.0414,1141.8455 2551.3963,1143.6655 2553.6534,1145.5185 C 2551.6549,1143.7785 2551.2103,1146.1645 2550.5878,1146.4475 C 2549.9219,1146.7525 2547.6509,1147.7635 2548.9744,1148.6885 C 2547.9348,1148.4135 2547.3489,1148.8965 2547.0501,1149.2805 C 2546.7253,1149.6975 2546.1191,1150.4895 2547.6713,1150.4895 C 2546.4171,1150.5145 2547.9205,1151.8295 2547.5401,1152.3595 C 2547.6550,1151.6005 2547.3509,1151.4075 2546.6282,1151.7795 C 2546.3569,1151.3605 2545.1123,1150.3345 2545.4040,1151.1225 C 2545.6937,1151.9075 2544.7674,1152.4005 2544.3453,1152.9385 C 2545.4337,1153.1415 2545.8374,1152.6835 2546.6069,1152.5695 C 2546.0377,1152.8885 2545.3473,1153.1145 2544.7840,1153.4385 C 2545.4824,1153.5925 2546.0469,1153.5925 2546.4750,1153.4385 C 2546.1129,1153.6715 2545.6703,1153.8385 2545.1442,1153.9385 C 2547.7720,1154.3065 2544.4082,1154.8695 2543.9122,1154.9585 C 2542.8797,1155.1405 2541.8981,1155.5005 2542.8393,1156.7485"
       id="path3566" />
    <path
       d="M 2599.9939,1111.3195 C 2599.4021,1111.7175 2598.5509,1112.0825 2599.1395,1113.1195 C 2600.0193,1112.9215 2600.1236,1112.1215 2599.9939,1111.3195"
       id="path3568" />
    <path
       d="M 2606.3014,1116.2885 C 2606.5906,1116.7935 2606.8659,1117.2975 2607.1279,1117.7985 C 2607.5300,1117.4515 2608.3769,1117.5345 2608.8127,1117.2185 C 2609.4302,1117.8295 2609.6252,1118.3365 2609.3974,1118.7395 C 2611.7209,1119.8605 2613.1835,1117.7785 2613.9202,1117.1105 C 2615.5675,1115.6155 2616.6682,1114.0115 2617.8016,1112.1765 C 2618.2908,1111.3805 2618.7101,1110.2305 2619.8298,1109.8945 C 2620.7653,1109.6145 2620.4359,1108.4885 2620.8786,1107.8845 C 2621.4332,1107.1305 2622.3744,1106.7525 2622.7531,1105.8435 C 2623.2122,1104.7375 2623.3434,1103.4505 2623.8766,1102.3885 C 2621.2161,1101.9635 2623.1879,1098.9815 2623.5231,1098.5985 C 2624.2954,1097.7165 2628.6028,1095.8875 2629.9055,1099.0085 C 2630.9847,1097.8955 2629.0522,1095.3525 2630.3328,1094.2835 C 2630.7895,1093.9015 2631.5600,1093.7805 2632.0516,1093.4295 C 2632.9221,1092.8075 2632.7742,1091.8195 2632.9074,1090.7875 C 2633.1062,1089.2395 2632.8574,1087.3355 2633.7988,1086.1405 C 2634.2747,1085.5355 2633.7128,1084.8605 2632.4635,1084.3875 C 2630.8166,1083.7635 2629.6752,1084.9085 2628.9557,1085.4505 C 2627.1632,1086.8015 2626.3190,1089.0245 2622.1547,1087.7395 C 2621.1300,1087.4205 2615.5666,1085.4645 2614.9777,1084.6835 C 2614.5508,1084.1165 2614.2658,1077.7875 2612.7600,1078.1975 C 2612.9970,1077.7475 2613.3736,1077.3825 2613.8556,1077.1175 C 2613.2607,1077.1345 2612.7298,1077.2315 2612.2651,1077.4085 C 2611.9648,1076.6335 2611.6336,1075.8145 2610.6662,1075.0975 C 2610.1012,1075.3775 2610.3015,1075.5235 2610.8302,1076.0655 C 2611.4616,1076.7115 2610.8891,1077.4765 2610.9337,1077.9775 C 2611.0366,1079.1455 2612.3331,1081.1735 2610.7257,1081.4305 C 2609.8951,1081.5625 2609.6039,1079.7765 2609.4075,1079.4145 C 2608.8464,1078.3785 2605.6521,1078.2145 2605.0032,1078.3375 C 2604.9464,1078.2465 2605.7022,1077.5565 2605.6880,1077.0595 C 2605.6645,1076.2795 2605.5399,1075.7055 2605.6442,1074.9685 C 2605.7195,1074.4215 2606.8545,1074.1215 2605.9492,1073.3065 C 2604.9901,1072.4425 2603.2194,1070.7325 2603.5861,1069.9175 C 2603.0657,1069.8835 2602.5412,1069.7425 2602.4389,1069.2535 C 2602.2787,1068.4865 2603.8977,1069.3965 2604.5217,1069.6965 C 2604.1416,1067.9915 2603.4220,1066.2015 2602.3665,1064.3775 C 2601.9318,1064.4995 2601.4482,1064.5465 2600.9152,1064.5175 C 2601.1905,1064.7795 2601.4643,1065.0425 2601.7339,1065.3075 C 2601.5003,1065.3825 2601.2342,1065.4065 2600.9336,1065.3775 C 2600.7580,1064.7845 2599.8218,1063.6465 2600.9739,1063.7975 C 2599.8566,1063.6615 2598.4093,1061.3645 2598.1330,1062.9375 C 2598.2849,1061.8095 2593.9953,1061.5385 2596.0696,1061.1375 C 2594.8174,1060.7595 2595.1293,1062.0135 2594.6487,1062.4275 C 2594.8577,1061.5335 2593.0057,1058.9095 2592.0364,1057.9675 C 2592.6976,1058.0495 2592.9722,1057.6985 2592.9023,1057.1775 C 2592.4147,1057.3355 2590.0022,1057.2935 2590.3203,1057.8765 C 2590.6995,1058.5725 2591.4639,1059.2335 2591.9863,1059.9045 C 2592.8691,1061.0365 2595.0600,1063.9855 2592.9123,1063.8665 C 2593.7175,1064.8245 2594.3039,1065.8325 2594.9144,1066.8165 C 2594.9182,1065.7925 2596.8628,1066.0025 2596.3738,1064.7375 C 2597.2910,1066.3095 2594.6557,1065.8695 2595.4766,1067.5515 C 2596.6959,1069.8405 2599.3870,1071.9085 2600.2591,1074.3065 C 2601.9639,1074.5775 2600.4725,1072.8235 2599.7432,1072.0065 C 2600.4377,1072.1585 2601.1677,1072.6015 2601.6852,1073.1565 C 2600.6391,1071.6355 2602.5424,1073.1295 2602.8434,1072.2965 C 2602.3050,1072.5865 2601.8850,1072.9385 2603.4238,1073.2265 C 2603.1691,1073.5035 2602.5906,1073.4375 2602.3029,1073.6755 C 2602.0043,1073.9235 2602.6144,1074.9075 2603.2436,1074.1665 C 2603.0055,1074.8195 2603.5160,1075.7565 2603.2460,1076.3955 C 2602.5895,1075.9535 2602.1225,1075.4505 2601.8453,1074.8855 C 2600.7098,1075.1955 2603.3052,1078.6865 2603.4991,1079.6355 C 2604.3500,1079.7415 2605.0308,1078.5705 2606.1159,1079.6405 C 2606.8737,1080.3875 2605.5613,1081.3295 2604.5357,1080.0655 C 2604.1426,1080.4085 2604.2562,1082.3945 2605.6765,1082.5155 C 2605.0112,1082.7665 2605.2322,1083.6645 2605.4487,1084.3575 C 2605.5842,1084.7685 2605.7251,1085.1815 2605.8730,1085.5955 C 2606.1361,1086.4435 2605.5026,1086.3875 2605.4997,1087.0585 C 2605.5174,1087.6465 2606.2074,1088.7245 2606.1185,1089.2155 C 2605.8367,1089.2225 2605.5498,1089.2225 2605.2576,1089.2155 C 2605.0311,1089.6985 2604.9025,1090.2415 2604.8000,1090.7925 C 2604.4878,1092.4665 2605.1283,1094.7595 2604.0302,1096.0115 C 2602.9688,1097.2165 2600.0617,1096.9715 2598.8238,1098.1365 C 2598.2921,1098.6355 2598.0705,1099.3865 2598.7151,1100.4045 C 2599.4404,1101.5515 2600.9871,1101.6145 2602.0994,1102.2135 C 2603.7673,1103.1115 2604.4456,1103.8775 2606.2714,1104.3465 C 2608.0700,1104.8085 2609.2311,1106.0525 2609.6410,1107.2805 C 2610.5010,1109.7775 2609.1198,1111.4315 2608.0457,1112.9675 C 2607.6050,1113.5945 2607.7149,1114.7285 2606.8186,1115.0445 C 2605.9504,1115.3535 2605.0735,1115.9775 2605.2107,1116.9375 C 2606.1298,1117.2295 2606.4806,1116.8945 2606.3014,1116.2885"
       id="path3570" />
    <path
       d="M 2608.8787,1077.4085 C 2608.4693,1077.5225 2608.1132,1077.6895 2607.8131,1077.9085 C 2608.6460,1078.2615 2609.0509,1078.0305 2608.8787,1077.4085"
       id="path3572" />
    <path
       d="M 2610.5816,1071.4285 C 2609.8548,1071.8995 2610.9525,1074.1885 2611.4170,1073.8445 C 2611.8668,1073.5115 2610.7157,1072.0015 2610.5816,1071.4285"
       id="path3574" />
    <path
       d="M 2671.5044,1139.8285 C 2671.7751,1140.1655 2672.0870,1140.5015 2672.4420,1140.8385 C 2672.9729,1140.5475 2673.4354,1140.1975 2674.3111,1140.1885 C 2672.8536,1139.4595 2671.3053,1137.1675 2673.6916,1138.3195 C 2673.7010,1138.5855 2673.6586,1138.8245 2673.5638,1139.0395 C 2673.7783,1138.4555 2674.1021,1137.9265 2674.6280,1137.5295 C 2673.4638,1137.8405 2669.7443,1136.6705 2670.5641,1138.3885 C 2670.9680,1138.2115 2671.5475,1138.2355 2672.3020,1138.4585 C 2672.7018,1139.2485 2672.2433,1139.6785 2671.5044,1139.8285"
       id="path3576" />
    <path
       d="M 2674.8632,1142.4185 C 2675.2450,1142.2735 2675.4729,1142.2605 2675.0715,1141.6985 C 2674.9833,1141.9285 2674.9142,1142.1685 2674.8632,1142.4185"
       id="path3578" />
  </g>
  
  
  
  
  
  
  
  
  
  
  
  
  
  
  
  
  
  
  
  
  
  
  
  
  
  
  
  
  
  
  
  
  
  
  
  
  
  
  
  
  
  
  
  
  
  
  
  
  
  
  
  
  
  
  
  
  
  
  
  
  
  
  
  
  
  
  
  
  
  
  
  
  
  
  
  
  
  
  
  
  
  
  
  
  
  
  
  
  
  
  
  
  
  
  
  
  
  
  
  
  
  
  
  
  
  
  
  
  
  
  
  
  
  
  
  
  
  
  
  
  
  
  
  
  
  
  
  
  
  
  
  
  
  
  
  
  
  
  
  
  
  
  
  
  
  
  
  
  
  
  
  
  
  
  
  
  
  
  
  
  
  
  
  
  
  
  
  
  
  
  
  
  
  
  
  
  
  
  
  
  
  
  
  
  
  
  
  
  
</svg>
