<?xml version="1.0" encoding="UTF-8" standalone="no"?>
<svg
   xmlns:dc="http://purl.org/dc/elements/1.1/"
   xmlns:cc="http://web.resource.org/cc/"
   xmlns:rdf="http://www.w3.org/1999/02/22-rdf-syntax-ns#"
   xmlns:svg="http://www.w3.org/2000/svg"
   xmlns="http://www.w3.org/2000/svg"
   xmlns:sodipodi="http://sodipodi.sourceforge.net/DTD/sodipodi-0.dtd"
   xmlns:inkscape="http://www.inkscape.org/namespaces/inkscape"
   viewBox="0 0 2752.766 1537.631"
   version="1.0"
   height="476.7276"
   width="939.74725"
   id="svg1926"
   sodipodi:version="0.32"
   inkscape:version="0.45.1"
   sodipodi:docname="BlankMap-World6.svg"
   sodipodi:docbase="/home/bennett/Desktop"
   inkscape:output_extension="org.inkscape.output.svg.inkscape">
  <sodipodi:namedview
     inkscape:window-height="590"
     inkscape:window-width="822"
     inkscape:pageshadow="2"
     inkscape:pageopacity="0.0"
     guidetolerance="10.0"
     gridtolerance="10.0"
     objecttolerance="10.0"
     borderopacity="1.0"
     bordercolor="#666666"
     pagecolor="#ffffff"
     id="base"
     inkscape:zoom="0.77893284"
     inkscape:cx="469.87363"
     inkscape:cy="238.3638"
     inkscape:window-x="178"
     inkscape:window-y="46"
     inkscape:current-layer="svg1926" />
  <metadata
     id="metadata24111">
    <rdf:RDF>
      <cc:Work
         rdf:about="">
        <dc:format>image/svg+xml</dc:format>
        <dc:type
           rdf:resource="http://purl.org/dc/dcmitype/StillImage" />
        <cc:license
           rdf:resource="http://web.resource.org/cc/PublicDomain" />
        <dc:title>Blank World Map</dc:title>
      </cc:Work>
      <cc:License
         rdf:about="http://web.resource.org/cc/PublicDomain">
        <cc:permits
           rdf:resource="http://web.resource.org/cc/Reproduction" />
        <cc:permits
           rdf:resource="http://web.resource.org/cc/Distribution" />
        <cc:permits
           rdf:resource="http://web.resource.org/cc/DerivativeWorks" />
      </cc:License>
    </rdf:RDF>
  </metadata>
  <defs
     id="defs1930" />
  <style
     type="text/css"
     id="style_css_sheet">
/*
 * Below are Cascading Style Sheet (CSS) definitions in use in this file,
 * which allow easily changing how countries are displayed.
 *
 */

/*
 * Circles around small countries
 *
 * Change opacity to 1 to display all circles.
 *
 */
.circle
{
   opacity:0;
   fill:#b9b9b9;
   fill-opacity:1;
   stroke:black;
   stroke-width:0.99986893;
   stroke-miterlimit:3.97446823;
   stroke-dasharray:none;
   stroke-opacity:1;
}

/*
 * Land
 */
.land
{
   fill: #b9b9b9;
   fill-opacity: 1;
   stroke: #ffffff;
   stroke-opacity: 1;
   stroke-width: 0.99986997;
   stroke-miterlimit: 3.97446823;
   stroke-dasharray: none;
}

/*
 * Additional style rules
 *
 * The following are examples of colouring countries.  You can substitute these with your own styles to colour the countries on the map.
 *
 * Color a few countries:
 *
 * .gb, .au, .nc
 * {
 *    fill:       #ff0000;
 * }
 *
 * Color a few small country circles (and the countries):
 *
 * .ms, .ky
 * {
 *    opacity:    1;
 *    fill:       #ff0000;
 * }
 *
 */

/*
 * Antarctica
 */

.aq
{
   fill:#e6e6e6;
}

/*
 * Sea
 */

.ocean
{
   opacity: 1;
   color: #000000;
   fill:white;
   fill-opacity:1;
   fill-rule:nonzero;
   stroke:#000000;
   stroke-width:0.5;
   stroke-linecap:butt;
   stroke-linejoin:miter;
   marker:none;
   marker-start:none;
   marker-mid:none;
   marker-end:none;
   stroke-miterlimit:1;
   stroke-dasharray:none;
   stroke-dashoffset:0;
   stroke-opacity:1;
   visibility:visible;
   display:inline;
   overflow:visible;
}

.lake
{
   fill:#ffffff;
   fill-opacity:1;
   stroke:#ffffff;
   stroke-opacity:1;
   stroke-width:0.99986997;
   stroke-miterlimit:3.97446823;
   stroke-dasharray:none;
}
</style>
  
  
  
  
  
  
  
  
  
  
  
  
  
  
  
  
  
  
  
  
  
  
  
  
  
  
  
  
  
  
  
  
  
  
  
  
  
  
  
  
  
  
  
  
  
  
  
  
  
  
  
  
  
  
  
  
  
  
  
  
  
  
  
  
  
  
  
  
  
  
  
  
  
  
  
  <g
     class="land om"
     id="om">
    <path
       d="M 1718.7739,585.0705 C 1719.5048,584.4755 1719.8047,583.6815 1720.1970,582.8805 C 1720.4028,582.6395 1720.6373,582.4345 1720.9048,582.2625 C 1721.2088,581.9415 1720.5788,580.9405 1720.5272,580.6055 C 1720.0239,582.1675 1718.2682,583.3285 1718.7739,585.0705"
       id="path4692" />
    <path
       d="M 1699.0404,534.0215 C 1699.3019,533.4425 1699.6188,532.8915 1699.9913,532.3665 C 1700.6285,533.1265 1701.3891,532.0925 1701.1117,531.4295 C 1701.6872,531.7455 1702.7290,533.7325 1701.2477,533.3735 C 1702.1642,534.0285 1701.1178,538.0425 1700.0619,537.8575 C 1698.6274,537.6075 1700.8911,534.1135 1699.0404,534.0215"
       id="path4696" />
    <path
       d="M 1668.1455,595.1495 C 1674.2785,592.8065 1680.4512,590.5635 1686.6137,588.2735 C 1688.9248,587.4155 1691.2400,587.3805 1691.7254,584.7725 C 1692.3444,581.4385 1693.6171,578.0715 1694.5652,574.7885 C 1695.2185,572.5445 1696.7666,569.7535 1695.6119,567.6295 C 1694.7794,566.1015 1692.9525,564.7955 1692.4816,563.1075 C 1691.8887,560.9855 1696.5524,553.6825 1694.6197,552.5265 C 1695.6117,551.4725 1697.3199,552.3845 1698.1897,551.3755 C 1699.1472,550.2685 1697.7249,550.6375 1697.4871,550.0795 C 1696.8553,548.5935 1696.5222,545.3305 1697.6657,543.8235 C 1698.1992,543.1195 1699.0761,544.2015 1698.8796,544.7585 C 1698.2631,546.4955 1700.2225,544.6125 1700.5303,544.3485 C 1701.4808,543.5305 1701.4609,543.6685 1701.9126,544.8225 C 1702.6632,546.7405 1703.7030,548.5535 1705.0220,550.1255 C 1707.1086,552.6105 1710.2475,553.5035 1713.4629,554.1435 C 1714.9674,554.4425 1716.2187,555.0295 1717.7609,555.1995 C 1719.8231,555.4275 1720.7574,557.8995 1721.8339,559.2795 C 1722.7024,560.3925 1723.2432,561.7365 1724.1117,562.8015 C 1725.0150,563.9105 1725.5370,563.9565 1726.8087,564.4695 C 1729.7892,565.6735 1725.9462,569.9495 1725.1856,571.7165 C 1723.7495,575.0545 1719.9605,576.7965 1718.6865,580.3725 C 1718.3857,581.2165 1717.8742,583.6575 1716.5431,583.2555 C 1715.4893,582.9385 1715.8593,580.9185 1714.4128,581.7595 C 1712.6901,582.7375 1712.5035,586.2525 1711.9665,587.6975 C 1711.2638,589.5865 1711.7755,591.0505 1712.1392,592.8805 C 1712.4352,594.3765 1712.6063,595.5075 1710.7557,595.5625 C 1707.7820,595.6495 1704.4521,596.5105 1703.5065,599.6585 C 1703.1467,600.8955 1702.8375,602.2555 1701.9871,603.3005 C 1700.9291,604.6015 1698.9785,604.5305 1697.4207,604.6455 C 1695.5339,604.7835 1694.7638,605.0845 1693.5768,606.5435 C 1692.4275,607.9555 1693.1054,608.2245 1692.9230,609.8375 C 1692.7779,611.1205 1691.3958,612.0515 1690.3204,612.5545 C 1689.8020,612.7955 1689.2760,613.1195 1688.7833,612.7185 C 1687.9323,612.0255 1687.1870,612.2145 1686.0817,612.2145 C 1682.8812,612.2145 1680.2823,615.1445 1677.0620,615.0545 C 1674.9762,614.9955 1675.8193,610.0805 1673.5877,609.8385 C 1674.5930,608.8585 1672.4568,605.4125 1672.0310,604.5495 C 1670.5400,601.5375 1669.0092,598.4055 1668.1455,595.1495"
       id="path4786" />
  </g>
  
  
  
  
  
  
  
  
  
  
  
  
  
  
  
  
  
  
  
  
  
  
  
  
  
  
  
  
  
  
  
  
  
  
  
  
  
  
  
  
  
  
  
  
  
  
  
  
  
  
  
  
  
  
  
  
  
  
  
  
  
  
  
  
  
  
  
  
  
  
  
  
  
  
  
  
  
  
  
  
  
  
  
  
  
  
  
  
  
  
  
  
  
  
  
  
  
  
  
  
  
  
  
  
  
  
  
  
  
  
  
  
  
  
  
  
  
  
  
  
  
  
  
  
  
  
  
  
  
  
  
  
  
  
  
  
  
  
  
  
  
  
  
  
  
  
  
  
  
  
  
  
  
  
  
  
</svg>
