<?xml version="1.0" encoding="UTF-8" standalone="no"?>
<svg
   xmlns:dc="http://purl.org/dc/elements/1.1/"
   xmlns:cc="http://web.resource.org/cc/"
   xmlns:rdf="http://www.w3.org/1999/02/22-rdf-syntax-ns#"
   xmlns:svg="http://www.w3.org/2000/svg"
   xmlns="http://www.w3.org/2000/svg"
   xmlns:sodipodi="http://sodipodi.sourceforge.net/DTD/sodipodi-0.dtd"
   xmlns:inkscape="http://www.inkscape.org/namespaces/inkscape"
   viewBox="0 0 2752.766 1537.631"
   version="1.0"
   height="476.7276"
   width="939.74725"
   id="svg1926"
   sodipodi:version="0.32"
   inkscape:version="0.45.1"
   sodipodi:docname="BlankMap-World6.svg"
   sodipodi:docbase="/home/bennett/Desktop"
   inkscape:output_extension="org.inkscape.output.svg.inkscape">
  <sodipodi:namedview
     inkscape:window-height="590"
     inkscape:window-width="822"
     inkscape:pageshadow="2"
     inkscape:pageopacity="0.0"
     guidetolerance="10.0"
     gridtolerance="10.0"
     objecttolerance="10.0"
     borderopacity="1.0"
     bordercolor="#666666"
     pagecolor="#ffffff"
     id="base"
     inkscape:zoom="0.77893284"
     inkscape:cx="469.87363"
     inkscape:cy="238.3638"
     inkscape:window-x="178"
     inkscape:window-y="46"
     inkscape:current-layer="svg1926" />
  <metadata
     id="metadata24111">
    <rdf:RDF>
      <cc:Work
         rdf:about="">
        <dc:format>image/svg+xml</dc:format>
        <dc:type
           rdf:resource="http://purl.org/dc/dcmitype/StillImage" />
        <cc:license
           rdf:resource="http://web.resource.org/cc/PublicDomain" />
        <dc:title>Blank World Map</dc:title>
      </cc:Work>
      <cc:License
         rdf:about="http://web.resource.org/cc/PublicDomain">
        <cc:permits
           rdf:resource="http://web.resource.org/cc/Reproduction" />
        <cc:permits
           rdf:resource="http://web.resource.org/cc/Distribution" />
        <cc:permits
           rdf:resource="http://web.resource.org/cc/DerivativeWorks" />
      </cc:License>
    </rdf:RDF>
  </metadata>
  <defs
     id="defs1930" />
  <style
     type="text/css"
     id="style_css_sheet">
/*
 * Below are Cascading Style Sheet (CSS) definitions in use in this file,
 * which allow easily changing how countries are displayed.
 *
 */

/*
 * Circles around small countries
 *
 * Change opacity to 1 to display all circles.
 *
 */
.circle
{
   opacity:0;
   fill:#b9b9b9;
   fill-opacity:1;
   stroke:black;
   stroke-width:0.99986893;
   stroke-miterlimit:3.97446823;
   stroke-dasharray:none;
   stroke-opacity:1;
}

/*
 * Land
 */
.land
{
   fill: #b9b9b9;
   fill-opacity: 1;
   stroke: #ffffff;
   stroke-opacity: 1;
   stroke-width: 0.99986997;
   stroke-miterlimit: 3.97446823;
   stroke-dasharray: none;
}

/*
 * Additional style rules
 *
 * The following are examples of colouring countries.  You can substitute these with your own styles to colour the countries on the map.
 *
 * Color a few countries:
 *
 * .gb, .au, .nc
 * {
 *    fill:       #ff0000;
 * }
 *
 * Color a few small country circles (and the countries):
 *
 * .ms, .ky
 * {
 *    opacity:    1;
 *    fill:       #ff0000;
 * }
 *
 */

/*
 * Antarctica
 */

.aq
{
   fill:#e6e6e6;
}

/*
 * Sea
 */

.ocean
{
   opacity: 1;
   color: #000000;
   fill:white;
   fill-opacity:1;
   fill-rule:nonzero;
   stroke:#000000;
   stroke-width:0.5;
   stroke-linecap:butt;
   stroke-linejoin:miter;
   marker:none;
   marker-start:none;
   marker-mid:none;
   marker-end:none;
   stroke-miterlimit:1;
   stroke-dasharray:none;
   stroke-dashoffset:0;
   stroke-opacity:1;
   visibility:visible;
   display:inline;
   overflow:visible;
}

.lake
{
   fill:#ffffff;
   fill-opacity:1;
   stroke:#ffffff;
   stroke-opacity:1;
   stroke-width:0.99986997;
   stroke-miterlimit:3.97446823;
   stroke-dasharray:none;
}
</style>
  
  
  
  
  
  
  
  
  
  
  
  
  
  
  
  
  
  
  
  
  
  
  
  
  
  
  
  
  
  
  
  
  
  
  
  
  
  
  
  
  
  
  
  
  
  
  
  
  
  
  
  
  
  
  
  
  
  
  
  
  
  
  
  
  
  
  
  
  
  
  
  
  
  
  
  
  <g
     class="land pa"
     id="pa">
    <path
       d="M 636.3035,687.9575 C 635.5769,687.2905 637.2957,686.4615 637.3898,685.8325 C 637.5690,684.6525 636.2815,683.3635 637.8884,682.6565 C 639.1988,682.0795 636.6923,681.2515 636.6677,680.7575 C 636.6168,679.7345 637.3479,677.2705 637.0804,676.8695 C 637.9765,676.1875 638.9874,678.1615 639.5322,676.7975 C 640.0724,677.2395 640.8526,677.7945 641.1064,678.4535 C 641.1292,678.9345 641.1288,679.4145 641.1052,679.8925 C 641.2112,680.2695 641.8584,679.8565 641.8303,680.4055 C 641.7107,682.7595 643.9925,681.9105 645.4832,682.1975 C 645.1756,681.6975 644.8388,681.2185 644.4718,680.7575 C 645.7030,680.3775 647.0702,683.4065 648.5263,683.6055 C 651.5918,684.0235 653.1862,681.6615 655.7097,680.7055 C 657.4399,680.0505 659.4728,679.5285 660.7435,678.1845 C 661.4192,677.4495 661.7463,676.5085 662.9214,676.4985 C 664.2370,676.4875 665.5653,677.0695 666.8736,676.9415 C 666.6626,677.2395 666.4729,677.5515 666.3046,677.8785 C 668.8512,677.5925 672.3948,678.1905 674.3740,680.1555 C 675.3155,681.0905 677.5124,684.9955 679.1232,684.5025 C 677.9971,686.3645 679.3701,687.2715 680.0942,689.1965 C 680.8742,691.2685 678.8479,693.2825 677.3462,694.3665 C 677.1537,693.8335 676.8663,693.3525 676.4842,692.9265 C 675.9796,693.4375 676.3357,693.8215 676.2754,694.4155 C 676.1953,695.2075 675.3136,696.1835 675.0887,697.0295 C 673.0649,695.6215 671.1992,692.1405 670.9900,689.7585 C 672.6611,690.3675 672.0011,688.3975 672.6663,687.6535 C 673.4039,686.8265 675.5472,688.8735 676.2394,689.2545 C 675.7620,688.7045 675.1140,688.3885 674.5467,687.9525 C 673.7398,687.3325 673.8325,686.2985 673.3177,685.5105 C 673.5480,686.1175 673.2411,686.6515 672.7354,686.9505 C 672.9910,685.5005 671.8321,687.0095 671.2290,685.6535 C 671.4253,686.2385 671.4285,686.8145 671.2387,687.3825 C 670.3301,685.8495 670.2065,684.2995 668.8063,683.5145 C 668.1742,683.1605 667.5712,682.7435 666.9979,682.2985 C 665.9774,681.5055 666.4681,681.5445 665.3380,681.6105 C 663.7793,681.7005 661.1402,682.0335 660.7886,684.0115 C 660.5210,685.5205 658.4681,688.1065 656.5913,687.8055 C 653.6324,687.3315 657.0015,691.6605 657.6953,692.3805 C 658.2275,692.9325 659.3613,694.0645 658.7851,694.8845 C 658.2765,695.6095 656.9968,695.1305 656.3509,695.7295 C 655.5064,696.5125 653.5310,697.7305 652.2461,697.0415 C 651.9413,696.8785 651.9504,694.8845 651.7333,694.4015 C 651.3070,693.4525 651.5220,691.9995 650.9082,691.1995 C 650.5401,691.6525 650.1320,691.6765 649.6838,691.2705 C 651.0402,693.6585 648.3574,694.2555 647.1316,692.2465 C 646.0909,690.5425 646.0626,689.2915 643.9994,688.5705 C 643.3256,688.3355 642.6741,688.9175 642.1872,688.1995 C 641.5791,687.3055 640.8636,688.0135 640.3873,687.3105 C 639.7241,688.3245 638.6216,687.2565 637.7356,687.7425 C 636.7511,688.2815 637.5301,689.4605 636.8425,690.1195 C 636.9544,689.3625 636.7391,688.6065 636.3035,687.9575"
       id="path2682" />
    <path
       d="M 640.6497,688.1735 C 640.6768,688.6995 640.8442,688.6765 641.1519,688.1015 C 640.9509,687.9745 640.7836,687.9985 640.6497,688.1735"
       id="path4792" />
    <path
       d="M 645.6761,693.4295 C 645.2445,693.8915 644.4793,694.2385 644.7605,695.0425 C 644.9928,695.7065 645.6823,696.1265 646.2912,695.6615 C 645.7860,694.9925 645.8974,694.1765 645.6761,693.4295"
       id="path4794" />
    <path
       d="M 649.4285,694.8695 C 649.9760,694.7045 650.4433,694.4165 650.8305,694.0055 C 650.2839,694.1705 649.8166,694.4585 649.4285,694.8695"
       id="path4796" />
    <path
       d="M 667.6546,686.3735 C 666.9377,686.4905 666.8966,687.3335 667.0764,687.8855 C 668.0959,688.0345 667.8650,686.9775 667.6546,686.3735"
       id="path4802" />
  </g>
  
  
  
  
  
  
  
  
  
  
  
  
  
  
  
  
  
  
  
  
  
  
  
  
  
  
  
  
  
  
  
  
  
  
  
  
  
  
  
  
  
  
  
  
  
  
  
  
  
  
  
  
  
  
  
  
  
  
  
  
  
  
  
  
  
  
  
  
  
  
  
  
  
  
  
  
  
  
  
  
  
  
  
  
  
  
  
  
  
  
  
  
  
  
  
  
  
  
  
  
  
  
  
  
  
  
  
  
  
  
  
  
  
  
  
  
  
  
  
  
  
  
  
  
  
  
  
  
  
  
  
  
  
  
  
  
  
  
  
  
  
  
  
  
  
  
  
  
  
  
  
  
  
  
  
</svg>
