<?xml version="1.0" encoding="UTF-8" standalone="no"?>
<svg
   xmlns:dc="http://purl.org/dc/elements/1.1/"
   xmlns:cc="http://web.resource.org/cc/"
   xmlns:rdf="http://www.w3.org/1999/02/22-rdf-syntax-ns#"
   xmlns:svg="http://www.w3.org/2000/svg"
   xmlns="http://www.w3.org/2000/svg"
   xmlns:sodipodi="http://sodipodi.sourceforge.net/DTD/sodipodi-0.dtd"
   xmlns:inkscape="http://www.inkscape.org/namespaces/inkscape"
   viewBox="0 0 2752.766 1537.631"
   version="1.0"
   height="476.7276"
   width="939.74725"
   id="svg1926"
   sodipodi:version="0.32"
   inkscape:version="0.45.1"
   sodipodi:docname="BlankMap-World6.svg"
   sodipodi:docbase="/home/bennett/Desktop"
   inkscape:output_extension="org.inkscape.output.svg.inkscape">
  <sodipodi:namedview
     inkscape:window-height="590"
     inkscape:window-width="822"
     inkscape:pageshadow="2"
     inkscape:pageopacity="0.0"
     guidetolerance="10.0"
     gridtolerance="10.0"
     objecttolerance="10.0"
     borderopacity="1.0"
     bordercolor="#666666"
     pagecolor="#ffffff"
     id="base"
     inkscape:zoom="0.77893284"
     inkscape:cx="469.87363"
     inkscape:cy="238.3638"
     inkscape:window-x="178"
     inkscape:window-y="46"
     inkscape:current-layer="svg1926" />
  <metadata
     id="metadata24111">
    <rdf:RDF>
      <cc:Work
         rdf:about="">
        <dc:format>image/svg+xml</dc:format>
        <dc:type
           rdf:resource="http://purl.org/dc/dcmitype/StillImage" />
        <cc:license
           rdf:resource="http://web.resource.org/cc/PublicDomain" />
        <dc:title>Blank World Map</dc:title>
      </cc:Work>
      <cc:License
         rdf:about="http://web.resource.org/cc/PublicDomain">
        <cc:permits
           rdf:resource="http://web.resource.org/cc/Reproduction" />
        <cc:permits
           rdf:resource="http://web.resource.org/cc/Distribution" />
        <cc:permits
           rdf:resource="http://web.resource.org/cc/DerivativeWorks" />
      </cc:License>
    </rdf:RDF>
  </metadata>
  <defs
     id="defs1930" />
  <style
     type="text/css"
     id="style_css_sheet">
/*
 * Below are Cascading Style Sheet (CSS) definitions in use in this file,
 * which allow easily changing how countries are displayed.
 *
 */

/*
 * Circles around small countries
 *
 * Change opacity to 1 to display all circles.
 *
 */
.circle
{
   opacity:0;
   fill:#b9b9b9;
   fill-opacity:1;
   stroke:black;
   stroke-width:0.99986893;
   stroke-miterlimit:3.97446823;
   stroke-dasharray:none;
   stroke-opacity:1;
}

/*
 * Land
 */
.land
{
   fill: #b9b9b9;
   fill-opacity: 1;
   stroke: #ffffff;
   stroke-opacity: 1;
   stroke-width: 0.99986997;
   stroke-miterlimit: 3.97446823;
   stroke-dasharray: none;
}

/*
 * Additional style rules
 *
 * The following are examples of colouring countries.  You can substitute these with your own styles to colour the countries on the map.
 *
 * Color a few countries:
 *
 * .gb, .au, .nc
 * {
 *    fill:       #ff0000;
 * }
 *
 * Color a few small country circles (and the countries):
 *
 * .ms, .ky
 * {
 *    opacity:    1;
 *    fill:       #ff0000;
 * }
 *
 */

/*
 * Antarctica
 */

.aq
{
   fill:#e6e6e6;
}

/*
 * Sea
 */

.ocean
{
   opacity: 1;
   color: #000000;
   fill:white;
   fill-opacity:1;
   fill-rule:nonzero;
   stroke:#000000;
   stroke-width:0.5;
   stroke-linecap:butt;
   stroke-linejoin:miter;
   marker:none;
   marker-start:none;
   marker-mid:none;
   marker-end:none;
   stroke-miterlimit:1;
   stroke-dasharray:none;
   stroke-dashoffset:0;
   stroke-opacity:1;
   visibility:visible;
   display:inline;
   overflow:visible;
}

.lake
{
   fill:#ffffff;
   fill-opacity:1;
   stroke:#ffffff;
   stroke-opacity:1;
   stroke-width:0.99986997;
   stroke-miterlimit:3.97446823;
   stroke-dasharray:none;
}
</style>
  
  <path
     class="land pe"
     d="M 648.6568,798.4085 C 649.7424,796.3496 650.3516,794.9406 651.9945,793.1866 C 652.7283,792.4035 653.3084,791.4646 654.1824,790.8206 C 654.8156,790.3536 656.1752,789.7275 656.2689,788.8275 C 657.2520,789.1115 658.1313,793.1756 657.2450,793.6835 C 656.5998,794.0535 655.8948,793.7206 655.4142,794.3655 C 654.8657,795.1005 654.9399,796.1025 655.9582,796.2476 C 655.0648,797.3736 655.3714,799.0856 656.7668,797.6486 C 657.9912,796.3876 658.4138,796.9855 659.4871,797.9275 C 660.4068,798.7355 661.5495,797.5105 662.2500,798.7265 C 662.9692,799.9765 662.9082,802.0466 664.6843,802.3836 C 666.1842,802.6685 666.3388,802.8536 666.9148,801.2065 C 667.3747,799.8926 668.8395,799.5646 668.9609,798.2225 C 669.1248,796.4066 669.4767,794.7626 670.2927,793.0775 C 670.7117,792.2115 671.2559,791.5865 671.3107,790.5906 C 671.3456,789.9585 672.1519,788.2096 672.4408,789.9076 C 672.6979,789.5176 672.7618,789.1075 672.6322,788.6785 C 672.5967,788.1255 673.4299,787.5276 673.7411,787.1366 C 674.5513,786.1155 675.5439,785.3586 676.7253,784.8275 C 679.2958,783.6716 682.2668,783.2465 684.6343,781.6486 C 689.6128,778.2866 693.1525,773.2536 694.1922,767.5176 C 694.5872,767.9345 695.0666,768.1005 695.6324,768.0176 C 694.9156,766.3575 695.6582,764.8886 694.6639,763.4715 C 694.2726,762.9135 692.3296,761.2165 692.4480,760.5276 C 693.2653,760.6666 694.2190,760.9456 694.9920,760.4865 C 695.7580,760.0326 695.5146,759.8845 696.3804,760.2056 C 697.8738,760.7586 698.9792,761.3505 700.0121,762.5915 C 701.3548,764.2065 702.1132,764.8025 702.7589,766.8676 C 703.0289,767.7286 702.6975,768.4325 703.8848,768.5355 C 705.0360,768.6355 704.7361,769.0956 705.5337,769.8066 C 707.0808,771.1875 708.2162,770.4525 708.7595,772.8095 C 709.1376,774.6355 709.0426,775.0746 710.9673,775.6576 C 713.0414,776.2855 710.9656,778.7336 711.9900,779.9535 C 712.5458,780.6146 713.4435,780.8396 714.2932,780.8045 C 714.8252,780.7336 715.3592,780.6866 715.8943,780.6626 C 716.6026,780.6645 717.4140,781.0806 718.0432,781.0585 C 719.4889,781.0045 721.2381,779.9646 721.9121,778.7056 C 722.6237,777.3765 724.3541,779.9176 725.1421,779.9786 C 726.3301,780.0706 728.2345,778.3475 729.0595,778.9686 C 729.7181,779.4646 730.2872,780.2165 730.9228,780.6635 C 731.5330,781.0936 733.0100,780.9765 733.3800,781.3855 C 734.8927,783.0556 734.8944,783.6576 733.5911,785.6055 C 732.5473,787.1656 730.5320,789.8346 730.1908,791.6495 C 729.7822,793.8206 732.3497,792.1205 733.2592,792.9406 C 733.9935,793.6015 734.5523,794.4886 735.0578,795.3306 C 735.6388,796.2956 735.1639,797.8425 734.3336,796.3886 C 734.1314,796.6286 733.9292,796.8686 733.7260,797.1086 C 732.6592,795.5846 730.2059,794.5925 728.7222,796.3795 C 727.0303,798.4176 723.5334,797.8795 721.1886,798.4936 C 719.9605,798.8156 719.3212,800.1635 718.1019,800.5385 C 716.8207,800.9335 717.2130,801.4406 716.3405,802.1985 C 714.2491,804.0176 712.8686,803.4955 712.7185,806.6136 C 712.6658,807.6946 712.6970,808.6005 712.0264,809.5416 C 711.3875,810.4366 710.6312,811.3335 710.8275,812.4805 C 711.0311,813.6706 711.9944,815.3626 710.6256,816.2805 C 709.4738,817.0516 708.3977,817.4456 707.4366,818.5205 C 706.7353,819.3045 706.3517,820.1956 706.5261,821.2286 C 706.6220,821.7286 706.7778,822.2096 706.9893,822.6685 C 706.4175,822.9116 705.8207,823.2165 705.3775,823.6695 C 703.6677,825.4176 708.4053,826.9345 706.3765,828.1376 C 707.3528,828.7926 707.9942,829.9886 708.1536,831.1526 C 708.2468,831.8335 708.7066,832.0706 709.1822,832.4675 C 709.7778,832.9636 709.6850,833.7196 710.0652,834.3375 C 710.7335,835.4206 712.0936,835.9306 712.5405,837.1845 C 713.0738,838.6795 711.8784,839.5925 711.0049,840.6676 C 712.7472,841.5975 715.4084,840.7616 717.1280,841.9345 C 718.2446,842.6956 719.2182,844.6735 718.7153,846.0675 C 721.1000,846.3676 724.1416,846.8845 726.3491,845.4316 C 727.7360,844.5145 729.6379,841.1996 731.4507,841.1775 C 731.2004,842.0445 730.5215,842.0886 731.0143,842.9846 C 731.5367,843.9356 730.5505,844.8845 730.5627,845.9706 C 730.5164,848.7945 730.3850,851.6906 730.5071,854.4976 C 731.5035,853.6845 732.0031,855.3465 732.9821,855.2526 C 734.3321,855.1226 735.3554,854.0525 736.7296,854.0856 C 737.9924,854.1155 738.7376,854.0506 739.2868,855.2376 C 740.1215,857.0385 740.9835,858.8166 741.8451,860.6055 C 742.7133,862.4066 743.5578,864.2215 744.4773,865.9955 C 745.1519,867.2945 745.7043,868.6255 744.1880,869.8396 C 742.8701,870.8945 743.0925,872.2736 743.1166,873.7405 C 743.1421,875.3346 742.4278,877.7125 742.8745,879.1566 C 743.1456,880.0316 743.9232,880.8565 743.8892,881.8285 C 743.8866,881.8886 742.8649,884.1946 742.7925,884.2555 C 741.8466,885.0476 741.0765,886.3406 740.5795,887.4456 C 739.6706,889.4646 741.8021,889.7785 741.6853,891.3475 C 741.6017,892.4615 740.5011,893.3845 740.2068,894.4646 C 739.9236,895.4145 740.4587,896.5975 740.7109,897.4575 C 740.9458,898.2576 741.3073,899.7835 742.3012,899.9656 C 742.7808,900.0535 745.3417,900.2505 743.6572,901.2465 C 742.5273,901.9145 743.2999,903.5276 742.5924,903.8926 C 741.2536,904.5846 740.8089,906.4485 739.7335,907.3955 C 739.2650,907.8085 738.6654,908.0326 738.2661,908.5295 C 737.5099,909.4706 738.5389,909.1735 738.9383,909.7945 C 739.9792,911.4166 737.4347,911.7826 736.8339,912.7876 C 736.1577,913.9166 737.2394,915.2595 736.3213,916.5556 C 735.5304,917.6716 734.0881,918.0666 732.8543,918.0666 C 731.4693,918.0666 730.5228,917.0476 729.6863,916.1756 C 728.6999,915.1486 727.5449,914.6676 726.4464,913.8315 C 724.4979,912.3486 724.9775,909.6505 722.5556,908.6205 C 719.6903,907.4005 718.0102,904.4986 714.9184,903.7246 C 713.4715,903.3626 712.0639,902.3456 710.8658,901.5495 C 709.4321,900.5975 707.7951,900.2785 706.3194,899.4375 C 704.8757,898.6126 703.7196,897.3525 702.2787,896.4805 C 700.6585,895.5005 699.0337,894.5395 697.3552,893.5865 C 695.9376,892.7816 695.1975,890.9356 694.1291,889.7465 C 692.7138,888.1706 690.6028,887.3425 689.6862,885.3866 C 689.1697,884.2826 688.5055,882.9565 687.4919,882.2916 C 686.6056,881.7096 688.0364,879.4855 686.3740,879.7655 C 686.4171,879.4846 686.5114,879.2175 686.6599,878.9656 C 686.8918,879.1096 687.1215,879.2565 687.3490,879.4055 C 688.2656,876.2075 687.0116,874.5495 685.6182,871.9295 C 684.3528,869.5495 683.5698,867.0326 681.6786,865.0975 C 681.1118,864.5166 680.5085,864.2106 680.7444,863.4156 C 681.0157,862.5005 680.5637,861.4736 680.1889,860.7115 C 679.8211,859.9625 679.3674,859.1595 678.7466,858.5946 C 678.1754,858.0735 677.1451,857.8265 676.8187,857.0685 C 676.8045,856.6716 676.8746,856.2776 677.0277,855.8886 C 676.9801,855.0255 676.5148,854.0376 676.1852,853.2736 C 675.5541,851.8085 674.6325,850.5105 673.9153,849.0946 C 673.2396,847.7605 672.9167,846.1626 672.4266,844.7255 C 671.2835,841.3696 669.3041,838.7855 668.5163,835.5406 C 667.4405,831.1115 663.7984,828.4156 662.3009,824.0406 C 660.5645,819.0366 656.6648,815.4706 651.8435,813.4066 C 651.4191,813.2246 649.8166,812.8365 649.7868,812.2396 C 649.7458,811.4076 649.6292,810.0195 650.8206,810.1676 C 652.9402,810.4316 652.2162,808.4216 651.5710,807.3745 C 650.6605,805.8976 649.7187,805.2805 649.7454,803.4435 C 649.9528,803.2075 650.1553,802.9675 650.3529,802.7236 C 650.3287,802.4435 649.5110,801.6695 649.3308,801.4556 C 648.3827,800.3356 649.0196,799.6756 648.6568,798.4085"
     id="pe" />
  
  
  
  
  
  
  
  
  
  
  
  
  
  
  
  
  
  
  
  
  
  
  
  
  
  
  
  
  
  
  
  
  
  
  
  
  
  
  
  
  
  
  
  
  
  
  
  
  
  
  
  
  
  
  
  
  
  
  
  
  
  
  
  
  
  
  
  
  
  
  
  
  
  
  
  
  
  
  
  
  
  
  
  
  
  
  
  
  
  
  
  
  
  
  
  
  
  
  
  
  
  
  
  
  
  
  
  
  
  
  
  
  
  
  
  
  
  
  
  
  
  
  
  
  
  
  
  
  
  
  
  
  
  
  
  
  
  
  
  
  
  
  
  
  
  
  
  
  
  
  
  
  
  
  
  
  
  
  
  
  
  
  
  
  
  
  
  
  
  
  
  
  
  
  
  
  
  
  
  
  
  
  
  
  
  
  
  
  
  
  
  
  
  
  
  
  
  
  
  
  
  
  
  
  
  
  
  
  
  
  
  
  
  
  
  
  
  
  
  
  
  
  
  
  
  
  
  
  
  
</svg>
