<?xml version="1.0" encoding="UTF-8" standalone="no"?>
<svg
   xmlns:dc="http://purl.org/dc/elements/1.1/"
   xmlns:cc="http://web.resource.org/cc/"
   xmlns:rdf="http://www.w3.org/1999/02/22-rdf-syntax-ns#"
   xmlns:svg="http://www.w3.org/2000/svg"
   xmlns="http://www.w3.org/2000/svg"
   xmlns:sodipodi="http://sodipodi.sourceforge.net/DTD/sodipodi-0.dtd"
   xmlns:inkscape="http://www.inkscape.org/namespaces/inkscape"
   viewBox="0 0 2752.766 1537.631"
   version="1.0"
   height="476.7276"
   width="939.74725"
   id="svg1926"
   sodipodi:version="0.32"
   inkscape:version="0.45.1"
   sodipodi:docname="BlankMap-World6.svg"
   sodipodi:docbase="/home/bennett/Desktop"
   inkscape:output_extension="org.inkscape.output.svg.inkscape">
  <sodipodi:namedview
     inkscape:window-height="590"
     inkscape:window-width="822"
     inkscape:pageshadow="2"
     inkscape:pageopacity="0.0"
     guidetolerance="10.0"
     gridtolerance="10.0"
     objecttolerance="10.0"
     borderopacity="1.0"
     bordercolor="#666666"
     pagecolor="#ffffff"
     id="base"
     inkscape:zoom="0.77893284"
     inkscape:cx="469.87363"
     inkscape:cy="238.3638"
     inkscape:window-x="178"
     inkscape:window-y="46"
     inkscape:current-layer="svg1926" />
  <metadata
     id="metadata24111">
    <rdf:RDF>
      <cc:Work
         rdf:about="">
        <dc:format>image/svg+xml</dc:format>
        <dc:type
           rdf:resource="http://purl.org/dc/dcmitype/StillImage" />
        <cc:license
           rdf:resource="http://web.resource.org/cc/PublicDomain" />
        <dc:title>Blank World Map</dc:title>
      </cc:Work>
      <cc:License
         rdf:about="http://web.resource.org/cc/PublicDomain">
        <cc:permits
           rdf:resource="http://web.resource.org/cc/Reproduction" />
        <cc:permits
           rdf:resource="http://web.resource.org/cc/Distribution" />
        <cc:permits
           rdf:resource="http://web.resource.org/cc/DerivativeWorks" />
      </cc:License>
    </rdf:RDF>
  </metadata>
  <defs
     id="defs1930" />
  <style
     type="text/css"
     id="style_css_sheet">
/*
 * Below are Cascading Style Sheet (CSS) definitions in use in this file,
 * which allow easily changing how countries are displayed.
 *
 */

/*
 * Circles around small countries
 *
 * Change opacity to 1 to display all circles.
 *
 */
.circle
{
   opacity:0;
   fill:#b9b9b9;
   fill-opacity:1;
   stroke:black;
   stroke-width:0.99986893;
   stroke-miterlimit:3.97446823;
   stroke-dasharray:none;
   stroke-opacity:1;
}

/*
 * Land
 */
.land
{
   fill: #b9b9b9;
   fill-opacity: 1;
   stroke: #ffffff;
   stroke-opacity: 1;
   stroke-width: 0.99986997;
   stroke-miterlimit: 3.97446823;
   stroke-dasharray: none;
}

/*
 * Additional style rules
 *
 * The following are examples of colouring countries.  You can substitute these with your own styles to colour the countries on the map.
 *
 * Color a few countries:
 *
 * .gb, .au, .nc
 * {
 *    fill:       #ff0000;
 * }
 *
 * Color a few small country circles (and the countries):
 *
 * .ms, .ky
 * {
 *    opacity:    1;
 *    fill:       #ff0000;
 * }
 *
 */

/*
 * Antarctica
 */

.aq
{
   fill:#e6e6e6;
}

/*
 * Sea
 */

.ocean
{
   opacity: 1;
   color: #000000;
   fill:white;
   fill-opacity:1;
   fill-rule:nonzero;
   stroke:#000000;
   stroke-width:0.5;
   stroke-linecap:butt;
   stroke-linejoin:miter;
   marker:none;
   marker-start:none;
   marker-mid:none;
   marker-end:none;
   stroke-miterlimit:1;
   stroke-dasharray:none;
   stroke-dashoffset:0;
   stroke-opacity:1;
   visibility:visible;
   display:inline;
   overflow:visible;
}

.lake
{
   fill:#ffffff;
   fill-opacity:1;
   stroke:#ffffff;
   stroke-opacity:1;
   stroke-width:0.99986997;
   stroke-miterlimit:3.97446823;
   stroke-dasharray:none;
}
</style>
  
  
  
  
  
  
  
  
  
  
  
  
  
  
  
  
  
  
  
  
  
  
  
  
  
  
  
  
  
  
  
  
  
  
  
  
  
  
  
  
  
  
  
  
  
  
  
  
  
  
  
  
  
  <g
     class="land pg"
     id="pg">
    <path
       d="M 2368.3737,835.1285 C 2368.5884,833.6705 2366.2053,833.0585 2365.1931,832.7485 C 2366.3191,833.3985 2367.4611,834.1865 2368.3737,835.1285"
       id="path3962" />
    <path
       d="M 2367.8883,833.0385 C 2368.7612,832.0545 2366.8493,831.8885 2366.3192,832.4585 C 2366.8177,832.7375 2367.3404,832.9305 2367.8883,833.0385"
       id="path3964" />
    <path
       d="M 2368.7816,832.6085 C 2368.8369,832.0275 2368.4366,831.8335 2367.9219,831.8885 C 2368.1946,832.1445 2368.4818,832.3845 2368.7816,832.6085"
       id="path3966" />
    <path
       d="M 2369.0188,829.6585 C 2369.0900,829.1515 2368.8423,829.0775 2368.2759,829.4375 C 2368.5246,829.5115 2368.7712,829.5855 2369.0188,829.6585"
       id="path3968" />
    <path
       d="M 2371.0339,827.2785 C 2370.9355,826.8685 2370.6725,826.6295 2370.2447,826.5585 C 2370.5078,826.7985 2370.7698,827.0385 2371.0339,827.2785"
       id="path3970" />
    <path
       d="M 2348.3031,838.5785 C 2348.2468,834.3835 2348.1289,830.1845 2348.1290,825.9945 C 2348.1285,824.1415 2348.4119,822.1605 2348.0806,820.2985 C 2347.8593,819.0485 2346.6929,818.4235 2346.8467,817.0545 C 2346.9754,815.9055 2347.5601,815.2305 2347.9122,814.2605 C 2348.2516,813.3845 2348.0038,812.1785 2347.9598,811.2435 C 2347.7499,806.7465 2347.9508,802.2085 2347.8788,797.7105 C 2347.8089,793.2785 2347.8226,788.8475 2347.9776,784.4145 C 2348.0230,783.1015 2347.5536,781.5265 2349.2530,782.2155 C 2350.3579,782.6635 2351.4827,783.2565 2352.5431,783.7965 C 2355.4987,785.3015 2358.2101,787.4355 2361.4600,788.2895 C 2363.0629,788.7105 2364.7230,788.4765 2366.2694,789.1425 C 2368.0545,789.9115 2369.2574,791.3875 2370.9224,792.3825 C 2372.2398,793.1695 2372.4180,792.2765 2373.4299,792.4665 C 2374.7073,792.7065 2374.8372,794.0985 2376.0470,794.3725 C 2377.4527,794.6905 2377.8195,796.1945 2378.7343,797.0435 C 2379.6813,797.9225 2380.9663,797.6375 2382.0091,798.5855 C 2383.1447,799.6195 2384.0913,800.9975 2384.4440,802.4755 C 2384.7522,803.7655 2383.7877,804.8115 2384.0128,805.8925 C 2384.3414,807.4735 2388.2036,807.7875 2389.3928,808.2135 C 2390.5922,808.6435 2392.0015,809.5275 2393.1301,810.1385 C 2393.6789,810.4355 2393.9325,810.9895 2394.5701,811.1485 C 2395.3168,811.3345 2395.9867,810.9305 2396.7336,811.1485 C 2398.5471,811.6765 2401.5437,815.6065 2400.2043,817.3605 C 2399.1467,818.7465 2396.0118,817.5825 2394.4783,817.6635 C 2392.0553,817.7915 2394.8784,822.7775 2395.7186,823.8695 C 2396.7023,825.1495 2398.1820,826.0555 2399.2263,827.3355 C 2399.8910,828.1485 2401.6350,829.6275 2402.7677,829.1485 C 2402.7796,830.3365 2403.1878,832.3175 2403.6554,833.4545 C 2403.9034,834.0605 2404.3189,834.2905 2404.8453,834.5875 C 2405.5933,835.0075 2405.4266,836.0165 2405.6208,836.6985 C 2406.2032,838.7485 2407.8417,838.4165 2409.2985,837.8265 C 2410.3341,837.4065 2412.1775,837.2845 2411.5850,838.9465 C 2410.6238,841.6405 2411.7887,842.4655 2414.5551,842.6035 C 2415.0800,842.6295 2417.0950,842.4465 2417.2530,843.2515 C 2417.4268,844.1355 2415.3708,844.2415 2414.8914,844.5585 C 2415.4031,845.0975 2415.6739,845.8345 2416.2859,846.2885 C 2417.0561,846.8605 2418.2319,846.9445 2419.0987,847.4545 C 2420.4189,848.2315 2422.3298,848.6475 2423.7047,848.1585 C 2423.0073,848.4755 2422.1027,849.2005 2421.2509,849.0515 C 2420.5792,848.9345 2419.8171,848.5205 2419.7892,849.5285 C 2421.4153,849.9385 2423.2849,850.7285 2420.9794,851.4595 C 2419.4467,851.9445 2417.3337,852.5315 2416.2619,850.4595 C 2416.8049,850.6055 2417.2515,850.4855 2417.6028,850.0995 C 2417.1097,849.8365 2416.7079,849.9105 2416.3980,850.3195 C 2416.1483,848.8315 2413.9159,848.9515 2412.8698,848.8695 C 2411.0572,848.7285 2409.1644,847.7805 2407.3474,848.0895 C 2407.3881,847.8245 2407.4380,847.5615 2407.4930,847.2995 C 2406.7685,847.6425 2405.9563,847.8675 2405.1053,847.7335 C 2404.5002,847.6385 2403.2361,846.6075 2402.7189,846.9635 C 2401.4376,847.8495 2400.3485,846.0435 2399.5619,846.8595 C 2399.2412,845.9375 2397.9926,845.5735 2397.8953,844.5595 C 2397.8202,843.7775 2397.1372,842.7835 2396.6244,842.1805 C 2396.0426,841.4955 2395.0983,842.0175 2394.4992,841.2565 C 2394.0111,840.6365 2392.8519,839.1095 2393.4658,838.3685 C 2390.9739,838.0525 2391.2507,836.9305 2390.4413,835.2685 C 2389.6781,833.6995 2387.9642,830.0595 2386.2516,829.3805 C 2385.6919,829.1585 2385.2177,828.7165 2384.7402,828.3555 C 2384.0933,827.8675 2383.1989,828.3495 2382.4913,828.2595 C 2381.4335,828.1255 2380.2997,827.4185 2379.1937,827.2085 C 2377.2288,826.8345 2378.0088,826.4785 2377.5542,825.1185 C 2377.6754,826.3135 2376.3936,825.6925 2376.0234,825.0495 C 2376.0173,826.5455 2375.0805,825.2385 2375.1207,824.6185 C 2374.8168,825.2715 2374.6417,825.9075 2374.1791,824.6185 C 2374.2513,825.3145 2374.3654,826.0085 2374.5232,826.6985 C 2374.1264,826.2195 2373.6369,825.8865 2373.0557,825.6985 C 2373.1131,828.9415 2368.8126,824.1675 2368.3529,823.9695 C 2369.0318,825.5955 2370.2849,826.9895 2370.6698,828.7195 C 2370.3670,828.6345 2370.0680,828.5375 2369.7711,828.4295 C 2370.3342,830.2955 2367.0998,828.0405 2366.1838,827.9295 C 2366.6333,828.5575 2368.9957,830.2185 2367.7024,830.7785 C 2366.8430,831.1505 2365.8450,831.1115 2364.9242,831.2765 C 2364.1564,831.4145 2363.4554,831.7655 2362.6344,831.4695 C 2361.9898,831.2375 2361.4668,831.0065 2360.8027,831.1705 C 2359.7688,831.4265 2359.1560,831.9625 2358.5649,830.5895 C 2358.7073,831.6015 2359.1574,831.9565 2360.0973,831.7355 C 2361.4054,831.4275 2362.3950,831.7885 2363.6174,832.5185 C 2365.9640,833.9195 2367.9404,836.5585 2365.0318,837.8425 C 2363.7329,838.4165 2362.4226,839.9635 2360.9455,840.0835 C 2359.5442,840.1975 2358.2275,838.9015 2356.6653,839.0435 C 2354.9258,839.2025 2353.1118,839.6435 2351.3474,838.8755 C 2350.1574,838.3585 2349.3621,840.2095 2348.3031,838.5785"
       id="path3954" />
    <path
       d="M 2385.6651,800.7785 C 2386.5208,800.4165 2386.6104,799.4645 2385.9624,798.7685 C 2385.2144,799.1685 2384.7042,800.1475 2385.6651,800.7785"
       id="path3972" />
    <path
       d="M 2394.7065,806.7585 C 2396.0990,806.6795 2395.3043,804.5575 2394.2144,804.5785 C 2393.4086,804.5945 2394.4091,806.5055 2394.7065,806.7585"
       id="path3974" />
    <path
       d="M 2401.2880,810.2185 C 2402.3219,809.3795 2401.8496,807.1825 2400.2919,807.1885 C 2398.3878,807.1955 2400.6997,809.7385 2401.2880,810.2185"
       id="path3976" />
    <path
       d="M 2399.6775,779.8985 C 2400.2957,780.0655 2400.4182,779.8255 2400.0432,779.1785 C 2399.9216,779.4185 2399.7991,779.6585 2399.6775,779.8985"
       id="path3978" />
    <path
       d="M 2408.0579,811.0785 C 2408.5741,811.7015 2409.4027,811.9685 2409.7527,812.7385 C 2410.6366,812.0695 2412.0091,811.7805 2412.9549,812.7495 C 2413.6357,813.4465 2413.6427,814.1785 2414.8219,814.0625 C 2416.3613,813.9115 2417.9453,814.2495 2419.4651,813.9455 C 2421.4612,813.5455 2422.4066,811.6125 2424.1418,811.6465 C 2425.9272,811.6825 2428.1527,809.1845 2427.7741,807.4085 C 2428.7887,807.5275 2433.6525,808.2035 2432.7723,805.7195 C 2432.6224,805.2935 2430.7439,802.3565 2432.1991,802.6535 C 2434.5928,803.1425 2435.0200,800.6045 2434.8955,798.8075 C 2434.8490,798.1435 2434.9851,797.3845 2434.2602,797.0635 C 2433.5652,796.7555 2432.7737,796.4395 2433.5134,795.6685 C 2432.8745,795.9205 2431.5172,797.5215 2430.7839,796.5615 C 2430.0088,795.5475 2428.1576,795.5895 2428.4427,797.1285 C 2428.7136,798.5935 2429.6058,799.8375 2429.4801,801.3985 C 2429.3551,802.9555 2427.0997,802.1335 2426.0732,803.0085 C 2424.9616,803.9565 2424.8733,805.4435 2424.0412,806.5715 C 2423.6924,807.0445 2422.9662,807.0125 2422.4503,807.1545 C 2421.2751,807.4785 2421.4410,806.9945 2420.2967,806.7945 C 2419.4241,806.6425 2418.5194,808.2515 2417.7809,807.3265 C 2416.7982,806.0965 2416.7104,804.1335 2418.1231,803.3785 C 2416.7846,802.0375 2415.9556,805.7685 2416.3451,806.3515 C 2417.0606,807.4235 2411.9940,807.9415 2411.4460,807.9085 C 2410.7342,807.8665 2410.3450,807.5205 2409.6956,807.2625 C 2408.8228,806.9165 2408.5021,807.4115 2407.7193,807.3565 C 2407.0260,807.3075 2405.3079,807.6635 2404.9076,807.1075 C 2404.2611,806.2125 2403.4080,808.3825 2404.3957,809.3315 C 2405.0920,809.9995 2405.7547,809.8025 2406.5516,810.1375 C 2407.1405,810.3865 2407.3832,810.9805 2408.0579,811.0785"
       id="path3982" />
    <path
       d="M 2413.1662,800.4185 C 2413.2755,799.7645 2413.0315,799.6945 2412.4311,800.2085 C 2412.6762,800.2785 2412.9202,800.3485 2413.1662,800.4185"
       id="path3984" />
    <path
       d="M 2414.9103,773.4185 C 2415.6919,772.6925 2414.2410,770.9875 2413.5030,771.6425 C 2413.0474,772.0465 2414.6113,773.2685 2414.9103,773.4185"
       id="path3986" />
    <path
       d="M 2419.6294,841.9685 C 2419.8526,841.4385 2419.6386,838.5995 2418.4072,839.3325 C 2416.9278,840.2125 2418.8272,841.4895 2419.6294,841.9685"
       id="path3988" />
    <path
       d="M 2423.5477,843.6175 C 2424.9300,842.0175 2422.6815,841.2325 2421.4310,840.7805 C 2419.1927,839.9715 2421.6057,842.2325 2420.4505,842.9685 C 2421.2785,842.6545 2422.8307,842.9855 2423.5477,843.6175"
       id="path3990" />
    <path
       d="M 2416.8299,781.2685 C 2417.4526,781.8385 2417.8683,782.5775 2418.7784,782.7085 C 2419.7224,782.8445 2420.8390,782.2555 2420.1270,781.1715 C 2419.5110,780.2305 2416.9809,779.6785 2416.8299,781.2685"
       id="path3992" />
    <path
       d="M 2423.6947,851.7585 C 2424.6802,849.8415 2421.5630,851.6595 2423.6947,851.7585"
       id="path3994" />
    <path
       d="M 2423.9394,846.0685 C 2424.1544,846.0685 2424.3684,846.0685 2424.5834,846.0685 C 2423.7120,846.6785 2425.3540,847.2215 2425.7918,847.3715 C 2426.8815,847.7435 2427.1464,846.0785 2426.4060,845.4985 C 2426.0518,845.7065 2425.8453,846.0175 2425.7833,846.4285 C 2424.5188,845.9945 2423.9142,844.5665 2422.7837,843.9085 C 2423.2728,844.5715 2423.7575,845.2715 2423.9394,846.0685"
       id="path3996" />
    <path
       d="M 2424.0772,851.9685 C 2424.2411,851.6315 2424.5117,851.4185 2424.8878,851.3285 C 2424.2981,851.1275 2423.9960,851.3675 2424.0772,851.9685"
       id="path3998" />
    <path
       d="M 2425.7595,835.9885 C 2425.2011,835.0545 2425.3019,833.3005 2425.6277,832.3875 C 2424.8250,832.5215 2424.3082,833.6775 2425.5404,833.7575 C 2425.3193,834.5205 2424.7206,835.3855 2425.7595,835.9885"
       id="path4000" />
    <path
       d="M 2422.6171,785.3785 C 2423.1057,785.2905 2423.5860,785.1675 2424.0551,785.0085 C 2423.5150,784.6925 2422.9551,784.8885 2422.6171,785.3785"
       id="path4002" />
    <path
       d="M 2436.9243,792.9385 C 2435.8625,792.7905 2435.3199,791.0255 2434.6648,790.3475 C 2433.6808,789.2905 2431.8728,787.6445 2430.5260,787.1035 C 2429.1070,786.5335 2428.3232,785.0175 2426.8983,784.4435 C 2426.3758,784.2345 2426.0123,784.8035 2425.7894,784.0415 C 2425.5676,783.2845 2424.0230,782.7785 2423.4583,782.2095 C 2423.7329,782.7735 2423.5121,783.1175 2422.8940,783.1395 C 2423.6021,783.7555 2424.6159,783.6855 2425.3191,784.3175 C 2426.1832,785.0945 2427.0464,785.8765 2427.9572,786.5995 C 2428.9544,787.3905 2429.8882,788.4145 2431.0243,789.0085 C 2431.8733,789.4515 2432.8673,789.5715 2433.6285,790.1885 C 2435.1563,791.3895 2435.8055,793.4345 2436.7381,795.0655 C 2437.3825,796.1945 2436.9347,797.3725 2437.1091,798.5485 C 2437.2793,799.6925 2438.1444,800.5115 2438.6871,801.4985 C 2439.5287,800.7685 2440.8970,797.3515 2440.3606,796.2545 C 2439.9226,795.3605 2439.0621,794.7895 2438.6101,793.9525 C 2438.0459,792.9115 2437.9530,793.2985 2436.9243,792.9385"
       id="path4004" />
    <path
       d="M 2437.9282,852.2585 C 2438.1536,852.0685 2438.3790,851.8785 2438.6043,851.6885 C 2437.8768,851.6915 2437.1492,851.6425 2436.4182,851.5395 C 2436.9207,851.7805 2437.4251,852.0205 2437.9282,852.2585"
       id="path4006" />
    <path
       d="M 2438.6811,839.4475 C 2441.0208,839.3585 2438.1097,835.9245 2436.7658,837.6475 C 2437.6051,838.0605 2437.8065,839.0845 2438.6811,839.4475"
       id="path4012" />
    <path
       d="M 2441.4000,857.2285 C 2441.2368,856.7115 2441.2651,856.4615 2440.6101,856.5795 C 2440.8740,856.7955 2441.1370,857.0115 2441.4000,857.2285"
       id="path4014" />
    <path
       d="M 2444.0233,860.3285 C 2444.5248,860.1925 2444.9605,859.9525 2445.3293,859.6075 C 2444.5887,858.9825 2442.4123,857.5965 2441.4938,858.1685 C 2442.0288,858.5705 2442.0755,859.2695 2442.5801,859.6785 C 2443.2303,860.2055 2443.5237,859.1855 2444.0233,860.3285"
       id="path4016" />
    <path
       d="M 2436.8144,787.5285 C 2437.1528,786.9515 2436.8810,786.3745 2436.3746,786.0185 C 2436.1654,786.6205 2436.3127,787.1245 2436.8144,787.5285"
       id="path4018" />
    <path
       d="M 2448.2589,858.5285 C 2448.6602,858.2175 2449.1286,858.0745 2449.6641,858.0985 C 2448.9135,857.1455 2448.2391,858.0505 2447.4211,858.0985 C 2447.7000,858.2415 2447.9789,858.3845 2448.2589,858.5285"
       id="path4020" />
    <path
       d="M 2452.0320,806.7585 C 2453.0068,805.8635 2452.9368,803.9625 2451.7716,803.0885 C 2451.2332,804.1925 2451.5639,805.6225 2452.0320,806.7585"
       id="path4024" />
    <path
       d="M 2454.8748,813.3785 C 2455.4588,813.8855 2456.2695,814.0995 2456.4559,814.9135 C 2456.7018,815.9275 2456.6381,816.9615 2457.5027,817.7615 C 2458.7654,818.9285 2462.8474,819.2635 2462.1888,817.0245 C 2461.9117,816.0835 2461.5847,815.4285 2460.9009,814.6345 C 2460.5035,814.1615 2460.0449,813.2815 2459.4491,813.0455 C 2458.9006,812.8275 2458.3889,812.8165 2458.0818,812.2325 C 2456.8025,809.7975 2455.1943,807.5065 2452.4516,806.6185 C 2453.2259,807.4125 2452.8365,808.6405 2452.8364,809.5565 C 2452.8349,811.0735 2454.0941,812.1605 2454.8748,813.3785"
       id="path4026" />
    <path
       d="M 2460.9091,821.2285 C 2461.1423,821.1555 2461.3744,821.0825 2461.6085,821.0085 C 2461.3588,820.0605 2460.2655,819.9445 2460.1579,820.9385 C 2460.4082,821.0345 2460.6587,821.1315 2460.9091,821.2285"
       id="path4028" />
    <path
       d="M 2463.3111,820.0085 C 2463.4166,819.5285 2463.3677,819.0485 2463.1646,818.5685 C 2463.2134,819.0485 2463.2622,819.5285 2463.3111,820.0085"
       id="path4030" />
    <path
       d="M 2390.6694,778.8985 C 2389.6923,777.7745 2391.3385,776.7705 2392.2672,776.5245 C 2393.7661,776.1275 2395.4745,776.9545 2396.9306,777.2395 C 2395.6570,777.5215 2395.5692,778.5285 2393.9879,778.5285 C 2393.3487,778.5285 2392.7450,777.9465 2392.1144,778.0285 C 2391.5667,778.0985 2391.1522,778.6775 2390.6694,778.8985"
       id="path4032" />
  </g>
  
  
  
  
  
  
  
  
  
  
  
  
  
  
  
  
  
  
  
  
  
  
  
  
  
  
  
  
  
  
  
  
  
  
  
  
  
  
  
  
  
  
  
  
  
  
  
  
  
  
  
  
  
  
  
  
  
  
  
  
  
  
  
  
  
  
  
  
  
  
  
  
  
  
  
  
  
  
  
  
  
  
  
  
  
  
  
  
  
  
  
  
  
  
  
  
  
  
  
  
  
  
  
  
  
  
  
  
  
  
  
  
  
  
  
  
  
  
  
  
  
  
  
  
  
  
  
  
  
  
  
  
  
  
  
  
  
  
  
  
  
  
  
  
  
  
  
  
  
  
  
  
  
  
  
  
  
  
  
  
  
  
  
  
  
  
  
  
  
  
  
  
  
  
  
  
  
  
</svg>
