<?xml version="1.0" encoding="UTF-8" standalone="no"?>
<svg
   xmlns:dc="http://purl.org/dc/elements/1.1/"
   xmlns:cc="http://web.resource.org/cc/"
   xmlns:rdf="http://www.w3.org/1999/02/22-rdf-syntax-ns#"
   xmlns:svg="http://www.w3.org/2000/svg"
   xmlns="http://www.w3.org/2000/svg"
   xmlns:sodipodi="http://sodipodi.sourceforge.net/DTD/sodipodi-0.dtd"
   xmlns:inkscape="http://www.inkscape.org/namespaces/inkscape"
   viewBox="0 0 2752.766 1537.631"
   version="1.0"
   height="476.7276"
   width="939.74725"
   id="svg1926"
   sodipodi:version="0.32"
   inkscape:version="0.45.1"
   sodipodi:docname="BlankMap-World6.svg"
   sodipodi:docbase="/home/bennett/Desktop"
   inkscape:output_extension="org.inkscape.output.svg.inkscape">
  <sodipodi:namedview
     inkscape:window-height="590"
     inkscape:window-width="822"
     inkscape:pageshadow="2"
     inkscape:pageopacity="0.0"
     guidetolerance="10.0"
     gridtolerance="10.0"
     objecttolerance="10.0"
     borderopacity="1.0"
     bordercolor="#666666"
     pagecolor="#ffffff"
     id="base"
     inkscape:zoom="0.77893284"
     inkscape:cx="469.87363"
     inkscape:cy="238.3638"
     inkscape:window-x="178"
     inkscape:window-y="46"
     inkscape:current-layer="svg1926" />
  <metadata
     id="metadata24111">
    <rdf:RDF>
      <cc:Work
         rdf:about="">
        <dc:format>image/svg+xml</dc:format>
        <dc:type
           rdf:resource="http://purl.org/dc/dcmitype/StillImage" />
        <cc:license
           rdf:resource="http://web.resource.org/cc/PublicDomain" />
        <dc:title>Blank World Map</dc:title>
      </cc:Work>
      <cc:License
         rdf:about="http://web.resource.org/cc/PublicDomain">
        <cc:permits
           rdf:resource="http://web.resource.org/cc/Reproduction" />
        <cc:permits
           rdf:resource="http://web.resource.org/cc/Distribution" />
        <cc:permits
           rdf:resource="http://web.resource.org/cc/DerivativeWorks" />
      </cc:License>
    </rdf:RDF>
  </metadata>
  <defs
     id="defs1930" />
  <style
     type="text/css"
     id="style_css_sheet">
/*
 * Below are Cascading Style Sheet (CSS) definitions in use in this file,
 * which allow easily changing how countries are displayed.
 *
 */

/*
 * Circles around small countries
 *
 * Change opacity to 1 to display all circles.
 *
 */
.circle
{
   opacity:0;
   fill:#b9b9b9;
   fill-opacity:1;
   stroke:black;
   stroke-width:0.99986893;
   stroke-miterlimit:3.97446823;
   stroke-dasharray:none;
   stroke-opacity:1;
}

/*
 * Land
 */
.land
{
   fill: #b9b9b9;
   fill-opacity: 1;
   stroke: #ffffff;
   stroke-opacity: 1;
   stroke-width: 0.99986997;
   stroke-miterlimit: 3.97446823;
   stroke-dasharray: none;
}

/*
 * Additional style rules
 *
 * The following are examples of colouring countries.  You can substitute these with your own styles to colour the countries on the map.
 *
 * Color a few countries:
 *
 * .gb, .au, .nc
 * {
 *    fill:       #ff0000;
 * }
 *
 * Color a few small country circles (and the countries):
 *
 * .ms, .ky
 * {
 *    opacity:    1;
 *    fill:       #ff0000;
 * }
 *
 */

/*
 * Antarctica
 */

.aq
{
   fill:#e6e6e6;
}

/*
 * Sea
 */

.ocean
{
   opacity: 1;
   color: #000000;
   fill:white;
   fill-opacity:1;
   fill-rule:nonzero;
   stroke:#000000;
   stroke-width:0.5;
   stroke-linecap:butt;
   stroke-linejoin:miter;
   marker:none;
   marker-start:none;
   marker-mid:none;
   marker-end:none;
   stroke-miterlimit:1;
   stroke-dasharray:none;
   stroke-dashoffset:0;
   stroke-opacity:1;
   visibility:visible;
   display:inline;
   overflow:visible;
}

.lake
{
   fill:#ffffff;
   fill-opacity:1;
   stroke:#ffffff;
   stroke-opacity:1;
   stroke-width:0.99986997;
   stroke-miterlimit:3.97446823;
   stroke-dasharray:none;
}
</style>
  
  
  
  
  
  
  
  
  
  
  
  
  
  
  
  
  
  
  
  
  
  
  
  
  
  
  
  
  
  
  
  
  
  
  
  
  
  
  
  
  
  
  
  
  
  
  
  
  
  
  
  
  
  
  
  
  
  
  
  
  
  
  
  
  
  
  
  
  
  
  
  
  
  
  
  
  
  
  
  
  
  
  
  
  
  
  
  
  
  
  
  
  
  
  
  
  
  
  
  
  
  
  
  
  
  
  
  
  
  <g
     class="land ph"
     id="ph">
    <path
       d="M 2225.8275,650.8055 C 2226.0067,650.9835 2226.1544,650.9585 2226.2683,650.7335 C 2226.1207,650.7575 2225.9752,650.7805 2225.8275,650.8055"
       id="path5902" />
    <path
       d="M 2164.9443,692.0615 C 2165.4739,691.2785 2165.5333,690.3565 2164.7918,689.7575 C 2164.4213,690.5305 2164.4719,691.3935 2164.9443,692.0615"
       id="path5800" />
    <path
       d="M 2176.5639,699.2615 C 2176.7064,698.4655 2176.4289,698.2975 2175.7332,698.7575 C 2175.9910,698.9535 2176.2686,699.1215 2176.5639,699.2615"
       id="path5806" />
    <path
       d="M 2186.5185,715.8935 C 2186.9847,715.6395 2189.6855,714.2275 2189.5834,713.9025 C 2189.2107,712.7035 2188.3831,713.8295 2187.7454,714.2635 C 2186.9623,714.8005 2185.7272,714.8225 2186.5185,715.8935"
       id="path5832" />
    <path
       d="M 2191.9141,704.4455 C 2191.7202,704.8425 2191.7195,705.2265 2191.9120,705.5975 C 2192.2873,705.1835 2192.2880,704.7995 2191.9141,704.4455"
       id="path5838" />
    <path
       d="M 2197.5479,708.9085 C 2199.5870,707.9245 2196.5584,706.9705 2195.5997,707.1455 C 2194.5567,707.3375 2194.6159,708.6435 2194.8654,708.5135 C 2195.5570,708.1545 2197.3017,707.9875 2197.5479,708.9085"
       id="path5840" />
    <path
       d="M 2202.0396,702.9335 C 2202.1264,703.8035 2202.9245,704.2935 2203.7668,703.9195 C 2204.6275,703.5395 2204.6262,702.6355 2205.1955,701.9975 C 2204.4488,702.0605 2204.0368,701.4855 2203.3617,701.3495 C 2202.6649,701.2075 2202.0803,702.0745 2201.4331,702.2135 C 2201.6071,702.4775 2201.8095,702.7175 2202.0396,702.9335"
       id="path5858" />
    <path
       d="M 2201.2015,707.0375 C 2201.3770,707.5955 2201.7261,707.7635 2202.2520,707.5415 C 2201.9382,707.3045 2201.5881,707.1365 2201.2015,707.0375"
       id="path5860" />
    <path
       d="M 2209.4355,696.5975 C 2212.1713,695.5475 2207.3824,694.8855 2209.4355,696.5975"
       id="path5874" />
    <path
       d="M 2215.0572,680.9015 C 2216.3091,680.8375 2215.8546,679.6995 2215.3927,679.1015 C 2214.6658,679.4475 2214.1642,680.4835 2215.0572,680.9015"
       id="path5882" />
    <path
       d="M 2216.3190,677.0135 C 2217.0086,676.9705 2217.2649,676.7305 2217.0890,676.2935 C 2216.5285,676.2485 2216.3280,676.4785 2216.3190,677.0135"
       id="path5888" />
    <path
       d="M 2217.7193,670.9655 C 2217.9255,670.7255 2218.1316,670.4865 2218.3379,670.2455 C 2217.6661,670.2565 2217.7498,670.4405 2217.7193,670.9655"
       id="path5892" />
    <path
       d="M 2224.1534,681.0455 C 2224.5440,680.2945 2223.9826,679.1275 2223.0729,679.8935 C 2223.1988,680.4495 2223.5980,680.8925 2224.1534,681.0455"
       id="path5900" />
    <path
       d="M 2228.3702,713.0135 C 2228.5931,713.1445 2228.8359,713.1685 2229.0957,713.0855 C 2228.8691,712.8565 2228.6273,712.8325 2228.3702,713.0135"
       id="path5908" />
    <path
       d="M 2231.8184,699.9815 C 2232.0962,699.2055 2231.9304,698.4375 2231.8182,697.6775 C 2230.5507,697.9275 2231.5551,699.1715 2231.8184,699.9815"
       id="path5910" />
    <path
       d="M 2166.7257,685.2935 C 2166.2967,685.9865 2166.3832,686.7835 2166.1600,687.5245 C 2168.2731,685.0955 2171.1185,684.2955 2173.0234,681.5485 C 2173.7328,680.5275 2179.4790,676.9325 2177.5910,675.2845 C 2178.7474,675.5735 2177.9941,674.7685 2178.1086,674.0595 C 2178.2486,673.1955 2179.6521,673.0765 2180.2627,672.9965 C 2181.3087,672.8605 2181.5352,672.4585 2181.7650,671.5095 C 2182.0861,670.1865 2183.0264,670.5155 2183.9238,669.9555 C 2185.8418,668.7795 2184.6253,667.6255 2184.0042,666.2695 C 2183.2579,664.6415 2184.9663,662.4145 2183.7374,661.0265 C 2182.7778,661.7905 2183.5541,664.7045 2182.3921,663.5475 C 2182.6450,664.1495 2183.3150,665.8365 2183.3151,666.4995 C 2182.6147,666.0875 2181.8009,665.6425 2181.6130,664.7705 C 2181.5042,665.6835 2181.9055,666.4155 2182.0993,667.2485 C 2182.2947,668.0855 2181.0186,670.6715 2180.6892,668.8755 C 2180.5626,669.4335 2180.2451,669.6175 2179.7313,669.7555 C 2179.3340,669.8615 2179.4780,670.9755 2179.3536,671.2515 C 2179.1968,671.5995 2178.5141,671.1475 2178.3359,671.4675 C 2178.0517,671.9755 2178.7023,672.3275 2178.2481,672.9065 C 2178.1616,671.2115 2177.3209,673.1725 2177.0389,673.6295 C 2176.5697,674.3915 2176.1189,675.1655 2175.4887,675.8175 C 2174.4911,676.8495 2173.9186,678.2585 2172.7695,679.1595 C 2172.3121,679.5175 2171.8262,679.3515 2171.3719,679.6745 C 2170.8516,680.0435 2170.7853,680.6925 2170.2532,680.9915 C 2168.7442,681.8435 2167.3816,683.7165 2166.7257,685.2935"
       id="path5802" />
    <path
       d="M 2186.2652,661.1015 C 2186.5531,660.3395 2186.3033,660.1965 2185.5152,660.6695 C 2185.7659,660.8135 2186.0146,660.9575 2186.2652,661.1015"
       id="path5812" />
    <path
       d="M 2187.5561,653.4695 C 2187.3592,653.2505 2187.1374,653.0585 2186.8906,652.8935 C 2185.3647,655.2945 2188.4860,655.7025 2190.1537,655.7025 C 2190.2478,655.2605 2190.0469,654.6635 2189.6692,654.4425 C 2188.8910,653.9855 2188.3490,654.1845 2187.5561,653.4695"
       id="path5814" />
    <path
       d="M 2188.3434,639.7895 C 2188.5349,640.4845 2189.1988,640.9115 2189.7446,641.3015 C 2189.8981,640.4115 2189.1678,639.8245 2188.3434,639.7895"
       id="path5816" />
    <path
       d="M 2187.5506,656.3495 C 2187.2282,656.4215 2186.9057,656.4935 2186.5833,656.5655 C 2186.6644,657.4575 2187.7334,657.5315 2187.5489,658.5095 C 2188.2667,657.9205 2187.6996,656.9435 2187.5506,656.3495"
       id="path5818" />
    <path
       d="M 2187.4719,668.3015 C 2187.5045,667.0435 2185.7409,668.2095 2185.6691,669.0215 C 2186.6037,669.4095 2186.5579,668.1705 2187.4719,668.3015"
       id="path5820" />
    <path
       d="M 2190.0075,643.1015 C 2190.1072,643.5155 2191.5454,644.7935 2191.8872,645.0925 C 2193.3708,646.3665 2192.7994,648.0265 2193.8408,649.3665 C 2194.2974,649.9545 2197.1380,656.3045 2198.3037,652.6055 C 2198.5508,651.8215 2199.1036,651.1575 2199.3387,650.3735 C 2199.5712,649.5955 2198.9074,648.9025 2198.9889,648.1235 C 2199.1834,646.2635 2198.3683,645.1065 2197.2701,643.8525 C 2196.3844,642.8355 2191.1487,641.8545 2190.0075,643.1015"
       id="path5824" />
    <path
       d="M 2189.6125,657.4295 C 2189.6413,656.9185 2189.6180,656.4145 2189.5477,655.9175 C 2189.2112,656.4755 2189.2325,656.9795 2189.6125,657.4295"
       id="path5828" />
    <path
       d="M 2186.1266,619.9885 C 2185.5765,621.5815 2186.8993,621.3795 2186.9388,622.2825 C 2187.0005,623.6655 2186.8697,625.4445 2187.4099,626.6635 C 2187.9305,627.8375 2188.1437,628.8675 2188.1797,630.1795 C 2188.2019,630.9745 2189.2524,632.7265 2189.3165,630.9325 C 2190.6045,631.4365 2189.4772,634.0505 2190.9846,634.5165 C 2193.2079,635.2045 2191.7728,632.2595 2191.9550,631.2925 C 2192.5133,631.5045 2197.1023,633.0635 2195.0643,634.3785 C 2194.2828,634.8825 2193.5748,635.4935 2192.8531,636.0795 C 2191.6967,637.0185 2192.4990,638.8735 2192.4412,640.0765 C 2193.0683,640.0035 2193.3593,639.6395 2193.1619,639.0675 C 2194.4664,639.0885 2194.9687,639.8075 2194.5636,641.0845 C 2195.1908,639.5885 2195.9628,640.9015 2195.5750,641.6605 C 2196.3357,641.5385 2197.3701,641.9945 2198.0688,641.3835 C 2198.6648,640.8615 2198.9188,640.0655 2199.5798,639.6165 C 2199.7852,639.4775 2200.9883,638.6465 2201.2260,638.8575 C 2202.0396,639.5815 2203.2072,639.9405 2203.9375,640.7325 C 2204.9031,641.7785 2206.8193,643.2065 2206.9099,644.7555 C 2206.9397,645.2745 2207.7757,646.0315 2208.0883,645.1215 C 2208.1445,644.6305 2208.0713,644.1715 2207.8730,643.7425 C 2207.8052,643.5015 2206.9228,642.0515 2207.4755,642.2345 C 2206.4138,641.5115 2206.9281,639.9615 2206.2450,638.9955 C 2207.8463,638.7495 2209.0596,640.6215 2209.6674,641.6905 C 2210.4903,643.1365 2212.2174,643.2225 2212.8460,645.0045 C 2213.0124,645.4725 2212.3881,646.3785 2213.0607,646.5255 C 2213.7904,646.6845 2214.3620,647.2115 2215.0114,647.5375 C 2215.5296,647.7985 2215.9247,648.5525 2216.5842,648.2255 C 2217.0638,647.9885 2217.8113,647.3005 2218.3659,647.4185 C 2218.1555,648.3025 2216.4744,648.6975 2217.0766,649.7265 C 2217.1857,649.9125 2218.3329,651.8415 2218.7943,650.8895 C 2219.5116,649.4105 2219.4945,644.2775 2216.4623,646.1955 C 2216.2149,645.5865 2216.5889,645.1795 2216.5249,644.5855 C 2216.4435,643.8335 2215.4973,642.7505 2214.8984,642.3785 C 2213.3091,641.3925 2217.0837,640.4285 2217.9611,640.9385 C 2217.9434,639.8785 2216.2715,639.4525 2215.4089,639.3735 C 2213.9388,639.2375 2213.8606,637.9885 2212.6587,637.7705 C 2212.2112,638.7725 2213.9007,640.2315 2212.2428,640.7945 C 2211.0295,641.2065 2211.0668,638.4525 2210.6730,637.5945 C 2209.8726,635.8445 2205.7136,634.2815 2205.3541,637.5545 C 2205.2181,637.2565 2205.0657,636.9685 2204.8967,636.6905 C 2203.7933,637.5905 2205.7122,638.1545 2205.0652,638.7855 C 2203.9725,639.8535 2202.2270,638.4025 2201.6314,637.6995 C 2201.0975,637.0685 2199.0405,632.5585 2201.0314,632.4425 C 2199.4074,631.2055 2198.0325,627.6455 2199.1281,625.6025 C 2199.8755,624.2095 2199.3341,622.9405 2200.0085,621.7145 C 2200.8522,620.1965 2202.9216,620.0955 2204.1219,618.9785 C 2203.9439,619.3875 2203.7639,619.7955 2203.5820,620.2035 C 2204.6007,619.2175 2204.4894,618.0605 2205.0640,616.8925 C 2205.9413,615.1125 2207.0443,613.2025 2206.9799,611.2755 C 2205.8987,611.7485 2206.5592,610.3665 2206.2959,609.9065 C 2205.5660,608.6355 2204.5156,608.5945 2204.2064,606.8455 C 2203.8913,605.0505 2204.1358,603.6605 2205.1373,601.9735 C 2205.6575,601.0985 2204.8487,598.6995 2203.8660,599.9765 C 2203.4758,600.4835 2203.2592,601.6015 2202.4096,601.4455 C 2201.8954,601.3505 2200.8408,600.7525 2200.2882,601.3395 C 2200.0926,600.7385 2199.5652,600.3145 2199.0619,599.9775 C 2198.0521,599.3025 2196.7560,598.2895 2195.3844,598.7175 C 2194.7926,598.9025 2194.2201,598.5995 2193.6645,598.5505 C 2193.1461,598.5035 2193.4457,599.2515 2192.9512,599.2515 C 2191.5450,599.2515 2192.3225,600.0165 2192.1796,600.8355 C 2191.9224,602.2995 2191.2037,604.1015 2190.7792,605.5875 C 2190.0059,608.2915 2191.7388,610.6805 2190.7625,613.5565 C 2189.9718,615.8885 2190.7002,617.6285 2190.7105,619.7995 C 2190.7322,622.4905 2187.0828,618.9015 2186.9493,617.7555 C 2185.9664,618.2105 2185.9177,619.1915 2186.1266,619.9885"
       id="path5808" />
    <path
       d="M 2197.9149,592.0535 C 2198.1617,592.5435 2198.5651,592.8555 2199.1261,592.9895 C 2199.4922,592.1745 2198.6818,591.6145 2197.9149,592.0535"
       id="path5826" />
    <path
       d="M 2197.6761,596.5175 C 2197.9487,596.4935 2198.2192,596.4695 2198.4918,596.4455 C 2198.1068,596.2625 2197.9388,596.1265 2197.6761,596.5175"
       id="path5830" />
    <path
       d="M 2202.5481,583.5575 C 2202.8492,583.2055 2203.0653,582.8225 2203.1981,582.4055 C 2202.6712,582.6665 2202.4549,583.0505 2202.5481,583.5575"
       id="path5834" />
    <path
       d="M 2201.6591,596.7335 C 2202.2113,596.3775 2202.5406,595.7985 2202.4559,595.2215 C 2201.9276,595.6345 2201.6621,596.1385 2201.6591,596.7335"
       id="path5836" />
    <path
       d="M 2201.6831,629.7815 C 2201.8006,630.6655 2202.0362,632.3605 2202.9591,632.7325 C 2203.5331,631.6525 2203.6947,628.2035 2201.6831,629.7815"
       id="path5842" />
    <path
       d="M 2204.2946,638.4215 C 2204.1960,637.5455 2203.1022,636.9375 2202.3514,636.6925 C 2202.7395,637.5125 2203.5743,637.9325 2204.2946,638.4215"
       id="path5844" />
    <path
       d="M 2201.4611,643.2455 C 2201.2143,644.8615 2203.6037,646.0725 2203.9713,643.7625 C 2204.1669,642.5865 2202.0166,641.9475 2201.4611,643.2455"
       id="path5846" />
    <path
       d="M 2204.9159,632.2295 C 2205.2275,631.5355 2205.0113,631.3435 2204.2671,631.6535 C 2204.4844,631.8455 2204.6998,632.0365 2204.9159,632.2295"
       id="path5848" />
    <path
       d="M 2201.7578,657.7175 C 2204.0647,658.1315 2203.3092,659.9465 2203.0765,661.7365 C 2202.9087,663.0345 2203.0258,663.9575 2202.5372,665.2565 C 2202.0298,666.6105 2202.6850,667.9005 2202.0650,669.2375 C 2203.3833,669.5215 2204.4842,667.2215 2205.9525,667.2215 C 2206.9083,667.2215 2208.8362,665.8345 2208.6591,664.8885 C 2208.5045,664.0605 2211.5908,663.7515 2211.3040,662.5715 C 2210.9222,661.0065 2212.2730,658.8495 2209.5547,660.6705 C 2210.2457,659.9975 2209.4109,659.0855 2208.6521,659.2495 C 2207.9479,659.4015 2207.4092,660.2625 2206.8855,659.6395 C 2206.2929,658.9355 2205.9031,658.1305 2205.0317,657.7015 C 2204.2118,657.2985 2203.1148,657.1285 2202.6336,656.2785 C 2202.2092,656.6875 2201.9172,657.1675 2201.7578,657.7175"
       id="path5850" />
    <path
       d="M 2202.9973,651.3815 C 2202.7610,652.6815 2202.1053,653.7865 2202.9890,654.9085 C 2203.3218,653.4285 2203.5976,651.9455 2204.0610,650.4985 C 2204.3223,649.6805 2202.4096,650.1985 2202.9973,651.3815"
       id="path5852" />
    <path
       d="M 2205.4525,632.5895 C 2205.6981,632.5655 2205.9427,632.5415 2206.1894,632.5175 C 2205.9437,632.4755 2205.6991,632.4995 2205.4525,632.5895"
       id="path5854" />
    <path
       d="M 2204.9610,651.3815 C 2205.5794,651.4755 2205.5312,651.2355 2204.8153,650.6615 C 2204.8644,650.9025 2204.9127,651.1415 2204.9610,651.3815"
       id="path5856" />
    <path
       d="M 2202.3687,697.6775 C 2201.8693,699.7125 2204.6135,700.5705 2204.9754,698.1915 C 2205.1070,697.3255 2205.6335,694.9315 2206.3140,694.6675 C 2206.8556,694.4585 2207.4349,691.3035 2208.5810,692.2315 C 2209.4053,692.8995 2208.9595,694.3355 2209.6001,695.0855 C 2209.8707,693.8185 2210.2891,694.4345 2210.6130,695.0855 C 2210.9452,694.3045 2210.7769,693.2245 2211.7684,692.8535 C 2212.1676,693.3735 2212.0446,694.0005 2211.5175,694.4375 C 2212.5091,694.4735 2213.0563,695.6985 2214.0565,695.5175 C 2213.7823,695.0815 2213.4468,694.4895 2213.5061,693.9335 C 2213.5393,693.6175 2214.2340,693.6535 2214.3351,693.3575 C 2214.6024,692.5785 2213.7242,692.7605 2214.7794,692.0045 C 2215.4279,691.5405 2215.9867,692.3565 2216.4365,692.6495 C 2217.9666,693.6455 2219.3883,693.9205 2219.7883,696.0265 C 2220.0040,697.1715 2218.3804,698.2435 2218.1801,699.4665 C 2217.9787,700.6905 2218.5308,702.3745 2218.7133,703.5825 C 2218.9943,705.4455 2220.5471,706.5635 2222.0911,707.3795 C 2222.7994,707.7545 2225.2929,709.4415 2226.1282,708.7455 C 2226.7972,708.1885 2226.5464,706.8725 2227.7388,706.9345 C 2227.8566,706.9405 2227.1477,712.4955 2228.9251,711.3235 C 2230.1607,710.5095 2231.3698,707.7115 2231.2748,706.3475 C 2231.1414,704.4295 2229.7322,703.6255 2229.0865,702.0775 C 2228.6968,701.1425 2231.3150,695.9095 2232.1022,696.2975 C 2232.7076,696.5955 2233.8980,699.5585 2234.1239,700.2795 C 2234.3449,700.9815 2234.1449,701.7145 2234.1599,702.4405 C 2234.1813,703.5005 2234.9962,704.2075 2235.0846,705.2365 C 2235.1944,703.5645 2236.0852,701.3965 2234.9142,699.9805 C 2235.5556,699.6905 2236.0388,700.0615 2236.2454,700.6285 C 2235.2356,699.6785 2236.8866,698.7265 2237.4554,698.0145 C 2238.5558,696.6395 2237.9759,694.6295 2237.8001,693.1585 C 2237.6565,691.9505 2236.0679,691.9455 2236.7855,690.6335 C 2237.2014,689.8735 2237.3573,687.9165 2235.9495,688.5325 C 2238.4052,686.5465 2234.1915,685.8995 2234.3134,684.8595 C 2234.3841,684.2515 2235.5899,683.9685 2235.8617,683.3715 C 2236.3490,682.3025 2235.1825,681.8735 2234.9223,681.0445 C 2234.8001,680.6535 2235.3566,678.7855 2234.6053,679.1595 C 2233.6570,679.6305 2233.5089,679.2975 2233.0589,678.5905 C 2232.5259,677.7525 2233.1508,677.2695 2231.8908,676.8785 C 2230.5028,676.4475 2230.3282,675.1735 2229.1246,674.6365 C 2228.2713,676.2615 2229.4485,678.3995 2229.8421,679.9345 C 2229.9308,680.2855 2230.3610,681.5795 2229.7075,681.7645 C 2228.8558,682.0045 2227.7187,681.7995 2227.4133,680.9005 C 2226.5968,683.0215 2227.3135,683.1925 2225.4071,681.8105 C 2223.6125,680.5105 2224.9135,685.6385 2223.3453,685.8515 C 2222.3380,685.9885 2222.2204,684.7875 2221.2726,685.2005 C 2220.2866,685.6315 2220.4392,687.3835 2220.0848,688.2005 C 2219.6597,689.1825 2218.2510,688.7445 2217.4985,689.3245 C 2217.0616,689.6615 2216.2954,690.4585 2215.7220,690.4835 C 2215.1305,690.5095 2216.5128,689.5675 2216.3883,689.6475 C 2217.1674,689.1515 2217.3416,688.8755 2217.2134,687.9295 C 2217.1138,687.1955 2216.3287,683.6625 2214.9925,685.3675 C 2214.8424,684.7785 2214.5277,684.0305 2213.7704,684.0705 C 2214.0658,686.0515 2211.6283,685.2915 2210.9760,686.3675 C 2210.2051,687.6375 2210.7211,688.8055 2209.1008,689.3265 C 2207.4623,689.8535 2205.1176,689.3935 2204.2304,691.4225 C 2203.8506,692.2925 2203.9898,693.3015 2203.8327,694.2055 C 2203.6283,695.4015 2202.9297,696.5965 2202.3687,697.6775"
       id="path5862" />
    <path
       d="M 2206.9145,651.3815 C 2206.6334,651.5455 2206.3714,651.7375 2206.1287,651.9575 C 2206.6945,652.4445 2207.2780,652.9165 2207.7813,653.4695 C 2208.5618,652.5255 2208.0833,651.3755 2206.9145,651.3815"
       id="path5864" />
    <path
       d="M 2207.4330,677.9495 C 2208.0907,678.4425 2209.0796,678.4285 2209.6094,679.1005 C 2210.0565,679.6675 2209.7453,680.5715 2210.2902,681.0825 C 2211.0406,681.7875 2212.1410,680.9455 2212.5831,680.2445 C 2213.4049,678.9395 2212.1018,678.0505 2211.8237,676.9105 C 2211.3090,674.8115 2212.3227,671.7205 2213.1146,669.6745 C 2213.7757,668.1165 2215.6594,666.0245 2213.6078,664.8835 C 2212.9310,664.5075 2212.0147,664.3885 2211.2226,664.7285 C 2209.8616,665.3135 2210.2857,666.4405 2209.8438,667.5075 C 2209.5587,668.1955 2208.8578,668.4175 2209.0222,669.2365 C 2209.2336,670.1465 2209.5656,671.1405 2209.1387,672.0935 C 2208.4965,673.5295 2205.8965,672.6115 2205.8347,674.2145 C 2205.7843,675.5575 2206.7509,676.9035 2207.4330,677.9495"
       id="path5866" />
    <path
       d="M 2206.8795,669.5255 C 2207.5555,669.2335 2209.2930,667.2425 2207.9536,666.9075 C 2206.9421,666.6545 2206.4288,668.9895 2206.8795,669.5255"
       id="path5868" />
    <path
       d="M 2213.3239,649.7255 C 2212.6323,648.3855 2211.8648,646.5625 2210.3944,645.9095 C 2209.5016,647.1755 2212.8378,648.8975 2213.3239,649.7255"
       id="path5870" />
    <path
       d="M 2211.8932,655.7015 C 2211.8420,655.9655 2211.7899,656.2285 2211.7387,656.4925 C 2212.8319,655.7995 2213.8851,653.0725 2214.9655,654.4975 C 2215.4031,655.0755 2215.8954,655.6115 2216.2728,656.2345 C 2216.7510,657.0235 2217.9049,657.0645 2218.4053,657.8605 C 2219.7512,655.7145 2216.9458,654.4095 2216.0776,653.2355 C 2215.6904,652.7125 2215.0614,652.1345 2214.5843,651.7165 C 2214.2989,651.4655 2212.6603,650.6535 2212.2868,650.6615 C 2212.4806,651.3485 2212.0690,653.1665 2212.3291,653.5705 C 2212.9719,654.5685 2212.0807,654.6195 2211.8932,655.7015"
       id="path5872" />
    <path
       d="M 2215.6149,651.3815 C 2215.8306,651.9085 2216.1444,652.3645 2216.5564,652.7495 C 2216.5142,651.7775 2216.3693,650.5875 2215.4611,650.0855 C 2215.1879,650.5885 2215.2395,651.0205 2215.6149,651.3815"
       id="path5876" />
    <path
       d="M 2213.6082,673.0535 C 2213.6170,674.5595 2213.0535,676.0305 2212.8125,677.5175 C 2214.8474,678.0615 2214.7201,673.1655 2215.6166,672.1955 C 2216.7270,670.9925 2217.8843,670.0175 2218.2202,668.3435 C 2218.6480,666.3505 2218.2201,664.3875 2218.4936,662.3975 C 2217.4691,662.6025 2216.8515,665.7235 2216.6005,666.4825 C 2215.8367,668.7845 2214.2310,670.7465 2213.6082,673.0535"
       id="path5878" />
    <path
       d="M 2218.3179,645.1895 C 2218.5060,644.6975 2218.2775,644.6005 2217.6322,644.9015 C 2217.8609,644.9965 2218.0893,645.0935 2218.3179,645.1895"
       id="path5880" />
    <path
       d="M 2219.7659,642.5975 C 2221.7665,641.3265 2221.8959,638.4655 2219.5276,637.9895 C 2218.6106,639.4675 2218.7954,641.5835 2219.7659,642.5975"
       id="path5884" />
    <path
       d="M 2219.7875,645.6215 C 2219.5774,645.4285 2219.3173,645.3805 2219.0069,645.4765 C 2219.2667,645.5255 2219.5266,645.5735 2219.7875,645.6215"
       id="path5886" />
    <path
       d="M 2217.0592,675.5015 C 2216.7166,678.3045 2221.9436,675.1185 2222.5711,675.3565 C 2222.2670,673.9125 2222.3965,671.0655 2219.7522,671.7735 C 2218.8242,672.0215 2215.8545,674.7055 2217.0592,675.5015"
       id="path5890" />
    <path
       d="M 2220.3276,651.3815 C 2220.7352,652.9135 2221.2571,654.2225 2222.4481,655.2695 C 2223.1120,655.8525 2225.0795,658.1855 2226.0196,657.7905 C 2225.6367,658.5035 2225.5688,659.4495 2224.6428,659.7335 C 2225.0483,660.0965 2225.3648,660.5285 2225.5893,661.0295 C 2224.9089,660.1855 2224.3445,661.2585 2223.6757,661.6225 C 2222.6395,662.1855 2221.2769,660.6225 2220.9354,659.8785 C 2220.1149,660.7655 2221.0303,665.0305 2222.0713,665.4935 C 2222.0874,663.5595 2224.1025,666.0555 2224.0484,667.0415 C 2223.9142,669.5545 2223.3298,671.4875 2225.9264,672.6935 C 2225.8608,671.9345 2225.5125,671.2425 2225.5578,670.4625 C 2225.9505,670.9315 2227.4218,670.9705 2227.6150,670.1725 C 2227.7219,669.7295 2226.8540,667.6405 2226.6330,667.1935 C 2226.1273,666.1635 2225.9248,666.2985 2225.9734,664.9195 C 2226.0045,664.0265 2226.3524,662.6225 2225.6388,661.9675 C 2226.2570,661.8125 2227.7790,663.4615 2227.7970,663.4435 C 2228.5446,662.6695 2230.9302,663.6555 2231.5664,664.0555 C 2231.0869,663.4165 2230.8055,662.5185 2229.9521,662.2555 C 2231.1857,661.3885 2229.1788,658.8325 2229.1868,657.8025 C 2229.1938,656.7175 2229.7895,655.7525 2229.2908,654.8285 C 2228.9723,654.2385 2230.3931,654.4105 2229.3114,653.7195 C 2228.7248,653.3445 2227.8945,653.6215 2228.0592,652.6385 C 2228.2693,651.3765 2227.1714,651.3325 2226.2835,651.1345 C 2225.3227,650.9205 2225.0082,650.9045 2223.9363,651.2355 C 2222.7044,651.6135 2221.5092,650.5625 2220.3276,651.3815"
       id="path5894" />
    <path
       d="M 2221.8973,660.3815 C 2223.1567,660.5675 2222.5391,657.6045 2220.8702,658.5095 C 2221.1421,659.1625 2221.2418,659.9855 2221.8973,660.3815"
       id="path5896" />
    <path
       d="M 2227.2693,673.0535 C 2227.5264,673.2875 2227.7791,673.5275 2228.0264,673.7735 C 2227.9228,673.0905 2227.6641,671.9475 2226.6775,672.2615 C 2226.8480,672.5455 2227.0460,672.8095 2227.2693,673.0535"
       id="path5904" />
    <path
       d="M 2230.1622,673.0535 C 2230.7139,673.4525 2230.7467,674.0625 2230.2150,674.5655 C 2231.2824,674.7235 2231.1346,673.1925 2231.0453,672.6025 C 2230.9507,671.9845 2230.5913,671.4385 2230.5268,670.8215 C 2230.4677,670.2595 2230.8768,669.8075 2230.7103,669.2375 C 2229.2347,669.8435 2230.2960,671.0495 2229.4375,671.9735 C 2230.0081,672.0665 2230.3674,672.4445 2230.1622,673.0535"
       id="path5906" />
    <path
       d="M 2233.0281,676.8695 C 2233.5574,676.3585 2233.2554,675.6755 2232.7659,675.3565 C 2232.6456,675.9095 2232.7334,676.4135 2233.0281,676.8695"
       id="path5912" />
    <path
       d="M 2233.7081,673.0535 C 2233.3160,673.5375 2232.8692,675.5755 2234.0382,675.3135 C 2235.2245,675.0475 2234.4782,673.1975 2233.7081,673.0535"
       id="path5914" />
    <path
       d="M 2220.5036,668.0135 C 2220.4818,667.7495 2220.4589,667.4855 2220.4380,667.2215 C 2221.2462,667.3415 2221.2681,667.6055 2220.5036,668.0135"
       id="path5920" />
    <path
       d="M 2225.5893,661.0295 C 2225.6846,661.3295 2225.7013,661.6405 2225.6389,661.9665 C 2225.5252,661.6695 2225.5076,661.3575 2225.5893,661.0295"
       id="path5924" />
    <path
       d="M 2215.0499,664.1255 C 2214.8183,661.3115 2218.5123,662.7585 2215.0499,664.1255"
       id="path5936" />
  </g>
  
  
  
  
  
  
  
  
  
  
  
  
  
  
  
  
  
  
  
  
  
  
  
  
  
  
  
  
  
  
  
  
  
  
  
  
  
  
  
  
  
  
  
  
  
  
  
  
  
  
  
  
  
  
  
  
  
  
  
  
  
  
  
  
  
  
  
  
  
  
  
  
  
  
  
  
  
  
  
  
  
  
  
  
  
  
  
  
  
  
  
  
  
  
  
  
  
  
  
  
  
  
  
  
  
  
  
  
  
  
  
  
  
  
  
  
  
  
  
  
  
  
</svg>
