<?xml version="1.0" encoding="UTF-8" standalone="no"?>
<svg
   xmlns:dc="http://purl.org/dc/elements/1.1/"
   xmlns:cc="http://web.resource.org/cc/"
   xmlns:rdf="http://www.w3.org/1999/02/22-rdf-syntax-ns#"
   xmlns:svg="http://www.w3.org/2000/svg"
   xmlns="http://www.w3.org/2000/svg"
   xmlns:sodipodi="http://sodipodi.sourceforge.net/DTD/sodipodi-0.dtd"
   xmlns:inkscape="http://www.inkscape.org/namespaces/inkscape"
   viewBox="0 0 2752.766 1537.631"
   version="1.0"
   height="476.7276"
   width="939.74725"
   id="svg1926"
   sodipodi:version="0.32"
   inkscape:version="0.45.1"
   sodipodi:docname="BlankMap-World6.svg"
   sodipodi:docbase="/home/bennett/Desktop"
   inkscape:output_extension="org.inkscape.output.svg.inkscape">
  <sodipodi:namedview
     inkscape:window-height="590"
     inkscape:window-width="822"
     inkscape:pageshadow="2"
     inkscape:pageopacity="0.0"
     guidetolerance="10.0"
     gridtolerance="10.0"
     objecttolerance="10.0"
     borderopacity="1.0"
     bordercolor="#666666"
     pagecolor="#ffffff"
     id="base"
     inkscape:zoom="0.77893284"
     inkscape:cx="469.87363"
     inkscape:cy="238.3638"
     inkscape:window-x="178"
     inkscape:window-y="46"
     inkscape:current-layer="svg1926" />
  <metadata
     id="metadata24111">
    <rdf:RDF>
      <cc:Work
         rdf:about="">
        <dc:format>image/svg+xml</dc:format>
        <dc:type
           rdf:resource="http://purl.org/dc/dcmitype/StillImage" />
        <cc:license
           rdf:resource="http://web.resource.org/cc/PublicDomain" />
        <dc:title>Blank World Map</dc:title>
      </cc:Work>
      <cc:License
         rdf:about="http://web.resource.org/cc/PublicDomain">
        <cc:permits
           rdf:resource="http://web.resource.org/cc/Reproduction" />
        <cc:permits
           rdf:resource="http://web.resource.org/cc/Distribution" />
        <cc:permits
           rdf:resource="http://web.resource.org/cc/DerivativeWorks" />
      </cc:License>
    </rdf:RDF>
  </metadata>
  <defs
     id="defs1930" />
  <style
     type="text/css"
     id="style_css_sheet">
/*
 * Below are Cascading Style Sheet (CSS) definitions in use in this file,
 * which allow easily changing how countries are displayed.
 *
 */

/*
 * Circles around small countries
 *
 * Change opacity to 1 to display all circles.
 *
 */
.circle
{
   opacity:0;
   fill:#b9b9b9;
   fill-opacity:1;
   stroke:black;
   stroke-width:0.99986893;
   stroke-miterlimit:3.97446823;
   stroke-dasharray:none;
   stroke-opacity:1;
}

/*
 * Land
 */
.land
{
   fill: #b9b9b9;
   fill-opacity: 1;
   stroke: #ffffff;
   stroke-opacity: 1;
   stroke-width: 0.99986997;
   stroke-miterlimit: 3.97446823;
   stroke-dasharray: none;
}

/*
 * Additional style rules
 *
 * The following are examples of colouring countries.  You can substitute these with your own styles to colour the countries on the map.
 *
 * Color a few countries:
 *
 * .gb, .au, .nc
 * {
 *    fill:       #ff0000;
 * }
 *
 * Color a few small country circles (and the countries):
 *
 * .ms, .ky
 * {
 *    opacity:    1;
 *    fill:       #ff0000;
 * }
 *
 */

/*
 * Antarctica
 */

.aq
{
   fill:#e6e6e6;
}

/*
 * Sea
 */

.ocean
{
   opacity: 1;
   color: #000000;
   fill:white;
   fill-opacity:1;
   fill-rule:nonzero;
   stroke:#000000;
   stroke-width:0.5;
   stroke-linecap:butt;
   stroke-linejoin:miter;
   marker:none;
   marker-start:none;
   marker-mid:none;
   marker-end:none;
   stroke-miterlimit:1;
   stroke-dasharray:none;
   stroke-dashoffset:0;
   stroke-opacity:1;
   visibility:visible;
   display:inline;
   overflow:visible;
}

.lake
{
   fill:#ffffff;
   fill-opacity:1;
   stroke:#ffffff;
   stroke-opacity:1;
   stroke-width:0.99986997;
   stroke-miterlimit:3.97446823;
   stroke-dasharray:none;
}
</style>
  
  
  
  
  
  
  
  <path
     class="land pk"
     d="M 1735.6426,501.1895 C 1738.8398,501.9045 1741.6220,503.4645 1744.7102,504.3965 C 1748.3849,505.5066 1751.6664,504.3605 1755.5195,504.2876 C 1756.8892,504.2615 1757.9532,504.7926 1759.2451,504.9785 C 1760.5723,505.1696 1761.6696,504.2425 1762.9316,503.8256 C 1764.5959,503.2756 1765.9660,503.8976 1767.5475,503.8195 C 1768.8814,503.7545 1770.2405,503.1035 1771.5747,502.8186 C 1773.1241,502.4875 1776.0663,502.2486 1777.2443,500.9026 C 1777.9486,500.0996 1776.6744,499.6635 1776.9660,498.8856 C 1777.6735,496.9955 1777.0239,495.4706 1777.5268,493.6295 C 1778.0384,491.7636 1778.3467,492.1846 1779.6858,491.0806 C 1780.5102,490.4026 1780.8806,489.2715 1781.9009,488.8025 C 1782.9673,488.3116 1783.1291,489.3055 1784.0608,489.4106 C 1785.6477,489.5906 1787.1647,489.0976 1788.7080,488.3745 C 1788.2260,487.7915 1787.1753,487.7545 1787.0881,486.8625 C 1788.4849,486.8385 1790.0724,486.0036 1791.0075,484.9155 C 1792.1146,483.6295 1793.9163,485.8166 1794.2710,484.1986 C 1795.2270,484.6646 1795.7000,484.4445 1796.1512,485.4785 C 1796.5310,486.3515 1797.4242,486.0535 1798.2550,485.5256 C 1800.4808,484.1105 1800.4623,481.4995 1800.0135,479.6316 C 1799.7255,478.4325 1800.7483,478.2455 1801.2056,477.2135 C 1801.5620,476.4076 1801.8120,475.1825 1801.6528,474.3945 C 1801.4616,473.4576 1802.5338,473.2935 1803.2589,473.1456 C 1804.4601,472.8995 1805.0018,473.2695 1806.2057,472.4665 C 1807.6733,471.4885 1807.6468,471.4386 1807.3419,470.2296 C 1807.0863,469.2196 1806.6686,468.1085 1805.7754,467.5086 C 1804.0238,466.3306 1804.0288,464.6386 1806.6524,465.3496 C 1808.4389,465.8336 1812.8716,466.4076 1813.8543,463.8795 C 1814.1457,463.1336 1814.2448,462.5745 1813.7398,462.0695 C 1813.5264,461.8535 1812.5101,461.1295 1812.8397,460.6836 C 1813.0884,460.4866 1813.3636,460.4045 1813.6629,460.4375 C 1813.4719,459.7215 1814.2208,459.1716 1814.7554,458.6705 C 1815.2493,458.2086 1816.8620,457.1526 1816.9940,456.5856 C 1817.1267,456.0476 1817.4215,455.5695 1817.8783,455.1526 C 1818.2414,454.7835 1817.3636,454.4096 1817.2900,454.1735 C 1817.2394,453.9115 1817.3568,453.7176 1817.6450,453.5926 C 1818.1707,453.1685 1817.6386,452.3096 1817.6089,451.9115 C 1817.5674,451.3816 1816.8885,450.1236 1816.6072,449.6665 C 1816.2038,449.0095 1815.3990,448.5675 1814.8508,448.0226 C 1814.1063,447.2826 1817.5916,444.1166 1818.4212,444.3766 C 1819.5618,444.7335 1819.9452,443.4805 1820.8311,442.7935 C 1821.7696,442.0666 1822.8901,441.5996 1824.0043,441.2946 C 1826.3988,440.6395 1828.7768,440.6336 1831.1031,440.5496 C 1832.2818,440.5075 1834.0636,439.9375 1835.0042,440.4425 C 1835.9276,440.9375 1835.9336,441.2135 1837.0955,440.5356 C 1838.6887,439.6055 1842.4477,438.0566 1842.8023,440.2056 C 1844.1961,438.6085 1846.3010,439.9205 1846.7540,441.0045 C 1847.1716,442.0066 1849.2492,441.4595 1850.1113,442.4375 C 1850.7338,443.1316 1851.0559,443.9205 1851.0861,444.9035 C 1851.1096,445.6166 1850.7313,446.8395 1850.8745,447.4515 C 1851.0290,448.1196 1852.4341,449.0276 1852.9146,449.5415 C 1853.5331,450.2045 1854.8666,449.0946 1855.6423,448.9176 C 1855.0077,452.0265 1862.5873,453.3435 1865.1896,452.3736 C 1864.2889,452.9866 1859.1891,455.1046 1859.3009,456.2575 C 1859.3445,456.7126 1858.6200,457.7006 1858.1006,457.3116 C 1857.4799,456.8485 1857.0360,458.0466 1856.7071,458.5596 C 1856.3615,459.1015 1851.6390,459.7815 1850.6480,460.2006 C 1847.8624,461.3816 1846.3394,460.4106 1843.7462,459.8775 C 1841.6507,459.4466 1839.0138,458.0915 1836.5770,459.3336 C 1834.9194,460.1785 1833.6161,462.1545 1835.2978,462.8845 C 1836.8470,463.5525 1834.3061,464.6375 1835.6135,465.0566 C 1836.0449,465.1945 1839.1204,465.2126 1837.6944,466.3376 C 1836.4027,467.3585 1834.9574,467.7665 1836.6480,469.0675 C 1838.0598,470.1576 1835.8760,471.6236 1836.7359,472.7165 C 1837.2278,473.3426 1837.8484,473.6556 1838.4545,474.1585 C 1838.7351,474.3576 1838.8663,474.6365 1838.8502,474.9955 C 1838.7334,476.0075 1838.9932,475.7785 1840.0773,476.0136 C 1841.9308,476.4135 1840.8289,478.3995 1842.8624,478.7926 C 1843.9679,479.0066 1845.8628,479.0956 1846.4958,480.0125 C 1847.2735,481.1406 1843.8606,482.2416 1843.1608,482.5256 C 1841.3769,483.2505 1839.4240,484.5195 1840.5694,486.2665 C 1841.3231,487.4176 1839.1498,490.4925 1841.4156,490.5356 C 1840.9036,491.3336 1838.7379,491.8465 1838.3267,492.8395 C 1837.7573,494.2156 1834.5598,496.0645 1835.5920,497.2316 C 1837.0742,498.9126 1832.9593,499.6746 1832.0100,500.2145 C 1831.0718,500.7475 1831.0118,502.0725 1830.7126,502.8945 C 1830.2053,504.2896 1829.5372,505.7255 1828.6813,506.9975 C 1827.4078,508.8895 1825.3092,509.2865 1823.7001,510.7375 C 1823.0521,511.3216 1822.7418,512.0746 1822.5500,512.8456 C 1822.2107,514.2065 1820.8720,514.9976 1820.1835,516.1985 C 1818.7203,518.7495 1817.2701,518.1075 1814.6576,518.7555 C 1813.7677,518.9765 1812.6690,519.8265 1811.7607,519.7396 C 1810.6698,519.6355 1810.3652,518.3436 1809.9300,517.5975 C 1808.9052,515.8496 1806.5779,518.5026 1805.9098,519.5956 C 1804.7270,521.5335 1803.0230,523.1956 1801.9284,525.1005 C 1800.5815,527.4466 1801.7680,528.7586 1804.0176,529.3216 C 1806.1151,529.8456 1807.1644,529.9546 1806.6820,532.5126 C 1806.4076,533.9746 1805.7679,537.2455 1808.3487,537.2726 C 1809.0920,537.2805 1810.0092,536.7545 1810.6042,537.3365 C 1811.1953,537.9145 1810.4945,539.4886 1810.9858,540.2976 C 1811.9925,541.9606 1813.1722,543.2046 1813.5053,545.2555 C 1813.6330,546.0416 1814.1213,545.8066 1813.2738,546.3546 C 1812.5979,546.7916 1813.4667,548.2476 1813.9840,548.3515 C 1812.4762,549.3786 1810.8749,550.6645 1809.9053,548.7415 C 1809.4542,547.8475 1808.5441,548.5166 1807.8215,548.7866 C 1807.4631,548.8815 1807.1079,548.9946 1806.7572,549.1236 C 1806.1672,549.4035 1806.4463,550.0815 1805.8166,550.3315 C 1803.7389,551.1516 1801.7082,549.2826 1799.6105,549.3936 C 1798.4894,549.4535 1796.9879,549.6445 1796.0047,549.1436 C 1795.9823,549.9406 1796.4751,552.1676 1794.9939,552.1676 C 1793.7384,552.1676 1791.8225,552.1975 1791.7497,553.8955 C 1791.7629,552.9116 1791.6375,552.9356 1791.3735,553.9675 C 1790.9222,553.5495 1790.6521,552.9755 1790.3428,552.4556 C 1790.5633,552.9076 1790.5882,553.3886 1790.4178,553.8945 C 1789.9073,553.5675 1789.4794,553.1595 1789.1321,552.6706 C 1789.3403,553.9886 1788.3430,553.2455 1787.4858,553.6785 C 1787.5230,553.2945 1787.5603,552.9095 1787.5974,552.5266 C 1786.6371,553.1555 1785.6037,551.9675 1786.6883,551.3755 C 1785.4598,551.5965 1783.9396,549.8855 1785.3119,548.9275 C 1783.9862,548.1405 1784.9786,545.8726 1783.8735,545.3056 C 1783.2538,544.9896 1779.9666,544.8515 1780.1666,543.8256 C 1780.5670,541.7495 1780.1446,541.1366 1779.2556,539.4946 C 1778.5931,538.2766 1776.3628,537.0236 1775.7353,539.2075 C 1777.0155,539.1445 1777.9767,538.0445 1778.4927,539.7115 C 1777.2205,538.8596 1775.6422,539.3845 1774.1996,539.8135 C 1772.6957,540.2605 1771.3485,539.7666 1769.9232,540.1716 C 1769.1492,540.3916 1763.9092,540.3216 1765.1143,541.7275 C 1764.4848,541.9055 1764.1136,541.6245 1764.1469,541.0076 C 1762.0184,542.0276 1760.6963,539.0785 1759.5475,539.5675 C 1759.6926,539.8095 1759.8399,540.0495 1759.9913,540.2885 C 1758.9480,540.4915 1754.8870,539.1845 1755.7204,541.5846 C 1754.7049,541.0575 1746.7511,540.4805 1747.2680,542.4475 C 1746.7313,542.4256 1746.3860,541.6645 1745.9718,541.4226 C 1745.2556,541.0036 1745.1582,541.9915 1744.6707,542.2545 C 1742.7118,543.3085 1741.4649,542.1115 1741.6772,540.5126 C 1741.9632,538.3575 1742.1653,530.5666 1746.3801,531.5045 C 1745.4236,528.2906 1752.8885,530.0316 1753.4337,528.2676 C 1753.7007,527.4976 1754.3892,524.5646 1754.0855,524.3045 C 1753.3549,523.6785 1752.2163,524.1326 1751.3025,524.0756 C 1749.9921,523.9946 1750.4713,521.8876 1750.5548,521.0236 C 1750.7152,519.3605 1750.4584,517.2236 1750.1291,515.6326 C 1749.9765,514.8966 1748.6387,514.8505 1748.0196,514.4485 C 1746.9914,513.7835 1745.8970,513.3815 1744.7837,512.8525 C 1742.3125,511.6805 1741.4560,509.9665 1740.4281,507.6275 C 1739.3456,505.1465 1737.3838,503.1726 1735.6426,501.1895"
     id="pk" />
  
  
  
  
  
  
  
  
  
  
  
  
  
  
  
  
  
  
  
  
  
  
  
  
  
  
  
  
  
  
  
  
  
  
  
  
  
  
  
  
  
  
  
  
  
  
  
  
  
  
  
  
  
  
  
  
  
  
  
  
  
  
  
  
  
  
  
  
  
  
  
  
  
  
  
  
  
  
  
  
  
  
  
  
  
  
  
  
  
  
  
  
  
  
  
  
  
  
  
  
  
  
  
  
  
  
  
  
  
  
  
  
  
  
  
  
  
  
  
  
  
  
  
  
  
  
  
  
  
  
  
  
  
  
  
  
  
  
  
  
  
  
  
  
  
  
  
  
  
  
  
  
  
  
  
  
  
  
  
  
  
  
  
  
  
  
  
  
  
  
  
  
  
  
  
  
  
  
  
  
  
  
  
  
  
  
  
  
  
  
  
  
  
  
  
  
  
  
  
  
  
  
  
  
  
  
  
  
  
  
  
  
  
  
  
  
  
  
  
  
  
  
  
  
</svg>
