<?xml version="1.0" encoding="UTF-8" standalone="no"?>
<svg
   xmlns:dc="http://purl.org/dc/elements/1.1/"
   xmlns:cc="http://web.resource.org/cc/"
   xmlns:rdf="http://www.w3.org/1999/02/22-rdf-syntax-ns#"
   xmlns:svg="http://www.w3.org/2000/svg"
   xmlns="http://www.w3.org/2000/svg"
   xmlns:sodipodi="http://sodipodi.sourceforge.net/DTD/sodipodi-0.dtd"
   xmlns:inkscape="http://www.inkscape.org/namespaces/inkscape"
   viewBox="0 0 2752.766 1537.631"
   version="1.0"
   height="476.7276"
   width="939.74725"
   id="svg1926"
   sodipodi:version="0.32"
   inkscape:version="0.45.1"
   sodipodi:docname="BlankMap-World6.svg"
   sodipodi:docbase="/home/bennett/Desktop"
   inkscape:output_extension="org.inkscape.output.svg.inkscape">
  <sodipodi:namedview
     inkscape:window-height="590"
     inkscape:window-width="822"
     inkscape:pageshadow="2"
     inkscape:pageopacity="0.0"
     guidetolerance="10.0"
     gridtolerance="10.0"
     objecttolerance="10.0"
     borderopacity="1.0"
     bordercolor="#666666"
     pagecolor="#ffffff"
     id="base"
     inkscape:zoom="0.77893284"
     inkscape:cx="469.87363"
     inkscape:cy="238.3638"
     inkscape:window-x="178"
     inkscape:window-y="46"
     inkscape:current-layer="svg1926" />
  <metadata
     id="metadata24111">
    <rdf:RDF>
      <cc:Work
         rdf:about="">
        <dc:format>image/svg+xml</dc:format>
        <dc:type
           rdf:resource="http://purl.org/dc/dcmitype/StillImage" />
        <cc:license
           rdf:resource="http://web.resource.org/cc/PublicDomain" />
        <dc:title>Blank World Map</dc:title>
      </cc:Work>
      <cc:License
         rdf:about="http://web.resource.org/cc/PublicDomain">
        <cc:permits
           rdf:resource="http://web.resource.org/cc/Reproduction" />
        <cc:permits
           rdf:resource="http://web.resource.org/cc/Distribution" />
        <cc:permits
           rdf:resource="http://web.resource.org/cc/DerivativeWorks" />
      </cc:License>
    </rdf:RDF>
  </metadata>
  <defs
     id="defs1930" />
  <style
     type="text/css"
     id="style_css_sheet">
/*
 * Below are Cascading Style Sheet (CSS) definitions in use in this file,
 * which allow easily changing how countries are displayed.
 *
 */

/*
 * Circles around small countries
 *
 * Change opacity to 1 to display all circles.
 *
 */
.circle
{
   opacity:0;
   fill:#b9b9b9;
   fill-opacity:1;
   stroke:black;
   stroke-width:0.99986893;
   stroke-miterlimit:3.97446823;
   stroke-dasharray:none;
   stroke-opacity:1;
}

/*
 * Land
 */
.land
{
   fill: #b9b9b9;
   fill-opacity: 1;
   stroke: #ffffff;
   stroke-opacity: 1;
   stroke-width: 0.99986997;
   stroke-miterlimit: 3.97446823;
   stroke-dasharray: none;
}

/*
 * Additional style rules
 *
 * The following are examples of colouring countries.  You can substitute these with your own styles to colour the countries on the map.
 *
 * Color a few countries:
 *
 * .gb, .au, .nc
 * {
 *    fill:       #ff0000;
 * }
 *
 * Color a few small country circles (and the countries):
 *
 * .ms, .ky
 * {
 *    opacity:    1;
 *    fill:       #ff0000;
 * }
 *
 */

/*
 * Antarctica
 */

.aq
{
   fill:#e6e6e6;
}

/*
 * Sea
 */

.ocean
{
   opacity: 1;
   color: #000000;
   fill:white;
   fill-opacity:1;
   fill-rule:nonzero;
   stroke:#000000;
   stroke-width:0.5;
   stroke-linecap:butt;
   stroke-linejoin:miter;
   marker:none;
   marker-start:none;
   marker-mid:none;
   marker-end:none;
   stroke-miterlimit:1;
   stroke-dasharray:none;
   stroke-dashoffset:0;
   stroke-opacity:1;
   visibility:visible;
   display:inline;
   overflow:visible;
}

.lake
{
   fill:#ffffff;
   fill-opacity:1;
   stroke:#ffffff;
   stroke-opacity:1;
   stroke-width:0.99986997;
   stroke-miterlimit:3.97446823;
   stroke-dasharray:none;
}
</style>
  
  
  
  
  
  
  
  
  
  
  
  
  
  
  
  
  
  
  
  
  
  
  
  
  
  
  
  
  
  
  
  
  
  
  
  
  
  
  
  
  
  
  
  
  
  
  
  
  
  
  
  
  
  
  
  
  
  
  
  
  
  
  
  
  
  
  
  
  
  
  
  
  
  
  
  
  
  
  
  
  
  
  
  
  
  <path
     class="land pl"
     d="M 1378.6285,304.8456 C 1378.6211,303.1286 1381.6522,302.6796 1380.6019,300.6785 C 1380.2375,299.9855 1379.3690,298.9525 1379.7310,298.1146 C 1379.8989,297.7265 1381.4722,298.2226 1381.8027,298.2215 C 1381.6498,297.6556 1381.8078,297.1515 1382.2770,296.7095 C 1382.1843,296.8286 1382.0940,296.9486 1382.0048,297.0695 C 1381.5007,296.6945 1380.9108,296.4785 1380.2341,296.4216 C 1380.5716,297.1855 1379.1795,296.7525 1379.1295,296.0616 C 1381.0765,296.6846 1384.2747,295.2486 1386.0869,294.6436 C 1388.2645,293.9165 1393.4809,294.1146 1394.9054,292.6096 C 1396.6523,290.7715 1400.5944,289.9246 1403.2379,289.3476 C 1406.5441,288.6255 1411.0807,288.0455 1413.7192,290.0136 C 1413.0029,289.5826 1412.1456,289.1415 1411.1790,289.4375 C 1412.2525,290.3306 1412.4237,292.0466 1414.0419,292.4466 C 1415.9886,292.9275 1418.7015,292.2056 1420.6413,291.7416 C 1419.7719,292.1655 1418.7390,292.2765 1417.8844,292.7425 C 1416.6598,293.4126 1419.2025,293.0525 1419.6536,292.8356 C 1423.0914,291.1836 1425.4573,292.5346 1429.0763,292.5346 C 1433.8850,292.5346 1438.8981,293.1255 1443.7299,292.5346 C 1447.3421,292.0946 1449.7137,293.8476 1450.3220,296.5906 C 1450.9689,299.4106 1454.7452,302.7246 1453.2720,305.8245 C 1452.5296,307.3936 1450.1974,306.7036 1449.1066,307.9065 C 1448.0178,309.1105 1447.0288,310.1816 1449.3728,310.5575 C 1453.1261,311.1596 1449.6382,313.7695 1450.6032,315.5245 C 1451.6162,317.3745 1452.3549,320.9366 1455.0545,321.4776 C 1454.5710,321.6816 1454.0796,321.8736 1453.5848,322.0535 C 1454.9040,323.1415 1455.1617,324.3766 1453.0676,325.0265 C 1450.9629,325.6796 1449.0760,327.3696 1447.4695,328.6785 C 1446.0135,329.8736 1443.4553,331.5245 1444.1304,333.3716 C 1444.4118,334.1426 1444.2347,334.9656 1444.5100,335.7326 C 1444.7285,336.3415 1445.5282,336.1325 1445.3308,336.9576 C 1444.0271,336.1125 1441.9620,336.1275 1440.4368,335.6445 C 1438.9362,335.1685 1438.2630,334.1445 1436.7119,333.7765 C 1435.1859,333.4135 1433.4685,333.2015 1431.9079,333.7545 C 1429.8918,334.4696 1429.7040,333.8186 1427.8158,333.6146 C 1426.3613,333.4576 1425.8050,333.7095 1424.6834,334.4995 C 1424.1980,334.8415 1423.5764,335.2785 1422.9329,335.3256 C 1421.8302,335.4056 1422.2538,334.3945 1421.8522,333.9336 C 1421.4214,333.4375 1420.3928,333.0265 1419.8426,332.4146 C 1418.9545,331.4285 1416.5418,333.5926 1415.5079,333.7176 C 1415.8163,332.9436 1412.1980,329.4685 1410.9354,329.1646 C 1409.5188,328.8245 1408.8469,328.3116 1407.4291,328.6966 C 1405.9472,329.0976 1405.9174,326.9785 1406.1211,326.2285 C 1403.7623,326.8356 1401.8308,325.4196 1399.7045,324.9325 C 1399.7368,325.5455 1400.0167,326.0496 1400.5451,326.4445 C 1399.6188,326.9665 1397.9218,328.3936 1396.9624,327.1735 C 1396.1769,326.1766 1395.7129,325.5106 1394.2882,325.0765 C 1394.6818,324.7905 1396.1435,324.1286 1395.8581,323.5396 C 1395.4829,322.7686 1393.4573,323.0965 1392.9286,323.5636 C 1392.9343,321.5915 1388.7056,322.9916 1387.8411,321.8655 C 1387.0057,320.7806 1387.5819,320.6965 1386.0058,320.3025 C 1384.8743,320.0185 1385.5624,321.8555 1383.8326,321.4035 C 1385.2311,318.6099 1386.1170,317.7135 1383.6721,316.2575 C 1382.6178,315.6306 1383.4916,314.9255 1382.6651,314.2815 C 1381.5879,313.4425 1382.8209,313.0505 1383.0342,312.1556 C 1383.1658,311.6055 1382.9503,310.6135 1382.8842,310.0546 C 1382.8182,309.4916 1381.4600,309.6325 1381.7487,308.6925 C 1381.9384,308.0765 1382.8608,307.4656 1381.8974,306.9635 C 1380.7281,306.3596 1379.6134,305.6545 1378.6285,304.8456"
     id="pl" />
  
  
  
  
  
  
  
  
  
  
  
  
  
  
  
  
  
  
  
  
  
  
  
  
  
  
  
  
  
  
  
  
  
  
  
  
  
  
  
  
  
  
  
  
  
  
  
  
  
  
  
  
  
  
  
  
  
  
  
  
  
  
  
  
  
  
  
  
  
  
  
  
  
  
  
  
  
  
  
  
  
  
  
  
  
  
  
  
  
  
  
  
  
  
  
  
  
  
  
  
  
  
  
  
  
  
  
  
  
  
  
  
  
  
  
  
  
  
  
  
  
  
  
  
  
  
  
  
  
  
  
  
  
  
  
  
  
  
  
  
  
  
  
  
  
  
</svg>
