<?xml version="1.0" encoding="UTF-8" standalone="no"?>
<svg
   xmlns:dc="http://purl.org/dc/elements/1.1/"
   xmlns:cc="http://web.resource.org/cc/"
   xmlns:rdf="http://www.w3.org/1999/02/22-rdf-syntax-ns#"
   xmlns:svg="http://www.w3.org/2000/svg"
   xmlns="http://www.w3.org/2000/svg"
   xmlns:sodipodi="http://sodipodi.sourceforge.net/DTD/sodipodi-0.dtd"
   xmlns:inkscape="http://www.inkscape.org/namespaces/inkscape"
   viewBox="0 0 2752.766 1537.631"
   version="1.0"
   height="476.7276"
   width="939.74725"
   id="svg1926"
   sodipodi:version="0.32"
   inkscape:version="0.45.1"
   sodipodi:docname="BlankMap-World6.svg"
   sodipodi:docbase="/home/bennett/Desktop"
   inkscape:output_extension="org.inkscape.output.svg.inkscape">
  <sodipodi:namedview
     inkscape:window-height="590"
     inkscape:window-width="822"
     inkscape:pageshadow="2"
     inkscape:pageopacity="0.0"
     guidetolerance="10.0"
     gridtolerance="10.0"
     objecttolerance="10.0"
     borderopacity="1.0"
     bordercolor="#666666"
     pagecolor="#ffffff"
     id="base"
     inkscape:zoom="0.77893284"
     inkscape:cx="469.87363"
     inkscape:cy="238.3638"
     inkscape:window-x="178"
     inkscape:window-y="46"
     inkscape:current-layer="svg1926" />
  <metadata
     id="metadata24111">
    <rdf:RDF>
      <cc:Work
         rdf:about="">
        <dc:format>image/svg+xml</dc:format>
        <dc:type
           rdf:resource="http://purl.org/dc/dcmitype/StillImage" />
        <cc:license
           rdf:resource="http://web.resource.org/cc/PublicDomain" />
        <dc:title>Blank World Map</dc:title>
      </cc:Work>
      <cc:License
         rdf:about="http://web.resource.org/cc/PublicDomain">
        <cc:permits
           rdf:resource="http://web.resource.org/cc/Reproduction" />
        <cc:permits
           rdf:resource="http://web.resource.org/cc/Distribution" />
        <cc:permits
           rdf:resource="http://web.resource.org/cc/DerivativeWorks" />
      </cc:License>
    </rdf:RDF>
  </metadata>
  <defs
     id="defs1930" />
  <style
     type="text/css"
     id="style_css_sheet">
/*
 * Below are Cascading Style Sheet (CSS) definitions in use in this file,
 * which allow easily changing how countries are displayed.
 *
 */

/*
 * Circles around small countries
 *
 * Change opacity to 1 to display all circles.
 *
 */
.circle
{
   opacity:0;
   fill:#b9b9b9;
   fill-opacity:1;
   stroke:black;
   stroke-width:0.99986893;
   stroke-miterlimit:3.97446823;
   stroke-dasharray:none;
   stroke-opacity:1;
}

/*
 * Land
 */
.land
{
   fill: #b9b9b9;
   fill-opacity: 1;
   stroke: #ffffff;
   stroke-opacity: 1;
   stroke-width: 0.99986997;
   stroke-miterlimit: 3.97446823;
   stroke-dasharray: none;
}

/*
 * Additional style rules
 *
 * The following are examples of colouring countries.  You can substitute these with your own styles to colour the countries on the map.
 *
 * Color a few countries:
 *
 * .gb, .au, .nc
 * {
 *    fill:       #ff0000;
 * }
 *
 * Color a few small country circles (and the countries):
 *
 * .ms, .ky
 * {
 *    opacity:    1;
 *    fill:       #ff0000;
 * }
 *
 */

/*
 * Antarctica
 */

.aq
{
   fill:#e6e6e6;
}

/*
 * Sea
 */

.ocean
{
   opacity: 1;
   color: #000000;
   fill:white;
   fill-opacity:1;
   fill-rule:nonzero;
   stroke:#000000;
   stroke-width:0.5;
   stroke-linecap:butt;
   stroke-linejoin:miter;
   marker:none;
   marker-start:none;
   marker-mid:none;
   marker-end:none;
   stroke-miterlimit:1;
   stroke-dasharray:none;
   stroke-dashoffset:0;
   stroke-opacity:1;
   visibility:visible;
   display:inline;
   overflow:visible;
}

.lake
{
   fill:#ffffff;
   fill-opacity:1;
   stroke:#ffffff;
   stroke-opacity:1;
   stroke-width:0.99986997;
   stroke-miterlimit:3.97446823;
   stroke-dasharray:none;
}
</style>
  
  
  
  
  
  
  
  
  
  
  
  
  
  
  
  
  
  
  
  
  
  
  
  
  
  
  
  
  
  
  
  
  
  
  
  
  
  
  
  
  
  
  
  
  
  
  
  
  
  
  
  
  
  
  
  
  
  
  
  
  
  
  
  
  
  
  
  
  
  
  
  
  
  
  
  
  
  
  
  
  <path
     class="land py"
     d="M 791.5472,951.9786 C 792.5923,949.1176 793.3404,946.1326 794.0257,943.2096 C 794.4042,941.5906 794.3342,940.0906 794.4044,938.4836 C 794.4729,936.9285 795.4534,935.5646 796.2836,934.2206 C 797.4667,932.3035 797.6832,929.5545 800.2090,929.1925 C 803.3373,928.7446 806.5430,928.1146 809.6151,927.2106 C 814.6098,925.7405 818.0503,926.0915 822.1669,928.4876 C 823.8056,929.4406 826.0444,930.6925 825.9449,932.9095 C 825.8856,934.2396 826.5004,938.3116 827.8736,938.7396 C 826.8513,939.7976 828.2806,940.1816 828.4446,940.9686 C 828.5679,941.5666 828.1750,943.4535 828.0013,944.1345 C 827.7883,944.6126 827.6434,945.1025 827.5654,945.6055 C 827.5791,946.2716 827.9951,946.9295 827.6891,947.6245 C 827.3257,948.4525 826.7363,949.5194 826.7373,950.3784 C 826.7383,950.8884 831.9964,952.4417 832.7894,952.4567 C 833.9540,952.4777 835.2961,952.9477 836.4392,952.8927 C 837.5455,952.8377 837.7102,950.3829 838.7289,951.1499 C 839.7272,951.8999 841.4130,952.7829 842.7267,952.9629 C 843.7067,953.0969 843.7922,953.3732 843.8710,954.4382 C 843.9507,955.5243 844.6437,956.4520 844.6675,957.7341 C 844.6986,959.3781 846.1000,960.2415 846.1245,961.8765 C 846.1518,963.7415 846.2050,967.5245 848.8502,967.2766 C 850.3229,967.1386 851.4258,966.0725 852.8450,965.8095 C 854.1584,965.5656 854.9731,967.0685 855.8222,967.6795 C 855.2117,968.0796 855.0987,968.6226 855.3372,969.1975 C 855.8040,970.3225 854.1292,970.9335 854.3165,972.0116 C 854.5136,973.1436 853.9226,974.2993 853.5915,975.4043 C 853.2726,976.4702 853.5510,977.4585 852.8649,978.4306 C 851.6757,980.1126 853.1176,983.7795 853.1029,985.6785 C 853.0987,986.3085 852.6164,989.9055 851.6959,990.0696 C 851.2442,990.1495 849.3217,991.9905 849.4305,992.3986 C 849.5406,992.8116 847.9063,992.7616 847.6466,992.8786 C 847.1317,993.1105 846.7365,993.8475 846.4564,994.2745 C 846.2001,994.6666 844.7264,997.4235 844.0593,996.7225 C 842.4000,994.9765 840.9833,996.4565 839.7455,998.2785 C 839.1970,998.0616 838.9180,997.1295 838.2574,997.1295 C 837.4014,997.1295 836.8609,997.5635 836.1230,997.0875 C 835.4022,996.6215 834.7495,997.3966 833.9491,997.4195 C 833.1819,997.4416 832.5088,997.0266 831.8242,996.8396 C 829.5303,996.2125 827.2989,995.2006 824.7013,995.4525 C 823.4706,995.5725 822.5829,996.3926 822.4310,994.9825 C 822.4015,994.7146 823.7680,992.6906 824.0724,992.5176 C 826.9528,990.8776 824.8740,986.4435 827.4239,985.2895 C 828.6051,984.7545 829.1355,982.5195 829.8686,981.4176 C 831.1912,979.4295 829.7456,977.9275 828.1720,976.8275 C 826.8897,975.9306 825.0328,976.0176 823.9722,975.0585 C 823.3430,974.4886 822.4819,974.2835 821.6314,974.1215 C 820.5869,973.9235 819.9476,973.0906 819.1023,972.5856 C 817.2104,971.4556 815.5842,970.4775 813.9014,969.0326 C 812.0595,967.4506 810.1387,967.8196 807.9702,966.9335 C 806.6260,966.3845 803.6238,966.0426 803.3548,964.3045 C 803.0813,962.5965 799.2496,961.2916 798.0513,960.1205 C 796.7845,958.8826 796.0897,957.4206 795.3005,955.8676 C 794.4108,954.1176 792.5716,953.5936 791.5472,951.9786"
     id="py" />
  
  
  
  
  
  
  
  
  
  
  
  
  
  
  
  
  
  
  
  
  
  
  
  
  
  
  
  
  
  
  
  
  
  
  
  
  
  
  
  
  
  
  
  
  
  
  
  
  
  
  
  
  
  
  
  
  
  
  
  
  
  
  
  
  
  
  
  
  
  
  
  
  
  
  
  
  
  
  
  
  
  
  
  
  
  
  
  
  
  
  
  
  
  
  
  
  
  
  
  
  
  
  
  
  
  
  
  
  
  
  
  
  
  
  
  
  
  
  
  
  
  
  
  
  
  
  
  
  
  
  
  
  
  
  
  
  
  
  
  
  
  
  
  
  
  
  
  
  
  
  
</svg>
