<?xml version="1.0" encoding="UTF-8" standalone="no"?>
<svg
   xmlns:dc="http://purl.org/dc/elements/1.1/"
   xmlns:cc="http://web.resource.org/cc/"
   xmlns:rdf="http://www.w3.org/1999/02/22-rdf-syntax-ns#"
   xmlns:svg="http://www.w3.org/2000/svg"
   xmlns="http://www.w3.org/2000/svg"
   xmlns:sodipodi="http://sodipodi.sourceforge.net/DTD/sodipodi-0.dtd"
   xmlns:inkscape="http://www.inkscape.org/namespaces/inkscape"
   viewBox="0 0 2752.766 1537.631"
   version="1.0"
   height="476.7276"
   width="939.74725"
   id="svg1926"
   sodipodi:version="0.32"
   inkscape:version="0.45.1"
   sodipodi:docname="BlankMap-World6.svg"
   sodipodi:docbase="/home/bennett/Desktop"
   inkscape:output_extension="org.inkscape.output.svg.inkscape">
  <sodipodi:namedview
     inkscape:window-height="590"
     inkscape:window-width="822"
     inkscape:pageshadow="2"
     inkscape:pageopacity="0.0"
     guidetolerance="10.0"
     gridtolerance="10.0"
     objecttolerance="10.0"
     borderopacity="1.0"
     bordercolor="#666666"
     pagecolor="#ffffff"
     id="base"
     inkscape:zoom="0.77893284"
     inkscape:cx="469.87363"
     inkscape:cy="238.3638"
     inkscape:window-x="178"
     inkscape:window-y="46"
     inkscape:current-layer="svg1926" />
  <metadata
     id="metadata24111">
    <rdf:RDF>
      <cc:Work
         rdf:about="">
        <dc:format>image/svg+xml</dc:format>
        <dc:type
           rdf:resource="http://purl.org/dc/dcmitype/StillImage" />
        <cc:license
           rdf:resource="http://web.resource.org/cc/PublicDomain" />
        <dc:title>Blank World Map</dc:title>
      </cc:Work>
      <cc:License
         rdf:about="http://web.resource.org/cc/PublicDomain">
        <cc:permits
           rdf:resource="http://web.resource.org/cc/Reproduction" />
        <cc:permits
           rdf:resource="http://web.resource.org/cc/Distribution" />
        <cc:permits
           rdf:resource="http://web.resource.org/cc/DerivativeWorks" />
      </cc:License>
    </rdf:RDF>
  </metadata>
  <defs
     id="defs1930" />
  <style
     type="text/css"
     id="style_css_sheet">
/*
 * Below are Cascading Style Sheet (CSS) definitions in use in this file,
 * which allow easily changing how countries are displayed.
 *
 */

/*
 * Circles around small countries
 *
 * Change opacity to 1 to display all circles.
 *
 */
.circle
{
   opacity:0;
   fill:#b9b9b9;
   fill-opacity:1;
   stroke:black;
   stroke-width:0.99986893;
   stroke-miterlimit:3.97446823;
   stroke-dasharray:none;
   stroke-opacity:1;
}

/*
 * Land
 */
.land
{
   fill: #b9b9b9;
   fill-opacity: 1;
   stroke: #ffffff;
   stroke-opacity: 1;
   stroke-width: 0.99986997;
   stroke-miterlimit: 3.97446823;
   stroke-dasharray: none;
}

/*
 * Additional style rules
 *
 * The following are examples of colouring countries.  You can substitute these with your own styles to colour the countries on the map.
 *
 * Color a few countries:
 *
 * .gb, .au, .nc
 * {
 *    fill:       #ff0000;
 * }
 *
 * Color a few small country circles (and the countries):
 *
 * .ms, .ky
 * {
 *    opacity:    1;
 *    fill:       #ff0000;
 * }
 *
 */

/*
 * Antarctica
 */

.aq
{
   fill:#e6e6e6;
}

/*
 * Sea
 */

.ocean
{
   opacity: 1;
   color: #000000;
   fill:white;
   fill-opacity:1;
   fill-rule:nonzero;
   stroke:#000000;
   stroke-width:0.5;
   stroke-linecap:butt;
   stroke-linejoin:miter;
   marker:none;
   marker-start:none;
   marker-mid:none;
   marker-end:none;
   stroke-miterlimit:1;
   stroke-dasharray:none;
   stroke-dashoffset:0;
   stroke-opacity:1;
   visibility:visible;
   display:inline;
   overflow:visible;
}

.lake
{
   fill:#ffffff;
   fill-opacity:1;
   stroke:#ffffff;
   stroke-opacity:1;
   stroke-width:0.99986997;
   stroke-miterlimit:3.97446823;
   stroke-dasharray:none;
}
</style>
  
  
  
  
  
  
  
  
  
  
  
  
  
  
  
  
  
  
  
  
  
  
  
  
  
  
  
  
  
  
  
  
  
  
  
  
  
  
  
  
  
  
  
  
  
  
  
  
  
  
  
  
  
  
  
  
  
  
  
  
  
  
  
  
  
  
  
  
  
  
  
  
  
  
  
  
  
  
  
  
  
  
  
  
  
  
  
  
  
  
  
  <g
     class="land sa"
     id="sa">
    <path
       d="M 1592.8383,616.2455 C 1592.8301,615.4345 1592.5219,614.6785 1591.8284,614.2285 C 1591.8014,614.4935 1591.7632,614.7575 1591.7150,615.0205 C 1590.7636,615.0575 1590.4627,614.0665 1589.6583,613.7965 C 1590.3955,615.0945 1592.4310,615.0685 1592.8383,616.2455"
       id="path3234" />
    <path
       d="M 1597.6725,617.5785 C 1597.8088,616.6705 1597.3380,614.5185 1596.5323,613.9985 C 1596.1220,613.7335 1594.2559,609.4995 1594.2891,611.5425 C 1594.2507,607.8835 1591.7179,606.9425 1589.7720,604.4655 C 1589.0348,603.5275 1587.9955,602.1735 1587.6783,601.0265 C 1587.2676,599.5465 1586.4367,599.1245 1585.7173,597.9215 C 1585.3026,597.2155 1585.7182,596.5995 1585.2353,595.8745 C 1584.8909,595.3595 1584.3548,593.7205 1584.1436,593.0595 C 1583.9454,592.4405 1583.8394,591.7865 1583.5748,591.1915 C 1583.3311,590.6445 1582.7684,590.5675 1582.5202,590.0865 C 1582.2832,589.6245 1582.5705,588.9945 1582.2307,588.5895 C 1581.8861,588.1805 1581.2926,588.1235 1580.9149,587.7615 C 1579.9661,586.8525 1578.8605,585.9335 1578.0321,584.9205 C 1577.0266,583.6905 1575.7514,584.2055 1574.5910,583.3355 C 1572.6653,581.8895 1571.4668,579.2045 1570.3101,577.1485 C 1569.6359,575.9515 1569.8788,575.2665 1569.8795,574.0035 C 1569.8794,572.6355 1568.9240,571.5035 1568.8875,570.1205 C 1568.8395,568.3055 1569.6957,566.5005 1569.4152,564.6925 C 1569.2868,563.8685 1568.8605,563.1715 1568.4421,562.4765 C 1568.2226,562.1105 1566.8704,560.2955 1568.4358,561.5365 C 1568.1230,560.6245 1567.3116,560.6145 1567.1491,559.6155 C 1567.0029,558.7225 1566.6015,557.7455 1566.2846,556.9025 C 1565.4070,554.5675 1563.5502,552.9765 1561.8203,551.2965 C 1560.5599,550.0725 1559.2591,549.8795 1557.6673,549.4495 C 1556.9888,549.2665 1556.7238,547.9915 1556.5485,547.4475 C 1556.1731,546.2815 1555.3744,545.4815 1554.6713,544.5095 C 1557.3171,543.5875 1553.8986,539.4345 1553.0978,538.4295 C 1552.5575,537.7545 1551.0082,536.5245 1551.1202,535.6335 C 1551.3149,534.0985 1549.3207,533.2115 1548.7014,531.8305 C 1546.8350,527.6405 1543.7791,524.1595 1541.7366,520.0485 C 1541.1126,518.7965 1540.4498,516.8655 1538.9224,516.4425 C 1538.2282,516.2505 1535.4783,515.8045 1535.3449,517.0635 C 1534.4670,516.2435 1536.1035,514.0885 1536.4186,513.2275 C 1537.0793,511.4225 1536.8291,509.5545 1537.1797,507.7225 C 1537.6413,505.3395 1538.0759,505.5695 1540.1983,505.8575 C 1541.9734,506.0985 1544.2838,507.1155 1546.0846,506.8855 C 1549.7145,506.4195 1550.0213,501.1755 1553.4041,500.6695 C 1554.6726,500.4795 1557.1744,500.7385 1557.7244,499.1615 C 1558.5014,496.9365 1559.5456,497.0155 1561.7139,495.8175 C 1561.0851,494.3298 1560.1050,493.6517 1559.4176,492.8377 C 1559.3663,492.7767 1556.5600,491.2515 1557.8281,491.7735 C 1556.3337,490.3265 1555.2480,488.7749 1553.9141,487.1909 L 1560.7161,485.1656 C 1562.6918,484.5779 1564.8078,484.1435 1566.8024,483.4275 C 1568.4695,482.8295 1569.8388,481.5015 1571.6125,481.8575 C 1574.3881,482.4155 1577.3323,482.5315 1579.8912,483.6665 C 1589.5527,487.9615 1597.1448,494.8165 1605.1499,501.1255 C 1606.8397,502.4625 1608.4797,503.7895 1610.0298,505.2625 C 1611.8164,506.9395 1613.3318,506.9195 1615.8664,507.1575 C 1618.7879,507.4315 1621.6959,507.7685 1624.6184,508.0305 C 1625.6905,508.1275 1626.2732,507.5965 1627.4243,507.8405 C 1628.9796,508.1695 1630.6071,508.3555 1632.2086,508.4965 C 1633.9058,508.6445 1633.8592,510.5605 1634.2899,511.7735 C 1634.9264,513.5755 1637.7568,512.4375 1639.2893,512.5685 C 1640.8740,512.7045 1641.0013,513.5395 1641.4010,514.8005 C 1641.8325,516.1655 1644.4681,517.9045 1643.8817,519.4355 C 1643.7616,519.1945 1643.6069,518.9785 1643.4166,518.7885 C 1642.8320,519.8855 1643.9884,519.7605 1643.7546,520.7285 C 1643.7728,520.7435 1648.5006,521.1705 1646.5441,522.5255 C 1647.2215,522.7395 1648.3583,526.2005 1649.2651,524.2505 C 1648.6161,525.9865 1652.7189,527.9365 1653.6246,528.9915 C 1653.1056,528.8375 1652.7331,528.5255 1652.5147,528.0575 C 1652.3925,529.9715 1653.5866,529.9995 1653.9000,531.5355 C 1654.0830,532.4355 1653.8462,534.3345 1652.5817,533.1595 C 1652.6305,534.1805 1652.2759,534.3835 1653.2182,534.5715 C 1653.3634,534.5995 1654.4240,537.2365 1654.4881,537.5425 C 1654.2272,537.3095 1653.9739,537.0695 1653.7262,536.8235 C 1654.4616,537.9925 1655.8780,538.6495 1656.4314,539.9435 C 1656.9927,541.2515 1657.1039,542.4515 1657.7998,543.7225 C 1658.3340,544.7005 1659.0864,546.3765 1660.3192,546.6765 C 1660.8832,546.8135 1663.0058,546.2835 1662.6232,547.3865 C 1662.8849,546.8265 1663.3984,546.6215 1663.9095,546.9545 C 1663.1455,547.7885 1662.0447,550.0945 1664.4566,549.5055 C 1664.2977,549.5445 1665.7723,552.0145 1665.8905,552.1975 C 1666.8333,553.6395 1667.8948,555.0015 1668.9085,556.3925 C 1670.1240,558.0615 1671.5451,560.9245 1673.8077,561.3205 C 1677.2739,561.9255 1680.8672,561.9715 1684.3458,562.6365 C 1685.3639,562.8305 1691.7827,564.4945 1692.3289,562.9765 C 1693.4637,564.7575 1694.5986,566.5395 1695.7325,568.3205 C 1696.6403,569.7485 1695.0096,572.7785 1694.5729,574.2765 C 1693.9408,576.4645 1693.3098,578.6525 1692.6793,580.8405 C 1692.3071,582.1335 1691.8857,586.1125 1690.5567,586.6965 C 1687.2012,588.1715 1683.5518,589.1965 1680.1199,590.4735 C 1678.1158,591.2195 1676.1112,591.9655 1674.1074,592.7105 C 1673.1062,593.0835 1672.1051,593.4565 1671.1042,593.8295 C 1670.4165,594.0865 1667.9107,594.6055 1668.3002,595.3075 C 1663.2243,595.9975 1658.1485,596.6625 1653.0726,597.3055 C 1650.7456,597.6005 1648.3028,597.6975 1646.0493,598.4665 C 1644.0598,599.1485 1642.2556,600.2795 1640.4184,601.2915 C 1637.6538,602.8155 1634.7124,606.9695 1634.0033,609.9365 C 1633.6905,611.2415 1632.1923,612.5285 1630.7787,612.5345 C 1629.3014,612.5405 1629.0930,610.5985 1628.0087,609.9935 C 1626.9469,609.4015 1624.9027,610.2475 1623.7016,610.1185 C 1621.8782,609.9225 1619.7029,609.9065 1617.9804,609.3145 C 1615.9580,608.6195 1614.5541,608.4575 1612.3664,608.4575 C 1610.4493,608.4575 1608.7269,609.6635 1606.8168,609.7225 C 1605.3544,609.7675 1604.2014,607.9155 1602.9317,608.2335 C 1601.2583,608.6525 1601.0204,610.8665 1600.8698,612.2195 C 1600.7220,613.5545 1602.0813,614.6225 1600.6816,615.2955 C 1599.2758,615.9725 1599.8121,618.0875 1597.6837,618.1085 C 1597.6781,617.9295 1597.6753,617.7535 1597.6725,617.5785"
       id="path3380" />
    <path
       d="M 1590.5131,612.4295 C 1591.0457,612.5615 1591.1594,612.7295 1590.8573,612.9335 C 1590.7425,612.7655 1590.6278,612.5975 1590.5131,612.4295"
       id="path5480" />
    <path
       d="M 1590.8573,612.9335 C 1591.0665,613.2435 1591.0993,613.5795 1590.9580,613.9415 C 1590.6936,613.8685 1590.4564,613.7485 1590.2433,613.5825 C 1590.4476,613.3655 1590.6529,613.1495 1590.8573,612.9335"
       id="path5482" />
    <path
       d="M 1648.6997,523.2935 C 1649.1206,522.7545 1649.6797,522.8985 1650.0430,523.2935 C 1649.5862,523.3765 1649.1388,523.3765 1648.6997,523.2935"
       id="path5488" />
  </g>
  
  
  
  
  
  
  
  
  
  
  
  
  
  
  
  
  
  
  
  
  
  
  
  
  
  
  
  
  
  
  
  
  
  
  
  
  
  
  
  
  
  
  
  
  
  
  
  
  
  
  
  
  
  
  
  
  
  
  
  
  
  
  
  
  
  
  
  
  
  
  
  
  
  
  
  
  
  
  
  
  
  
  
  
  
  
  
  
  
  
  
  
  
  
  
  
  
  
  
  
  
  
  
  
  
  
  
  
  
  
  
  
  
  
  
  
  
  
  
  
  
  
  
  
  
  
  
  
  
  
  
  
  
  
  
  
  
  
  
  
</svg>
