<?xml version="1.0" encoding="UTF-8" standalone="no"?>
<svg
   xmlns:dc="http://purl.org/dc/elements/1.1/"
   xmlns:cc="http://web.resource.org/cc/"
   xmlns:rdf="http://www.w3.org/1999/02/22-rdf-syntax-ns#"
   xmlns:svg="http://www.w3.org/2000/svg"
   xmlns="http://www.w3.org/2000/svg"
   xmlns:sodipodi="http://sodipodi.sourceforge.net/DTD/sodipodi-0.dtd"
   xmlns:inkscape="http://www.inkscape.org/namespaces/inkscape"
   viewBox="0 0 2752.766 1537.631"
   version="1.0"
   height="476.7276"
   width="939.74725"
   id="svg1926"
   sodipodi:version="0.32"
   inkscape:version="0.45.1"
   sodipodi:docname="BlankMap-World6.svg"
   sodipodi:docbase="/home/bennett/Desktop"
   inkscape:output_extension="org.inkscape.output.svg.inkscape">
  <sodipodi:namedview
     inkscape:window-height="590"
     inkscape:window-width="822"
     inkscape:pageshadow="2"
     inkscape:pageopacity="0.0"
     guidetolerance="10.0"
     gridtolerance="10.0"
     objecttolerance="10.0"
     borderopacity="1.0"
     bordercolor="#666666"
     pagecolor="#ffffff"
     id="base"
     inkscape:zoom="0.77893284"
     inkscape:cx="469.87363"
     inkscape:cy="238.3638"
     inkscape:window-x="178"
     inkscape:window-y="46"
     inkscape:current-layer="svg1926" />
  <metadata
     id="metadata24111">
    <rdf:RDF>
      <cc:Work
         rdf:about="">
        <dc:format>image/svg+xml</dc:format>
        <dc:type
           rdf:resource="http://purl.org/dc/dcmitype/StillImage" />
        <cc:license
           rdf:resource="http://web.resource.org/cc/PublicDomain" />
        <dc:title>Blank World Map</dc:title>
      </cc:Work>
      <cc:License
         rdf:about="http://web.resource.org/cc/PublicDomain">
        <cc:permits
           rdf:resource="http://web.resource.org/cc/Reproduction" />
        <cc:permits
           rdf:resource="http://web.resource.org/cc/Distribution" />
        <cc:permits
           rdf:resource="http://web.resource.org/cc/DerivativeWorks" />
      </cc:License>
    </rdf:RDF>
  </metadata>
  <defs
     id="defs1930" />
  <style
     type="text/css"
     id="style_css_sheet">
/*
 * Below are Cascading Style Sheet (CSS) definitions in use in this file,
 * which allow easily changing how countries are displayed.
 *
 */

/*
 * Circles around small countries
 *
 * Change opacity to 1 to display all circles.
 *
 */
.circle
{
   opacity:0;
   fill:#b9b9b9;
   fill-opacity:1;
   stroke:black;
   stroke-width:0.99986893;
   stroke-miterlimit:3.97446823;
   stroke-dasharray:none;
   stroke-opacity:1;
}

/*
 * Land
 */
.land
{
   fill: #b9b9b9;
   fill-opacity: 1;
   stroke: #ffffff;
   stroke-opacity: 1;
   stroke-width: 0.99986997;
   stroke-miterlimit: 3.97446823;
   stroke-dasharray: none;
}

/*
 * Additional style rules
 *
 * The following are examples of colouring countries.  You can substitute these with your own styles to colour the countries on the map.
 *
 * Color a few countries:
 *
 * .gb, .au, .nc
 * {
 *    fill:       #ff0000;
 * }
 *
 * Color a few small country circles (and the countries):
 *
 * .ms, .ky
 * {
 *    opacity:    1;
 *    fill:       #ff0000;
 * }
 *
 */

/*
 * Antarctica
 */

.aq
{
   fill:#e6e6e6;
}

/*
 * Sea
 */

.ocean
{
   opacity: 1;
   color: #000000;
   fill:white;
   fill-opacity:1;
   fill-rule:nonzero;
   stroke:#000000;
   stroke-width:0.5;
   stroke-linecap:butt;
   stroke-linejoin:miter;
   marker:none;
   marker-start:none;
   marker-mid:none;
   marker-end:none;
   stroke-miterlimit:1;
   stroke-dasharray:none;
   stroke-dashoffset:0;
   stroke-opacity:1;
   visibility:visible;
   display:inline;
   overflow:visible;
}

.lake
{
   fill:#ffffff;
   fill-opacity:1;
   stroke:#ffffff;
   stroke-opacity:1;
   stroke-width:0.99986997;
   stroke-miterlimit:3.97446823;
   stroke-dasharray:none;
}
</style>
  
  
  
  
  
  
  
  
  
  
  
  
  
  
  
  
  
  
  
  
  
  
  
  
  
  
  
  
  
  
  
  
  
  
  
  
  
  
  
  
  
  
  
  
  
  
  
  
  
  
  
  
  
  
  
  
  
  
  
  
  
  
  
  
  
  
  
  
  
  
  
  
  
  
  <g
     class="land sb"
     id="sb">
    <path
       d="M 2468.2031,828.3585 C 2468.1814,827.8215 2469.1379,826.9835 2468.7140,826.4965 C 2468.5164,826.2705 2467.6515,825.1075 2467.3608,825.1185 C 2465.7024,825.1795 2467.4306,827.9045 2468.2031,828.3585"
       id="path4726" />
    <path
       d="M 2467.4175,830.5885 C 2467.5473,829.8345 2467.5441,828.9875 2466.8991,828.3585 C 2466.9762,829.1145 2466.9828,829.8875 2467.4175,830.5885"
       id="path4728" />
    <path
       d="M 2469.1229,821.1585 C 2470.1562,822.5865 2472.5904,824.3075 2474.2700,823.4585 C 2473.6579,822.8185 2472.7916,822.5935 2472.1886,821.9435 C 2471.4133,821.1085 2471.3244,819.9575 2470.4524,819.1745 C 2469.2757,818.1155 2467.6894,817.2835 2466.2280,816.7685 C 2465.5419,818.2755 2468.4350,819.9995 2469.1229,821.1585"
       id="path4730" />
    <path
       d="M 2471.6303,830.0885 C 2472.1319,829.5695 2472.1311,827.6335 2471.0483,827.5495 C 2469.2842,827.4145 2470.2372,830.0135 2471.6303,830.0885"
       id="path4732" />
    <path
       d="M 2473.4412,835.1285 C 2472.5823,834.1215 2473.9981,833.3855 2473.3098,832.3885 C 2472.0043,833.3875 2472.3925,833.9055 2473.4412,835.1285"
       id="path4734" />
    <path
       d="M 2476.5524,833.7585 C 2477.4520,834.0645 2477.4945,833.2395 2477.3021,832.6085 C 2476.9328,831.3985 2475.8872,831.0265 2475.1717,830.0885 C 2474.7800,829.5755 2474.7211,827.8695 2473.6556,828.8545 C 2473.0966,829.3705 2471.9508,830.5635 2472.2021,831.4585 C 2473.1779,831.7085 2474.0616,830.6895 2474.8931,831.6835 C 2475.0335,831.9365 2475.0530,832.1855 2474.9518,832.4305 C 2474.9304,832.9655 2476.1914,833.5665 2476.5524,833.7585"
       id="path4736" />
    <path
       d="M 2475.2361,835.6975 C 2475.3399,834.9885 2475.0895,834.8955 2474.4848,835.4185 C 2474.7352,835.5115 2474.9856,835.6045 2475.2361,835.6975"
       id="path4738" />
    <path
       d="M 2474.8482,824.1085 C 2474.9620,823.4115 2474.7061,823.2925 2474.0803,823.7495 C 2474.3352,823.8685 2474.5922,823.9885 2474.8482,824.1085"
       id="path4740" />
    <path
       d="M 2475.8663,824.2585 C 2476.6157,824.3985 2476.5906,824.1545 2475.7912,823.5285 C 2475.8162,823.7715 2475.8412,824.0145 2475.8663,824.2585"
       id="path4742" />
    <path
       d="M 2478.1054,835.4885 C 2479.3365,835.1135 2478.4657,834.2405 2478.6066,833.3285 C 2477.1654,833.0355 2476.9055,834.8115 2478.1054,835.4885"
       id="path4744" />
    <path
       d="M 2481.2149,824.9685 C 2480.8542,824.6805 2481.0777,824.4265 2480.4557,824.6175 C 2480.7084,824.7345 2480.9611,824.8515 2481.2149,824.9685"
       id="path4748" />
    <path
       d="M 2482.0971,825.8385 C 2481.7402,825.2385 2481.0954,824.9865 2480.5301,825.3385 C 2481.0586,825.4745 2481.5813,825.6415 2482.0971,825.8385"
       id="path4750" />
    <path
       d="M 2486.5485,829.7985 C 2488.1118,831.2495 2490.3149,831.8925 2491.9727,833.3285 C 2492.5435,831.5085 2489.7435,828.8705 2488.0158,828.5495 C 2486.8660,828.3345 2485.5432,827.0315 2484.6407,826.2975 C 2484.1534,825.9015 2483.8630,825.4115 2483.2488,825.1935 C 2482.6503,824.9825 2482.0929,825.1195 2481.5460,824.6885 C 2482.5385,826.6745 2484.3294,829.0915 2486.5485,829.7985"
       id="path4752" />
    <path
       d="M 2486.5820,838.4385 C 2487.0012,838.2315 2487.1946,838.1315 2487.0749,837.5795 C 2486.2944,837.4785 2486.1303,837.7645 2486.5820,838.4385"
       id="path4754" />
    <path
       d="M 2493.5078,844.5585 C 2494.8428,844.7395 2495.6715,844.3945 2496.9870,845.0305 C 2497.7383,845.3925 2499.3133,845.9055 2499.5318,844.7645 C 2499.7936,843.3965 2497.2333,841.2465 2495.9647,841.1195 C 2494.7023,840.9945 2493.1663,841.7095 2492.1919,840.4785 C 2491.5590,839.6785 2490.8194,839.3755 2490.2866,840.3885 C 2489.4670,841.9455 2492.0532,844.2415 2493.5078,844.5585"
       id="path4756" />
    <path
       d="M 2490.9910,833.5385 C 2490.7512,833.0765 2490.6270,832.5965 2490.6203,832.0985 C 2489.2887,832.0985 2490.1983,833.2305 2490.9910,833.5385"
       id="path4758" />
    <path
       d="M 2493.2098,859.6785 C 2493.7299,859.9195 2494.8348,859.9995 2495.1433,860.1785 C 2495.9444,860.6425 2496.0231,861.7585 2497.0020,861.9785 C 2497.8771,860.6145 2492.7487,858.0775 2493.2098,859.6785"
       id="path4760" />
    <path
       d="M 2495.4921,838.5785 C 2495.7735,837.9305 2495.2960,837.3295 2494.5685,837.4285 C 2494.5207,838.0175 2494.8936,838.4715 2495.4921,838.5785"
       id="path4764" />
    <path
       d="M 2495.3321,839.1585 C 2495.7223,838.9055 2496.1352,838.6885 2496.5691,838.5085 C 2495.9474,838.2865 2495.4672,838.5705 2495.3321,839.1585"
       id="path4766" />
    <path
       d="M 2500.0562,838.7285 C 2501.6416,839.8045 2502.5515,841.5095 2503.8932,842.8295 C 2504.2410,841.9585 2503.0835,838.7015 2502.5678,837.7825 C 2502.2578,837.2315 2501.5384,836.1175 2500.9548,835.8265 C 2500.0512,835.3755 2501.4090,834.5805 2500.9459,834.0025 C 2500.4296,833.3585 2500.1606,832.2965 2499.4373,831.8295 C 2499.0950,831.6085 2497.6262,831.0645 2498.0486,832.1365 C 2498.8633,834.2125 2498.8317,836.7155 2500.0562,838.7285"
       id="path4768" />
    <path
       d="M 2507.3804,852.6175 C 2508.6678,853.0405 2509.9960,853.0325 2511.2973,853.3385 C 2510.2790,850.9445 2509.6076,850.6985 2507.5094,849.6505 C 2506.8217,849.3065 2503.5302,847.0965 2503.2655,848.5875 C 2503.8326,848.8755 2504.4091,849.0435 2504.6986,849.6525 C 2505.3752,851.0715 2506.1315,851.6735 2507.3804,852.6175"
       id="path4770" />
    <path
       d="M 2505.3485,844.3385 C 2505.6938,843.1305 2504.9230,841.8165 2503.9766,840.9585 C 2504.1155,841.6355 2504.1708,842.3105 2504.1383,842.9825 C 2504.1465,843.4775 2505.1636,843.8535 2505.3485,844.3385"
       id="path4772" />
    <path
       d="M 2538.3331,853.6285 C 2538.8186,852.8785 2540.4456,853.1505 2540.3139,851.9685 C 2539.1319,851.6555 2537.9864,852.0395 2537.5448,853.1285 C 2537.8083,853.2955 2538.0707,853.4625 2538.3331,853.6285"
       id="path4774" />
    <path
       d="M 2545.4765,860.7585 C 2545.6842,860.6615 2545.8920,860.5655 2546.0987,860.4685 C 2545.7940,859.8715 2545.2531,859.6165 2544.7439,860.0385 C 2544.9640,860.3035 2545.2075,860.5435 2545.4765,860.7585"
       id="path4778" />
  </g>
  
  
  
  
  
  
  
  
  
  
  
  
  
  
  
  
  
  
  
  
  
  
  
  
  
  
  
  
  
  
  
  
  
  
  
  
  
  
  
  
  
  
  
  
  
  
  
  
  
  
  
  
  
  
  
  
  
  
  
  
  
  
  
  
  
  
  
  
  
  
  
  
  
  
  
  
  
  
  
  
  
  
  
  
  
  
  
  
  
  
  
  
  
  
  
  
  
  
  
  
  
  
  
  
  
  
  
  
  
  
  
  
  
  
  
  
  
  
  
  
  
  
  
  
  
  
  
  
  
  
  
  
  
  
  
  
  
  
  
  
  
  
  
  
  
  
  
  
  
  
  
  
  
  
  
  
  
</svg>
