<?xml version="1.0" encoding="UTF-8" standalone="no"?>
<svg
   xmlns:dc="http://purl.org/dc/elements/1.1/"
   xmlns:cc="http://web.resource.org/cc/"
   xmlns:rdf="http://www.w3.org/1999/02/22-rdf-syntax-ns#"
   xmlns:svg="http://www.w3.org/2000/svg"
   xmlns="http://www.w3.org/2000/svg"
   xmlns:sodipodi="http://sodipodi.sourceforge.net/DTD/sodipodi-0.dtd"
   xmlns:inkscape="http://www.inkscape.org/namespaces/inkscape"
   viewBox="0 0 2752.766 1537.631"
   version="1.0"
   height="476.7276"
   width="939.74725"
   id="svg1926"
   sodipodi:version="0.32"
   inkscape:version="0.45.1"
   sodipodi:docname="BlankMap-World6.svg"
   sodipodi:docbase="/home/bennett/Desktop"
   inkscape:output_extension="org.inkscape.output.svg.inkscape">
  <sodipodi:namedview
     inkscape:window-height="590"
     inkscape:window-width="822"
     inkscape:pageshadow="2"
     inkscape:pageopacity="0.0"
     guidetolerance="10.0"
     gridtolerance="10.0"
     objecttolerance="10.0"
     borderopacity="1.0"
     bordercolor="#666666"
     pagecolor="#ffffff"
     id="base"
     inkscape:zoom="0.77893284"
     inkscape:cx="469.87363"
     inkscape:cy="238.3638"
     inkscape:window-x="178"
     inkscape:window-y="46"
     inkscape:current-layer="svg1926" />
  <metadata
     id="metadata24111">
    <rdf:RDF>
      <cc:Work
         rdf:about="">
        <dc:format>image/svg+xml</dc:format>
        <dc:type
           rdf:resource="http://purl.org/dc/dcmitype/StillImage" />
        <cc:license
           rdf:resource="http://web.resource.org/cc/PublicDomain" />
        <dc:title>Blank World Map</dc:title>
      </cc:Work>
      <cc:License
         rdf:about="http://web.resource.org/cc/PublicDomain">
        <cc:permits
           rdf:resource="http://web.resource.org/cc/Reproduction" />
        <cc:permits
           rdf:resource="http://web.resource.org/cc/Distribution" />
        <cc:permits
           rdf:resource="http://web.resource.org/cc/DerivativeWorks" />
      </cc:License>
    </rdf:RDF>
  </metadata>
  <defs
     id="defs1930" />
  <style
     type="text/css"
     id="style_css_sheet">
/*
 * Below are Cascading Style Sheet (CSS) definitions in use in this file,
 * which allow easily changing how countries are displayed.
 *
 */

/*
 * Circles around small countries
 *
 * Change opacity to 1 to display all circles.
 *
 */
.circle
{
   opacity:0;
   fill:#b9b9b9;
   fill-opacity:1;
   stroke:black;
   stroke-width:0.99986893;
   stroke-miterlimit:3.97446823;
   stroke-dasharray:none;
   stroke-opacity:1;
}

/*
 * Land
 */
.land
{
   fill: #b9b9b9;
   fill-opacity: 1;
   stroke: #ffffff;
   stroke-opacity: 1;
   stroke-width: 0.99986997;
   stroke-miterlimit: 3.97446823;
   stroke-dasharray: none;
}

/*
 * Additional style rules
 *
 * The following are examples of colouring countries.  You can substitute these with your own styles to colour the countries on the map.
 *
 * Color a few countries:
 *
 * .gb, .au, .nc
 * {
 *    fill:       #ff0000;
 * }
 *
 * Color a few small country circles (and the countries):
 *
 * .ms, .ky
 * {
 *    opacity:    1;
 *    fill:       #ff0000;
 * }
 *
 */

/*
 * Antarctica
 */

.aq
{
   fill:#e6e6e6;
}

/*
 * Sea
 */

.ocean
{
   opacity: 1;
   color: #000000;
   fill:white;
   fill-opacity:1;
   fill-rule:nonzero;
   stroke:#000000;
   stroke-width:0.5;
   stroke-linecap:butt;
   stroke-linejoin:miter;
   marker:none;
   marker-start:none;
   marker-mid:none;
   marker-end:none;
   stroke-miterlimit:1;
   stroke-dasharray:none;
   stroke-dashoffset:0;
   stroke-opacity:1;
   visibility:visible;
   display:inline;
   overflow:visible;
}

.lake
{
   fill:#ffffff;
   fill-opacity:1;
   stroke:#ffffff;
   stroke-opacity:1;
   stroke-width:0.99986997;
   stroke-miterlimit:3.97446823;
   stroke-dasharray:none;
}
</style>
  
  
  
  
  
  
  
  
  
  
  
  
  
  
  
  
  
  
  
  
  
  
  
  
  
  
  
  
  
  
  
  
  
  
  
  
  
  <g
     class="land se"
     id="se">
    <path
       d="M 1359.8708,260.9255 C 1359.2760,261.1655 1358.6828,261.4055 1358.0874,261.6455 C 1358.5850,262.2075 1360.5879,262.4755 1360.9972,261.6315 C 1361.2518,261.1065 1360.4579,260.2355 1359.8708,260.9255"
       id="path3388" />
    <path
       d="M 1359.4053,262.5095 C 1359.2249,262.7495 1359.0458,262.9885 1358.8668,263.2295 C 1359.6104,263.3165 1360.2532,262.9845 1360.5627,262.4375 C 1360.1760,262.4615 1359.7906,262.4855 1359.4053,262.5095"
       id="path3390" />
    <path
       d="M 1395.9003,275.5415 C 1396.0204,275.9895 1396.0528,276.4455 1395.9963,276.9085 C 1397.4751,276.6605 1398.2213,274.3775 1398.6066,273.4075 C 1399.3377,271.5735 1400.5213,269.9545 1401.4909,268.1975 C 1400.0357,268.1635 1399.5027,270.3545 1398.8803,271.1135 C 1397.7547,272.4875 1395.5227,273.6395 1395.9003,275.5415"
       id="path3392" />
    <path
       d="M 1409.5452,254.7335 C 1409.2391,254.8535 1408.9331,254.9735 1408.6271,255.0935 C 1408.9719,255.0405 1409.2779,254.9205 1409.5452,254.7335"
       id="path3394" />
    <path
       d="M 1410.8956,270.9335 C 1410.5869,270.1155 1414.1420,267.8485 1414.9232,267.4055 C 1411.5893,267.1425 1419.3053,262.8695 1413.7714,263.7945 C 1412.2096,264.0555 1410.7110,265.1075 1409.6397,266.0495 C 1408.6835,266.8935 1408.8599,270.0025 1410.4093,270.2145 C 1409.8768,270.6675 1409.4363,271.1715 1409.0866,271.7265 C 1409.8521,271.8575 1410.5110,271.4695 1410.8956,270.9335"
       id="path3396" />
    <path
       d="M 1411.1610,243.8625 C 1411.5209,244.2055 1411.9905,244.3495 1412.5715,244.2945 C 1412.2068,243.7665 1411.6409,243.3265 1410.9466,243.0715 C 1411.0178,243.3345 1411.0888,243.5985 1411.1610,243.8625"
       id="path3398" />
    <path
       d="M 1411.5473,254.1565 C 1411.3227,254.3965 1411.0996,254.6365 1410.8752,254.8775 C 1411.4932,254.7025 1411.5355,254.5975 1411.5473,254.1565"
       id="path3400" />
    <path
       d="M 1412.6685,251.2055 C 1412.9744,251.0605 1413.2789,250.9175 1413.5850,250.7725 C 1412.8716,250.5395 1412.3695,250.7935 1412.2917,251.4205 C 1412.4164,251.3495 1412.5424,251.2785 1412.6685,251.2055"
       id="path3402" />
    <path
       d="M 1416.1665,263.7335 C 1416.8182,263.9455 1417.4190,263.8495 1417.9707,263.4465 C 1417.3760,262.8075 1416.5643,263.0295 1416.1665,263.7335"
       id="path3404" />
    <path
       d="M 1441.3804,204.0455 C 1441.0659,204.0215 1440.7514,203.9975 1440.4368,203.9735 C 1440.9926,204.3545 1440.8895,204.2085 1441.3804,204.0455"
       id="path3408" />
    <path
       d="M 1356.3917,254.1565 C 1357.7138,253.9715 1358.0918,255.9625 1359.0363,255.7575 C 1360.5360,255.4315 1360.9752,252.6765 1360.4822,251.7855 C 1359.6016,250.1975 1361.5414,249.8585 1361.4243,248.4895 C 1361.3003,247.0055 1365.3666,247.8325 1365.9826,245.8155 C 1366.4366,244.3335 1367.3451,243.2615 1366.1489,241.9215 C 1365.4865,241.1815 1363.4111,239.6015 1365.3178,238.9655 C 1367.2223,238.3315 1368.1462,238.8625 1368.8872,236.8165 C 1369.3887,235.4335 1367.1482,235.0905 1365.9824,234.7455 C 1363.8257,234.1045 1363.5573,232.8215 1364.1445,231.2425 C 1364.8501,229.3515 1364.1474,228.3775 1363.4213,226.6175 C 1363.1390,225.9325 1363.3203,225.2645 1363.1740,224.5745 C 1363.0403,223.9435 1364.0508,223.7185 1363.8167,223.1605 C 1363.5269,222.4725 1362.8182,222.0735 1362.7059,221.3065 C 1362.5721,220.3865 1364.4177,219.9975 1363.8150,219.2005 C 1363.1339,218.3035 1366.4345,216.7355 1367.2660,216.2615 C 1369.4508,215.0205 1371.9014,215.1525 1374.4345,215.2545 C 1376.1077,215.3215 1378.6494,215.5305 1378.6473,213.7305 C 1378.6443,211.9405 1376.6844,211.7175 1374.8465,211.2445 C 1375.7877,210.3935 1376.8460,209.6225 1377.8974,208.8485 C 1378.8612,208.1405 1380.1508,206.3235 1381.2441,205.8845 C 1382.6250,205.3305 1381.9816,200.2895 1381.7304,199.5085 C 1383.8252,199.5685 1386.5772,199.4055 1388.4902,198.5785 C 1389.3016,198.2275 1388.7040,197.6155 1388.6265,197.1455 C 1388.5407,196.6315 1389.7596,196.3765 1390.1557,196.0765 C 1391.9509,194.7165 1394.0008,193.6695 1395.9947,192.5055 C 1397.6379,191.5525 1394.4701,190.3075 1393.8066,189.8605 C 1397.0148,188.8005 1398.0654,186.5855 1401.1804,185.5405 C 1403.1825,184.8705 1404.3722,185.1445 1406.3344,185.4735 C 1407.3249,185.6395 1409.6140,185.0225 1409.5753,184.0435 C 1409.5489,183.3905 1408.8077,182.4455 1409.2833,181.7985 C 1409.8353,181.0485 1413.3629,181.7875 1414.1890,181.8465 C 1417.4144,182.0785 1422.2533,183.6865 1425.2992,182.0835 C 1424.6602,181.8645 1423.9902,181.6965 1423.2920,181.5795 C 1425.0683,180.8235 1427.6095,179.1405 1424.7656,178.2665 C 1429.4511,176.8015 1434.0438,180.0525 1437.7208,181.2905 C 1440.2237,182.1365 1443.1689,182.2205 1445.6316,183.0705 C 1446.4349,183.3485 1451.2632,185.5115 1451.3318,186.0105 C 1451.3395,186.0645 1450.0824,186.5595 1450.0047,186.9825 C 1449.8573,187.7865 1449.8006,188.7115 1450.0521,189.4735 C 1450.1853,189.8775 1451.0897,189.7845 1451.5804,189.8855 C 1453.4761,190.2775 1451.8990,190.5485 1451.1178,191.1825 C 1450.2606,191.8795 1452.4207,193.1485 1452.9386,193.4855 C 1454.0934,194.2405 1453.5600,195.7005 1452.3598,196.5825 C 1449.9081,198.3865 1454.8273,200.2235 1455.2407,201.9535 C 1453.0606,202.1735 1449.3787,202.9975 1447.7284,201.7365 C 1447.9982,201.9635 1448.2472,202.2035 1448.4727,202.4575 C 1446.9345,202.4575 1445.7161,202.2075 1444.4936,201.5935 C 1443.9612,203.5645 1441.9900,200.6935 1441.2701,202.0885 C 1440.9289,202.7515 1441.8990,203.4235 1441.9503,204.0415 C 1440.9834,204.0245 1440.1055,203.7595 1439.2732,203.4655 C 1439.5914,203.6225 1439.9218,203.7665 1440.2617,203.8975 C 1439.5302,204.2555 1438.7886,204.3275 1438.0345,204.1145 C 1441.0267,204.8025 1435.5490,205.1355 1434.9439,205.1945 C 1435.4751,206.0075 1436.9877,206.3265 1435.5029,207.6415 C 1434.9912,208.0965 1432.2913,209.4485 1431.5386,209.1535 C 1432.0191,209.6125 1432.6485,209.9005 1433.4245,210.0175 C 1430.6907,210.4485 1435.4396,211.7365 1435.8869,212.3935 C 1433.9621,213.0725 1431.2890,213.8585 1430.3702,215.4725 C 1429.8433,216.3995 1426.4016,217.4755 1426.5748,218.2975 C 1426.4053,218.0245 1426.2177,217.7605 1426.0096,217.5055 C 1425.4259,218.4405 1423.7265,218.7505 1422.5734,218.9085 C 1421.3564,219.0745 1420.7984,220.9545 1419.8379,219.3045 C 1420.0255,220.5185 1419.7376,219.8635 1418.6591,219.8925 C 1418.0484,219.9095 1417.4417,220.9945 1416.8703,221.2865 C 1414.8108,222.3415 1412.3122,222.2085 1410.1563,223.4095 C 1410.7972,223.4735 1411.4439,223.4985 1412.0981,223.4805 C 1412.0646,224.2845 1411.1644,224.8165 1410.2222,224.4385 C 1409.7071,224.2315 1409.3118,225.3655 1408.3651,224.9935 C 1410.7417,224.8045 1407.8571,224.6315 1407.4610,224.7055 C 1407.7446,223.8905 1406.4340,223.5355 1406.4011,222.7615 C 1405.9803,223.9165 1407.6394,224.5825 1407.7745,225.6365 C 1407.9826,227.2635 1405.0471,228.3765 1403.7556,227.0815 C 1402.9420,228.3695 1403.8070,229.2965 1405.5167,229.3855 C 1404.3879,229.5035 1403.6854,230.9075 1403.4179,231.6175 C 1403.0094,232.7065 1404.7660,233.2645 1404.2297,234.2095 C 1403.5408,233.6255 1402.5445,233.1895 1401.4507,233.4175 C 1404.8828,234.0345 1399.4573,233.8165 1402.3931,234.2815 C 1399.8477,234.0935 1401.5836,234.5195 1402.2729,234.7135 C 1399.6325,234.3345 1403.7732,235.5885 1401.1977,235.7935 C 1402.4872,236.1515 1401.6539,237.5375 1401.6878,238.3025 C 1401.7389,239.4295 1402.5909,240.0565 1403.2145,240.9775 C 1402.8790,241.1065 1402.5379,241.2265 1402.1938,241.3375 C 1402.6478,241.5565 1404.8321,241.6615 1404.9888,241.9745 C 1405.6626,243.3225 1406.8702,242.3255 1408.1226,242.1295 C 1407.2907,244.1105 1411.6325,243.8285 1412.5184,244.9375 C 1410.2058,245.3005 1413.2383,245.9745 1413.9608,246.0895 C 1414.4791,246.1725 1417.0016,249.0785 1414.9121,247.6735 C 1415.5009,248.0915 1415.9819,248.6085 1416.3103,249.1855 C 1414.9255,249.2215 1413.8452,249.8325 1412.7420,250.4705 C 1411.7638,251.0365 1409.0174,251.3655 1410.7282,251.8495 C 1410.0383,251.9955 1409.4492,251.8745 1408.9603,251.4895 C 1408.7502,252.3745 1412.1360,252.9015 1411.8320,251.5615 C 1412.4370,251.8375 1413.5976,253.5155 1411.8362,252.7135 C 1414.1504,253.3675 1410.8546,252.6835 1410.4160,252.5705 C 1410.5198,253.1625 1411.0366,253.6035 1411.7637,253.7205 C 1410.9982,254.0385 1410.1566,254.0855 1409.3620,254.3165 C 1408.2575,254.6375 1408.0768,255.5065 1407.1681,255.9485 C 1406.5599,256.2445 1406.2600,254.3285 1405.2866,254.3695 C 1405.8407,254.7405 1406.0450,255.2205 1405.8997,255.8085 C 1405.6132,255.6405 1405.3266,255.4725 1405.0399,255.3045 C 1405.2769,255.9705 1405.2454,256.4565 1404.1012,256.0255 C 1404.2447,256.2615 1404.3780,256.5015 1404.5011,256.7455 C 1403.3082,257.2665 1402.0918,257.2075 1400.8271,257.1045 C 1401.1244,257.2855 1401.4097,257.4775 1401.6830,257.6805 C 1399.6529,258.5305 1397.2463,257.0025 1395.3396,258.1135 C 1396.8497,257.8125 1398.9948,257.9475 1399.7263,259.1935 C 1398.5054,259.7245 1397.3180,259.2475 1396.0839,259.1935 C 1397.9329,259.7235 1401.0365,262.1645 1397.7228,263.1525 C 1398.5230,263.0035 1398.7886,263.3405 1398.5619,263.9455 C 1397.9624,263.6685 1397.3154,263.5955 1396.6212,263.7285 C 1397.0181,264.1695 1399.1698,265.1765 1397.6279,265.6705 C 1396.2609,266.1085 1398.7275,266.7565 1397.9127,267.5825 C 1396.0485,269.4745 1397.5739,271.4465 1395.5660,273.4195 C 1394.2771,274.6915 1393.4584,278.3735 1390.6993,277.6815 C 1389.0466,277.2675 1387.2677,277.9155 1385.5783,277.8255 C 1384.6465,277.7765 1382.2230,277.6055 1383.4549,278.9215 C 1381.7988,279.4515 1380.3959,278.6295 1379.3789,280.3845 C 1378.8004,281.3875 1380.0869,282.1645 1380.1692,283.1235 C 1380.3251,284.9265 1377.3798,283.7335 1376.5076,283.7985 C 1373.7374,284.0055 1371.4871,284.0845 1368.7216,283.9615 C 1369.6163,283.9325 1370.2957,281.6445 1369.4768,280.9115 C 1368.5716,280.1025 1366.3334,277.9095 1366.4547,276.7615 C 1369.4149,277.6235 1367.7104,276.7645 1367.5269,275.3935 C 1371.6134,274.8395 1367.6544,273.7275 1366.6838,272.5835 C 1365.7465,271.4815 1364.3871,270.5825 1363.8023,269.2945 C 1363.4263,268.4695 1363.0027,267.3875 1361.6203,267.7605 C 1361.6975,267.2095 1361.7654,266.6375 1361.6259,266.0905 C 1361.3833,265.1455 1359.4766,265.0165 1361.2298,264.5205 C 1359.5343,265.0125 1361.2997,260.7295 1361.3969,260.2015 C 1360.2651,260.0085 1359.6708,261.0395 1358.5387,260.9215 C 1359.0480,260.4365 1359.5272,259.9325 1359.9777,259.4095 C 1358.3302,259.2735 1359.6336,260.1745 1358.0995,260.5605 C 1357.9512,259.8845 1357.3558,259.7325 1356.6864,260.1285 C 1357.4100,258.7745 1354.8608,255.0015 1356.3917,254.1565"
       id="path3452" />
    <path
       d="M 1403.5319,227.5175 C 1403.7298,227.8925 1404.0484,227.7485 1403.6654,228.3095 C 1403.6210,228.0455 1403.5766,227.7805 1403.5319,227.5175"
       id="path3454" />
  </g>
  
  
  
  
  
  
  
  
  
  
  
  
  
  
  
  
  
  
  
  
  
  
  
  
  
  
  
  
  
  
  
  
  
  
  
  
  
  
  
  
  
  
  
  
  
  
  
  
  
  
  
  
  
  
  
  
  
  
  
  
  
  
  
  
  
  
  
  
  
  
  
  
  
  
  
  
  
  
  
  
  
  
  
  
  
  
  
  
  
  
  
  
  
  
  
  
  
  
  
  
  
  
  
  
  
  
  
  
  
  
  
  
  
  
  
  
  
  
  
  
  
  
  
  
  
  
  
  
  
  
  
  
  
  
  
  
  
  
  
  
  
  
  
  
  
  
  
  
  
  
  
  
  
  
  
  
  
  
  
  
  
  
  
  
  
  
  
  
  
  
  
  
  
  
  
  
  
  
  
  
  
  
  
  
  
  
  
  
  
  
  
  
  
  
</svg>
