<?xml version="1.0" encoding="UTF-8" standalone="no"?>
<svg
   xmlns:dc="http://purl.org/dc/elements/1.1/"
   xmlns:cc="http://web.resource.org/cc/"
   xmlns:rdf="http://www.w3.org/1999/02/22-rdf-syntax-ns#"
   xmlns:svg="http://www.w3.org/2000/svg"
   xmlns="http://www.w3.org/2000/svg"
   xmlns:sodipodi="http://sodipodi.sourceforge.net/DTD/sodipodi-0.dtd"
   xmlns:inkscape="http://www.inkscape.org/namespaces/inkscape"
   viewBox="0 0 2752.766 1537.631"
   version="1.0"
   height="476.7276"
   width="939.74725"
   id="svg1926"
   sodipodi:version="0.32"
   inkscape:version="0.45.1"
   sodipodi:docname="BlankMap-World6.svg"
   sodipodi:docbase="/home/bennett/Desktop"
   inkscape:output_extension="org.inkscape.output.svg.inkscape">
  <sodipodi:namedview
     inkscape:window-height="590"
     inkscape:window-width="822"
     inkscape:pageshadow="2"
     inkscape:pageopacity="0.0"
     guidetolerance="10.0"
     gridtolerance="10.0"
     objecttolerance="10.0"
     borderopacity="1.0"
     bordercolor="#666666"
     pagecolor="#ffffff"
     id="base"
     inkscape:zoom="0.77893284"
     inkscape:cx="469.87363"
     inkscape:cy="238.3638"
     inkscape:window-x="178"
     inkscape:window-y="46"
     inkscape:current-layer="svg1926" />
  <metadata
     id="metadata24111">
    <rdf:RDF>
      <cc:Work
         rdf:about="">
        <dc:format>image/svg+xml</dc:format>
        <dc:type
           rdf:resource="http://purl.org/dc/dcmitype/StillImage" />
        <cc:license
           rdf:resource="http://web.resource.org/cc/PublicDomain" />
        <dc:title>Blank World Map</dc:title>
      </cc:Work>
      <cc:License
         rdf:about="http://web.resource.org/cc/PublicDomain">
        <cc:permits
           rdf:resource="http://web.resource.org/cc/Reproduction" />
        <cc:permits
           rdf:resource="http://web.resource.org/cc/Distribution" />
        <cc:permits
           rdf:resource="http://web.resource.org/cc/DerivativeWorks" />
      </cc:License>
    </rdf:RDF>
  </metadata>
  <defs
     id="defs1930" />
  <style
     type="text/css"
     id="style_css_sheet">
/*
 * Below are Cascading Style Sheet (CSS) definitions in use in this file,
 * which allow easily changing how countries are displayed.
 *
 */

/*
 * Circles around small countries
 *
 * Change opacity to 1 to display all circles.
 *
 */
.circle
{
   opacity:0;
   fill:#b9b9b9;
   fill-opacity:1;
   stroke:black;
   stroke-width:0.99986893;
   stroke-miterlimit:3.97446823;
   stroke-dasharray:none;
   stroke-opacity:1;
}

/*
 * Land
 */
.land
{
   fill: #b9b9b9;
   fill-opacity: 1;
   stroke: #ffffff;
   stroke-opacity: 1;
   stroke-width: 0.99986997;
   stroke-miterlimit: 3.97446823;
   stroke-dasharray: none;
}

/*
 * Additional style rules
 *
 * The following are examples of colouring countries.  You can substitute these with your own styles to colour the countries on the map.
 *
 * Color a few countries:
 *
 * .gb, .au, .nc
 * {
 *    fill:       #ff0000;
 * }
 *
 * Color a few small country circles (and the countries):
 *
 * .ms, .ky
 * {
 *    opacity:    1;
 *    fill:       #ff0000;
 * }
 *
 */

/*
 * Antarctica
 */

.aq
{
   fill:#e6e6e6;
}

/*
 * Sea
 */

.ocean
{
   opacity: 1;
   color: #000000;
   fill:white;
   fill-opacity:1;
   fill-rule:nonzero;
   stroke:#000000;
   stroke-width:0.5;
   stroke-linecap:butt;
   stroke-linejoin:miter;
   marker:none;
   marker-start:none;
   marker-mid:none;
   marker-end:none;
   stroke-miterlimit:1;
   stroke-dasharray:none;
   stroke-dashoffset:0;
   stroke-opacity:1;
   visibility:visible;
   display:inline;
   overflow:visible;
}

.lake
{
   fill:#ffffff;
   fill-opacity:1;
   stroke:#ffffff;
   stroke-opacity:1;
   stroke-width:0.99986997;
   stroke-miterlimit:3.97446823;
   stroke-dasharray:none;
}
</style>
  
  
  
  
  
  
  
  
  
  
  
  
  
  
  
  
  
  
  
  
  
  
  
  
  
  
  
  
  
  
  <path
     class="land so"
     d="M 1583.7310,739.5095 C 1583.7470,738.1025 1583.4060,736.1566 1584.0281,734.8396 C 1584.6206,733.5856 1585.9913,732.7075 1586.7976,731.5775 C 1588.4126,729.3196 1589.6584,725.1875 1592.0845,723.7346 C 1594.2992,722.4076 1596.8624,723.2655 1598.8122,721.2006 C 1601.0269,718.8555 1603.1207,717.3235 1606.4389,716.8456 C 1608.9209,716.4886 1613.2376,718.2465 1614.9917,715.9825 C 1617.2256,713.1036 1619.5228,710.2565 1621.8700,707.4665 C 1626.7870,701.6265 1631.9635,695.8496 1637.2553,690.3346 C 1634.6249,690.3346 1631.8868,690.7805 1629.3143,690.1186 C 1626.3982,689.3686 1623.6276,687.9606 1620.8152,686.9085 C 1617.9157,685.8246 1615.0315,684.6996 1612.1374,683.5996 C 1609.4580,682.5815 1607.1026,681.8705 1605.0698,679.8016 C 1604.3902,679.1086 1604.1721,678.7446 1603.2160,678.4905 C 1602.2429,678.2315 1601.8905,676.7215 1601.4485,675.9226 C 1600.6984,674.5666 1600.2025,673.4696 1599.1258,672.2736 C 1597.8421,670.8465 1596.3401,669.0166 1597.0022,666.8936 C 1597.7294,664.5635 1600.0231,662.6086 1601.0099,660.3116 C 1603.3838,661.6516 1604.4348,664.7626 1606.0206,666.8356 C 1607.9999,669.4235 1611.1271,670.1416 1614.3407,669.0956 C 1615.5747,668.6956 1617.1914,667.6115 1618.2601,666.8456 C 1620.1479,665.4915 1620.6609,665.7196 1622.9161,666.0906 C 1625.2460,666.4746 1626.2836,666.9625 1628.5187,665.6046 C 1629.6472,664.9185 1632.2724,662.3605 1633.6786,662.8646 C 1635.2276,663.4185 1636.3071,663.4876 1638.0139,662.9105 C 1639.0431,662.5625 1640.0249,662.0506 1641.0893,661.8175 C 1642.3078,661.5495 1643.0974,662.0725 1644.2457,662.1866 C 1646.1274,662.3745 1647.6147,661.2605 1649.2726,660.5996 C 1651.0013,659.9105 1652.9272,660.2156 1654.6771,659.3486 C 1656.1340,658.6265 1656.3494,656.7705 1657.5877,656.1766 C 1658.7883,655.5996 1662.5559,656.6025 1662.0226,658.2926 C 1661.3313,660.4815 1660.8714,661.8166 1661.1870,664.1376 C 1661.4050,665.7545 1661.7395,668.0725 1660.2717,669.3125 C 1661.2055,669.6656 1661.9917,669.4466 1661.8224,668.4485 C 1662.2786,668.7595 1662.7797,668.9755 1663.3246,669.0965 C 1662.9692,670.6476 1659.4993,668.5226 1659.4090,671.2455 C 1659.3480,673.4696 1659.4837,675.7455 1658.8122,677.9256 C 1658.2395,679.7876 1657.0827,681.2125 1655.9901,682.7755 C 1654.7183,684.5996 1654.8008,687.3016 1653.2542,689.0585 C 1652.6539,689.7405 1651.8434,689.9145 1651.4180,690.8146 C 1650.9948,691.7096 1651.3213,692.7196 1650.9641,693.6666 C 1650.1479,695.8265 1648.5607,697.5416 1647.4381,699.5316 C 1645.9435,702.1795 1645.7635,705.0946 1644.5824,707.8325 C 1643.3828,710.6155 1641.5547,713.0746 1639.8664,715.5796 C 1638.2294,718.0105 1637.1386,720.8265 1635.2934,723.0965 C 1633.2449,725.6176 1631.1920,728.1315 1629.1059,730.6205 C 1624.9138,735.6245 1620.6670,739.6916 1615.1663,743.2075 C 1612.8796,744.6816 1610.6040,746.2125 1608.6949,748.1685 C 1606.5452,750.3696 1604.0864,752.5426 1602.1439,754.9206 C 1600.2213,757.2745 1598.1995,759.5656 1596.2998,761.9285 C 1595.3743,763.0796 1594.5650,764.3166 1593.6646,765.4876 C 1593.1076,766.2115 1591.4401,768.8246 1591.1409,767.3006 C 1591.1444,769.7766 1589.6206,772.2015 1588.1300,774.0706 C 1588.2463,772.1055 1586.1730,770.0105 1585.0428,768.6046 C 1583.3717,766.5245 1583.8487,765.0426 1583.8201,762.5065 C 1583.7444,754.8396 1583.7027,747.1735 1583.7310,739.5095"
     id="so" />
  
  
  
  
  
  
  
  
  
  
  
  
  
  
  
  
  
  
  
  
  
  
  
  
  
  
  
  
  
  
  
  
  
  
  
  
  
  
  
  
  
  
  
  
  
  
  
  
  
  
  
  
  
  
  
  
  
  
  
  
  
  
  
  
  
  
  
  
  
  
  
  
  
  
  
  
  
  
  
  
  
  
  
  
  
  
  
  
  
  
  
  
  
  
  
  
  
  
  
  
  
  
  
  
  
  
  
  
  
  
  
  
  
  
  
  
  
  
  
  
  
  
  
  
  
  
  
  
  
  
  
  
  
  
  
  
  
  
  
  
  
  
  
  
  
  
  
  
  
  
  
  
  
  
  
  
  
  
  
  
  
  
  
  
  
  
  
  
  
  
  
  
  
  
  
  
  
  
  
  
  
  
  
  
  
  
  
  
  
  
  
  
  
  
  
  
  
  
  
  
  
</svg>
