<?xml version="1.0" encoding="UTF-8" standalone="no"?>
<svg
   xmlns:dc="http://purl.org/dc/elements/1.1/"
   xmlns:cc="http://web.resource.org/cc/"
   xmlns:rdf="http://www.w3.org/1999/02/22-rdf-syntax-ns#"
   xmlns:svg="http://www.w3.org/2000/svg"
   xmlns="http://www.w3.org/2000/svg"
   xmlns:sodipodi="http://sodipodi.sourceforge.net/DTD/sodipodi-0.dtd"
   xmlns:inkscape="http://www.inkscape.org/namespaces/inkscape"
   viewBox="0 0 2752.766 1537.631"
   version="1.0"
   height="476.7276"
   width="939.74725"
   id="svg1926"
   sodipodi:version="0.32"
   inkscape:version="0.45.1"
   sodipodi:docname="BlankMap-World6.svg"
   sodipodi:docbase="/home/bennett/Desktop"
   inkscape:output_extension="org.inkscape.output.svg.inkscape">
  <sodipodi:namedview
     inkscape:window-height="590"
     inkscape:window-width="822"
     inkscape:pageshadow="2"
     inkscape:pageopacity="0.0"
     guidetolerance="10.0"
     gridtolerance="10.0"
     objecttolerance="10.0"
     borderopacity="1.0"
     bordercolor="#666666"
     pagecolor="#ffffff"
     id="base"
     inkscape:zoom="0.77893284"
     inkscape:cx="469.87363"
     inkscape:cy="238.3638"
     inkscape:window-x="178"
     inkscape:window-y="46"
     inkscape:current-layer="svg1926" />
  <metadata
     id="metadata24111">
    <rdf:RDF>
      <cc:Work
         rdf:about="">
        <dc:format>image/svg+xml</dc:format>
        <dc:type
           rdf:resource="http://purl.org/dc/dcmitype/StillImage" />
        <cc:license
           rdf:resource="http://web.resource.org/cc/PublicDomain" />
        <dc:title>Blank World Map</dc:title>
      </cc:Work>
      <cc:License
         rdf:about="http://web.resource.org/cc/PublicDomain">
        <cc:permits
           rdf:resource="http://web.resource.org/cc/Reproduction" />
        <cc:permits
           rdf:resource="http://web.resource.org/cc/Distribution" />
        <cc:permits
           rdf:resource="http://web.resource.org/cc/DerivativeWorks" />
      </cc:License>
    </rdf:RDF>
  </metadata>
  <defs
     id="defs1930" />
  <style
     type="text/css"
     id="style_css_sheet">
/*
 * Below are Cascading Style Sheet (CSS) definitions in use in this file,
 * which allow easily changing how countries are displayed.
 *
 */

/*
 * Circles around small countries
 *
 * Change opacity to 1 to display all circles.
 *
 */
.circle
{
   opacity:0;
   fill:#b9b9b9;
   fill-opacity:1;
   stroke:black;
   stroke-width:0.99986893;
   stroke-miterlimit:3.97446823;
   stroke-dasharray:none;
   stroke-opacity:1;
}

/*
 * Land
 */
.land
{
   fill: #b9b9b9;
   fill-opacity: 1;
   stroke: #ffffff;
   stroke-opacity: 1;
   stroke-width: 0.99986997;
   stroke-miterlimit: 3.97446823;
   stroke-dasharray: none;
}

/*
 * Additional style rules
 *
 * The following are examples of colouring countries.  You can substitute these with your own styles to colour the countries on the map.
 *
 * Color a few countries:
 *
 * .gb, .au, .nc
 * {
 *    fill:       #ff0000;
 * }
 *
 * Color a few small country circles (and the countries):
 *
 * .ms, .ky
 * {
 *    opacity:    1;
 *    fill:       #ff0000;
 * }
 *
 */

/*
 * Antarctica
 */

.aq
{
   fill:#e6e6e6;
}

/*
 * Sea
 */

.ocean
{
   opacity: 1;
   color: #000000;
   fill:white;
   fill-opacity:1;
   fill-rule:nonzero;
   stroke:#000000;
   stroke-width:0.5;
   stroke-linecap:butt;
   stroke-linejoin:miter;
   marker:none;
   marker-start:none;
   marker-mid:none;
   marker-end:none;
   stroke-miterlimit:1;
   stroke-dasharray:none;
   stroke-dashoffset:0;
   stroke-opacity:1;
   visibility:visible;
   display:inline;
   overflow:visible;
}

.lake
{
   fill:#ffffff;
   fill-opacity:1;
   stroke:#ffffff;
   stroke-opacity:1;
   stroke-width:0.99986997;
   stroke-miterlimit:3.97446823;
   stroke-dasharray:none;
}
</style>
  
  
  
  
  
  
  
  
  
  
  
  
  
  
  
  
  
  
  
  
  
  
  
  
  
  
  
  
  
  
  
  
  
  
  
  
  
  
  
  
  
  
  
  
  
  
  
  
  
  
  
  
  
  
  
  
  
  
  
  
  
  
  
  
  
  
  
  
  
  <path
     class="land td"
     d="M 1373.4118,634.8216 C 1373.6842,634.1476 1374.3579,634.2995 1374.7086,633.7536 C 1375.0187,633.2705 1375.1115,632.5915 1375.6039,632.2305 C 1376.2220,631.7766 1376.3371,630.0545 1376.6039,629.3705 C 1378.0446,625.6726 1381.2583,622.2926 1383.8231,619.3166 C 1386.1744,616.5906 1388.8450,614.2845 1389.0491,610.6005 C 1389.3046,605.9846 1389.4295,601.3586 1389.7961,596.7476 C 1390.0840,593.1856 1389.9442,588.4986 1391.7747,585.3415 C 1392.8292,583.5236 1392.1549,582.6745 1390.9130,581.2545 C 1390.5600,580.8515 1390.1134,580.5345 1389.7552,580.1355 C 1389.1335,579.4456 1389.9610,578.8265 1389.6850,578.1155 C 1389.0470,576.4715 1387.8277,575.1985 1387.0659,573.6345 C 1386.4209,572.3116 1386.7189,570.7035 1386.5842,569.2845 C 1386.3613,566.9385 1385.6648,564.6745 1385.3070,562.3486 C 1385.2652,562.0785 1384.9109,560.6255 1385.2944,560.4396 C 1387.1463,559.5406 1388.9688,558.5825 1390.7980,557.6376 C 1392.0471,556.9926 1392.6431,556.4145 1393.9428,556.9825 C 1395.2463,557.5506 1396.4602,558.3225 1397.6606,559.0666 C 1404.6062,563.3776 1412.1210,566.9235 1419.2859,570.8415 C 1427.3886,575.2805 1435.4093,579.8315 1443.3436,584.5005 C 1446.5934,586.4166 1450.3976,588.1265 1453.3257,590.4796 C 1454.2205,591.1996 1453.8938,592.7555 1453.8895,593.7405 C 1453.8797,596.1545 1453.8163,598.5675 1453.8109,600.9805 C 1453.7934,608.5706 1454.0444,616.1305 1453.9105,623.7346 C 1451.9296,623.1236 1449.0287,623.1505 1447.0536,623.9185 C 1444.2775,624.9965 1447.1994,626.9016 1445.6848,628.6205 C 1445.0512,629.3406 1444.6293,630.1585 1444.0124,630.8646 C 1443.2404,631.7465 1444.3428,632.3605 1442.8063,632.7995 C 1441.0083,633.3135 1441.8392,636.0045 1442.9293,637.0556 C 1440.3861,639.0516 1439.1612,639.4846 1440.3717,642.8156 C 1441.1511,644.9615 1438.8030,645.6286 1437.9399,647.2115 C 1437.3475,648.2985 1437.3379,649.1706 1438.2095,650.0456 C 1438.9514,650.7906 1439.8870,649.7206 1440.6947,649.7286 C 1441.5246,649.7376 1442.2574,650.2025 1441.8917,650.9915 C 1441.2297,652.4185 1442.7371,653.7795 1442.2528,655.4176 C 1442.5150,655.2866 1442.7802,655.1666 1443.0522,655.0575 C 1443.6230,655.9865 1442.9504,657.0376 1442.9470,658.0095 C 1442.9419,659.1205 1443.4817,659.5835 1444.1757,660.3565 C 1444.8695,661.1305 1445.7193,660.9675 1446.0291,662.1245 C 1446.2840,663.0785 1445.5629,664.1685 1445.3268,665.0656 C 1444.5036,664.7236 1442.9168,664.0735 1442.0299,664.5116 C 1441.4768,664.7845 1440.7210,665.0316 1440.3560,665.5616 C 1439.9062,666.2136 1439.3194,665.8446 1438.8167,666.3916 C 1438.0118,667.2686 1436.6026,667.0065 1436.3142,668.3786 C 1436.1964,668.9435 1436.6303,669.4176 1436.4544,670.0045 C 1436.1339,671.0725 1435.0738,670.9596 1434.6314,671.7976 C 1433.9552,673.0806 1433.2821,673.0896 1432.3078,674.0516 C 1431.2143,675.1305 1431.0092,676.6345 1429.8713,677.6526 C 1429.0808,678.3605 1427.5147,678.8235 1427.0463,679.7595 C 1426.2053,681.4416 1424.5992,680.3505 1423.1166,681.0395 C 1421.7126,681.6925 1419.1842,681.8095 1417.6602,681.6645 C 1417.1404,681.6155 1413.9405,682.3636 1415.0765,683.2196 C 1415.5705,683.5925 1416.8891,683.8425 1416.5875,684.7265 C 1416.2411,685.7436 1415.0437,687.1785 1414.2494,687.9076 C 1413.6255,688.4786 1413.0738,689.9066 1412.2883,690.0996 C 1410.8028,690.4665 1409.0044,690.1835 1407.4708,690.3196 C 1405.4496,690.4986 1403.9437,690.9976 1402.2089,692.0646 C 1401.2557,692.6505 1399.4703,693.1645 1399.0206,694.2966 C 1398.3403,693.3166 1397.3940,692.6255 1397.0855,691.4166 C 1396.4517,691.6436 1396.1498,692.4725 1395.8460,693.0005 C 1395.6300,693.3745 1394.3950,693.4755 1393.9761,693.6585 C 1391.8990,694.5675 1391.1884,694.4066 1388.9809,694.4396 C 1390.1459,692.9836 1388.8466,692.4506 1388.4325,691.0856 C 1387.8682,689.2305 1387.3827,687.1505 1386.1590,685.5975 C 1385.1160,684.2736 1383.6752,683.3496 1382.3781,682.2995 C 1381.0898,681.2545 1380.3751,679.9825 1379.3349,678.7426 C 1378.6270,677.8986 1376.8280,676.3025 1377.6864,675.0765 C 1378.5560,673.8346 1378.9769,672.9525 1380.5970,673.0276 C 1382.4068,673.1115 1384.1798,673.8436 1385.9774,673.2355 C 1386.7677,672.9686 1387.4657,673.3626 1388.1710,673.6445 C 1388.8251,673.9045 1389.7430,673.3045 1390.3523,673.1276 C 1386.7650,671.1405 1385.1065,666.3486 1385.3149,662.4366 C 1385.3623,661.5426 1385.8193,660.8275 1385.9149,659.9775 C 1386.0137,659.0956 1385.7905,658.2075 1385.7716,657.3275 C 1385.7576,656.6626 1385.8997,655.5716 1385.5099,654.9836 C 1385.2031,654.5216 1384.3489,654.8646 1384.4058,654.0846 C 1384.4810,653.0556 1384.0705,651.6726 1383.8636,650.6635 C 1383.7138,649.9356 1382.6729,649.8246 1382.1505,649.5015 C 1380.4817,648.4736 1382.2611,646.0456 1379.3102,646.4266 C 1377.0733,646.7156 1375.8719,642.9625 1374.9403,641.4045 C 1373.7677,639.4525 1373.8387,636.9876 1373.4118,634.8216"
     id="td" />
  
  
  
  
  
  
  
  
  
  
  
  
  
  
  
  
  
  
  
  
  
  
  
  
  
  
  
  
  
  
  
  
  
  
  
  
  
  
  
  
  
  
  
  
  
  
  
  
  
  
  
  
  
  
  
  
  
  
  
  
  
  
  
  
  
  
  
  
  
  
  
  
  
  
  
  
  
  
  
  
  
  
  
  
  
  
  
  
  
  
  
  
  
  
  
  
  
  
  
  
  
  
  
  
  
  
  
  
  
  
  
  
  
  
  
  
  
  
  
  
  
  
  
  
  
  
  
  
  
  
  
  
  
  
  
  
  
  
  
  
  
  
  
  
  
  
  
  
  
  
  
  
  
  
  
  
  
  
  
  
  
  
</svg>
