<?xml version="1.0" encoding="UTF-8" standalone="no"?>
<svg
   xmlns:dc="http://purl.org/dc/elements/1.1/"
   xmlns:cc="http://web.resource.org/cc/"
   xmlns:rdf="http://www.w3.org/1999/02/22-rdf-syntax-ns#"
   xmlns:svg="http://www.w3.org/2000/svg"
   xmlns="http://www.w3.org/2000/svg"
   xmlns:sodipodi="http://sodipodi.sourceforge.net/DTD/sodipodi-0.dtd"
   xmlns:inkscape="http://www.inkscape.org/namespaces/inkscape"
   viewBox="0 0 2752.766 1537.631"
   version="1.0"
   height="476.7276"
   width="939.74725"
   id="svg1926"
   sodipodi:version="0.32"
   inkscape:version="0.45.1"
   sodipodi:docname="BlankMap-World6.svg"
   sodipodi:docbase="/home/bennett/Desktop"
   inkscape:output_extension="org.inkscape.output.svg.inkscape">
  <sodipodi:namedview
     inkscape:window-height="590"
     inkscape:window-width="822"
     inkscape:pageshadow="2"
     inkscape:pageopacity="0.0"
     guidetolerance="10.0"
     gridtolerance="10.0"
     objecttolerance="10.0"
     borderopacity="1.0"
     bordercolor="#666666"
     pagecolor="#ffffff"
     id="base"
     inkscape:zoom="0.77893284"
     inkscape:cx="469.87363"
     inkscape:cy="238.3638"
     inkscape:window-x="178"
     inkscape:window-y="46"
     inkscape:current-layer="svg1926" />
  <metadata
     id="metadata24111">
    <rdf:RDF>
      <cc:Work
         rdf:about="">
        <dc:format>image/svg+xml</dc:format>
        <dc:type
           rdf:resource="http://purl.org/dc/dcmitype/StillImage" />
        <cc:license
           rdf:resource="http://web.resource.org/cc/PublicDomain" />
        <dc:title>Blank World Map</dc:title>
      </cc:Work>
      <cc:License
         rdf:about="http://web.resource.org/cc/PublicDomain">
        <cc:permits
           rdf:resource="http://web.resource.org/cc/Reproduction" />
        <cc:permits
           rdf:resource="http://web.resource.org/cc/Distribution" />
        <cc:permits
           rdf:resource="http://web.resource.org/cc/DerivativeWorks" />
      </cc:License>
    </rdf:RDF>
  </metadata>
  <defs
     id="defs1930" />
  <style
     type="text/css"
     id="style_css_sheet">
/*
 * Below are Cascading Style Sheet (CSS) definitions in use in this file,
 * which allow easily changing how countries are displayed.
 *
 */

/*
 * Circles around small countries
 *
 * Change opacity to 1 to display all circles.
 *
 */
.circle
{
   opacity:0;
   fill:#b9b9b9;
   fill-opacity:1;
   stroke:black;
   stroke-width:0.99986893;
   stroke-miterlimit:3.97446823;
   stroke-dasharray:none;
   stroke-opacity:1;
}

/*
 * Land
 */
.land
{
   fill: #b9b9b9;
   fill-opacity: 1;
   stroke: #ffffff;
   stroke-opacity: 1;
   stroke-width: 0.99986997;
   stroke-miterlimit: 3.97446823;
   stroke-dasharray: none;
}

/*
 * Additional style rules
 *
 * The following are examples of colouring countries.  You can substitute these with your own styles to colour the countries on the map.
 *
 * Color a few countries:
 *
 * .gb, .au, .nc
 * {
 *    fill:       #ff0000;
 * }
 *
 * Color a few small country circles (and the countries):
 *
 * .ms, .ky
 * {
 *    opacity:    1;
 *    fill:       #ff0000;
 * }
 *
 */

/*
 * Antarctica
 */

.aq
{
   fill:#e6e6e6;
}

/*
 * Sea
 */

.ocean
{
   opacity: 1;
   color: #000000;
   fill:white;
   fill-opacity:1;
   fill-rule:nonzero;
   stroke:#000000;
   stroke-width:0.5;
   stroke-linecap:butt;
   stroke-linejoin:miter;
   marker:none;
   marker-start:none;
   marker-mid:none;
   marker-end:none;
   stroke-miterlimit:1;
   stroke-dasharray:none;
   stroke-dashoffset:0;
   stroke-opacity:1;
   visibility:visible;
   display:inline;
   overflow:visible;
}

.lake
{
   fill:#ffffff;
   fill-opacity:1;
   stroke:#ffffff;
   stroke-opacity:1;
   stroke-width:0.99986997;
   stroke-miterlimit:3.97446823;
   stroke-dasharray:none;
}
</style>
  
  
  
  
  
  
  
  
  
  
  
  
  
  
  
  
  
  
  
  
  
  
  
  
  
  
  
  
  
  
  
  
  
  
  
  
  
  
  
  
  
  
  
  
  
  
  
  
  
  
  
  <g
     class="land th"
     id="th">
    <path
       d="M 2021.8985,688.7495 C 2021.4664,689.9575 2021.6114,691.2645 2021.9964,692.4215 C 2023.1145,691.5595 2023.1011,689.4245 2021.8985,688.7495"
       id="path3902" />
    <path
       d="M 2023.6613,689.3975 C 2023.8540,689.9005 2024.0906,690.3875 2024.2382,690.9095 C 2024.3099,690.2945 2024.1173,689.7905 2023.6613,689.3975"
       id="path3904" />
    <path
       d="M 2028.0057,695.0135 C 2027.9513,694.4355 2027.7357,693.9315 2027.3590,693.5015 C 2027.3918,694.0905 2027.6074,694.5945 2028.0057,695.0135"
       id="path3906" />
    <path
       d="M 2032.3002,701.5655 C 2031.7645,702.0755 2031.6735,702.8305 2032.5187,703.0055 C 2032.4516,702.5245 2032.3785,702.0445 2032.3002,701.5655"
       id="path3908" />
    <path
       d="M 2034.7848,676.7255 C 2034.2628,677.1785 2034.2642,677.6105 2034.7897,678.0215 C 2035.2983,677.5735 2035.2960,677.1415 2034.7848,676.7255"
       id="path3910" />
    <path
       d="M 2034.7285,674.8535 C 2034.4797,675.3665 2034.8878,675.5795 2035.3440,675.5735 C 2035.1613,675.3145 2034.9554,675.0745 2034.7285,674.8535"
       id="path3912" />
    <path
       d="M 2052.2603,655.7015 C 2052.4958,655.7245 2052.7322,655.7495 2052.9677,655.7725 C 2053.0273,655.1895 2052.7022,654.7255 2052.2154,654.4765 C 2052.1835,654.8915 2052.1995,655.2995 2052.2603,655.7015"
       id="path3914" />
    <path
       d="M 2054.3159,657.8615 C 2054.0368,658.4225 2054.1168,658.9025 2054.5529,659.3015 C 2054.7432,658.7565 2054.6642,658.2765 2054.3159,657.8615"
       id="path3916" />
    <path
       d="M 2014.5182,598.7495 C 2014.8746,599.6065 2016.7597,599.5725 2017.4502,598.9445 C 2018.2832,598.1885 2017.0976,596.1375 2017.4345,595.1485 C 2017.6218,594.5975 2018.1219,594.2175 2018.2323,593.6365 C 2018.4041,592.7365 2017.7472,592.1535 2018.1338,591.1945 C 2018.3787,590.5835 2019.8093,588.5145 2020.2217,588.5905 C 2021.4303,588.8165 2022.5685,589.3445 2023.8833,589.0705 C 2024.5075,588.9415 2025.1866,588.2625 2025.7861,588.2755 C 2026.3959,588.2885 2026.5504,588.8745 2027.1810,588.0975 C 2027.8008,587.3325 2027.0671,585.8765 2028.3109,585.5735 C 2029.2042,585.3565 2032.3875,586.0125 2030.9564,583.7725 C 2032.2226,583.7105 2035.9262,581.5235 2035.5171,584.2055 C 2036.2345,584.0175 2036.5971,583.0485 2037.3688,583.2855 C 2037.7129,583.3905 2038.6937,584.9815 2038.9346,585.3065 C 2039.5254,586.0985 2038.3530,587.2865 2038.0264,588.0795 C 2037.5672,589.1975 2038.2268,590.0705 2038.9511,590.7335 C 2039.9674,591.6595 2041.9360,589.7975 2043.1990,590.1815 C 2043.9658,590.4135 2044.7064,590.4195 2044.1074,591.4695 C 2043.5316,592.4805 2044.7463,593.9305 2044.7742,594.8675 C 2044.7982,595.6605 2044.1508,596.4465 2044.1373,597.2865 C 2044.1283,598.4035 2043.0447,598.9815 2042.9834,599.9205 C 2042.9543,600.3725 2043.7469,600.6365 2043.7672,601.2215 C 2043.8011,602.1955 2043.7539,603.0555 2043.2802,603.9795 C 2042.1270,606.2315 2041.1742,607.5215 2043.7286,608.4685 C 2045.0294,606.7715 2047.9812,605.5075 2048.3500,603.2845 C 2049.5031,604.0155 2049.8315,602.0285 2050.7825,602.0105 C 2051.4396,601.9985 2052.1733,603.2575 2052.7364,603.5505 C 2053.1770,603.7805 2054.2480,603.8615 2054.4782,604.3345 C 2055.2075,605.8285 2056.5229,603.6365 2057.6377,603.8605 C 2058.2402,603.9815 2058.7503,601.5485 2059.7560,601.4125 C 2058.2660,599.5565 2063.3662,600.7595 2063.9140,600.9145 C 2066.9945,601.7865 2067.5970,606.1585 2070.3610,607.6825 C 2072.6436,608.9425 2070.9144,613.3805 2071.0994,615.5995 C 2071.2117,616.9465 2072.3390,617.6425 2072.9796,618.7015 C 2074.0095,620.4005 2074.5810,620.3935 2076.4172,621.1405 C 2074.6429,622.2495 2077.0059,623.0075 2077.6804,623.5935 C 2078.4668,624.2765 2076.4446,627.1165 2077.6390,626.9005 C 2077.2400,627.6135 2076.4354,628.3055 2076.8409,629.1145 C 2077.0707,629.5725 2077.6178,629.7775 2077.4848,630.4015 C 2077.1192,632.1185 2077.6031,633.8145 2075.7505,634.8785 C 2074.5137,635.5885 2073.7174,637.0745 2073.0078,635.4755 C 2072.2748,633.8295 2069.4640,635.4585 2068.1488,635.0535 C 2067.2360,634.7735 2066.2909,635.1115 2065.3456,635.2405 C 2064.3316,635.3785 2063.9387,634.7695 2063.0675,634.6985 C 2061.8664,634.5995 2060.3022,635.1475 2059.1409,635.5805 C 2057.3076,636.2645 2056.9377,638.3275 2055.8901,639.7185 C 2055.4049,640.3645 2054.2659,640.8965 2054.2661,641.7115 C 2054.2680,642.5735 2053.1744,642.2565 2052.6311,642.2375 C 2053.0279,643.7045 2053.0857,645.2905 2053.4966,646.7815 C 2053.8419,648.0275 2053.6303,649.6895 2054.7668,650.5315 C 2056.0430,651.4765 2055.6211,652.5295 2055.6163,653.9495 C 2055.6118,655.6895 2057.3982,657.1085 2056.9758,658.8705 C 2057.0346,657.9895 2056.3379,657.5095 2056.0088,656.8055 C 2055.5126,655.7425 2055.7074,654.4065 2054.2925,653.9735 C 2054.2882,654.4055 2054.2749,654.8365 2054.2504,655.2695 C 2053.9327,654.3145 2050.7271,653.8655 2052.7400,652.6055 C 2052.1885,652.9165 2051.8497,652.5845 2051.6962,652.1015 C 2051.5620,653.6525 2049.9217,651.2535 2049.6590,650.5175 C 2049.5413,651.8815 2048.7423,649.1175 2047.3985,649.7045 C 2046.7434,649.9905 2046.0603,650.5215 2045.3207,650.3725 C 2044.4149,650.1895 2043.3934,649.6865 2042.4196,649.9205 C 2040.5153,650.3785 2041.7254,648.4585 2041.6978,647.3175 C 2041.6822,646.6495 2041.7177,645.9725 2041.6833,645.3065 C 2041.6570,644.3855 2042.4188,643.6675 2042.3339,642.8125 C 2041.4741,643.4405 2039.4261,642.8605 2039.2411,641.8765 C 2039.3676,643.8505 2033.5211,642.1065 2034.9127,645.1735 C 2035.6383,646.7025 2035.0091,647.6745 2034.5670,649.2725 C 2034.0995,650.9685 2035.2355,652.5535 2034.7691,654.2605 C 2034.5840,654.9375 2034.0346,655.4485 2033.6453,656.0185 C 2033.1668,656.7165 2033.3612,657.5615 2032.8212,658.2495 C 2031.8054,659.5475 2031.4957,661.5425 2031.0375,663.0565 C 2030.4791,664.9025 2030.0957,666.2345 2029.1785,667.9295 C 2028.8514,668.5345 2029.3189,670.1975 2028.1700,670.0285 C 2029.4004,671.6025 2027.8666,674.5155 2028.5991,676.4185 C 2028.9485,677.3235 2029.5027,677.9265 2029.0008,678.8465 C 2028.4336,679.8885 2030.3246,680.1205 2030.8872,679.8315 C 2032.8691,678.8135 2034.0570,678.7925 2034.2174,681.4055 C 2034.2703,682.2675 2035.1800,688.4435 2036.5333,686.4455 C 2037.2090,688.2015 2037.2365,690.1535 2037.7264,691.9665 C 2038.1658,693.5875 2038.8855,695.2985 2038.8159,697.0295 C 2037.6287,696.8115 2037.6582,691.5715 2036.3164,692.4765 C 2035.3516,693.1275 2036.6372,695.1785 2036.9757,695.7025 C 2037.3805,696.3255 2037.8706,696.8055 2038.3995,697.3125 C 2038.8403,697.7355 2039.5253,697.5745 2039.9551,697.9965 C 2040.9511,698.9765 2041.1006,699.9995 2042.8254,700.0495 C 2044.0927,700.0855 2045.5339,699.5835 2046.6061,700.4345 C 2047.7862,701.3705 2047.9580,703.0815 2049.0957,704.0735 C 2050.2984,705.1225 2051.0831,705.6275 2050.3691,707.2895 C 2050.0413,708.0515 2049.4577,709.5995 2048.4977,709.8005 C 2047.7594,709.9555 2047.6763,708.7635 2047.1296,708.5435 C 2045.6964,707.9655 2044.7521,710.5425 2043.8168,710.5375 C 2042.0111,710.5285 2042.5502,708.7555 2043.2318,707.7665 C 2043.9740,706.6925 2042.7936,705.7095 2042.0148,705.5155 C 2040.9095,705.2405 2041.4374,703.6485 2040.0149,703.4565 C 2038.7059,703.2805 2037.9429,703.2255 2037.1537,702.1235 C 2036.0479,700.5785 2036.3342,703.2475 2035.7890,703.9425 C 2035.7816,701.9025 2030.7683,699.9885 2032.9192,697.8225 C 2031.1470,698.8525 2031.9708,696.1795 2031.1523,695.6635 C 2031.1880,696.7125 2030.3117,696.4895 2029.9606,695.8505 C 2029.5085,695.0255 2029.6813,693.7735 2028.9996,693.0865 C 2028.5479,692.6315 2027.5704,693.2245 2027.5145,692.4775 C 2027.4641,691.7985 2027.6171,691.5485 2027.2431,690.9815 C 2026.6798,690.1275 2026.7488,690.1925 2025.8585,690.0215 C 2025.3009,689.9155 2025.4531,688.9945 2025.2948,688.6075 C 2025.0391,687.9805 2024.7610,687.0145 2023.8467,687.2395 C 2022.8715,687.4795 2023.2263,688.3565 2022.8854,689.0405 C 2020.4949,688.5445 2021.1557,684.9425 2021.5177,683.2045 C 2022.2472,679.7045 2023.1675,676.1485 2024.0837,672.6815 C 2024.4389,671.3355 2025.6419,669.5475 2025.7341,668.2235 C 2025.8439,666.6675 2026.4605,666.5785 2027.1745,665.1925 C 2028.0736,663.4475 2033.0745,658.7665 2031.6766,656.8455 C 2031.0782,656.0275 2030.7086,653.8015 2030.5532,652.7985 C 2030.3169,651.2705 2029.7935,650.7515 2029.1414,649.4595 C 2028.7655,648.7155 2027.9547,646.6285 2028.1697,645.8165 C 2028.7289,643.8545 2028.7990,642.4265 2028.1968,640.5395 C 2027.2145,637.4685 2024.3539,635.6125 2022.6502,632.9865 C 2021.9041,631.8355 2021.1760,630.7025 2021.1492,629.2155 C 2021.1335,628.3795 2021.5877,626.4575 2022.6945,627.5515 C 2022.5398,626.5335 2023.7333,626.7515 2024.0596,626.0375 C 2024.5243,625.0245 2024.1305,622.6545 2024.0875,621.5665 C 2024.0259,619.7685 2025.3462,620.6885 2026.1030,619.6815 C 2026.5883,619.0355 2026.7675,617.6385 2026.1786,617.1105 C 2025.9310,617.6775 2025.5802,618.1815 2025.1262,618.6235 C 2024.0679,617.1205 2023.9135,615.3635 2023.5913,613.5835 C 2023.3872,612.4505 2021.8167,611.3295 2021.1145,610.4475 C 2020.0319,609.0895 2018.5633,607.6505 2017.6879,606.1695 C 2017.2036,605.3495 2017.5579,604.5765 2017.3832,603.6905 C 2017.2240,602.8915 2016.4343,602.2575 2016.7151,601.3435 C 2015.1530,601.7805 2014.7081,599.8155 2014.5182,598.7495"
       id="path3918" />
  </g>
  
  
  
  
  
  
  
  
  
  
  
  
  
  
  
  
  
  
  
  
  
  
  
  
  
  
  
  
  
  
  
  
  
  
  
  
  
  
  
  
  
  
  
  
  
  
  
  
  
  
  
  
  
  
  
  
  
  
  
  
  
  
  
  
  
  
  
  
  
  
  
  
  
  
  
  
  
  
  
  
  
  
  
  
  
  
  
  
  
  
  
  
  
  
  
  
  
  
  
  
  
  
  
  
  
  
  
  
  
  
  
  
  
  
  
  
  
  
  
  
  
  
  
  
  
  
  
  
  
  
  
  
  
  
  
  
  
  
  
  
  
  
  
  
  
  
  
  
  
  
  
  
  
  
  
  
  
  
  
  
  
  
  
  
  
  
  
  
  
  
  
  
  
  
  
  
  
  
  
  
</svg>
