<?xml version="1.0" encoding="UTF-8" standalone="no"?>
<svg
   xmlns:dc="http://purl.org/dc/elements/1.1/"
   xmlns:cc="http://web.resource.org/cc/"
   xmlns:rdf="http://www.w3.org/1999/02/22-rdf-syntax-ns#"
   xmlns:svg="http://www.w3.org/2000/svg"
   xmlns="http://www.w3.org/2000/svg"
   xmlns:sodipodi="http://sodipodi.sourceforge.net/DTD/sodipodi-0.dtd"
   xmlns:inkscape="http://www.inkscape.org/namespaces/inkscape"
   viewBox="0 0 2752.766 1537.631"
   version="1.0"
   height="476.7276"
   width="939.74725"
   id="svg1926"
   sodipodi:version="0.32"
   inkscape:version="0.45.1"
   sodipodi:docname="BlankMap-World6.svg"
   sodipodi:docbase="/home/bennett/Desktop"
   inkscape:output_extension="org.inkscape.output.svg.inkscape">
  <sodipodi:namedview
     inkscape:window-height="590"
     inkscape:window-width="822"
     inkscape:pageshadow="2"
     inkscape:pageopacity="0.0"
     guidetolerance="10.0"
     gridtolerance="10.0"
     objecttolerance="10.0"
     borderopacity="1.0"
     bordercolor="#666666"
     pagecolor="#ffffff"
     id="base"
     inkscape:zoom="0.77893284"
     inkscape:cx="469.87363"
     inkscape:cy="238.3638"
     inkscape:window-x="178"
     inkscape:window-y="46"
     inkscape:current-layer="svg1926" />
  <metadata
     id="metadata24111">
    <rdf:RDF>
      <cc:Work
         rdf:about="">
        <dc:format>image/svg+xml</dc:format>
        <dc:type
           rdf:resource="http://purl.org/dc/dcmitype/StillImage" />
        <cc:license
           rdf:resource="http://web.resource.org/cc/PublicDomain" />
        <dc:title>Blank World Map</dc:title>
      </cc:Work>
      <cc:License
         rdf:about="http://web.resource.org/cc/PublicDomain">
        <cc:permits
           rdf:resource="http://web.resource.org/cc/Reproduction" />
        <cc:permits
           rdf:resource="http://web.resource.org/cc/Distribution" />
        <cc:permits
           rdf:resource="http://web.resource.org/cc/DerivativeWorks" />
      </cc:License>
    </rdf:RDF>
  </metadata>
  <defs
     id="defs1930" />
  <style
     type="text/css"
     id="style_css_sheet">
/*
 * Below are Cascading Style Sheet (CSS) definitions in use in this file,
 * which allow easily changing how countries are displayed.
 *
 */

/*
 * Circles around small countries
 *
 * Change opacity to 1 to display all circles.
 *
 */
.circle
{
   opacity:0;
   fill:#b9b9b9;
   fill-opacity:1;
   stroke:black;
   stroke-width:0.99986893;
   stroke-miterlimit:3.97446823;
   stroke-dasharray:none;
   stroke-opacity:1;
}

/*
 * Land
 */
.land
{
   fill: #b9b9b9;
   fill-opacity: 1;
   stroke: #ffffff;
   stroke-opacity: 1;
   stroke-width: 0.99986997;
   stroke-miterlimit: 3.97446823;
   stroke-dasharray: none;
}

/*
 * Additional style rules
 *
 * The following are examples of colouring countries.  You can substitute these with your own styles to colour the countries on the map.
 *
 * Color a few countries:
 *
 * .gb, .au, .nc
 * {
 *    fill:       #ff0000;
 * }
 *
 * Color a few small country circles (and the countries):
 *
 * .ms, .ky
 * {
 *    opacity:    1;
 *    fill:       #ff0000;
 * }
 *
 */

/*
 * Antarctica
 */

.aq
{
   fill:#e6e6e6;
}

/*
 * Sea
 */

.ocean
{
   opacity: 1;
   color: #000000;
   fill:white;
   fill-opacity:1;
   fill-rule:nonzero;
   stroke:#000000;
   stroke-width:0.5;
   stroke-linecap:butt;
   stroke-linejoin:miter;
   marker:none;
   marker-start:none;
   marker-mid:none;
   marker-end:none;
   stroke-miterlimit:1;
   stroke-dasharray:none;
   stroke-dashoffset:0;
   stroke-opacity:1;
   visibility:visible;
   display:inline;
   overflow:visible;
}

.lake
{
   fill:#ffffff;
   fill-opacity:1;
   stroke:#ffffff;
   stroke-opacity:1;
   stroke-width:0.99986997;
   stroke-miterlimit:3.97446823;
   stroke-dasharray:none;
}
</style>
  
  
  
  
  
  
  
  
  
  
  
  
  
  
  
  
  
  
  
  
  
  
  
  
  
  
  
  
  
  
  
  
  
  
  
  
  
  
  
  
  
  
  
  
  
  
  
  
  
  
  
  
  
  
  
  
  
  
  
  
  
  
  
  
  
  
  
  
  
  
  
  
  
  
  
  
  
  
  
  
  
  
  
  
  
  
  
  
  
  
  
  
  
  
  
  
  
  
  
  
  
  
  
  
  
  
  
  
  
  
  
  
  
  
  
  
  
  
  
  
  
  
  
  <path
     class="land tj"
     d="M 1785.3959,419.7575 C 1786.3141,418.6646 1786.1376,416.8775 1788.3712,416.8775 C 1790.1119,416.8775 1791.5960,417.7776 1793.4091,417.5245 C 1794.7178,417.3415 1795.2129,416.4986 1795.2088,415.5215 C 1795.2071,415.1535 1795.2519,414.7475 1795.7893,414.6205 C 1797.0401,414.3236 1796.0492,413.2926 1797.0458,414.3566 C 1796.6001,414.0256 1796.3347,413.5075 1796.3902,412.9176 C 1796.7585,412.9165 1797.1174,412.9395 1797.4687,412.9885 C 1797.1943,411.9045 1795.6082,412.8976 1794.9129,412.2686 C 1796.7081,410.8686 1798.5091,412.4685 1800.3345,411.8365 C 1799.6897,411.2656 1800.5050,410.8326 1800.1584,410.0145 C 1799.8590,409.3086 1799.5416,407.5335 1800.8610,406.9986 C 1802.1339,406.4826 1802.7393,407.9875 1803.9247,407.7495 C 1805.5593,407.4216 1807.8321,405.9796 1808.8971,404.7076 C 1809.6085,405.3265 1809.9621,406.2305 1810.6453,406.8736 C 1811.5028,407.6816 1810.9227,408.1796 1809.5925,408.9486 C 1807.7851,409.9946 1808.2989,409.7566 1809.3489,410.5396 C 1809.8078,410.8825 1809.9445,411.6785 1810.5870,411.8356 C 1811.3283,412.0176 1812.2360,411.5066 1813.0166,411.4755 C 1812.1590,412.1515 1810.1410,414.0765 1809.1200,414.1395 C 1810.4812,413.2276 1806.7403,411.8365 1805.8259,411.7636 C 1803.6321,411.5876 1802.0593,412.5946 1801.4924,414.3555 C 1800.2417,412.7265 1800.0853,416.6596 1800.4011,417.3155 C 1800.8292,418.2086 1802.5395,417.2495 1803.3527,417.1825 C 1804.8053,417.0636 1805.6959,417.7045 1807.4014,416.8755 C 1807.3545,417.1406 1807.3113,417.4035 1807.2710,417.6676 C 1808.0837,417.4065 1809.0643,417.0586 1809.8214,417.2706 C 1810.6760,417.5106 1810.6302,418.4205 1811.3203,418.7656 C 1812.3325,419.2715 1815.0591,417.7045 1816.1889,417.1816 C 1817.4589,416.5935 1816.8624,417.7106 1817.2983,418.0145 C 1817.7350,418.1316 1818.1878,418.2076 1818.6599,418.2436 C 1818.8001,418.5066 1818.8794,418.7946 1818.8971,419.1066 C 1820.1181,420.1186 1821.7088,418.8356 1822.7950,420.5466 C 1823.7787,417.9885 1828.0912,418.9846 1829.8686,418.9656 C 1830.7866,418.9556 1832.7803,417.7776 1833.3022,418.4576 C 1833.7406,419.0295 1833.4833,419.7115 1833.5266,420.4056 C 1833.5837,421.3046 1834.6179,421.8856 1834.9865,422.6345 C 1833.2519,422.6445 1834.4357,424.9076 1834.7261,425.4026 C 1835.1454,426.1175 1835.9307,426.3456 1836.8440,425.5435 C 1837.8072,424.6986 1838.8572,425.1365 1839.6819,425.3865 C 1841.6564,425.9835 1843.0102,426.1635 1842.3770,428.4835 C 1842.1554,429.2955 1842.9167,432.0645 1843.4678,432.4386 C 1843.9895,432.7935 1843.2903,433.6866 1843.4157,434.2086 C 1843.5973,434.9656 1844.2302,435.0306 1844.6046,435.6076 C 1844.9065,436.0736 1843.8451,437.0405 1843.3017,437.1465 C 1842.8705,437.2305 1842.3805,436.6066 1842.0252,436.4885 C 1841.4619,436.3005 1839.0686,435.3856 1838.3968,435.9255 C 1837.3058,436.8055 1834.6192,437.8155 1833.4936,437.3225 C 1836.0713,435.2346 1831.0426,435.4026 1829.6003,436.3066 C 1828.2883,437.1286 1827.2325,437.1836 1826.3058,438.4645 C 1825.3207,439.8275 1823.4053,439.1506 1822.1493,440.1726 C 1815.9395,445.3236 1815.6381,436.6186 1817.3357,432.8616 C 1818.5247,430.2346 1816.0936,432.5396 1815.1771,431.5616 C 1814.8145,431.1746 1815.9225,429.6105 1815.9239,429.0505 C 1815.9253,428.2246 1813.8855,427.1626 1813.1729,426.9395 C 1810.8741,426.2226 1808.9262,429.8666 1807.1942,431.1755 C 1806.2745,431.8705 1807.4523,432.4656 1807.6042,433.0016 C 1807.9988,434.3865 1806.2151,435.1506 1805.1780,434.4735 C 1804.4115,433.9735 1802.6407,434.3736 1801.7007,434.8336 C 1800.3863,435.4785 1800.8677,436.2726 1801.0438,437.1155 C 1801.5707,439.6615 1798.3564,437.6615 1797.8376,437.1816 C 1796.8114,436.2316 1795.7202,437.3485 1794.2240,438.0415 C 1793.4183,438.4146 1792.1301,438.3136 1792.0339,439.4096 C 1790.8858,439.1685 1790.7858,440.7405 1789.7342,439.5956 C 1788.6275,438.3936 1788.1169,435.9065 1789.5985,434.1916 C 1791.4812,432.0165 1794.3513,429.7806 1791.9414,427.8936 C 1790.0627,426.4266 1793.1668,422.2726 1790.0994,422.2135 C 1789.2267,422.1966 1787.9967,422.4665 1787.7986,421.5686 C 1787.5315,420.3596 1785.7955,420.9835 1785.3959,419.7575"
     id="tj" />
  
  
  
  
  
  
  
  
  
  
  
  
  
  
  
  
  
  
  
  
  
  
  
  
  
  
  
  
  
  
  
  
  
  
  
  
  
  
  
  
  
  
  
  
  
  
  
  
  
  
  
  
  
  
  
  
  
  
  
  
  
  
  
  
  
  
  
  
  
  
  
  
  
  
  
  
  
  
  
  
  
  
  
  
  
  
  
  
  
  
  
  
  
  
  
  
  
  
  
  
  
  
  
  
  
  
  
  
</svg>
