<?xml version="1.0" encoding="UTF-8" standalone="no"?>
<svg
   xmlns:dc="http://purl.org/dc/elements/1.1/"
   xmlns:cc="http://web.resource.org/cc/"
   xmlns:rdf="http://www.w3.org/1999/02/22-rdf-syntax-ns#"
   xmlns:svg="http://www.w3.org/2000/svg"
   xmlns="http://www.w3.org/2000/svg"
   xmlns:sodipodi="http://sodipodi.sourceforge.net/DTD/sodipodi-0.dtd"
   xmlns:inkscape="http://www.inkscape.org/namespaces/inkscape"
   viewBox="0 0 2752.766 1537.631"
   version="1.0"
   height="476.7276"
   width="939.74725"
   id="svg1926"
   sodipodi:version="0.32"
   inkscape:version="0.45.1"
   sodipodi:docname="BlankMap-World6.svg"
   sodipodi:docbase="/home/bennett/Desktop"
   inkscape:output_extension="org.inkscape.output.svg.inkscape">
  <sodipodi:namedview
     inkscape:window-height="590"
     inkscape:window-width="822"
     inkscape:pageshadow="2"
     inkscape:pageopacity="0.0"
     guidetolerance="10.0"
     gridtolerance="10.0"
     objecttolerance="10.0"
     borderopacity="1.0"
     bordercolor="#666666"
     pagecolor="#ffffff"
     id="base"
     inkscape:zoom="0.77893284"
     inkscape:cx="469.87363"
     inkscape:cy="238.3638"
     inkscape:window-x="178"
     inkscape:window-y="46"
     inkscape:current-layer="svg1926" />
  <metadata
     id="metadata24111">
    <rdf:RDF>
      <cc:Work
         rdf:about="">
        <dc:format>image/svg+xml</dc:format>
        <dc:type
           rdf:resource="http://purl.org/dc/dcmitype/StillImage" />
        <cc:license
           rdf:resource="http://web.resource.org/cc/PublicDomain" />
        <dc:title>Blank World Map</dc:title>
      </cc:Work>
      <cc:License
         rdf:about="http://web.resource.org/cc/PublicDomain">
        <cc:permits
           rdf:resource="http://web.resource.org/cc/Reproduction" />
        <cc:permits
           rdf:resource="http://web.resource.org/cc/Distribution" />
        <cc:permits
           rdf:resource="http://web.resource.org/cc/DerivativeWorks" />
      </cc:License>
    </rdf:RDF>
  </metadata>
  <defs
     id="defs1930" />
  <style
     type="text/css"
     id="style_css_sheet">
/*
 * Below are Cascading Style Sheet (CSS) definitions in use in this file,
 * which allow easily changing how countries are displayed.
 *
 */

/*
 * Circles around small countries
 *
 * Change opacity to 1 to display all circles.
 *
 */
.circle
{
   opacity:0;
   fill:#b9b9b9;
   fill-opacity:1;
   stroke:black;
   stroke-width:0.99986893;
   stroke-miterlimit:3.97446823;
   stroke-dasharray:none;
   stroke-opacity:1;
}

/*
 * Land
 */
.land
{
   fill: #b9b9b9;
   fill-opacity: 1;
   stroke: #ffffff;
   stroke-opacity: 1;
   stroke-width: 0.99986997;
   stroke-miterlimit: 3.97446823;
   stroke-dasharray: none;
}

/*
 * Additional style rules
 *
 * The following are examples of colouring countries.  You can substitute these with your own styles to colour the countries on the map.
 *
 * Color a few countries:
 *
 * .gb, .au, .nc
 * {
 *    fill:       #ff0000;
 * }
 *
 * Color a few small country circles (and the countries):
 *
 * .ms, .ky
 * {
 *    opacity:    1;
 *    fill:       #ff0000;
 * }
 *
 */

/*
 * Antarctica
 */

.aq
{
   fill:#e6e6e6;
}

/*
 * Sea
 */

.ocean
{
   opacity: 1;
   color: #000000;
   fill:white;
   fill-opacity:1;
   fill-rule:nonzero;
   stroke:#000000;
   stroke-width:0.5;
   stroke-linecap:butt;
   stroke-linejoin:miter;
   marker:none;
   marker-start:none;
   marker-mid:none;
   marker-end:none;
   stroke-miterlimit:1;
   stroke-dasharray:none;
   stroke-dashoffset:0;
   stroke-opacity:1;
   visibility:visible;
   display:inline;
   overflow:visible;
}

.lake
{
   fill:#ffffff;
   fill-opacity:1;
   stroke:#ffffff;
   stroke-opacity:1;
   stroke-width:0.99986997;
   stroke-miterlimit:3.97446823;
   stroke-dasharray:none;
}
</style>
  
  
  
  
  
  
  
  
  
  
  
  
  
  
  
  
  
  
  
  
  
  
  
  
  
  
  
  
  
  
  
  
  
  
  
  
  
  
  
  
  
  
  
  
  
  
  
  
  
  
  
  
  
  
  
  
  
  
  
  
  
  
  
  
  
  
  
  
  
  
  
  
  
  
  
  
  
  
  
  
  
  
  
  
  
  
  
  
  
  
  
  
  
  
  
  
  
  
  
  
  
  
  
  
  
  
  
  
  
  
  
  
  
  
  
  
  
  
  
  
  
  
  
  
  
  
  
  
  
  
  
  
  
  
  
  
  
  
  
  
  
  
  <path
     class="land tm"
     d="M 1671.2308,398.6615 C 1675.9981,393.7896 1682.5017,392.6375 1687.5228,395.1705 C 1689.9022,396.3736 1691.0031,398.5666 1692.4535,400.5586 C 1694.4871,403.3035 1697.4318,402.2595 1701.0118,402.4866 C 1702.6337,402.5895 1704.2172,402.5335 1705.7927,402.7525 C 1707.6832,403.0156 1706.6388,401.8426 1706.5205,401.3256 C 1705.8801,398.5396 1705.5168,397.5935 1708.4907,395.4126 C 1710.2732,394.1066 1712.6776,395.9706 1713.4058,393.1426 C 1714.0495,390.6426 1716.7765,393.7076 1717.6596,393.9096 C 1717.3888,393.5525 1715.0421,391.3166 1715.0593,391.1766 C 1715.1320,390.5876 1717.9106,391.1535 1718.1776,390.6415 C 1718.6857,389.6646 1719.5107,390.4706 1719.9596,390.9656 C 1720.6602,391.7385 1721.8033,391.6465 1722.7649,392.0745 C 1723.6105,392.4506 1723.2463,393.5145 1724.2313,393.7745 C 1725.1348,394.0125 1726.2383,393.7695 1727.2110,393.8016 C 1728.5496,393.8456 1729.1135,394.5655 1729.0785,395.7695 C 1729.0348,397.2466 1730.3527,397.0036 1730.5402,398.2285 C 1729.8447,398.1236 1729.4479,398.2765 1729.7181,398.8845 C 1730.1204,399.7865 1730.0683,399.8526 1729.7143,400.8515 C 1729.1431,402.4875 1733.3418,402.9685 1734.4569,402.8755 C 1735.8109,402.7636 1736.7471,403.2025 1737.9581,403.4556 C 1739.5183,403.7815 1739.2098,402.5186 1740.3094,402.5335 C 1743.2687,402.5725 1743.9889,405.2815 1744.7093,407.2575 C 1745.0621,408.2255 1745.5773,408.8435 1746.3409,409.5306 C 1747.3706,410.4576 1747.3303,411.6925 1747.7397,412.9395 C 1748.4659,415.1585 1752.1670,416.4506 1754.0653,417.6986 C 1756.4102,419.2446 1758.3417,421.6015 1761.3195,422.3485 C 1763.6930,422.9436 1766.0836,424.7776 1767.9664,426.0756 C 1769.8515,427.3775 1771.0455,428.9466 1773.8713,428.6676 C 1775.3315,428.5226 1778.9341,429.8016 1779.6714,430.9106 C 1780.0951,431.5496 1779.2480,432.1026 1779.0203,432.7566 C 1778.6492,433.8256 1779.1523,434.8046 1779.0942,435.8275 C 1778.9877,437.6705 1774.0516,435.2795 1773.4266,434.7045 C 1772.8028,434.1316 1772.1074,435.9706 1772.0487,436.2145 C 1771.7507,437.4436 1770.8430,437.4466 1769.8140,437.4506 C 1768.8514,437.4545 1767.7895,437.4576 1766.8080,437.8356 C 1765.3155,438.4106 1765.9222,439.4615 1765.4834,440.4665 C 1764.8557,441.9076 1764.4415,442.4656 1764.2831,443.9545 C 1764.1530,445.1646 1762.8755,445.8666 1761.7712,446.3456 C 1758.8738,447.6015 1755.8692,449.6585 1752.7894,449.2765 C 1752.8983,449.8646 1753.2574,450.3605 1753.7244,450.7156 C 1752.6394,451.2156 1752.7137,452.6266 1751.4077,453.3865 C 1750.0137,454.1986 1747.4134,454.1726 1746.5085,455.4676 C 1746.3240,454.2905 1745.5649,453.2885 1744.2416,453.0815 C 1742.3688,452.7876 1741.5107,452.7966 1739.8615,451.9386 C 1739.4087,451.7025 1739.9252,451.0736 1739.1059,451.4056 C 1738.4275,451.6805 1738.4626,450.9765 1738.4545,450.5346 C 1738.4445,450.0245 1738.5455,449.4635 1738.3623,448.9955 C 1737.8922,447.7896 1737.4461,449.1766 1738.1083,447.4866 C 1738.4954,446.5016 1738.0017,444.5036 1738.0191,443.4205 C 1738.0404,442.1556 1736.9218,442.2405 1735.7794,442.2946 C 1734.6293,442.3496 1733.2341,442.6945 1732.1526,442.4346 C 1730.7039,442.0865 1730.3175,440.1705 1729.3444,439.3225 C 1728.1698,438.2996 1725.8370,438.5706 1725.0259,437.1146 C 1724.2671,435.7586 1723.9718,434.9475 1722.3120,434.3086 C 1720.6092,433.6535 1719.0957,433.9515 1717.2266,433.8476 C 1715.5990,433.7575 1714.8450,432.5095 1713.4305,432.0675 C 1712.1174,431.6565 1709.3450,431.8736 1708.9251,430.4755 C 1708.5566,429.2505 1708.1158,428.6626 1706.6389,428.9676 C 1705.9634,429.1076 1699.9854,427.8055 1701.0531,430.1225 C 1699.0935,430.5056 1697.4247,429.5605 1695.4667,429.9305 C 1693.1704,430.3646 1691.4815,431.6866 1689.6873,433.1046 C 1688.8726,433.7486 1689.4266,434.5765 1688.7017,435.2645 C 1688.2674,435.6775 1687.5808,435.8956 1687.0366,436.0586 C 1685.7964,436.4296 1683.6331,436.9905 1682.6590,436.2065 C 1681.8890,435.5876 1681.9694,433.7375 1681.8877,432.8265 C 1681.7053,430.8005 1682.2494,428.7206 1682.1091,426.6855 C 1682.0222,425.4386 1683.4942,423.6316 1682.5678,422.6846 C 1682.0368,422.1406 1680.6662,421.7795 1681.0208,420.7625 C 1680.7598,422.1486 1680.1483,420.4185 1679.5751,419.8546 C 1678.9751,419.2636 1677.7449,418.3585 1677.0279,419.6825 C 1676.2864,418.6306 1676.7149,416.9966 1678.1364,416.2265 C 1676.2217,417.6886 1680.0456,417.1986 1680.6508,417.3786 C 1679.9779,417.3926 1679.8293,416.4045 1679.6783,416.4525 C 1678.7911,416.7305 1679.2598,415.2765 1679.3228,414.8515 C 1679.6339,412.7375 1676.0385,414.0335 1674.7666,413.3456 C 1675.4910,414.8426 1673.9322,413.6635 1673.6767,413.2876 C 1673.3178,412.7575 1673.2898,412.0625 1673.3637,411.4035 C 1673.5231,409.9796 1674.1828,408.5926 1674.4770,407.1766 C 1674.6038,406.5675 1675.0098,405.6785 1674.8797,405.1035 C 1674.7103,404.3605 1674.1300,403.7636 1673.9779,402.9466 C 1673.8256,402.0775 1673.4472,401.7305 1672.8595,401.1336 C 1672.1095,400.3775 1672.2283,399.2806 1671.2308,398.6615"
     id="tm" />
  
  
  
  
  
  
  
  
  
  
  
  
  
  
  
  
  
  
  
  
  
  
  
  
  
  
  
  
  
  
  
  
  
  
  
  
  
  
  
  
  
  
  
  
  
  
  
  
  
  
  
  
  
  
  
  
  
  
  
  
  
  
  
  
  
  
  
  
  
  
  
  
  
  
  
  
  
  
  
  
  
  
  
  
  
  
  
  
  
</svg>
