<?xml version="1.0" encoding="UTF-8" standalone="no"?>
<svg
   xmlns:dc="http://purl.org/dc/elements/1.1/"
   xmlns:cc="http://web.resource.org/cc/"
   xmlns:rdf="http://www.w3.org/1999/02/22-rdf-syntax-ns#"
   xmlns:svg="http://www.w3.org/2000/svg"
   xmlns="http://www.w3.org/2000/svg"
   xmlns:sodipodi="http://sodipodi.sourceforge.net/DTD/sodipodi-0.dtd"
   xmlns:inkscape="http://www.inkscape.org/namespaces/inkscape"
   viewBox="0 0 2752.766 1537.631"
   version="1.0"
   height="476.7276"
   width="939.74725"
   id="svg1926"
   sodipodi:version="0.32"
   inkscape:version="0.45.1"
   sodipodi:docname="BlankMap-World6.svg"
   sodipodi:docbase="/home/bennett/Desktop"
   inkscape:output_extension="org.inkscape.output.svg.inkscape">
  <sodipodi:namedview
     inkscape:window-height="590"
     inkscape:window-width="822"
     inkscape:pageshadow="2"
     inkscape:pageopacity="0.0"
     guidetolerance="10.0"
     gridtolerance="10.0"
     objecttolerance="10.0"
     borderopacity="1.0"
     bordercolor="#666666"
     pagecolor="#ffffff"
     id="base"
     inkscape:zoom="0.77893284"
     inkscape:cx="469.87363"
     inkscape:cy="238.3638"
     inkscape:window-x="178"
     inkscape:window-y="46"
     inkscape:current-layer="svg1926" />
  <metadata
     id="metadata24111">
    <rdf:RDF>
      <cc:Work
         rdf:about="">
        <dc:format>image/svg+xml</dc:format>
        <dc:type
           rdf:resource="http://purl.org/dc/dcmitype/StillImage" />
        <cc:license
           rdf:resource="http://web.resource.org/cc/PublicDomain" />
        <dc:title>Blank World Map</dc:title>
      </cc:Work>
      <cc:License
         rdf:about="http://web.resource.org/cc/PublicDomain">
        <cc:permits
           rdf:resource="http://web.resource.org/cc/Reproduction" />
        <cc:permits
           rdf:resource="http://web.resource.org/cc/Distribution" />
        <cc:permits
           rdf:resource="http://web.resource.org/cc/DerivativeWorks" />
      </cc:License>
    </rdf:RDF>
  </metadata>
  <defs
     id="defs1930" />
  <style
     type="text/css"
     id="style_css_sheet">
/*
 * Below are Cascading Style Sheet (CSS) definitions in use in this file,
 * which allow easily changing how countries are displayed.
 *
 */

/*
 * Circles around small countries
 *
 * Change opacity to 1 to display all circles.
 *
 */
.circle
{
   opacity:0;
   fill:#b9b9b9;
   fill-opacity:1;
   stroke:black;
   stroke-width:0.99986893;
   stroke-miterlimit:3.97446823;
   stroke-dasharray:none;
   stroke-opacity:1;
}

/*
 * Land
 */
.land
{
   fill: #b9b9b9;
   fill-opacity: 1;
   stroke: #ffffff;
   stroke-opacity: 1;
   stroke-width: 0.99986997;
   stroke-miterlimit: 3.97446823;
   stroke-dasharray: none;
}

/*
 * Additional style rules
 *
 * The following are examples of colouring countries.  You can substitute these with your own styles to colour the countries on the map.
 *
 * Color a few countries:
 *
 * .gb, .au, .nc
 * {
 *    fill:       #ff0000;
 * }
 *
 * Color a few small country circles (and the countries):
 *
 * .ms, .ky
 * {
 *    opacity:    1;
 *    fill:       #ff0000;
 * }
 *
 */

/*
 * Antarctica
 */

.aq
{
   fill:#e6e6e6;
}

/*
 * Sea
 */

.ocean
{
   opacity: 1;
   color: #000000;
   fill:white;
   fill-opacity:1;
   fill-rule:nonzero;
   stroke:#000000;
   stroke-width:0.5;
   stroke-linecap:butt;
   stroke-linejoin:miter;
   marker:none;
   marker-start:none;
   marker-mid:none;
   marker-end:none;
   stroke-miterlimit:1;
   stroke-dasharray:none;
   stroke-dashoffset:0;
   stroke-opacity:1;
   visibility:visible;
   display:inline;
   overflow:visible;
}

.lake
{
   fill:#ffffff;
   fill-opacity:1;
   stroke:#ffffff;
   stroke-opacity:1;
   stroke-width:0.99986997;
   stroke-miterlimit:3.97446823;
   stroke-dasharray:none;
}
</style>
  
  
  
  
  
  
  
  
  
  
  
  
  
  
  
  
  
  
  
  
  
  
  
  
  
  
  
  
  
  
  
  
  
  
  
  
  
  
  <g
     class="land tr"
     id="tr">
    <path
       d="M 1469.4931,407.3015 C 1470.3322,406.9455 1471.5252,405.9245 1471.8270,405.1135 C 1472.2970,403.8495 1471.3032,402.9005 1473.2758,402.1095 C 1474.3596,401.6765 1473.9788,401.6705 1473.8023,400.6635 C 1473.6979,400.0725 1473.4905,399.4815 1472.8124,399.2735 C 1470.3615,398.5225 1473.4944,398.1605 1473.4309,397.2405 C 1473.4133,396.9845 1476.2102,396.2735 1476.6659,396.1415 C 1478.1562,395.7105 1479.0493,395.2665 1480.0056,396.3565 C 1480.8969,397.3735 1481.5075,396.7215 1482.7643,396.6085 C 1483.3502,396.5555 1484.0281,396.6115 1484.4663,396.9675 C 1485.2119,397.5735 1483.9894,397.7835 1484.4937,398.4485 C 1486.3687,400.9295 1488.7254,402.0075 1491.9883,402.9255 C 1493.2487,403.2795 1492.0373,405.0025 1491.2184,405.2735 C 1489.6507,405.7915 1487.5423,404.4355 1485.9955,404.3525 C 1485.2296,404.3115 1484.7217,404.8025 1484.0641,405.1005 C 1483.2567,405.4665 1482.4893,404.8315 1481.5754,405.0775 C 1480.4705,405.3755 1479.9451,406.4455 1479.1448,407.1905 C 1477.8462,408.4005 1476.1922,408.7425 1474.7325,409.6765 C 1473.4953,410.4685 1472.2019,412.6785 1470.8923,413.1335 C 1470.6041,411.7315 1471.3498,410.2735 1472.8859,409.7825 C 1473.1618,409.6945 1476.0996,408.8935 1475.2012,408.1755 C 1473.7437,407.0085 1470.0482,410.1355 1469.4931,407.3015"
       id="path3456" />
    <path
       d="M 1469.7649,418.1735 C 1469.9246,417.4285 1470.2793,413.7415 1470.8919,413.5305 C 1472.4110,413.0095 1473.0262,411.0295 1474.6122,410.3245 C 1475.4579,409.9495 1476.4592,410.6115 1477.2537,410.1225 C 1478.2500,409.5105 1478.6268,409.9765 1479.4278,410.4365 C 1480.5753,411.0975 1484.4668,410.8165 1482.1140,409.4605 C 1482.9162,409.1685 1483.7585,409.2065 1484.5452,409.3885 C 1484.1380,409.5205 1483.9254,409.7545 1483.9084,410.0895 C 1484.3219,410.6795 1486.6764,410.3315 1487.2728,410.2815 C 1489.1083,410.1285 1491.6570,411.1065 1493.2811,409.8925 C 1492.6059,409.2375 1491.6195,409.8115 1490.8984,409.2455 C 1492.0687,406.9415 1496.5100,407.8095 1498.5851,407.3735 C 1496.8919,406.5785 1494.3234,407.2465 1492.9611,405.8565 C 1491.4291,404.2965 1493.2048,403.0025 1494.9725,403.1565 C 1496.9123,403.3255 1498.7911,404.1585 1500.8118,403.7615 C 1503.5096,403.2325 1505.5459,404.5575 1508.2696,404.3125 C 1509.5278,404.1995 1509.7655,403.6125 1510.3097,402.7185 C 1510.9222,401.7335 1512.8794,401.3025 1513.9100,400.7815 C 1516.8887,399.2775 1519.2789,397.9555 1522.5509,397.1705 C 1525.9665,396.3515 1528.4566,396.7885 1531.8241,396.7885 C 1533.1823,396.7885 1534.5578,397.2985 1535.9493,396.9325 C 1536.5926,396.7625 1536.8858,396.0855 1537.5042,395.9245 C 1538.1352,395.7615 1538.6211,396.0915 1539.2091,396.1405 C 1538.0590,397.2475 1539.5860,398.7525 1540.6418,399.0575 C 1541.4431,399.2885 1542.2768,399.4795 1543.1661,399.3745 C 1544.1389,399.2605 1545.0855,398.2755 1544.9176,399.5245 C 1545.3872,397.6685 1546.3884,399.9265 1546.5068,400.4575 C 1546.6630,401.1595 1548.4627,403.5345 1549.3745,402.7275 C 1550.5947,401.6615 1551.7223,401.8965 1552.7795,402.7505 C 1554.0785,403.7915 1555.8014,403.9795 1557.3024,404.7065 C 1558.1460,405.1185 1558.4993,403.4275 1559.5795,404.6615 C 1560.4461,405.6535 1562.3620,405.6295 1563.6965,405.7535 C 1565.5512,405.9265 1567.6182,404.7365 1569.5228,404.5665 C 1571.1510,404.4205 1572.0589,404.2265 1573.5353,404.7325 C 1575.6030,405.4415 1577.1422,405.9255 1579.4862,404.9715 C 1582.3017,403.8265 1584.9158,402.5215 1587.4643,400.8405 C 1588.4886,400.1675 1589.1497,401.3065 1590.0702,401.3245 C 1590.6332,401.3365 1590.7047,400.6275 1591.3461,400.7485 C 1591.7628,400.8265 1592.1743,400.9155 1592.5894,400.9955 C 1593.1907,401.1125 1594.8516,401.7505 1595.3589,400.9845 C 1595.9810,400.0465 1598.3480,399.2645 1597.4149,400.6765 C 1598.1408,400.5555 1598.6813,400.9685 1599.1172,401.3525 C 1599.4263,401.6525 1599.7546,401.9355 1600.1013,402.1995 C 1600.7212,402.2715 1600.8274,402.5395 1600.4165,403.0055 C 1600.5939,403.8115 1601.8960,403.0265 1602.2868,403.6855 C 1602.5409,404.1145 1602.5629,405.3868 1602.9793,405.7322 C 1604.3066,406.8338 1605.3610,407.9335 1604.3487,409.0585 C 1603.3503,410.1695 1605.3728,411.8195 1604.0781,412.5565 C 1605.8541,413.4415 1606.8570,413.2395 1608.8399,413.3075 C 1610.5343,413.3655 1612.6131,415.4495 1613.0511,416.8045 C 1612.2310,416.1005 1610.9725,415.0795 1610.3267,416.8045 C 1610.1277,417.3365 1610.1944,417.8955 1609.9395,418.4255 C 1609.6086,419.1115 1607.6972,418.7485 1607.0467,418.9645 C 1607.4291,419.4625 1608.1519,420.7465 1608.2361,421.3715 C 1608.3751,422.4145 1608.7944,422.9575 1609.0540,423.9235 C 1609.4338,425.3445 1608.5995,427.4215 1610.4632,428.0365 C 1609.7167,428.6175 1609.1601,429.7825 1608.8370,430.5785 C 1608.1884,432.1765 1610.0000,431.9425 1610.7890,432.7165 C 1611.5832,433.4935 1611.2514,434.5185 1611.3895,435.5345 C 1611.4596,436.0425 1612.3898,436.2675 1612.7208,436.5805 C 1613.0874,436.9265 1612.5976,437.7475 1612.7616,438.1875 C 1611.1403,437.0045 1609.9673,439.9445 1608.9849,439.6265 C 1607.7131,439.2145 1609.0424,437.5745 1608.1535,436.9635 C 1607.7093,436.6585 1606.8943,436.6865 1606.3980,437.0595 C 1605.5033,437.7315 1604.3534,437.5745 1603.4515,437.2985 C 1601.9807,436.8485 1600.8648,436.3755 1599.2384,436.3975 C 1598.0843,436.4135 1597.4048,436.1145 1596.6702,437.0595 C 1595.7824,438.2035 1594.1840,439.2315 1593.9199,437.5255 C 1593.6901,436.0385 1591.4352,437.8275 1590.5191,438.0935 C 1588.1674,438.7775 1586.2760,438.7575 1584.0202,438.4745 C 1579.9666,437.9665 1575.9124,441.8405 1571.7188,442.1115 C 1570.0460,442.2195 1567.0065,442.6035 1565.7231,441.6155 C 1564.3312,440.5375 1563.4523,439.9185 1561.4691,440.7725 C 1559.3527,441.6845 1554.7616,443.8355 1553.2409,441.8315 C 1552.4896,440.8265 1550.6876,440.4775 1550.2455,442.0595 C 1549.8307,443.6155 1550.3013,444.7045 1550.8758,446.0365 C 1550.1192,446.0765 1549.3007,446.2775 1548.5661,446.1075 C 1548.3824,446.7235 1548.7568,447.3745 1548.4655,447.9795 C 1548.1216,448.6975 1547.0921,448.8485 1546.7697,449.6355 C 1546.2297,449.2725 1545.6898,448.8625 1545.0201,448.6995 C 1545.7582,447.8925 1544.9520,446.8435 1544.4908,446.2395 C 1543.6308,445.1135 1544.7448,444.4505 1545.8253,443.6355 C 1546.9364,442.7985 1547.6620,442.2085 1546.7969,440.9415 C 1546.4524,440.4355 1545.6812,439.8105 1545.0326,440.5035 C 1544.1351,441.4615 1543.3514,441.3105 1542.2880,442.0035 C 1543.9421,441.8475 1542.1121,443.3905 1540.9183,443.1825 C 1539.4364,442.9245 1538.1734,442.0945 1536.8898,441.4615 C 1533.8337,439.9545 1531.7368,444.3765 1530.0656,446.1795 C 1529.8581,445.9385 1529.6483,445.6985 1529.4374,445.4595 C 1528.8085,446.0285 1528.3375,447.0405 1527.4294,446.7075 C 1526.6408,446.4185 1524.2922,446.9495 1523.4937,447.3095 C 1522.0438,447.9635 1520.4195,447.8655 1519.1082,447.3025 C 1517.0946,446.4375 1516.5265,444.2665 1514.6128,443.3545 C 1512.5082,442.3525 1510.3986,441.2075 1508.0238,440.8065 C 1506.7737,440.5965 1504.2245,440.1165 1504.0597,442.0035 C 1503.9761,443.0865 1504.0385,445.0555 1503.1273,445.9205 C 1502.6306,446.3915 1502.0865,445.5185 1501.6557,445.4625 C 1500.5533,445.3195 1499.3120,446.5555 1498.1993,446.7285 C 1496.9163,446.9285 1495.0426,446.1605 1494.0424,445.5315 C 1493.2814,445.0535 1493.3576,443.4905 1492.2712,443.4425 C 1493.1992,442.3225 1491.3178,441.1065 1490.9553,442.5795 C 1490.1779,441.9055 1488.1158,441.6525 1487.9528,440.4905 C 1487.6924,441.3305 1485.4264,442.7145 1484.6753,443.2265 C 1484.9624,442.7235 1484.8051,442.4125 1484.2046,442.2905 C 1484.8185,442.1685 1485.2370,441.7165 1485.2847,441.1385 C 1484.4555,441.7515 1480.7357,442.4855 1479.7461,442.2185 C 1480.6120,441.3025 1482.1090,441.2475 1483.2599,441.2755 C 1484.4236,441.3035 1484.2786,441.5925 1484.8188,440.7485 C 1485.1964,440.1615 1485.9355,439.8955 1486.4234,439.4105 C 1485.0484,438.8175 1480.1725,438.7405 1478.9252,439.8425 C 1477.3050,437.9095 1480.5800,438.9305 1480.8687,438.4315 C 1481.1083,438.0165 1481.1248,437.4365 1480.9036,437.0425 C 1480.3818,436.1195 1479.6315,437.4005 1480.0596,435.9545 C 1478.2107,437.9835 1478.6404,433.8015 1477.0487,433.8665 C 1478.1901,433.3095 1479.4843,432.7725 1478.6421,431.3805 C 1478.0338,430.3765 1476.0528,430.8965 1475.6374,430.1505 C 1475.2073,429.3785 1474.7910,428.2975 1473.9685,429.6485 C 1473.6038,430.2475 1471.4203,428.6365 1471.4138,428.1065 C 1473.6878,428.6205 1471.8462,426.3475 1471.9914,425.4615 C 1472.1100,424.7285 1473.3194,425.2635 1473.5303,425.6235 C 1473.9684,426.3695 1473.7168,427.5925 1474.4335,428.1785 C 1474.3790,426.5825 1476.9126,428.5795 1477.7738,426.9545 C 1476.2440,426.7775 1475.6654,426.0825 1474.8089,425.0105 C 1475.6448,424.5965 1476.1258,423.6895 1477.0955,423.4985 C 1476.7551,422.3305 1475.3625,423.5425 1475.5774,422.2205 C 1475.7926,420.9065 1475.0537,420.7375 1474.0815,419.8985 C 1474.8231,419.1655 1475.6638,418.5215 1476.3473,417.7385 C 1474.2004,416.6935 1471.9505,418.8485 1469.7649,418.1735"
       id="path3458" />
  </g>
  
  
  
  
  
  
  
  
  
  
  
  
  
  
  
  
  
  
  
  
  
  
  
  
  
  
  
  
  
  
  
  
  
  
  
  
  
  
  
  
  
  
  
  
  
  
  
  
  
  
  
  
  
  
  
  
  
  
  
  
  
  
  
  
  
  
  
  
  
  
  
  
  
  
  
  
  
  
  
  
  
  
  
  
  
  
  
  
  
  
  
  
  
  
  
  
  
  
  
  
  
  
  
  
  
  
  
  
  
  
  
  
  
  
  
  
  
  
  
  
  
  
  
  
  
  
  
  
  
  
  
  
  
  
  
  
  
  
  
  
  
  
  
  
  
  
  
  
  
  
  
  
  
  
  
  
  
  
  
  
  
  
  
  
  
  
  
  
  
  
  
  
  
  
  
  
  
  
  
  
  
  
  
  
  
  
  
  
  
  
  
  
  
</svg>
