<?xml version="1.0" encoding="UTF-8" standalone="no"?>
<svg
   xmlns:dc="http://purl.org/dc/elements/1.1/"
   xmlns:cc="http://web.resource.org/cc/"
   xmlns:rdf="http://www.w3.org/1999/02/22-rdf-syntax-ns#"
   xmlns:svg="http://www.w3.org/2000/svg"
   xmlns="http://www.w3.org/2000/svg"
   xmlns:sodipodi="http://sodipodi.sourceforge.net/DTD/sodipodi-0.dtd"
   xmlns:inkscape="http://www.inkscape.org/namespaces/inkscape"
   viewBox="0 0 2752.766 1537.631"
   version="1.0"
   height="476.7276"
   width="939.74725"
   id="svg1926"
   sodipodi:version="0.32"
   inkscape:version="0.45.1"
   sodipodi:docname="BlankMap-World6.svg"
   sodipodi:docbase="/home/bennett/Desktop"
   inkscape:output_extension="org.inkscape.output.svg.inkscape">
  <sodipodi:namedview
     inkscape:window-height="590"
     inkscape:window-width="822"
     inkscape:pageshadow="2"
     inkscape:pageopacity="0.0"
     guidetolerance="10.0"
     gridtolerance="10.0"
     objecttolerance="10.0"
     borderopacity="1.0"
     bordercolor="#666666"
     pagecolor="#ffffff"
     id="base"
     inkscape:zoom="0.77893284"
     inkscape:cx="469.87363"
     inkscape:cy="238.3638"
     inkscape:window-x="178"
     inkscape:window-y="46"
     inkscape:current-layer="svg1926" />
  <metadata
     id="metadata24111">
    <rdf:RDF>
      <cc:Work
         rdf:about="">
        <dc:format>image/svg+xml</dc:format>
        <dc:type
           rdf:resource="http://purl.org/dc/dcmitype/StillImage" />
        <cc:license
           rdf:resource="http://web.resource.org/cc/PublicDomain" />
        <dc:title>Blank World Map</dc:title>
      </cc:Work>
      <cc:License
         rdf:about="http://web.resource.org/cc/PublicDomain">
        <cc:permits
           rdf:resource="http://web.resource.org/cc/Reproduction" />
        <cc:permits
           rdf:resource="http://web.resource.org/cc/Distribution" />
        <cc:permits
           rdf:resource="http://web.resource.org/cc/DerivativeWorks" />
      </cc:License>
    </rdf:RDF>
  </metadata>
  <defs
     id="defs1930" />
  <style
     type="text/css"
     id="style_css_sheet">
/*
 * Below are Cascading Style Sheet (CSS) definitions in use in this file,
 * which allow easily changing how countries are displayed.
 *
 */

/*
 * Circles around small countries
 *
 * Change opacity to 1 to display all circles.
 *
 */
.circle
{
   opacity:0;
   fill:#b9b9b9;
   fill-opacity:1;
   stroke:black;
   stroke-width:0.99986893;
   stroke-miterlimit:3.97446823;
   stroke-dasharray:none;
   stroke-opacity:1;
}

/*
 * Land
 */
.land
{
   fill: #b9b9b9;
   fill-opacity: 1;
   stroke: #ffffff;
   stroke-opacity: 1;
   stroke-width: 0.99986997;
   stroke-miterlimit: 3.97446823;
   stroke-dasharray: none;
}

/*
 * Additional style rules
 *
 * The following are examples of colouring countries.  You can substitute these with your own styles to colour the countries on the map.
 *
 * Color a few countries:
 *
 * .gb, .au, .nc
 * {
 *    fill:       #ff0000;
 * }
 *
 * Color a few small country circles (and the countries):
 *
 * .ms, .ky
 * {
 *    opacity:    1;
 *    fill:       #ff0000;
 * }
 *
 */

/*
 * Antarctica
 */

.aq
{
   fill:#e6e6e6;
}

/*
 * Sea
 */

.ocean
{
   opacity: 1;
   color: #000000;
   fill:white;
   fill-opacity:1;
   fill-rule:nonzero;
   stroke:#000000;
   stroke-width:0.5;
   stroke-linecap:butt;
   stroke-linejoin:miter;
   marker:none;
   marker-start:none;
   marker-mid:none;
   marker-end:none;
   stroke-miterlimit:1;
   stroke-dasharray:none;
   stroke-dashoffset:0;
   stroke-opacity:1;
   visibility:visible;
   display:inline;
   overflow:visible;
}

.lake
{
   fill:#ffffff;
   fill-opacity:1;
   stroke:#ffffff;
   stroke-opacity:1;
   stroke-width:0.99986997;
   stroke-miterlimit:3.97446823;
   stroke-dasharray:none;
}
</style>
  
  
  
  
  
  
  
  
  
  
  
  
  
  
  
  
  
  
  
  
  
  
  
  
  
  
  
  
  
  
  
  
  
  
  
  
  
  
  
  
  
  
  
  
  
  
  
  
  
  
  
  
  
  
  
  
  
  
  
  
  
  
  
  
  
  
  
  
  
  
  
  
  
  
  
  
  
  
  
  
  
  
  
  
  
  
  
  
  
  <g
     class="land tz"
     id="tz">
    <path
       d="M 1570.0208,811.6585 C 1570.3290,813.4575 1570.5957,814.0995 1572.0445,815.3355 C 1573.0511,816.1925 1573.2638,811.8475 1571.6943,813.1685 C 1571.9378,812.0635 1571.5761,810.2515 1570.9882,809.2775 C 1570.7620,810.0535 1569.7696,810.7655 1570.0208,811.6585"
       id="path4894" />
    <path
       d="M 1573.6000,828.7185 C 1574.3610,828.0215 1575.6395,827.5665 1575.1341,826.2685 C 1574.7154,827.3125 1573.4006,827.3645 1573.6000,828.7185"
       id="path4896" />
    <path
       d="M 1573.6370,802.7985 C 1573.7685,803.7155 1574.5696,804.4845 1573.5140,804.5985 C 1573.7676,804.7545 1574.0133,804.9205 1574.2512,805.0985 C 1572.7746,805.9435 1574.1291,807.2345 1574.7330,805.8725 C 1575.4483,804.2575 1575.2180,802.6875 1573.6976,802.0795 C 1573.6770,802.3185 1573.6565,802.5585 1573.6370,802.7985"
       id="path4898" />
    <path
       d="M 1494.8533,802.7985 C 1494.4673,801.1555 1495.6624,799.6765 1495.3196,798.0485 C 1497.0709,798.0485 1498.8244,797.8585 1499.9441,796.3215 C 1500.7517,795.2105 1502.3051,793.8618 1503.2122,792.7372 C 1503.8692,791.9227 1502.4531,791.1285 1502.7344,790.5315 C 1503.0778,789.8135 1504.5137,790.3933 1504.2608,789.5423 C 1504.0942,788.9793 1505.5178,788.1685 1505.8176,787.8795 C 1506.6750,787.0535 1505.4388,786.0825 1506.1863,785.2985 C 1503.8883,785.9455 1502.4447,784.5625 1503.7331,782.4985 C 1502.4829,782.6185 1503.3613,781.7015 1503.8187,780.9745 C 1504.4000,780.0515 1505.6556,780.4485 1506.1429,779.5065 C 1507.0504,777.7505 1505.7593,773.9405 1504.9216,772.2745 C 1504.3394,771.1175 1502.0487,769.3045 1504.3674,768.6195 C 1506.6862,767.9355 1509.1878,768.2385 1511.5812,768.2385 C 1514.8187,768.2385 1518.0562,768.2385 1521.2937,768.2385 C 1524.0841,768.2385 1527.1841,767.8535 1529.9331,768.4005 C 1532.4311,768.8975 1534.7487,770.9375 1536.8485,772.2645 C 1539.6630,774.0405 1542.4785,775.8145 1545.2882,777.5975 C 1548.0618,779.3585 1550.8145,781.1545 1553.5913,782.9125 C 1555.5273,784.1395 1558.0338,784.9265 1558.6129,787.2815 C 1558.8602,788.2915 1558.0941,788.3195 1557.8851,789.1855 C 1557.7308,789.8245 1558.8370,790.5465 1559.2060,791.0785 C 1560.4806,792.9115 1562.9786,794.1365 1564.6330,795.6105 C 1565.6180,796.4885 1570.2348,799.2655 1570.0810,800.5455 C 1569.8351,802.5995 1569.1560,805.0995 1568.3308,806.9915 C 1567.9109,807.9545 1567.4598,808.9085 1567.1636,809.9205 C 1567.0171,810.3985 1566.9269,810.8865 1566.8949,811.3865 C 1566.8614,812.0705 1567.5023,812.6955 1567.4027,813.3025 C 1566.9861,815.8935 1571.1864,816.0935 1570.7207,818.8575 C 1572.9739,818.1405 1572.7264,820.8195 1571.8974,821.8935 C 1570.5768,823.6015 1571.4121,825.6205 1570.5303,827.2775 C 1572.0747,825.8495 1572.0361,828.8115 1571.6844,829.5695 C 1571.1674,830.6825 1570.7654,832.0285 1570.9535,833.2795 C 1571.1276,834.4375 1572.8669,836.3875 1571.5941,836.6375 C 1572.5676,836.8215 1572.0372,838.6165 1572.7867,838.5425 C 1574.0081,838.4235 1573.4085,839.7705 1573.1545,840.3575 C 1572.6868,841.4435 1573.9685,841.8425 1574.2111,842.8345 C 1574.3461,843.3865 1573.9320,843.7135 1574.2408,844.2695 C 1574.6457,844.9975 1574.8317,845.4385 1574.0973,846.0675 C 1575.3644,845.8325 1575.8872,846.9105 1576.1559,847.9375 C 1575.8970,846.2735 1578.6913,849.4175 1579.5794,848.7385 C 1579.7365,851.5925 1575.2946,853.5795 1573.1493,854.5645 C 1572.3305,854.9405 1571.5679,855.5585 1570.7192,855.8565 C 1569.7058,856.2115 1568.5956,856.0165 1567.5729,856.3675 C 1566.4982,856.7355 1565.8138,857.8685 1564.7216,858.2275 C 1563.6423,858.5815 1562.4104,856.8035 1561.0703,857.0835 C 1559.4145,857.4295 1559.5266,859.6315 1558.1061,860.4095 C 1556.5390,861.2665 1555.2089,860.7355 1553.7020,860.0515 C 1551.5643,859.0815 1551.5184,861.4225 1549.8550,860.9715 C 1548.3394,860.5605 1547.4725,860.6315 1546.1681,859.6065 C 1545.0518,858.7295 1544.2390,858.1105 1543.1328,859.3565 C 1542.3271,860.2645 1538.9960,860.0815 1537.9292,859.5945 C 1537.5642,859.4275 1537.4895,858.7185 1537.3084,858.4255 C 1536.7879,857.5845 1535.9145,857.0935 1535.4434,856.1925 C 1534.7874,854.9395 1535.5377,853.5455 1535.2515,852.2165 C 1534.8682,850.4425 1534.8069,848.5655 1534.3309,846.8205 C 1533.8346,845.0015 1532.4960,843.5455 1531.2347,842.1925 C 1530.0565,840.9275 1530.1774,842.8685 1529.7869,843.5475 C 1528.3189,842.0015 1526.9868,843.4455 1525.6087,841.9695 C 1525.1763,841.5055 1523.6124,841.3015 1522.9462,841.0275 C 1521.9080,840.5995 1520.6142,840.1985 1519.6402,839.6915 C 1519.4311,839.5475 1519.2656,839.3655 1519.1446,839.1445 C 1518.6350,838.5295 1517.7196,838.8045 1517.0750,838.4855 C 1516.4710,838.1875 1515.8005,838.0655 1515.2034,837.7525 C 1514.6528,837.4635 1514.5140,836.7855 1514.0093,836.5395 C 1513.5957,836.3375 1513.0893,836.5085 1512.6538,836.3825 C 1511.9440,836.1765 1511.8404,835.4235 1511.4522,834.9075 C 1510.7119,833.9245 1509.4855,834.0595 1508.4148,833.8625 C 1505.5842,833.3405 1504.9534,828.3445 1503.7822,826.1985 C 1502.2482,823.3865 1502.3317,820.1505 1499.3907,818.2615 C 1497.3777,816.9675 1495.5278,813.9145 1496.0886,811.4835 C 1496.3723,810.2545 1496.9896,809.0455 1496.6487,807.7515 C 1496.2193,806.0975 1495.3924,804.4385 1494.8533,802.7985"
       id="path5432" />
  </g>
  
  
  
  
  
  
  
  
  
  
  
  
  
  
  
  
  
  
  
  
  
  
  
  
  
  
  
  
  
  
  
  
  
  
  
  
  
  
  
  
  
  
  
  
  
  
  
  
  
  
  
  
  
  
  
  
  
  
  
  
  
  
  
  
  
  
  
  
  
  
  
  
  
  
  
  
  
  
  
  
  
  
  
  
  
  
  
  
  
  
  
  
  
  
  
  
  
  
  
  
  
  
  
  
  
  
  
  
  
  
  
  
  
  
  
  
  
  
  
  
  
  
  
  
  
  
  
  
  
  
  
  
  
  
  
  
  
  
  
  
  
  
</svg>
