<?xml version="1.0" encoding="UTF-8" standalone="no"?>
<svg
   xmlns:dc="http://purl.org/dc/elements/1.1/"
   xmlns:cc="http://web.resource.org/cc/"
   xmlns:rdf="http://www.w3.org/1999/02/22-rdf-syntax-ns#"
   xmlns:svg="http://www.w3.org/2000/svg"
   xmlns="http://www.w3.org/2000/svg"
   xmlns:sodipodi="http://sodipodi.sourceforge.net/DTD/sodipodi-0.dtd"
   xmlns:inkscape="http://www.inkscape.org/namespaces/inkscape"
   viewBox="0 0 2752.766 1537.631"
   version="1.0"
   height="476.7276"
   width="939.74725"
   id="svg1926"
   sodipodi:version="0.32"
   inkscape:version="0.45.1"
   sodipodi:docname="BlankMap-World6.svg"
   sodipodi:docbase="/home/bennett/Desktop"
   inkscape:output_extension="org.inkscape.output.svg.inkscape">
  <sodipodi:namedview
     inkscape:window-height="590"
     inkscape:window-width="822"
     inkscape:pageshadow="2"
     inkscape:pageopacity="0.0"
     guidetolerance="10.0"
     gridtolerance="10.0"
     objecttolerance="10.0"
     borderopacity="1.0"
     bordercolor="#666666"
     pagecolor="#ffffff"
     id="base"
     inkscape:zoom="0.77893284"
     inkscape:cx="469.87363"
     inkscape:cy="238.3638"
     inkscape:window-x="178"
     inkscape:window-y="46"
     inkscape:current-layer="svg1926" />
  <metadata
     id="metadata24111">
    <rdf:RDF>
      <cc:Work
         rdf:about="">
        <dc:format>image/svg+xml</dc:format>
        <dc:type
           rdf:resource="http://purl.org/dc/dcmitype/StillImage" />
        <cc:license
           rdf:resource="http://web.resource.org/cc/PublicDomain" />
        <dc:title>Blank World Map</dc:title>
      </cc:Work>
      <cc:License
         rdf:about="http://web.resource.org/cc/PublicDomain">
        <cc:permits
           rdf:resource="http://web.resource.org/cc/Reproduction" />
        <cc:permits
           rdf:resource="http://web.resource.org/cc/Distribution" />
        <cc:permits
           rdf:resource="http://web.resource.org/cc/DerivativeWorks" />
      </cc:License>
    </rdf:RDF>
  </metadata>
  <defs
     id="defs1930" />
  <style
     type="text/css"
     id="style_css_sheet">
/*
 * Below are Cascading Style Sheet (CSS) definitions in use in this file,
 * which allow easily changing how countries are displayed.
 *
 */

/*
 * Circles around small countries
 *
 * Change opacity to 1 to display all circles.
 *
 */
.circle
{
   opacity:0;
   fill:#b9b9b9;
   fill-opacity:1;
   stroke:black;
   stroke-width:0.99986893;
   stroke-miterlimit:3.97446823;
   stroke-dasharray:none;
   stroke-opacity:1;
}

/*
 * Land
 */
.land
{
   fill: #b9b9b9;
   fill-opacity: 1;
   stroke: #ffffff;
   stroke-opacity: 1;
   stroke-width: 0.99986997;
   stroke-miterlimit: 3.97446823;
   stroke-dasharray: none;
}

/*
 * Additional style rules
 *
 * The following are examples of colouring countries.  You can substitute these with your own styles to colour the countries on the map.
 *
 * Color a few countries:
 *
 * .gb, .au, .nc
 * {
 *    fill:       #ff0000;
 * }
 *
 * Color a few small country circles (and the countries):
 *
 * .ms, .ky
 * {
 *    opacity:    1;
 *    fill:       #ff0000;
 * }
 *
 */

/*
 * Antarctica
 */

.aq
{
   fill:#e6e6e6;
}

/*
 * Sea
 */

.ocean
{
   opacity: 1;
   color: #000000;
   fill:white;
   fill-opacity:1;
   fill-rule:nonzero;
   stroke:#000000;
   stroke-width:0.5;
   stroke-linecap:butt;
   stroke-linejoin:miter;
   marker:none;
   marker-start:none;
   marker-mid:none;
   marker-end:none;
   stroke-miterlimit:1;
   stroke-dasharray:none;
   stroke-dashoffset:0;
   stroke-opacity:1;
   visibility:visible;
   display:inline;
   overflow:visible;
}

.lake
{
   fill:#ffffff;
   fill-opacity:1;
   stroke:#ffffff;
   stroke-opacity:1;
   stroke-width:0.99986997;
   stroke-miterlimit:3.97446823;
   stroke-dasharray:none;
}
</style>
  
  
  
  
  
  
  
  
  
  
  
  
  
  
  
  
  
  
  <path
     class="land ua"
     d="M 1439.7614,341.9975 C 1439.6080,340.4776 1441.1646,339.4305 1441.9694,338.1676 C 1442.8718,336.7536 1443.3155,335.6526 1445.3308,336.9576 C 1445.4652,336.3956 1445.1804,336.1565 1444.7175,335.8635 C 1444.0501,335.4416 1444.4200,334.4816 1444.1697,333.8446 C 1443.3520,331.7785 1445.4375,330.3965 1447.1257,328.9645 C 1448.5341,327.7835 1449.9979,326.3945 1451.7007,325.5365 C 1453.5979,324.5826 1455.8392,323.9165 1453.5849,322.0525 C 1454.0797,321.8725 1454.5700,321.6805 1455.0546,321.4765 C 1453.0483,321.0745 1450.5262,317.2806 1450.8266,315.5415 C 1451.0864,314.0435 1453.3242,315.5856 1454.3384,315.1465 C 1455.2754,314.7416 1456.1418,314.1445 1456.7729,313.4305 C 1457.5713,312.5306 1459.3164,312.7665 1460.3768,312.7625 C 1462.7631,312.7525 1465.1796,312.5775 1467.5678,312.4995 C 1469.6876,312.4305 1471.3200,313.0826 1473.2399,313.5075 C 1474.1810,313.7156 1477.2829,313.4495 1477.8971,314.1026 C 1478.5394,314.7885 1479.1463,315.5195 1480.3914,315.1766 C 1481.4645,314.8816 1482.1276,315.7305 1483.0241,315.9316 C 1483.3236,314.7305 1483.7839,315.4056 1484.9612,315.2935 C 1485.8297,315.2106 1486.5876,315.1735 1487.2736,315.6386 C 1487.7591,315.9685 1488.6127,315.3535 1489.2005,315.5736 C 1489.7659,315.7846 1489.6864,316.6205 1490.2941,316.8686 C 1490.2634,315.4115 1492.3737,314.9336 1493.5476,315.5025 C 1494.7828,316.1005 1494.4977,317.7795 1496.5944,316.5745 C 1497.1999,316.2276 1497.6518,316.2115 1498.2555,316.4866 C 1499.0310,316.8406 1500.2283,316.0965 1501.1252,316.2686 C 1501.6894,316.3766 1503.8379,318.9355 1504.3805,317.5956 C 1505.0497,315.9416 1503.4636,315.4065 1504.8181,313.5885 C 1505.7827,312.2966 1507.3997,310.7405 1509.1283,311.5186 C 1509.4014,311.6415 1510.6180,311.1415 1510.9017,311.0836 C 1511.7894,310.9015 1512.9838,310.9765 1513.8316,311.0976 C 1515.7508,311.3725 1517.7655,311.7715 1517.9554,309.2355 C 1519.4631,309.3256 1520.7526,310.1825 1522.3531,309.6245 C 1523.1377,309.3515 1523.9903,309.0156 1524.8149,308.9425 C 1525.8204,308.8535 1526.1284,309.5156 1526.9359,309.5236 C 1527.5667,309.5295 1527.9952,309.0285 1528.6002,309.0435 C 1529.5601,309.0675 1530.5997,310.0915 1530.9128,310.7586 C 1531.5233,312.0655 1533.3428,312.7665 1533.7769,313.9875 C 1533.0999,314.3186 1531.7840,314.2795 1531.2357,314.7196 C 1530.9158,314.9776 1533.3714,317.4586 1532.0145,318.0926 C 1533.0107,318.3906 1536.2129,319.0176 1537.3017,318.7455 C 1539.0612,318.3075 1539.1719,319.9645 1540.7521,319.8915 C 1540.0005,320.8415 1541.2776,321.5106 1541.4534,322.2985 C 1541.6881,323.3635 1540.9933,324.2556 1542.0287,325.1465 C 1543.0760,326.0505 1544.2812,325.0496 1545.5473,324.9506 C 1547.0339,324.8345 1547.5799,326.2176 1549.0812,326.1026 C 1550.2874,326.0106 1549.7778,326.9805 1551.3804,326.2156 C 1552.7012,325.5856 1554.1118,325.7785 1555.5002,325.1685 C 1556.8760,324.5655 1557.5459,325.9445 1557.9954,326.6855 C 1558.7079,327.8585 1560.6564,328.1406 1561.0590,329.4676 C 1563.1718,328.5005 1562.4223,327.8315 1564.5609,328.8976 C 1565.6757,329.4495 1568.7248,330.6356 1569.9105,329.6125 C 1570.5124,331.1166 1572.0491,330.2165 1572.8533,331.2335 C 1573.2486,331.7355 1573.9781,332.1205 1574.6943,332.2396 C 1575.5910,332.3886 1576.5177,331.6445 1577.2723,331.9875 C 1575.9421,332.9475 1577.9621,334.9176 1575.7425,336.2926 C 1575.1065,336.6866 1573.8680,336.5016 1574.2144,337.4606 C 1574.6646,338.7126 1576.3015,337.2896 1576.1973,338.7566 C 1575.2655,338.5005 1573.4256,339.3086 1573.7810,340.3875 C 1573.9026,340.7566 1576.8604,341.6886 1575.0642,342.7165 C 1575.3606,342.9586 1575.7313,343.0306 1576.1753,342.9325 C 1576.1972,343.3976 1574.9523,345.7065 1574.5945,346.1726 C 1573.5307,347.5826 1571.3785,346.4855 1569.8336,346.7486 C 1568.9335,346.9026 1568.2734,346.4196 1567.3453,346.7996 C 1566.4272,347.1775 1566.2454,348.1155 1565.1376,348.4515 C 1564.5005,348.6456 1563.4304,348.7665 1563.1500,349.4615 C 1562.7608,350.4275 1562.2908,351.2455 1563.3004,351.4285 C 1562.6004,351.9126 1563.1128,352.7126 1562.2975,353.0985 C 1561.3021,353.5706 1559.0346,353.0865 1557.9006,353.2656 C 1556.7818,353.4436 1556.4752,354.4846 1555.3322,354.5605 C 1553.9851,354.6506 1552.3147,355.2695 1551.7913,356.5405 C 1551.3111,355.6306 1549.8879,355.7015 1548.9064,356.1646 C 1547.2539,356.9436 1546.2297,356.5566 1544.5408,356.9885 C 1541.7164,357.7126 1540.8082,361.1046 1537.9924,361.7235 C 1538.1582,361.3055 1542.3562,358.6936 1539.3622,358.3395 C 1540.2318,359.7056 1538.1516,359.9656 1537.1591,360.5145 C 1535.7164,361.3125 1537.5131,363.9606 1538.0189,364.6956 C 1538.9341,366.0265 1542.5998,370.5756 1544.2114,366.9785 C 1544.9553,367.8816 1545.5485,367.6085 1546.6098,367.1445 C 1548.0286,366.5256 1549.5658,367.1175 1550.5226,367.9155 C 1549.2189,368.0686 1549.1608,368.6216 1549.0445,369.5716 C 1548.9007,370.7366 1547.7252,370.6825 1546.7139,370.7846 C 1545.6146,370.8945 1545.0258,370.8515 1544.1075,370.3635 C 1543.5515,370.0675 1542.7940,369.6046 1542.0326,369.8596 C 1541.2806,370.1125 1541.5773,370.7846 1541.1159,370.9416 C 1539.9930,371.3245 1539.2441,372.2806 1538.0883,372.4246 C 1536.5189,372.6205 1535.1774,372.4826 1533.8348,373.5655 C 1531.5323,375.4266 1527.4296,377.6606 1525.6255,374.3225 C 1527.1945,374.6495 1528.2234,369.7795 1525.7787,369.4515 C 1524.4263,369.2695 1523.7604,368.8245 1522.6733,368.2025 C 1521.6592,367.6236 1520.6005,368.0356 1519.4677,367.9076 C 1517.7467,367.7106 1521.9255,365.3936 1522.5550,365.1785 C 1523.7990,364.7556 1527.9964,364.1635 1528.5397,362.8745 C 1527.5125,362.9015 1527.4641,361.9936 1527.5348,361.2905 C 1526.2708,361.8845 1526.5516,362.0315 1525.1191,361.3655 C 1523.9419,360.8186 1522.1881,361.4035 1520.8168,361.4246 C 1519.3284,361.4475 1518.3825,361.5906 1517.1044,360.9216 C 1516.0046,360.3465 1514.7962,359.4076 1513.3213,359.7785 C 1517.7322,358.2966 1512.3554,358.8625 1511.4830,357.5466 C 1513.9906,358.6995 1517.5692,358.3755 1519.9928,356.8986 C 1518.4347,357.2806 1516.3050,357.9395 1515.1070,356.7575 C 1514.2041,355.8686 1515.1570,354.3566 1514.1637,353.4425 C 1514.9037,354.4425 1514.5131,355.3936 1514.4035,356.5056 C 1514.3197,357.3566 1512.1708,356.8155 1511.6132,357.1146 C 1511.3800,356.6205 1511.4641,356.1406 1511.8625,355.6746 C 1511.1867,355.7976 1510.9732,356.5806 1510.5977,356.9905 C 1510.0720,357.5666 1508.7995,357.0206 1508.1006,357.1266 C 1505.1139,357.5775 1505.2805,360.0555 1503.3888,361.6495 C 1503.3162,360.8926 1501.9524,358.6096 1500.7343,359.3456 C 1501.0349,360.4035 1502.8711,360.4946 1503.1027,361.5575 C 1503.3768,362.8145 1499.1618,365.1286 1498.1005,365.6105 C 1499.0745,365.0655 1500.2817,364.4896 1500.6813,363.4506 C 1499.6042,363.5215 1497.3090,366.6785 1497.3285,364.4586 C 1496.7688,364.9556 1495.8912,366.5566 1497.5759,365.8976 C 1497.3517,366.1306 1497.1402,366.3705 1496.9392,366.6186 C 1498.0609,366.7656 1498.4824,368.7056 1497.1607,369.0666 C 1498.2258,366.3546 1494.1686,367.4325 1492.5836,367.8295 C 1490.5601,368.3356 1489.4713,369.3275 1487.4908,368.3365 C 1487.1606,368.1716 1485.1309,366.5505 1486.8068,366.5396 C 1488.8090,366.5245 1488.1653,365.3145 1489.2214,364.2606 C 1490.3875,363.0985 1492.4037,362.2206 1492.3126,360.4946 C 1492.2323,358.9805 1491.5062,358.4425 1493.6875,357.7625 C 1493.8157,358.1995 1493.9569,358.6306 1494.1128,359.0586 C 1495.5619,356.8426 1498.7848,360.5466 1500.7881,358.8426 C 1500.0216,358.6275 1499.7650,358.1413 1499.0484,357.8673 C 1501.3586,357.1643 1498.1594,354.1673 1496.9642,354.8247 C 1496.3601,355.1572 1493.5625,353.5254 1496.1319,352.5781 C 1496.9183,352.2884 1497.0578,350.4946 1495.4116,351.1895 C 1494.9386,351.3895 1494.5985,349.2038 1494.4124,348.9169 C 1493.9388,348.1828 1493.5930,347.4246 1493.3098,346.5276 C 1492.8135,344.9015 1491.7606,346.2475 1490.9393,345.0435 C 1490.4263,344.2915 1488.6453,343.1923 1488.1222,344.6483 C 1488.0118,343.3563 1486.8870,345.1191 1486.7499,343.8730 C 1485.0050,344.5630 1483.4683,342.2126 1482.1175,341.7065 C 1480.3751,341.0535 1478.3365,342.3476 1476.4091,342.1956 C 1475.7375,342.1426 1474.9642,342.2145 1475.1147,343.0045 C 1474.4803,342.9035 1473.5555,343.2736 1472.9555,343.4645 C 1472.3663,343.6515 1471.5496,343.8275 1471.2631,344.3965 C 1470.6028,345.7106 1469.8328,345.6005 1468.2843,345.7215 C 1466.3752,345.8716 1464.3461,345.5516 1462.8294,346.9285 C 1460.6165,348.9576 1459.7059,346.4715 1457.8082,345.9165 C 1456.9008,345.6515 1455.8199,345.9386 1454.8796,346.0365 C 1453.7078,346.1585 1453.1401,345.8206 1452.0607,345.6556 C 1450.9652,345.4885 1449.8511,345.8206 1448.9065,345.2095 C 1447.3305,344.1895 1447.0014,345.4726 1445.4603,345.8136 C 1445.5423,344.2676 1443.8134,344.8755 1443.0007,344.0245 C 1442.4284,343.4246 1442.0533,343.6866 1441.4795,343.2946 C 1440.8283,342.8515 1440.7294,342.1936 1439.7614,341.9975"
     id="ua" />
  
  
  
  
  
  
  
  
  
  
  
  
  
  
  
  
  
  
  
  
  
  
  
  
  
  
  
  
  
  
  
  
  
  
  
  
  
  
  
  
  
  
  
  
  
  
  
  
  
  
  
  
  
  
  
  
  
  
  
  
  
  
  
  
  
  
  
  
  
  
  
  
  
  
  
  
  
  
  
  
  
  
  
  
  
  
  
  
  
  
  
  
  
  
  
  
  
  
  
  
  
  
  
  
  
  
  
  
  
  
  
  
  
  
  
  
  
  
  
  
  
  
  
  
  
  
  
  
  
  
  
  
  
  
  
  
  
  
  
  
  
  
  
  
  
  
  
  
  
  
  
  
  
  
  
  
  
  
  
  
  
  
  
  
  
  
  
  
  
  
  
  
  
  
  
  
  
  
  
  
  
  
  
  
  
  
  
  
  
  
  
  
  
  
  
  
  
  
  
  
  
  
  
  
  
  
  
  
  
  
  
  
  
</svg>
