<?xml version="1.0" encoding="UTF-8" standalone="no"?>
<svg
   xmlns:dc="http://purl.org/dc/elements/1.1/"
   xmlns:cc="http://web.resource.org/cc/"
   xmlns:rdf="http://www.w3.org/1999/02/22-rdf-syntax-ns#"
   xmlns:svg="http://www.w3.org/2000/svg"
   xmlns="http://www.w3.org/2000/svg"
   xmlns:sodipodi="http://sodipodi.sourceforge.net/DTD/sodipodi-0.dtd"
   xmlns:inkscape="http://www.inkscape.org/namespaces/inkscape"
   viewBox="0 0 2752.766 1537.631"
   version="1.0"
   height="476.7276"
   width="939.74725"
   id="svg1926"
   sodipodi:version="0.32"
   inkscape:version="0.45.1"
   sodipodi:docname="BlankMap-World6.svg"
   sodipodi:docbase="/home/bennett/Desktop"
   inkscape:output_extension="org.inkscape.output.svg.inkscape">
  <sodipodi:namedview
     inkscape:window-height="590"
     inkscape:window-width="822"
     inkscape:pageshadow="2"
     inkscape:pageopacity="0.0"
     guidetolerance="10.0"
     gridtolerance="10.0"
     objecttolerance="10.0"
     borderopacity="1.0"
     bordercolor="#666666"
     pagecolor="#ffffff"
     id="base"
     inkscape:zoom="0.77893284"
     inkscape:cx="469.87363"
     inkscape:cy="238.3638"
     inkscape:window-x="178"
     inkscape:window-y="46"
     inkscape:current-layer="svg1926" />
  <metadata
     id="metadata24111">
    <rdf:RDF>
      <cc:Work
         rdf:about="">
        <dc:format>image/svg+xml</dc:format>
        <dc:type
           rdf:resource="http://purl.org/dc/dcmitype/StillImage" />
        <cc:license
           rdf:resource="http://web.resource.org/cc/PublicDomain" />
        <dc:title>Blank World Map</dc:title>
      </cc:Work>
      <cc:License
         rdf:about="http://web.resource.org/cc/PublicDomain">
        <cc:permits
           rdf:resource="http://web.resource.org/cc/Reproduction" />
        <cc:permits
           rdf:resource="http://web.resource.org/cc/Distribution" />
        <cc:permits
           rdf:resource="http://web.resource.org/cc/DerivativeWorks" />
      </cc:License>
    </rdf:RDF>
  </metadata>
  <defs
     id="defs1930" />
  <style
     type="text/css"
     id="style_css_sheet">
/*
 * Below are Cascading Style Sheet (CSS) definitions in use in this file,
 * which allow easily changing how countries are displayed.
 *
 */

/*
 * Circles around small countries
 *
 * Change opacity to 1 to display all circles.
 *
 */
.circle
{
   opacity:0;
   fill:#b9b9b9;
   fill-opacity:1;
   stroke:black;
   stroke-width:0.99986893;
   stroke-miterlimit:3.97446823;
   stroke-dasharray:none;
   stroke-opacity:1;
}

/*
 * Land
 */
.land
{
   fill: #b9b9b9;
   fill-opacity: 1;
   stroke: #ffffff;
   stroke-opacity: 1;
   stroke-width: 0.99986997;
   stroke-miterlimit: 3.97446823;
   stroke-dasharray: none;
}

/*
 * Additional style rules
 *
 * The following are examples of colouring countries.  You can substitute these with your own styles to colour the countries on the map.
 *
 * Color a few countries:
 *
 * .gb, .au, .nc
 * {
 *    fill:       #ff0000;
 * }
 *
 * Color a few small country circles (and the countries):
 *
 * .ms, .ky
 * {
 *    opacity:    1;
 *    fill:       #ff0000;
 * }
 *
 */

/*
 * Antarctica
 */

.aq
{
   fill:#e6e6e6;
}

/*
 * Sea
 */

.ocean
{
   opacity: 1;
   color: #000000;
   fill:white;
   fill-opacity:1;
   fill-rule:nonzero;
   stroke:#000000;
   stroke-width:0.5;
   stroke-linecap:butt;
   stroke-linejoin:miter;
   marker:none;
   marker-start:none;
   marker-mid:none;
   marker-end:none;
   stroke-miterlimit:1;
   stroke-dasharray:none;
   stroke-dashoffset:0;
   stroke-opacity:1;
   visibility:visible;
   display:inline;
   overflow:visible;
}

.lake
{
   fill:#ffffff;
   fill-opacity:1;
   stroke:#ffffff;
   stroke-opacity:1;
   stroke-width:0.99986997;
   stroke-miterlimit:3.97446823;
   stroke-dasharray:none;
}
</style>
  
  
  
  
  
  
  
  
  
  
  
  
  
  
  
  
  
  
  
  
  
  
  
  
  
  
  
  
  
  
  
  
  
  
  
  
  
  
  
  <path
     class="land ug"
     d="M 1496.5201,769.6086 C 1497.0090,768.2545 1496.8504,766.4316 1497.0501,764.9955 C 1497.3016,763.1885 1497.3180,761.3705 1497.7024,759.5785 C 1498.0410,758.0036 1499.2978,756.4625 1499.4824,754.9446 C 1499.5688,754.2346 1499.3401,753.5266 1499.4755,752.8166 C 1499.6885,751.6996 1500.7438,751.9865 1501.2531,751.1785 C 1502.8040,748.7206 1505.1922,746.7465 1507.2922,744.5735 C 1508.1064,743.7296 1509.2979,742.4855 1509.6498,741.3475 C 1509.9391,740.4116 1508.2065,739.4306 1507.5352,739.0706 C 1506.9973,738.7816 1506.1765,739.6605 1505.7822,738.7736 C 1505.4704,738.0706 1505.7348,737.1075 1505.8863,736.3955 C 1506.3481,734.2136 1505.5442,732.4506 1506.6640,730.4475 C 1506.9917,729.8636 1506.2309,729.6455 1506.4347,729.0295 C 1506.6499,728.3776 1507.2170,727.8936 1507.7265,727.4755 C 1508.2281,727.0656 1508.8204,726.6916 1509.5010,726.8146 C 1510.0576,726.9156 1511.0963,728.0735 1511.6486,727.8246 C 1512.3556,727.5065 1513.3987,726.2096 1514.1414,727.1985 C 1514.9375,728.2565 1515.1516,728.6355 1516.5534,729.1416 C 1516.2077,727.7246 1517.9561,727.3325 1518.9790,727.1896 C 1520.2464,727.0126 1521.7623,726.0915 1523.0001,726.2355 C 1524.6947,726.4325 1525.1421,727.8335 1527.0045,726.5506 C 1528.3405,725.6315 1529.2753,724.2505 1530.2970,723.0205 C 1530.8795,723.8156 1531.4971,724.9475 1531.1317,725.9725 C 1532.3268,725.8515 1531.5049,726.6685 1532.5857,727.1236 C 1533.6454,727.5716 1534.0590,727.8765 1533.7526,729.1226 C 1533.1597,731.5345 1534.8807,733.4216 1536.0099,735.4416 C 1536.2491,735.8696 1537.3544,737.4085 1537.3288,737.8006 C 1537.2732,738.6295 1537.7971,739.6366 1537.9917,740.4435 C 1538.3336,741.8765 1537.6364,743.7655 1537.0169,745.1966 C 1536.4893,746.4176 1536.2581,746.8836 1536.5187,748.3045 C 1536.6535,749.0416 1535.4610,749.5036 1534.9163,749.7776 C 1533.8488,750.3166 1533.8054,751.7545 1533.1676,752.8185 C 1532.6904,753.6136 1531.7387,753.9786 1531.4086,754.8006 C 1530.9608,755.9135 1530.6139,756.9525 1530.0990,758.0326 C 1529.6839,758.9035 1529.9610,768.2365 1529.7729,768.2365 C 1522.5829,768.2365 1515.2721,768.6146 1508.1015,768.0765 C 1505.6360,767.8916 1502.9700,768.3696 1501.4925,770.3196 C 1501.0050,770.9636 1500.0763,772.5126 1499.0865,771.8256 C 1498.8573,771.6666 1498.7986,770.9135 1498.4037,771.0236 C 1497.8337,771.1825 1497.3519,771.5376 1496.7388,771.5466 C 1496.8153,770.8845 1496.7417,770.2386 1496.5201,769.6086"
     id="ug" />
  
  
  
  
  
  
  
  
  
  
  
  
  
  
  
  
  
  
  
  
  
  
  
  
  
  
  
  
  
  
  
  
  
  
  
  
  
  
  
  
  
  
  
  
  
  
  
  
  
  
  
  
  
  
  
  
  
  
  
  
  
  
  
  
  
  
  
  
  
  
  
  
  
  
  
  
  
  
  
  
  
  
  
  
  
  
  
  
  
  
  
  
  
  
  
  
  
  
  
  
  
  
  
  
  
  
  
  
  
  
  
  
  
  
  
  
  
  
  
  
  
  
  
  
  
  
  
  
  
  
  
  
  
  
  
  
  
  
  
  
  
  
  
  
  
  
  
  
  
  
  
  
  
  
  
  
  
  
  
  
  
  
  
  
  
  
  
  
  
  
  
  
  
  
  
  
  
  
  
  
  
  
  
  
  
  
  
  
  
  
  
  
</svg>
