<?xml version="1.0" encoding="UTF-8" standalone="no"?>
<svg
   xmlns:dc="http://purl.org/dc/elements/1.1/"
   xmlns:cc="http://web.resource.org/cc/"
   xmlns:rdf="http://www.w3.org/1999/02/22-rdf-syntax-ns#"
   xmlns:svg="http://www.w3.org/2000/svg"
   xmlns="http://www.w3.org/2000/svg"
   xmlns:sodipodi="http://sodipodi.sourceforge.net/DTD/sodipodi-0.dtd"
   xmlns:inkscape="http://www.inkscape.org/namespaces/inkscape"
   viewBox="0 0 2752.766 1537.631"
   version="1.0"
   height="476.7276"
   width="939.74725"
   id="svg1926"
   sodipodi:version="0.32"
   inkscape:version="0.45.1"
   sodipodi:docname="BlankMap-World6.svg"
   sodipodi:docbase="/home/bennett/Desktop"
   inkscape:output_extension="org.inkscape.output.svg.inkscape">
  <sodipodi:namedview
     inkscape:window-height="590"
     inkscape:window-width="822"
     inkscape:pageshadow="2"
     inkscape:pageopacity="0.0"
     guidetolerance="10.0"
     gridtolerance="10.0"
     objecttolerance="10.0"
     borderopacity="1.0"
     bordercolor="#666666"
     pagecolor="#ffffff"
     id="base"
     inkscape:zoom="0.77893284"
     inkscape:cx="469.87363"
     inkscape:cy="238.3638"
     inkscape:window-x="178"
     inkscape:window-y="46"
     inkscape:current-layer="svg1926" />
  <metadata
     id="metadata24111">
    <rdf:RDF>
      <cc:Work
         rdf:about="">
        <dc:format>image/svg+xml</dc:format>
        <dc:type
           rdf:resource="http://purl.org/dc/dcmitype/StillImage" />
        <cc:license
           rdf:resource="http://web.resource.org/cc/PublicDomain" />
        <dc:title>Blank World Map</dc:title>
      </cc:Work>
      <cc:License
         rdf:about="http://web.resource.org/cc/PublicDomain">
        <cc:permits
           rdf:resource="http://web.resource.org/cc/Reproduction" />
        <cc:permits
           rdf:resource="http://web.resource.org/cc/Distribution" />
        <cc:permits
           rdf:resource="http://web.resource.org/cc/DerivativeWorks" />
      </cc:License>
    </rdf:RDF>
  </metadata>
  <defs
     id="defs1930" />
  <style
     type="text/css"
     id="style_css_sheet">
/*
 * Below are Cascading Style Sheet (CSS) definitions in use in this file,
 * which allow easily changing how countries are displayed.
 *
 */

/*
 * Circles around small countries
 *
 * Change opacity to 1 to display all circles.
 *
 */
.circle
{
   opacity:0;
   fill:#b9b9b9;
   fill-opacity:1;
   stroke:black;
   stroke-width:0.99986893;
   stroke-miterlimit:3.97446823;
   stroke-dasharray:none;
   stroke-opacity:1;
}

/*
 * Land
 */
.land
{
   fill: #b9b9b9;
   fill-opacity: 1;
   stroke: #ffffff;
   stroke-opacity: 1;
   stroke-width: 0.99986997;
   stroke-miterlimit: 3.97446823;
   stroke-dasharray: none;
}

/*
 * Additional style rules
 *
 * The following are examples of colouring countries.  You can substitute these with your own styles to colour the countries on the map.
 *
 * Color a few countries:
 *
 * .gb, .au, .nc
 * {
 *    fill:       #ff0000;
 * }
 *
 * Color a few small country circles (and the countries):
 *
 * .ms, .ky
 * {
 *    opacity:    1;
 *    fill:       #ff0000;
 * }
 *
 */

/*
 * Antarctica
 */

.aq
{
   fill:#e6e6e6;
}

/*
 * Sea
 */

.ocean
{
   opacity: 1;
   color: #000000;
   fill:white;
   fill-opacity:1;
   fill-rule:nonzero;
   stroke:#000000;
   stroke-width:0.5;
   stroke-linecap:butt;
   stroke-linejoin:miter;
   marker:none;
   marker-start:none;
   marker-mid:none;
   marker-end:none;
   stroke-miterlimit:1;
   stroke-dasharray:none;
   stroke-dashoffset:0;
   stroke-opacity:1;
   visibility:visible;
   display:inline;
   overflow:visible;
}

.lake
{
   fill:#ffffff;
   fill-opacity:1;
   stroke:#ffffff;
   stroke-opacity:1;
   stroke-width:0.99986997;
   stroke-miterlimit:3.97446823;
   stroke-dasharray:none;
}
</style>
  
  
  
  
  
  
  
  
  
  
  
  
  
  
  
  
  
  
  
  
  
  
  
  
  
  
  
  
  
  
  
  
  
  
  
  
  
  
  
  
  
  
  
  
  
  
  
  
  
  
  
  
  
  
  
  
  
  
  
  
  
  
  
  
  
  
  
  
  
  
  
  
  
  
  
  
  
  
  <g
     class="land gb"
     id="gb">
    <path
       d="M 1208.1467,291.9575 C 1208.7425,290.9875 1210.3844,291.0065 1211.3750,290.4455 C 1210.9463,290.2025 1210.5346,289.9375 1210.1427,289.6525 C 1212.4352,290.2295 1213.0061,288.1635 1213.9269,287.1525 C 1214.8049,286.1915 1217.0600,287.4555 1217.1224,285.6925 C 1219.1783,286.4475 1221.3827,284.5645 1223.4816,285.6915 C 1224.3312,286.1475 1224.9311,287.2135 1225.3831,287.9005 C 1225.3009,287.7765 1227.0063,289.2505 1226.9339,288.9885 C 1227.0118,289.2665 1225.3916,289.9625 1225.1848,290.1565 C 1225.7762,290.1065 1227.4846,289.4685 1227.9572,290.1275 C 1228.4362,290.7955 1229.3681,292.1555 1228.0431,292.4615 C 1228.1703,291.7535 1227.7453,290.8095 1226.6641,291.0215 C 1227.3714,291.3525 1227.3559,291.9345 1226.9972,292.3895 C 1227.3279,292.2355 1227.6285,292.2565 1227.8989,292.4525 C 1228.0453,292.9455 1226.7812,293.5835 1226.3347,293.6235 C 1225.1829,293.7265 1225.3870,295.3625 1223.9284,295.0095 C 1222.7007,294.7125 1222.4425,294.4005 1221.4988,294.9605 C 1220.6976,295.4365 1219.2200,294.9485 1219.4760,293.9745 C 1219.0026,293.9955 1215.3228,290.9285 1215.3639,292.8965 C 1215.4375,296.3755 1209.9168,293.0845 1208.1467,291.9575"
       id="path2690" />
    <path
       d="M 1215.1266,270.2135 C 1213.9182,269.8735 1214.4672,268.9075 1215.4344,268.6295 C 1213.5779,266.2505 1212.7404,270.6695 1215.1266,270.2135"
       id="path2640" />
    <path
       d="M 1215.0929,266.9735 C 1215.0714,266.7545 1216.5604,265.8705 1215.8081,265.6945 C 1214.9674,265.4965 1213.0061,265.3725 1213.2519,266.4695 C 1213.9148,266.4565 1214.5286,266.6245 1215.0929,266.9735"
       id="path2642" />
    <path
       d="M 1214.7757,267.7655 C 1214.9029,266.9955 1214.5894,266.8755 1213.8394,267.4055 C 1214.1516,267.5255 1214.4637,267.6455 1214.7757,267.7655"
       id="path2644" />
    <path
       d="M 1217.6744,275.5415 C 1218.0326,275.2515 1218.4377,275.0115 1218.8895,274.8205 C 1218.1708,274.6905 1217.7434,274.9735 1217.6744,275.5415"
       id="path2646" />
    <path
       d="M 1219.1802,263.0855 C 1220.8605,264.7085 1222.0485,261.6685 1220.4688,262.1485 C 1221.3201,262.0615 1224.0453,261.0845 1222.1296,260.7815 C 1223.6909,260.1725 1223.1217,258.3925 1221.5168,259.3695 C 1220.7300,259.8495 1219.7246,259.9615 1218.9071,260.3895 C 1218.0195,260.8545 1218.9705,261.6645 1217.7877,262.0055 C 1217.7246,261.7405 1217.6530,261.4765 1217.5704,261.2135 C 1216.9137,261.3195 1216.3576,261.5605 1215.9056,261.9335 C 1216.7248,262.3685 1217.2342,262.8425 1215.9947,263.0855 C 1216.6594,263.1965 1217.2820,263.4125 1217.8622,263.7325 C 1217.2852,263.9635 1216.7356,264.2275 1216.2135,264.5245 C 1217.3903,265.8395 1219.0839,263.9515 1219.1802,263.0855"
       id="path2648" />
    <path
       d="M 1219.4589,274.5335 C 1220.1052,274.3495 1220.5874,274.0135 1220.9069,273.5245 C 1220.2582,273.6675 1219.7240,274.0345 1219.4589,274.5335"
       id="path2650" />
    <path
       d="M 1222.4295,282.5975 C 1223.7975,282.0685 1224.8858,280.9155 1222.8086,280.0105 C 1221.4755,279.4305 1221.0198,281.1745 1220.6765,281.8055 C 1221.2145,281.5125 1221.7898,281.2725 1222.4036,281.0855 C 1222.5932,281.6035 1222.6025,282.1075 1222.4295,282.5975"
       id="path2652" />
    <path
       d="M 1224.5117,270.8625 C 1225.4960,270.6335 1227.0169,269.8935 1226.7139,268.8455 C 1222.9935,269.9605 1224.1125,266.1405 1221.9328,265.5335 C 1221.7848,265.9975 1221.7359,266.4765 1221.7875,266.9725 C 1219.9901,266.6375 1220.3530,267.5435 1219.0140,267.3325 C 1219.0188,268.7795 1221.0351,267.8815 1221.9333,268.5565 C 1219.9546,268.6745 1222.1271,269.6995 1222.8889,269.6935 C 1223.7289,269.6875 1224.6368,269.3365 1225.4930,269.6365 C 1224.7907,269.7775 1224.3781,270.2435 1224.5117,270.8625"
       id="path2654" />
    <path
       d="M 1230.2217,328.6055 C 1231.2562,328.8055 1232.5516,327.0885 1233.2821,326.5485 C 1234.6294,325.5545 1237.5238,326.3795 1238.3547,324.8615 C 1238.4412,325.7925 1240.6625,326.6935 1241.5508,326.7525 C 1243.2090,326.8635 1244.0433,324.0445 1243.9461,322.9885 C 1244.5357,323.8285 1246.2850,322.9815 1246.9367,322.7775 C 1248.6491,322.2425 1250.5021,322.9395 1251.8645,323.9975 C 1251.9018,323.0675 1253.0233,323.3485 1253.7531,323.4615 C 1254.5497,323.5855 1256.7505,322.9855 1254.5975,322.6295 C 1255.5625,322.6295 1261.6336,322.6045 1259.8252,321.1895 C 1260.9058,322.0845 1262.1502,321.3845 1263.3688,321.6225 C 1263.6865,321.6745 1263.8369,321.8255 1263.8224,322.0745 C 1263.8893,322.5015 1265.8364,322.0335 1265.8180,322.0355 C 1267.5824,321.8415 1269.2728,321.7715 1271.0354,322.2145 C 1272.5146,322.5865 1274.5131,321.6185 1275.9298,321.2935 C 1277.1789,321.0065 1277.4383,320.6465 1278.2470,319.9755 C 1279.1211,319.2535 1280.9082,319.4135 1281.4000,318.3255 C 1281.9384,317.1185 1275.3699,316.9515 1274.6752,316.8705 C 1275.1334,316.7635 1275.5740,316.6185 1275.9959,316.4375 C 1275.1376,316.2685 1274.2247,316.0895 1273.4907,316.5825 C 1274.1990,315.8895 1275.2446,316.1655 1276.1867,316.0075 C 1277.7708,315.7405 1277.6225,314.3555 1276.0066,314.2065 C 1276.6361,314.3165 1276.9961,313.8735 1277.4739,313.6685 C 1278.4244,313.2615 1279.2098,314.0925 1280.2308,313.2695 C 1279.9315,312.7755 1279.4641,312.4875 1278.8309,312.4055 C 1279.4962,312.2985 1281.1105,312.3845 1279.2963,311.8305 C 1281.7922,312.4605 1282.0548,311.1025 1283.0132,309.6075 C 1284.2602,307.6695 1283.9044,305.7965 1281.1921,304.6825 C 1279.6172,304.0365 1276.0468,303.1345 1274.6038,304.2395 C 1274.1082,304.6185 1273.9840,305.4395 1273.3047,305.6375 C 1272.2719,305.9385 1271.5233,304.4925 1270.4360,304.7015 C 1271.6827,302.9365 1274.5229,302.8265 1271.9513,300.2475 C 1269.8048,298.1125 1267.6374,298.2375 1264.8148,297.9325 C 1266.6171,297.2535 1269.9640,297.8445 1271.5379,298.8695 C 1271.1156,297.8645 1267.0828,295.1085 1269.7489,294.4765 C 1267.9638,294.0985 1267.5075,292.6125 1266.2599,291.6685 C 1265.0929,290.7865 1263.4103,290.8145 1262.0168,290.6345 C 1259.6827,290.3325 1258.6511,285.7355 1258.3745,284.2445 C 1257.9056,281.7635 1253.9512,279.6135 1251.0334,279.1775 C 1250.2632,279.0635 1249.5427,278.1945 1248.7832,278.8045 C 1248.2962,279.1985 1247.8213,279.3875 1247.1124,279.3785 C 1245.2313,279.3545 1242.6463,279.4485 1241.1105,278.2045 C 1244.2156,279.9965 1245.9344,277.4835 1248.8758,277.4835 C 1250.5487,277.4835 1249.8405,276.4165 1248.9030,275.8435 C 1247.5775,275.0335 1246.4436,276.3205 1245.0723,276.1875 C 1248.4623,275.6345 1251.1412,274.3125 1253.1459,272.0595 C 1254.0515,271.0465 1254.2366,269.8495 1254.9916,268.8125 C 1255.5069,268.0915 1257.0809,267.6225 1256.5122,266.5565 C 1255.4845,264.6325 1250.8983,265.3675 1248.9822,265.5435 C 1246.9955,265.7265 1244.9785,265.0805 1243.0775,265.5585 C 1241.4757,265.9615 1239.7057,266.7985 1238.1025,267.0435 C 1238.2643,266.3595 1239.2242,266.2985 1239.4151,265.6035 C 1238.4385,265.5285 1237.6196,265.9045 1236.7462,266.1075 C 1237.6947,265.2135 1240.4613,265.8345 1240.7808,264.4525 C 1239.4787,264.2095 1237.9813,264.4465 1236.7973,263.7315 C 1238.9802,264.3855 1238.5209,263.9555 1239.8018,263.2055 C 1240.8614,262.5865 1242.1952,262.3255 1243.2704,261.7295 C 1243.7139,261.4845 1249.3798,258.2945 1246.1713,257.7815 C 1244.2131,257.4685 1241.9094,258.2165 1240.0764,258.5115 C 1239.0551,258.6765 1237.9678,258.8835 1236.8915,258.8135 C 1236.6224,258.7965 1236.2614,258.7565 1236.0560,258.5705 C 1235.7259,258.2715 1234.5742,259.0275 1234.1676,259.1965 C 1234.9554,257.9445 1234.2295,258.8085 1233.5072,258.4735 C 1233.2177,258.3395 1232.6790,257.8545 1232.3076,257.9265 C 1231.5478,258.0725 1232.0871,259.9055 1231.0359,260.3485 C 1231.3952,260.4985 1232.1438,260.7035 1232.1828,260.9965 C 1229.3562,259.9955 1230.4970,262.3745 1229.2270,262.7245 C 1229.9320,262.9525 1230.5476,263.3945 1230.8929,263.9495 C 1230.0654,264.2225 1226.8592,263.2875 1227.2938,264.7405 C 1226.8400,263.4055 1225.1701,265.6685 1227.4890,266.7575 C 1226.8950,266.6945 1226.3039,266.6695 1225.7172,266.6855 C 1225.7750,268.0795 1227.1865,268.0865 1228.4554,267.9815 C 1227.8271,268.1485 1227.2774,268.4125 1226.8064,268.7735 C 1227.5560,268.5355 1228.4395,268.6695 1228.9813,269.2785 C 1227.6900,268.1905 1226.4148,270.2845 1228.9877,270.1415 C 1228.7234,270.2255 1224.5429,270.3715 1227.5462,271.2215 C 1226.1741,270.3005 1224.9809,272.0245 1226.7167,272.3015 C 1226.0030,272.2175 1225.6234,272.5125 1225.6712,273.0935 C 1224.6787,272.7215 1223.4633,272.8165 1222.7288,273.3815 C 1224.1481,273.6475 1225.9761,272.8845 1227.3016,273.5975 C 1226.2676,273.2255 1225.7401,274.1855 1224.7036,273.8135 C 1225.8919,276.7795 1229.9244,273.1825 1231.2937,272.5175 C 1230.7838,273.0385 1230.5431,273.8635 1231.9187,273.3815 C 1231.2287,273.4985 1227.7215,274.8735 1230.0684,274.6775 C 1229.7983,274.9145 1229.5324,275.1555 1229.2693,275.3975 C 1229.8960,275.4245 1230.5053,275.3765 1231.0960,275.2535 C 1230.7549,275.4145 1229.1107,275.4705 1229.0182,275.5785 C 1228.7583,275.8845 1228.3415,276.1455 1227.9707,276.3545 C 1227.5354,276.5995 1227.9456,277.2975 1227.9387,277.6865 C 1227.9310,278.1075 1225.8891,280.8555 1227.6925,278.8535 C 1226.7372,279.4455 1227.1992,281.6845 1228.5170,280.6535 C 1227.0154,281.3975 1227.1464,282.8335 1226.2439,283.9235 C 1225.6134,284.6865 1227.9530,285.2515 1228.0018,283.7275 C 1228.0347,282.6365 1229.6261,281.3725 1229.0583,280.3325 C 1228.2485,278.8535 1230.8202,277.9485 1231.8737,277.4145 C 1231.1977,277.9485 1229.3324,278.7605 1229.6621,279.7865 C 1229.8704,280.2715 1230.2242,280.3925 1230.7249,280.1495 C 1231.0664,280.6125 1231.4892,281.0215 1231.9931,281.3745 C 1232.1289,280.7615 1231.6207,280.1505 1230.9440,279.8625 C 1231.5339,279.0965 1231.9661,279.6025 1232.2061,280.2215 C 1233.3129,279.3245 1232.2752,277.6065 1233.7519,277.8455 C 1233.1935,278.2645 1233.1639,278.7445 1233.6660,279.2855 C 1233.3231,277.9245 1234.4943,279.3645 1235.5401,279.7175 C 1234.8544,279.6885 1233.2460,279.2075 1233.0520,280.0345 C 1232.6823,281.6165 1233.9555,281.5885 1234.6845,282.7065 C 1235.9236,284.6115 1230.8933,285.7205 1232.1695,287.9975 C 1232.0407,287.8365 1230.7999,286.9655 1230.7019,287.4605 C 1230.5161,288.4095 1232.5046,289.7075 1233.2123,290.3015 C 1232.3484,288.6445 1233.1042,288.3165 1235.0379,289.0195 C 1236.6314,289.6005 1236.9233,289.5585 1236.8160,287.9985 C 1238.7654,289.4785 1239.8242,288.8855 1241.7779,288.3985 C 1242.3844,288.2475 1243.3379,288.0795 1243.1312,287.3505 C 1244.5226,287.4915 1245.9029,287.4095 1247.2918,287.4945 C 1245.8254,288.3545 1243.9791,288.4665 1243.2423,290.0155 C 1242.7765,290.9955 1244.1805,294.2735 1245.8310,293.4715 C 1245.6377,294.0125 1245.8023,294.4925 1246.3232,294.9105 C 1246.6434,294.5035 1246.9126,294.0725 1247.1318,293.6155 C 1247.4736,294.5015 1248.3233,294.0635 1248.8608,293.7595 C 1248.3666,294.4015 1248.4556,295.2205 1247.8756,295.9195 C 1247.5400,296.3255 1246.1994,297.9835 1248.2345,297.7195 C 1246.2476,298.5925 1247.1997,301.5855 1249.6518,300.8875 C 1248.5734,301.5975 1244.8111,298.8835 1246.8586,301.8235 C 1244.3334,300.1255 1241.1614,301.8795 1238.6037,301.8235 C 1239.4437,300.8425 1236.3711,299.9265 1235.6762,300.4655 C 1234.2705,301.5555 1236.9156,303.0815 1238.2762,301.9685 C 1237.0278,303.2855 1235.1474,304.0555 1233.9726,305.4245 C 1235.7007,305.5385 1237.0967,303.8885 1238.8930,304.6325 C 1238.5252,305.2335 1238.9733,305.8245 1239.6485,306.1445 C 1238.6723,306.5425 1239.0555,307.6485 1240.2114,307.5125 C 1239.2637,307.6285 1239.2754,308.4035 1238.9721,309.0005 C 1238.5760,309.7835 1237.4167,310.2515 1236.5313,310.5415 C 1234.5663,311.1855 1231.6749,311.6265 1230.5069,313.0565 C 1231.2601,313.3045 1231.5766,313.8205 1231.0720,314.3525 C 1231.9933,314.5165 1232.8946,314.4265 1233.4480,313.7765 C 1233.0861,314.4705 1232.2250,314.6915 1231.3607,314.6405 C 1232.6358,315.8805 1235.9680,314.4695 1237.0674,313.7765 C 1237.1146,314.8195 1238.5228,314.8565 1239.3402,314.6405 C 1239.0315,315.0835 1238.5660,315.2035 1237.9430,315.0005 C 1238.3061,316.2515 1239.3237,315.6415 1240.1518,315.2955 C 1241.4269,314.7645 1242.3362,316.5175 1243.5394,316.9525 C 1245.7306,317.7445 1245.9174,316.1025 1247.6232,315.8875 C 1249.4876,315.6525 1250.6869,314.8095 1252.1120,313.8475 C 1250.8071,315.3275 1248.8765,316.3505 1247.4418,317.7355 C 1247.0651,318.0965 1247.7033,318.5315 1246.8440,318.6275 C 1245.8672,318.7355 1244.8767,318.7875 1243.8838,318.6135 C 1242.4811,318.3675 1240.1193,317.9545 1238.8511,318.6395 C 1238.0912,319.0515 1238.1129,319.8685 1237.3396,320.2875 C 1236.2745,320.8635 1235.9316,319.4315 1235.6854,321.1385 C 1235.5871,321.8245 1233.8645,324.4205 1232.8351,324.2225 C 1232.1990,324.1005 1232.0437,324.1225 1231.8636,324.7225 C 1231.5770,325.6775 1230.0557,326.1115 1229.1148,326.4565 C 1228.3640,326.7315 1227.5327,327.0305 1226.9163,327.4925 C 1226.6613,327.6825 1227.0693,328.3415 1227.3637,328.2855 C 1228.3872,328.0885 1229.5783,327.3095 1230.2217,328.6055"
       id="path2656" />
    <path
       d="M 1222.1324,271.5095 C 1222.2986,271.4375 1222.4637,271.3655 1222.6287,271.2935 C 1222.3161,270.6085 1221.7171,270.4905 1221.1907,271.0055 C 1221.5047,271.1735 1221.8199,271.3415 1222.1324,271.5095"
       id="path2658" />
    <path
       d="M 1222.7291,276.8375 C 1224.2515,276.7495 1225.6062,276.2275 1227.0681,275.9735 C 1226.6047,274.6165 1222.9564,273.2875 1222.1103,274.7495 C 1222.8177,274.7945 1223.4296,275.0345 1223.9493,275.4695 C 1223.3906,275.8555 1222.6239,276.4125 1224.2221,276.1895 C 1223.6047,276.2435 1223.1074,276.4595 1222.7291,276.8375"
       id="path2660" />
    <path
       d="M 1224.7189,280.7975 C 1225.3428,279.8565 1226.5200,279.0875 1226.6180,277.9175 C 1225.5308,278.4925 1225.0308,279.6135 1223.8432,280.0765 C 1224.1028,280.3435 1224.3951,280.5835 1224.7189,280.7975"
       id="path2662" />
    <path
       d="M 1224.1972,268.4135 C 1224.3970,267.9315 1224.5010,267.4275 1224.5065,266.9005 C 1224.0144,267.3185 1223.9119,267.8225 1224.1972,268.4135"
       id="path2664" />
    <path
       d="M 1230.8043,283.7495 C 1231.9126,283.3605 1231.3021,281.3025 1229.9880,281.3735 C 1228.4538,281.4575 1229.4601,283.8215 1230.8043,283.7495"
       id="path2666" />
    <path
       d="M 1245.7094,256.7495 C 1245.8200,256.1685 1245.5232,255.5905 1244.6734,255.5245 C 1244.5576,256.1095 1245.0273,256.5515 1245.7094,256.7495"
       id="path2670" />
    <path
       d="M 1245.5244,255.1655 C 1246.5373,255.8445 1249.0480,256.1865 1249.7181,255.1655 C 1248.7430,255.1115 1247.1075,255.1645 1246.6463,254.1995 C 1246.2671,253.4175 1243.9133,254.1755 1245.5244,255.1655"
       id="path2672" />
    <path
       d="M 1247.8931,257.1095 C 1248.1658,256.8735 1248.2804,256.5855 1248.2405,256.2455 C 1247.2813,256.1915 1247.1658,256.4795 1247.8931,257.1095"
       id="path2674" />
    <path
       d="M 1248.4168,253.1495 C 1248.4889,252.6535 1248.2082,252.3175 1247.5731,252.1415 C 1247.3159,252.7085 1247.6526,253.0735 1248.4168,253.1495"
       id="path2676" />
    <path
       d="M 1249.8898,253.5095 C 1250.3739,253.1665 1250.9084,252.8785 1251.4921,252.6455 C 1250.6911,252.5545 1250.0947,252.9305 1249.8898,253.5095"
       id="path2678" />
    <path
       d="M 1260.2127,246.9575 C 1260.0902,247.2215 1259.9677,247.4855 1259.8454,247.7495 C 1261.8100,247.7525 1261.6371,245.0625 1262.2607,244.0765 C 1261.5011,244.0275 1261.0541,243.6825 1261.1630,243.0705 C 1260.8783,243.2385 1260.5937,243.4065 1260.3093,243.5745 C 1260.1855,243.0655 1260.2534,242.5845 1260.5112,242.1335 C 1259.3689,242.0105 1259.6909,243.1515 1258.5162,242.9255 C 1259.0678,243.4125 1259.7124,243.7965 1260.4499,244.0765 C 1259.6326,244.4575 1258.6844,244.6295 1257.7003,244.5815 C 1258.1487,245.8505 1258.1657,244.9125 1259.4165,245.2405 C 1260.4367,245.5095 1261.0273,246.3215 1260.2127,246.9575"
       id="path2776" />
    <path
       d="M 1261.8892,243.1415 C 1262.5077,242.7385 1263.3622,241.5325 1261.8072,241.4855 C 1261.9479,242.0205 1261.4195,242.6415 1261.8892,243.1415"
       id="path2778" />
    <path
       d="M 1264.0110,241.7015 C 1265.1638,239.9485 1261.3934,241.4365 1264.0110,241.7015"
       id="path2780" />
    <path
       d="M 1263.7322,242.5655 C 1264.0287,242.4695 1264.3266,242.3745 1264.6233,242.2785 C 1263.6767,241.8885 1263.3788,241.9845 1263.7322,242.5655"
       id="path2782" />
    <path
       d="M 1260.5991,323.7815 C 1261.3139,323.7245 1261.9191,323.3525 1262.2826,322.8445 C 1260.8749,322.1895 1260.1153,322.3975 1258.8811,323.0605 C 1259.4886,323.2335 1260.0601,323.4735 1260.5991,323.7815"
       id="path5354" />
  </g>
  
  
  
  
  
  
  
  
  
  
  
  
  
  
  
  
  
  
  
  
  
  
  
  
  
  
  
  
  
  
  
  
  
  
  
  
  
  
  
  
  
  
  
  
  
  
  
  
  
  
  
  
  
  
  
  
  
  
  
  
  
  
  
  
  
  
  
  
  
  
  
  
  
  
  
  
  
  
  
  
  
  
  
  
  
  
  
  
  
  
  
  
  
  
  
  
  
  
  
  
  
  
  
  
  
  
  
  
  
  
  
  
  
  
  
  
  
  
  
  
  
  
  
  
  
  
  
  
  
  
  
  
  
  
  
  
  
  
  
  
  
  
  
  
  
  
  
  
  
  
  
  
  
</svg>
