<?xml version="1.0" encoding="UTF-8" standalone="no"?>
<svg
   xmlns:dc="http://purl.org/dc/elements/1.1/"
   xmlns:cc="http://web.resource.org/cc/"
   xmlns:rdf="http://www.w3.org/1999/02/22-rdf-syntax-ns#"
   xmlns:svg="http://www.w3.org/2000/svg"
   xmlns="http://www.w3.org/2000/svg"
   xmlns:sodipodi="http://sodipodi.sourceforge.net/DTD/sodipodi-0.dtd"
   xmlns:inkscape="http://www.inkscape.org/namespaces/inkscape"
   viewBox="0 0 2752.766 1537.631"
   version="1.0"
   height="476.7276"
   width="939.74725"
   id="svg1926"
   sodipodi:version="0.32"
   inkscape:version="0.45.1"
   sodipodi:docname="BlankMap-World6.svg"
   sodipodi:docbase="/home/bennett/Desktop"
   inkscape:output_extension="org.inkscape.output.svg.inkscape">
  <sodipodi:namedview
     inkscape:window-height="590"
     inkscape:window-width="822"
     inkscape:pageshadow="2"
     inkscape:pageopacity="0.0"
     guidetolerance="10.0"
     gridtolerance="10.0"
     objecttolerance="10.0"
     borderopacity="1.0"
     bordercolor="#666666"
     pagecolor="#ffffff"
     id="base"
     inkscape:zoom="0.77893284"
     inkscape:cx="469.87363"
     inkscape:cy="238.3638"
     inkscape:window-x="178"
     inkscape:window-y="46"
     inkscape:current-layer="svg1926" />
  <metadata
     id="metadata24111">
    <rdf:RDF>
      <cc:Work
         rdf:about="">
        <dc:format>image/svg+xml</dc:format>
        <dc:type
           rdf:resource="http://purl.org/dc/dcmitype/StillImage" />
        <cc:license
           rdf:resource="http://web.resource.org/cc/PublicDomain" />
        <dc:title>Blank World Map</dc:title>
      </cc:Work>
      <cc:License
         rdf:about="http://web.resource.org/cc/PublicDomain">
        <cc:permits
           rdf:resource="http://web.resource.org/cc/Reproduction" />
        <cc:permits
           rdf:resource="http://web.resource.org/cc/Distribution" />
        <cc:permits
           rdf:resource="http://web.resource.org/cc/DerivativeWorks" />
      </cc:License>
    </rdf:RDF>
  </metadata>
  <defs
     id="defs1930" />
  <style
     type="text/css"
     id="style_css_sheet">
/*
 * Below are Cascading Style Sheet (CSS) definitions in use in this file,
 * which allow easily changing how countries are displayed.
 *
 */

/*
 * Circles around small countries
 *
 * Change opacity to 1 to display all circles.
 *
 */
.circle
{
   opacity:0;
   fill:#b9b9b9;
   fill-opacity:1;
   stroke:black;
   stroke-width:0.99986893;
   stroke-miterlimit:3.97446823;
   stroke-dasharray:none;
   stroke-opacity:1;
}

/*
 * Land
 */
.land
{
   fill: #b9b9b9;
   fill-opacity: 1;
   stroke: #ffffff;
   stroke-opacity: 1;
   stroke-width: 0.99986997;
   stroke-miterlimit: 3.97446823;
   stroke-dasharray: none;
}

/*
 * Additional style rules
 *
 * The following are examples of colouring countries.  You can substitute these with your own styles to colour the countries on the map.
 *
 * Color a few countries:
 *
 * .gb, .au, .nc
 * {
 *    fill:       #ff0000;
 * }
 *
 * Color a few small country circles (and the countries):
 *
 * .ms, .ky
 * {
 *    opacity:    1;
 *    fill:       #ff0000;
 * }
 *
 */

/*
 * Antarctica
 */

.aq
{
   fill:#e6e6e6;
}

/*
 * Sea
 */

.ocean
{
   opacity: 1;
   color: #000000;
   fill:white;
   fill-opacity:1;
   fill-rule:nonzero;
   stroke:#000000;
   stroke-width:0.5;
   stroke-linecap:butt;
   stroke-linejoin:miter;
   marker:none;
   marker-start:none;
   marker-mid:none;
   marker-end:none;
   stroke-miterlimit:1;
   stroke-dasharray:none;
   stroke-dashoffset:0;
   stroke-opacity:1;
   visibility:visible;
   display:inline;
   overflow:visible;
}

.lake
{
   fill:#ffffff;
   fill-opacity:1;
   stroke:#ffffff;
   stroke-opacity:1;
   stroke-width:0.99986997;
   stroke-miterlimit:3.97446823;
   stroke-dasharray:none;
}
</style>
  
  
  
  
  
  
  
  
  
  
  
  
  
  
  
  
  
  
  
  
  
  
  
  
  
  
  
  
  
  
  
  
  
  
  
  
  
  
  
  
  
  
  
  
  
  
  
  
  
  
  
  
  
  
  
  
  
  
  
  
  
  
  
  
  
  
  
  
  
  
  
  
  
  
  
  
  
  
  
  
  
  
  
  
  
  
  
  
  
  
  
  
  
  
  
  
  
  
  
  
  
  
  
  
  
  
  
  
  
  
  <path
     class="land uy"
     d="M 828.0171,1023.7686 C 828.8529,1022.8536 830.2575,1022.0306 829.9605,1020.7396 C 830.8431,1021.4416 831.7784,1021.9676 833.1257,1021.3556 C 833.8664,1021.0196 834.0594,1019.9926 834.9631,1019.8766 C 836.6207,1019.6656 837.8942,1021.5676 838.8296,1022.4686 C 840.0582,1023.6506 842.6141,1024.6626 842.5274,1026.6886 C 842.4960,1027.4206 842.1467,1028.6376 843.2802,1028.3796 C 844.0975,1028.1926 845.6026,1027.4926 845.2886,1026.4986 C 846.5585,1026.8306 848.4542,1030.8136 849.5920,1030.4426 C 850.6546,1030.0956 850.7196,1030.8586 851.4541,1031.3446 C 852.4305,1031.9896 853.5007,1031.9906 854.2673,1032.9316 C 854.8212,1033.6196 855.2306,1034.4536 855.9706,1034.9876 C 856.9351,1035.6826 858.2720,1035.7966 859.1220,1036.6486 C 860.6828,1038.2106 860.8278,1040.2086 862.9633,1041.3296 C 865.3822,1042.5976 863.9429,1043.3356 862.2602,1045.2316 C 861.0342,1046.6116 860.9172,1050.2136 862.1824,1051.1046 C 862.9926,1051.6726 860.6793,1055.0446 859.8060,1056.0496 C 859.0745,1056.8906 856.4681,1060.4216 855.2375,1059.1176 C 855.8158,1060.0966 853.8759,1060.6146 853.1493,1060.8676 C 851.0797,1061.5886 850.4277,1061.6396 848.4889,1061.2356 C 846.9402,1060.9126 845.3914,1060.1316 843.6060,1060.8906 C 842.8483,1061.2116 842.0039,1061.6286 841.2110,1061.6946 C 840.0032,1061.7946 840.2707,1061.0166 839.6038,1060.6286 C 838.4489,1059.9576 836.7126,1060.2026 835.6197,1059.4716 C 834.1146,1058.4626 833.6828,1057.4266 831.4061,1057.5346 C 829.9425,1057.6036 828.6369,1058.1816 827.8615,1057.0656 C 826.8235,1055.5666 824.9214,1054.5796 824.2241,1052.8646 C 823.7021,1051.6686 823.6237,1046.5556 825.5355,1046.0846 C 827.5115,1045.5966 826.5979,1043.5406 826.2690,1042.6076 C 826.0346,1041.9426 825.9140,1041.2086 825.7690,1040.5086 C 825.6465,1039.9216 826.5845,1039.4346 826.4683,1038.6096 C 826.3681,1037.8896 825.5066,1035.7936 826.3221,1035.0726 C 828.1289,1033.4756 826.4857,1032.5216 827.3073,1031.4456 C 827.8626,1030.6976 827.9282,1027.2186 828.1256,1027.0986 C 829.6000,1026.2016 828.1102,1024.9526 828.0171,1023.7686"
     id="uy" />
  
  
  
  
  
  
  
  
  
  
  
  
  
  
  
  
  
  
  
  
  
  
  
  
  
  
  
  
  
  
  
  
  
  
  
  
  
  
  
  
  
  
  
  
  
  
  
  
  
  
  
  
  
  
  
  
  
  
  
  
  
  
  
  
  
  
  
  
  
  
  
  
  
  
  
  
  
  
  
  
  
  
  
  
  
  
  
  
  
  
  
  
  
  
  
  
  
  
  
  
  
  
  
  
  
  
  
  
  
  
  
  
  
  
  
  
  
  
  
  
  
</svg>
