<?xml version="1.0" encoding="UTF-8" standalone="no"?>
<svg
   xmlns:dc="http://purl.org/dc/elements/1.1/"
   xmlns:cc="http://web.resource.org/cc/"
   xmlns:rdf="http://www.w3.org/1999/02/22-rdf-syntax-ns#"
   xmlns:svg="http://www.w3.org/2000/svg"
   xmlns="http://www.w3.org/2000/svg"
   xmlns:sodipodi="http://sodipodi.sourceforge.net/DTD/sodipodi-0.dtd"
   xmlns:inkscape="http://www.inkscape.org/namespaces/inkscape"
   viewBox="0 0 2752.766 1537.631"
   version="1.0"
   height="476.7276"
   width="939.74725"
   id="svg1926"
   sodipodi:version="0.32"
   inkscape:version="0.45.1"
   sodipodi:docname="BlankMap-World6.svg"
   sodipodi:docbase="/home/bennett/Desktop"
   inkscape:output_extension="org.inkscape.output.svg.inkscape">
  <sodipodi:namedview
     inkscape:window-height="590"
     inkscape:window-width="822"
     inkscape:pageshadow="2"
     inkscape:pageopacity="0.0"
     guidetolerance="10.0"
     gridtolerance="10.0"
     objecttolerance="10.0"
     borderopacity="1.0"
     bordercolor="#666666"
     pagecolor="#ffffff"
     id="base"
     inkscape:zoom="0.77893284"
     inkscape:cx="469.87363"
     inkscape:cy="238.3638"
     inkscape:window-x="178"
     inkscape:window-y="46"
     inkscape:current-layer="svg1926" />
  <metadata
     id="metadata24111">
    <rdf:RDF>
      <cc:Work
         rdf:about="">
        <dc:format>image/svg+xml</dc:format>
        <dc:type
           rdf:resource="http://purl.org/dc/dcmitype/StillImage" />
        <cc:license
           rdf:resource="http://web.resource.org/cc/PublicDomain" />
        <dc:title>Blank World Map</dc:title>
      </cc:Work>
      <cc:License
         rdf:about="http://web.resource.org/cc/PublicDomain">
        <cc:permits
           rdf:resource="http://web.resource.org/cc/Reproduction" />
        <cc:permits
           rdf:resource="http://web.resource.org/cc/Distribution" />
        <cc:permits
           rdf:resource="http://web.resource.org/cc/DerivativeWorks" />
      </cc:License>
    </rdf:RDF>
  </metadata>
  <defs
     id="defs1930" />
  <style
     type="text/css"
     id="style_css_sheet">
/*
 * Below are Cascading Style Sheet (CSS) definitions in use in this file,
 * which allow easily changing how countries are displayed.
 *
 */

/*
 * Circles around small countries
 *
 * Change opacity to 1 to display all circles.
 *
 */
.circle
{
   opacity:0;
   fill:#b9b9b9;
   fill-opacity:1;
   stroke:black;
   stroke-width:0.99986893;
   stroke-miterlimit:3.97446823;
   stroke-dasharray:none;
   stroke-opacity:1;
}

/*
 * Land
 */
.land
{
   fill: #b9b9b9;
   fill-opacity: 1;
   stroke: #ffffff;
   stroke-opacity: 1;
   stroke-width: 0.99986997;
   stroke-miterlimit: 3.97446823;
   stroke-dasharray: none;
}

/*
 * Additional style rules
 *
 * The following are examples of colouring countries.  You can substitute these with your own styles to colour the countries on the map.
 *
 * Color a few countries:
 *
 * .gb, .au, .nc
 * {
 *    fill:       #ff0000;
 * }
 *
 * Color a few small country circles (and the countries):
 *
 * .ms, .ky
 * {
 *    opacity:    1;
 *    fill:       #ff0000;
 * }
 *
 */

/*
 * Antarctica
 */

.aq
{
   fill:#e6e6e6;
}

/*
 * Sea
 */

.ocean
{
   opacity: 1;
   color: #000000;
   fill:white;
   fill-opacity:1;
   fill-rule:nonzero;
   stroke:#000000;
   stroke-width:0.5;
   stroke-linecap:butt;
   stroke-linejoin:miter;
   marker:none;
   marker-start:none;
   marker-mid:none;
   marker-end:none;
   stroke-miterlimit:1;
   stroke-dasharray:none;
   stroke-dashoffset:0;
   stroke-opacity:1;
   visibility:visible;
   display:inline;
   overflow:visible;
}

.lake
{
   fill:#ffffff;
   fill-opacity:1;
   stroke:#ffffff;
   stroke-opacity:1;
   stroke-width:0.99986997;
   stroke-miterlimit:3.97446823;
   stroke-dasharray:none;
}
</style>
  
  
  
  
  
  
  
  
  
  
  
  
  
  
  
  
  
  
  
  
  
  
  
  
  
  
  
  
  
  
  
  
  
  
  
  
  
  
  
  
  
  
  
  
  
  
  
  
  
  
  
  
  
  
  
  
  
  
  
  
  
  
  
  
  
  
  
  
  
  
  
  
  
  
  
  
  
  
  
  
  
  
  
  
  
  
  
  
  
  
  
  
  
  
  
  
  
  
  
  
  
  
  
  
  
  
  
  
  
  
  
  
  
  
  
  
  
  
  
  
  
  
  
  
  
  
  
  
  
  
  
  
  
  
  
  
  
  
  
  
  
  
  
  
  
  
  
  
  
  
  
  
  
  
  
  
  <g
     class="land uz"
     id="uz">
    <path
       d="M 1698.5094,370.8696 C 1703.0595,369.4765 1707.6600,368.4826 1712.2530,367.3816 C 1713.9010,366.9866 1716.0873,366.8567 1717.7274,366.3752 C 1719.5299,365.8464 1714.5699,370.7694 1716.2039,373.5617 C 1716.2668,373.6694 1716.0553,375.2841 1716.2976,376.0007 C 1716.5394,376.7173 1717.1926,376.6209 1717.3841,376.6148 L 1721.3731,376.4885 C 1722.0603,376.4019 1721.8873,377.2846 1721.9941,377.7779 C 1722.0579,378.0726 1723.0305,378.4121 1722.9749,379.6406 C 1722.9577,380.0203 1723.5679,379.0610 1723.9259,378.7168 C 1724.3722,378.2879 1729.8840,378.6190 1729.7387,378.7385 C 1731.5478,377.7138 1732.9553,376.2573 1733.5255,374.1612 C 1733.8356,374.2417 1734.5848,374.3794 1734.8364,374.5064 C 1737.6550,375.9314 1739.6241,378.9475 1741.5878,381.1426 C 1742.3828,382.0356 1743.2569,383.0695 1744.5428,383.4796 C 1746.0689,383.9635 1748.6598,382.9955 1750.3885,382.7265 C 1754.9171,382.0226 1758.9639,383.9676 1763.4173,383.0195 C 1764.5729,382.7745 1766.0536,381.2156 1767.0865,381.8216 C 1768.3920,382.5876 1768.9563,383.9595 1770.3689,384.6916 C 1771.7510,385.4085 1771.9624,386.4305 1772.7803,387.5736 C 1773.6330,388.7656 1774.2881,388.2745 1775.8793,388.1476 C 1775.5884,390.3385 1773.9104,394.7876 1775.7565,396.2235 C 1776.6663,396.9325 1778.4041,396.0836 1778.8658,397.4015 C 1779.3977,398.9226 1779.2303,400.7366 1779.6222,402.3145 C 1780.5499,405.4176 1786.0251,403.2455 1788.9105,403.3365 C 1790.6074,403.3906 1791.3958,404.6506 1790.8771,406.0686 C 1790.1017,408.1886 1793.7366,407.9955 1795.0326,408.3795 C 1795.1212,407.5706 1793.9049,406.3505 1794.9932,405.5466 C 1795.9964,404.8066 1796.2256,403.9275 1797.5389,403.4866 C 1798.6357,403.1186 1797.8844,402.1336 1798.6306,401.5535 C 1799.5816,400.8136 1801.6391,399.9676 1802.7650,399.3655 C 1804.0999,398.6535 1805.4773,398.6635 1806.6029,397.5396 C 1807.1325,397.0115 1808.0166,395.8725 1808.8188,395.7135 C 1810.0576,395.4676 1809.8641,396.1966 1811.2821,395.1676 C 1812.8541,394.0276 1813.9863,394.0036 1815.2387,394.6986 C 1813.0839,396.1545 1807.8710,398.2176 1806.7747,400.5306 C 1807.7525,400.5505 1808.0983,401.3725 1809.0064,401.4665 C 1810.0647,401.5756 1811.0637,400.4905 1811.2342,401.8686 C 1811.6283,404.1895 1814.8541,402.6105 1816.0204,403.9146 C 1816.3344,403.5075 1816.4413,403.0996 1816.3413,402.6895 C 1816.7718,402.6966 1817.1447,402.5405 1817.4629,402.2206 C 1817.9913,401.6316 1817.8931,400.8395 1817.9661,400.2425 C 1818.2903,401.3976 1819.3069,401.5666 1820.0246,402.6836 C 1820.7952,403.8195 1822.5965,403.1626 1822.1821,404.9946 C 1824.4011,403.9316 1824.5809,405.9796 1826.1712,406.1336 C 1826.5620,406.1716 1827.4845,405.8286 1827.5148,406.2835 C 1827.5342,406.5845 1828.6439,406.1696 1829.0312,406.4226 C 1829.6895,406.8535 1827.6903,407.4746 1827.3770,407.6556 C 1825.6467,408.6596 1825.8458,409.2645 1823.9987,408.4495 C 1823.7543,409.0915 1823.9511,409.5605 1824.1113,410.1046 C 1823.6525,410.0756 1819.0385,410.3236 1821.0836,411.4726 C 1820.4326,411.4525 1819.6815,411.7776 1819.0272,411.9595 C 1818.3824,412.1386 1818.5599,411.5826 1817.8432,411.8526 C 1817.1945,412.0965 1816.6851,411.2346 1816.2248,411.0965 C 1815.2097,410.7946 1814.0565,411.0725 1812.9290,411.4115 C 1810.4734,412.1515 1810.4703,411.0935 1808.5954,410.4645 C 1806.8433,409.8766 1811.5549,407.9165 1811.5033,407.2815 C 1811.4847,407.0555 1810.8331,407.2495 1810.7464,407.0086 C 1810.4026,406.0446 1809.6655,405.3716 1808.9011,404.7045 C 1808.1486,405.6015 1804.0515,408.7176 1802.9355,407.8926 C 1802.1759,407.3315 1800.8052,406.1755 1799.8916,407.9525 C 1799.4876,408.7396 1799.7671,411.3245 1800.3379,411.8315 C 1798.5136,412.4635 1796.7118,410.8625 1794.9164,412.2636 C 1795.6105,412.8926 1797.1977,411.8995 1797.4722,412.9835 C 1797.1209,412.9346 1796.7619,412.9115 1796.3936,412.9126 C 1796.3390,413.5036 1796.6035,414.0206 1797.0493,414.3515 C 1796.3757,413.5946 1796.1991,413.6665 1796.5180,414.5695 C 1796.0322,414.5476 1795.3110,414.5645 1795.2518,415.1916 C 1795.1462,416.2946 1795.0319,417.4785 1793.3386,417.5036 C 1791.7140,417.5265 1790.3572,416.8145 1788.7667,416.8725 C 1787.9961,416.9006 1787.3691,417.2366 1786.6808,417.6415 C 1785.6383,418.2545 1786.1583,418.2045 1785.8292,419.1116 C 1785.4268,420.2145 1785.8968,420.5786 1786.9493,420.8806 C 1788.1377,421.2215 1787.6773,422.0605 1788.8073,422.2676 C 1789.6254,422.4165 1791.5826,422.1476 1791.7264,423.1436 C 1791.8187,423.7695 1791.0881,424.3155 1790.9229,424.9316 C 1790.7336,425.6415 1790.9074,426.3696 1791.1850,426.9456 C 1791.6065,427.8195 1792.7289,428.1966 1793.0493,429.1175 C 1793.5477,430.5505 1791.5022,431.6395 1790.7302,432.8376 C 1789.7428,434.3725 1789.0179,435.2316 1788.9577,436.8895 C 1788.9076,438.2645 1787.6591,437.3976 1787.0006,437.2265 C 1785.6630,436.8795 1785.1086,437.9185 1783.8747,437.1766 C 1783.3492,436.8616 1782.8797,436.4035 1782.2283,436.2525 C 1781.4561,436.0736 1780.6235,436.5396 1779.8504,436.4085 C 1778.6415,436.2045 1779.0653,434.9346 1779.0164,433.6635 C 1778.9735,432.5086 1780.8499,431.0066 1779.2485,430.5765 C 1778.2404,430.3055 1777.4401,430.1766 1776.6128,429.5915 C 1775.2006,428.5935 1773.9165,428.9316 1772.1863,428.6255 C 1770.3759,428.3055 1769.2075,426.8566 1767.8685,425.9355 C 1766.5883,425.0566 1765.0997,424.6066 1763.9225,423.5876 C 1762.8056,422.6236 1761.1524,422.7566 1760.0311,421.8995 C 1758.6238,420.8236 1757.0808,419.8675 1755.6520,418.7976 C 1753.4348,417.1415 1748.3310,415.4346 1747.6303,412.6345 C 1746.9680,410.0036 1745.0952,408.4826 1744.2604,405.8755 C 1743.8067,404.4656 1743.0721,403.5455 1741.6112,402.9045 C 1741.2228,402.7346 1740.5605,402.3646 1740.0574,402.4726 C 1739.3410,402.6275 1739.6242,403.4425 1738.8026,403.5165 C 1737.1584,403.6646 1735.7212,402.8195 1733.9526,402.9456 C 1732.5602,403.0446 1731.4801,402.4665 1730.3883,401.9556 C 1729.5827,401.5756 1729.2410,398.0276 1730.5412,398.2246 C 1730.3567,397.0176 1728.6749,397.3965 1728.9806,395.8806 C 1729.2889,394.3546 1728.3846,393.8166 1726.7322,393.8395 C 1725.9473,393.8505 1723.4904,394.0786 1723.4159,393.1415 C 1723.3004,391.7246 1721.5824,392.1626 1720.6310,391.5145 C 1720.1775,391.2056 1719.2298,389.6995 1718.3578,390.2255 C 1717.2931,390.8686 1717.4727,390.8236 1716.2227,390.6105 C 1714.2063,390.2676 1717.3701,393.5176 1717.6622,393.9035 C 1716.6676,393.6775 1716.9962,392.5965 1715.7597,392.5516 C 1715.1058,392.5285 1713.2219,391.7006 1713.2315,393.0476 C 1713.2488,395.8566 1709.9207,394.3345 1708.2635,395.5965 C 1705.8826,397.4096 1705.8036,397.9545 1706.2659,400.3096 C 1706.4132,401.0625 1707.4378,401.7785 1706.6447,402.5005 C 1706.1374,402.9776 1704.0891,402.5466 1703.4870,402.5485 C 1701.0526,402.5566 1698.1343,403.0165 1698.3751,400.4085 C 1698.7244,397.0365 1698.4321,393.6515 1698.3834,390.3415 C 1698.3336,387.1415 1698.2655,383.9436 1698.2933,380.7355 C 1698.3235,377.5435 1698.9636,373.9475 1698.5094,370.8696"
       id="path3470" />
    <path
       d="M 1724.8615,369.3696 C 1724.8436,370.4755 1723.9588,372.5195 1722.6910,373.2575 C 1722.6731,373.0915 1722.6665,372.9246 1722.6699,372.7536 C 1722.1283,373.6495 1723.1710,374.3426 1722.9829,375.2015 C 1722.5773,373.9235 1722.8508,375.3206 1721.7291,374.4805 C 1721.1746,375.2145 1721.7490,376.5566 1720.1231,376.1046 C 1719.9658,376.0605 1718.5163,373.5765 1718.5820,373.3286 C 1718.7234,372.7946 1720.1839,373.9576 1720.3778,374.0365 C 1721.2161,374.3795 1720.6536,371.3155 1719.6854,372.8236 C 1719.4397,372.1275 1720.0924,370.5376 1721.2571,370.5195 C 1721.0311,370.2865 1718.4609,371.2156 1718.9630,370.5575 C 1719.4188,369.9615 1720.2771,370.0226 1719.8938,369.1805 C 1719.6054,368.5476 1719.1465,367.3555 1719.8930,366.5596"
       id="path7148" />
  </g>
  
  
  
  
  
  
  
  
  
  
  
  
  
  
  
  
  
  
  
  
  
  
  
  
  
  
  
  
  
  
  
  
  
  
  
  
  
  
  
  
  
  
  
  
  
  
  
  
  
  
  
  
  
  
  
  
  
  
  
  
  
  
  
  
  
  
  
  
  
  
  
  
  
  
  
</svg>
