<?xml version="1.0" encoding="UTF-8" standalone="no"?>
<svg
   xmlns:dc="http://purl.org/dc/elements/1.1/"
   xmlns:cc="http://web.resource.org/cc/"
   xmlns:rdf="http://www.w3.org/1999/02/22-rdf-syntax-ns#"
   xmlns:svg="http://www.w3.org/2000/svg"
   xmlns="http://www.w3.org/2000/svg"
   xmlns:sodipodi="http://sodipodi.sourceforge.net/DTD/sodipodi-0.dtd"
   xmlns:inkscape="http://www.inkscape.org/namespaces/inkscape"
   viewBox="0 0 2752.766 1537.631"
   version="1.0"
   height="476.7276"
   width="939.74725"
   id="svg1926"
   sodipodi:version="0.32"
   inkscape:version="0.45.1"
   sodipodi:docname="BlankMap-World6.svg"
   sodipodi:docbase="/home/bennett/Desktop"
   inkscape:output_extension="org.inkscape.output.svg.inkscape">
  <sodipodi:namedview
     inkscape:window-height="590"
     inkscape:window-width="822"
     inkscape:pageshadow="2"
     inkscape:pageopacity="0.0"
     guidetolerance="10.0"
     gridtolerance="10.0"
     objecttolerance="10.0"
     borderopacity="1.0"
     bordercolor="#666666"
     pagecolor="#ffffff"
     id="base"
     inkscape:zoom="0.77893284"
     inkscape:cx="469.87363"
     inkscape:cy="238.3638"
     inkscape:window-x="178"
     inkscape:window-y="46"
     inkscape:current-layer="svg1926" />
  <metadata
     id="metadata24111">
    <rdf:RDF>
      <cc:Work
         rdf:about="">
        <dc:format>image/svg+xml</dc:format>
        <dc:type
           rdf:resource="http://purl.org/dc/dcmitype/StillImage" />
        <cc:license
           rdf:resource="http://web.resource.org/cc/PublicDomain" />
        <dc:title>Blank World Map</dc:title>
      </cc:Work>
      <cc:License
         rdf:about="http://web.resource.org/cc/PublicDomain">
        <cc:permits
           rdf:resource="http://web.resource.org/cc/Reproduction" />
        <cc:permits
           rdf:resource="http://web.resource.org/cc/Distribution" />
        <cc:permits
           rdf:resource="http://web.resource.org/cc/DerivativeWorks" />
      </cc:License>
    </rdf:RDF>
  </metadata>
  <defs
     id="defs1930" />
  <style
     type="text/css"
     id="style_css_sheet">
/*
 * Below are Cascading Style Sheet (CSS) definitions in use in this file,
 * which allow easily changing how countries are displayed.
 *
 */

/*
 * Circles around small countries
 *
 * Change opacity to 1 to display all circles.
 *
 */
.circle
{
   opacity:0;
   fill:#b9b9b9;
   fill-opacity:1;
   stroke:black;
   stroke-width:0.99986893;
   stroke-miterlimit:3.97446823;
   stroke-dasharray:none;
   stroke-opacity:1;
}

/*
 * Land
 */
.land
{
   fill: #b9b9b9;
   fill-opacity: 1;
   stroke: #ffffff;
   stroke-opacity: 1;
   stroke-width: 0.99986997;
   stroke-miterlimit: 3.97446823;
   stroke-dasharray: none;
}

/*
 * Additional style rules
 *
 * The following are examples of colouring countries.  You can substitute these with your own styles to colour the countries on the map.
 *
 * Color a few countries:
 *
 * .gb, .au, .nc
 * {
 *    fill:       #ff0000;
 * }
 *
 * Color a few small country circles (and the countries):
 *
 * .ms, .ky
 * {
 *    opacity:    1;
 *    fill:       #ff0000;
 * }
 *
 */

/*
 * Antarctica
 */

.aq
{
   fill:#e6e6e6;
}

/*
 * Sea
 */

.ocean
{
   opacity: 1;
   color: #000000;
   fill:white;
   fill-opacity:1;
   fill-rule:nonzero;
   stroke:#000000;
   stroke-width:0.5;
   stroke-linecap:butt;
   stroke-linejoin:miter;
   marker:none;
   marker-start:none;
   marker-mid:none;
   marker-end:none;
   stroke-miterlimit:1;
   stroke-dasharray:none;
   stroke-dashoffset:0;
   stroke-opacity:1;
   visibility:visible;
   display:inline;
   overflow:visible;
}

.lake
{
   fill:#ffffff;
   fill-opacity:1;
   stroke:#ffffff;
   stroke-opacity:1;
   stroke-width:0.99986997;
   stroke-miterlimit:3.97446823;
   stroke-dasharray:none;
}
</style>
  
  
  
  
  
  
  
  
  
  
  
  
  
  
  
  
  
  
  
  
  
  
  
  
  
  
  
  
  
  
  
  
  
  
  
  
  
  
  
  
  
  
  
  
  <g
     class="land ve"
     id="ve">
    <path
       d="M 709.7171,680.1815 C 711.5889,677.8575 712.3762,675.3635 712.7620,672.4335 C 713.1330,669.6245 713.9117,667.5865 715.1851,665.1305 C 716.2236,663.1305 718.2515,662.5405 719.2340,660.4425 C 720.3549,658.0525 723.0453,658.3135 725.0858,656.9985 C 724.3805,659.1165 721.5435,657.6475 720.4021,659.1575 C 719.4304,660.4435 721.1810,663.5065 722.6048,664.0535 C 721.3516,663.9915 722.7755,666.7445 722.9376,667.2645 C 723.4353,668.8635 722.0197,670.4825 721.0301,671.4905 C 719.7417,672.8025 719.1908,674.3975 720.1919,676.1195 C 720.5798,676.7855 720.7588,677.6275 721.4320,678.1005 C 722.1658,678.6245 722.2701,678.3935 722.1903,679.3455 C 722.0219,681.3465 723.5825,681.7975 725.1568,680.8835 C 726.7822,679.9395 727.3812,678.5435 727.4721,676.7005 C 727.5607,674.3365 726.3887,673.0135 725.0425,671.0845 C 724.5072,670.3185 724.0213,669.4565 723.6715,668.5995 C 723.3566,667.8275 723.9331,666.7735 723.2784,666.1425 C 724.1939,666.2485 724.8717,664.8845 725.5361,664.4865 C 726.7516,663.7575 727.8678,662.8005 729.3312,662.5415 C 730.5972,662.3165 731.6097,662.1425 732.6836,661.4675 C 733.0882,661.2135 734.2725,660.1985 734.8492,660.4555 C 734.7432,660.0535 734.5257,659.7175 734.1965,659.4465 C 734.7676,659.6705 736.5660,661.0745 737.0898,660.4115 C 737.4452,659.9615 736.9544,658.8555 736.4349,658.6475 C 735.5466,658.2925 734.4563,659.1005 733.5902,659.1585 C 733.6825,658.1665 732.4294,652.9075 735.4859,654.1165 C 736.8765,654.6665 736.8260,657.5705 737.1230,658.7075 C 737.7816,661.2305 740.3806,659.5555 742.2365,660.1815 C 744.3133,660.8825 746.8756,661.4245 747.9389,663.7585 C 748.5894,665.1875 747.4295,668.3935 749.8607,668.8985 C 752.7522,669.4995 756.2566,668.1885 759.0485,667.8155 C 761.4424,667.4955 763.9187,666.9825 765.5597,669.1315 C 766.2390,670.0215 767.1513,670.7485 768.2030,671.1075 C 769.0598,671.4005 769.9404,671.5945 770.8111,671.8195 C 770.7189,671.7955 773.6579,672.4075 772.3175,672.4075 C 774.6822,673.6345 775.5701,670.9805 777.3569,670.8145 C 778.4429,670.7135 778.6108,669.5805 779.4878,669.1585 C 780.6972,668.5785 782.2048,669.6865 783.4314,668.9525 C 782.2460,667.7955 779.7461,669.0345 778.9089,667.5845 C 779.5413,667.5845 780.1747,667.5845 780.8081,667.5845 C 781.6989,667.5845 781.9209,667.0385 782.5672,667.0085 C 782.8949,667.1185 783.2141,667.2505 783.5259,667.4055 C 784.4242,667.5655 785.3373,667.4565 786.2054,667.3085 C 789.9149,666.6785 793.8108,667.3825 797.4531,666.6475 C 796.9578,667.8115 795.0935,667.5925 794.0701,668.1485 C 792.4652,669.0215 790.4033,667.6355 788.9299,668.9515 C 789.3988,668.4505 789.9273,668.5175 790.1767,669.2385 C 789.5539,669.1875 789.1362,669.5745 789.0877,670.1755 C 790.4023,669.3705 791.5128,670.1885 791.5965,671.7895 C 791.6626,673.0575 789.4660,672.2085 788.7996,672.1915 C 789.4059,673.9705 792.2584,672.7185 791.8378,671.1115 C 792.6386,671.2235 793.0405,672.1285 793.1531,672.8095 C 793.3027,673.7155 794.2188,674.7355 794.1738,675.5755 C 794.6950,674.9775 794.9196,674.1485 794.5985,673.3445 C 795.3759,674.0525 795.5821,675.4205 795.0132,676.2245 C 795.7429,675.6785 795.3498,674.6075 795.2068,673.8485 C 795.6071,673.9405 796.0003,674.0605 796.3875,674.2085 C 796.3074,674.1275 793.8298,672.8595 795.2478,673.0355 C 796.5938,673.2025 798.4299,674.5965 797.8251,676.0805 C 798.1021,675.5065 798.5617,675.5575 798.1810,675.0005 C 798.6997,674.7335 799.2518,674.6865 799.8383,674.8555 C 798.5188,673.5035 800.5863,674.7225 801.0837,675.4425 C 801.9966,676.7645 803.4059,676.2225 804.5255,677.0435 C 807.4727,679.2345 804.1449,679.2445 803.5040,681.2645 C 803.7233,681.0125 803.9551,680.7725 804.1994,680.5445 C 804.4385,681.5795 803.3796,683.3745 802.9216,684.2355 C 802.6388,684.7675 802.7435,685.2235 802.0540,685.2235 C 801.4439,685.2235 799.5554,684.6795 799.1788,685.2235 C 800.0841,685.7235 801.5208,685.8715 802.0621,686.8795 C 802.6066,686.1355 803.3943,685.6075 803.5745,686.8075 C 804.3698,685.8975 804.9756,685.4675 806.1837,685.2235 C 807.3121,684.9955 807.7992,686.2015 808.8196,685.1845 C 810.5830,683.4265 814.0401,687.7905 813.0300,688.3085 C 812.0249,688.8245 811.4640,689.5695 810.6600,690.3605 C 809.9084,691.1015 808.5716,691.4575 807.9793,692.1085 C 807.5546,692.5755 807.2188,693.2185 806.8400,693.7305 C 806.0730,694.7685 807.2732,695.4235 807.2286,696.5505 C 807.2000,697.2515 807.4921,698.0305 808.2905,697.5855 C 809.2451,697.0545 809.9751,698.3335 809.2649,699.0415 C 808.4832,699.8205 807.2876,700.0955 806.5322,700.8775 C 806.1705,701.2525 805.4963,700.7085 805.1079,700.6705 C 804.7618,700.6365 804.5908,701.3085 804.2620,701.4385 C 801.2591,702.6225 804.3968,704.5005 802.8361,706.2775 C 802.4391,706.7295 800.8358,707.7525 801.4349,708.5415 C 802.4534,709.8825 803.4982,711.2395 804.5890,712.5215 C 805.8823,714.0425 808.5009,716.4505 806.1517,718.1945 C 805.3579,718.7835 804.8852,719.6995 804.0874,720.2845 C 803.6453,720.6095 802.0096,720.4105 801.9138,720.5755 C 801.4942,721.2945 800.1790,721.1325 800.1748,721.8785 C 800.1703,722.7645 798.6024,722.7745 797.9934,723.0695 C 796.8299,723.6335 795.4008,724.3735 794.0796,723.7225 C 793.1836,723.2815 792.3972,724.3865 791.4819,724.5665 C 790.3674,724.7875 790.3801,725.9615 790.6672,726.8795 C 791.0814,728.2055 790.0007,729.2265 788.8592,728.2175 C 788.0869,727.5335 787.6898,726.6235 786.9793,725.9005 C 786.0360,724.9395 785.4825,726.2325 784.5755,725.9065 C 783.3298,725.4575 782.8791,725.8215 781.6330,725.6885 C 780.6629,725.5845 780.8895,725.9595 780.4804,724.7715 C 780.0940,723.6495 778.6434,723.5525 777.6844,723.7445 C 776.4148,723.9985 776.4209,722.8825 775.4155,722.4485 C 774.6085,723.2815 776.1946,725.1585 776.7173,725.7745 C 778.2209,727.5465 779.4300,727.8645 779.5416,730.3905 C 779.5782,731.2105 779.6276,732.0235 779.8627,732.8215 C 780.1607,733.8295 781.2500,734.8665 781.1370,735.9275 C 780.9453,737.7305 780.9611,738.5235 783.1560,738.5785 C 783.7918,738.5945 786.2606,738.1295 786.0898,739.2795 C 785.7725,741.4075 784.8460,740.5595 783.6260,741.8655 C 782.9826,742.5545 781.2002,742.3865 780.9053,743.1215 C 780.5711,743.9555 780.8520,744.7875 780.3000,745.5955 C 779.8077,746.3155 779.1442,746.8845 778.7042,747.6475 C 778.7257,745.6715 776.0598,748.4785 775.1935,748.7975 C 773.9135,749.2705 772.9900,749.8375 772.1832,750.9625 C 771.6427,751.7165 770.5166,753.6845 769.6112,753.9805 C 769.0136,753.2595 769.7798,752.3535 769.5862,751.5705 C 769.2595,750.2465 767.3170,751.5315 766.8057,751.9005 C 763.8778,754.0105 761.9666,752.0395 760.0482,749.5265 C 759.1240,748.3525 758.8375,746.6545 758.3861,745.2795 C 757.8688,743.7005 756.6505,741.5055 756.6752,739.8525 C 756.6940,738.5515 753.3115,734.2275 751.7763,735.4065 C 751.6841,733.9465 753.7842,732.4635 754.7772,731.6645 C 756.5099,730.2695 755.2852,728.7855 753.9937,727.3565 C 751.1404,724.2035 751.9128,718.3285 751.8124,714.5425 C 751.7763,713.1885 752.3676,712.8505 753.2171,711.9785 C 753.7893,711.3915 753.2099,710.2685 753.4841,709.5595 C 753.7835,708.7875 754.9641,708.3405 754.8457,707.3945 C 754.6782,706.0645 754.8008,705.7975 753.3649,705.2505 C 751.7962,704.6525 749.1333,706.0045 747.4027,706.1465 C 746.2609,706.2405 745.1343,706.2365 743.9936,706.0565 C 742.2749,705.7855 742.5766,706.6055 741.2111,706.8955 C 741.4681,706.8405 739.4862,706.4795 739.6894,706.6075 C 738.8767,706.0985 738.1761,704.4695 737.6503,703.7045 C 736.9077,702.6225 736.2016,701.5565 735.5041,700.4395 C 735.1467,699.8665 734.6404,698.9555 733.8280,699.2035 C 732.3130,699.6665 731.5615,698.3285 730.1051,698.1775 C 729.1674,698.0795 728.5063,698.9045 727.6645,699.1205 C 726.4222,699.4405 725.2050,698.5655 723.9588,698.7955 C 723.1601,698.9415 722.6592,698.4235 721.8375,698.8465 C 721.0277,699.2635 719.9000,698.7675 719.4015,698.0115 C 719.0169,697.4285 718.8795,696.7895 718.6896,696.1445 C 718.4265,695.2495 717.1153,695.5555 716.6377,694.9155 C 715.7209,693.6865 716.7109,691.0785 717.4035,690.0655 C 718.7174,688.1445 715.8125,686.2565 715.1227,684.8645 C 714.3953,683.3975 714.9661,679.9905 712.8354,680.5455 C 712.8514,680.0255 712.7567,679.5215 712.5513,679.0325 C 711.7396,679.7675 710.8701,680.2145 709.7171,680.1815"
       id="path3410" />
    <path
       d="M 802.3212,686.2295 C 801.5821,686.0835 800.8274,685.9775 800.1316,685.6535 C 800.7746,685.2795 802.2388,685.1225 802.3212,686.2295"
       id="path3412" />
    <path
       d="M 802.9714,684.3575 C 803.3820,683.7015 804.0430,682.8745 804.9587,683.2775 C 804.6975,684.2485 803.7264,684.0755 802.9714,684.3575"
       id="path3414" />
    <path
       d="M 803.2563,686.0135 C 803.0544,685.7975 802.8514,685.5815 802.6496,685.3665 C 803.1703,685.3385 803.6745,685.2425 804.1640,685.0785 C 804.1503,685.6425 803.8210,685.9815 803.2563,686.0135"
       id="path3416" />
    <path
       d="M 803.8620,684.7895 C 803.6175,684.6935 803.3729,684.5975 803.1284,684.5015 C 803.5763,684.2175 804.0562,684.1695 804.5681,684.3565 C 804.3328,684.5015 804.0974,684.6455 803.8620,684.7895"
       id="path3418" />
    <path
       d="M 804.8035,685.0055 C 804.6634,684.4865 804.9277,684.3905 805.5955,684.7175 C 805.3311,684.8135 805.0668,684.9095 804.8035,685.0055"
       id="path3420" />
    <path
       d="M 804.9341,682.6295 C 804.6932,682.6295 804.4523,682.6295 804.2114,682.6295 C 804.3869,682.0975 804.8177,681.7595 805.4086,681.9085 C 805.2501,682.1495 805.0916,682.3895 804.9341,682.6295"
       id="path3422" />
    <path
       d="M 805.2234,680.7575 C 804.4707,680.5245 804.5358,680.2845 805.4179,680.0375 C 805.3528,680.2785 805.2886,680.5175 805.2234,680.7575"
       id="path3424" />
    <path
       d="M 805.3786,681.1175 C 804.6668,681.4595 804.1634,682.0795 803.5562,682.5565 C 803.7832,681.7435 804.5303,681.1695 805.3786,681.1175"
       id="path3426" />
    <path
       d="M 805.5118,680.6855 C 805.6197,680.3545 805.8524,680.1625 806.2128,680.1095 C 805.9791,680.3015 805.7464,680.4925 805.5118,680.6855"
       id="path3428" />
    <path
       d="M 771.3730,665.4215 C 771.1263,665.3495 770.8797,665.2775 770.6330,665.2055 C 770.8207,664.9685 771.0479,664.7765 771.3147,664.6295 C 771.6627,664.9445 771.6821,665.2075 771.3730,665.4215"
       id="path3598" />
    <path
       d="M 780.7314,665.6375 C 780.5053,665.0975 777.0322,664.3485 778.7657,663.7875 C 779.6866,663.4895 779.8043,664.4885 780.3511,664.4135 C 781.2584,664.2895 781.3344,663.2125 782.1226,662.9005 C 782.7539,664.8305 782.5184,664.6335 780.7314,665.6375"
       id="path3600" />
    <path
       d="M 790.5863,668.8775 C 791.0089,669.3355 791.3594,669.8395 791.6387,670.3895 C 791.1521,670.0625 790.6359,669.4755 790.5863,668.8775"
       id="path3602" />
  </g>
  
  
  
  
  
  
  
  
  
  
  
  
  
  
  
  
  
  
  
  
  
  
  
  
  
  
  
  
  
  
  
  
  
  
  
  
  
  
  
  
  
  
  
  
  
  
  
  
  
  
  
  
  
  
  
  
  
  
  
  
  
  
  
  
  
  
  
  
  
  
  
  
  
  
  
  
  
  
  
  
  
  
  
  
  
  
  
  
  
  
  
  
  
  
  
  
  
  
  
  
  
  
  
  
  
  
  
  
  
  
  
  
  
  
  
  
  
  
  
  
  
  
  
  
  
  
  
  
  
  
  
  
  
  
  
  
  
  
  
  
  
  
  
  
  
  
  
  
  
  
  
  
  
  
  
  
  
  
  
  
  
  
  
  
  
  
  
  
  
  
  
  
  
  
  
  
  
  
  
  
  
  
  
  
  
  
  
</svg>
