<?xml version="1.0" encoding="UTF-8" standalone="no"?>
<svg
   xmlns:dc="http://purl.org/dc/elements/1.1/"
   xmlns:cc="http://web.resource.org/cc/"
   xmlns:rdf="http://www.w3.org/1999/02/22-rdf-syntax-ns#"
   xmlns:svg="http://www.w3.org/2000/svg"
   xmlns="http://www.w3.org/2000/svg"
   xmlns:sodipodi="http://sodipodi.sourceforge.net/DTD/sodipodi-0.dtd"
   xmlns:inkscape="http://www.inkscape.org/namespaces/inkscape"
   viewBox="0 0 2752.766 1537.631"
   version="1.0"
   height="476.7276"
   width="939.74725"
   id="svg1926"
   sodipodi:version="0.32"
   inkscape:version="0.45.1"
   sodipodi:docname="BlankMap-World6.svg"
   sodipodi:docbase="/home/bennett/Desktop"
   inkscape:output_extension="org.inkscape.output.svg.inkscape">
  <sodipodi:namedview
     inkscape:window-height="590"
     inkscape:window-width="822"
     inkscape:pageshadow="2"
     inkscape:pageopacity="0.0"
     guidetolerance="10.0"
     gridtolerance="10.0"
     objecttolerance="10.0"
     borderopacity="1.0"
     bordercolor="#666666"
     pagecolor="#ffffff"
     id="base"
     inkscape:zoom="0.77893284"
     inkscape:cx="469.87363"
     inkscape:cy="238.3638"
     inkscape:window-x="178"
     inkscape:window-y="46"
     inkscape:current-layer="svg1926" />
  <metadata
     id="metadata24111">
    <rdf:RDF>
      <cc:Work
         rdf:about="">
        <dc:format>image/svg+xml</dc:format>
        <dc:type
           rdf:resource="http://purl.org/dc/dcmitype/StillImage" />
        <cc:license
           rdf:resource="http://web.resource.org/cc/PublicDomain" />
        <dc:title>Blank World Map</dc:title>
      </cc:Work>
      <cc:License
         rdf:about="http://web.resource.org/cc/PublicDomain">
        <cc:permits
           rdf:resource="http://web.resource.org/cc/Reproduction" />
        <cc:permits
           rdf:resource="http://web.resource.org/cc/Distribution" />
        <cc:permits
           rdf:resource="http://web.resource.org/cc/DerivativeWorks" />
      </cc:License>
    </rdf:RDF>
  </metadata>
  <defs
     id="defs1930" />
  <style
     type="text/css"
     id="style_css_sheet">
/*
 * Below are Cascading Style Sheet (CSS) definitions in use in this file,
 * which allow easily changing how countries are displayed.
 *
 */

/*
 * Circles around small countries
 *
 * Change opacity to 1 to display all circles.
 *
 */
.circle
{
   opacity:0;
   fill:#b9b9b9;
   fill-opacity:1;
   stroke:black;
   stroke-width:0.99986893;
   stroke-miterlimit:3.97446823;
   stroke-dasharray:none;
   stroke-opacity:1;
}

/*
 * Land
 */
.land
{
   fill: #b9b9b9;
   fill-opacity: 1;
   stroke: #ffffff;
   stroke-opacity: 1;
   stroke-width: 0.99986997;
   stroke-miterlimit: 3.97446823;
   stroke-dasharray: none;
}

/*
 * Additional style rules
 *
 * The following are examples of colouring countries.  You can substitute these with your own styles to colour the countries on the map.
 *
 * Color a few countries:
 *
 * .gb, .au, .nc
 * {
 *    fill:       #ff0000;
 * }
 *
 * Color a few small country circles (and the countries):
 *
 * .ms, .ky
 * {
 *    opacity:    1;
 *    fill:       #ff0000;
 * }
 *
 */

/*
 * Antarctica
 */

.aq
{
   fill:#e6e6e6;
}

/*
 * Sea
 */

.ocean
{
   opacity: 1;
   color: #000000;
   fill:white;
   fill-opacity:1;
   fill-rule:nonzero;
   stroke:#000000;
   stroke-width:0.5;
   stroke-linecap:butt;
   stroke-linejoin:miter;
   marker:none;
   marker-start:none;
   marker-mid:none;
   marker-end:none;
   stroke-miterlimit:1;
   stroke-dasharray:none;
   stroke-dashoffset:0;
   stroke-opacity:1;
   visibility:visible;
   display:inline;
   overflow:visible;
}

.lake
{
   fill:#ffffff;
   fill-opacity:1;
   stroke:#ffffff;
   stroke-opacity:1;
   stroke-width:0.99986997;
   stroke-miterlimit:3.97446823;
   stroke-dasharray:none;
}
</style>
  
  
  
  
  
  
  
  
  
  
  
  
  
  
  
  
  
  
  
  
  
  
  
  
  
  
  
  
  
  
  
  
  
  
  
  
  
  
  
  
  
  
  
  
  
  
  
  
  
  
  
  
  
  
  
  
  
  
  
  
  
  
  
  
  
  
  
  
  
  
  
  
  
  
  
  
  
  
  
  
  
  
  
  
  
  
  
  
  
  
  
  
  <g
     class="land vn"
     id="vn">
    <path
       d="M 2081.3514,675.2135 C 2081.5492,675.9805 2081.9587,676.7665 2082.7709,677.0135 C 2082.2168,676.4865 2081.7187,675.8905 2081.3514,675.2135"
       id="path3474" />
    <path
       d="M 2086.4910,667.2935 C 2086.5881,668.0815 2085.9624,668.8735 2086.7265,669.4535 C 2087.1635,668.6935 2086.9858,667.8855 2086.4910,667.2935"
       id="path3476" />
    <path
       d="M 2087.5990,668.5895 C 2087.5180,668.8275 2087.4962,669.0675 2087.5334,669.3095 C 2087.5553,669.0695 2087.5771,668.8295 2087.5990,668.5895"
       id="path3478" />
    <path
       d="M 2106.0319,650.2295 C 2106.1181,650.5685 2106.3366,650.7845 2106.6855,650.8775 C 2106.4669,650.6615 2106.2494,650.4455 2106.0319,650.2295"
       id="path3480" />
    <path
       d="M 2051.2428,565.7735 C 2052.6115,565.8365 2052.6332,563.8765 2053.2724,563.1025 C 2054.3130,561.8425 2056.3066,563.8015 2056.8550,564.4355 C 2057.8353,565.5685 2058.8276,564.6355 2059.7292,563.4415 C 2060.9698,561.7995 2061.1796,563.3405 2061.8009,564.1895 C 2062.1814,563.5545 2062.4118,562.0025 2063.2723,562.9955 C 2063.8038,563.6085 2064.2655,564.3635 2064.9496,564.8305 C 2065.3769,565.1225 2066.1852,562.0815 2067.5251,562.0295 C 2066.8238,564.0485 2070.9515,562.2235 2071.6710,561.6085 C 2072.5622,560.8485 2071.7307,560.3305 2072.0047,559.6665 C 2072.4510,558.5845 2074.8496,558.4775 2075.5736,557.2785 C 2076.4288,558.7535 2077.6233,559.9165 2079.1675,560.7035 C 2080.3752,561.3205 2081.7700,560.1405 2082.5330,561.2705 C 2083.2979,562.4045 2085.0548,560.6445 2086.0259,561.7725 C 2086.5180,562.3455 2086.8513,564.6685 2085.3103,564.1185 C 2084.9819,566.0855 2085.8149,567.5305 2086.1291,569.4455 C 2086.7904,568.9565 2088.8286,569.6215 2088.6923,570.4535 C 2088.4881,571.7005 2090.9851,571.4215 2091.1261,572.6145 C 2091.3948,572.4705 2091.6636,572.3265 2091.9325,572.1815 C 2092.1610,573.2005 2092.9817,572.4395 2093.8878,572.1835 C 2095.0244,571.8625 2095.7340,573.0555 2096.4009,573.6215 C 2095.3936,574.3785 2095.4349,572.9375 2094.4099,573.6725 C 2093.4813,574.3385 2093.0636,575.2875 2091.9335,575.4555 C 2090.7231,575.6355 2091.4852,576.6905 2090.9305,577.4555 C 2090.3903,578.2005 2087.8911,578.9215 2089.3018,577.5815 C 2088.5618,577.3985 2087.3513,578.5455 2087.2473,578.9495 C 2086.6561,578.5945 2086.5910,577.4115 2085.6060,577.7245 C 2085.8468,578.0325 2086.1485,578.2715 2086.5117,578.4445 C 2085.7451,579.1885 2086.1761,579.5565 2086.5420,580.3465 C 2086.8473,581.0045 2085.3693,580.9855 2085.1152,580.8205 C 2085.3404,581.5015 2085.2244,583.4085 2084.4000,583.9175 C 2084.4938,583.9495 2084.5916,583.9495 2084.6954,583.9175 C 2084.5296,584.4625 2081.8538,586.9125 2081.4568,586.2935 C 2080.1274,586.8985 2079.4452,588.7145 2079.1358,589.9225 C 2078.7084,591.5895 2079.2453,592.7185 2078.1220,594.2865 C 2076.8483,596.0645 2078.7126,596.4705 2078.5662,598.1005 C 2079.1794,596.9755 2079.1914,598.6715 2079.5886,599.2845 C 2080.1235,600.1085 2080.7843,600.7475 2081.5707,601.3375 C 2082.3188,601.8995 2083.0732,602.4835 2083.7203,603.1545 C 2084.6498,604.1185 2084.0626,605.1555 2084.2687,606.3815 C 2083.8610,606.0355 2083.3744,605.8435 2082.8081,605.8055 C 2084.5941,606.1105 2085.1785,608.3535 2086.4648,609.4795 C 2087.4031,610.3015 2090.4999,611.9025 2089.4314,613.6535 C 2090.6245,613.0185 2092.1219,615.2205 2092.6566,615.8855 C 2092.3643,615.7455 2092.0623,615.6255 2091.7507,615.5255 C 2093.0081,616.3635 2094.1362,617.2845 2094.8666,618.6225 C 2096.2591,617.1865 2098.3038,620.4075 2097.5356,621.1425 C 2098.2328,620.6985 2097.4136,619.3105 2098.6304,619.9905 C 2096.4698,621.6535 2101.9996,625.5005 2101.9333,626.9745 C 2102.5794,625.7235 2102.6838,626.7675 2103.0130,627.3425 C 2103.5277,628.2415 2102.6170,627.8725 2102.6924,628.5585 C 2102.8324,629.8345 2103.7426,630.9705 2104.1116,632.1615 C 2104.6112,633.7755 2104.7619,635.5265 2105.3003,637.1485 C 2105.5173,637.8015 2105.7555,638.4615 2105.8321,639.1655 C 2105.8693,639.5095 2105.6828,641.3235 2105.4368,639.5745 C 2105.2931,640.5495 2106.1091,643.3805 2105.1850,641.6635 C 2105.3723,642.2425 2105.6735,642.7465 2106.0915,643.1755 C 2104.7185,643.3595 2105.7254,644.0295 2105.8473,644.7895 C 2106.0373,645.8895 2106.3197,646.6325 2106.8170,647.6095 C 2107.0197,648.0075 2106.8503,649.9855 2106.7082,650.5905 C 2106.3375,650.1815 2106.0932,649.7015 2105.9773,649.1505 C 2104.5333,649.9475 2105.6647,651.5975 2106.0234,652.5355 C 2105.5951,652.2695 2105.1286,652.0775 2104.6281,651.9595 C 2105.2221,652.5445 2105.5928,655.6215 2105.1512,656.4945 C 2105.1937,655.9735 2105.0943,655.4945 2104.8524,655.0555 C 2105.2396,655.7715 2104.7852,656.5125 2104.5014,657.2155 C 2105.3205,657.1935 2105.3076,657.7855 2105.0359,658.4015 C 2104.7453,659.0585 2103.7493,659.3725 2103.6666,659.5915 C 2103.1617,660.9425 2103.6902,660.9815 2102.1395,661.7365 C 2101.6902,662.0915 2101.2199,662.4135 2100.7296,662.7015 C 2100.0607,662.9635 2099.7717,663.8915 2099.2654,664.0395 C 2098.4263,664.2845 2097.5538,664.6315 2096.7960,665.0975 C 2096.4411,665.3155 2095.7878,666.9295 2095.5385,666.8425 C 2094.8267,666.5935 2093.5091,667.5005 2092.9151,667.9175 C 2092.1095,668.4835 2090.5747,668.9815 2089.9671,669.6725 C 2089.5387,668.6845 2088.1923,668.7165 2088.2143,667.4405 C 2088.0727,667.9455 2087.9313,668.4495 2087.7859,668.9535 C 2087.7073,668.5475 2087.5745,668.1635 2087.3884,667.8015 C 2087.6873,668.6345 2087.5671,668.5865 2087.0288,667.6565 C 2087.8438,667.6565 2086.2650,667.1485 2086.2817,667.1525 C 2086.4514,668.0265 2085.9938,669.1465 2084.8975,668.8815 C 2085.0963,669.6865 2086.3643,668.4645 2086.5327,669.6015 C 2086.7956,671.0525 2084.2340,670.3415 2083.7127,670.3215 C 2084.5745,671.0495 2086.0630,670.9085 2086.5828,672.0505 C 2085.7026,672.1825 2085.5792,673.5535 2084.6145,672.8555 C 2083.9745,672.3925 2083.6087,670.9995 2082.7371,670.8985 C 2083.2634,671.5535 2085.9306,673.8525 2085.4317,674.5705 C 2083.6909,673.8495 2082.8517,672.0905 2081.4373,670.9705 C 2081.6926,672.1235 2086.7995,675.6655 2084.3535,676.9575 C 2082.7471,677.8065 2080.3254,673.6745 2079.2304,672.9855 C 2079.9340,674.2485 2082.6803,676.1975 2082.1026,677.8785 C 2081.6550,679.1785 2079.4190,679.5335 2078.3418,680.0565 C 2076.5235,680.9395 2076.3927,682.2585 2075.2333,683.6675 C 2074.4443,684.6285 2072.4394,686.2225 2071.2848,685.0815 C 2071.6821,684.6115 2072.1802,684.3235 2072.7760,684.2175 C 2072.6565,683.9175 2072.5768,683.6055 2072.5348,683.2805 C 2072.2211,683.4225 2071.9006,683.5425 2071.5722,683.6405 C 2071.7169,681.8255 2071.4352,680.0235 2071.5186,678.2075 C 2071.5602,677.3125 2071.6732,676.3955 2072.0028,675.5405 C 2072.2243,674.9645 2073.6341,672.5185 2073.8075,674.2795 C 2073.9521,671.4525 2068.5155,671.8645 2069.1521,669.4565 C 2069.0242,669.8825 2068.8316,669.8585 2068.5757,669.3845 C 2069.0748,669.2185 2069.4437,668.4475 2069.9884,668.4475 C 2070.5672,668.4475 2071.2024,668.6035 2071.7774,668.3425 C 2072.2593,668.1225 2072.8382,667.4465 2073.1822,667.0495 C 2073.8485,666.2855 2072.8248,665.5245 2073.6185,664.7765 C 2074.8741,666.0905 2076.9238,664.6665 2078.4328,664.3765 C 2078.9577,664.2755 2079.2110,664.7225 2079.4101,665.1015 C 2079.8926,666.0165 2081.0071,665.9295 2081.8827,666.2175 C 2081.9751,665.4295 2081.2062,664.7715 2082.1677,664.6335 C 2082.1039,663.3035 2080.4373,663.2535 2079.9734,662.3315 C 2079.5757,661.5435 2079.3530,660.5315 2079.2422,659.6395 C 2079.1362,658.7935 2080.0394,658.6965 2080.5219,658.0425 C 2081.2577,657.0465 2083.2769,658.4975 2084.0865,658.6565 C 2083.7024,657.8205 2084.3875,656.8335 2083.8181,656.0645 C 2084.5334,655.8895 2085.2749,656.2475 2085.9871,655.9515 C 2086.5906,655.7005 2087.8298,654.9345 2088.4269,654.5455 C 2089.1195,654.0925 2089.3183,653.4465 2090.1663,653.2115 C 2090.8221,653.0305 2091.6744,653.1015 2092.2341,652.6185 C 2093.7418,651.3175 2091.9454,647.7475 2092.2740,646.0825 C 2092.5740,644.6555 2093.2306,643.6325 2092.6825,642.2525 C 2092.4987,641.8295 2092.3118,641.4075 2092.1226,640.9865 C 2091.8084,640.2335 2092.1240,639.6975 2091.9199,639.0015 C 2091.6318,638.0175 2091.0643,638.1075 2091.1203,636.7965 C 2091.1887,635.2105 2092.3180,634.2825 2092.5770,632.8785 C 2092.6392,632.5405 2092.8534,630.7735 2092.6775,630.6125 C 2091.5834,629.6135 2092.7089,629.8605 2093.2912,628.8165 C 2094.1891,627.2075 2092.4464,625.6205 2091.3648,624.8745 C 2090.8693,624.5325 2089.5736,623.8065 2089.7351,623.0185 C 2089.9278,622.0775 2091.5623,621.6925 2092.0374,620.8585 C 2091.0672,620.4765 2089.8433,619.6935 2089.3027,618.8075 C 2088.8996,618.1495 2088.3773,618.6965 2087.9528,617.7945 C 2087.3795,616.5795 2086.8386,617.7105 2086.0076,617.1865 C 2085.5241,616.8805 2085.0874,615.5795 2085.0595,615.0015 C 2084.9720,613.1825 2084.3976,611.6295 2083.0476,610.3475 C 2082.6665,609.9855 2081.7272,609.7445 2081.2069,609.1275 C 2080.2274,607.9625 2079.0244,606.7815 2078.2354,605.4785 C 2077.7270,604.6405 2077.5907,603.6125 2077.0501,602.7945 C 2076.8349,602.4705 2076.4568,602.0835 2075.9889,602.4255 C 2075.6239,601.7475 2074.8204,601.5105 2074.4819,600.8125 C 2074.2326,600.2985 2073.4964,599.0855 2074.1539,598.5115 C 2074.9881,597.7925 2071.6482,597.0945 2071.4278,597.0425 C 2069.2096,596.5255 2068.0421,593.9305 2065.9549,593.3425 C 2065.3520,593.1725 2063.7735,592.3865 2065.2378,591.7545 C 2067.3193,590.8565 2064.9561,590.3265 2065.4541,589.3225 C 2065.7208,588.7825 2068.2402,589.5765 2068.4956,589.6155 C 2069.5451,589.7755 2072.7288,588.0195 2071.2888,587.5945 C 2071.6938,587.1055 2072.7184,586.8475 2072.8266,586.1545 C 2072.9631,585.2795 2072.0967,584.4945 2071.2137,584.6055 C 2070.6133,584.6805 2070.6002,584.3065 2070.5042,583.8235 C 2070.2921,582.7565 2069.1226,583.0445 2068.3133,582.6985 C 2068.6317,581.9395 2069.7336,582.0885 2069.8927,581.4575 C 2070.1651,580.3865 2069.0209,579.9815 2068.3894,579.4775 C 2067.6353,578.8755 2067.1760,578.1525 2065.9561,578.3645 C 2064.0565,578.6935 2064.3192,579.6625 2063.3241,580.7555 C 2062.5785,580.2615 2061.5107,579.3275 2060.5831,579.4985 C 2059.5256,579.6935 2057.8828,577.8845 2057.4923,577.1545 C 2057.0463,576.3255 2056.8324,574.3415 2057.2789,573.3495 C 2058.0694,571.5925 2056.5232,571.9765 2056.3759,570.6025 C 2056.5133,571.1665 2056.3352,571.6705 2055.8429,572.1145 C 2054.9225,571.8285 2054.9670,570.1525 2054.2331,569.5065 C 2053.2424,568.6255 2051.6255,567.0745 2051.2428,565.7735"
       id="path3562" />
    <path
       d="M 2086.9792,579.2375 C 2087.1289,578.8925 2087.0212,578.6525 2086.6551,578.5175 C 2086.7638,578.7575 2086.8717,578.9965 2086.9792,579.2375"
       id="path5494" />
    <path
       d="M 2087.6306,579.3095 C 2087.8794,579.7575 2088.2409,580.0935 2088.7150,580.3175 C 2089.4717,579.3945 2088.3177,579.1435 2087.6306,579.3095"
       id="path5496" />
    <path
       d="M 2091.9113,575.4925 C 2091.6040,576.1255 2091.3781,576.7735 2091.2334,577.4365 C 2092.0738,576.9905 2093.0824,575.9985 2091.9113,575.4925"
       id="path5498" />
    <path
       d="M 2092.6077,577.5815 C 2092.1794,577.9055 2091.8223,578.2895 2091.5362,578.7325 C 2092.0983,578.5655 2092.5365,578.1535 2092.6077,577.5815"
       id="path5500" />
    <path
       d="M 2095.0027,574.5575 C 2095.2384,574.6755 2095.4913,574.6275 2095.7614,574.4135 C 2095.5085,574.4615 2095.2556,574.5095 2095.0027,574.5575"
       id="path5502" />
  </g>
  
  
  
  
  
  
  
  
  
  
  
  
  
  
  
  
  
  
  
  
  
  
  
  
  
  
  
  
  
  
  
  
  
  
  
  
  
  
  
  
  
  
  
  
  
  
  
  
  
  
  
  
  
  
  
  
  
  
  
  
  
  
  
  
  
  
  
  
  
  
  
  
  
  
  
  
  
  
  
  
  
  
  
  
  
  
  
  
  
  
  
  
  
  
  
  
  
  
  
  
  
  
  
  
  
  
  
  
  
  
  
  
  
  
  
  
  
  
  
  
  
  
  
  
  
  
  
  
  
  
  
  
  
  
  
  
  
  
  
</svg>
