<?xml version="1.0" encoding="UTF-8" standalone="no"?>
<svg
   xmlns:dc="http://purl.org/dc/elements/1.1/"
   xmlns:cc="http://web.resource.org/cc/"
   xmlns:rdf="http://www.w3.org/1999/02/22-rdf-syntax-ns#"
   xmlns:svg="http://www.w3.org/2000/svg"
   xmlns="http://www.w3.org/2000/svg"
   xmlns:sodipodi="http://sodipodi.sourceforge.net/DTD/sodipodi-0.dtd"
   xmlns:inkscape="http://www.inkscape.org/namespaces/inkscape"
   viewBox="0 0 2752.766 1537.631"
   version="1.0"
   height="476.7276"
   width="939.74725"
   id="svg1926"
   sodipodi:version="0.32"
   inkscape:version="0.45.1"
   sodipodi:docname="BlankMap-World6.svg"
   sodipodi:docbase="/home/bennett/Desktop"
   inkscape:output_extension="org.inkscape.output.svg.inkscape">
  <sodipodi:namedview
     inkscape:window-height="590"
     inkscape:window-width="822"
     inkscape:pageshadow="2"
     inkscape:pageopacity="0.0"
     guidetolerance="10.0"
     gridtolerance="10.0"
     objecttolerance="10.0"
     borderopacity="1.0"
     bordercolor="#666666"
     pagecolor="#ffffff"
     id="base"
     inkscape:zoom="0.77893284"
     inkscape:cx="469.87363"
     inkscape:cy="238.3638"
     inkscape:window-x="178"
     inkscape:window-y="46"
     inkscape:current-layer="svg1926" />
  <metadata
     id="metadata24111">
    <rdf:RDF>
      <cc:Work
         rdf:about="">
        <dc:format>image/svg+xml</dc:format>
        <dc:type
           rdf:resource="http://purl.org/dc/dcmitype/StillImage" />
        <cc:license
           rdf:resource="http://web.resource.org/cc/PublicDomain" />
        <dc:title>Blank World Map</dc:title>
      </cc:Work>
      <cc:License
         rdf:about="http://web.resource.org/cc/PublicDomain">
        <cc:permits
           rdf:resource="http://web.resource.org/cc/Reproduction" />
        <cc:permits
           rdf:resource="http://web.resource.org/cc/Distribution" />
        <cc:permits
           rdf:resource="http://web.resource.org/cc/DerivativeWorks" />
      </cc:License>
    </rdf:RDF>
  </metadata>
  <defs
     id="defs1930" />
  <style
     type="text/css"
     id="style_css_sheet">
/*
 * Below are Cascading Style Sheet (CSS) definitions in use in this file,
 * which allow easily changing how countries are displayed.
 *
 */

/*
 * Circles around small countries
 *
 * Change opacity to 1 to display all circles.
 *
 */
.circle
{
   opacity:0;
   fill:#b9b9b9;
   fill-opacity:1;
   stroke:black;
   stroke-width:0.99986893;
   stroke-miterlimit:3.97446823;
   stroke-dasharray:none;
   stroke-opacity:1;
}

/*
 * Land
 */
.land
{
   fill: #b9b9b9;
   fill-opacity: 1;
   stroke: #ffffff;
   stroke-opacity: 1;
   stroke-width: 0.99986997;
   stroke-miterlimit: 3.97446823;
   stroke-dasharray: none;
}

/*
 * Additional style rules
 *
 * The following are examples of colouring countries.  You can substitute these with your own styles to colour the countries on the map.
 *
 * Color a few countries:
 *
 * .gb, .au, .nc
 * {
 *    fill:       #ff0000;
 * }
 *
 * Color a few small country circles (and the countries):
 *
 * .ms, .ky
 * {
 *    opacity:    1;
 *    fill:       #ff0000;
 * }
 *
 */

/*
 * Antarctica
 */

.aq
{
   fill:#e6e6e6;
}

/*
 * Sea
 */

.ocean
{
   opacity: 1;
   color: #000000;
   fill:white;
   fill-opacity:1;
   fill-rule:nonzero;
   stroke:#000000;
   stroke-width:0.5;
   stroke-linecap:butt;
   stroke-linejoin:miter;
   marker:none;
   marker-start:none;
   marker-mid:none;
   marker-end:none;
   stroke-miterlimit:1;
   stroke-dasharray:none;
   stroke-dashoffset:0;
   stroke-opacity:1;
   visibility:visible;
   display:inline;
   overflow:visible;
}

.lake
{
   fill:#ffffff;
   fill-opacity:1;
   stroke:#ffffff;
   stroke-opacity:1;
   stroke-width:0.99986997;
   stroke-miterlimit:3.97446823;
   stroke-dasharray:none;
}
</style>
  
  
  
  
  
  
  
  
  
  
  
  
  
  
  
  
  
  
  
  
  
  
  
  
  
  
  
  
  
  
  
  
  
  
  
  
  
  
  
  
  
  
  
  
  
  
  
  
  
  
  
  
  
  
  
  
  
  
  
  
  
  
  
  
  
  
  
  
  
  
  
  
  
  
  
  
  
  
  
  
  
  
  
  
  
  
  
  
  
  
  
  
  
  
  
  
  
  
  
  
  
  
  
  
  
  
  
  
  
  
  
  
  
  
  
  
  
  
  
  
  
  
  
  
  
  
  
  
  
  
  
  
  
  
  
  
  
  
  
  
  
  
  
  
  
  
  
  
  
  
  
  
  
  
  
  
  
  
  
  
  
  
  
  
  <g
     id="vu">
    <g
       class="land vu"
       id="vu-">
      <path
         d="M 2550.5228,883.5085 C 2551.3551,883.0235 2551.1575,881.4215 2550.0743,882.2735 C 2549.5838,882.6585 2549.5590,883.7555 2550.5228,883.5085"
         id="path6058" />
      <path
         d="M 2550.1648,880.2685 C 2550.9784,879.8545 2551.0450,878.9005 2550.2763,878.1785 C 2549.3440,878.6065 2549.7645,879.4705 2550.1648,880.2685"
         id="path6062" />
      <path
         d="M 2547.4930,890.4185 C 2547.0529,889.8935 2546.8851,889.3435 2546.9905,888.7685 C 2545.8960,889.2445 2545.6167,892.2515 2544.8337,889.1985 C 2544.5312,888.0215 2542.5565,885.1785 2542.9511,887.9845 C 2543.1597,889.2555 2544.0927,890.4395 2543.9012,891.6965 C 2543.7174,892.9015 2544.6244,893.6265 2544.8987,894.8185 C 2547.4467,894.8215 2549.1664,893.0315 2547.4930,890.4185"
         id="path6048" />
      <path
         d="M 2550.7288,903.1685 C 2551.3064,902.7455 2554.0242,902.5505 2552.9999,901.1945 C 2552.2222,900.1635 2550.9942,899.6435 2550.2019,898.5715 C 2547.2302,894.5475 2548.0334,900.3225 2549.2420,899.0575 C 2550.3969,900.2795 2549.6247,901.9255 2550.7288,903.1685"
         id="path6052" />
      <path
         d="M 2548.2576,895.8985 C 2548.4877,895.5595 2548.4322,895.1995 2548.0920,894.8185 C 2547.8192,894.9805 2547.6001,895.1945 2547.4336,895.4595 C 2547.7092,895.6055 2547.9827,895.7515 2548.2576,895.8985"
         id="path6054" />
      <path
         d="M 2557.5791,913.8185 C 2558.8981,913.9655 2559.1717,912.1565 2557.9465,911.3845 C 2557.0830,910.8415 2555.9435,912.4385 2555.8617,913.0285 C 2556.9847,912.1025 2556.0755,913.5685 2557.5791,913.8185"
         id="path6056" />
      <path
         d="M 2553.2097,893.5885 C 2553.6402,893.0595 2553.9870,892.4585 2554.1983,891.7885 C 2553.4971,891.9035 2552.7517,891.9965 2552.4513,892.6525 C 2552.1951,893.2115 2552.4824,893.7005 2553.2097,893.5885"
         id="path6064" />
      <path
         d="M 2555.6707,901.1485 C 2556.1847,901.0885 2556.6358,900.9215 2557.0270,900.6485 C 2556.4774,900.3215 2556.0599,899.7945 2556.0536,899.2095 C 2555.2192,899.1785 2554.7276,899.7815 2553.9381,899.8495 C 2554.2119,900.6075 2555.0036,900.8855 2555.6707,901.1485"
         id="path6066" />
      <path
         d="M 2558.2003,905.3285 C 2558.0950,904.5835 2556.2573,903.7655 2555.6724,903.4585 C 2554.9490,905.4065 2557.1688,904.5075 2558.2003,905.3285"
         id="path6068" />
      <path
         d="M 2556.0669,897.9785 C 2556.9181,897.2005 2556.3858,894.5225 2555.5289,893.5185 C 2555.5006,895.0105 2555.5285,896.4375 2556.0669,897.9785"
         id="path6072" />
      <path
         d="M 2555.3704,892.7985 C 2556.1785,891.9305 2555.7927,890.1525 2554.9811,889.0585 C 2555.1569,890.3105 2555.1081,891.5385 2555.3704,892.7985"
         id="path6074" />
      <path
         d="M 2564.3701,923.9685 C 2564.9438,923.5635 2563.8602,920.4115 2562.6490,920.7395 C 2562.1898,920.8635 2562.1603,922.2525 2562.1719,922.6575 C 2562.1920,923.3985 2563.8451,923.6535 2564.3701,923.9685"
         id="path6076" />
      <path
         d="M 2565.5678,929.6585 C 2566.3023,928.6725 2564.6653,927.7715 2564.8678,926.7085 C 2563.1174,926.8925 2564.2485,929.0725 2565.5678,929.6585"
         id="path6078" />
      <path
         d="M 2568.4601,934.7685 C 2568.6578,934.5555 2568.8244,934.3185 2568.9593,934.0585 C 2568.2101,933.6425 2567.4453,934.3315 2568.4601,934.7685"
         id="path6080" />
    </g>
    <path
       class="circle vu"
       d="M 2554.2458,907.7396 C 2562.0708,907.7396 2559.4153,895.7134 2551.6074,895.7134 C 2543.7939,895.7134 2546.4152,907.7396 2554.2458,907.7396"
       id="vu." />
  </g>
  
  
  
  
  
  
  
  
  
  
  
  
  
  
  
  
  
  
  
  
  
  
  
  
  
  
  
  
  
  
  
  
  
  
  
  
  
  
  
  
  
  
  
  
  
  
  
  
  
  
  
  
  
  
  
  
  
  
  
  
  
  
  
  
  
  
  
</svg>
