<?xml version="1.0" encoding="UTF-8" standalone="no"?>
<svg
   xmlns:dc="http://purl.org/dc/elements/1.1/"
   xmlns:cc="http://web.resource.org/cc/"
   xmlns:rdf="http://www.w3.org/1999/02/22-rdf-syntax-ns#"
   xmlns:svg="http://www.w3.org/2000/svg"
   xmlns="http://www.w3.org/2000/svg"
   xmlns:sodipodi="http://sodipodi.sourceforge.net/DTD/sodipodi-0.dtd"
   xmlns:inkscape="http://www.inkscape.org/namespaces/inkscape"
   viewBox="0 0 2752.766 1537.631"
   version="1.0"
   height="476.7276"
   width="939.74725"
   id="svg1926"
   sodipodi:version="0.32"
   inkscape:version="0.45.1"
   sodipodi:docname="BlankMap-World6.svg"
   sodipodi:docbase="/home/bennett/Desktop"
   inkscape:output_extension="org.inkscape.output.svg.inkscape">
  <sodipodi:namedview
     inkscape:window-height="590"
     inkscape:window-width="822"
     inkscape:pageshadow="2"
     inkscape:pageopacity="0.0"
     guidetolerance="10.0"
     gridtolerance="10.0"
     objecttolerance="10.0"
     borderopacity="1.0"
     bordercolor="#666666"
     pagecolor="#ffffff"
     id="base"
     inkscape:zoom="0.77893284"
     inkscape:cx="469.87363"
     inkscape:cy="238.3638"
     inkscape:window-x="178"
     inkscape:window-y="46"
     inkscape:current-layer="svg1926" />
  <metadata
     id="metadata24111">
    <rdf:RDF>
      <cc:Work
         rdf:about="">
        <dc:format>image/svg+xml</dc:format>
        <dc:type
           rdf:resource="http://purl.org/dc/dcmitype/StillImage" />
        <cc:license
           rdf:resource="http://web.resource.org/cc/PublicDomain" />
        <dc:title>Blank World Map</dc:title>
      </cc:Work>
      <cc:License
         rdf:about="http://web.resource.org/cc/PublicDomain">
        <cc:permits
           rdf:resource="http://web.resource.org/cc/Reproduction" />
        <cc:permits
           rdf:resource="http://web.resource.org/cc/Distribution" />
        <cc:permits
           rdf:resource="http://web.resource.org/cc/DerivativeWorks" />
      </cc:License>
    </rdf:RDF>
  </metadata>
  <defs
     id="defs1930" />
  <style
     type="text/css"
     id="style_css_sheet">
/*
 * Below are Cascading Style Sheet (CSS) definitions in use in this file,
 * which allow easily changing how countries are displayed.
 *
 */

/*
 * Circles around small countries
 *
 * Change opacity to 1 to display all circles.
 *
 */
.circle
{
   opacity:0;
   fill:#b9b9b9;
   fill-opacity:1;
   stroke:black;
   stroke-width:0.99986893;
   stroke-miterlimit:3.97446823;
   stroke-dasharray:none;
   stroke-opacity:1;
}

/*
 * Land
 */
.land
{
   fill: #b9b9b9;
   fill-opacity: 1;
   stroke: #ffffff;
   stroke-opacity: 1;
   stroke-width: 0.99986997;
   stroke-miterlimit: 3.97446823;
   stroke-dasharray: none;
}

/*
 * Additional style rules
 *
 * The following are examples of colouring countries.  You can substitute these with your own styles to colour the countries on the map.
 *
 * Color a few countries:
 *
 * .gb, .au, .nc
 * {
 *    fill:       #ff0000;
 * }
 *
 * Color a few small country circles (and the countries):
 *
 * .ms, .ky
 * {
 *    opacity:    1;
 *    fill:       #ff0000;
 * }
 *
 */

/*
 * Antarctica
 */

.aq
{
   fill:#e6e6e6;
}

/*
 * Sea
 */

.ocean
{
   opacity: 1;
   color: #000000;
   fill:white;
   fill-opacity:1;
   fill-rule:nonzero;
   stroke:#000000;
   stroke-width:0.5;
   stroke-linecap:butt;
   stroke-linejoin:miter;
   marker:none;
   marker-start:none;
   marker-mid:none;
   marker-end:none;
   stroke-miterlimit:1;
   stroke-dasharray:none;
   stroke-dashoffset:0;
   stroke-opacity:1;
   visibility:visible;
   display:inline;
   overflow:visible;
}

.lake
{
   fill:#ffffff;
   fill-opacity:1;
   stroke:#ffffff;
   stroke-opacity:1;
   stroke-width:0.99986997;
   stroke-miterlimit:3.97446823;
   stroke-dasharray:none;
}
</style>
  
  
  
  
  
  
  
  
  
  <g
     class="land ye"
     id="ye">
    <path
       d="M 1597.4508,639.2135 C 1597.5608,638.8825 1597.5963,638.5465 1597.5605,638.2055 C 1596.4417,638.3825 1596.8772,638.8225 1597.4508,639.2135"
       id="path2190" />
    <path
       d="M 1670.4888,654.4775 C 1670.4774,653.6995 1669.5002,653.9735 1669.0574,654.0455 C 1669.5339,654.1895 1670.0114,654.3335 1670.4888,654.4775"
       id="path2192" />
    <path
       d="M 1681.2683,653.0375 C 1682.9807,652.6505 1685.9170,652.8355 1686.8635,650.9495 C 1685.8697,650.3425 1684.5607,649.4125 1683.2920,649.6935 C 1682.6913,649.8275 1682.1617,650.2145 1681.5267,650.1535 C 1680.8545,650.0905 1680.2993,649.5055 1679.5931,649.6315 C 1678.8221,649.7685 1678.0810,651.2485 1678.6909,651.8025 C 1679.3267,652.3835 1680.3945,652.9125 1681.2683,653.0375"
       id="path2194" />
    <path
       d="M 1676.8685,615.2045 C 1674.4167,615.1145 1675.8082,610.0985 1673.3852,609.8155 C 1674.8584,607.9925 1670.8462,602.7275 1670.2489,600.9515 C 1669.6765,599.2525 1669.4177,597.0365 1668.1280,595.7245 C 1666.7558,594.3315 1661.3142,596.0435 1659.4232,596.2885 C 1655.8037,596.7585 1652.1836,597.2165 1648.5627,597.6675 C 1645.1964,598.0875 1642.9496,599.1975 1640.0775,601.0195 C 1637.8153,602.4565 1637.0135,604.1145 1635.4805,606.2225 C 1634.1548,608.0465 1633.2724,612.6525 1630.3155,612.4755 C 1628.3031,612.3555 1628.6635,609.3685 1626.7108,609.5945 C 1624.2498,609.8795 1622.2492,609.8345 1619.7837,609.4905 C 1618.3847,609.2955 1616.9858,608.3065 1615.6061,608.3065 C 1614.0783,608.3065 1612.5501,608.4515 1611.0252,608.5935 C 1609.1533,608.7675 1607.5431,609.5935 1605.6157,609.4885 C 1604.5560,609.4305 1604.2118,608.2645 1603.1317,608.1315 C 1602.0990,608.0035 1601.2707,608.6945 1600.7991,609.5605 C 1600.2838,610.5055 1600.0833,611.6515 1600.2187,612.6895 C 1600.3057,613.3615 1601.2316,614.0285 1600.6838,614.7175 C 1600.1660,615.3705 1599.7488,616.0415 1599.2159,616.7215 C 1598.9309,617.0935 1598.5795,617.3865 1598.1625,617.6015 C 1597.1707,618.0815 1597.6503,618.4465 1597.8065,619.4995 C 1598.0522,621.1675 1597.3854,621.9405 1597.0248,623.4605 C 1596.6910,624.8675 1597.8364,626.0905 1597.6453,627.4895 C 1597.3850,627.2495 1595.9372,627.2125 1596.1567,627.7715 C 1596.1098,627.6545 1597.5901,628.4975 1597.5872,628.4935 C 1598.3635,629.3495 1598.6312,630.2355 1598.8622,631.3555 C 1599.3177,633.5515 1599.2620,635.9995 1599.8726,638.1355 C 1600.1229,639.0125 1600.8066,639.6685 1601.1089,640.5235 C 1601.4717,641.5545 1601.0444,642.6725 1600.9816,643.7275 C 1600.8598,645.8145 1603.3479,647.5705 1602.5934,649.6905 C 1603.5187,649.7615 1604.1605,649.2445 1605.0875,649.6165 C 1606.0741,650.0125 1606.7505,650.3395 1607.8583,650.1225 C 1610.1438,649.6755 1611.2051,648.0995 1613.5332,649.3325 C 1613.4322,648.6925 1614.1405,648.0425 1614.3417,648.9735 C 1614.7476,648.5455 1614.9916,648.0485 1615.3236,647.5725 C 1615.8481,646.8195 1616.6586,646.8365 1617.3443,646.3345 C 1618.8747,645.2165 1619.0928,644.0895 1621.1674,643.6215 C 1623.1028,643.1845 1625.1377,643.1015 1627.0845,643.2795 C 1628.2311,643.3835 1630.2205,642.0735 1631.3886,641.7495 C 1633.1317,641.2665 1634.0512,639.7895 1635.6043,638.9575 C 1636.0810,638.7025 1636.7633,638.1255 1637.2736,637.9765 C 1637.8287,637.9945 1638.3523,638.1255 1638.8455,638.3675 C 1639.4133,638.3945 1639.9733,638.3265 1640.5237,638.1645 C 1644.2115,637.5805 1645.2125,633.8265 1648.5814,632.2255 C 1650.1471,631.4815 1651.5075,631.2935 1653.1564,631.0105 C 1655.1884,630.6625 1656.9249,629.3245 1658.9313,628.8565 C 1660.3267,628.5305 1661.7369,628.2735 1663.0988,627.7955 C 1664.4598,627.3175 1664.9879,626.2635 1666.1469,625.6925 C 1667.1090,625.2185 1669.1300,625.2775 1669.4825,624.0175 C 1669.8919,622.5575 1668.9349,621.2295 1669.5514,619.7405 C 1670.7950,616.7315 1674.5080,616.8505 1676.8685,615.2045"
       id="path2592" />
  </g>
  
  
  
  
  
  
  
  
  
  
  
  
  
  
  
  
  
  
  
  
  
  
  
  
  
  
  
  
  
  
  
  
  
  
  
  
  
  
  
  
  
  
  
  
  
  
  
  
  
  
  
  
  
  
  
  
  
  
  
  
  
  
  
  
  
  
  
  
  
  
  
  
  
  
  
  
  
  
  
  
  
  
  
  
  
  
  
  
  
  
  
  
  
  
  
  
  
  
  
  
  
  
  
  
  
  
  
  
  
  
  
  
  
  
  
  
  
  
  
  
  
  
  
  
  
  
  
  
  
  
  
  
  
  
  
  
  
  
  
  
  
  
  
  
  
  
  
  
  
  
  
  
  
  
  
  
  
  
  
  
  
  
  
  
  
  
  
  
  
  
  
  
  
  
  
  
  
  
  
  
  
  
  
  
  
  
  
  
  
  
  
  
  
  
  
  
  
  
  
  
  
  
  
  
  
  
  
  
  
  
  
  
  
  
  
  
  
  
  
  
  
  
</svg>
