<?xml version="1.0" encoding="UTF-8" standalone="no"?>
<svg
   xmlns:dc="http://purl.org/dc/elements/1.1/"
   xmlns:cc="http://web.resource.org/cc/"
   xmlns:rdf="http://www.w3.org/1999/02/22-rdf-syntax-ns#"
   xmlns:svg="http://www.w3.org/2000/svg"
   xmlns="http://www.w3.org/2000/svg"
   xmlns:sodipodi="http://sodipodi.sourceforge.net/DTD/sodipodi-0.dtd"
   xmlns:inkscape="http://www.inkscape.org/namespaces/inkscape"
   viewBox="0 0 2752.766 1537.631"
   version="1.0"
   height="476.7276"
   width="939.74725"
   id="svg1926"
   sodipodi:version="0.32"
   inkscape:version="0.45.1"
   sodipodi:docname="BlankMap-World6.svg"
   sodipodi:docbase="/home/bennett/Desktop"
   inkscape:output_extension="org.inkscape.output.svg.inkscape">
  <sodipodi:namedview
     inkscape:window-height="590"
     inkscape:window-width="822"
     inkscape:pageshadow="2"
     inkscape:pageopacity="0.0"
     guidetolerance="10.0"
     gridtolerance="10.0"
     objecttolerance="10.0"
     borderopacity="1.0"
     bordercolor="#666666"
     pagecolor="#ffffff"
     id="base"
     inkscape:zoom="0.77893284"
     inkscape:cx="469.87363"
     inkscape:cy="238.3638"
     inkscape:window-x="178"
     inkscape:window-y="46"
     inkscape:current-layer="svg1926" />
  <metadata
     id="metadata24111">
    <rdf:RDF>
      <cc:Work
         rdf:about="">
        <dc:format>image/svg+xml</dc:format>
        <dc:type
           rdf:resource="http://purl.org/dc/dcmitype/StillImage" />
        <cc:license
           rdf:resource="http://web.resource.org/cc/PublicDomain" />
        <dc:title>Blank World Map</dc:title>
      </cc:Work>
      <cc:License
         rdf:about="http://web.resource.org/cc/PublicDomain">
        <cc:permits
           rdf:resource="http://web.resource.org/cc/Reproduction" />
        <cc:permits
           rdf:resource="http://web.resource.org/cc/Distribution" />
        <cc:permits
           rdf:resource="http://web.resource.org/cc/DerivativeWorks" />
      </cc:License>
    </rdf:RDF>
  </metadata>
  <defs
     id="defs1930" />
  <style
     type="text/css"
     id="style_css_sheet">
/*
 * Below are Cascading Style Sheet (CSS) definitions in use in this file,
 * which allow easily changing how countries are displayed.
 *
 */

/*
 * Circles around small countries
 *
 * Change opacity to 1 to display all circles.
 *
 */
.circle
{
   opacity:0;
   fill:#b9b9b9;
   fill-opacity:1;
   stroke:black;
   stroke-width:0.99986893;
   stroke-miterlimit:3.97446823;
   stroke-dasharray:none;
   stroke-opacity:1;
}

/*
 * Land
 */
.land
{
   fill: #b9b9b9;
   fill-opacity: 1;
   stroke: #ffffff;
   stroke-opacity: 1;
   stroke-width: 0.99986997;
   stroke-miterlimit: 3.97446823;
   stroke-dasharray: none;
}

/*
 * Additional style rules
 *
 * The following are examples of colouring countries.  You can substitute these with your own styles to colour the countries on the map.
 *
 * Color a few countries:
 *
 * .gb, .au, .nc
 * {
 *    fill:       #ff0000;
 * }
 *
 * Color a few small country circles (and the countries):
 *
 * .ms, .ky
 * {
 *    opacity:    1;
 *    fill:       #ff0000;
 * }
 *
 */

/*
 * Antarctica
 */

.aq
{
   fill:#e6e6e6;
}

/*
 * Sea
 */

.ocean
{
   opacity: 1;
   color: #000000;
   fill:white;
   fill-opacity:1;
   fill-rule:nonzero;
   stroke:#000000;
   stroke-width:0.5;
   stroke-linecap:butt;
   stroke-linejoin:miter;
   marker:none;
   marker-start:none;
   marker-mid:none;
   marker-end:none;
   stroke-miterlimit:1;
   stroke-dasharray:none;
   stroke-dashoffset:0;
   stroke-opacity:1;
   visibility:visible;
   display:inline;
   overflow:visible;
}

.lake
{
   fill:#ffffff;
   fill-opacity:1;
   stroke:#ffffff;
   stroke-opacity:1;
   stroke-width:0.99986997;
   stroke-miterlimit:3.97446823;
   stroke-dasharray:none;
}
</style>
  
  
  
  
  
  
  
  
  
  
  
  
  
  
  
  
  
  
  
  
  
  
  
  
  
  
  
  
  
  
  
  
  
  
  
  
  
  
  
  
  
  
  
  
  
  
  
  
  
  
  
  
  
  
  
  
  
  
  
  
  
  
  
  
  
  
  
  
  
  
  
  
  
  
  
  
  
  
  
  
  
  
  
  
  
  
  
  <path
     class="land za"
     d="M 1396.5216,1006.8486 C 1397.2872,1006.1416 1398.4724,1006.2856 1398.6032,1005.1716 C 1398.7141,1004.2296 1399.3695,1002.5946 1400.3991,1002.2756 C 1401.7553,1001.8546 1401.6152,1003.6946 1402.5523,1003.9536 C 1404.1664,1004.3986 1402.5567,1005.9466 1403.3563,1006.8916 C 1404.7596,1008.5486 1406.8791,1008.7006 1408.9121,1009.3196 C 1410.7642,1009.8836 1412.2246,1009.0896 1414.0249,1009.1326 C 1415.6394,1009.1726 1416.2848,1010.0536 1417.9363,1009.5796 C 1416.9120,1008.4886 1418.1465,1008.3156 1418.8094,1008.0626 C 1419.7240,1007.7146 1419.7640,1006.5626 1420.9232,1006.2346 C 1421.6704,1006.0226 1423.2267,1005.9196 1423.2929,1004.9136 C 1423.4237,1002.9296 1423.4403,1000.9356 1423.4182,998.9446 C 1423.3295,990.5746 1423.7585,982.1666 1423.3502,973.7985 C 1424.2496,974.9986 1425.7697,975.5666 1426.6105,976.8166 C 1427.5698,978.2436 1428.1306,980.1666 1428.7723,981.7476 C 1429.4200,983.3436 1430.0534,985.0525 1429.2921,986.6975 C 1428.3165,988.8025 1427.5932,989.9535 1428.6466,992.2995 C 1430.3719,990.3196 1434.8290,993.3285 1436.7094,991.5176 C 1437.0209,991.2175 1436.7573,990.4496 1437.2226,990.3185 C 1437.7431,990.1716 1438.2028,990.2766 1438.7065,989.9936 C 1440.0217,989.2555 1440.2567,987.5606 1441.6207,986.7616 C 1443.1201,985.8836 1444.0682,984.9176 1444.3702,983.1555 C 1444.6327,981.6215 1444.5470,980.3465 1445.8180,979.2006 C 1446.9248,978.2025 1448.3851,978.0015 1449.7835,978.6075 C 1450.9356,979.1075 1452.6451,981.4596 1453.7292,981.4306 C 1456.1638,981.3676 1459.1135,984.2206 1461.3672,982.4475 C 1462.3757,981.6535 1463.9565,982.7576 1465.2143,981.8265 C 1466.5569,980.8315 1467.0040,979.1695 1467.5466,977.6685 C 1467.8343,976.8736 1468.0861,976.0545 1468.1953,975.2106 C 1468.3740,973.8386 1467.7002,973.9396 1469.1177,973.5445 C 1469.9404,973.3156 1472.3545,972.9135 1472.7857,972.1555 C 1473.5555,970.8006 1475.1479,970.1925 1475.7783,968.7595 C 1476.4654,967.1985 1476.0954,965.5856 1477.1393,964.1146 C 1478.0319,962.8555 1479.0781,962.7436 1480.2602,961.9195 C 1481.4709,961.0746 1483.0067,959.7736 1483.9108,958.6086 C 1484.6805,957.6155 1485.1714,956.0925 1486.3665,955.4905 C 1487.5624,954.8886 1488.9923,954.8335 1490.2480,954.3815 C 1491.4509,953.9485 1491.4019,953.4235 1491.9709,952.5045 C 1492.4525,951.7246 1493.8168,951.4715 1494.6489,951.3006 C 1498.0428,950.6005 1500.1898,952.7995 1503.5121,952.8225 C 1506.4694,952.8436 1509.1235,951.7275 1510.2036,955.2785 C 1510.8075,957.2595 1511.3595,959.2795 1511.5020,961.3386 C 1511.6325,963.2125 1512.8761,964.8216 1513.6439,966.5045 C 1515.2915,970.1086 1515.2368,973.5316 1515.2025,977.3356 C 1515.1883,978.8006 1515.4098,980.8596 1514.7288,982.1366 C 1514.1099,983.2966 1516.0144,992.4945 1516.1262,991.5905 C 1518.2309,992.5544 1519.3322,992.2034 1521.5152,992.2764 C 1520.8113,996.0675 1519.8720,999.3356 1519.0044,1003.0906 C 1518.5752,1005.0336 1517.7421,1008.9806 1514.9556,1008.7896 C 1515.4489,1009.7406 1514.1568,1009.7066 1513.5697,1009.8216 C 1512.8337,1009.9666 1512.2521,1010.8676 1511.8080,1011.3736 C 1510.2364,1013.1656 1508.6438,1015.2956 1507.9999,1017.5786 C 1507.6377,1018.8606 1506.5009,1019.6706 1505.8909,1020.8186 C 1504.9508,1022.5856 1503.9606,1024.3366 1502.8537,1025.9976 C 1500.8724,1028.9896 1498.6656,1031.0076 1495.9001,1033.3046 C 1493.5877,1035.2226 1492.3269,1038.0076 1490.0088,1039.9176 C 1487.0531,1042.3476 1484.1619,1044.8556 1481.0920,1047.1716 C 1478.6751,1048.9906 1475.9053,1051.1686 1472.6737,1051.5846 C 1471.1205,1051.7856 1469.5266,1050.9706 1468.0047,1051.4186 C 1466.9020,1051.7426 1465.4089,1053.0226 1466.9985,1053.9386 C 1465.2055,1054.7096 1463.0573,1052.4986 1461.3967,1053.6136 C 1459.4572,1054.9146 1459.0692,1055.6816 1456.2688,1054.6896 C 1454.1682,1053.9456 1451.4857,1053.1516 1449.3422,1053.9386 C 1448.3817,1054.2916 1448.8999,1054.8866 1447.3978,1054.3856 C 1446.5140,1054.0906 1445.0165,1054.6006 1444.5326,1053.6486 C 1444.5092,1053.7686 1444.5144,1053.8886 1444.5481,1054.0086 C 1442.2999,1053.6656 1438.7631,1054.6396 1437.6962,1056.6076 C 1436.7645,1058.3256 1431.6959,1056.5516 1430.1297,1057.1996 C 1429.1894,1057.5896 1428.1736,1057.3296 1427.2925,1057.7296 C 1426.2246,1058.2136 1425.0548,1059.1966 1424.1243,1059.8966 C 1422.9494,1060.7826 1423.4204,1060.6066 1422.0157,1060.2686 C 1421.4058,1060.1226 1420.7341,1060.4496 1420.1802,1060.0306 C 1419.5493,1059.5516 1418.9497,1058.9826 1418.1538,1058.7596 C 1419.4824,1056.9636 1415.2259,1056.8946 1414.2818,1056.7396 C 1414.8176,1055.3406 1414.1778,1054.0906 1412.4273,1054.3976 C 1411.2390,1054.6066 1411.7126,1055.9446 1411.7639,1056.7396 C 1409.5688,1055.9406 1411.2181,1053.4996 1411.3929,1052.2536 C 1411.5446,1051.1686 1410.8882,1050.0496 1410.2904,1049.1586 C 1409.9461,1048.6456 1407.1543,1045.1006 1408.9819,1046.7396 C 1408.1996,1046.0126 1408.5097,1045.2106 1407.3742,1045.2186 C 1406.4134,1045.2246 1407.4091,1042.9466 1407.5038,1042.6296 C 1409.9900,1043.9966 1410.5449,1041.3216 1410.5393,1039.5286 C 1410.5307,1036.4596 1409.5728,1033.8696 1407.8394,1031.2386 C 1405.2673,1027.3236 1402.9954,1023.4466 1401.5004,1019.0486 C 1400.8039,1016.9946 1400.3422,1014.8756 1399.5152,1012.8606 C 1398.6902,1010.8426 1396.7578,1009.0476 1396.5216,1006.8486"
     id="za" />
  
  
  
  
  
  
  
  
  
  
  
  
  
  
  
  
  
  
  
  
  
  
  
  
  
  
  
  
  
  
  
  
  
  
  
  
  
  
  
  
  
  
  
  
  
  
  
  
  
  
  
  
  
  
  
  
  
  
  
  
  
  
  
  
  
  
  
  
  
  
  
  
  
  
  
  
  
  
  
  
  
  
  
  
  
  
  
  
  
  
  
  
  
  
  
  
  
  
  
  
  
  
  
  
  
  
  
  
  
  
  
  
  
  
  
  
  
  
  
  
  
  
  
  
  
  
  
  
  
  
  
  
  
  
  
  
  
  
  
  
  
  
  
  
</svg>
