<?xml version="1.0" encoding="UTF-8" standalone="no"?>
<svg
   xmlns:dc="http://purl.org/dc/elements/1.1/"
   xmlns:cc="http://web.resource.org/cc/"
   xmlns:rdf="http://www.w3.org/1999/02/22-rdf-syntax-ns#"
   xmlns:svg="http://www.w3.org/2000/svg"
   xmlns="http://www.w3.org/2000/svg"
   xmlns:sodipodi="http://sodipodi.sourceforge.net/DTD/sodipodi-0.dtd"
   xmlns:inkscape="http://www.inkscape.org/namespaces/inkscape"
   viewBox="0 0 2752.766 1537.631"
   version="1.0"
   height="476.7276"
   width="939.74725"
   id="svg1926"
   sodipodi:version="0.32"
   inkscape:version="0.45.1"
   sodipodi:docname="BlankMap-World6.svg"
   sodipodi:docbase="/home/bennett/Desktop"
   inkscape:output_extension="org.inkscape.output.svg.inkscape">
  <sodipodi:namedview
     inkscape:window-height="590"
     inkscape:window-width="822"
     inkscape:pageshadow="2"
     inkscape:pageopacity="0.0"
     guidetolerance="10.0"
     gridtolerance="10.0"
     objecttolerance="10.0"
     borderopacity="1.0"
     bordercolor="#666666"
     pagecolor="#ffffff"
     id="base"
     inkscape:zoom="0.77893284"
     inkscape:cx="469.87363"
     inkscape:cy="238.3638"
     inkscape:window-x="178"
     inkscape:window-y="46"
     inkscape:current-layer="svg1926" />
  <metadata
     id="metadata24111">
    <rdf:RDF>
      <cc:Work
         rdf:about="">
        <dc:format>image/svg+xml</dc:format>
        <dc:type
           rdf:resource="http://purl.org/dc/dcmitype/StillImage" />
        <cc:license
           rdf:resource="http://web.resource.org/cc/PublicDomain" />
        <dc:title>Blank World Map</dc:title>
      </cc:Work>
      <cc:License
         rdf:about="http://web.resource.org/cc/PublicDomain">
        <cc:permits
           rdf:resource="http://web.resource.org/cc/Reproduction" />
        <cc:permits
           rdf:resource="http://web.resource.org/cc/Distribution" />
        <cc:permits
           rdf:resource="http://web.resource.org/cc/DerivativeWorks" />
      </cc:License>
    </rdf:RDF>
  </metadata>
  <defs
     id="defs1930" />
  <style
     type="text/css"
     id="style_css_sheet">
/*
 * Below are Cascading Style Sheet (CSS) definitions in use in this file,
 * which allow easily changing how countries are displayed.
 *
 */

/*
 * Circles around small countries
 *
 * Change opacity to 1 to display all circles.
 *
 */
.circle
{
   opacity:0;
   fill:#b9b9b9;
   fill-opacity:1;
   stroke:black;
   stroke-width:0.99986893;
   stroke-miterlimit:3.97446823;
   stroke-dasharray:none;
   stroke-opacity:1;
}

/*
 * Land
 */
.land
{
   fill: #b9b9b9;
   fill-opacity: 1;
   stroke: #ffffff;
   stroke-opacity: 1;
   stroke-width: 0.99986997;
   stroke-miterlimit: 3.97446823;
   stroke-dasharray: none;
}

/*
 * Additional style rules
 *
 * The following are examples of colouring countries.  You can substitute these with your own styles to colour the countries on the map.
 *
 * Color a few countries:
 *
 * .gb, .au, .nc
 * {
 *    fill:       #ff0000;
 * }
 *
 * Color a few small country circles (and the countries):
 *
 * .ms, .ky
 * {
 *    opacity:    1;
 *    fill:       #ff0000;
 * }
 *
 */

/*
 * Antarctica
 */

.aq
{
   fill:#e6e6e6;
}

/*
 * Sea
 */

.ocean
{
   opacity: 1;
   color: #000000;
   fill:white;
   fill-opacity:1;
   fill-rule:nonzero;
   stroke:#000000;
   stroke-width:0.5;
   stroke-linecap:butt;
   stroke-linejoin:miter;
   marker:none;
   marker-start:none;
   marker-mid:none;
   marker-end:none;
   stroke-miterlimit:1;
   stroke-dasharray:none;
   stroke-dashoffset:0;
   stroke-opacity:1;
   visibility:visible;
   display:inline;
   overflow:visible;
}

.lake
{
   fill:#ffffff;
   fill-opacity:1;
   stroke:#ffffff;
   stroke-opacity:1;
   stroke-width:0.99986997;
   stroke-miterlimit:3.97446823;
   stroke-dasharray:none;
}
</style>
  
  
  
  
  
  
  
  
  
  
  
  
  
  
  
  
  
  
  
  
  
  
  
  
  
  
  
  
  
  
  
  
  
  
  
  
  
  
  
  
  
  
  
  
  
  
  
  
  
  
  
  
  
  
  
  
  
  
  
  
  
  <path
     class="land zm"
     d="M 1438.6688,899.4986 C 1438.5324,891.3146 1438.5838,883.1405 1438.5937,874.9575 C 1438.5945,874.0806 1438.1105,872.2396 1439.3365,871.9725 C 1440.4097,871.7396 1441.7411,872.0416 1442.8366,872.0706 C 1446.4999,872.1656 1450.3992,872.7956 1453.9409,871.6286 C 1452.7703,870.3655 1453.3411,869.2346 1453.8652,867.8686 C 1454.4998,866.2085 1453.5992,864.9105 1453.6641,863.2545 C 1453.7926,860.1896 1455.0809,856.6775 1453.7982,853.6286 C 1454.9526,853.6476 1454.8522,854.8936 1456.0543,855.1436 C 1457.4811,855.4396 1457.0829,857.4435 1456.3066,858.1685 C 1457.9074,858.5176 1457.7601,858.4775 1459.3093,857.8045 C 1460.8152,857.1505 1462.5417,856.7405 1464.1850,856.6486 C 1463.6060,857.8045 1463.9191,859.9095 1464.8514,860.8285 C 1465.5836,861.5495 1466.7629,861.1055 1467.6649,861.5145 C 1468.9756,862.1096 1469.8961,862.6775 1471.3827,862.6975 C 1473.7801,862.7296 1476.0662,864.3016 1476.8680,861.2695 C 1477.7522,857.9656 1478.7782,861.6585 1479.9473,862.6616 C 1480.7490,863.3465 1480.6612,864.4466 1481.2482,865.2795 C 1482.1852,866.6096 1482.7850,865.2056 1483.6118,865.6916 C 1484.8385,866.4105 1485.9177,866.8006 1487.1585,867.3886 C 1488.5570,868.0516 1488.2014,869.8265 1489.2449,870.7695 C 1490.7763,872.1535 1491.0819,873.3156 1491.9702,875.0865 C 1493.0915,877.3216 1496.1561,872.9905 1497.3740,874.4396 C 1496.8629,874.8496 1496.8548,875.5335 1497.5221,875.7956 C 1498.6932,876.2565 1498.2528,873.9206 1498.2562,873.4206 C 1498.2787,870.5245 1498.3200,867.6165 1498.2638,864.7196 C 1497.7422,864.9166 1497.1644,864.9696 1496.6311,865.1355 C 1495.7155,865.4195 1496.0284,866.1476 1495.5763,866.7236 C 1494.2756,868.3815 1491.8965,865.5326 1491.1334,864.7075 C 1489.0460,862.4506 1486.4699,860.6086 1487.8697,857.0426 C 1488.5221,855.3795 1488.9263,853.5126 1489.4571,851.8066 C 1489.8180,850.6495 1489.0644,848.7255 1489.1550,847.4235 C 1489.3003,845.3016 1490.2956,840.8246 1487.4344,839.9485 C 1488.3250,837.5326 1493.3900,836.1935 1491.3893,832.9696 C 1495.5998,832.0696 1499.8928,831.4425 1504.1420,830.7405 C 1505.5934,830.5005 1505.5850,830.6845 1506.2913,831.9965 C 1506.9956,833.3035 1507.9772,833.9995 1509.4694,834.1196 C 1511.3554,834.2716 1511.1437,834.9475 1512.2219,836.2985 C 1512.6966,836.8945 1512.9852,836.7236 1513.5473,836.5216 C 1514.2751,836.2595 1514.5641,837.4416 1515.1547,837.7236 C 1516.3775,838.3056 1518.4317,838.1165 1519.0632,839.4565 C 1519.3291,840.0186 1520.1677,839.7115 1520.6092,839.8815 C 1521.5528,840.2436 1522.2607,841.0556 1522.5472,842.0126 C 1522.9133,843.2346 1524.9467,842.7616 1525.4661,844.5606 C 1525.6397,845.1616 1525.1672,845.5126 1525.2687,846.0706 C 1525.4244,846.9345 1526.0886,847.2446 1526.6972,847.7745 C 1527.2253,848.2365 1527.4460,849.7985 1527.6787,850.4435 C 1528.1137,851.6505 1526.7122,852.7976 1525.5468,853.1535 C 1524.2772,853.5406 1525.0301,854.5186 1525.3595,855.4886 C 1525.8740,857.0055 1524.9890,857.8116 1524.9624,859.2736 C 1524.9260,861.3736 1524.0536,865.8686 1526.7224,866.6616 C 1525.6695,867.8106 1522.3811,868.3536 1522.4456,870.2826 C 1522.4870,871.5435 1523.0517,872.0585 1522.5931,873.4366 C 1522.1004,874.9195 1522.1625,876.4095 1520.9581,877.4606 C 1521.5601,877.4646 1520.4519,877.6486 1520.4738,878.1816 C 1520.5123,879.0956 1521.9043,879.3075 1522.4305,879.9256 C 1522.5838,880.1055 1522.5977,880.9066 1522.9076,880.9185 C 1523.6193,880.9466 1523.8863,879.2835 1524.3637,880.7705 C 1519.1015,882.9496 1513.7140,885.1685 1508.2703,886.8615 C 1506.0965,887.5385 1503.5773,888.1626 1501.5774,889.2426 C 1499.7129,890.2486 1505.2169,894.6096 1501.8598,894.9995 C 1501.1605,895.0806 1500.2315,895.2265 1499.5426,894.9556 C 1498.1936,894.4266 1496.6340,895.2436 1495.3907,895.6616 C 1493.6160,896.2576 1491.3341,897.3066 1491.0006,899.3636 C 1490.8576,900.2396 1491.1063,901.1946 1490.7231,902.0245 C 1490.1809,903.2035 1488.6022,903.3465 1487.5216,903.7716 C 1485.6437,904.5086 1483.1195,906.0395 1482.1135,907.8075 C 1481.0922,909.6005 1477.1067,917.4496 1473.9097,915.5936 C 1473.2127,915.1885 1472.4718,914.8095 1471.7010,914.5706 C 1470.5765,914.2206 1469.5014,915.6756 1468.6102,915.1956 C 1467.9092,914.8166 1467.6227,913.8536 1466.7351,913.6816 C 1465.3106,913.4066 1464.5267,914.4765 1463.1799,913.2465 C 1461.1774,911.4166 1459.6326,911.2536 1457.0040,910.8536 C 1455.4590,910.6196 1453.9225,911.1236 1452.4612,911.5045 C 1451.7744,911.6835 1450.3927,912.4066 1449.6942,911.9675 C 1447.2959,910.4606 1445.5559,908.1025 1443.6626,906.0606 C 1442.6251,904.9416 1441.4401,903.9886 1440.3856,902.8926 C 1439.4026,901.8676 1439.4811,900.5735 1438.6688,899.4986"
     id="zm" />
  
  
  
  
  
  
  
  
  
  
  
  
  
  
  
  
  
  
  
  
  
  
  
  
  
  
  
  
  
  
  
  
  
  
  
  
  
  
  
  
  
  
  
  
  
  
  
  
  
  
  
  
  
  
  
  
  
  
  
  
  
  
  
  
  
  
  
  
  
  
  
  
  
  
  
  
  
  
  
  
  
  
  
  
  
  
  
  
  
  
  
  
  
  
  
  
  
  
  
  
  
  
  
  
  
  
  
  
  
  
  
  
  
  
  
  
  
  
  
  
  
  
  
  
  
  
  
  
  
  
  
  
  
  
  
  
  
  
  
  
  
  
  
  
  
  
  
  
  
  
  
  
  
  
  
  
  
  
  
  
  
  
  
  
  
  
  
  
  
  
</svg>
