<?xml version="1.0" encoding="UTF-8" standalone="no"?>
<svg
   xmlns:dc="http://purl.org/dc/elements/1.1/"
   xmlns:cc="http://web.resource.org/cc/"
   xmlns:rdf="http://www.w3.org/1999/02/22-rdf-syntax-ns#"
   xmlns:svg="http://www.w3.org/2000/svg"
   xmlns="http://www.w3.org/2000/svg"
   xmlns:sodipodi="http://sodipodi.sourceforge.net/DTD/sodipodi-0.dtd"
   xmlns:inkscape="http://www.inkscape.org/namespaces/inkscape"
   viewBox="0 0 2752.766 1537.631"
   version="1.0"
   height="476.7276"
   width="939.74725"
   id="svg1926"
   sodipodi:version="0.32"
   inkscape:version="0.45.1"
   sodipodi:docname="BlankMap-World6.svg"
   sodipodi:docbase="/home/bennett/Desktop"
   inkscape:output_extension="org.inkscape.output.svg.inkscape">
  <sodipodi:namedview
     inkscape:window-height="590"
     inkscape:window-width="822"
     inkscape:pageshadow="2"
     inkscape:pageopacity="0.0"
     guidetolerance="10.0"
     gridtolerance="10.0"
     objecttolerance="10.0"
     borderopacity="1.0"
     bordercolor="#666666"
     pagecolor="#ffffff"
     id="base"
     inkscape:zoom="0.77893284"
     inkscape:cx="469.87363"
     inkscape:cy="238.3638"
     inkscape:window-x="178"
     inkscape:window-y="46"
     inkscape:current-layer="svg1926" />
  <metadata
     id="metadata24111">
    <rdf:RDF>
      <cc:Work
         rdf:about="">
        <dc:format>image/svg+xml</dc:format>
        <dc:type
           rdf:resource="http://purl.org/dc/dcmitype/StillImage" />
        <cc:license
           rdf:resource="http://web.resource.org/cc/PublicDomain" />
        <dc:title>Blank World Map</dc:title>
      </cc:Work>
      <cc:License
         rdf:about="http://web.resource.org/cc/PublicDomain">
        <cc:permits
           rdf:resource="http://web.resource.org/cc/Reproduction" />
        <cc:permits
           rdf:resource="http://web.resource.org/cc/Distribution" />
        <cc:permits
           rdf:resource="http://web.resource.org/cc/DerivativeWorks" />
      </cc:License>
    </rdf:RDF>
  </metadata>
  <defs
     id="defs1930" />
  <style
     type="text/css"
     id="style_css_sheet">
/*
 * Below are Cascading Style Sheet (CSS) definitions in use in this file,
 * which allow easily changing how countries are displayed.
 *
 */

/*
 * Circles around small countries
 *
 * Change opacity to 1 to display all circles.
 *
 */
.circle
{
   opacity:0;
   fill:#b9b9b9;
   fill-opacity:1;
   stroke:black;
   stroke-width:0.99986893;
   stroke-miterlimit:3.97446823;
   stroke-dasharray:none;
   stroke-opacity:1;
}

/*
 * Land
 */
.land
{
   fill: #b9b9b9;
   fill-opacity: 1;
   stroke: #ffffff;
   stroke-opacity: 1;
   stroke-width: 0.99986997;
   stroke-miterlimit: 3.97446823;
   stroke-dasharray: none;
}

/*
 * Additional style rules
 *
 * The following are examples of colouring countries.  You can substitute these with your own styles to colour the countries on the map.
 *
 * Color a few countries:
 *
 * .gb, .au, .nc
 * {
 *    fill:       #ff0000;
 * }
 *
 * Color a few small country circles (and the countries):
 *
 * .ms, .ky
 * {
 *    opacity:    1;
 *    fill:       #ff0000;
 * }
 *
 */

/*
 * Antarctica
 */

.aq
{
   fill:#e6e6e6;
}

/*
 * Sea
 */

.ocean
{
   opacity: 1;
   color: #000000;
   fill:white;
   fill-opacity:1;
   fill-rule:nonzero;
   stroke:#000000;
   stroke-width:0.5;
   stroke-linecap:butt;
   stroke-linejoin:miter;
   marker:none;
   marker-start:none;
   marker-mid:none;
   marker-end:none;
   stroke-miterlimit:1;
   stroke-dasharray:none;
   stroke-dashoffset:0;
   stroke-opacity:1;
   visibility:visible;
   display:inline;
   overflow:visible;
}

.lake
{
   fill:#ffffff;
   fill-opacity:1;
   stroke:#ffffff;
   stroke-opacity:1;
   stroke-width:0.99986997;
   stroke-miterlimit:3.97446823;
   stroke-dasharray:none;
}
</style>
  
  
  
  
  
  
  
  
  
  
  
  
  
  
  
  
  
  
  
  
  
  
  
  
  
  
  
  
  
  
  
  
  
  
  
  
  
  
  
  
  
  
  
  
  
  
  
  
  
  
  
  
  
  
  
  
  
  
  
  
  
  
  
  
  
  
  
  
  
  
  
  
  
  
  
  
  
  
  
  
  
  
  
  
  
  
  
  
  
  
  
  
  
  
  
  
  
  
  
  
  
  
  
  
  
  
  
  
  
  
  
  
  
  
  
  
  
  
  
  
  
  
  
  
  
  
  
  
  
  
  
  
  
  
  
  
  <path
     class="land zw"
     d="M 1463.5904,913.6785 C 1464.5785,913.9045 1465.5521,914.1105 1466.5299,913.7536 C 1467.4803,913.4066 1467.9782,914.8156 1468.6033,915.2065 C 1469.2924,915.6376 1470.2225,914.6875 1470.8765,914.5875 C 1471.7206,914.4585 1472.8285,915.3285 1473.5698,915.6386 C 1475.7245,916.5385 1477.3526,914.5865 1478.4609,913.0606 C 1479.9396,911.0236 1481.4176,909.6015 1482.4537,907.3016 C 1482.8686,906.3805 1483.5223,905.9855 1484.4539,905.6466 C 1485.7306,905.1825 1486.6999,904.1896 1487.9241,903.5946 C 1490.3237,902.4275 1490.8380,902.2745 1490.9105,899.4775 C 1490.9455,898.1065 1493.2227,896.4116 1494.4654,895.9195 C 1495.6308,895.4585 1497.0512,894.8246 1498.3175,894.7766 C 1499.8514,894.7175 1501.4135,895.1985 1502.9262,894.8166 C 1503.0074,897.6795 1502.7665,897.9556 1505.9768,897.9556 C 1507.9775,897.9556 1509.3864,898.2616 1511.2336,899.3525 C 1512.3697,900.0236 1513.4665,900.3206 1514.4504,901.2645 C 1515.3815,902.1555 1516.6994,901.6975 1517.8110,902.0305 C 1518.5262,902.2455 1520.3130,902.5706 1520.4912,903.4696 C 1520.7150,904.5965 1521.7191,904.3565 1522.5918,904.0975 C 1522.4064,905.4275 1521.6375,906.1906 1522.3133,907.5625 C 1523.1066,909.1745 1522.2270,910.3565 1522.7837,911.8676 C 1523.3250,913.3335 1522.2711,914.9646 1522.6382,916.5575 C 1522.8943,917.6616 1523.6068,918.5696 1522.6428,919.4466 C 1521.9375,920.0875 1522.6541,921.5875 1522.2335,921.8265 C 1521.2048,922.4085 1520.9366,922.3206 1520.5738,923.6136 C 1520.4133,924.1875 1521.3871,924.3955 1521.6825,924.6516 C 1521.9328,924.8696 1521.7574,925.7186 1521.7251,925.9646 C 1521.6465,926.5525 1521.1742,926.8696 1521.0258,927.4126 C 1520.9109,927.8346 1521.6265,929.4066 1521.7738,929.8786 C 1522.0147,929.7816 1522.2546,929.6845 1522.4966,929.5886 C 1522.4719,931.1595 1523.1303,931.7795 1522.2176,933.3755 C 1521.4807,934.6585 1521.0480,936.7885 1519.6197,937.4575 C 1518.0574,938.1885 1519.3033,939.1795 1519.0437,940.3895 C 1518.7252,941.8686 1517.5787,942.7265 1518.7995,944.2096 C 1517.5524,943.3406 1512.0643,951.0986 1511.2770,951.9746 C 1510.5565,952.7755 1510.0098,953.7855 1508.8348,953.0925 C 1507.2439,952.1545 1505.1260,952.6196 1503.3979,952.6236 C 1501.8926,952.6265 1500.5768,952.1445 1499.1617,951.6856 C 1498.3119,951.4095 1495.0729,951.7035 1494.7259,951.3496 C 1493.8335,950.4396 1493.8150,950.8095 1492.8030,950.3016 C 1491.7022,949.7495 1492.7650,948.7966 1492.4101,948.3615 C 1490.8197,946.4116 1485.1457,947.6616 1484.2373,945.6055 C 1483.3512,943.5996 1481.9411,941.8626 1482.3142,939.6795 C 1482.8022,936.8235 1481.8076,936.2966 1479.0166,936.8605 C 1479.4543,934.2576 1478.7333,933.1966 1476.2612,932.4805 C 1474.3046,931.9145 1471.6549,929.7816 1470.5250,928.1165 C 1468.8026,925.5785 1468.7050,922.4045 1466.6620,919.9406 C 1465.7687,918.8655 1462.9178,915.1136 1463.5904,913.6785"
     id="zw" />
  
  
  
  
  
  
  
  
  
  
  
  
  
  
  
  
  
  
  
  
  
  
  
  
  
  
  
  
  
  
  
  
  
  
  
  
  
  
  
  
  
  
  
  
  
  
  
  
  
  
  
  
  
  
  
  
  
  
  
  
  
  
  
  
  
  
  
  
  
  
  
  
  
  
  
  
  
  
  
  
  
  
  
  
  
  
  
  
  
  
  
  
  
  
  
</svg>
